<svg width="24" height="24" viewBox="0 0 24 24" fill="none" xmlns="http://www.w3.org/2000/svg">
<path d="M18.2959 20.021C17.2743 20.021 16.3947 19.8501 15.6569 19.5083C14.9333 19.1666 14.3729 18.6753 13.9756 18.0344C13.5783 17.3936 13.3726 16.6317 13.3584 15.7488H15.2738C15.2738 16.532 15.5363 17.1515 16.0613 17.6072C16.6004 18.0629 17.3453 18.2908 18.2959 18.2908C19.1897 18.2908 19.885 18.07 20.3816 17.6286C20.8923 17.1871 21.1477 16.5748 21.1477 15.7915C21.1477 15.1649 20.9775 14.6167 20.6369 14.1467C20.3106 13.6768 19.8353 13.3492 19.211 13.1641L17.1041 12.5019C16.04 12.1744 15.2171 11.6261 14.6353 10.8571C14.0678 10.0881 13.784 9.18385 13.784 8.14428C13.784 7.30408 13.9685 6.5778 14.3374 5.96546C14.7205 5.33887 15.2525 4.85468 15.9336 4.51291C16.6146 4.15689 17.4162 3.97888 18.3385 3.97888C19.7005 3.97888 20.793 4.36338 21.6159 5.13238C22.4388 5.88713 22.8574 6.89822 22.8716 8.16564H20.9562C20.9562 7.39664 20.7221 6.79853 20.2539 6.37131C19.7998 5.92985 19.1543 5.70912 18.3172 5.70912C17.4943 5.70912 16.8487 5.90849 16.3805 6.30723C15.9265 6.70597 15.6995 7.26136 15.6995 7.97339C15.6995 8.61422 15.8697 9.16961 16.2102 9.63955C16.5507 10.1095 17.0402 10.4441 17.6787 10.6435L19.8069 11.3271C20.8427 11.6546 21.6443 12.21 22.2118 12.9932C22.7794 13.7765 23.0631 14.695 23.0631 15.7488C23.0631 16.6032 22.8645 17.3509 22.4672 17.9917C22.07 18.6325 21.5095 19.131 20.7859 19.487C20.0765 19.843 19.2465 20.021 18.2959 20.021Z" fill="black"/>
<path d="M5.44935 20.0211C4.51293 20.0211 3.7042 19.8431 3.02317 19.4871C2.35632 19.1311 1.83845 18.6184 1.46956 17.9491C1.11485 17.2655 0.9375 16.461 0.9375 15.5353V8.48618C0.9375 7.54629 1.11485 6.74169 1.46956 6.07238C1.83845 5.40307 2.35632 4.89041 3.02317 4.53439C3.7042 4.17837 4.51293 4.00037 5.44935 4.00037C6.38577 4.00037 7.1874 4.17837 7.85425 4.53439C8.53528 4.89041 9.05315 5.40307 9.40786 6.07238C9.77675 6.74169 9.96119 7.53917 9.96119 8.46482V15.5353C9.96119 16.461 9.77675 17.2655 9.40786 17.9491C9.05315 18.6184 8.53528 19.1311 7.85425 19.4871C7.1874 19.8431 6.38577 20.0211 5.44935 20.0211ZM5.44935 18.2909C6.28645 18.2909 6.92492 18.0559 7.36475 17.586C7.81878 17.1018 8.04579 16.4182 8.04579 15.5353V8.48618C8.04579 7.60325 7.81878 6.92682 7.36475 6.45688C6.92492 5.9727 6.28645 5.73061 5.44935 5.73061C4.62643 5.73061 3.98796 5.9727 3.53394 6.45688C3.07992 6.92682 2.85291 7.60325 2.85291 8.48618V15.5353C2.85291 16.4182 3.07992 17.1018 3.53394 17.586C3.98796 18.0559 4.62643 18.2909 5.44935 18.2909Z" fill="black"/>
</svg>
