<svg width="177" height="24" viewBox="0 0 177 24" fill="none" xmlns="http://www.w3.org/2000/svg">
<g clip-path="url(#clip0_2_12)">
<path d="M32.795 19.308C31.739 19.308 30.7857 19.1467 29.935 18.824C29.0843 18.5013 28.351 18.0247 27.735 17.394C27.1337 16.7633 26.6717 15.986 26.349 15.062C26.0263 14.1233 25.865 13.038 25.865 11.806C25.865 10.0753 26.1657 8.65267 26.767 7.538C27.383 6.40867 28.2263 5.56533 29.297 5.008C30.3677 4.45067 31.5777 4.172 32.927 4.172C33.9683 4.172 34.9143 4.33333 35.765 4.656C36.6157 4.97867 37.3417 5.45533 37.943 6.086C38.559 6.71667 39.0283 7.50867 39.351 8.462C39.6883 9.40067 39.857 10.486 39.857 11.718C39.857 12.994 39.681 14.1087 39.329 15.062C38.9917 16.0007 38.5077 16.7853 37.877 17.416C37.261 18.0467 36.5203 18.5233 35.655 18.846C34.7897 19.154 33.8363 19.308 32.795 19.308ZM32.905 16.536C33.6237 16.536 34.225 16.36 34.709 16.008C35.2077 15.6413 35.5817 15.1207 35.831 14.446C36.095 13.7567 36.227 12.9207 36.227 11.938C36.227 10.8967 36.095 10.0167 35.831 9.298C35.567 8.56467 35.1783 8.01467 34.665 7.648C34.1663 7.26667 33.5503 7.076 32.817 7.076C32.113 7.076 31.5117 7.25933 31.013 7.626C30.529 7.978 30.155 8.506 29.891 9.21C29.627 9.89933 29.495 10.75 29.495 11.762C29.495 12.5247 29.5683 13.2067 29.715 13.808C29.8763 14.3947 30.0963 14.8933 30.375 15.304C30.6537 15.7 31.0057 16.008 31.431 16.228C31.871 16.4333 32.3623 16.536 32.905 16.536ZM48.0984 19.308C47.1597 19.308 46.3091 19.22 45.5464 19.044C44.7837 18.868 44.1237 18.604 43.5664 18.252C43.0091 17.8853 42.5691 17.4233 42.2464 16.866C41.9237 16.3087 41.7331 15.6633 41.6744 14.93L44.7764 13.896C44.8204 14.512 44.9964 15.0253 45.3044 15.436C45.6124 15.8467 46.0231 16.1547 46.5364 16.36C47.0644 16.5507 47.6511 16.646 48.2964 16.646C48.9124 16.646 49.4257 16.5727 49.8364 16.426C50.2617 16.2647 50.5771 16.0667 50.7824 15.832C51.0024 15.5827 51.1124 15.3187 51.1124 15.04C51.1124 14.7173 50.9731 14.4533 50.6944 14.248C50.4157 14.028 50.0344 13.8447 49.5504 13.698C49.0664 13.5367 48.5017 13.3827 47.8564 13.236C47.1231 13.06 46.4044 12.8693 45.7004 12.664C44.9964 12.4587 44.3584 12.1947 43.7864 11.872C43.2144 11.5347 42.7597 11.1093 42.4224 10.596C42.0997 10.068 41.9384 9.408 41.9384 8.616C41.9384 7.72133 42.1657 6.944 42.6204 6.284C43.0751 5.624 43.7424 5.11067 44.6224 4.744C45.5024 4.36267 46.5877 4.172 47.8784 4.172C49.1544 4.172 50.2397 4.35533 51.1344 4.722C52.0291 5.08867 52.7184 5.602 53.2024 6.262C53.6864 6.90733 53.9504 7.66267 53.9944 8.528L50.8264 9.43C50.8264 9.00467 50.7531 8.63067 50.6064 8.308C50.4744 7.98533 50.2837 7.72133 50.0344 7.516C49.7851 7.296 49.4771 7.13467 49.1104 7.032C48.7437 6.91467 48.3257 6.856 47.8564 6.856C47.2991 6.856 46.8224 6.922 46.4264 7.054C46.0451 7.186 45.7591 7.362 45.5684 7.582C45.3777 7.78733 45.2824 8.02933 45.2824 8.308C45.2824 8.66 45.4291 8.95333 45.7224 9.188C46.0304 9.408 46.4411 9.59867 46.9544 9.76C47.4824 9.90667 48.0617 10.0533 48.6924 10.2C49.3231 10.332 49.9757 10.5007 50.6504 10.706C51.3251 10.8967 51.9557 11.1533 52.5424 11.476C53.1291 11.7987 53.5984 12.2387 53.9504 12.796C54.3171 13.3387 54.5004 14.028 54.5004 14.864C54.5004 15.7587 54.2584 16.5433 53.7744 17.218C53.3051 17.878 52.5937 18.3913 51.6404 18.758C50.6871 19.1247 49.5064 19.308 48.0984 19.308ZM58.1998 19.11C57.4372 19.11 56.8652 18.9487 56.4838 18.626C56.1172 18.3033 55.9338 17.8047 55.9338 17.13C55.9338 16.4407 56.1172 15.9347 56.4838 15.612C56.8652 15.2893 57.4372 15.128 58.1998 15.128C58.9772 15.128 59.5565 15.2893 59.9378 15.612C60.3192 15.9347 60.5098 16.4407 60.5098 17.13C60.5098 18.45 59.7398 19.11 58.1998 19.11ZM58.1998 11.3C57.4372 11.3 56.8652 11.1387 56.4838 10.816C56.1172 10.4933 55.9338 9.99467 55.9338 9.32C55.9338 8.63067 56.1172 8.12467 56.4838 7.802C56.8652 7.47933 57.4372 7.318 58.1998 7.318C58.9772 7.318 59.5565 7.47933 59.9378 7.802C60.3192 8.12467 60.5098 8.63067 60.5098 9.32C60.5098 10.64 59.7398 11.3 58.1998 11.3ZM62.6157 19V4.48H68.8857C69.795 4.48 70.609 4.56067 71.3277 4.722C72.061 4.86867 72.6843 5.10333 73.1977 5.426C73.711 5.734 74.0997 6.13733 74.3637 6.636C74.6423 7.12 74.7817 7.69933 74.7817 8.374C74.7817 8.946 74.657 9.44467 74.4077 9.87C74.173 10.2953 73.799 10.64 73.2857 10.904C72.7723 11.168 72.0903 11.344 71.2397 11.432V11.806C72.6477 11.894 73.689 12.2313 74.3637 12.818C75.0383 13.4047 75.3757 14.1967 75.3757 15.194C75.3757 16.0447 75.1483 16.7487 74.6937 17.306C74.239 17.8633 73.5717 18.2887 72.6917 18.582C71.8117 18.8607 70.7263 19 69.4357 19H62.6157ZM66.0037 16.184H69.3037C70.1983 16.184 70.8583 16.0593 71.2837 15.81C71.709 15.546 71.9217 15.1353 71.9217 14.578C71.9217 13.962 71.665 13.5 71.1517 13.192C70.6383 12.884 69.8537 12.73 68.7977 12.73H66.0037V16.184ZM66.0037 10.574H68.3137C69.355 10.574 70.1177 10.4347 70.6017 10.156C71.0857 9.86267 71.3277 9.43 71.3277 8.858C71.3277 8.30067 71.1003 7.89733 70.6457 7.648C70.2057 7.384 69.531 7.252 68.6217 7.252H66.0037V10.574ZM77.8481 19V4.48H81.4121V19H77.8481ZM80.4221 19V16.14H89.3761V19H80.4221ZM80.4221 12.972V10.398H88.2541V12.972H80.4221ZM80.4221 7.318V4.48H89.3101V7.318H80.4221ZM91.7485 19V4.48H95.2905V19H91.7485ZM92.3865 19V16.03H101.208V19H92.3865ZM108.512 19.308C107.324 19.308 106.254 19.0367 105.3 18.494C104.347 17.9513 103.592 17.1373 103.034 16.052C102.492 14.952 102.22 13.5733 102.22 11.916C102.22 10.6987 102.374 9.61333 102.682 8.66C103.005 7.70667 103.482 6.9 104.112 6.24C104.743 5.56533 105.513 5.052 106.422 4.7C107.346 4.348 108.41 4.172 109.612 4.172C110.522 4.172 111.343 4.27467 112.076 4.48C112.824 4.68533 113.47 4.97867 114.012 5.36C114.555 5.74133 114.973 6.196 115.266 6.724C115.574 7.252 115.736 7.846 115.75 8.506L112.406 9.54C112.392 8.99733 112.252 8.54267 111.988 8.176C111.724 7.80933 111.372 7.53067 110.932 7.34C110.492 7.13467 110.001 7.032 109.458 7.032C108.696 7.032 108.05 7.208 107.522 7.56C107.009 7.89733 106.613 8.418 106.334 9.122C106.07 9.826 105.938 10.706 105.938 11.762C105.938 12.554 106.012 13.2507 106.158 13.852C106.32 14.4387 106.554 14.93 106.862 15.326C107.17 15.722 107.544 16.0227 107.984 16.228C108.439 16.4187 108.974 16.514 109.59 16.514C110.206 16.514 110.734 16.4187 111.174 16.228C111.629 16.0373 111.988 15.744 112.252 15.348C112.516 14.952 112.656 14.446 112.67 13.83H110.096V11.322H116.19V14.138V19H113.77L113.726 15.37H113.286C113.037 16.2207 112.714 16.9393 112.318 17.526C111.922 18.1127 111.416 18.56 110.8 18.868C110.184 19.1613 109.422 19.308 108.512 19.308ZM118.776 19V4.48H124.958C125.764 4.48 126.498 4.546 127.158 4.678C127.818 4.79533 128.397 4.97867 128.896 5.228C129.409 5.46267 129.842 5.756 130.194 6.108C130.546 6.44533 130.81 6.84133 130.986 7.296C131.162 7.736 131.25 8.22733 131.25 8.77C131.25 9.28333 131.169 9.74533 131.008 10.156C130.846 10.5667 130.597 10.926 130.26 11.234C129.937 11.542 129.526 11.7913 129.028 11.982C128.529 12.1727 127.95 12.312 127.29 12.4V12.73C128.126 12.818 128.771 13.0087 129.226 13.302C129.695 13.5807 130.054 13.9547 130.304 14.424C130.553 14.8933 130.773 15.458 130.964 16.118L131.8 19H127.862L127.224 16.338C127.092 15.7513 126.908 15.2967 126.674 14.974C126.454 14.6513 126.168 14.4313 125.816 14.314C125.464 14.182 125.024 14.116 124.496 14.116H122.318V19H118.776ZM122.318 11.498H124.716C125.61 11.498 126.307 11.322 126.806 10.97C127.304 10.618 127.554 10.068 127.554 9.32C127.554 8.58667 127.326 8.044 126.872 7.692C126.417 7.34 125.728 7.164 124.804 7.164H122.318V11.498ZM132.798 19L137.726 4.48H142.918L147.846 19H143.974L140.498 7.252H140.146L136.67 19H132.798ZM135.724 16.272V13.896H145.448V16.272H135.724ZM151.32 19V16.14H155.522C156.285 16.14 156.923 15.9787 157.436 15.656C157.95 15.3333 158.331 14.8493 158.58 14.204C158.844 13.5587 158.976 12.752 158.976 11.784C158.976 11.0067 158.896 10.3393 158.734 9.782C158.573 9.22467 158.331 8.77 158.008 8.418C157.7 8.05133 157.297 7.78 156.798 7.604C156.314 7.428 155.742 7.34 155.082 7.34H151.32V4.48H154.95C156.754 4.48 158.228 4.766 159.372 5.338C160.516 5.91 161.352 6.73133 161.88 7.802C162.408 8.858 162.672 10.1267 162.672 11.608C162.672 12.752 162.533 13.742 162.254 14.578C161.99 15.414 161.624 16.118 161.154 16.69C160.685 17.2473 160.142 17.702 159.526 18.054C158.925 18.3913 158.287 18.6333 157.612 18.78C156.952 18.9267 156.292 19 155.632 19H151.32ZM149.67 19V4.48H153.212V19H149.67ZM165.139 19V4.48H168.703V19H165.139ZM167.713 19V16.14H176.667V19H167.713ZM167.713 12.972V10.398H175.545V12.972H167.713ZM167.713 7.318V4.48H176.601V7.318H167.713Z" fill="black"/>
<path d="M2.68397 12.1635C2.68397 7.4742 6.4836 3.67457 11.1729 3.67457C13.7482 3.67457 16.0541 4.8214 17.6131 6.63347C17.9641 7.04567 18.5845 7.09057 18.9926 6.73958C19.4007 6.3886 19.4497 5.76825 19.0987 5.36012C17.1846 3.12769 14.3441 1.71558 11.1729 1.71558C5.40208 1.71558 0.724976 6.39268 0.724976 12.1635V13.796C0.724976 14.3388 1.16167 14.7755 1.70447 14.7755C2.24728 14.7755 2.68397 14.3388 2.68397 13.796V12.1635ZM21.3965 10.0046C21.2863 9.47401 20.7639 9.13527 20.2374 9.24954C19.7109 9.36382 19.3681 9.88214 19.4823 10.4086C19.6007 10.9759 19.666 11.5636 19.666 12.1676V13.8001C19.666 14.3429 20.1027 14.7796 20.6455 14.7796C21.1883 14.7796 21.625 14.3429 21.625 13.8001V12.1676C21.625 11.4289 21.5475 10.7065 21.4005 10.0087L21.3965 10.0046ZM11.1729 4.98057C10.3975 4.98057 9.64656 5.103 8.94867 5.33155C8.32832 5.53562 8.18548 6.29881 8.60993 6.79672C8.8997 7.13546 9.3772 7.23749 9.80981 7.11914C10.2424 7.00078 10.6995 6.93956 11.1729 6.93956C14.0584 6.93956 16.3969 9.27811 16.3969 12.1635V13.1798C16.3969 14.2082 16.3357 15.2326 16.2174 16.253C16.148 16.8488 16.601 17.3875 17.205 17.3875C17.6866 17.3875 18.0988 17.0365 18.1559 16.559C18.2906 15.4408 18.36 14.3144 18.36 13.1839V12.1676C18.36 8.20067 15.144 4.98465 11.177 4.98465L11.1729 4.98057ZM6.8754 7.78438C6.50401 7.35177 5.84285 7.31912 5.49186 7.76805C4.5491 8.98426 3.98997 10.5066 3.98997 12.1635V13.1798C3.98997 14.1674 3.88385 15.1551 3.67163 16.1142C3.53287 16.7509 3.99405 17.3835 4.64705 17.3835C5.07558 17.3835 5.45921 17.0978 5.55308 16.6774C5.81428 15.5306 5.94896 14.3593 5.94896 13.1757V12.1595C5.94896 11.0494 6.29587 10.0209 6.88357 9.17608C7.17741 8.75163 7.21006 8.1721 6.8754 7.7803V7.78438ZM11.1729 8.24556C9.00989 8.24556 7.25496 10.0005 7.25496 12.1635V13.1798C7.25496 14.6449 7.06722 16.0979 6.69175 17.51C6.53666 18.0936 6.96519 18.6935 7.56921 18.6935C7.95693 18.6935 8.29976 18.4405 8.40179 18.065C8.83032 16.4733 9.0507 14.8327 9.0507 13.1798V12.1635C9.0507 10.9922 10.0016 10.0413 11.1729 10.0413C12.3443 10.0413 13.2952 10.9922 13.2952 12.1635V13.1798C13.2952 14.6613 13.1523 16.1346 12.8707 17.5834C12.7606 18.1507 13.185 18.6935 13.7605 18.6935C14.1767 18.6935 14.5359 18.4078 14.6175 17.9997C14.9318 16.4162 15.0909 14.8041 15.0909 13.1798V12.1635C15.0909 10.0005 13.336 8.24556 11.1729 8.24556ZM12.1524 12.1635C12.1524 11.6207 11.7158 11.1841 11.1729 11.1841C10.6301 11.1841 10.1935 11.6207 10.1935 12.1635V13.1798C10.1935 15.6244 9.74451 18.0487 8.86705 20.3301L8.62625 20.9545C8.43036 21.4606 8.68339 22.0279 9.18947 22.2197C9.69554 22.4115 10.2628 22.1626 10.4546 21.6565L10.6954 21.0321C11.6586 18.5262 12.1524 15.8652 12.1524 13.1798V12.1635Z" fill="#FD3438"/>
</g>
<defs>
<clipPath id="clip0_2_12">
<rect width="177" height="24" fill="white"/>
</clipPath>
</defs>
</svg>
