<svg width="177" height="24" viewBox="0 0 177 24" fill="none" xmlns="http://www.w3.org/2000/svg">
<g clip-path="url(#clip0_2_12)">
<path d="M35.92 19.308C34.864 19.308 33.9107 19.1467 33.06 18.824C32.2093 18.5013 31.476 18.0247 30.86 17.394C30.2587 16.7633 29.7967 15.986 29.474 15.062C29.1513 14.1233 28.99 13.038 28.99 11.806C28.99 10.0753 29.2907 8.65267 29.892 7.538C30.508 6.40867 31.3513 5.56533 32.422 5.008C33.4927 4.45067 34.7027 4.172 36.052 4.172C37.0933 4.172 38.0393 4.33333 38.89 4.656C39.7407 4.97867 40.4667 5.45533 41.068 6.086C41.684 6.71667 42.1533 7.50867 42.476 8.462C42.8133 9.40067 42.982 10.486 42.982 11.718C42.982 12.994 42.806 14.1087 42.454 15.062C42.1167 16.0007 41.6327 16.7853 41.002 17.416C40.386 18.0467 39.6453 18.5233 38.78 18.846C37.9147 19.154 36.9613 19.308 35.92 19.308ZM36.03 16.536C36.7487 16.536 37.35 16.36 37.834 16.008C38.3327 15.6413 38.7067 15.1207 38.956 14.446C39.22 13.7567 39.352 12.9207 39.352 11.938C39.352 10.8967 39.22 10.0167 38.956 9.298C38.692 8.56467 38.3033 8.01467 37.79 7.648C37.2913 7.26667 36.6753 7.076 35.942 7.076C35.238 7.076 34.6367 7.25933 34.138 7.626C33.654 7.978 33.28 8.506 33.016 9.21C32.752 9.89933 32.62 10.75 32.62 11.762C32.62 12.5247 32.6933 13.2067 32.84 13.808C33.0013 14.3947 33.2213 14.8933 33.5 15.304C33.7787 15.7 34.1307 16.008 34.556 16.228C34.996 16.4333 35.4873 16.536 36.03 16.536ZM51.2234 19.308C50.2847 19.308 49.4341 19.22 48.6714 19.044C47.9087 18.868 47.2487 18.604 46.6914 18.252C46.1341 17.8853 45.6941 17.4233 45.3714 16.866C45.0487 16.3087 44.8581 15.6633 44.7994 14.93L47.9014 13.896C47.9454 14.512 48.1214 15.0253 48.4294 15.436C48.7374 15.8467 49.1481 16.1547 49.6614 16.36C50.1894 16.5507 50.7761 16.646 51.4214 16.646C52.0374 16.646 52.5507 16.5727 52.9614 16.426C53.3867 16.2647 53.7021 16.0667 53.9074 15.832C54.1274 15.5827 54.2374 15.3187 54.2374 15.04C54.2374 14.7173 54.0981 14.4533 53.8194 14.248C53.5407 14.028 53.1594 13.8447 52.6754 13.698C52.1914 13.5367 51.6267 13.3827 50.9814 13.236C50.2481 13.06 49.5294 12.8693 48.8254 12.664C48.1214 12.4587 47.4834 12.1947 46.9114 11.872C46.3394 11.5347 45.8847 11.1093 45.5474 10.596C45.2247 10.068 45.0634 9.408 45.0634 8.616C45.0634 7.72133 45.2907 6.944 45.7454 6.284C46.2001 5.624 46.8674 5.11067 47.7474 4.744C48.6274 4.36267 49.7127 4.172 51.0034 4.172C52.2794 4.172 53.3647 4.35533 54.2594 4.722C55.1541 5.08867 55.8434 5.602 56.3274 6.262C56.8114 6.90733 57.0754 7.66267 57.1194 8.528L53.9514 9.43C53.9514 9.00467 53.8781 8.63067 53.7314 8.308C53.5994 7.98533 53.4087 7.72133 53.1594 7.516C52.9101 7.296 52.6021 7.13467 52.2354 7.032C51.8687 6.91467 51.4507 6.856 50.9814 6.856C50.4241 6.856 49.9474 6.922 49.5514 7.054C49.1701 7.186 48.8841 7.362 48.6934 7.582C48.5027 7.78733 48.4074 8.02933 48.4074 8.308C48.4074 8.66 48.5541 8.95333 48.8474 9.188C49.1554 9.408 49.5661 9.59867 50.0794 9.76C50.6074 9.90667 51.1867 10.0533 51.8174 10.2C52.4481 10.332 53.1007 10.5007 53.7754 10.706C54.4501 10.8967 55.0807 11.1533 55.6674 11.476C56.2541 11.7987 56.7234 12.2387 57.0754 12.796C57.4421 13.3387 57.6254 14.028 57.6254 14.864C57.6254 15.7587 57.3834 16.5433 56.8994 17.218C56.4301 17.878 55.7187 18.3913 54.7654 18.758C53.8121 19.1247 52.6314 19.308 51.2234 19.308ZM61.3248 19.11C60.5622 19.11 59.9902 18.9487 59.6088 18.626C59.2422 18.3033 59.0588 17.8047 59.0588 17.13C59.0588 16.4407 59.2422 15.9347 59.6088 15.612C59.9902 15.2893 60.5622 15.128 61.3248 15.128C62.1022 15.128 62.6815 15.2893 63.0628 15.612C63.4442 15.9347 63.6348 16.4407 63.6348 17.13C63.6348 18.45 62.8648 19.11 61.3248 19.11ZM61.3248 11.3C60.5622 11.3 59.9902 11.1387 59.6088 10.816C59.2422 10.4933 59.0588 9.99467 59.0588 9.32C59.0588 8.63067 59.2422 8.12467 59.6088 7.802C59.9902 7.47933 60.5622 7.318 61.3248 7.318C62.1022 7.318 62.6815 7.47933 63.0628 7.802C63.4442 8.12467 63.6348 8.63067 63.6348 9.32C63.6348 10.64 62.8648 11.3 61.3248 11.3ZM71.3527 19V4.48H77.1387C78.0041 4.48 78.7814 4.55333 79.4707 4.7C80.1601 4.84667 80.7467 5.08133 81.2307 5.404C81.7294 5.712 82.1107 6.108 82.3747 6.592C82.6387 7.076 82.7707 7.65533 82.7707 8.33C82.7707 8.902 82.6534 9.40067 82.4187 9.826C82.1987 10.2367 81.8394 10.5813 81.3407 10.86C80.8421 11.124 80.1894 11.3073 79.3827 11.41V11.74C80.7614 11.8427 81.7661 12.1947 82.3967 12.796C83.0421 13.3827 83.3647 14.1747 83.3647 15.172C83.3647 16.008 83.1521 16.712 82.7267 17.284C82.3161 17.8413 81.6854 18.2667 80.8347 18.56C79.9987 18.8533 78.9427 19 77.6667 19H71.3527ZM73.9927 16.734H77.7107C78.7081 16.734 79.4414 16.58 79.9107 16.272C80.3947 15.9493 80.6367 15.458 80.6367 14.798C80.6367 14.0353 80.3214 13.4633 79.6907 13.082C79.0747 12.7007 78.1287 12.51 76.8527 12.51H73.9927V16.734ZM73.9927 10.706H76.4127C77.6447 10.706 78.5541 10.5373 79.1407 10.2C79.7421 9.86267 80.0427 9.34933 80.0427 8.66C80.0427 8 79.7787 7.516 79.2507 7.208C78.7374 6.88533 77.9454 6.724 76.8747 6.724H73.9927V10.706ZM91.2149 19.286C90.2909 19.286 89.4623 19.154 88.7289 18.89C88.0103 18.626 87.4016 18.2447 86.9029 17.746C86.4043 17.2327 86.0229 16.6167 85.7589 15.898C85.4949 15.1793 85.3629 14.3653 85.3629 13.456C85.3629 12.5467 85.4876 11.7107 85.7369 10.948C86.0009 10.1853 86.3749 9.52533 86.8589 8.968C87.3429 8.41067 87.9296 7.978 88.6189 7.67C89.3229 7.362 90.1223 7.208 91.0169 7.208C91.8529 7.208 92.6009 7.34733 93.2609 7.626C93.9209 7.90467 94.4783 8.32267 94.9329 8.88C95.3876 9.42267 95.7249 10.1047 95.9449 10.926C96.1649 11.7327 96.2383 12.6713 96.1649 13.742L87.1669 13.808V12.202L94.5589 12.136L93.5909 13.038C93.6789 12.202 93.6129 11.52 93.3929 10.992C93.1729 10.4493 92.8576 10.0533 92.4469 9.804C92.0363 9.54 91.5669 9.408 91.0389 9.408C90.4376 9.408 89.9096 9.56933 89.4549 9.892C89.0003 10.2 88.6483 10.6547 88.3989 11.256C88.1643 11.8427 88.0469 12.5613 88.0469 13.412C88.0469 14.688 88.3256 15.6413 88.8829 16.272C89.4549 16.9027 90.2323 17.218 91.2149 17.218C91.6549 17.218 92.0216 17.1667 92.3149 17.064C92.6229 16.9467 92.8796 16.8 93.0849 16.624C93.2903 16.4333 93.4516 16.2207 93.5689 15.986C93.7009 15.7513 93.8036 15.502 93.8769 15.238L96.2969 15.788C96.1796 16.3307 95.9889 16.8147 95.7249 17.24C95.4609 17.6653 95.1163 18.032 94.6909 18.34C94.2803 18.648 93.7889 18.8827 93.2169 19.044C92.6449 19.2053 91.9776 19.286 91.2149 19.286ZM98.6987 19V3.38H101.427V19H98.6987ZM109.008 22.96C107.762 22.96 106.735 22.8647 105.928 22.674C105.136 22.4833 104.55 22.1973 104.168 21.816C103.787 21.4347 103.596 20.9653 103.596 20.408C103.596 19.7333 103.86 19.1833 104.388 18.758C104.931 18.318 105.73 18.0467 106.786 17.944V17.504C105.994 17.5187 105.393 17.438 104.982 17.262C104.572 17.0713 104.366 16.7707 104.366 16.36C104.366 15.964 104.564 15.612 104.96 15.304C105.371 14.996 106.046 14.7393 106.984 14.534V14.094C106.09 14.05 105.393 13.7713 104.894 13.258C104.396 12.73 104.146 12.048 104.146 11.212C104.146 10.464 104.352 9.804 104.762 9.232C105.173 8.66 105.774 8.21267 106.566 7.89C107.373 7.55267 108.348 7.384 109.492 7.384H115.19V9.584L111.582 9.056V9.54C112.492 9.68667 113.159 9.94333 113.584 10.31C114.024 10.6767 114.244 11.1753 114.244 11.806C114.244 12.4073 114.054 12.9427 113.672 13.412C113.291 13.8667 112.734 14.226 112 14.49C111.282 14.7393 110.409 14.864 109.382 14.864C109.192 14.864 108.986 14.8567 108.766 14.842C108.546 14.8273 108.202 14.7907 107.732 14.732C107.424 14.952 107.175 15.15 106.984 15.326C106.794 15.4873 106.698 15.6413 106.698 15.788C106.698 15.9053 106.772 16.008 106.918 16.096C107.065 16.1693 107.256 16.2207 107.49 16.25C107.725 16.2793 107.952 16.294 108.172 16.294H111.23C111.524 16.294 111.898 16.316 112.352 16.36C112.822 16.404 113.284 16.5213 113.738 16.712C114.208 16.9027 114.596 17.2033 114.904 17.614C115.227 18.0247 115.388 18.604 115.388 19.352C115.388 20.188 115.146 20.87 114.662 21.398C114.193 21.9407 113.482 22.3367 112.528 22.586C111.59 22.8353 110.416 22.96 109.008 22.96ZM109.25 20.716C110.16 20.716 110.886 20.6647 111.428 20.562C111.971 20.4593 112.36 20.2907 112.594 20.056C112.829 19.836 112.946 19.55 112.946 19.198C112.946 18.8753 112.873 18.626 112.726 18.45C112.58 18.2593 112.389 18.1273 112.154 18.054C111.934 17.9807 111.707 17.9367 111.472 17.922C111.238 17.9073 111.04 17.9 110.878 17.9H108.172C107.468 18.0027 106.97 18.2007 106.676 18.494C106.398 18.7873 106.258 19.11 106.258 19.462C106.258 19.814 106.376 20.078 106.61 20.254C106.845 20.4447 107.182 20.5693 107.622 20.628C108.077 20.6867 108.62 20.716 109.25 20.716ZM109.316 13.346C110.079 13.346 110.658 13.17 111.054 12.818C111.45 12.4513 111.648 11.9747 111.648 11.388C111.648 10.7573 111.443 10.244 111.032 9.848C110.636 9.43733 110.057 9.232 109.294 9.232C108.532 9.232 107.938 9.43 107.512 9.826C107.102 10.222 106.896 10.728 106.896 11.344C106.896 11.74 106.984 12.092 107.16 12.4C107.351 12.6933 107.622 12.928 107.974 13.104C108.341 13.2653 108.788 13.346 109.316 13.346ZM117.626 19V13.236V7.494H119.958L119.914 11.454H120.31C120.442 10.5153 120.648 9.738 120.926 9.122C121.205 8.49133 121.594 8.022 122.092 7.714C122.591 7.39133 123.207 7.23 123.94 7.23C124.087 7.23 124.241 7.23733 124.402 7.252C124.578 7.26667 124.769 7.30333 124.974 7.362L124.864 10.288C124.63 10.2 124.388 10.1413 124.138 10.112C123.904 10.068 123.684 10.046 123.478 10.046C122.906 10.046 122.408 10.1927 121.982 10.486C121.572 10.7793 121.234 11.1973 120.97 11.74C120.721 12.268 120.53 12.8987 120.398 13.632V19H117.626ZM129.398 19.286C128.767 19.286 128.202 19.1687 127.704 18.934C127.205 18.6847 126.809 18.318 126.516 17.834C126.237 17.35 126.098 16.7487 126.098 16.03C126.098 15.4287 126.208 14.9153 126.428 14.49C126.662 14.0647 127.007 13.72 127.462 13.456C127.916 13.1773 128.481 12.95 129.156 12.774C129.83 12.5833 130.622 12.422 131.532 12.29C132.03 12.2167 132.434 12.1433 132.742 12.07C133.064 11.9967 133.299 11.8867 133.446 11.74C133.592 11.5787 133.666 11.344 133.666 11.036C133.666 10.5813 133.504 10.1927 133.182 9.87C132.874 9.53267 132.368 9.364 131.664 9.364C131.238 9.364 130.828 9.43733 130.432 9.584C130.05 9.73067 129.72 9.96533 129.442 10.288C129.163 10.596 128.972 11.0067 128.87 11.52L126.384 10.75C126.545 10.1633 126.78 9.65733 127.088 9.232C127.396 8.792 127.777 8.418 128.232 8.11C128.686 7.802 129.207 7.57467 129.794 7.428C130.38 7.28133 131.026 7.208 131.73 7.208C132.8 7.208 133.68 7.384 134.37 7.736C135.059 8.07333 135.572 8.60867 135.91 9.342C136.247 10.0607 136.416 10.992 136.416 12.136V14.292C136.416 14.7907 136.423 15.3113 136.438 15.854C136.467 16.382 136.496 16.9173 136.526 17.46C136.57 17.988 136.621 18.5013 136.68 19H134.194C134.135 18.5893 134.084 18.1493 134.04 17.68C133.996 17.2107 133.959 16.734 133.93 16.25H133.578C133.372 16.8073 133.079 17.3207 132.698 17.79C132.316 18.2447 131.847 18.6113 131.29 18.89C130.747 19.154 130.116 19.286 129.398 19.286ZM130.498 17.24C130.791 17.24 131.084 17.1887 131.378 17.086C131.686 16.9833 131.986 16.8293 132.28 16.624C132.573 16.4187 132.844 16.1693 133.094 15.876C133.343 15.568 133.556 15.2087 133.732 14.798L133.688 12.84L134.216 12.928C133.966 13.1333 133.658 13.2947 133.292 13.412C132.925 13.5293 132.536 13.6173 132.126 13.676C131.73 13.7347 131.326 13.808 130.916 13.896C130.52 13.9693 130.16 14.072 129.838 14.204C129.515 14.3213 129.258 14.4973 129.068 14.732C128.877 14.952 128.782 15.26 128.782 15.656C128.782 16.1547 128.943 16.5433 129.266 16.822C129.588 17.1007 129.999 17.24 130.498 17.24ZM143.569 19.286C142.601 19.286 141.757 19.0367 141.039 18.538C140.335 18.0393 139.792 17.3427 139.411 16.448C139.029 15.5387 138.839 14.468 138.839 13.236C138.839 12.0773 139.015 11.0507 139.367 10.156C139.719 9.24667 140.232 8.53533 140.907 8.022C141.596 7.494 142.447 7.23 143.459 7.23C144.236 7.23 144.874 7.384 145.373 7.692C145.886 7.98533 146.304 8.40333 146.627 8.946C146.949 9.474 147.206 10.0973 147.397 10.816H147.859C147.771 10.3613 147.69 9.90667 147.617 9.452C147.543 8.99733 147.477 8.56467 147.419 8.154C147.375 7.72867 147.353 7.34733 147.353 7.01V3.38H150.147V13.346V19H147.793L147.837 15.744H147.419C147.257 16.5067 147.008 17.152 146.671 17.68C146.333 18.208 145.908 18.6113 145.395 18.89C144.896 19.154 144.287 19.286 143.569 19.286ZM144.449 16.998C144.933 16.998 145.358 16.888 145.725 16.668C146.091 16.4333 146.392 16.14 146.627 15.788C146.876 15.436 147.059 15.0547 147.177 14.644C147.309 14.2187 147.375 13.8227 147.375 13.456V13.082C147.375 12.8033 147.331 12.5027 147.243 12.18C147.169 11.8573 147.052 11.542 146.891 11.234C146.744 10.9113 146.546 10.6253 146.297 10.376C146.062 10.112 145.783 9.90667 145.461 9.76C145.153 9.59867 144.808 9.518 144.427 9.518C143.855 9.518 143.371 9.67933 142.975 10.002C142.579 10.3247 142.271 10.7647 142.051 11.322C141.845 11.8793 141.743 12.532 141.743 13.28C141.743 14.028 141.853 14.6807 142.073 15.238C142.293 15.7953 142.601 16.228 142.997 16.536C143.407 16.844 143.891 16.998 144.449 16.998ZM158.461 19.286C157.537 19.286 156.708 19.154 155.975 18.89C155.256 18.626 154.648 18.2447 154.149 17.746C153.65 17.2327 153.269 16.6167 153.005 15.898C152.741 15.1793 152.609 14.3653 152.609 13.456C152.609 12.5467 152.734 11.7107 152.983 10.948C153.247 10.1853 153.621 9.52533 154.105 8.968C154.589 8.41067 155.176 7.978 155.865 7.67C156.569 7.362 157.368 7.208 158.263 7.208C159.099 7.208 159.847 7.34733 160.507 7.626C161.167 7.90467 161.724 8.32267 162.179 8.88C162.634 9.42267 162.971 10.1047 163.191 10.926C163.411 11.7327 163.484 12.6713 163.411 13.742L154.413 13.808V12.202L161.805 12.136L160.837 13.038C160.925 12.202 160.859 11.52 160.639 10.992C160.419 10.4493 160.104 10.0533 159.693 9.804C159.282 9.54 158.813 9.408 158.285 9.408C157.684 9.408 157.156 9.56933 156.701 9.892C156.246 10.2 155.894 10.6547 155.645 11.256C155.41 11.8427 155.293 12.5613 155.293 13.412C155.293 14.688 155.572 15.6413 156.129 16.272C156.701 16.9027 157.478 17.218 158.461 17.218C158.901 17.218 159.268 17.1667 159.561 17.064C159.869 16.9467 160.126 16.8 160.331 16.624C160.536 16.4333 160.698 16.2207 160.815 15.986C160.947 15.7513 161.05 15.502 161.123 15.238L163.543 15.788C163.426 16.3307 163.235 16.8147 162.971 17.24C162.707 17.6653 162.362 18.032 161.937 18.34C161.526 18.648 161.035 18.8827 160.463 19.044C159.891 19.2053 159.224 19.286 158.461 19.286Z" fill="black"/>
<path d="M2.68397 12.1635C2.68397 7.4742 6.4836 3.67457 11.1729 3.67457C13.7482 3.67457 16.0541 4.8214 17.6131 6.63347C17.9641 7.04567 18.5845 7.09057 18.9926 6.73958C19.4007 6.3886 19.4497 5.76825 19.0987 5.36012C17.1846 3.12769 14.3441 1.71558 11.1729 1.71558C5.40208 1.71558 0.724976 6.39268 0.724976 12.1635V13.796C0.724976 14.3388 1.16167 14.7755 1.70447 14.7755C2.24728 14.7755 2.68397 14.3388 2.68397 13.796V12.1635ZM21.3965 10.0046C21.2863 9.47401 20.7639 9.13527 20.2374 9.24954C19.7109 9.36382 19.3681 9.88214 19.4823 10.4086C19.6007 10.9759 19.666 11.5636 19.666 12.1676V13.8001C19.666 14.3429 20.1027 14.7796 20.6455 14.7796C21.1883 14.7796 21.625 14.3429 21.625 13.8001V12.1676C21.625 11.4289 21.5475 10.7065 21.4005 10.0087L21.3965 10.0046ZM11.1729 4.98057C10.3975 4.98057 9.64656 5.103 8.94867 5.33155C8.32832 5.53562 8.18548 6.29881 8.60993 6.79672C8.8997 7.13546 9.3772 7.23749 9.80981 7.11914C10.2424 7.00078 10.6995 6.93956 11.1729 6.93956C14.0584 6.93956 16.3969 9.27811 16.3969 12.1635V13.1798C16.3969 14.2082 16.3357 15.2326 16.2174 16.253C16.148 16.8488 16.601 17.3875 17.205 17.3875C17.6866 17.3875 18.0988 17.0365 18.1559 16.559C18.2906 15.4408 18.36 14.3144 18.36 13.1839V12.1676C18.36 8.20067 15.144 4.98465 11.177 4.98465L11.1729 4.98057ZM6.8754 7.78438C6.50401 7.35177 5.84285 7.31912 5.49186 7.76805C4.5491 8.98426 3.98997 10.5066 3.98997 12.1635V13.1798C3.98997 14.1674 3.88385 15.1551 3.67163 16.1142C3.53287 16.7509 3.99405 17.3835 4.64705 17.3835C5.07558 17.3835 5.45921 17.0978 5.55308 16.6774C5.81428 15.5306 5.94896 14.3593 5.94896 13.1757V12.1595C5.94896 11.0494 6.29587 10.0209 6.88357 9.17608C7.17741 8.75163 7.21006 8.1721 6.8754 7.7803V7.78438ZM11.1729 8.24556C9.00989 8.24556 7.25496 10.0005 7.25496 12.1635V13.1798C7.25496 14.6449 7.06722 16.0979 6.69175 17.51C6.53666 18.0936 6.96519 18.6935 7.56921 18.6935C7.95693 18.6935 8.29976 18.4405 8.40179 18.065C8.83032 16.4733 9.0507 14.8327 9.0507 13.1798V12.1635C9.0507 10.9922 10.0016 10.0413 11.1729 10.0413C12.3443 10.0413 13.2952 10.9922 13.2952 12.1635V13.1798C13.2952 14.6613 13.1523 16.1346 12.8707 17.5834C12.7606 18.1507 13.185 18.6935 13.7605 18.6935C14.1767 18.6935 14.5359 18.4078 14.6175 17.9997C14.9318 16.4162 15.0909 14.8041 15.0909 13.1798V12.1635C15.0909 10.0005 13.336 8.24556 11.1729 8.24556ZM12.1524 12.1635C12.1524 11.6207 11.7158 11.1841 11.1729 11.1841C10.6301 11.1841 10.1935 11.6207 10.1935 12.1635V13.1798C10.1935 15.6244 9.74451 18.0487 8.86705 20.3301L8.62625 20.9545C8.43036 21.4606 8.68339 22.0279 9.18947 22.2197C9.69554 22.4115 10.2628 22.1626 10.4546 21.6565L10.6954 21.0321C11.6586 18.5262 12.1524 15.8652 12.1524 13.1798V12.1635Z" fill="#18DBE2"/>
</g>
<defs>
<clipPath id="clip0_2_12">
<rect width="177" height="24" fill="white"/>
</clipPath>
</defs>
</svg>
