<svg width="177" height="24" viewBox="0 0 177 24" fill="none" xmlns="http://www.w3.org/2000/svg">
<g clip-path="url(#clip0_2_12)">
<path d="M7.296 21.24C6.24 21.24 5.32 21.04 4.536 20.64C3.768 20.24 3.168 19.664 2.736 18.912C2.32 18.144 2.112 17.24 2.112 16.2V8.28C2.112 7.224 2.32 6.32 2.736 5.568C3.168 4.816 3.768 4.24 4.536 3.84C5.32 3.44 6.24 3.24 7.296 3.24C8.352 3.24 9.264 3.448 10.032 3.864C10.8 4.264 11.392 4.84 11.808 5.592C12.224 6.344 12.432 7.24 12.432 8.28H10.272C10.272 7.288 10.008 6.528 9.48 6C8.968 5.456 8.24 5.184 7.296 5.184C6.352 5.184 5.608 5.448 5.064 5.976C4.536 6.504 4.272 7.264 4.272 8.256V16.2C4.272 17.192 4.536 17.96 5.064 18.504C5.608 19.032 6.352 19.296 7.296 19.296C8.24 19.296 8.968 19.032 9.48 18.504C10.008 17.96 10.272 17.192 10.272 16.2H12.432C12.432 17.224 12.224 18.12 11.808 18.888C11.392 19.64 10.8 20.224 10.032 20.64C9.264 21.04 8.352 21.24 7.296 21.24ZM21.5906 21.24C20.5346 21.24 19.6226 21.04 18.8546 20.64C18.1026 20.24 17.5186 19.664 17.1026 18.912C16.7026 18.144 16.5026 17.24 16.5026 16.2V8.28C16.5026 7.224 16.7026 6.32 17.1026 5.568C17.5186 4.816 18.1026 4.24 18.8546 3.84C19.6226 3.44 20.5346 3.24 21.5906 3.24C22.6466 3.24 23.5506 3.44 24.3026 3.84C25.0706 4.24 25.6546 4.816 26.0546 5.568C26.4706 6.32 26.6786 7.216 26.6786 8.256V16.2C26.6786 17.24 26.4706 18.144 26.0546 18.912C25.6546 19.664 25.0706 20.24 24.3026 20.64C23.5506 21.04 22.6466 21.24 21.5906 21.24ZM21.5906 19.296C22.5346 19.296 23.2546 19.032 23.7506 18.504C24.2626 17.96 24.5186 17.192 24.5186 16.2V8.28C24.5186 7.288 24.2626 6.528 23.7506 6C23.2546 5.456 22.5346 5.184 21.5906 5.184C20.6626 5.184 19.9426 5.456 19.4306 6C18.9186 6.528 18.6626 7.288 18.6626 8.28V16.2C18.6626 17.192 18.9186 17.96 19.4306 18.504C19.9426 19.032 20.6626 19.296 21.5906 19.296ZM36.0773 21.24C34.9253 21.24 33.9333 21.048 33.1013 20.664C32.2853 20.28 31.6533 19.728 31.2053 19.008C30.7573 18.288 30.5253 17.432 30.5093 16.44H32.6693C32.6693 17.32 32.9653 18.016 33.5573 18.528C34.1653 19.04 35.0053 19.296 36.0773 19.296C37.0853 19.296 37.8693 19.048 38.4293 18.552C39.0053 18.056 39.2933 17.368 39.2933 16.488C39.2933 15.784 39.1013 15.168 38.7173 14.64C38.3493 14.112 37.8133 13.744 37.1093 13.536L34.7333 12.792C33.5333 12.424 32.6053 11.808 31.9492 10.944C31.3093 10.08 30.9893 9.064 30.9893 7.896C30.9893 6.952 31.1973 6.136 31.6133 5.448C32.0453 4.744 32.6453 4.2 33.4133 3.816C34.1813 3.416 35.0853 3.216 36.1253 3.216C37.6613 3.216 38.8933 3.648 39.8213 4.512C40.7493 5.36 41.2213 6.496 41.2373 7.92H39.0773C39.0773 7.056 38.8133 6.384 38.2853 5.904C37.7733 5.408 37.0453 5.16 36.1013 5.16C35.1733 5.16 34.4453 5.384 33.9173 5.832C33.4053 6.28 33.1493 6.904 33.1493 7.704C33.1493 8.424 33.3413 9.048 33.7253 9.576C34.1093 10.104 34.6613 10.48 35.3813 10.704L37.7813 11.472C38.9493 11.84 39.8533 12.464 40.4933 13.344C41.1333 14.224 41.4532 15.256 41.4532 16.44C41.4532 17.4 41.2292 18.24 40.7812 18.96C40.3333 19.68 39.7013 20.24 38.8853 20.64C38.0853 21.04 37.1493 21.24 36.0773 21.24ZM50.3719 11.16C49.7799 11.16 49.2999 11 48.9319 10.68C48.5639 10.344 48.3799 9.904 48.3799 9.36C48.3799 8.816 48.5639 8.384 48.9319 8.064C49.2999 7.728 49.7799 7.56 50.3719 7.56C50.9799 7.56 51.4599 7.728 51.8119 8.064C52.1799 8.384 52.3639 8.816 52.3639 9.36C52.3639 9.904 52.1799 10.344 51.8119 10.68C51.4599 11 50.9799 11.16 50.3719 11.16ZM50.3719 21.24C49.7799 21.24 49.2999 21.08 48.9319 20.76C48.5639 20.424 48.3799 19.984 48.3799 19.44C48.3799 18.896 48.5639 18.464 48.9319 18.144C49.2999 17.808 49.7799 17.64 50.3719 17.64C50.9799 17.64 51.4599 17.808 51.8119 18.144C52.1799 18.464 52.3639 18.896 52.3639 19.44C52.3639 19.984 52.1799 20.424 51.8119 20.76C51.4599 21.08 50.9799 21.24 50.3719 21.24ZM60.2025 21V3.48H64.7145C66.1705 3.48 67.3305 3.888 68.1945 4.704C69.0745 5.52 69.5145 6.616 69.5145 7.992C69.5145 8.808 69.3545 9.528 69.0345 10.152C68.7305 10.776 68.2985 11.264 67.7385 11.616C67.1785 11.952 66.5065 12.12 65.7225 12.12V11.88C66.5865 11.88 67.3305 12.056 67.9545 12.408C68.5945 12.76 69.0825 13.264 69.4185 13.92C69.7705 14.56 69.9465 15.32 69.9465 16.2C69.9465 17.176 69.7385 18.024 69.3225 18.744C68.9065 19.464 68.3065 20.024 67.5225 20.424C66.7545 20.808 65.8425 21 64.7865 21H60.2025ZM61.4025 19.896H64.7865C66.0185 19.896 66.9865 19.568 67.6905 18.912C68.3945 18.256 68.7465 17.36 68.7465 16.224C68.7465 15.088 68.3945 14.192 67.6905 13.536C66.9865 12.864 66.0185 12.528 64.7865 12.528H61.4025V19.896ZM61.4025 11.448H64.7145C65.8505 11.448 66.7305 11.144 67.3545 10.536C67.9945 9.928 68.3145 9.088 68.3145 8.016C68.3145 6.944 67.9945 6.104 67.3545 5.496C66.7145 4.888 65.8345 4.584 64.7145 4.584H61.4025V11.448ZM74.8331 21V3.48H84.1931V4.584H76.0331V11.328H83.3531V12.408H76.0331V19.896H84.1931V21H74.8331ZM89.2238 21V3.48H90.4238V19.896H98.9438V21H89.2238ZM108.078 21.24C107.102 21.24 106.254 21.04 105.534 20.64C104.814 20.24 104.254 19.68 103.854 18.96C103.454 18.24 103.254 17.4 103.254 16.44V8.04C103.254 7.064 103.454 6.216 103.854 5.496C104.254 4.776 104.814 4.224 105.534 3.84C106.254 3.44 107.102 3.24 108.078 3.24C109.07 3.24 109.934 3.448 110.67 3.864C111.406 4.28 111.974 4.864 112.374 5.616C112.774 6.368 112.974 7.256 112.974 8.28H111.774C111.774 7.048 111.438 6.08 110.766 5.376C110.11 4.672 109.214 4.32 108.078 4.32C106.958 4.32 106.07 4.656 105.414 5.328C104.774 5.984 104.454 6.888 104.454 8.04V16.44C104.454 17.592 104.774 18.504 105.414 19.176C106.07 19.832 106.958 20.16 108.078 20.16C109.23 20.16 110.134 19.808 110.79 19.104C111.446 18.384 111.774 17.416 111.774 16.2V13.56H107.622V12.456H112.974V16.2C112.974 17.224 112.774 18.112 112.374 18.864C111.974 19.616 111.406 20.2 110.67 20.616C109.934 21.032 109.07 21.24 108.078 21.24ZM117.765 21V3.48H122.685C123.725 3.48 124.621 3.68 125.373 4.08C126.125 4.464 126.701 5.024 127.101 5.76C127.517 6.48 127.725 7.336 127.725 8.328C127.725 9.592 127.365 10.648 126.645 11.496C125.941 12.344 124.973 12.856 123.741 13.032L127.845 21H126.405L122.445 13.08H118.965V21H117.765ZM118.965 12H122.685C123.853 12 124.781 11.664 125.469 10.992C126.173 10.304 126.525 9.4 126.525 8.28C126.525 7.144 126.173 6.248 125.469 5.592C124.781 4.92 123.853 4.584 122.685 4.584H118.965V12ZM131.148 21L135.972 3.48H137.46L142.284 21H141.036L139.692 15.96H133.692L132.348 21H131.148ZM133.98 14.88H139.404L137.508 7.8C137.284 6.936 137.1 6.216 136.956 5.64C136.828 5.048 136.748 4.664 136.716 4.488C136.684 4.664 136.596 5.048 136.452 5.64C136.308 6.216 136.124 6.936 135.9 7.8L133.98 14.88ZM146.546 21V3.48H150.386C151.474 3.48 152.418 3.704 153.218 4.152C154.034 4.584 154.666 5.2 155.114 6C155.562 6.784 155.786 7.704 155.786 8.76V15.72C155.786 16.776 155.562 17.704 155.114 18.504C154.666 19.288 154.034 19.904 153.218 20.352C152.418 20.784 151.474 21 150.386 21H146.546ZM147.746 19.896H150.386C151.65 19.896 152.666 19.52 153.434 18.768C154.202 18 154.586 16.984 154.586 15.72V8.76C154.586 7.512 154.194 6.504 153.41 5.736C152.642 4.968 151.634 4.584 150.386 4.584H147.746V19.896ZM161.177 21V3.48H170.537V4.584H162.377V11.328H169.697V12.408H162.377V19.896H170.537V21H161.177Z" fill="#09090B"/>
</g>
<defs>
<clipPath id="clip0_2_12">
<rect width="177" height="24" fill="white"/>
</clipPath>
</defs>
</svg>
