<svg width="338" height="46" viewBox="0 0 338 46" fill="none" xmlns="http://www.w3.org/2000/svg">
<path d="M307.784 40.25V6.66998H325.658V8.78598H310.076V21.712H324.054V23.782H310.076V38.134H325.658V40.25H307.784Z" fill="#09090B"/>
<path d="M279.845 40.25V6.66998H287.178C289.256 6.66998 291.059 7.09932 292.586 7.95798C294.144 8.78598 295.351 9.96665 296.207 11.5C297.062 13.0026 297.49 14.766 297.49 16.79V30.13C297.49 32.154 297.062 33.9327 296.207 35.466C295.351 36.9687 294.144 38.1493 292.586 39.008C291.059 39.836 289.256 40.25 287.178 40.25H279.845ZM282.137 38.134H287.178C289.592 38.134 291.532 37.4133 292.999 35.972C294.465 34.5 295.199 32.5527 295.199 30.13V16.79C295.199 14.398 294.45 12.466 292.953 10.994C291.486 9.52198 289.561 8.78598 287.178 8.78598H282.137V38.134Z" fill="#09090B"/>
<path d="M250.44 40.25L259.652 6.66998H262.494L271.705 40.25H269.322L266.756 30.59H255.298L252.732 40.25H250.44ZM255.848 28.52H266.206L262.585 14.95C262.157 13.294 261.806 11.914 261.531 10.81C261.287 9.67532 261.134 8.93931 261.073 8.60198C261.012 8.93931 260.844 9.67532 260.569 10.81C260.294 11.914 259.942 13.294 259.515 14.95L255.848 28.52Z" fill="#09090B"/>
<path d="M224.885 40.25V6.66998H234.28C236.266 6.66998 237.977 7.05332 239.413 7.81998C240.849 8.55598 241.949 9.62931 242.713 11.04C243.507 12.42 243.904 14.0606 243.904 15.962C243.904 18.3847 243.217 20.4086 241.842 22.034C240.498 23.6593 238.649 24.6407 236.296 24.978L244.133 40.25H241.384L233.822 25.07H227.176V40.25H224.885ZM227.176 23H234.28C236.51 23 238.282 22.356 239.596 21.068C240.941 19.7493 241.613 18.0166 241.613 15.87C241.613 13.6926 240.941 11.9753 239.596 10.718C238.282 9.42998 236.51 8.78598 234.28 8.78598H227.176V23Z" fill="#09090B"/>
<path d="M206.387 40.71C204.523 40.71 202.904 40.3267 201.529 39.56C200.154 38.7934 199.085 37.72 198.321 36.34C197.557 34.96 197.175 33.35 197.175 31.51V15.41C197.175 13.5394 197.557 11.914 198.321 10.534C199.085 9.15402 200.154 8.09602 201.529 7.36002C202.904 6.59335 204.523 6.21002 206.387 6.21002C208.281 6.21002 209.931 6.60869 211.337 7.40602C212.742 8.20335 213.827 9.32269 214.591 10.764C215.354 12.2054 215.736 13.9074 215.736 15.87H213.445C213.445 13.5087 212.803 11.6534 211.52 10.304C210.267 8.95469 208.556 8.28002 206.387 8.28002C204.248 8.28002 202.553 8.92402 201.3 10.212C200.078 11.4694 199.467 13.202 199.467 15.41V31.51C199.467 33.718 200.078 35.466 201.3 36.754C202.553 38.0114 204.248 38.64 206.387 38.64C208.587 38.64 210.313 37.9654 211.566 36.616C212.819 35.236 213.445 33.3807 213.445 31.05V25.99H205.516V23.874H215.736V31.05C215.736 33.0127 215.354 34.7147 214.591 36.156C213.827 37.5974 212.742 38.7167 211.337 39.514C209.931 40.3114 208.281 40.71 206.387 40.71Z" fill="#09090B"/>
<path d="M170.382 40.25V6.66998H172.674V38.134H188.943V40.25H170.382Z" fill="#09090B"/>
<path d="M142.902 40.25V6.66998H160.776V8.78598H145.193V21.712H159.172V23.782H145.193V38.134H160.776V40.25H142.902Z" fill="#09090B"/>
<path d="M114.963 40.25V6.66998H123.579C126.359 6.66998 128.575 7.45198 130.225 9.01598C131.905 10.58 132.745 12.6806 132.745 15.318C132.745 16.882 132.44 18.262 131.829 19.458C131.248 20.654 130.423 21.5893 129.354 22.264C128.284 22.908 127.001 23.23 125.504 23.23V22.77C127.154 22.77 128.575 23.1073 129.766 23.782C130.988 24.4566 131.92 25.4227 132.562 26.68C133.234 27.9067 133.57 29.3633 133.57 31.05C133.57 32.9207 133.173 34.546 132.379 35.926C131.584 37.306 130.438 38.3793 128.941 39.146C127.475 39.882 125.733 40.25 123.717 40.25H114.963ZM117.254 38.134H123.717C126.069 38.134 127.918 37.5053 129.262 36.248C130.606 34.9907 131.279 33.2733 131.279 31.096C131.279 28.9186 130.606 27.2013 129.262 25.944C127.918 24.656 126.069 24.012 123.717 24.012H117.254V38.134ZM117.254 21.942H123.579C125.748 21.942 127.429 21.3593 128.62 20.194C129.843 19.0286 130.454 17.4186 130.454 15.364C130.454 13.3093 129.843 11.6993 128.62 10.534C127.398 9.36865 125.718 8.78598 123.579 8.78598H117.254V21.942Z" fill="#09090B"/>
<path d="M96.1903 21.39C95.0599 21.39 94.1433 21.0833 93.4405 20.47C92.7378 19.826 92.3864 18.9827 92.3864 17.94C92.3864 16.8973 92.7378 16.0693 93.4405 15.456C94.1433 14.812 95.0599 14.49 96.1903 14.49C97.3514 14.49 98.268 14.812 98.9402 15.456C99.6429 16.0693 99.9943 16.8973 99.9943 17.94C99.9943 18.9827 99.6429 19.826 98.9402 20.47C98.268 21.0833 97.3514 21.39 96.1903 21.39ZM96.1903 40.71C95.0599 40.71 94.1433 40.4033 93.4405 39.79C92.7378 39.146 92.3864 38.3027 92.3864 37.26C92.3864 36.2173 92.7378 35.3893 93.4405 34.776C94.1433 34.132 95.0599 33.81 96.1903 33.81C97.3514 33.81 98.268 34.132 98.9402 34.776C99.6429 35.3893 99.9943 36.2173 99.9943 37.26C99.9943 38.3027 99.6429 39.146 98.9402 39.79C98.268 40.4033 97.3514 40.71 96.1903 40.71Z" fill="#09090B"/>
<path d="M68.8933 40.71C66.6934 40.71 64.7991 40.342 63.2103 39.606C61.6521 38.87 60.4452 37.812 59.5897 36.432C58.7342 35.052 58.2912 33.4113 58.2606 31.51H62.3854C62.3854 33.1967 62.9506 34.5307 64.0811 35.512C65.2421 36.4933 66.8462 36.984 68.8933 36.984C70.8182 36.984 72.3153 36.5087 73.3847 35.558C74.4846 34.6073 75.0346 33.2887 75.0346 31.602C75.0346 30.2527 74.6679 29.072 73.9347 28.06C73.2319 27.048 72.2084 26.3427 70.864 25.944L66.3268 24.518C64.0353 23.8127 62.2631 22.632 61.0104 20.976C59.7883 19.32 59.1772 17.3727 59.1772 15.134C59.1772 13.3247 59.5744 11.7607 60.3688 10.442C61.1938 9.09267 62.3395 8.05 63.8061 7.314C65.2727 6.54734 66.999 6.164 68.985 6.164C71.9181 6.164 74.2707 6.992 76.0429 8.648C77.815 10.2733 78.7163 12.4507 78.7469 15.18H74.6221C74.6221 13.524 74.118 12.236 73.1097 11.316C72.132 10.3653 70.7418 9.89 68.9391 9.89C67.167 9.89 65.7768 10.3193 64.7686 11.178C63.7908 12.0367 63.302 13.2327 63.302 14.766C63.302 16.146 63.6686 17.342 64.4019 18.354C65.1352 19.366 66.1893 20.0867 67.5642 20.516L72.1473 21.988C74.3777 22.6933 76.104 23.8893 77.3261 25.576C78.5483 27.2627 79.1593 29.2407 79.1593 31.51C79.1593 33.35 78.7316 34.96 77.8761 36.34C77.0206 37.72 75.8137 38.7933 74.2555 39.56C72.7278 40.3267 70.9404 40.71 68.8933 40.71Z" fill="#09090B"/>
<path d="M41.2296 40.71C39.213 40.71 37.4715 40.3267 36.0049 39.56C34.5689 38.7934 33.4536 37.6894 32.6593 36.248C31.8954 34.776 31.5135 33.0434 31.5135 31.05V15.87C31.5135 13.846 31.8954 12.1134 32.6593 10.672C33.4536 9.23069 34.5689 8.12669 36.0049 7.36002C37.4715 6.59335 39.213 6.21002 41.2296 6.21002C43.2461 6.21002 44.9724 6.59335 46.4084 7.36002C47.875 8.12669 48.9902 9.23069 49.754 10.672C50.5484 12.1134 50.9456 13.8307 50.9456 15.824V31.05C50.9456 33.0434 50.5484 34.776 49.754 36.248C48.9902 37.6894 47.875 38.7934 46.4084 39.56C44.9724 40.3267 43.2461 40.71 41.2296 40.71ZM41.2296 36.984C43.0322 36.984 44.4071 36.478 45.3543 35.466C46.332 34.4234 46.8209 32.9514 46.8209 31.05V15.87C46.8209 13.9687 46.332 12.512 45.3543 11.5C44.4071 10.4574 43.0322 9.93602 41.2296 9.93602C39.4574 9.93602 38.0825 10.4574 37.1048 11.5C36.1271 12.512 35.6382 13.9687 35.6382 15.87V31.05C35.6382 32.9514 36.1271 34.4234 37.1048 35.466C38.0825 36.478 39.4574 36.984 41.2296 36.984Z" fill="#09090B"/>
<path d="M13.9325 40.71C11.9159 40.71 10.1591 40.3267 8.66196 39.56C7.19539 38.7934 6.04962 37.6894 5.22467 36.248C4.43028 34.776 4.03308 33.0434 4.03308 31.05V15.87C4.03308 13.846 4.43028 12.1134 5.22467 10.672C6.04962 9.23069 7.19539 8.12669 8.66196 7.36002C10.1591 6.59335 11.9159 6.21002 13.9325 6.21002C15.949 6.21002 17.6906 6.60869 19.1572 7.40602C20.6237 8.17269 21.7542 9.27669 22.5486 10.718C23.343 12.1594 23.7402 13.8767 23.7402 15.87H19.6155C19.6155 13.9687 19.1113 12.512 18.103 11.5C17.1253 10.4574 15.7351 9.93602 13.9325 9.93602C12.1298 9.93602 10.7091 10.442 9.67023 11.454C8.66196 12.466 8.15783 13.9227 8.15783 15.824V31.05C8.15783 32.9514 8.66196 34.4234 9.67023 35.466C10.7091 36.478 12.1298 36.984 13.9325 36.984C15.7351 36.984 17.1253 36.478 18.103 35.466C19.1113 34.4234 19.6155 32.9514 19.6155 31.05H23.7402C23.7402 33.0127 23.343 34.73 22.5486 36.202C21.7542 37.6434 20.6237 38.7627 19.1572 39.56C17.6906 40.3267 15.949 40.71 13.9325 40.71Z" fill="#09090B"/>
</svg>
