<svg width="775" height="421" viewBox="0 0 775 421" fill="none" xmlns="http://www.w3.org/2000/svg">
<g clip-path="url(#clip0_28_14129)">
<rect width="775" height="421" rx="20" fill="white"/>
<g clip-path="url(#clip1_28_14129)">
<rect width="1018" height="1019" transform="translate(-121 -369)" fill="white"/>
<path d="M-233.381 155.954L-35.6848 -127.276C39.0861 -234.389 144.123 -316.703 265.947 -363.655L588.22 -487.873" stroke="black" stroke-miterlimit="10" stroke-linecap="round"/>
<path d="M-219.336 173.913L-21.6394 -109.317C53.1315 -216.43 158.168 -298.744 279.993 -345.696L602.265 -469.914" stroke="black" stroke-miterlimit="10" stroke-linecap="round"/>
<path d="M-205.289 191.871L-7.59303 -91.3591C67.1779 -198.472 172.214 -280.785 294.039 -327.737L616.312 -451.956" stroke="black" stroke-miterlimit="10" stroke-linecap="round"/>
<path d="M-191.244 209.83L6.45238 -73.4004C81.2233 -180.513 186.26 -262.827 308.084 -309.779L630.357 -433.997" stroke="black" stroke-miterlimit="10" stroke-linecap="round"/>
<path d="M-177.978 226.79L19.7185 -56.4397C94.4894 -163.553 199.526 -245.866 321.351 -292.818L643.607 -417.056" stroke="black" stroke-miterlimit="10" stroke-linecap="round"/>
<path d="M-163.932 244.749L33.7639 -38.4809C108.535 -145.594 213.571 -227.907 335.396 -274.859L657.653 -399.098" stroke="black" stroke-miterlimit="10" stroke-linecap="round"/>
<path d="M-149.886 262.708L47.8103 -20.5222C122.581 -127.635 227.618 -209.949 349.442 -256.9L671.699 -381.139" stroke="black" stroke-miterlimit="10" stroke-linecap="round"/>
<path d="M-135.841 280.667L61.8557 -2.56356C136.627 -109.677 241.663 -191.99 363.488 -238.942L685.745 -363.18" stroke="black" stroke-miterlimit="10" stroke-linecap="round"/>
<path d="M-122.575 297.627L75.1213 14.3974C149.892 -92.7156 254.929 -175.029 376.753 -221.981L699.01 -346.219" stroke="black" stroke-miterlimit="10" stroke-linecap="round"/>
<path d="M-108.53 315.586L89.1663 32.356C163.937 -74.757 268.974 -157.07 390.798 -204.022L713.055 -328.261" stroke="black" stroke-miterlimit="10" stroke-linecap="round"/>
<path d="M-94.4826 333.545L103.214 50.3145C177.985 -56.7985 283.021 -139.112 404.846 -186.064L727.103 -310.302" stroke="black" stroke-miterlimit="10" stroke-linecap="round"/>
<path d="M-80.4372 351.503L117.259 68.273C192.03 -38.84 297.067 -121.153 418.891 -168.105L741.148 -292.344" stroke="black" stroke-miterlimit="10" stroke-linecap="round"/>
<path d="M-67.1716 368.464L130.525 85.2341C205.296 -21.879 310.332 -104.192 432.157 -151.144L754.414 -275.383" stroke="black" stroke-miterlimit="10" stroke-linecap="round"/>
<path d="M-53.1257 386.423L144.571 103.193C219.341 -3.92046 324.378 -86.2339 446.203 -133.186L768.46 -257.424" stroke="black" stroke-miterlimit="10" stroke-linecap="round"/>
<path d="M-39.0798 404.381L158.616 121.151C233.387 14.0382 338.424 -68.2752 460.249 -115.227L782.505 -239.465" stroke="black" stroke-miterlimit="10" stroke-linecap="round"/>
<path d="M-25.0348 422.34L172.661 139.11C247.432 31.9968 352.469 -50.3166 474.293 -97.2684L796.566 -221.487" stroke="black" stroke-miterlimit="10" stroke-linecap="round"/>
<path d="M-10.988 440.298L186.708 157.068C261.479 49.9554 366.516 -32.358 488.34 -79.3098L810.613 -203.528" stroke="black" stroke-miterlimit="10" stroke-linecap="round"/>
<path d="M3.05794 458.257L200.754 175.027C275.525 67.9139 380.562 -14.3995 502.386 -61.3513L824.659 -185.57" stroke="black" stroke-miterlimit="10" stroke-linecap="round"/>
<path d="M17.1038 476.215L214.8 192.985C289.571 85.8724 394.608 3.55898 516.432 -43.3928L838.705 -167.611" stroke="black" stroke-miterlimit="10" stroke-linecap="round"/>
<path d="M31.1497 494.174L228.846 210.944C303.617 103.831 408.653 21.5175 530.478 -25.4343L852.751 -149.653" stroke="black" stroke-miterlimit="10" stroke-linecap="round"/>
<path d="M44.4154 511.135L242.112 227.905C316.882 120.792 421.919 38.4784 543.744 -8.47337L866.016 -132.692" stroke="black" stroke-miterlimit="10" stroke-linecap="round"/>
<path d="M58.4612 529.094L256.157 245.864C330.928 138.751 435.965 56.4372 557.79 9.48537L880.062 -114.733" stroke="black" stroke-miterlimit="10" stroke-linecap="round"/>
<path d="M72.5062 547.052L270.202 263.822C344.973 156.709 450.01 74.3957 571.834 27.4439L894.107 -96.7746" stroke="black" stroke-miterlimit="10" stroke-linecap="round"/>
<path d="M86.553 565.011L284.249 281.781C359.02 174.668 464.057 92.3544 585.881 45.4026L908.154 -78.8158" stroke="black" stroke-miterlimit="10" stroke-linecap="round"/>
<path d="M99.8177 581.972L297.514 298.742C372.285 191.629 477.321 109.315 599.146 62.3635L921.418 -61.8549" stroke="black" stroke-miterlimit="10" stroke-linecap="round"/>
<path d="M113.865 599.93L311.561 316.7C386.332 209.587 491.368 127.274 613.193 80.322L935.465 -43.8964" stroke="#C0343B" stroke-miterlimit="10" stroke-linecap="round"/>
<path d="M127.91 617.889L325.607 334.659C400.378 227.546 505.414 145.232 627.239 98.2805L949.511 -25.9379" stroke="#C0343B" stroke-miterlimit="10" stroke-linecap="round"/>
<path d="M141.956 635.848L339.653 352.617C414.423 245.504 519.46 163.191 641.285 116.239L963.557 -7.9792" stroke="#C0343B" stroke-miterlimit="10" stroke-linecap="round"/>
<path d="M155.222 652.808L352.918 369.578C427.689 262.465 532.726 180.152 654.55 133.2L976.823 8.98153" stroke="#C0343B" stroke-miterlimit="10" stroke-linecap="round"/>
<path d="M169.267 670.767L366.963 387.537C441.734 280.424 546.771 198.11 668.595 151.158L990.868 26.94" stroke="#C0343B" stroke-miterlimit="10" stroke-linecap="round"/>
<path d="M183.313 688.726L381.009 405.496C455.78 298.383 560.817 216.069 682.641 169.117L1004.91 44.899" stroke="#C0343B" stroke-miterlimit="10" stroke-linecap="round"/>
<path d="M197.359 706.684L395.055 423.454C469.826 316.341 574.862 234.028 696.687 187.076L1018.96 62.8575" stroke="#C0343B" stroke-miterlimit="10" stroke-linecap="round"/>
<path d="M208.068 722.431L405.764 439.201C480.535 332.088 585.571 249.774 707.396 202.823L1029.67 78.6041" stroke="black" stroke-miterlimit="10" stroke-linecap="round"/>
<path d="M222.113 740.39L419.809 457.159C494.58 350.046 599.616 267.733 721.441 220.781L1043.71 96.5628" stroke="black" stroke-miterlimit="10" stroke-linecap="round"/>
<path d="M236.16 758.348L433.856 475.118C508.627 368.005 613.663 285.692 735.488 238.74L1057.76 114.521" stroke="black" stroke-miterlimit="10" stroke-linecap="round"/>
<path d="M250.205 776.307L447.902 493.077C522.673 385.964 627.709 303.65 749.534 256.699L1071.81 132.48" stroke="black" stroke-miterlimit="10" stroke-linecap="round"/>
<path d="M263.471 793.268L461.167 510.038C535.938 402.925 640.975 320.611 762.799 273.659L1085.07 149.441" stroke="black" stroke-miterlimit="10" stroke-linecap="round"/>
<path d="M277.516 811.226L475.212 527.996C549.983 420.883 655.02 338.57 776.844 291.618L1099.12 167.399" stroke="black" stroke-miterlimit="10" stroke-linecap="round"/>
<path d="M291.563 829.185L489.259 545.955C564.03 438.842 669.067 356.528 790.891 309.577L1113.16 185.358" stroke="black" stroke-miterlimit="10" stroke-linecap="round"/>
<path d="M305.608 847.143L503.304 563.913C578.075 456.8 683.111 374.487 804.936 327.535L1127.21 203.317" stroke="black" stroke-miterlimit="10" stroke-linecap="round"/>
<path d="M318.874 864.105L516.571 580.875C591.341 473.762 696.378 391.448 818.203 344.496L1140.48 220.278" stroke="black" stroke-miterlimit="10" stroke-linecap="round"/>
<path d="M332.919 882.063L530.615 598.833C605.386 491.72 710.423 409.406 832.248 362.455L1154.52 238.236" stroke="black" stroke-miterlimit="10" stroke-linecap="round"/>
<path d="M346.966 900.021L544.662 616.791C619.433 509.678 724.47 427.365 846.294 380.413L1168.57 256.195" stroke="black" stroke-miterlimit="10" stroke-linecap="round"/>
<path d="M361.012 917.98L558.708 634.75C633.479 527.637 738.516 445.324 860.34 398.372L1182.61 274.153" stroke="black" stroke-miterlimit="10" stroke-linecap="round"/>
</g>
</g>
<defs>
<clipPath id="clip0_28_14129">
<rect width="775" height="421" rx="20" fill="white"/>
</clipPath>
<clipPath id="clip1_28_14129">
<rect width="1018" height="1019" fill="white" transform="translate(-121 -369)"/>
</clipPath>
</defs>
</svg>
