<svg width="775" height="421" viewBox="0 0 775 421" fill="none" xmlns="http://www.w3.org/2000/svg">
<g clip-path="url(#clip0_12_4260)">
<path d="M522.764 2.66589L530.135 15.4326H515.393L522.764 2.66589ZM522.764 14.1559H524.041V40.1149H522.764H521.487V14.1559H522.764Z" fill="#222222"/>
<path d="M469.188 2.68823L475.94 15.7926L461.215 15.0882L469.188 2.68823ZM468.639 14.1652L469.914 14.2262L468.673 40.1555L467.398 40.0945L466.123 40.0335L467.363 14.1042L468.639 14.1652Z" fill="#222222"/>
<path d="M417.313 2.99402L422.175 16.9112L407.691 14.1625L417.313 2.99402ZM415.171 14.2826L416.425 14.5206L411.585 40.0244L410.331 39.7864L409.077 39.5483L413.917 14.0445L415.171 14.2826Z" fill="#222222"/>
<path d="M366.788 4.2074L368.479 18.8518L354.951 12.9941L366.788 4.2074ZM362.223 14.7514L363.394 15.2587L353.079 39.0804L351.908 38.5731L350.736 38.0658L361.051 14.2441L362.223 14.7514Z" fill="#222222"/>
<path d="M316.863 7L314.358 21.5274L303.029 12.0948L316.863 7ZM309.511 15.83L310.492 16.6469L293.882 36.5962L292.901 35.7793L291.92 34.9624L308.53 15.0131L309.511 15.83Z" fill="#222222"/>
<path d="M266.396 11.6406L259.334 24.5808L251.658 11.9949L266.396 11.6406ZM256.586 17.6231L257.251 18.7131L235.088 32.2291L234.423 31.1392L233.759 30.0492L255.921 16.5332L256.586 17.6231Z" fill="#222222"/>
<path d="M214.286 17.6699L203.239 27.4304L200.31 12.9826L214.286 17.6699ZM203.025 19.9528L203.279 21.2041L177.838 26.3618L177.584 25.1105L177.33 23.8593L202.772 18.7016L203.025 19.9528Z" fill="#222222"/>
<path d="M160.003 24.0114L146.33 29.5224L148.394 14.9258L160.003 24.0114ZM148.626 22.4029L148.448 23.667L122.744 20.0329L122.923 18.7688L123.102 17.5047L148.805 21.1388L148.626 22.4029Z" fill="#C0343B"/>
<path d="M103.888 29.4617L89.1911 30.6089L95.5461 17.3073L103.888 29.4617ZM93.5206 24.5084L92.9702 25.6604L69.5472 14.4698L70.0975 13.3178L70.6479 12.1659L94.071 23.3565L93.5206 24.5084Z" fill="#222222"/>
<path d="M47.0022 33.2615L32.4559 30.8686L41.8013 19.4676L47.0022 33.2615ZM38.116 25.9775L37.3067 26.9648L17.2304 10.5084L18.0398 9.52104L18.8491 8.53368L38.9253 24.9901L38.116 25.9775Z" fill="#222222"/>
<path d="M523.659 57.1595L530.411 70.2639L515.686 69.5595L523.659 57.1595ZM523.11 68.6365L524.385 68.6975L523.145 94.6268L521.869 94.5658L520.594 94.5048L521.834 68.5755L523.11 68.6365Z" fill="#222222"/>
<path d="M471.831 57.4747L476.658 71.4036L462.182 68.6199L471.831 57.4747ZM469.661 68.7581L470.915 68.9991L466.013 94.4911L464.759 94.2501L463.505 94.009L468.407 68.517L469.661 68.7581Z" fill="#222222"/>
<path d="M421.447 58.7587L422.982 73.4203L409.517 67.4188L421.447 58.7587ZM416.769 69.2534L417.935 69.7732L407.367 93.4836L406.201 92.9638L405.035 92.4441L415.603 68.7337L416.769 69.2534Z" fill="#222222"/>
<path d="M371.723 61.8066L368.82 76.2598L357.755 66.5195L371.723 61.8066ZM364.131 70.4314L365.089 71.2749L347.937 90.7604L346.979 89.9169L346.021 89.0733L363.173 69.5878L364.131 70.4314Z" fill="#222222"/>
<path d="M321.376 67.0007L313.617 79.5355L306.641 66.5489L321.376 67.0007ZM311.254 72.438L311.858 73.5627L288.99 85.847L288.386 84.7223L287.782 83.5976L310.65 71.3134L311.254 72.438Z" fill="#222222"/>
<path d="M269.024 73.8616L257.118 82.5542L255.543 67.8968L269.024 73.8616ZM257.6 75.0891L257.736 76.3585L231.926 79.1317L231.789 77.8624L231.653 76.593L257.463 73.8197L257.6 75.0891Z" fill="#222222"/>
<path d="M213.919 81.0851L199.603 84.6017L203.716 70.4452L213.919 81.0851ZM202.886 77.8796L202.529 79.1056L177.601 71.8637L177.957 70.6377L178.313 69.4117L203.242 76.6536L202.886 77.8796Z" fill="#C0343B"/>
<path d="M156.371 87.1929L141.747 85.3346L150.669 73.5989L156.371 87.1929ZM147.224 80.2394L146.452 81.2557L125.786 65.5459L126.558 64.5296L127.331 63.5132L147.997 79.223L147.224 80.2394Z" fill="#222222"/>
<path d="M97.6155 91.2825L84.3038 84.9485L96.445 76.5873L97.6155 91.2825ZM91.0985 81.8193L90.0471 82.5435L75.3236 61.1638L76.3751 60.4397L77.4265 59.7156L92.15 81.0952L91.0985 81.8193Z" fill="#222222"/>
<path d="M39.1624 93.3683L27.7422 84.0463L41.5253 78.8172L39.1624 93.3683ZM35.0866 82.6254L33.893 83.0783L24.6849 58.8073L25.8785 58.3544L27.0722 57.9016L36.2803 82.1725L35.0866 82.6254Z" fill="#222222"/>
<path d="M526.256 111.937L531.118 125.854L516.634 123.105L526.256 111.937ZM524.114 123.225L525.368 123.463L520.528 148.967L519.274 148.729L518.02 148.491L522.86 122.987L524.114 123.225Z" fill="#222222"/>
<path d="M475.918 113.23L477.453 127.892L463.988 121.89L475.918 113.23ZM471.24 123.725L472.406 124.244L461.838 147.955L460.672 147.435L459.506 146.915L470.074 123.205L471.24 123.725Z" fill="#222222"/>
<path d="M426.324 116.395L423.286 130.82L412.312 120.977L426.324 116.395ZM418.651 124.948L419.602 125.801L402.268 145.125L401.318 144.272L400.368 143.42L417.701 124.096L418.651 124.948Z" fill="#222222"/>
<path d="M376.088 121.942L367.978 134.253L361.372 121.074L376.088 121.942ZM365.817 127.091L366.389 128.232L343.182 139.865L342.61 138.724L342.038 137.582L365.244 125.95L365.817 127.091Z" fill="#222222"/>
<path d="M323.579 129.423L311.186 137.406L310.469 122.681L323.579 129.423ZM312.103 129.982L312.165 131.257L286.237 132.519L286.175 131.244L286.113 129.968L312.041 128.706L312.103 129.982Z" fill="#222222"/>
<path d="M267.78 137.327L253.184 139.396L258.69 125.721L267.78 137.327ZM257.121 133.035L256.645 134.22L232.564 124.523L233.041 123.339L233.518 122.155L257.598 131.851L257.121 133.035Z" fill="#C0343B"/>
<path d="M208.946 143.8L194.774 139.739L205.376 129.497L208.946 143.8ZM200.962 135.536L200.044 136.423L182.008 117.754L182.926 116.867L183.844 115.979L201.88 134.649L200.962 135.536Z" fill="#222222"/>
<path d="M148.524 147.677L136.885 138.63L150.539 133.074L148.524 147.677ZM144.193 137.035L143.011 137.516L133.227 113.471L134.41 112.99L135.592 112.509L145.376 136.553L144.193 137.035Z" fill="#222222"/>
<path d="M88.271 149.015L80.0463 136.781L94.7537 135.775L88.271 149.015ZM87.4871 137.551L86.2134 137.638L84.4423 111.74L85.716 111.653L86.9897 111.566L88.7608 137.464L87.4871 137.551Z" fill="#222222"/>
<path d="M29.5237 148.816L24.2907 135.035L38.8425 137.394L29.5237 148.816ZM31.3623 137.474L30.1021 137.27L34.256 111.646L35.5162 111.85L36.7765 112.054L32.6225 137.679L31.3623 137.474Z" fill="#222222"/>
<path d="M530.203 167.621L531.894 182.266L518.366 176.408L530.203 167.621ZM525.637 178.165L526.809 178.673L516.494 202.494L515.322 201.987L514.151 201.48L524.465 177.658L525.637 178.165Z" fill="#222222"/>
<path d="M480.666 170.749L477.763 185.203L466.698 175.462L480.666 170.749ZM473.074 179.374L474.033 180.218L456.881 199.703L455.922 198.86L454.964 198.016L472.116 178.531L473.074 179.374Z" fill="#222222"/>
<path d="M430.56 176.414L422.449 188.724L415.843 175.545L430.56 176.414ZM420.288 181.562L420.86 182.704L397.653 194.336L397.081 193.195L396.509 192.054L419.716 180.421L420.288 181.562Z" fill="#222222"/>
<path d="M378.067 184.267L365.517 192.002L365.094 177.266L378.067 184.267ZM366.582 184.597L366.618 185.874L340.67 186.619L340.634 185.343L340.597 184.067L366.545 183.321L366.582 184.597Z" fill="#222222"/>
<path d="M321.865 192.688L307.182 193.998L313.389 180.627L321.865 192.688ZM311.444 187.85L310.906 189.008L287.36 178.078L287.898 176.92L288.435 175.762L311.981 186.692L311.444 187.85Z" fill="#C0343B"/>
<path d="M262.073 199.455L248.354 194.057L259.888 184.876L262.073 199.455ZM254.916 190.465L253.917 191.26L237.75 170.951L238.748 170.156L239.747 169.361L255.915 189.67L254.916 190.465Z" fill="#222222"/>
<path d="M200.305 203.012L190.158 192.319L204.492 188.878L200.305 203.012ZM197.623 191.84L196.382 192.138L190.322 166.896L191.564 166.598L192.805 166.3L198.865 191.542L197.623 191.84Z" fill="#222222"/>
<path d="M138.711 203.325L133.299 189.613L147.88 191.782L138.711 203.325ZM140.402 191.96L139.139 191.772L142.96 166.096L144.223 166.284L145.486 166.472L141.665 192.148L140.402 191.96Z" fill="#222222"/>
<path d="M78.7854 201.633L77.7581 186.927L91.0074 193.391L78.7854 201.633ZM83.823 191.306L82.6756 190.747L94.0569 167.416L95.2043 167.975L96.3517 168.535L84.9704 191.866L83.823 191.306Z" fill="#222222"/>
<path d="M21.0413 199.594L23.048 184.99L34.6925 194.03L21.0413 199.594ZM28.0874 190.518L27.0789 189.735L42.998 169.23L44.0064 170.013L45.0148 170.796L29.0958 191.301L28.0874 190.518Z" fill="#222222"/>
<path d="M534.748 224.885L532.244 239.413L520.915 229.98L534.748 224.885ZM527.396 233.716L528.377 234.532L511.767 254.482L510.786 253.665L509.805 252.848L526.415 232.899L527.396 233.716Z" fill="#222222"/>
<path d="M484.791 230.415L477.032 242.95L470.056 229.963L484.791 230.415ZM474.668 235.852L475.273 236.977L452.404 249.261L451.8 248.136L451.196 247.012L474.064 234.727L474.668 235.852Z" fill="#222222"/>
<path d="M432.522 238.365L420.129 246.348L419.412 231.624L432.522 238.365ZM421.046 238.924L421.108 240.199L395.179 241.461L395.117 240.186L395.055 238.911L420.983 237.649L421.046 238.924Z" fill="#222222"/>
<path d="M376.337 247.159L361.654 248.469L367.861 235.098L376.337 247.159ZM365.915 242.321L365.377 243.479L341.832 232.549L342.369 231.391L342.907 230.233L366.453 241.163L365.915 242.321Z" fill="#C0343B"/>
<path d="M316.057 254.299L302.523 248.456L314.35 239.656L316.057 254.299ZM309.199 245.08L308.174 245.842L292.679 225.016L293.703 224.253L294.727 223.491L310.223 244.318L309.199 245.08Z" fill="#222222"/>
<path d="M253.343 257.768L244.061 246.316L258.62 244.003L253.343 257.768ZM251.541 246.42L250.28 246.621L246.208 220.983L247.469 220.783L248.73 220.583L252.802 246.22L251.541 246.42Z" fill="#222222"/>
<path d="M190.713 257.257L187.194 242.941L201.351 247.052L190.713 257.257ZM193.917 246.223L192.691 245.867L199.93 220.938L201.156 221.294L202.382 221.65L195.143 246.579L193.917 246.223Z" fill="#222222"/>
<path d="M130.062 254.126L131.992 239.511L143.684 248.49L130.062 254.126ZM137.061 245.013L136.048 244.235L151.859 223.647L152.872 224.425L153.884 225.202L138.073 245.791L137.061 245.013Z" fill="#222222"/>
<path d="M71.9045 250.362L77.8286 236.863L86.5571 248.743L71.9045 250.362ZM81.164 243.559L80.4081 242.53L101.328 227.16L102.084 228.189L102.84 229.217L81.9199 244.587L81.164 243.559Z" fill="#222222"/>
<path d="M15.7463 247.598L23.907 235.321L30.4588 248.527L15.7463 247.598ZM26.0392 242.492L25.4718 241.348L48.7262 229.811L49.2936 230.955L49.861 232.098L26.6066 243.635L26.0392 242.492Z" fill="#222222"/>
<path d="M538.753 283.997L531.691 296.938L524.015 284.352L538.753 283.997ZM528.943 289.98L529.608 291.07L507.445 304.586L506.78 303.496L506.116 302.406L528.278 288.89L528.943 289.98Z" fill="#222222"/>
<path d="M486.909 291.747L475.003 300.44L473.428 285.782L486.909 291.747ZM475.485 292.974L475.621 294.244L449.811 297.017L449.674 295.748L449.538 294.478L475.348 291.705L475.485 292.974Z" fill="#222222"/>
<path d="M431.194 300.741L416.598 302.81L422.104 289.135L431.194 300.741ZM420.535 296.449L420.059 297.634L395.979 287.937L396.455 286.753L396.932 285.569L421.012 295.265L420.535 296.449Z" fill="#C0343B"/>
<path d="M371.015 308.397L357.297 303L368.831 293.819L371.015 308.397ZM363.859 299.408L362.86 300.203L346.692 279.894L347.691 279.099L348.69 278.304L364.858 298.613L363.859 299.408Z" fill="#222222"/>
<path d="M307.815 312.24L298.533 300.787L313.092 298.475L307.815 312.24ZM306.012 300.892L304.752 301.092L300.68 275.455L301.941 275.254L303.202 275.054L307.273 300.692L306.012 300.892Z" fill="#222222"/>
<path d="M244.363 311.469L241.508 297.007L255.46 301.766L244.363 311.469ZM248.072 300.594L246.864 300.182L255.243 275.613L256.452 276.025L257.66 276.437L249.28 301.007L248.072 300.594Z" fill="#222222"/>
<path d="M183.047 307.332L186.486 292.997L197.181 303.142L183.047 307.332ZM190.955 298.995L190.029 298.117L207.894 279.283L208.82 280.162L209.746 281.04L191.881 299.874L190.955 298.995Z" fill="#222222"/>
<path d="M124.703 302.097L132.843 289.807L139.417 303.002L124.703 302.097ZM134.987 296.974L134.418 295.831L157.653 284.256L158.223 285.399L158.792 286.541L135.556 298.117L134.987 296.974Z" fill="#222222"/>
<path d="M68.6975 297.723L79.6083 287.809L82.7381 302.215L68.6975 297.723ZM79.9256 295.283L79.6546 294.036L105.022 288.524L105.293 289.772L105.564 291.02L80.1967 296.531L79.9256 295.283Z" fill="#222222"/>
<path d="M13.8601 295.295L25.9734 286.894L27.1927 301.585L13.8601 295.295ZM25.3108 294.345L25.2052 293.073L51.0752 290.926L51.1808 292.198L51.2864 293.47L25.4164 295.617L25.3108 294.345Z" fill="#222222"/>
<path d="M541.115 344.498L530.067 354.259L527.138 339.811L541.115 344.498ZM529.854 346.781L530.107 348.032L504.666 353.19L504.412 351.939L504.159 350.687L529.6 345.53L529.854 346.781Z" fill="#C0343B"/>
<path d="M486.276 353.442L471.96 356.958L476.072 342.802L486.276 353.442ZM475.242 350.236L474.886 351.462L449.957 344.22L450.314 342.994L450.67 341.768L475.598 349.01L475.242 350.236Z" fill="#C0343B"/>
<path d="M426.831 361.685L412.66 357.625L423.262 347.382L426.831 361.685ZM418.848 353.422L417.93 354.309L399.893 335.639L400.811 334.752L401.729 333.865L419.766 352.535L418.848 353.422Z" fill="#222222"/>
<path d="M363.72 366.425L353.573 355.731L367.907 352.291L363.72 366.425ZM361.038 355.252L359.797 355.55L353.738 330.308L354.979 330.01L356.221 329.712L362.279 354.954L361.038 355.252Z" fill="#222222"/>
<path d="M299.656 366.2L296.14 351.884L310.296 355.997L299.656 366.2ZM302.862 355.167L301.636 354.81L308.88 329.882L310.106 330.239L311.332 330.595L304.088 355.523L302.862 355.167Z" fill="#222222"/>
<path d="M237.513 361.798L240.958 347.464L251.649 357.614L237.513 361.798ZM245.425 353.465L244.499 352.586L262.372 333.76L263.298 334.639L264.224 335.518L246.35 354.344L245.425 353.465Z" fill="#222222"/>
<path d="M178.708 355.558L187.564 343.773L193.342 357.335L178.708 355.558ZM189.278 351.055L188.778 349.88L212.66 339.705L213.16 340.88L213.661 342.054L189.779 352.229L189.278 351.055Z" fill="#222222"/>
<path d="M122.806 349.82L134.895 341.384L136.157 356.072L122.806 349.82ZM134.254 348.837L134.145 347.565L160.009 345.343L160.118 346.615L160.227 347.887L134.363 350.109L134.254 348.837Z" fill="#222222"/>
<path d="M68.407 345.961L81.9694 340.183L80.1917 354.818L68.407 345.961ZM79.8132 347.347L79.9671 346.079L105.737 349.21L105.583 350.477L105.429 351.744L79.6592 348.614L79.8132 347.347Z" fill="#222222"/>
<path d="M14.1829 344.426L28.1778 339.793L25.1922 354.229L14.1829 344.426ZM25.4348 346.753L25.6934 345.502L51.1144 350.76L50.8559 352.01L50.5973 353.26L25.1762 348.003L25.4348 346.753Z" fill="#222222"/>
<path d="M541.301 405.332L527.622 410.828L529.702 396.234L541.301 405.332ZM529.926 403.711L529.746 404.975L504.047 401.312L504.227 400.048L504.407 398.784L530.106 402.447L529.926 403.711Z" fill="#222222"/>
<path d="M483.197 414.028L468.573 412.164L477.499 400.432L483.197 414.028ZM474.052 407.071L473.279 408.087L452.62 392.369L453.393 391.353L454.166 390.337L474.825 406.055L474.052 407.071Z" fill="#222222"/>
<path d="M420.875 420.035L409.237 410.986L422.892 405.431L420.875 420.035ZM416.546 409.391L415.363 409.872L405.582 385.827L406.764 385.346L407.947 384.865L417.728 408.91L416.546 409.391Z" fill="#222222"/>
<path d="M356.591 421.209L351.183 407.495L365.764 409.669L356.591 421.209ZM358.285 409.844L357.023 409.656L360.851 383.981L362.114 384.169L363.377 384.358L359.548 410.033L358.285 409.844Z" fill="#222222"/>
<path d="M293.458 417.528L295.405 402.915L307.087 411.908L293.458 417.528ZM300.467 408.423L299.456 407.644L315.291 387.074L316.302 387.853L317.314 388.632L301.479 409.202L300.467 408.423Z" fill="#222222"/>
<path d="M233.627 410.997L241.798 398.727L248.339 411.938L233.627 410.997ZM243.925 405.899L243.358 404.755L266.622 393.238L267.189 394.382L267.755 395.526L244.491 407.043L243.925 405.899Z" fill="#222222"/>
<path d="M177.279 404.237L189.393 395.837L190.611 410.528L177.279 404.237ZM188.729 403.288L188.624 402.016L214.494 399.87L214.6 401.143L214.705 402.415L188.835 404.56L188.729 403.288Z" fill="#222222"/>
<path d="M123.092 399.073L137.042 394.307L134.195 408.771L123.092 399.073ZM134.366 401.292L134.612 400.04L160.082 405.053L159.836 406.305L159.589 407.558L134.119 402.545L134.366 401.292Z" fill="#222222"/>
<path d="M69.4309 396.191L83.9623 393.71L78.8456 407.535L69.4309 396.191ZM80.2066 400.179L80.6498 398.982L104.995 407.992L104.552 409.189L104.109 410.387L79.7635 401.376L80.2066 400.179Z" fill="#222222"/>
<path d="M15.1819 395.626L29.786 393.616L24.2246 407.269L15.1819 395.626ZM25.8229 399.961L26.3046 398.779L50.3455 408.572L49.8638 409.754L49.3822 410.936L25.3413 401.143L25.8229 399.961Z" fill="#222222"/>
<path d="M779.328 173.336L784.725 187.054L793.907 175.521L779.328 173.336ZM788.317 180.492L787.522 181.491L807.831 197.659L808.626 196.66L809.422 195.661L789.112 179.493L788.317 180.492Z" fill="#222222"/>
<path d="M775.485 236.537L786.938 245.819L789.25 231.26L775.485 236.537ZM786.833 238.339L786.633 239.6L812.271 243.672L812.471 242.411L812.671 241.15L787.033 237.079L786.833 238.339Z" fill="#222222"/>
<path d="M776.256 299.989L790.718 302.844L785.96 288.892L776.256 299.989ZM787.131 296.28L787.543 297.488L812.112 289.108L811.7 287.9L811.288 286.692L786.719 295.072L787.131 296.28Z" fill="#222222"/>
<path d="M743.227 3.23669L733.467 14.2844L747.914 17.2134L743.227 3.23669ZM740.944 14.4977L739.693 14.244L734.535 39.6855L735.787 39.9392L737.038 40.1928L742.195 14.7513L740.944 14.4977Z" fill="#222222"/>
<path d="M734.283 58.0754L730.767 72.3916L744.923 68.279L734.283 58.0754ZM737.489 69.1093L736.263 69.4655L743.505 94.3938L744.731 94.0377L745.957 93.6815L738.715 68.7531L737.489 69.1093Z" fill="#222222"/>
<path d="M726.04 117.521L730.101 131.692L740.343 121.09L726.04 117.521ZM734.304 125.504L733.417 126.422L752.086 144.459L752.973 143.54L753.86 142.622L735.191 124.586L734.304 125.504Z" fill="#222222"/>
<path d="M721.3 180.632L731.994 190.779L735.434 176.444L721.3 180.632ZM732.473 183.314L732.175 184.555L757.417 190.614L757.715 189.372L758.013 188.131L732.77 182.072L732.473 183.314Z" fill="#222222"/>
<path d="M721.525 244.696L735.841 248.211L731.728 234.055L721.525 244.696ZM732.559 241.49L732.915 242.716L757.843 235.472L757.487 234.246L757.13 233.02L732.202 240.264L732.559 241.49Z" fill="#222222"/>
<path d="M725.927 306.839L740.261 303.394L730.111 292.703L725.927 306.839ZM734.26 298.928L735.139 299.853L753.965 281.98L753.086 281.054L752.207 280.128L733.381 298.002L734.26 298.928Z" fill="#222222"/>
<path d="M732.167 365.644L743.952 356.788L730.389 351.01L732.167 365.644ZM736.67 355.073L737.845 355.574L748.019 331.692L746.845 331.191L745.67 330.691L735.496 354.573L736.67 355.073Z" fill="#222222"/>
<path d="M737.905 421.546L746.341 409.457L731.654 408.195L737.905 421.546ZM738.888 410.098L740.16 410.207L742.382 384.343L741.11 384.234L739.838 384.125L737.616 409.988L738.888 410.098Z" fill="#222222"/>
<path d="M682.393 3.05054L676.897 16.7296L691.492 14.6494L682.393 3.05054ZM684.014 14.4256L682.75 14.6058L686.413 40.305L687.677 40.1249L688.941 39.9447L685.278 14.2455L684.014 14.4256Z" fill="#222222"/>
<path d="M673.697 61.1549L675.561 75.7783L687.293 66.8522L673.697 61.1549ZM680.654 70.2992L679.638 71.0723L695.356 91.7317L696.372 90.9586L697.388 90.1856L681.67 69.5262L680.654 70.2992Z" fill="#222222"/>
<path d="M667.691 123.477L676.739 135.115L682.294 121.46L667.691 123.477ZM678.334 127.806L677.853 128.989L701.899 138.77L702.38 137.588L702.861 136.405L678.815 126.624L678.334 127.806Z" fill="#222222"/>
<path d="M666.516 187.761L680.23 193.168L678.056 178.588L666.516 187.761ZM677.881 186.066L678.069 187.329L703.744 183.5L703.556 182.238L703.367 180.975L677.692 184.803L677.881 186.066Z" fill="#222222"/>
<path d="M670.197 250.893L684.81 248.946L675.817 237.264L670.197 250.893ZM679.302 243.884L680.081 244.896L700.651 229.061L699.872 228.049L699.093 227.037L678.523 242.872L679.302 243.884Z" fill="#222222"/>
<path d="M676.728 310.724L688.998 302.553L675.787 296.013L676.728 310.724ZM681.826 300.427L682.97 300.994L694.488 277.73L693.343 277.163L692.199 276.597L680.682 299.861L681.826 300.427Z" fill="#222222"/>
<path d="M683.487 367.072L691.888 354.958L677.197 353.74L683.487 367.072ZM684.437 355.622L685.709 355.727L687.854 329.857L686.582 329.751L685.31 329.646L683.164 355.516L684.437 355.622Z" fill="#222222"/>
<path d="M688.652 421.26L693.419 407.31L678.954 410.157L688.652 421.26ZM686.433 409.986L687.686 409.739L682.672 384.269L681.42 384.516L680.167 384.762L685.18 410.232L686.433 409.986Z" fill="#222222"/>
<path d="M622.307 4.78271L621.32 19.4914L634.552 12.9912L622.307 4.78271ZM627.373 15.0955L626.227 15.6584L637.673 38.9576L638.819 38.3947L639.965 37.8317L628.519 14.5325L627.373 15.0955Z" fill="#222222"/>
<path d="M615.072 65.5402L621.495 78.8094L629.775 66.6129L615.072 65.5402ZM624.579 71.994L623.861 73.0503L645.339 87.6312L646.056 86.575L646.773 85.5187L625.296 70.9378L624.579 71.994Z" fill="#222222"/>
<path d="M611.878 129.316L624.141 137.497L625.095 122.786L611.878 129.316ZM623.344 130.059L623.262 131.333L649.166 133.013L649.249 131.739L649.332 130.465L623.427 128.785L623.344 130.059Z" fill="#222222"/>
<path d="M613.757 193.255L628.465 194.243L621.967 181.011L613.757 193.255ZM624.07 188.19L624.633 189.336L647.934 177.893L647.371 176.747L646.808 175.601L623.508 187.044L624.07 188.19Z" fill="#222222"/>
<path d="M619.546 254.612L633.018 248.627L621.099 239.952L619.546 254.612ZM626.307 245.322L627.34 246.073L642.615 225.084L641.583 224.333L640.551 223.582L625.275 244.57L626.307 245.322Z" fill="#222222"/>
<path d="M626.739 312.272L636.562 301.28L622.131 298.269L626.739 312.272ZM629.086 301.024L630.336 301.285L635.638 275.873L634.388 275.613L633.139 275.352L627.836 300.764L629.086 301.024Z" fill="#222222"/>
<path d="M633.034 366.978L638.656 353.35L624.043 355.295L633.034 366.978ZM631.518 355.588L632.783 355.42L629.358 329.688L628.093 329.856L626.827 330.025L630.252 355.757L631.518 355.588Z" fill="#222222"/>
<path d="M637.244 420.379L639.574 405.822L625.803 411.082L637.244 420.379ZM633.144 409.645L634.337 409.189L625.075 384.939L623.882 385.394L622.69 385.85L631.952 410.1L633.144 409.645Z" fill="#C0343B"/>
<path d="M563.582 7.65515L566.628 22.0789L577.596 12.2294L563.582 7.65515ZM571.259 16.2042L570.309 17.0572L587.653 36.3719L588.603 35.5189L589.553 34.6659L572.209 15.3513L571.259 16.2042Z" fill="#222222"/>
<path d="M558.376 69.9985L568.071 81.1042L572.841 67.1556L558.376 69.9985ZM569.248 73.7168L568.835 74.9247L593.397 83.3252L593.81 82.1172L594.223 80.9092L569.661 72.5088L569.248 73.7168Z" fill="#222222"/>
<path d="M557.683 133.943L571.58 138.861L568.89 124.367L557.683 133.943ZM568.98 131.847L569.213 133.102L594.736 128.366L594.503 127.111L594.27 125.856L568.747 130.591L568.98 131.847Z" fill="#222222"/>
<path d="M561.498 196.734L576.066 194.482L566.831 182.991L561.498 196.734ZM570.454 189.536L571.253 190.531L591.488 174.27L590.688 173.274L589.888 172.279L569.654 188.541L570.454 189.536Z" fill="#222222"/>
<path d="M568.054 256.386L580.192 248.02L566.877 241.691L568.054 256.386ZM572.987 246.008L574.14 246.556L585.283 223.111L584.13 222.563L582.977 222.015L571.833 245.46L572.987 246.008Z" fill="#222222"/>
<path d="M574.958 312.636L583.088 300.34L568.374 299.446L574.958 312.636ZM575.654 301.167L576.928 301.245L578.501 275.333L577.227 275.256L575.952 275.179L574.379 301.09L575.654 301.167Z" fill="#222222"/>
<path d="M580.423 366.634L584.642 352.508L570.299 355.918L580.423 366.634ZM577.766 355.455L579.008 355.16L573.005 329.905L571.763 330.2L570.52 330.495L576.524 355.75L577.766 355.455Z" fill="#C0343B"/>
<path d="M583.722 419.983L585.251 405.321L571.788 411.328L583.722 419.983ZM579.04 409.49L580.206 408.97L569.628 385.264L568.462 385.784L567.296 386.304L577.874 410.011L579.04 409.49Z" fill="#222222"/>
</g>
<defs>
<clipPath id="clip0_12_4260">
<rect width="775" height="421" rx="20" fill="white"/>
</clipPath>
</defs>
</svg>
