<svg width="775" height="421" viewBox="0 0 775 421" fill="none" xmlns="http://www.w3.org/2000/svg">
<g clip-path="url(#clip0_1_3)">
<path d="M324.709 3.48265L317.338 16.2494H332.08L324.709 3.48265ZM282.293 3.50017L274.32 15.9001L289.045 16.6045L282.293 3.50017ZM241.225 3.74237L231.603 14.9109L246.086 17.6595L241.225 3.74237ZM201.225 4.70288L189.388 13.4896L202.916 19.3473L201.225 4.70288ZM161.699 6.91388L147.866 12.0087L159.195 21.4413L161.699 6.91388ZM121.745 10.5878L107.008 10.9421L114.683 23.528L121.745 10.5878ZM80.4907 15.3612L66.514 10.6739L69.443 25.1217L80.4907 15.3612ZM37.5155 20.3815L25.9064 11.296L23.8426 25.8926L37.5155 20.3815ZM-6.91021 24.6965L-15.2522 12.5421L-21.6072 25.8437L-6.91021 24.6965ZM-51.9459 27.7047L-57.1467 13.9108L-66.4921 25.3119L-51.9459 27.7047ZM325.417 46.6244L317.444 59.0244L332.169 59.7288L325.417 46.6244ZM284.385 46.8741L274.736 58.0193L289.212 60.803L284.385 46.8741ZM244.497 47.8906L232.567 56.5507L246.032 62.5522L244.497 47.8906ZM205.131 50.3035L191.163 55.0164L202.228 64.7566L205.131 50.3035ZM165.273 54.4157L150.538 53.9638L157.514 66.9504L165.273 54.4157ZM123.826 59.8474L110.345 53.8826L111.92 68.5399L123.826 59.8474ZM80.2002 65.5661L69.9967 54.9262L65.8841 69.0827L80.2002 65.5661ZM34.6402 70.4015L28.9374 56.8075L20.0161 68.5433L34.6402 70.4015ZM-11.8761 73.6392L-13.0466 58.944L-25.1878 67.3052L-11.8761 73.6392ZM-58.1527 75.2905L-55.7897 60.7394L-69.5729 65.9685L-58.1527 75.2905ZM327.473 89.9909L317.851 101.159L332.335 103.908L327.473 89.9909ZM287.621 91.0149L275.691 99.675L289.156 105.676L287.621 91.0149ZM248.358 93.5205L234.346 98.1023L245.32 107.946L248.358 93.5205ZM208.587 97.9122L193.871 97.0437L200.477 110.222L208.587 97.9122ZM167.016 103.834L153.906 97.0929L154.623 111.817L167.016 103.834ZM122.841 110.092L113.751 98.4862L108.245 112.161L122.841 110.092ZM76.2625 115.216L72.6932 100.913L62.091 111.156L76.2625 115.216ZM28.4271 118.286L30.4429 103.683L16.7882 109.239L28.4271 118.286ZM-19.274 119.345L-12.7913 106.105L-27.4987 107.111L-19.274 119.345ZM-65.7836 119.188L-56.4648 107.765L-71.0165 105.406L-65.7836 119.188ZM330.597 134.076L318.761 142.862L332.289 148.72L330.597 134.076ZM291.38 136.552L277.411 141.265L288.477 151.005L291.38 136.552ZM251.712 141.036L236.995 140.168L243.601 153.347L251.712 141.036ZM210.154 147.254L197.181 140.253L197.604 154.989L210.154 147.254ZM165.66 153.921L157.183 141.859L150.976 155.231L165.66 153.921ZM118.323 159.278L116.138 144.699L104.605 153.88L118.323 159.278ZM69.4222 162.094L73.6094 147.96L59.2749 151.401L69.4222 162.094ZM20.6584 162.342L29.8282 150.799L15.247 148.629L20.6584 162.342ZM-26.7838 161.003L-14.5618 152.76L-27.8112 146.297L-26.7838 161.003ZM-72.4989 159.388L-58.8477 153.824L-70.4922 144.784L-72.4989 159.388ZM334.196 179.411L320.363 184.506L331.692 193.938L334.196 179.411ZM294.645 183.788L279.911 183.337L286.887 196.323L294.645 183.788ZM253.265 190.083L240.155 183.341L240.872 198.066L253.265 190.083ZM208.784 197.045L200.308 184.984L194.101 198.355L208.784 197.045ZM161.061 202.697L159.354 188.054L147.527 196.854L161.061 202.697ZM111.412 205.444L116.689 191.679L102.129 193.991L111.412 205.444ZM61.8279 205.039L72.4665 194.834L58.3095 190.723L61.8279 205.039ZM13.8119 202.56L27.4337 196.924L15.7418 187.945L13.8119 202.56ZM-32.2313 199.58L-17.5787 197.961L-26.3072 186.081L-32.2313 199.58ZM-76.6909 197.392L-61.9785 198.321L-68.5303 185.115L-76.6909 197.392ZM337.367 226.209L322.629 226.563L330.305 239.149L337.367 226.209ZM296.323 232.344L282.842 226.38L284.417 241.037L296.323 232.344ZM252.214 239.465L243.124 227.859L237.618 241.534L252.214 239.465ZM204.571 245.526L202.386 230.947L190.853 240.129L204.571 245.526ZM154.536 248.568L159.813 234.804L145.254 237.116L154.536 248.568ZM104.302 247.958L115.399 238.255L101.447 233.496L104.302 247.958ZM55.7591 244.683L69.8929 240.493L59.1976 230.347L55.7591 244.683ZM9.56842 240.539L24.2824 241.443L17.709 228.248L9.56842 240.539ZM-34.7702 237.075L-20.7296 241.568L-23.8594 227.162L-34.7702 237.075ZM-78.1841 235.154L-64.8514 241.443L-66.0708 226.752L-78.1841 235.154ZM339.236 274.107L325.26 269.419L328.189 283.867L339.236 274.107ZM295.822 281.187L285.618 270.548L281.505 284.704L295.822 281.187ZM248.76 287.714L245.19 273.41L234.588 283.653L248.76 287.714ZM198.795 291.466L202.983 277.332L188.648 280.772L198.795 291.466ZM148.077 291.288L158.717 281.085L144.561 276.972L148.077 291.288ZM98.8791 287.802L113.015 283.619L102.324 273.469L98.8791 287.802ZM52.3237 282.863L66.958 284.64L61.1799 271.078L52.3237 282.863ZM8.06694 278.32L21.4177 284.572L20.1559 269.884L8.06694 278.32ZM-35.0003 275.265L-23.2156 284.121L-21.4379 269.487L-35.0003 275.265ZM-77.9286 274.05L-66.9193 283.853L-63.9337 269.417L-77.9286 274.05ZM339.384 322.268L327.785 313.17L325.705 327.764L339.384 322.268ZM293.384 329.153L287.686 315.557L278.76 327.289L293.384 329.153ZM244.044 333.908L246.061 319.305L232.406 324.859L244.044 333.908ZM193.151 334.838L202.324 323.298L187.744 321.124L193.151 334.838ZM143.17 331.924L156.799 326.303L145.117 317.311L143.17 331.924ZM95.8029 326.753L110.515 327.695L103.974 314.483L95.8029 326.753ZM51.1923 321.402L64.5245 327.692L63.3063 313.001L51.1923 321.402ZM8.29342 317.313L19.3964 327.011L22.2433 312.547L8.29342 317.313ZM-34.1894 315.031L-24.7748 326.375L-19.658 312.55L-34.1894 315.031ZM-77.1376 314.585L-68.0949 326.227L-62.5336 312.575L-77.1376 314.585ZM338.013 369.838L329.804 357.593L323.304 370.824L338.013 369.838ZM289.912 375.565L288.839 360.863L276.642 369.143L289.912 375.565ZM239.421 378.094L245.951 364.877L231.24 365.831L239.421 378.094ZM188.802 376.607L201.046 368.397L187.814 361.898L188.802 376.607ZM140.226 372.024L154.886 370.47L146.211 358.551L140.226 372.024ZM94.5775 366.329L108.581 370.937L105.569 356.506L94.5775 366.329ZM51.2677 361.345L62.9504 370.336L64.8953 355.723L51.2677 361.345ZM8.99072 358.012L18.2874 369.453L23.547 355.681L8.99072 358.012ZM-33.4539 356.497L-25.4937 368.905L-18.7283 355.808L-33.4539 356.497ZM-76.6976 356.726L-68.5237 368.994L-61.9861 355.782L-76.6976 356.726ZM335.739 416.329L331.164 402.315L321.315 413.284L335.739 416.329ZM286.382 420.451L289.225 405.986L275.277 410.756L286.382 420.451ZM235.758 421L245.335 409.792L230.84 407.103L235.758 421ZM186.048 417.979L199.791 412.646L188.3 403.411L186.048 417.979ZM138.821 412.789L153.516 413.966L147.188 400.651L138.821 412.789ZM94.2889 407.323L107.479 413.907L106.586 399.193L94.2889 407.323ZM51.5397 402.997L62.2558 413.12L65.6649 398.778L51.5397 402.997ZM9.30384 400.385L17.959 412.318L23.9661 398.856L9.30384 400.385ZM-33.4023 399.516L-25.5429 411.987L-18.6716 398.945L-33.4023 399.516ZM-76.934 400.352L-68.3067 412.306L-62.2682 398.858L-76.934 400.352ZM324.709 14.9727H323.432V33.1306H324.709H325.985V14.9727H324.709ZM281.744 14.9771L280.468 14.9161L279.601 33.0532L280.876 33.1142L282.151 33.1752L283.019 15.0381L281.744 14.9771ZM239.082 15.0309L237.828 14.7929L234.443 32.6324L235.697 32.8704L236.951 33.1084L240.337 15.269L239.082 15.0309ZM196.659 15.2469L195.487 14.7396L188.272 31.4025L189.444 31.9098L190.615 32.417L197.831 15.7542L196.659 15.2469ZM154.347 15.7439L153.366 14.927L141.747 28.8812L142.728 29.6981L143.71 30.515L155.328 16.5608L154.347 15.7439ZM111.936 16.5703L111.271 15.4803L95.7684 24.9346L96.4332 26.0245L97.0979 27.1145L112.6 17.6603L111.936 16.5703ZM69.2298 17.6441L68.9761 16.3929L51.1802 20.0006L51.4339 21.2519L51.6875 22.5031L69.4834 18.8954L69.2298 17.6441ZM26.1386 18.773L26.3173 17.5089L8.33825 14.967L8.15952 16.2311L7.9808 17.4952L25.9599 20.0371L26.1386 18.773ZM-17.2778 19.7433L-16.7274 18.5913L-33.1115 10.7637L-33.6618 11.9156L-34.2122 13.0676L-17.8281 20.8952L-17.2778 19.7433ZM-60.8321 20.4207L-60.0227 19.4333L-74.0657 7.92233L-74.8751 8.90968L-75.6844 9.89704L-61.6414 21.408L-60.8321 20.4207ZM324.868 58.1014L323.593 58.0404L322.725 76.1775L324 76.2385L325.275 76.2995L326.143 58.1624L324.868 58.1014ZM282.215 58.1575L280.962 57.9164L277.533 75.7476L278.786 75.9887L280.04 76.2298L283.469 58.3986L282.215 58.1575ZM239.819 58.3854L238.653 57.8656L231.261 74.4506L232.427 74.9704L233.593 75.4901L240.985 58.9051L239.819 58.3854ZM197.539 58.9282L196.581 58.0847L184.584 71.7144L185.542 72.558L186.5 73.4015L198.498 59.7717L197.539 58.9282ZM155.15 59.853L154.546 58.7283L138.55 67.3209L139.154 68.4456L139.759 69.5703L155.755 60.9776L155.15 59.853ZM112.402 61.0749L112.265 59.8055L94.2112 61.7454L94.3476 63.0147L94.4839 64.2841L112.538 62.3442L112.402 61.0749ZM69.1663 62.3606L69.5225 61.1346L52.0855 56.069L51.7294 57.295L51.3732 58.521L68.8102 63.5866L69.1663 62.3606ZM25.4931 63.448L26.2657 62.4317L11.8104 51.4429L11.0378 52.4593L10.2652 53.4756L24.7205 64.4644L25.4931 63.448ZM-18.3931 64.1761L-17.3416 63.452L-27.6404 48.4973L-28.6919 49.2214L-29.7434 49.9455L-19.4445 64.9002L-18.3931 64.1761ZM-62.2285 64.5476L-61.0348 64.0948L-67.4757 47.1176L-68.6694 47.5705L-69.863 48.0233L-63.4221 65.0005L-62.2285 64.5476ZM325.331 101.279L324.077 101.041L320.691 118.881L321.945 119.119L323.2 119.357L326.585 101.517L325.331 101.279ZM282.943 101.51L281.777 100.99L274.385 117.575L275.551 118.095L276.717 118.614L284.109 102.029L282.943 101.51ZM240.686 102.074L239.736 101.221L227.611 114.738L228.561 115.591L229.512 116.443L241.636 102.926L240.686 102.074ZM198.315 103.061L197.743 101.92L181.511 110.056L182.083 111.198L182.655 112.339L198.888 104.202L198.315 103.061ZM155.54 104.393L155.478 103.118L137.342 104.001L137.404 105.276L137.466 106.551L155.602 105.668L155.54 104.393ZM112.182 105.8L112.659 104.616L95.8157 97.8337L95.3388 99.018L94.862 100.202L111.706 106.985L112.182 105.8ZM68.2791 106.953L69.1973 106.066L56.5811 93.0067L55.6629 93.8937L54.7447 94.7808L67.3609 107.84L68.2791 106.953ZM24.0967 107.644L25.2792 107.162L18.4358 90.3435L17.2533 90.8246L16.0707 91.3058L22.9141 108.125L24.0967 107.644ZM-20.0579 107.882L-18.7842 107.795L-20.0231 89.6791L-21.2968 89.7662L-22.5705 89.8533L-21.3316 107.969L-20.0579 107.882ZM-63.9449 107.846L-62.6847 108.05L-59.7791 90.1263L-61.0393 89.922L-62.2996 89.7177L-65.2052 107.642L-63.9449 107.846ZM326.032 144.62L324.86 144.112L317.645 160.775L318.817 161.283L319.988 161.79L327.203 145.127L326.032 144.62ZM283.788 145.177L282.829 144.333L270.832 157.963L271.79 158.807L272.749 159.65L284.746 146.02L283.788 145.177ZM241.44 146.185L240.868 145.044L224.635 153.181L225.207 154.322L225.779 155.463L242.012 147.327L241.44 146.185ZM198.669 147.584L198.632 146.308L180.482 146.83L180.518 148.106L180.555 149.382L198.705 148.86L198.669 147.584ZM155.238 149.083L155.775 147.925L139.305 140.279L138.768 141.437L138.23 142.595L154.7 150.241L155.238 149.083ZM111.166 150.288L112.165 149.493L100.856 135.287L99.8572 136.082L98.8584 136.877L110.168 151.083L111.166 150.288ZM66.7402 150.922L67.9816 150.624L63.7432 132.967L62.5018 133.265L61.2604 133.563L65.4988 151.22L66.7402 150.922ZM22.3497 150.977L23.6125 151.165L26.2852 133.205L25.0225 133.017L23.7597 132.829L21.0869 150.789L22.3497 150.977ZM-21.7462 150.676L-20.5988 151.235L-12.6378 134.916L-13.7852 134.356L-14.9327 133.796L-22.8937 150.116L-21.7462 150.676ZM-65.4528 150.312L-64.4444 151.095L-53.3093 136.752L-54.3177 135.969L-55.3262 135.187L-66.4613 149.529L-65.4528 150.312ZM326.844 188.241L325.863 187.424L314.244 201.378L315.226 202.195L316.207 203.012L327.825 189.058L326.844 188.241ZM284.523 189.226L283.919 188.101L267.923 196.694L268.527 197.818L269.131 198.943L285.127 190.35L284.523 189.226ZM241.789 190.642L241.726 189.366L223.59 190.249L223.652 191.524L223.714 192.8L241.851 191.917L241.789 190.642ZM198.362 192.207L198.9 191.049L182.43 183.404L181.892 184.562L181.355 185.72L197.824 193.365L198.362 192.207ZM154.203 193.479L155.227 192.717L144.388 178.149L143.364 178.911L142.339 179.673L153.178 194.241L154.203 193.479ZM109.609 194.096L110.87 193.896L108.022 175.963L106.761 176.163L105.5 176.363L108.348 194.296L109.609 194.096ZM65.032 194.005L66.258 194.361L71.3215 176.923L70.0955 176.567L68.8694 176.211L63.806 193.649L65.032 194.005ZM20.8102 193.447L21.8227 194.225L32.8822 179.824L31.8697 179.046L30.8571 178.268L19.7976 192.67L20.8102 193.447ZM-22.9718 192.777L-22.2159 193.806L-7.58299 183.055L-8.3389 182.026L-9.09481 180.997L-23.7277 191.748L-22.9718 192.777ZM-66.398 192.286L-65.8306 193.429L-49.5646 185.359L-50.132 184.216L-50.6994 183.072L-66.9654 191.142L-66.398 192.286ZM327.557 232.192L326.892 231.102L311.39 240.556L312.054 241.646L312.719 242.736L328.222 233.282L327.557 232.192ZM284.899 233.572L284.762 232.303L266.708 234.242L266.845 235.512L266.981 236.781L285.035 234.841L284.899 233.572ZM241.555 235.173L242.032 233.989L225.188 227.207L224.712 228.391L224.235 229.575L241.078 236.358L241.555 235.173ZM197.415 236.537L198.414 235.742L187.105 221.536L186.106 222.331L185.107 223.126L196.416 237.332L197.415 236.537ZM152.734 237.221L153.995 237.02L151.147 219.087L149.886 219.287L148.625 219.488L151.473 237.421L152.734 237.221ZM108.011 237.083L109.219 237.496L115.081 220.31L113.873 219.898L112.664 219.486L106.803 236.671L108.011 237.083ZM63.6666 236.346L64.5929 237.225L77.0892 224.051L76.163 223.172L75.2367 222.294L62.7404 235.468L63.6666 236.346ZM19.853 235.415L20.4222 236.558L36.6751 228.461L36.1058 227.319L35.5365 226.176L19.2837 234.272L19.853 235.415ZM-23.542 234.636L-23.271 235.883L-5.52707 232.028L-5.79812 230.781L-6.06916 229.533L-23.8131 233.388L-23.542 234.636ZM-66.7334 234.203L-66.6278 235.476L-48.5321 233.974L-48.6377 232.701L-48.7433 231.429L-66.839 232.931L-66.7334 234.203ZM327.975 276.39L327.722 275.138L309.926 278.746L310.18 279.997L310.433 281.249L328.229 277.641L327.975 276.39ZM284.788 277.982L285.144 276.756L267.707 271.69L267.351 272.916L266.995 274.142L284.432 279.208L284.788 277.982ZM240.776 279.45L241.694 278.563L229.078 265.504L228.16 266.391L227.242 267.278L239.858 280.337L240.776 279.45ZM196.113 280.293L197.355 279.995L193.117 262.339L191.875 262.637L190.634 262.935L194.872 280.591L196.113 280.293ZM151.283 280.254L152.509 280.611L157.575 263.174L156.349 262.818L155.123 262.461L150.057 279.898L151.283 280.254ZM106.79 279.47L107.716 280.349L120.218 267.18L119.292 266.301L118.366 265.422L105.864 278.591L106.79 279.47ZM62.8944 278.359L63.3948 279.534L80.0998 272.417L79.5994 271.242L79.099 270.068L62.394 277.185L62.8944 278.359ZM19.5148 277.337L19.6241 278.609L37.7153 277.055L37.6061 275.783L37.4968 274.511L19.4056 276.065L19.5148 277.337ZM-23.5941 276.65L-23.748 277.918L-5.72265 280.107L-5.56869 278.84L-5.41474 277.573L-23.4401 275.383L-23.5941 276.65ZM-66.6767 276.377L-66.9353 277.627L-49.1537 281.304L-48.8951 280.054L-48.6365 278.804L-66.4181 275.126L-66.6767 276.377ZM328.009 320.647L328.189 319.383L310.213 316.821L310.033 318.085L309.853 319.349L327.829 321.911L328.009 320.647ZM284.239 322.196L285.012 321.18L270.562 310.185L269.789 311.201L269.016 312.217L283.466 323.212L284.239 322.196ZM239.715 323.265L240.898 322.784L234.056 305.964L232.873 306.445L231.69 306.926L238.532 323.746L239.715 323.265ZM194.846 323.473L196.109 323.662L198.787 305.702L197.524 305.514L196.261 305.326L193.583 323.285L194.846 323.473ZM150.179 322.819L151.191 323.598L162.267 309.209L161.255 308.43L160.244 307.652L149.168 322.04L150.179 322.819ZM106.1 321.655L106.667 322.8L122.939 314.743L122.373 313.599L121.806 312.455L105.534 320.511L106.1 321.655ZM62.6431 320.452L62.7486 321.724L80.8443 320.224L80.7388 318.952L80.6333 317.679L62.5376 319.18L62.6431 320.452ZM19.5672 319.532L19.3206 320.785L37.1367 324.291L37.3833 323.039L37.6298 321.786L19.8137 318.279L19.5672 319.532ZM-23.4137 319.02L-23.8568 320.217L-6.82778 326.519L-6.38466 325.322L-5.94154 324.125L-22.9706 317.822L-23.4137 319.02ZM-66.4966 318.919L-66.9782 320.102L-50.162 326.952L-49.6804 325.769L-49.1988 324.587L-66.015 317.737L-66.4966 318.919ZM327.7 364.771L328.263 363.625L311.965 355.619L311.402 356.765L310.84 357.911L327.137 365.917L327.7 364.771ZM283.458 366.059L284.514 365.342L274.315 350.319L273.259 351.036L272.202 351.753L282.401 366.776L283.458 366.059ZM238.678 366.628L239.952 366.545L238.777 348.425L237.503 348.508L236.229 348.591L237.404 366.71L238.678 366.628ZM193.867 366.293L195.013 366.856L203.017 350.558L201.871 349.995L200.725 349.432L192.721 365.731L193.867 366.293ZM149.516 365.262L150.268 366.294L164.949 355.609L164.198 354.577L163.446 353.545L148.765 364.23L149.516 365.262ZM105.825 363.982L106.086 365.232L123.861 361.523L123.6 360.273L123.34 359.023L105.565 362.732L105.825 363.982ZM62.6573 362.861L62.4889 364.127L80.488 366.522L80.6565 365.257L80.8249 363.991L62.8257 361.596L62.6573 362.861ZM19.7246 362.112L19.2691 363.304L36.2319 369.783L36.6874 368.59L37.1429 367.397L20.1801 360.919L19.7246 362.112ZM-23.2453 361.77L-23.8312 362.905L-7.69844 371.238L-7.11254 370.104L-6.52663 368.969L-22.6594 360.636L-23.2453 361.77ZM-66.3992 361.822L-66.9654 362.966L-50.6907 371.019L-50.1245 369.874L-49.5583 368.73L-65.833 360.678L-66.3992 361.822ZM327.19 408.652L328.043 407.702L314.532 395.571L313.679 396.521L312.826 397.47L326.337 409.602L327.19 408.652ZM282.664 409.579L283.872 409.166L277.996 391.985L276.788 392.398L275.58 392.811L281.456 409.992L282.664 409.579ZM237.855 409.703L239.11 409.936L242.422 392.082L241.167 391.85L239.912 391.617L236.599 409.47L237.855 409.703ZM193.245 409.023L194.241 409.823L205.615 395.67L204.62 394.87L203.625 394.07L192.25 408.224L193.245 409.023ZM149.199 407.857L149.747 409.01L166.147 401.215L165.599 400.062L165.051 398.909L148.651 406.704L149.199 407.857ZM105.758 406.627L105.835 407.902L123.96 406.801L123.882 405.527L123.805 404.253L105.68 405.353L105.758 406.627ZM62.7183 405.654L62.423 406.896L80.0887 411.095L80.384 409.853L80.6792 408.611L63.0135 404.412L62.7183 405.654ZM19.7967 405.067L19.2765 406.233L35.8584 413.632L36.3787 412.466L36.8989 411.3L20.3169 403.901L19.7967 405.067ZM-23.2368 404.871L-23.8319 406.001L-7.76708 414.464L-7.17201 413.335L-6.57694 412.205L-22.6417 403.742L-23.2368 404.871ZM-66.4521 405.059L-66.9751 406.224L-50.4104 413.661L-49.8875 412.497L-49.3645 411.332L-65.9292 403.894L-66.4521 405.059Z" fill="#222222"/>
<path d="M362.291 417.517L369.662 404.751H354.92L362.291 417.517ZM404.707 417.5L412.68 405.1L397.955 404.396L404.707 417.5ZM445.775 417.258L455.397 406.089L440.914 403.34L445.775 417.258ZM485.775 416.297L497.612 407.51L484.084 401.653L485.775 416.297ZM525.301 414.086L539.134 408.991L527.805 399.559L525.301 414.086ZM565.255 410.412L579.992 410.058L572.317 397.472L565.255 410.412ZM606.509 405.639L620.486 410.326L617.557 395.878L606.509 405.639ZM649.485 400.619L661.094 409.704L663.157 395.107L649.485 400.619ZM693.91 396.303L702.252 408.458L708.607 395.156L693.91 396.303ZM738.946 393.295L744.147 407.089L753.492 395.688L738.946 393.295ZM361.583 374.376L369.556 361.976L354.831 361.271L361.583 374.376ZM402.615 374.126L412.264 362.981L397.788 360.197L402.615 374.126ZM442.503 373.109L454.433 364.449L440.968 358.448L442.503 373.109ZM481.869 370.696L495.837 365.984L484.771 356.243L481.869 370.696ZM521.727 366.584L536.462 367.036L529.486 354.05L521.727 366.584ZM563.174 361.153L576.655 367.117L575.08 352.46L563.174 361.153ZM606.8 355.434L617.003 366.074L621.116 351.917L606.8 355.434ZM652.36 350.599L658.063 364.193L666.984 352.457L652.36 350.599ZM698.876 347.361L700.047 362.056L712.188 353.695L698.876 347.361ZM745.153 345.709L742.79 360.261L756.573 355.031L745.153 345.709ZM359.527 331.009L369.149 319.841L354.665 317.092L359.527 331.009ZM399.379 329.985L411.309 321.325L397.844 315.324L399.379 329.985ZM438.642 327.479L452.654 322.898L441.68 313.054L438.642 327.479ZM478.413 323.088L493.129 323.956L486.523 310.777L478.413 323.088ZM519.983 317.166L533.093 323.907L532.377 309.183L519.983 317.166ZM564.159 310.908L573.249 322.514L578.755 308.839L564.159 310.908ZM610.738 305.784L614.307 320.087L624.909 309.844L610.738 305.784ZM658.573 302.714L656.557 317.317L670.212 311.761L658.573 302.714ZM706.274 301.655L699.791 314.895L714.499 313.889L706.274 301.655ZM752.784 301.812L743.465 313.235L758.017 315.594L752.784 301.812ZM356.403 286.924L368.239 278.138L354.711 272.28L356.403 286.924ZM395.62 284.448L409.589 279.735L398.523 269.995L395.62 284.448ZM435.289 279.964L450.005 280.832L443.399 267.653L435.289 279.964ZM476.846 273.746L489.819 280.747L489.396 266.011L476.846 273.746ZM521.34 267.079L529.817 279.141L536.024 265.769L521.34 267.079ZM568.677 261.722L570.862 276.301L582.395 267.12L568.677 261.722ZM617.578 258.906L613.391 273.04L627.725 269.599L617.578 258.906ZM666.342 258.658L657.172 270.201L671.753 272.371L666.342 258.658ZM713.784 259.997L701.562 268.24L714.811 274.703L713.784 259.997ZM759.499 261.612L745.848 267.176L757.492 276.216L759.499 261.612ZM352.804 241.589L366.637 236.494L355.308 227.062L352.804 241.589ZM392.355 237.212L407.089 237.663L400.113 224.677L392.355 237.212ZM433.735 230.917L446.845 237.659L446.128 222.934L433.735 230.917ZM478.216 223.955L486.693 236.016L492.9 222.645L478.216 223.955ZM525.939 218.303L527.646 232.946L539.473 224.146L525.939 218.303ZM575.588 215.556L570.311 229.321L584.871 227.009L575.588 215.556ZM625.172 215.961L614.534 226.166L628.691 230.276L625.172 215.961ZM673.188 218.44L659.566 224.076L671.258 233.055L673.188 218.44ZM719.231 221.42L704.579 223.039L713.307 234.919L719.231 221.42ZM763.691 223.608L748.978 222.679L755.53 235.884L763.691 223.608ZM349.633 194.791L364.371 194.437L356.695 181.851L349.633 194.791ZM390.677 188.656L404.158 194.62L402.583 179.963L390.677 188.656ZM434.786 181.535L443.876 193.141L449.382 179.466L434.786 181.535ZM482.429 175.474L484.614 190.053L496.147 180.871L482.429 175.474ZM532.464 172.432L527.187 186.197L541.746 183.884L532.464 172.432ZM582.698 173.042L571.601 182.745L585.553 187.504L582.698 173.042ZM631.241 176.317L617.107 180.507L627.802 190.653L631.241 176.317ZM677.432 180.461L662.718 179.557L669.291 192.752L677.432 180.461ZM721.77 183.925L707.73 179.432L710.859 193.838L721.77 183.925ZM765.184 185.846L751.851 179.557L753.071 194.248L765.184 185.846ZM347.764 146.893L361.74 151.581L358.811 137.133L347.764 146.893ZM391.178 139.813L401.382 150.452L405.495 136.296L391.178 139.813ZM438.24 133.286L441.81 147.59L452.412 137.347L438.24 133.286ZM488.205 129.534L484.017 143.668L498.352 140.228L488.205 129.534ZM538.924 129.712L528.283 139.915L542.439 144.028L538.924 129.712ZM588.121 133.197L573.985 137.381L584.676 147.531L588.121 133.197ZM634.676 138.137L620.042 136.36L625.82 149.922L634.676 138.137ZM678.933 142.68L665.582 136.428L666.844 151.116L678.933 142.68ZM722 145.735L710.216 136.879L708.438 151.513L722 145.735ZM764.929 146.951L753.919 137.147L750.934 151.583L764.929 146.951ZM347.616 98.7317L359.215 107.83L361.295 93.2361L347.616 98.7317ZM393.616 91.8472L399.314 105.443L408.24 93.7113L393.616 91.8472ZM442.956 87.0921L440.939 101.695L454.594 96.1405L442.956 87.0921ZM493.849 86.1622L484.676 97.7023L499.256 99.8764L493.849 86.1622ZM543.83 89.0764L530.201 94.6966L541.883 103.689L543.83 89.0764ZM591.197 94.2466L576.485 93.3054L583.026 106.517L591.197 94.2466ZM635.808 99.5984L622.476 93.3077L623.694 107.999L635.808 99.5984ZM678.707 103.687L667.604 93.9892L664.757 108.453L678.707 103.687ZM721.189 105.969L711.775 94.6247L706.658 108.45L721.189 105.969ZM764.138 106.415L755.095 94.773L749.534 108.425L764.138 106.415ZM348.987 51.1623L357.196 63.4072L363.696 50.176L348.987 51.1623ZM397.088 45.4347L398.161 60.1373L410.358 51.857L397.088 45.4347ZM447.579 42.9062L441.049 56.1231L455.76 55.1692L447.579 42.9062ZM498.198 44.3932L485.954 52.6034L499.186 59.1018L498.198 44.3932ZM546.774 48.9765L532.114 50.5296L540.789 62.4487L546.774 48.9765ZM592.423 54.6713L578.419 50.0635L581.431 64.4944L592.423 54.6713ZM635.732 59.6546L624.05 50.6638L622.105 65.2767L635.732 59.6546ZM678.009 62.9879L668.713 51.5471L663.453 65.3187L678.009 62.9879ZM720.454 64.5026L712.494 52.0948L705.728 65.1924L720.454 64.5026ZM763.698 64.2737L755.524 52.0056L748.986 65.2185L763.698 64.2737ZM351.261 4.67074L355.836 18.6848L365.685 7.71634L351.261 4.67074ZM400.618 0.549121L397.775 15.0141L411.723 10.2437L400.618 0.549121ZM451.241 0L441.665 11.2078L456.16 13.8971L451.241 0ZM500.952 3.02049L487.21 8.35439L498.7 17.5892L500.952 3.02049ZM548.179 8.21091L533.484 7.03412L539.812 20.3485L548.179 8.21091ZM592.711 13.6766L579.521 7.09281L580.414 21.8075L592.711 13.6766ZM635.46 18.0034L624.744 7.87996L621.335 22.2221L635.46 18.0034ZM677.696 20.6152L669.041 8.68172L663.034 22.144L677.696 20.6152ZM720.402 21.4844L712.543 9.01254L705.672 22.055L720.402 21.4844ZM763.934 20.6477L755.307 8.69404L749.268 22.1423L763.934 20.6477ZM362.291 406.027H363.568V387.869H362.291H361.015V406.027H362.291ZM405.256 406.023L406.532 406.084L407.399 387.947L406.124 387.886L404.849 387.825L403.981 405.962L405.256 406.023ZM447.918 405.969L449.172 406.207L452.557 388.368L451.303 388.13L450.049 387.892L446.663 405.731L447.918 405.969ZM490.341 405.753L491.513 406.26L498.728 389.598L497.556 389.09L496.385 388.583L489.169 405.246L490.341 405.753ZM532.653 405.256L533.634 406.073L545.253 392.119L544.272 391.302L543.29 390.485L531.672 404.439L532.653 405.256ZM575.064 404.43L575.729 405.52L591.232 396.065L590.567 394.975L589.902 393.886L574.4 403.34L575.064 404.43ZM617.77 403.356L618.024 404.607L635.82 400.999L635.566 399.748L635.312 398.497L617.517 402.105L617.77 403.356ZM660.861 402.227L660.683 403.491L678.662 406.033L678.841 404.769L679.019 403.505L661.04 400.963L660.861 402.227ZM704.278 401.257L703.727 402.409L720.111 410.236L720.662 409.084L721.212 407.932L704.828 400.105L704.278 401.257ZM747.832 400.579L747.023 401.567L761.066 413.078L761.875 412.09L762.684 411.103L748.641 399.592L747.832 400.579ZM362.132 362.899L363.407 362.96L364.275 344.823L363 344.762L361.725 344.701L360.857 362.838L362.132 362.899ZM404.785 362.842L406.038 363.084L409.467 345.252L408.214 345.011L406.96 344.77L403.531 362.601L404.785 362.842ZM447.181 362.615L448.347 363.134L455.739 346.549L454.573 346.03L453.407 345.51L446.015 362.095L447.181 362.615ZM489.461 362.072L490.419 362.915L502.416 349.286L501.458 348.442L500.5 347.598L488.502 361.228L489.461 362.072ZM531.849 361.147L532.454 362.272L548.45 353.679L547.846 352.554L547.241 351.43L531.245 360.022L531.849 361.147ZM574.599 359.925L574.735 361.195L592.789 359.255L592.653 357.985L592.516 356.716L574.462 358.656L574.599 359.925ZM617.834 358.639L617.478 359.865L634.915 364.931L635.271 363.705L635.627 362.479L618.19 357.413L617.834 358.639ZM661.507 357.552L660.734 358.568L675.19 369.557L675.962 368.541L676.735 367.524L662.28 356.536L661.507 357.552ZM705.393 356.824L704.342 357.548L714.64 372.503L715.692 371.779L716.743 371.054L706.445 356.1L705.393 356.824ZM749.228 356.452L748.035 356.905L754.476 373.882L755.669 373.43L756.863 372.977L750.422 356L749.228 356.452ZM361.669 319.72L362.923 319.959L366.309 302.119L365.055 301.881L363.8 301.643L360.415 319.482L361.669 319.72ZM404.057 319.49L405.223 320.01L412.615 303.425L411.449 302.905L410.283 302.386L402.891 318.971L404.057 319.49ZM446.314 318.926L447.265 319.779L459.389 306.262L458.439 305.409L457.488 304.557L445.364 318.074L446.314 318.926ZM488.685 317.939L489.257 319.08L505.49 310.944L504.917 309.802L504.345 308.661L488.113 316.798L488.685 317.939ZM531.46 316.607L531.522 317.882L549.658 316.999L549.596 315.724L549.534 314.449L531.398 315.332L531.46 316.607ZM574.818 315.2L574.341 316.384L591.184 323.166L591.661 321.982L592.138 320.798L575.294 314.015L574.818 315.2ZM618.721 314.047L617.803 314.934L630.419 327.993L631.337 327.106L632.255 326.219L619.639 313.16L618.721 314.047ZM662.903 313.356L661.721 313.838L668.564 330.656L669.747 330.175L670.929 329.694L664.086 312.875L662.903 313.356ZM707.058 313.118L705.784 313.205L707.023 331.321L708.297 331.234L709.57 331.147L708.332 313.031L707.058 313.118ZM750.945 313.154L749.685 312.95L746.779 330.874L748.039 331.078L749.3 331.282L752.205 313.358L750.945 313.154ZM360.968 276.38L362.14 276.888L369.355 260.225L368.183 259.717L367.012 259.21L359.797 275.873L360.968 276.38ZM403.212 275.823L404.171 276.667L416.168 263.037L415.21 262.193L414.251 261.35L402.254 274.98L403.212 275.823ZM445.56 274.815L446.132 275.956L462.365 267.819L461.793 266.678L461.221 265.537L444.988 273.673L445.56 274.815ZM488.331 273.416L488.368 274.692L506.518 274.17L506.482 272.894L506.445 271.618L488.295 272.14L488.331 273.416ZM531.762 271.917L531.225 273.075L547.695 280.721L548.232 279.563L548.77 278.405L532.3 270.759L531.762 271.917ZM575.834 270.712L574.835 271.507L586.144 285.713L587.143 284.918L588.142 284.123L576.832 269.917L575.834 270.712ZM620.26 270.078L619.018 270.376L623.257 288.033L624.498 287.735L625.74 287.437L621.501 269.78L620.26 270.078ZM664.65 270.023L663.388 269.835L660.715 287.795L661.978 287.983L663.24 288.171L665.913 270.211L664.65 270.023ZM708.746 270.324L707.599 269.765L699.638 286.084L700.785 286.644L701.933 287.204L709.894 270.884L708.746 270.324ZM752.453 270.688L751.444 269.905L740.309 284.248L741.318 285.031L742.326 285.813L753.461 271.471L752.453 270.688ZM360.156 232.759L361.137 233.576L372.756 219.622L371.774 218.805L370.793 217.988L359.175 231.942L360.156 232.759ZM402.477 231.774L403.081 232.899L419.077 224.306L418.473 223.182L417.869 222.057L401.873 230.65L402.477 231.774ZM445.211 230.358L445.274 231.634L463.41 230.751L463.348 229.476L463.286 228.2L445.149 229.083L445.211 230.358ZM488.638 228.793L488.1 229.951L504.57 237.596L505.108 236.438L505.645 235.28L489.176 227.635L488.638 228.793ZM532.797 227.521L531.773 228.283L542.612 242.851L543.636 242.089L544.661 241.327L533.822 226.759L532.797 227.521ZM577.391 226.904L576.13 227.104L578.978 245.037L580.239 244.837L581.5 244.637L578.652 226.704L577.391 226.904ZM621.968 226.995L620.742 226.639L615.679 244.077L616.905 244.433L618.131 244.789L623.194 227.351L621.968 226.995ZM666.19 227.553L665.177 226.775L654.118 241.176L655.13 241.954L656.143 242.731L667.202 228.33L666.19 227.553ZM709.972 228.223L709.216 227.194L694.583 237.945L695.339 238.974L696.095 240.003L710.728 229.252L709.972 228.223ZM753.398 228.714L752.831 227.571L736.565 235.641L737.132 236.784L737.699 237.928L753.965 229.858L753.398 228.714ZM359.443 188.808L360.108 189.898L375.61 180.444L374.946 179.354L374.281 178.264L358.778 187.718L359.443 188.808ZM402.101 187.428L402.238 188.697L420.292 186.758L420.155 185.488L420.019 184.219L401.965 186.159L402.101 187.428ZM445.445 185.827L444.968 187.011L461.812 193.793L462.288 192.609L462.765 191.425L445.922 184.642L445.445 185.827ZM489.585 184.463L488.586 185.258L499.895 199.464L500.894 198.669L501.893 197.874L490.584 183.668L489.585 184.463ZM534.266 183.779L533.005 183.98L535.853 201.913L537.114 201.713L538.375 201.512L535.527 183.579L534.266 183.779ZM578.989 183.916L577.781 183.504L571.919 200.69L573.128 201.102L574.336 201.514L580.197 184.329L578.989 183.916ZM623.333 184.654L622.407 183.775L609.911 196.949L610.837 197.828L611.763 198.706L624.26 185.532L623.333 184.654ZM667.147 185.585L666.578 184.442L650.325 192.539L650.894 193.681L651.463 194.824L667.716 186.728L667.147 185.585ZM710.542 186.364L710.271 185.117L692.527 188.972L692.798 190.219L693.069 191.467L710.813 187.612L710.542 186.364ZM753.733 186.797L753.628 185.524L735.532 187.026L735.638 188.299L735.743 189.571L753.839 188.069L753.733 186.797ZM359.025 144.61L359.278 145.862L377.074 142.254L376.82 141.003L376.567 139.751L358.771 143.359L359.025 144.61ZM402.212 143.018L401.856 144.244L419.293 149.31L419.649 148.084L420.005 146.858L402.569 141.792L402.212 143.018ZM446.224 141.55L445.306 142.437L457.922 155.496L458.84 154.609L459.758 153.722L447.142 140.663L446.224 141.55ZM490.887 140.707L489.645 141.005L493.883 158.661L495.125 158.363L496.366 158.065L492.128 140.409L490.887 140.707ZM535.717 140.746L534.491 140.389L529.425 157.826L530.651 158.182L531.877 158.539L536.943 141.102L535.717 140.746ZM580.21 141.53L579.284 140.651L566.782 153.82L567.708 154.699L568.634 155.578L581.136 142.409L580.21 141.53ZM624.106 142.641L623.605 141.466L606.9 148.583L607.401 149.758L607.901 150.932L624.606 143.815L624.106 142.641ZM667.485 143.663L667.376 142.391L649.285 143.945L649.394 145.217L649.503 146.489L667.594 144.935L667.485 143.663ZM710.594 144.35L710.748 143.082L692.723 140.893L692.569 142.16L692.415 143.427L710.44 145.617L710.594 144.35ZM753.677 144.623L753.935 143.373L736.154 139.696L735.895 140.946L735.637 142.196L753.418 145.874L753.677 144.623ZM358.991 100.353L358.811 101.617L376.787 104.179L376.967 102.915L377.147 101.651L359.171 99.0892L358.991 100.353ZM402.761 98.8044L401.987 99.8204L416.438 110.815L417.211 109.799L417.984 108.783L403.534 97.7883L402.761 98.8044ZM447.285 97.7353L446.102 98.2163L452.944 115.036L454.127 114.555L455.31 114.074L448.468 97.2542L447.285 97.7353ZM492.154 97.5267L490.891 97.3384L488.213 115.298L489.476 115.486L490.739 115.674L493.417 97.7149L492.154 97.5267ZM536.821 98.1812L535.809 97.4024L524.733 111.791L525.745 112.57L526.756 113.348L537.832 98.9599L536.821 98.1812ZM580.9 99.3446L580.333 98.2004L564.061 106.257L564.627 107.401L565.194 108.545L581.466 100.489L580.9 99.3446ZM624.357 100.548L624.251 99.2756L606.156 100.776L606.261 102.048L606.367 103.321L624.462 101.82L624.357 100.548ZM667.433 101.468L667.679 100.215L649.863 96.7087L649.617 97.9613L649.37 99.214L667.186 102.721L667.433 101.468ZM710.414 101.98L710.857 100.783L693.828 94.4807L693.385 95.678L692.941 96.8753L709.971 103.178L710.414 101.98ZM753.497 102.081L753.978 100.898L737.162 94.0484L736.68 95.2307L736.199 96.413L753.015 103.263L753.497 102.081ZM359.3 56.2287L358.737 57.3745L375.035 65.381L375.598 64.2352L376.16 63.0893L359.863 55.0828L359.3 56.2287ZM403.542 54.9409L402.486 55.658L412.685 70.6809L413.741 69.9638L414.798 69.2467L404.598 54.2238L403.542 54.9409ZM448.322 54.3722L447.048 54.4548L448.223 72.5746L449.497 72.492L450.771 72.4094L449.596 54.2896L448.322 54.3722ZM493.133 54.7066L491.987 54.1439L483.983 70.4423L485.129 71.0051L486.275 71.5679L494.279 55.2694L493.133 54.7066ZM537.484 55.7379L536.732 54.7057L522.051 65.3908L522.802 66.423L523.554 67.4553L538.235 56.7701L537.484 55.7379ZM581.175 57.0182L580.914 55.7684L563.139 59.4773L563.4 60.727L563.66 61.9768L581.436 58.2679L581.175 57.0182ZM624.343 58.1386L624.511 56.8731L606.512 54.4775L606.344 55.743L606.175 57.0085L624.174 59.4042L624.343 58.1386ZM667.275 58.8884L667.731 57.6957L650.768 51.2173L650.313 52.4099L649.857 53.6026L666.82 60.081L667.275 58.8884ZM710.245 59.2295L710.831 58.0952L694.698 49.762L694.113 50.8963L693.527 52.0306L709.659 60.3638L710.245 59.2295ZM753.399 59.1782L753.965 58.0339L737.691 49.9814L737.125 51.1257L736.558 52.27L752.833 60.3225L753.399 59.1782ZM359.81 12.3476L358.957 13.2975L372.468 25.4293L373.321 24.4794L374.174 23.5295L360.663 11.3977L359.81 12.3476ZM404.336 11.4209L403.128 11.8341L409.004 29.0149L410.212 28.6018L411.42 28.1886L405.544 11.0078L404.336 11.4209ZM449.145 11.2972L447.89 11.0643L444.578 28.9175L445.833 29.1504L447.088 29.3833L450.401 11.5301L449.145 11.2972ZM493.755 11.9767L492.76 11.1769L481.385 25.3304L482.38 26.1302L483.375 26.93L494.75 12.7764L493.755 11.9767ZM537.801 13.1433L537.253 11.9902L520.853 19.7849L521.401 20.9379L521.949 22.091L538.349 14.2963L537.801 13.1433ZM581.242 14.3728L581.165 13.0985L563.04 14.1987L563.118 15.473L563.195 16.7473L581.32 15.6471L581.242 14.3728ZM624.282 15.3463L624.577 14.1042L606.911 9.90508L606.616 11.1471L606.321 12.3892L623.986 16.5883L624.282 15.3463ZM667.203 15.9331L667.724 14.7672L651.142 7.36813L650.621 8.534L650.101 9.69988L666.683 17.099L667.203 15.9331ZM710.237 16.1288L710.832 14.9993L694.767 6.53574L694.172 7.66524L693.577 8.79475L709.642 17.2583L710.237 16.1288ZM753.452 15.9411L753.975 14.7765L737.41 7.33861L736.888 8.50326L736.365 9.66792L752.929 17.1058L753.452 15.9411Z" fill="#222222"/>
</g>
<defs>
<clipPath id="clip0_1_3">
<rect width="775" height="421" fill="white"/>
</clipPath>
</defs>
</svg>
