<svg width="775" height="421" viewBox="0 0 775 421" fill="none" xmlns="http://www.w3.org/2000/svg">
<g clip-path="url(#clip0_12_9100)">
<path d="M13.2488 13.6274L24.7503 20.3723" stroke="black" stroke-width="2"/>
<path d="M14.4753 44.1046L23.5252 53.8964" stroke="black" stroke-width="2"/>
<path d="M16.4031 74.8605L21.5975 87.1404" stroke="black" stroke-width="2"/>
<path d="M18.8962 106.334L19.1021 119.666" stroke="black" stroke-width="2"/>
<path d="M21.5518 138.844L16.4459 151.161" stroke="black" stroke-width="2"/>
<path d="M23.8206 172.396L14.181 181.608" stroke="black" stroke-width="2"/>
<path d="M25.2429 206.66L12.7582 211.34" stroke="black" stroke-width="2"/>
<path d="M25.6667 241.108L12.3352 240.888" stroke="#FF4B33" stroke-opacity="0.733333" stroke-width="2"/>
<path d="M25.2715 275.261L12.7297 270.735" stroke="#FF4B33" stroke-opacity="0.733333" stroke-width="2"/>
<path d="M24.4417 308.85L13.5579 301.148" stroke="#FF4B33" stroke-opacity="0.733333" stroke-width="2"/>
<path d="M23.5896 341.836L14.4112 332.164" stroke="#FF4B33" stroke-opacity="0.733333" stroke-width="2"/>
<path d="M23.0364 374.307L14.9637 363.695" stroke="black" stroke-width="2"/>
<path d="M22.9744 406.352L15.0239 395.649" stroke="black" stroke-width="2"/>
<path d="M46.325 12.2494L55.6759 21.754" stroke="black" stroke-width="2"/>
<path d="M48.199 42.9523L53.8008 55.0517" stroke="black" stroke-width="2"/>
<path d="M50.699 74.3392L51.3022 87.6589" stroke="black" stroke-width="2"/>
<path d="M53.4358 106.796L48.5647 119.208" stroke="black" stroke-width="2"/>
<path d="M55.8206 140.396L46.181 149.608" stroke="black" stroke-width="2"/>
<path d="M57.304 174.832L44.6954 179.168" stroke="black" stroke-width="2"/>
<path d="M57.6465 209.532L44.3554 208.471" stroke="black" stroke-width="2"/>
<path d="M56.9958 243.915L45.0039 238.087" stroke="#FF4B33" stroke-opacity="0.733333" stroke-width="2"/>
<path d="M55.7815 277.645L46.2174 268.355" stroke="#FF4B33" stroke-opacity="0.733333" stroke-width="2"/>
<path d="M54.4834 310.682L47.5161 299.313" stroke="#FF4B33" stroke-opacity="0.733333" stroke-width="2"/>
<path d="M53.4709 343.191L48.5267 330.808" stroke="#FF4B33" stroke-opacity="0.733333" stroke-width="2"/>
<path d="M52.9753 375.367L49.0255 362.632" stroke="black" stroke-width="2"/>
<path d="M53.1055 407.328L48.8964 394.676" stroke="black" stroke-width="2"/>
<path d="M79.8779 11.11L86.1228 22.8905" stroke="black" stroke-width="2"/>
<path d="M82.3115 42.3671L83.6876 55.6292" stroke="black" stroke-width="2"/>
<path d="M85.0842 74.6699L80.9152 87.3347" stroke="black" stroke-width="2"/>
<path d="M87.6038 108.18L78.3984 117.825" stroke="black" stroke-width="2"/>
<path d="M89.2429 142.66L76.7582 147.34" stroke="black" stroke-width="2"/>
<path d="M89.6443 177.532L76.3533 176.471" stroke="black" stroke-width="2"/>
<path d="M88.8875 212.127L77.1138 205.869" stroke="black" stroke-width="2"/>
<path d="M87.3962 246.01L78.6033 235.987" stroke="#FF4B33" stroke-opacity="0.733333" stroke-width="2"/>
<path d="M85.7197 279.087L80.2803 266.913" stroke="#FF4B33" stroke-opacity="0.733333" stroke-width="2"/>
<path d="M84.2979 311.54L81.7039 298.461" stroke="#FF4B33" stroke-opacity="0.733333" stroke-width="2"/>
<path d="M83.3816 343.654L82.6209 330.343" stroke="#FF4B33" stroke-opacity="0.733333" stroke-width="2"/>
<path d="M83.0828 375.664L82.9196 362.332" stroke="black" stroke-width="2"/>
<path d="M83.4514 407.652L82.549 394.349" stroke="black" stroke-width="2"/>
<path d="M113.761 10.4518L116.239 23.5528" stroke="black" stroke-width="2"/>
<path d="M116.506 42.5044L113.494 55.4932" stroke="black" stroke-width="2"/>
<path d="M119.151 75.7858L110.847 86.2177" stroke="black" stroke-width="2"/>
<path d="M121.033 110.161L108.968 115.837" stroke="black" stroke-width="2"/>
<path d="M121.665 145.113L108.334 144.892" stroke="black" stroke-width="2"/>
<path d="M120.996 179.915L109.006 174.083" stroke="black" stroke-width="2"/>
<path d="M119.394 214.013L110.606 203.986" stroke="black" stroke-width="2"/>
<path d="M117.443 247.2L112.555 234.795" stroke="#FF4B33" stroke-opacity="0.733333" stroke-width="2"/>
<path d="M115.666 279.634L114.332 266.367" stroke="#FF4B33" stroke-opacity="0.733333" stroke-width="2"/>
<path d="M114.376 311.637L115.624 298.362" stroke="#FF4B33" stroke-opacity="0.733333" stroke-width="2"/>
<path d="M113.694 343.537L116.309 330.463" stroke="#FF4B33" stroke-opacity="0.733333" stroke-width="2"/>
<path d="M113.643 375.529L116.356 362.475" stroke="black" stroke-width="2"/>
<path d="M114.252 407.626L115.749 394.377" stroke="black" stroke-width="2"/>
<path d="M147.72 10.3717L146.278 23.6269" stroke="black" stroke-width="2"/>
<path d="M150.448 43.2925L143.552 54.7046" stroke="black" stroke-width="2"/>
<path d="M152.612 77.4003L141.387 84.5959" stroke="black" stroke-width="2"/>
<path d="M153.63 112.29L140.372 113.705" stroke="black" stroke-width="2"/>
<path d="M153.27 147.265L140.731 142.733" stroke="black" stroke-width="2"/>
<path d="M151.777 181.651L142.226 172.348" stroke="black" stroke-width="2"/>
<path d="M149.705 215.091L144.294 202.905" stroke="black" stroke-width="2"/>
<path d="M147.651 247.634L146.349 234.364" stroke="#FF4B33" stroke-opacity="0.733333" stroke-width="2"/>
<path d="M146.016 279.596L147.982 266.409" stroke="#FF4B33" stroke-opacity="0.733333" stroke-width="2"/>
<path d="M144.978 311.354L149.021 298.648" stroke="#FF4B33" stroke-opacity="0.733333" stroke-width="2"/>
<path d="M144.559 343.202L149.439 330.794" stroke="#FF4B33" stroke-opacity="0.733333" stroke-width="2"/>
<path d="M144.752 375.275L149.248 362.723" stroke="black" stroke-width="2"/>
<path d="M145.581 407.515L148.418 394.487" stroke="black" stroke-width="2"/>
<path d="M181.505 10.8224L176.497 23.1794" stroke="black" stroke-width="2"/>
<path d="M183.917 44.4987L174.081 53.5008" stroke="black" stroke-width="2"/>
<path d="M185.405 79.1442L172.598 82.8529" stroke="black" stroke-width="2"/>
<path d="M185.564 114.171L172.438 111.828" stroke="black" stroke-width="2"/>
<path d="M184.434 148.864L173.566 141.139" stroke="black" stroke-width="2"/>
<path d="M182.461 182.698L175.541 171.3" stroke="black" stroke-width="2"/>
<path d="M180.252 215.547L177.749 202.451" stroke="black" stroke-width="2"/>
<path d="M178.319 247.634L179.683 234.37" stroke="#FF4B33" stroke-opacity="0.733333" stroke-width="2"/>
<path d="M176.932 279.338L181.07 266.663" stroke="#FF4B33" stroke-opacity="0.733333" stroke-width="2"/>
<path d="M176.16 311.032L181.842 298.97" stroke="#FF4B33" stroke-opacity="0.733333" stroke-width="2"/>
<path d="M175.981 342.944L182.019 331.056" stroke="#FF4B33" stroke-opacity="0.733333" stroke-width="2"/>
<path d="M176.394 375.135L181.607 362.863" stroke="black" stroke-width="2"/>
<path d="M177.436 407.483L180.564 394.522" stroke="black" stroke-width="2"/>
<path d="M214.947 11.6288L207.051 22.3726" stroke="black" stroke-width="2"/>
<path d="M216.869 45.8403L205.131 52.1639" stroke="black" stroke-width="2"/>
<path d="M217.659 80.7076L204.338 81.2877" stroke="black" stroke-width="2"/>
<path d="M217.141 115.597L204.86 110.406" stroke="black" stroke-width="2"/>
<path d="M215.545 149.878L206.455 140.124" stroke="black" stroke-width="2"/>
<path d="M213.4 183.22L208.6 170.78" stroke="black" stroke-width="2"/>
<path d="M211.27 215.661L210.728 202.338" stroke="black" stroke-width="2"/>
<path d="M209.553 247.507L212.446 234.491" stroke="#FF4B33" stroke-opacity="0.733333" stroke-width="2"/>
<path d="M208.418 279.148L213.581 266.856" stroke="#FF4B33" stroke-opacity="0.733333" stroke-width="2"/>
<path d="M207.88 310.892L214.121 299.109" stroke="#FF4B33" stroke-opacity="0.733333" stroke-width="2"/>
<path d="M207.914 342.911L214.088 331.093" stroke="#FF4B33" stroke-opacity="0.733333" stroke-width="2"/>
<path d="M208.534 375.196L213.466 362.808" stroke="black" stroke-width="2"/>
<path d="M209.791 407.559L212.207 394.446" stroke="black" stroke-width="2"/>
<path d="M248.004 12.598L237.995 21.4069" stroke="black" stroke-width="2"/>
<path d="M249.387 47.0854L236.615 50.9115" stroke="black" stroke-width="2"/>
<path d="M249.6 81.9374L236.399 80.0666" stroke="black" stroke-width="2"/>
<path d="M248.648 116.538L237.35 109.458" stroke="black" stroke-width="2"/>
<path d="M246.869 150.432L239.131 139.573" stroke="black" stroke-width="2"/>
<path d="M244.774 183.429L241.227 170.576" stroke="black" stroke-width="2"/>
<path d="M242.836 215.666L243.163 202.337" stroke="black" stroke-width="2"/>
<path d="M241.357 247.463L244.645 234.541" stroke="#FF4B33" stroke-opacity="0.733333" stroke-width="2"/>
<path d="M240.444 279.156L245.557 266.842" stroke="#FF4B33" stroke-opacity="0.733333" stroke-width="2"/>
<path d="M240.104 311.006L245.895 298.997" stroke="#FF4B33" stroke-opacity="0.733333" stroke-width="2"/>
<path d="M240.333 343.108L245.667 330.888" stroke="#FF4B33" stroke-opacity="0.733333" stroke-width="2"/>
<path d="M241.16 375.407L244.839 362.591" stroke="black" stroke-width="2"/>
<path d="M242.624 407.658L243.376 394.346" stroke="black" stroke-width="2"/>
<path d="M280.712 13.5653L269.287 20.4391" stroke="black" stroke-width="2"/>
<path d="M281.609 48.1198L268.393 49.8832" stroke="black" stroke-width="2"/>
<path d="M281.423 82.7866L268.578 79.2121" stroke="black" stroke-width="2"/>
<path d="M280.275 117.075L269.725 108.923" stroke="black" stroke-width="2"/>
<path d="M278.524 150.66L271.475 139.343" stroke="black" stroke-width="2"/>
<path d="M276.617 183.465L273.383 170.53" stroke="black" stroke-width="2"/>
<path d="M274.929 215.665L275.071 202.333" stroke="black" stroke-width="2"/>
<path d="M273.686 247.536L276.312 234.464" stroke="#FF4B33" stroke-opacity="0.733333" stroke-width="2"/>
<path d="M272.979 279.355L277.02 266.648" stroke="#FF4B33" stroke-opacity="0.733333" stroke-width="2"/>
<path d="M272.827 311.304L277.174 298.699" stroke="#FF4B33" stroke-opacity="0.733333" stroke-width="2"/>
<path d="M273.245 343.429L276.757 330.567" stroke="#FF4B33" stroke-opacity="0.733333" stroke-width="2"/>
<path d="M274.263 375.626L275.736 362.374" stroke="black" stroke-width="2"/>
<path d="M275.876 407.607L274.123 394.39" stroke="black" stroke-width="2"/>
<path d="M313.152 14.4305L300.848 19.5679" stroke="black" stroke-width="2"/>
<path d="M313.666 48.8934L300.334 49.1102" stroke="black" stroke-width="2"/>
<path d="M313.256 83.3029L300.742 78.6986" stroke="black" stroke-width="2"/>
<path d="M312.1 117.296L301.901 108.708" stroke="black" stroke-width="2"/>
<path d="M310.523 150.657L303.476 139.338" stroke="black" stroke-width="2"/>
<path d="M308.887 183.393L305.111 170.605" stroke="black" stroke-width="2"/>
<path d="M307.484 215.647L306.514 202.349" stroke="black" stroke-width="2"/>
<path d="M306.493 247.649L307.506 234.354" stroke="#FF4B33" stroke-opacity="0.733333" stroke-width="2"/>
<path d="M305.997 279.59L308.002 266.408" stroke="#FF4B33" stroke-opacity="0.733333" stroke-width="2"/>
<path d="M306.033 311.595L307.966 298.403" stroke="#FF4B33" stroke-opacity="0.733333" stroke-width="2"/>
<path d="M306.628 343.655L307.374 330.343" stroke="#FF4B33" stroke-opacity="0.733333" stroke-width="2"/>
<path d="M307.782 375.622L306.216 362.381" stroke="black" stroke-width="2"/>
<path d="M309.427 407.209L304.575 394.789" stroke="black" stroke-width="2"/>
<path d="M345.407 15.1591L332.592 18.8422" stroke="black" stroke-width="2"/>
<path d="M345.653 49.4209L332.346 48.5777" stroke="black" stroke-width="2"/>
<path d="M345.162 83.5406L332.836 78.4572" stroke="black" stroke-width="2"/>
<path d="M344.123 117.263L333.875 108.733" stroke="black" stroke-width="2"/>
<path d="M342.809 150.469L335.191 139.527" stroke="black" stroke-width="2"/>
<path d="M341.497 183.182L336.504 170.819" stroke="black" stroke-width="2"/>
<path d="M340.407 215.519L337.591 202.486" stroke="black" stroke-width="2"/>
<path d="M339.688 247.632L338.311 234.37" stroke="#FF4B33" stroke-opacity="0.733333" stroke-width="2"/>
<path d="M339.417 279.651L338.582 266.344" stroke="#FF4B33" stroke-opacity="0.733333" stroke-width="2"/>
<path d="M339.64 311.636L338.363 298.364" stroke="#FF4B33" stroke-opacity="0.733333" stroke-width="2"/>
<path d="M340.364 343.526L337.639 330.474" stroke="#FF4B33" stroke-opacity="0.733333" stroke-width="2"/>
<path d="M341.551 375.162L336.45 362.843" stroke="black" stroke-width="2"/>
<path d="M343.05 406.294L334.951 395.702" stroke="black" stroke-width="2"/>
<path d="M377.548 15.7435L364.453 18.2563" stroke="black" stroke-width="2"/>
<path d="M377.625 49.7495L364.376 48.2496" stroke="black" stroke-width="2"/>
<path d="M377.151 83.5712L364.848 78.4322" stroke="black" stroke-width="2"/>
<path d="M376.303 117.039L365.699 108.956" stroke="black" stroke-width="2"/>
<path d="M375.291 150.102L366.711 139.896" stroke="black" stroke-width="2"/>
<path d="M374.321 182.779L367.678 171.219" stroke="black" stroke-width="2"/>
<path d="M373.563 215.157L368.439 202.847" stroke="black" stroke-width="2"/>
<path d="M373.123 247.322L368.876 234.683" stroke="#FF4B33" stroke-opacity="0.733333" stroke-width="2"/>
<path d="M373.074 279.333L368.925 266.662" stroke="#FF4B33" stroke-opacity="0.733333" stroke-width="2"/>
<path d="M373.443 311.203L368.557 298.797" stroke="#FF4B33" stroke-opacity="0.733333" stroke-width="2"/>
<path d="M374.212 342.844L367.79 331.159" stroke="#FF4B33" stroke-opacity="0.733333" stroke-width="2"/>
<path d="M375.285 374.108L366.715 363.893" stroke="black" stroke-width="2"/>
<path d="M376.456 404.828L365.544 397.167" stroke="black" stroke-width="2"/>
<path d="M409.621 16.2079L396.381 17.7874" stroke="black" stroke-width="2"/>
<path d="M409.602 49.9293L396.398 48.0732" stroke="black" stroke-width="2"/>
<path d="M409.203 83.4424L396.798 78.5542" stroke="black" stroke-width="2"/>
<path d="M408.569 116.665L397.431 109.334" stroke="black" stroke-width="2"/>
<path d="M407.86 149.561L398.139 140.436" stroke="black" stroke-width="2"/>
<path d="M407.226 182.156L398.777 171.842" stroke="black" stroke-width="2"/>
<path d="M406.777 214.494L399.223 203.507" stroke="black" stroke-width="2"/>
<path d="M406.597 246.613L399.403 235.387" stroke="#FF4B33" stroke-opacity="0.733333" stroke-width="2"/>
<path d="M406.726 278.525L399.272 267.47" stroke="#FF4B33" stroke-opacity="0.733333" stroke-width="2"/>
<path d="M407.168 310.204L398.835 299.795" stroke="#FF4B33" stroke-opacity="0.733333" stroke-width="2"/>
<path d="M407.859 341.562L398.14 332.435" stroke="#FF4B33" stroke-opacity="0.733333" stroke-width="2"/>
<path d="M408.674 372.503L397.328 365.5" stroke="black" stroke-width="2"/>
<path d="M409.378 402.947L396.624 399.058" stroke="black" stroke-width="2"/>
<path d="M441.655 16.5944L428.347 17.4084" stroke="black" stroke-width="2"/>
<path d="M441.59 50.007L428.41 47.9906" stroke="black" stroke-width="2"/>
<path d="M441.285 83.2217L428.713 78.7814" stroke="black" stroke-width="2"/>
<path d="M440.859 116.183L429.142 109.821" stroke="black" stroke-width="2"/>
<path d="M440.421 148.88L429.577 141.121" stroke="black" stroke-width="2"/>
<path d="M440.072 181.327L429.927 172.674" stroke="black" stroke-width="2"/>
<path d="M439.884 213.541L430.118 204.463" stroke="black" stroke-width="2"/>
<path d="M439.896 245.523L430.102 236.476" stroke="#FF4B33" stroke-opacity="0.733333" stroke-width="2"/>
<path d="M440.125 277.262L429.875 268.735" stroke="#FF4B33" stroke-opacity="0.733333" stroke-width="2"/>
<path d="M440.534 308.717L429.467 301.282" stroke="#FF4B33" stroke-opacity="0.733333" stroke-width="2"/>
<path d="M441.038 339.828L428.965 334.17" stroke="#FF4B33" stroke-opacity="0.733333" stroke-width="2"/>
<path d="M441.484 370.549L428.517 367.447" stroke="black" stroke-width="2"/>
<path d="M441.666 400.894L428.334 401.103" stroke="black" stroke-width="2"/>
<path d="M473.666 16.9323L460.333 17.0725" stroke="black" stroke-width="2"/>
<path d="M473.586 50.0424L460.416 47.9629" stroke="black" stroke-width="2"/>
<path d="M473.374 82.9491L460.624 79.0494" stroke="black" stroke-width="2"/>
<path d="M473.121 115.638L460.878 110.359" stroke="black" stroke-width="2"/>
<path d="M472.898 148.104L461.1 141.892" stroke="black" stroke-width="2"/>
<path d="M472.763 180.352L461.236 173.65" stroke="black" stroke-width="2"/>
<path d="M472.748 212.373L461.249 205.623" stroke="black" stroke-width="2"/>
<path d="M472.868 244.164L461.134 237.831" stroke="#FF4B33" stroke-opacity="0.733333" stroke-width="2"/>
<path d="M473.093 275.705L460.905 270.299" stroke="#FF4B33" stroke-opacity="0.733333" stroke-width="2"/>
<path d="M473.374 306.956L460.627 303.048" stroke="#FF4B33" stroke-opacity="0.733333" stroke-width="2"/>
<path d="M473.606 337.898L460.395 336.101" stroke="#FF4B33" stroke-opacity="0.733333" stroke-width="2"/>
<path d="M473.651 368.544L460.349 369.454" stroke="black" stroke-width="2"/>
<path d="M473.349 398.963L460.653 403.034" stroke="black" stroke-width="2"/>
<path d="M505.663 17.2603L492.339 16.7443" stroke="black" stroke-width="2"/>
<path d="M505.581 50.0659L492.42 47.9306" stroke="black" stroke-width="2"/>
<path d="M505.452 82.6832L492.55 79.3182" stroke="black" stroke-width="2"/>
<path d="M505.328 115.095L492.672 110.9" stroke="black" stroke-width="2"/>
<path d="M505.253 147.313L492.747 142.69" stroke="black" stroke-width="2"/>
<path d="M505.249 179.323L492.752 174.673" stroke="black" stroke-width="2"/>
<path d="M505.318 211.128L492.683 206.869" stroke="black" stroke-width="2"/>
<path d="M505.443 242.712L492.557 239.286" stroke="#FF4B33" stroke-opacity="0.733333" stroke-width="2"/>
<path d="M505.582 274.061L492.419 271.937" stroke="#FF4B33" stroke-opacity="0.733333" stroke-width="2"/>
<path d="M505.664 305.17L492.335 304.832" stroke="#FF4B33" stroke-opacity="0.733333" stroke-width="2"/>
<path d="M505.599 336.046L492.403 337.953" stroke="#FF4B33" stroke-opacity="0.733333" stroke-width="2"/>
<path d="M505.274 366.743L492.728 371.256" stroke="black" stroke-width="2"/>
<path d="M504.587 397.36L493.415 404.638" stroke="black" stroke-width="2"/>
<path d="M537.64 17.6084L524.363 16.3874" stroke="black" stroke-width="2"/>
<path d="M537.569 50.1324L524.429 47.8697" stroke="black" stroke-width="2"/>
<path d="M537.504 82.4615L524.496 79.5356" stroke="black" stroke-width="2"/>
<path d="M537.469 114.606L524.53 111.389" stroke="black" stroke-width="2"/>
<path d="M537.478 146.57L524.52 143.43" stroke="black" stroke-width="2"/>
<path d="M537.528 178.346L524.47 175.652" stroke="black" stroke-width="2"/>
<path d="M537.601 209.933L524.4 208.063" stroke="black" stroke-width="2"/>
<path d="M537.657 241.332L524.341 240.67" stroke="#FF4B33" stroke-opacity="0.733333" stroke-width="2"/>
<path d="M537.65 272.54L524.349 273.464" stroke="#FF4B33" stroke-opacity="0.733333" stroke-width="2"/>
<path d="M537.512 303.57L524.488 306.427" stroke="#FF4B33" stroke-opacity="0.733333" stroke-width="2"/>
<path d="M537.168 334.468L524.832 339.528" stroke="#FF4B33" stroke-opacity="0.733333" stroke-width="2"/>
<path d="M536.549 365.303L525.453 372.697" stroke="black" stroke-width="2"/>
<path d="M535.599 396.175L526.399 405.827" stroke="black" stroke-width="2"/>
<path d="M569.59 18.0151L556.412 15.9844" stroke="black" stroke-width="2"/>
<path d="M569.547 50.2653L556.455 47.737" stroke="black" stroke-width="2"/>
<path d="M569.533 82.3296L556.468 79.6698" stroke="black" stroke-width="2"/>
<path d="M569.554 114.223L556.446 111.782" stroke="black" stroke-width="2"/>
<path d="M569.6 145.94L556.4 144.056" stroke="black" stroke-width="2"/>
<path d="M569.648 177.498L556.352 176.5" stroke="black" stroke-width="2"/>
<path d="M569.665 208.898L556.333 209.107" stroke="black" stroke-width="2"/>
<path d="M569.612 240.145L556.389 241.859" stroke="#FF4B33" stroke-opacity="0.733333" stroke-width="2"/>
<path d="M569.437 271.261L556.565 274.741" stroke="#FF4B33" stroke-opacity="0.733333" stroke-width="2"/>
<path d="M569.088 302.281L556.914 307.719" stroke="#FF4B33" stroke-opacity="0.733333" stroke-width="2"/>
<path d="M568.519 333.258L557.484 340.742" stroke="#FF4B33" stroke-opacity="0.733333" stroke-width="2"/>
<path d="M567.691 364.265L558.31 373.739" stroke="black" stroke-width="2"/>
<path d="M566.594 395.384L559.404 406.613" stroke="black" stroke-width="2"/>
<path d="M601.496 18.4928L588.502 15.5057" stroke="black" stroke-width="2"/>
<path d="M601.497 50.494L588.502 47.5099" stroke="black" stroke-width="2"/>
<path d="M601.535 82.3126L588.463 79.6843" stroke="black" stroke-width="2"/>
<path d="M601.596 113.972L588.405 112.029" stroke="black" stroke-width="2"/>
<path d="M601.649 145.474L588.35 144.524" stroke="black" stroke-width="2"/>
<path d="M601.666 176.836L588.337 177.16" stroke="black" stroke-width="2"/>
<path d="M601.602 208.078L588.398 209.925" stroke="black" stroke-width="2"/>
<path d="M601.422 239.216L588.576 242.788" stroke="#FF4B33" stroke-opacity="0.733333" stroke-width="2"/>
<path d="M601.088 270.284L588.911 275.716" stroke="#FF4B33" stroke-opacity="0.733333" stroke-width="2"/>
<path d="M600.565 301.332L589.433 308.671" stroke="#FF4B33" stroke-opacity="0.733333" stroke-width="2"/>
<path d="M599.832 332.41L590.167 341.595" stroke="#FF4B33" stroke-opacity="0.733333" stroke-width="2"/>
<path d="M598.88 363.578L591.119 374.419" stroke="black" stroke-width="2"/>
<path d="M597.721 394.913L592.276 407.083" stroke="black" stroke-width="2"/>
<path d="M633.341 19.0571L620.658 14.9429" stroke="black" stroke-width="2"/>
<path d="M633.409 50.8312L620.59 47.1639" stroke="black" stroke-width="2"/>
<path d="M633.51 82.4408L620.49 79.5629" stroke="black" stroke-width="2"/>
<path d="M633.606 113.888L620.392 112.111" stroke="black" stroke-width="2"/>
<path d="M633.664 145.201L620.337 144.801" stroke="black" stroke-width="2"/>
<path d="M633.638 176.396L620.36 177.603" stroke="black" stroke-width="2"/>
<path d="M633.497 207.505L620.503 210.494" stroke="black" stroke-width="2"/>
<path d="M633.206 238.565L620.796 243.439" stroke="#FF4B33" stroke-opacity="0.733333" stroke-width="2"/>
<path d="M632.74 269.612L621.258 276.39" stroke="#FF4B33" stroke-opacity="0.733333" stroke-width="2"/>
<path d="M632.092 300.695L621.91 309.304" stroke="#FF4B33" stroke-opacity="0.733333" stroke-width="2"/>
<path d="M631.253 331.868L622.748 342.136" stroke="#FF4B33" stroke-opacity="0.733333" stroke-width="2"/>
<path d="M630.239 363.173L623.762 374.828" stroke="black" stroke-width="2"/>
<path d="M629.075 394.663L624.927 407.335" stroke="black" stroke-width="2"/>
<path d="M665.093 19.7084L652.908 14.2945" stroke="black" stroke-width="2"/>
<path d="M665.258 51.3002L652.741 46.7052" stroke="black" stroke-width="2"/>
<path d="M665.44 82.7181L652.558 79.2809" stroke="black" stroke-width="2"/>
<path d="M665.592 113.99L652.406 112.012" stroke="black" stroke-width="2"/>
<path d="M665.664 145.137L652.334 144.867" stroke="black" stroke-width="2"/>
<path d="M665.617 176.187L652.383 177.809" stroke="black" stroke-width="2"/>
<path d="M665.417 207.191L652.584 210.809" stroke="black" stroke-width="2"/>
<path d="M665.043 238.183L652.957 243.814" stroke="#FF4B33" stroke-opacity="0.733333" stroke-width="2"/>
<path d="M664.49 269.218L653.512 276.786" stroke="#FF4B33" stroke-opacity="0.733333" stroke-width="2"/>
<path d="M663.759 300.328L654.244 309.668" stroke="#FF4B33" stroke-opacity="0.733333" stroke-width="2"/>
<path d="M662.865 331.565L655.136 342.43" stroke="#FF4B33" stroke-opacity="0.733333" stroke-width="2"/>
<path d="M661.834 362.967L656.168 375.037" stroke="black" stroke-width="2"/>
<path d="M660.694 394.552L657.304 407.447" stroke="black" stroke-width="2"/>
<path d="M696.717 20.4313L685.283 13.5721" stroke="black" stroke-width="2"/>
<path d="M697.013 51.8817L684.989 46.1214" stroke="black" stroke-width="2"/>
<path d="M697.307 83.1583L684.691 78.8437" stroke="black" stroke-width="2"/>
<path d="M697.543 114.284L684.459 111.718" stroke="black" stroke-width="2"/>
<path d="M697.659 145.291L684.339 144.709" stroke="black" stroke-width="2"/>
<path d="M697.622 176.222L684.379 177.774" stroke="black" stroke-width="2"/>
<path d="M697.4 207.132L684.601 210.869" stroke="black" stroke-width="2"/>
<path d="M696.985 238.065L685.013 243.934" stroke="#FF4B33" stroke-opacity="0.733333" stroke-width="2"/>
<path d="M696.387 269.075L685.613 276.929" stroke="#FF4B33" stroke-opacity="0.733333" stroke-width="2"/>
<path d="M695.62 300.195L686.379 309.806" stroke="#FF4B33" stroke-opacity="0.733333" stroke-width="2"/>
<path d="M694.714 331.464L687.287 342.537" stroke="#FF4B33" stroke-opacity="0.733333" stroke-width="2"/>
<path d="M693.696 362.902L688.303 375.095" stroke="black" stroke-width="2"/>
<path d="M692.604 394.527L689.396 407.469" stroke="black" stroke-width="2"/>
<path d="M728.183 21.1968L717.82 12.8074" stroke="black" stroke-width="2"/>
<path d="M728.635 52.5615L717.365 45.4367" stroke="black" stroke-width="2"/>
<path d="M729.074 83.7479L716.925 78.2563" stroke="black" stroke-width="2"/>
<path d="M729.427 114.769L716.572 111.233" stroke="black" stroke-width="2"/>
<path d="M729.632 145.669L716.366 144.329" stroke="black" stroke-width="2"/>
<path d="M729.647 176.505L716.351 177.497" stroke="black" stroke-width="2"/>
<path d="M729.455 207.326L716.548 210.67" stroke="black" stroke-width="2"/>
<path d="M729.049 238.197L716.949 243.798" stroke="#FF4B33" stroke-opacity="0.733333" stroke-width="2"/>
<path d="M728.454 269.168L717.544 276.833" stroke="#FF4B33" stroke-opacity="0.733333" stroke-width="2"/>
<path d="M727.698 300.268L718.302 309.728" stroke="#FF4B33" stroke-opacity="0.733333" stroke-width="2"/>
<path d="M726.813 331.533L719.185 342.468" stroke="#FF4B33" stroke-opacity="0.733333" stroke-width="2"/>
<path d="M725.838 362.966L720.161 375.031" stroke="black" stroke-width="2"/>
<path d="M724.805 394.58L721.195 407.415" stroke="black" stroke-width="2"/>
<path d="M759.46 21.9567L750.538 12.0483" stroke="black" stroke-width="2"/>
<path d="M760.09 53.3038L749.911 44.6915" stroke="black" stroke-width="2"/>
<path d="M760.7 84.4586L749.3 77.5439" stroke="black" stroke-width="2"/>
<path d="M761.209 115.428L748.792 110.57" stroke="black" stroke-width="2"/>
<path d="M761.545 146.269L748.454 143.736" stroke="black" stroke-width="2"/>
<path d="M761.667 177.028L748.334 176.971" stroke="black" stroke-width="2"/>
<path d="M761.553 207.78L748.444 210.215" stroke="black" stroke-width="2"/>
<path d="M761.215 238.592L748.782 243.408" stroke="#FF4B33" stroke-opacity="0.733333" stroke-width="2"/>
<path d="M760.678 269.507L749.321 276.493" stroke="#FF4B33" stroke-opacity="0.733333" stroke-width="2"/>
<path d="M759.978 300.566L750.024 309.437" stroke="#FF4B33" stroke-opacity="0.733333" stroke-width="2"/>
<path d="M759.154 331.785L750.847 342.214" stroke="#FF4B33" stroke-opacity="0.733333" stroke-width="2"/>
<path d="M758.246 363.177L751.752 374.822" stroke="black" stroke-width="2"/>
<path d="M757.291 394.739L752.711 407.261" stroke="black" stroke-width="2"/>
</g>
<defs>
<clipPath id="clip0_12_9100">
<rect width="775" height="421" rx="20" fill="white"/>
</clipPath>
</defs>
</svg>
