<svg width="775" height="421" viewBox="0 0 775 421" fill="none" xmlns="http://www.w3.org/2000/svg">
<g clip-path="url(#clip0_28_13399)">
<g clip-path="url(#clip1_28_13399)">
<path d="M32.7099 10.7346H27.7349V15.7096H32.7099V10.7346Z" fill="black"/>
<path d="M76.932 10.7346H71.957V15.7096H76.932V10.7346Z" fill="#C0343B"/>
<path d="M121.154 10.7346H116.179V15.7096H121.154V10.7346Z" fill="black"/>
<path d="M165.376 10.7346H160.401V15.7096H165.376V10.7346Z" fill="#C0343B"/>
<path d="M209.599 10.7346H204.624V15.7096H209.599V10.7346Z" fill="black"/>
<path d="M253.821 10.7346H248.846V15.7096H253.821V10.7346Z" fill="#C0343B"/>
<path d="M298.043 10.7346H293.068V15.7096H298.043V10.7346Z" fill="black"/>
<path d="M342.266 10.7346H337.291V15.7096H342.266V10.7346Z" fill="#C0343B"/>
<path d="M386.488 10.7346H381.513V15.7096H386.488V10.7346Z" fill="black"/>
<path d="M430.71 10.7346H425.735V15.7096H430.71V10.7346Z" fill="#C0343B"/>
<path d="M474.932 10.7346H469.957V15.7096H474.932V10.7346Z" fill="black"/>
<path d="M519.154 10.7346H514.179V15.7096H519.154V10.7346Z" fill="#C0343B"/>
<path d="M563.376 10.7346H558.401V15.7096H563.376V10.7346Z" fill="black"/>
<path d="M607.599 10.7346H602.624V15.7096H607.599V10.7346Z" fill="#C0343B"/>
<path d="M651.821 10.7346H646.846V15.7096H651.821V10.7346Z" fill="black"/>
<path d="M696.043 10.7346H691.068V15.7096H696.043V10.7346Z" fill="#C0343B"/>
<path d="M740.266 10.7346H735.291V15.7096H740.266V10.7346Z" fill="black"/>
<path d="M32.7099 54.957H27.7349V59.932H32.7099V54.957Z" fill="#C0343B"/>
<path d="M76.932 54.957H71.957V59.932H76.932V54.957Z" fill="black"/>
<path d="M121.154 54.957H116.179V59.932H121.154V54.957Z" fill="#C0343B"/>
<path d="M165.376 54.957H160.401V59.932H165.376V54.957Z" fill="black"/>
<path d="M209.599 54.957H204.624V59.932H209.599V54.957Z" fill="#C0343B"/>
<path d="M253.821 54.957H248.846V59.932H253.821V54.957Z" fill="black"/>
<path d="M298.043 54.957H293.068V59.932H298.043V54.957Z" fill="#C0343B"/>
<path d="M342.266 54.957H337.291V59.932H342.266V54.957Z" fill="black"/>
<path d="M386.488 54.957H381.513V59.932H386.488V54.957Z" fill="#C0343B"/>
<path d="M430.71 54.957H425.735V59.932H430.71V54.957Z" fill="black"/>
<path d="M474.932 54.957H469.957V59.932H474.932V54.957Z" fill="#C0343B"/>
<path d="M519.154 54.957H514.179V59.932H519.154V54.957Z" fill="black"/>
<path d="M563.376 54.957H558.401V59.932H563.376V54.957Z" fill="#C0343B"/>
<path d="M607.599 54.957H602.624V59.932H607.599V54.957Z" fill="black"/>
<path d="M651.821 54.957H646.846V59.932H651.821V54.957Z" fill="#C0343B"/>
<path d="M696.043 54.957H691.068V59.932H696.043V54.957Z" fill="black"/>
<path d="M740.266 54.957H735.291V59.932H740.266V54.957Z" fill="#C0343B"/>
<path d="M32.7099 99.1791H27.7349V104.154H32.7099V99.1791Z" fill="black"/>
<path d="M76.932 99.1791H71.957V104.154H76.932V99.1791Z" fill="#C0343B"/>
<path d="M121.154 99.1791H116.179V104.154H121.154V99.1791Z" fill="black"/>
<path d="M165.376 99.1791H160.401V104.154H165.376V99.1791Z" fill="#C0343B"/>
<path d="M209.599 99.1791H204.624V104.154H209.599V99.1791Z" fill="black"/>
<path d="M253.821 99.1791H248.846V104.154H253.821V99.1791Z" fill="#C0343B"/>
<path d="M298.043 99.1791H293.068V104.154H298.043V99.1791Z" fill="black"/>
<path d="M342.266 99.1791H337.291V104.154H342.266V99.1791Z" fill="#C0343B"/>
<path d="M386.488 99.1791H381.513V104.154H386.488V99.1791Z" fill="black"/>
<path d="M430.71 99.1791H425.735V104.154H430.71V99.1791Z" fill="#C0343B"/>
<path d="M474.932 99.1791H469.957V104.154H474.932V99.1791Z" fill="black"/>
<path d="M519.154 99.1791H514.179V104.154H519.154V99.1791Z" fill="#C0343B"/>
<path d="M563.376 99.1791H558.401V104.154H563.376V99.1791Z" fill="black"/>
<path d="M607.599 99.1791H602.624V104.154H607.599V99.1791Z" fill="#C0343B"/>
<path d="M651.821 99.1791H646.846V104.154H651.821V99.1791Z" fill="black"/>
<path d="M696.043 99.1791H691.068V104.154H696.043V99.1791Z" fill="#C0343B"/>
<path d="M740.266 99.1791H735.291V104.154H740.266V99.1791Z" fill="black"/>
<path d="M32.7099 143.401H27.7349V148.376H32.7099V143.401Z" fill="#C0343B"/>
<path d="M76.932 143.401H71.957V148.376H76.932V143.401Z" fill="black"/>
<path d="M121.154 143.401H116.179V148.376H121.154V143.401Z" fill="#C0343B"/>
<path d="M165.376 143.401H160.401V148.376H165.376V143.401Z" fill="black"/>
<path d="M209.599 143.401H204.624V148.376H209.599V143.401Z" fill="#C0343B"/>
<path d="M253.821 143.401H248.846V148.376H253.821V143.401Z" fill="black"/>
<path d="M298.043 143.401H293.068V148.376H298.043V143.401Z" fill="#C0343B"/>
<path d="M342.266 143.401H337.291V148.376H342.266V143.401Z" fill="black"/>
<path d="M386.488 143.401H381.513V148.376H386.488V143.401Z" fill="#C0343B"/>
<path d="M430.71 143.401H425.735V148.376H430.71V143.401Z" fill="black"/>
<path d="M474.932 143.401H469.957V148.376H474.932V143.401Z" fill="#C0343B"/>
<path d="M519.154 143.401H514.179V148.376H519.154V143.401Z" fill="black"/>
<path d="M563.376 143.401H558.401V148.376H563.376V143.401Z" fill="#C0343B"/>
<path d="M607.599 143.401H602.624V148.376H607.599V143.401Z" fill="black"/>
<path d="M651.821 143.401H646.846V148.376H651.821V143.401Z" fill="#C0343B"/>
<path d="M696.043 143.401H691.068V148.376H696.043V143.401Z" fill="black"/>
<path d="M740.266 143.401H735.291V148.376H740.266V143.401Z" fill="#C0343B"/>
<path d="M32.7099 187.624H27.7349V192.599H32.7099V187.624Z" fill="black"/>
<path d="M76.932 187.624H71.957V192.599H76.932V187.624Z" fill="#C0343B"/>
<path d="M121.154 187.624H116.179V192.599H121.154V187.624Z" fill="black"/>
<path d="M165.376 187.624H160.401V192.599H165.376V187.624Z" fill="#C0343B"/>
<path d="M209.599 187.624H204.624V192.599H209.599V187.624Z" fill="black"/>
<path d="M253.821 187.624H248.846V192.599H253.821V187.624Z" fill="#C0343B"/>
<path d="M298.043 187.624H293.068V192.599H298.043V187.624Z" fill="black"/>
<path d="M342.266 187.624H337.291V192.599H342.266V187.624Z" fill="#C0343B"/>
<path d="M386.488 187.624H381.513V192.599H386.488V187.624Z" fill="black"/>
<path d="M430.71 187.624H425.735V192.599H430.71V187.624Z" fill="#C0343B"/>
<path d="M474.932 187.624H469.957V192.599H474.932V187.624Z" fill="black"/>
<path d="M519.154 187.624H514.179V192.599H519.154V187.624Z" fill="#C0343B"/>
<path d="M563.376 187.624H558.401V192.599H563.376V187.624Z" fill="black"/>
<path d="M607.599 187.624H602.624V192.599H607.599V187.624Z" fill="#C0343B"/>
<path d="M651.821 187.624H646.846V192.599H651.821V187.624Z" fill="black"/>
<path d="M696.043 187.624H691.068V192.599H696.043V187.624Z" fill="#C0343B"/>
<path d="M740.266 187.624H735.291V192.599H740.266V187.624Z" fill="black"/>
<path d="M32.7099 231.846H27.7349V236.821H32.7099V231.846Z" fill="#C0343B"/>
<path d="M76.932 231.846H71.957V236.821H76.932V231.846Z" fill="black"/>
<path d="M121.154 231.846H116.179V236.821H121.154V231.846Z" fill="#C0343B"/>
<path d="M165.376 231.846H160.401V236.821H165.376V231.846Z" fill="black"/>
<path d="M209.599 231.846H204.624V236.821H209.599V231.846Z" fill="#C0343B"/>
<path d="M253.821 231.846H248.846V236.821H253.821V231.846Z" fill="black"/>
<path d="M298.043 231.846H293.068V236.821H298.043V231.846Z" fill="#C0343B"/>
<path d="M342.266 231.846H337.291V236.821H342.266V231.846Z" fill="black"/>
<path d="M386.488 231.846H381.513V236.821H386.488V231.846Z" fill="#C0343B"/>
<path d="M430.71 231.846H425.735V236.821H430.71V231.846Z" fill="black"/>
<path d="M474.932 231.846H469.957V236.821H474.932V231.846Z" fill="#C0343B"/>
<path d="M519.154 231.846H514.179V236.821H519.154V231.846Z" fill="black"/>
<path d="M563.376 231.846H558.401V236.821H563.376V231.846Z" fill="#C0343B"/>
<path d="M607.599 231.846H602.624V236.821H607.599V231.846Z" fill="black"/>
<path d="M651.821 231.846H646.846V236.821H651.821V231.846Z" fill="#C0343B"/>
<path d="M696.043 231.846H691.068V236.821H696.043V231.846Z" fill="black"/>
<path d="M740.266 231.846H735.291V236.821H740.266V231.846Z" fill="#C0343B"/>
<path d="M32.7099 276.068H27.7349V281.043H32.7099V276.068Z" fill="black"/>
<path d="M76.932 276.068H71.957V281.043H76.932V276.068Z" fill="#C0343B"/>
<path d="M121.154 276.068H116.179V281.043H121.154V276.068Z" fill="black"/>
<path d="M165.376 276.068H160.401V281.043H165.376V276.068Z" fill="#C0343B"/>
<path d="M209.599 276.068H204.624V281.043H209.599V276.068Z" fill="black"/>
<path d="M253.821 276.068H248.846V281.043H253.821V276.068Z" fill="#C0343B"/>
<path d="M298.043 276.068H293.068V281.043H298.043V276.068Z" fill="black"/>
<path d="M342.266 276.068H337.291V281.043H342.266V276.068Z" fill="#C0343B"/>
<path d="M386.488 276.068H381.513V281.043H386.488V276.068Z" fill="black"/>
<path d="M430.71 276.068H425.735V281.043H430.71V276.068Z" fill="#C0343B"/>
<path d="M474.932 276.068H469.957V281.043H474.932V276.068Z" fill="black"/>
<path d="M519.154 276.068H514.179V281.043H519.154V276.068Z" fill="#C0343B"/>
<path d="M563.376 276.068H558.401V281.043H563.376V276.068Z" fill="black"/>
<path d="M607.599 276.068H602.624V281.043H607.599V276.068Z" fill="#C0343B"/>
<path d="M651.821 276.068H646.846V281.043H651.821V276.068Z" fill="black"/>
<path d="M696.043 276.068H691.068V281.043H696.043V276.068Z" fill="#C0343B"/>
<path d="M740.266 276.068H735.291V281.043H740.266V276.068Z" fill="black"/>
<path d="M32.7099 320.29H27.7349V325.265H32.7099V320.29Z" fill="#C0343B"/>
<path d="M76.932 320.29H71.957V325.265H76.932V320.29Z" fill="black"/>
<path d="M121.154 320.29H116.179V325.265H121.154V320.29Z" fill="#C0343B"/>
<path d="M165.376 320.29H160.401V325.265H165.376V320.29Z" fill="black"/>
<path d="M209.599 320.29H204.624V325.265H209.599V320.29Z" fill="#C0343B"/>
<path d="M253.821 320.29H248.846V325.265H253.821V320.29Z" fill="black"/>
<path d="M298.043 320.29H293.068V325.265H298.043V320.29Z" fill="#C0343B"/>
<path d="M342.266 320.29H337.291V325.265H342.266V320.29Z" fill="black"/>
<path d="M386.488 320.29H381.513V325.265H386.488V320.29Z" fill="#C0343B"/>
<path d="M430.71 320.29H425.735V325.265H430.71V320.29Z" fill="black"/>
<path d="M474.932 320.29H469.957V325.265H474.932V320.29Z" fill="#C0343B"/>
<path d="M519.154 320.29H514.179V325.265H519.154V320.29Z" fill="black"/>
<path d="M563.376 320.29H558.401V325.265H563.376V320.29Z" fill="#C0343B"/>
<path d="M607.599 320.29H602.624V325.265H607.599V320.29Z" fill="black"/>
<path d="M651.821 320.29H646.846V325.265H651.821V320.29Z" fill="#C0343B"/>
<path d="M696.043 320.29H691.068V325.265H696.043V320.29Z" fill="black"/>
<path d="M740.266 320.29H735.291V325.265H740.266V320.29Z" fill="#C0343B"/>
<path d="M32.7099 364.513H27.7349V369.488H32.7099V364.513Z" fill="black"/>
<path d="M76.932 364.513H71.957V369.488H76.932V364.513Z" fill="#C0343B"/>
<path d="M121.154 364.513H116.179V369.488H121.154V364.513Z" fill="black"/>
<path d="M165.376 364.513H160.401V369.488H165.376V364.513Z" fill="#C0343B"/>
<path d="M209.599 364.513H204.624V369.488H209.599V364.513Z" fill="black"/>
<path d="M253.821 364.513H248.846V369.488H253.821V364.513Z" fill="#C0343B"/>
<path d="M298.043 364.513H293.068V369.488H298.043V364.513Z" fill="black"/>
<path d="M342.266 364.513H337.291V369.488H342.266V364.513Z" fill="#C0343B"/>
<path d="M386.488 364.513H381.513V369.488H386.488V364.513Z" fill="black"/>
<path d="M430.71 364.513H425.735V369.488H430.71V364.513Z" fill="#C0343B"/>
<path d="M474.932 364.513H469.957V369.488H474.932V364.513Z" fill="black"/>
<path d="M519.154 364.513H514.179V369.488H519.154V364.513Z" fill="#C0343B"/>
<path d="M563.376 364.513H558.401V369.488H563.376V364.513Z" fill="black"/>
<path d="M607.599 364.513H602.624V369.488H607.599V364.513Z" fill="#C0343B"/>
<path d="M651.821 364.513H646.846V369.488H651.821V364.513Z" fill="black"/>
<path d="M696.043 364.513H691.068V369.488H696.043V364.513Z" fill="#C0343B"/>
<path d="M740.266 364.513H735.291V369.488H740.266V364.513Z" fill="black"/>
<path d="M32.7099 408.735H27.7349V413.71H32.7099V408.735Z" fill="#C0343B"/>
<path d="M76.932 408.735H71.957V413.71H76.932V408.735Z" fill="black"/>
<path d="M121.154 408.735H116.179V413.71H121.154V408.735Z" fill="#C0343B"/>
<path d="M165.376 408.735H160.401V413.71H165.376V408.735Z" fill="black"/>
<path d="M209.599 408.735H204.624V413.71H209.599V408.735Z" fill="#C0343B"/>
<path d="M253.821 408.735H248.846V413.71H253.821V408.735Z" fill="black"/>
<path d="M298.043 408.735H293.068V413.71H298.043V408.735Z" fill="#C0343B"/>
<path d="M342.266 408.735H337.291V413.71H342.266V408.735Z" fill="black"/>
<path d="M386.488 408.735H381.513V413.71H386.488V408.735Z" fill="#C0343B"/>
<path d="M430.71 408.735H425.735V413.71H430.71V408.735Z" fill="black"/>
<path d="M474.932 408.735H469.957V413.71H474.932V408.735Z" fill="#C0343B"/>
<path d="M519.154 408.735H514.179V413.71H519.154V408.735Z" fill="black"/>
<path d="M563.376 408.735H558.401V413.71H563.376V408.735Z" fill="#C0343B"/>
<path d="M607.599 408.735H602.624V413.71H607.599V408.735Z" fill="black"/>
<path d="M651.821 408.735H646.846V413.71H651.821V408.735Z" fill="#C0343B"/>
<path d="M696.043 408.735H691.068V413.71H696.043V408.735Z" fill="black"/>
<path d="M740.266 408.735H735.291V413.71H740.266V408.735Z" fill="#C0343B"/>
</g>
</g>
<defs>
<clipPath id="clip0_28_13399">
<rect width="775" height="421" rx="20" fill="white"/>
</clipPath>
<clipPath id="clip1_28_13399">
<rect width="796" height="796" fill="white" transform="translate(-14 -31)"/>
</clipPath>
</defs>
</svg>
