<svg width="775" height="421" viewBox="0 0 775 421" fill="none" xmlns="http://www.w3.org/2000/svg">
<g clip-path="url(#clip0_18_21506)">
<path d="M45.942 -13.4019V28.5546M45.942 28.5546H59.9275V42.5401M45.942 28.5546H31.9565V42.5401M59.9275 42.5401H101.884H143.84M59.9275 42.5401V56.5256H45.942M45.942 56.5256V98.4821V140.439M45.942 56.5256H31.9565V42.5401M31.9565 42.5401H-10M45.942 140.439H59.9275V154.424M45.942 140.439H31.9565V154.424M59.9275 154.424H101.884H143.84M59.9275 154.424V168.41H45.942M45.942 168.41V210.366V252.323M45.942 168.41H31.9565V154.424M31.9565 154.424H-10M45.942 252.323H59.9275V266.308M45.942 252.323H31.9565V266.308M59.9275 266.308H101.884H143.84M59.9275 266.308V280.294H45.942M45.942 280.294V322.25V364.207M45.942 280.294H31.9565V266.308M31.9565 266.308H-10M45.942 364.207H59.9275V378.192M45.942 364.207H31.9565V378.192M59.9275 378.192H101.884H143.84M59.9275 378.192V392.178H45.942M45.942 434.134V392.178M45.942 392.178H31.9565V378.192M31.9565 378.192H-10M157.826 -13.4019V28.5546M157.826 28.5546H171.811V42.5401M157.826 28.5546H143.84V42.5401M171.811 42.5401H213.768H255.724M171.811 42.5401V56.5256H157.826M157.826 56.5256V98.4821V140.439M157.826 56.5256H143.84V42.5401M157.826 140.439H171.811V154.424M157.826 140.439H143.84V154.424M171.811 154.424H213.768H255.724M171.811 154.424V168.41H157.826M157.826 168.41V210.366V252.323M157.826 168.41H143.84V154.424M157.826 252.323H171.811V266.308M157.826 252.323H143.84V266.308M171.811 266.308H213.768H255.724M171.811 266.308V280.294H157.826M157.826 280.294V322.25V364.207M157.826 280.294H143.84V266.308M157.826 364.207H171.811V378.192M157.826 364.207H143.84V378.192M171.811 378.192H213.768H255.724M171.811 378.192V392.178H157.826M157.826 434.134V392.178M157.826 392.178H143.84V378.192M269.71 -13.4019V28.5546M269.71 28.5546H283.695V42.5401M269.71 28.5546H255.724V42.5401M283.695 42.5401H325.652H367.608M283.695 42.5401V56.5256H269.71M269.71 56.5256V98.4821V140.439M269.71 56.5256H255.724V42.5401M269.71 140.439H283.695V154.424M269.71 140.439H255.724V154.424M283.695 154.424H325.652H367.608M283.695 154.424V168.41H269.71M269.71 168.41V210.366V252.323M269.71 168.41H255.724V154.424M269.71 252.323H283.695V266.308M269.71 252.323H255.724V266.308M283.695 266.308H325.652H367.608M283.695 266.308V280.294H269.71M269.71 280.294V322.25V364.207M269.71 280.294H255.724V266.308M269.71 364.207H283.695V378.192M269.71 364.207H255.724V378.192M283.695 378.192H325.652H367.608M283.695 378.192V392.178H269.71M269.71 434.134V392.178M269.71 392.178H255.724V378.192M381.594 -13.4019V28.5546M381.594 28.5546H395.579V42.5401M381.594 28.5546H367.608V42.5401M395.579 42.5401H437.536M395.579 42.5401V56.5256H381.594M381.594 56.5256V98.4821V140.439M381.594 56.5256H367.608V42.5401M381.594 140.439H395.579V154.424M381.594 140.439H367.608V154.424M395.579 154.424H437.536M395.579 154.424V168.41H381.594M381.594 168.41V210.366V252.323M381.594 168.41H367.608V154.424M381.594 252.323H395.579V266.308M381.594 252.323H367.608V266.308M395.579 266.308H437.536M395.579 266.308V280.294H381.594M381.594 280.294V322.25V364.207M381.594 280.294H367.608V266.308M381.594 364.207H395.579V378.192M381.594 364.207H367.608V378.192M395.579 378.192H437.536M395.579 378.192V392.178H381.594M381.594 434.134V392.178M381.594 392.178H367.608V378.192" stroke="black" stroke-width="2" stroke-linecap="round" stroke-linejoin="round"/>
<path d="M493.478 -13.4019V28.5546M493.478 28.5546H507.464V42.5401M493.478 28.5546H479.493V42.5401M507.464 42.5401H549.42H591.377M507.464 42.5401V56.5256H493.478M493.478 56.5256V98.4821V140.439M493.478 56.5256H479.493V42.5401M479.493 42.5401H437.536M493.478 140.439H507.464V154.424M493.478 140.439H479.493V154.424M507.464 154.424H549.42H591.377M507.464 154.424V168.41H493.478M493.478 168.41V210.366V252.323M493.478 168.41H479.493V154.424M479.493 154.424H437.536M493.478 252.323H507.464V266.308M493.478 252.323H479.493V266.308M507.464 266.308H549.42H591.377M507.464 266.308V280.294H493.478M493.478 280.294V322.25V364.207M493.478 280.294H479.493V266.308M479.493 266.308H437.536M493.478 364.207H507.464V378.192M493.478 364.207H479.493V378.192M507.464 378.192H549.42H591.377M507.464 378.192V392.178H493.478M493.478 434.134V392.178M493.478 392.178H479.493V378.192M479.493 378.192H437.536M605.362 -13.4019V28.5546M605.362 28.5546H619.348V42.5401M605.362 28.5546H591.377V42.5401M619.348 42.5401H661.304H703.261M619.348 42.5401V56.5256H605.362M605.362 56.5256V98.4821V140.439M605.362 56.5256H591.377V42.5401M605.362 140.439H619.348V154.424M605.362 140.439H591.377V154.424M619.348 154.424H661.304H703.261M619.348 154.424V168.41H605.362M605.362 168.41V210.366V252.323M605.362 168.41H591.377V154.424M605.362 252.323H619.348V266.308M605.362 252.323H591.377V266.308M619.348 266.308H661.304H703.261M619.348 266.308V280.294H605.362M605.362 280.294V322.25V364.207M605.362 280.294H591.377V266.308M605.362 364.207H619.348V378.192M605.362 364.207H591.377V378.192M619.348 378.192H661.304H703.261M619.348 378.192V392.178H605.362M605.362 434.134V392.178M605.362 392.178H591.377V378.192M717.246 -13.4019V28.5546M717.246 28.5546H731.232V42.5401M717.246 28.5546H703.261V42.5401M731.232 42.5401H773.188H815.145M731.232 42.5401V56.5256H717.246M717.246 56.5256V98.4821V140.439M717.246 56.5256H703.261V42.5401M717.246 140.439H731.232V154.424M717.246 140.439H703.261V154.424M731.232 154.424H773.188H815.145M731.232 154.424V168.41H717.246M717.246 168.41V210.366V252.323M717.246 168.41H703.261V154.424M717.246 252.323H731.232V266.308M717.246 252.323H703.261V266.308M731.232 266.308H773.188H815.145M731.232 266.308V280.294H717.246M717.246 280.294V322.25V364.207M717.246 280.294H703.261V266.308M717.246 364.207H731.232V378.192M717.246 364.207H703.261V378.192M731.232 378.192H773.188H815.145M731.232 378.192V392.178H717.246M717.246 434.134V392.178M717.246 392.178H703.261V378.192M829.13 -13.4019V28.5546M829.13 28.5546H843.116V42.5401M829.13 28.5546H815.145V42.5401M843.116 42.5401H885.072M843.116 42.5401V56.5256H829.13M829.13 56.5256V98.4821V140.439M829.13 56.5256H815.145V42.5401M829.13 140.439H843.116V154.424M829.13 140.439H815.145V154.424M843.116 154.424H885.072M843.116 154.424V168.41H829.13M829.13 168.41V210.366V252.323M829.13 168.41H815.145V154.424M829.13 252.323H843.116V266.308M829.13 252.323H815.145V266.308M843.116 266.308H885.072M843.116 266.308V280.294H829.13M829.13 280.294V322.25V364.207M829.13 280.294H815.145V266.308M829.13 364.207H843.116V378.192M829.13 364.207H815.145V378.192M843.116 378.192H885.072M843.116 378.192V392.178H829.13M829.13 434.134V392.178M829.13 392.178H815.145V378.192" stroke="black" stroke-width="2" stroke-linecap="round" stroke-linejoin="round"/>
<rect x="142" y="136.765" width="34" height="34" fill="#C0343B"/>
</g>
<defs>
<clipPath id="clip0_18_21506">
<rect width="775" height="421" rx="20" fill="white"/>
</clipPath>
</defs>
</svg>
