<svg width="775" height="421" viewBox="0 0 775 421" fill="none" xmlns="http://www.w3.org/2000/svg">
<g clip-path="url(#clip0_15_11847)">
<path d="M0 20C0 8.9543 8.95431 0 20 0H755C766.046 0 775 8.95431 775 20V421H0V20Z" fill="#222222"/>
<path d="M13.2485 13.6274L24.75 20.3723" stroke="white" stroke-width="2"/>
<path d="M14.4756 44.1046L23.5254 53.8964" stroke="white" stroke-width="2"/>
<path d="M16.4028 74.8605L21.5973 87.1404" stroke="white" stroke-width="2"/>
<path d="M18.896 106.334L19.1019 119.666" stroke="white" stroke-width="2"/>
<path d="M21.5518 138.844L16.4459 151.161" stroke="white" stroke-width="2"/>
<path d="M23.8208 172.396L14.1812 181.608" stroke="#C0343B" stroke-width="2"/>
<path d="M25.2432 206.66L12.7585 211.34" stroke="white" stroke-width="2"/>
<path d="M25.6665 241.108L12.335 240.888" stroke="white" stroke-width="2"/>
<path d="M25.271 275.261L12.7292 270.735" stroke="white" stroke-width="2"/>
<path d="M24.4419 308.85L13.5582 301.148" stroke="white" stroke-width="2"/>
<path d="M23.5894 341.836L14.4109 332.164" stroke="white" stroke-width="2"/>
<path d="M23.0366 374.306L14.964 363.695" stroke="white" stroke-width="2"/>
<path d="M22.9741 406.352L15.0236 395.649" stroke="white" stroke-width="2"/>
<path d="M46.3252 12.2494L55.6761 21.754" stroke="white" stroke-width="2"/>
<path d="M48.1987 42.9522L53.8006 55.0517" stroke="white" stroke-width="2"/>
<path d="M50.6987 74.3393L51.3019 87.6589" stroke="white" stroke-width="2"/>
<path d="M53.436 106.796L48.5649 119.208" stroke="white" stroke-width="2"/>
<path d="M55.8208 140.396L46.1812 149.608" stroke="#C0343B" stroke-width="2"/>
<path d="M57.3042 174.832L44.6957 179.168" stroke="white" stroke-width="2"/>
<path d="M57.6465 209.532L44.3554 208.471" stroke="white" stroke-width="2"/>
<path d="M56.9961 243.915L45.0042 238.087" stroke="white" stroke-width="2"/>
<path d="M55.7812 277.645L46.2172 268.355" stroke="white" stroke-width="2"/>
<path d="M54.4834 310.682L47.5161 299.313" stroke="white" stroke-width="2"/>
<path d="M53.4712 343.191L48.5269 330.808" stroke="white" stroke-width="2"/>
<path d="M52.9756 375.367L49.0257 362.632" stroke="white" stroke-width="2"/>
<path d="M53.105 407.327L48.896 394.676" stroke="white" stroke-width="2"/>
<path d="M79.8779 11.11L86.1228 22.8904" stroke="white" stroke-width="2"/>
<path d="M82.312 42.367L83.688 55.6292" stroke="white" stroke-width="2"/>
<path d="M85.0845 74.6699L80.9155 87.3347" stroke="white" stroke-width="2"/>
<path d="M87.604 108.18L78.3986 117.825" stroke="#C0343B" stroke-width="2"/>
<path d="M89.2432 142.659L76.7584 147.34" stroke="#C0343B" stroke-width="2"/>
<path d="M89.644 177.532L76.353 176.471" stroke="white" stroke-width="2"/>
<path d="M88.8872 212.127L77.1135 205.869" stroke="white" stroke-width="2"/>
<path d="M87.396 246.01L78.6031 235.987" stroke="white" stroke-width="2"/>
<path d="M85.7202 279.087L80.2808 266.913" stroke="white" stroke-width="2"/>
<path d="M84.2983 311.54L81.7044 298.461" stroke="white" stroke-width="2"/>
<path d="M83.3813 343.654L82.6207 330.343" stroke="white" stroke-width="2"/>
<path d="M83.0825 375.664L82.9194 362.332" stroke="white" stroke-width="2"/>
<path d="M83.4512 407.652L82.5488 394.349" stroke="white" stroke-width="2"/>
<path d="M113.761 10.4518L116.239 23.5528" stroke="#C0343B" stroke-width="2"/>
<path d="M116.506 42.5044L113.495 55.4931" stroke="#C0343B" stroke-width="2"/>
<path d="M119.151 75.7857L110.847 86.2177" stroke="#C0343B" stroke-width="2"/>
<path d="M121.033 110.161L108.968 115.837" stroke="#C0343B" stroke-width="2"/>
<path d="M121.666 145.113L108.334 144.892" stroke="white" stroke-width="2"/>
<path d="M120.996 179.915L109.006 174.083" stroke="white" stroke-width="2"/>
<path d="M119.395 214.013L110.607 203.986" stroke="white" stroke-width="2"/>
<path d="M117.443 247.2L112.554 234.796" stroke="white" stroke-width="2"/>
<path d="M115.666 279.634L114.332 266.367" stroke="white" stroke-width="2"/>
<path d="M114.376 311.637L115.624 298.362" stroke="white" stroke-width="2"/>
<path d="M113.694 343.537L116.308 330.463" stroke="white" stroke-width="2"/>
<path d="M113.643 375.529L116.356 362.475" stroke="white" stroke-width="2"/>
<path d="M114.251 407.627L115.749 394.378" stroke="white" stroke-width="2"/>
<path d="M147.72 10.3717L146.278 23.6269" stroke="#C0343B" stroke-width="2"/>
<path d="M150.448 43.2925L143.553 54.7047" stroke="#C0343B" stroke-width="2"/>
<path d="M152.612 77.4003L141.387 84.5959" stroke="#C0343B" stroke-width="2"/>
<path d="M153.63 112.29L140.372 113.705" stroke="#C0343B" stroke-width="2"/>
<path d="M153.27 147.265L140.731 142.733" stroke="white" stroke-width="2"/>
<path d="M151.777 181.651L142.225 172.348" stroke="white" stroke-width="2"/>
<path d="M149.705 215.091L144.294 202.905" stroke="white" stroke-width="2"/>
<path d="M147.651 247.634L146.35 234.364" stroke="white" stroke-width="2"/>
<path d="M146.016 279.596L147.982 266.409" stroke="white" stroke-width="2"/>
<path d="M144.978 311.354L149.021 298.648" stroke="white" stroke-width="2"/>
<path d="M144.559 343.202L149.439 330.794" stroke="white" stroke-width="2"/>
<path d="M144.752 375.275L149.248 362.723" stroke="white" stroke-width="2"/>
<path d="M145.581 407.515L148.418 394.487" stroke="white" stroke-width="2"/>
<path d="M181.504 10.8224L176.496 23.1795" stroke="#C0343B" stroke-width="2"/>
<path d="M183.917 44.4988L174.081 53.5009" stroke="#C0343B" stroke-width="2"/>
<path d="M185.405 79.1442L172.598 82.853" stroke="#C0343B" stroke-width="2"/>
<path d="M185.564 114.171L172.438 111.828" stroke="#C0343B" stroke-width="2"/>
<path d="M184.434 148.864L173.567 141.139" stroke="white" stroke-width="2"/>
<path d="M182.46 182.698L175.541 171.3" stroke="white" stroke-width="2"/>
<path d="M180.252 215.547L177.749 202.451" stroke="white" stroke-width="2"/>
<path d="M178.318 247.634L179.682 234.37" stroke="white" stroke-width="2"/>
<path d="M176.932 279.338L181.07 266.663" stroke="white" stroke-width="2"/>
<path d="M176.161 311.032L181.843 298.97" stroke="white" stroke-width="2"/>
<path d="M175.982 342.944L182.019 331.056" stroke="white" stroke-width="2"/>
<path d="M176.394 375.135L181.607 362.863" stroke="white" stroke-width="2"/>
<path d="M177.436 407.483L180.564 394.522" stroke="white" stroke-width="2"/>
<path d="M214.947 11.6287L207.051 22.3726" stroke="#C0343B" stroke-width="2"/>
<path d="M216.869 45.8404L205.131 52.1639" stroke="#C0343B" stroke-width="2"/>
<path d="M217.659 80.7076L204.338 81.2877" stroke="#C0343B" stroke-width="2"/>
<path d="M217.141 115.597L204.86 110.406" stroke="#C0343B" stroke-width="2"/>
<path d="M215.545 149.878L206.455 140.124" stroke="white" stroke-width="2"/>
<path d="M213.4 183.22L208.6 170.78" stroke="white" stroke-width="2"/>
<path d="M211.27 215.66L210.729 202.338" stroke="white" stroke-width="2"/>
<path d="M209.553 247.507L212.446 234.491" stroke="white" stroke-width="2"/>
<path d="M208.418 279.148L213.582 266.856" stroke="white" stroke-width="2"/>
<path d="M207.88 310.892L214.121 299.109" stroke="white" stroke-width="2"/>
<path d="M207.915 342.911L214.088 331.093" stroke="white" stroke-width="2"/>
<path d="M208.534 375.196L213.467 362.808" stroke="white" stroke-width="2"/>
<path d="M209.791 407.559L212.207 394.446" stroke="white" stroke-width="2"/>
<path d="M248.004 12.598L237.995 21.4068" stroke="#C0343B" stroke-width="2"/>
<path d="M249.388 47.0855L236.615 50.9115" stroke="white" stroke-width="2"/>
<path d="M249.6 81.9373L236.399 80.0666" stroke="#C0343B" stroke-width="2"/>
<path d="M248.648 116.538L237.351 109.457" stroke="#C0343B" stroke-width="2"/>
<path d="M246.869 150.431L239.131 139.573" stroke="white" stroke-width="2"/>
<path d="M244.774 183.429L241.227 170.576" stroke="white" stroke-width="2"/>
<path d="M242.836 215.666L243.163 202.337" stroke="white" stroke-width="2"/>
<path d="M241.356 247.463L244.644 234.541" stroke="white" stroke-width="2"/>
<path d="M240.444 279.156L245.557 266.842" stroke="white" stroke-width="2"/>
<path d="M240.104 311.007L245.896 298.997" stroke="white" stroke-width="2"/>
<path d="M240.333 343.108L245.667 330.888" stroke="white" stroke-width="2"/>
<path d="M241.16 375.407L244.838 362.591" stroke="white" stroke-width="2"/>
<path d="M242.624 407.658L243.377 394.345" stroke="white" stroke-width="2"/>
<path d="M280.712 13.5653L269.287 20.439" stroke="#C0343B" stroke-width="2"/>
<path d="M281.609 48.1197L268.393 49.8831" stroke="white" stroke-width="2"/>
<path d="M281.423 82.7867L268.578 79.2122" stroke="white" stroke-width="2"/>
<path d="M280.275 117.075L269.725 108.923" stroke="#C0343B" stroke-width="2"/>
<path d="M278.524 150.66L271.475 139.343" stroke="#C0343B" stroke-width="2"/>
<path d="M276.618 183.465L273.384 170.53" stroke="#C0343B" stroke-width="2"/>
<path d="M274.929 215.665L275.07 202.333" stroke="#C0343B" stroke-width="2"/>
<path d="M273.687 247.536L276.312 234.464" stroke="#C0343B" stroke-width="2"/>
<path d="M272.98 279.355L277.02 266.648" stroke="#C0343B" stroke-width="2"/>
<path d="M272.827 311.304L277.174 298.699" stroke="#C0343B" stroke-width="2"/>
<path d="M273.245 343.429L276.756 330.566" stroke="#C0343B" stroke-width="2"/>
<path d="M274.263 375.626L275.735 362.374" stroke="#C0343B" stroke-width="2"/>
<path d="M275.876 407.607L274.123 394.39" stroke="#C0343B" stroke-width="2"/>
<path d="M313.152 14.4304L300.848 19.5677" stroke="white" stroke-width="2"/>
<path d="M313.666 48.8934L300.334 49.1102" stroke="white" stroke-width="2"/>
<path d="M313.256 83.3029L300.743 78.6987" stroke="white" stroke-width="2"/>
<path d="M312.101 117.296L301.901 108.708" stroke="white" stroke-width="2"/>
<path d="M310.523 150.657L303.476 139.338" stroke="#C0343B" stroke-width="2"/>
<path d="M308.887 183.393L305.111 170.605" stroke="#C0343B" stroke-width="2"/>
<path d="M307.484 215.647L306.514 202.349" stroke="#C0343B" stroke-width="2"/>
<path d="M306.493 247.649L307.506 234.354" stroke="#C0343B" stroke-width="2"/>
<path d="M305.997 279.59L308.002 266.408" stroke="#C0343B" stroke-width="2"/>
<path d="M306.033 311.595L307.966 298.403" stroke="#C0343B" stroke-width="2"/>
<path d="M306.628 343.655L307.375 330.343" stroke="#C0343B" stroke-width="2"/>
<path d="M307.783 375.622L306.216 362.381" stroke="#C0343B" stroke-width="2"/>
<path d="M309.427 407.209L304.576 394.789" stroke="#C0343B" stroke-width="2"/>
<path d="M345.407 15.1591L332.592 18.8422" stroke="white" stroke-width="2"/>
<path d="M345.653 49.421L332.346 48.5778" stroke="white" stroke-width="2"/>
<path d="M345.162 83.5407L332.835 78.4572" stroke="white" stroke-width="2"/>
<path d="M344.123 117.263L333.875 108.733" stroke="white" stroke-width="2"/>
<path d="M342.809 150.469L335.191 139.527" stroke="white" stroke-width="2"/>
<path d="M341.497 183.182L336.504 170.819" stroke="white" stroke-width="2"/>
<path d="M340.408 215.519L337.592 202.486" stroke="white" stroke-width="2"/>
<path d="M339.688 247.632L338.311 234.37" stroke="white" stroke-width="2"/>
<path d="M339.417 279.651L338.581 266.344" stroke="white" stroke-width="2"/>
<path d="M339.64 311.636L338.363 298.364" stroke="white" stroke-width="2"/>
<path d="M340.364 343.526L337.639 330.474" stroke="white" stroke-width="2"/>
<path d="M341.551 375.162L336.45 362.843" stroke="white" stroke-width="2"/>
<path d="M343.049 406.294L334.951 395.702" stroke="white" stroke-width="2"/>
<path d="M377.548 15.7435L364.453 18.2562" stroke="white" stroke-width="2"/>
<path d="M377.625 49.7495L364.376 48.2497" stroke="white" stroke-width="2"/>
<path d="M377.151 83.5712L364.848 78.4322" stroke="white" stroke-width="2"/>
<path d="M376.303 117.039L365.699 108.956" stroke="white" stroke-width="2"/>
<path d="M375.291 150.102L366.711 139.896" stroke="white" stroke-width="2"/>
<path d="M374.322 182.779L367.678 171.219" stroke="white" stroke-width="2"/>
<path d="M373.562 215.157L368.439 202.847" stroke="white" stroke-width="2"/>
<path d="M373.124 247.322L368.876 234.683" stroke="white" stroke-width="2"/>
<path d="M373.075 279.333L368.926 266.662" stroke="white" stroke-width="2"/>
<path d="M373.443 311.203L368.557 298.797" stroke="white" stroke-width="2"/>
<path d="M374.212 342.844L367.79 331.159" stroke="white" stroke-width="2"/>
<path d="M375.285 374.108L366.715 363.893" stroke="white" stroke-width="2"/>
<path d="M376.456 404.829L365.544 397.167" stroke="white" stroke-width="2"/>
<path d="M409.621 16.2079L396.381 17.7873" stroke="white" stroke-width="2"/>
<path d="M409.602 49.9294L396.399 48.0734" stroke="white" stroke-width="2"/>
<path d="M409.203 83.4423L396.798 78.5541" stroke="white" stroke-width="2"/>
<path d="M408.569 116.665L397.432 109.334" stroke="white" stroke-width="2"/>
<path d="M407.859 149.561L398.138 140.436" stroke="white" stroke-width="2"/>
<path d="M407.226 182.156L398.777 171.842" stroke="white" stroke-width="2"/>
<path d="M406.777 214.494L399.223 203.507" stroke="white" stroke-width="2"/>
<path d="M406.597 246.613L399.403 235.387" stroke="white" stroke-width="2"/>
<path d="M406.726 278.525L399.272 267.47" stroke="white" stroke-width="2"/>
<path d="M407.167 310.204L398.835 299.795" stroke="white" stroke-width="2"/>
<path d="M407.859 341.562L398.14 332.435" stroke="white" stroke-width="2"/>
<path d="M408.673 372.503L397.328 365.5" stroke="white" stroke-width="2"/>
<path d="M409.378 402.947L396.624 399.058" stroke="white" stroke-width="2"/>
<path d="M441.655 16.5945L428.347 17.4085" stroke="white" stroke-width="2"/>
<path d="M441.589 50.007L428.409 47.9907" stroke="white" stroke-width="2"/>
<path d="M441.286 83.2218L428.713 78.7815" stroke="white" stroke-width="2"/>
<path d="M440.859 116.183L429.141 109.821" stroke="white" stroke-width="2"/>
<path d="M440.42 148.88L429.577 141.121" stroke="white" stroke-width="2"/>
<path d="M440.072 181.327L429.928 172.674" stroke="white" stroke-width="2"/>
<path d="M439.883 213.541L430.118 204.463" stroke="white" stroke-width="2"/>
<path d="M439.896 245.523L430.102 236.476" stroke="white" stroke-width="2"/>
<path d="M440.125 277.262L429.875 268.735" stroke="white" stroke-width="2"/>
<path d="M440.535 308.717L429.467 301.282" stroke="white" stroke-width="2"/>
<path d="M441.038 339.828L428.965 334.17" stroke="white" stroke-width="2"/>
<path d="M441.484 370.549L428.516 367.447" stroke="white" stroke-width="2"/>
<path d="M441.666 400.894L428.334 401.103" stroke="white" stroke-width="2"/>
<path d="M473.666 16.9324L460.333 17.0726" stroke="white" stroke-width="2"/>
<path d="M473.586 50.0423L460.416 47.9628" stroke="white" stroke-width="2"/>
<path d="M473.374 82.949L460.624 79.0494" stroke="white" stroke-width="2"/>
<path d="M473.122 115.638L460.878 110.359" stroke="white" stroke-width="2"/>
<path d="M472.898 148.104L461.1 141.892" stroke="white" stroke-width="2"/>
<path d="M472.763 180.352L461.236 173.65" stroke="white" stroke-width="2"/>
<path d="M472.748 212.373L461.249 205.623" stroke="white" stroke-width="2"/>
<path d="M472.868 244.164L461.134 237.831" stroke="white" stroke-width="2"/>
<path d="M473.093 275.705L460.905 270.299" stroke="white" stroke-width="2"/>
<path d="M473.374 306.956L460.627 303.048" stroke="white" stroke-width="2"/>
<path d="M473.606 337.898L460.394 336.101" stroke="white" stroke-width="2"/>
<path d="M473.651 368.544L460.349 369.454" stroke="white" stroke-width="2"/>
<path d="M473.349 398.963L460.653 403.034" stroke="white" stroke-width="2"/>
<path d="M505.663 17.2602L492.339 16.7442" stroke="white" stroke-width="2"/>
<path d="M505.582 50.066L492.42 47.9306" stroke="white" stroke-width="2"/>
<path d="M505.452 82.6833L492.55 79.3183" stroke="white" stroke-width="2"/>
<path d="M505.328 115.095L492.671 110.9" stroke="white" stroke-width="2"/>
<path d="M505.252 147.314L492.747 142.69" stroke="white" stroke-width="2"/>
<path d="M505.249 179.323L492.752 174.673" stroke="white" stroke-width="2"/>
<path d="M505.318 211.128L492.683 206.869" stroke="white" stroke-width="2"/>
<path d="M505.443 242.712L492.557 239.286" stroke="white" stroke-width="2"/>
<path d="M505.583 274.061L492.419 271.937" stroke="white" stroke-width="2"/>
<path d="M505.664 305.17L492.335 304.832" stroke="white" stroke-width="2"/>
<path d="M505.599 336.046L492.403 337.953" stroke="white" stroke-width="2"/>
<path d="M505.274 366.743L492.727 371.256" stroke="white" stroke-width="2"/>
<path d="M504.587 397.36L493.415 404.638" stroke="white" stroke-width="2"/>
<path d="M537.64 17.6083L524.363 16.3873" stroke="white" stroke-width="2"/>
<path d="M537.569 50.1325L524.429 47.8697" stroke="white" stroke-width="2"/>
<path d="M537.504 82.4616L524.496 79.5356" stroke="white" stroke-width="2"/>
<path d="M537.469 114.606L524.53 111.389" stroke="white" stroke-width="2"/>
<path d="M537.478 146.57L524.52 143.43" stroke="white" stroke-width="2"/>
<path d="M537.528 178.346L524.47 175.652" stroke="white" stroke-width="2"/>
<path d="M537.601 209.933L524.399 208.063" stroke="white" stroke-width="2"/>
<path d="M537.658 241.332L524.341 240.67" stroke="white" stroke-width="2"/>
<path d="M537.65 272.54L524.349 273.464" stroke="white" stroke-width="2"/>
<path d="M537.512 303.57L524.488 306.427" stroke="white" stroke-width="2"/>
<path d="M537.168 334.468L524.832 339.528" stroke="white" stroke-width="2"/>
<path d="M536.548 365.303L525.453 372.697" stroke="white" stroke-width="2"/>
<path d="M535.599 396.175L526.399 405.827" stroke="white" stroke-width="2"/>
<path d="M569.59 18.0151L556.412 15.9844" stroke="white" stroke-width="2"/>
<path d="M569.547 50.2653L556.455 47.7371" stroke="white" stroke-width="2"/>
<path d="M569.533 82.3295L556.467 79.6698" stroke="white" stroke-width="2"/>
<path d="M569.554 114.223L556.446 111.782" stroke="white" stroke-width="2"/>
<path d="M569.6 145.94L556.401 144.056" stroke="white" stroke-width="2"/>
<path d="M569.648 177.498L556.352 176.5" stroke="white" stroke-width="2"/>
<path d="M569.665 208.898L556.333 209.107" stroke="white" stroke-width="2"/>
<path d="M569.611 240.145L556.389 241.859" stroke="white" stroke-width="2"/>
<path d="M569.437 271.261L556.565 274.741" stroke="white" stroke-width="2"/>
<path d="M569.088 302.281L556.914 307.719" stroke="white" stroke-width="2"/>
<path d="M568.519 333.258L557.484 340.742" stroke="white" stroke-width="2"/>
<path d="M567.691 364.265L558.31 373.739" stroke="white" stroke-width="2"/>
<path d="M566.594 395.384L559.405 406.613" stroke="white" stroke-width="2"/>
<path d="M601.496 18.4928L588.502 15.5058" stroke="white" stroke-width="2"/>
<path d="M601.498 50.4941L588.502 47.5099" stroke="white" stroke-width="2"/>
<path d="M601.535 82.3127L588.463 79.6843" stroke="white" stroke-width="2"/>
<path d="M601.596 113.972L588.405 112.029" stroke="white" stroke-width="2"/>
<path d="M601.649 145.474L588.35 144.524" stroke="white" stroke-width="2"/>
<path d="M601.666 176.836L588.337 177.16" stroke="white" stroke-width="2"/>
<path d="M601.602 208.078L588.397 209.925" stroke="white" stroke-width="2"/>
<path d="M601.422 239.216L588.576 242.788" stroke="white" stroke-width="2"/>
<path d="M601.088 270.284L588.912 275.716" stroke="white" stroke-width="2"/>
<path d="M600.565 301.332L589.433 308.671" stroke="white" stroke-width="2"/>
<path d="M599.832 332.41L590.167 341.595" stroke="white" stroke-width="2"/>
<path d="M598.88 363.578L591.119 374.419" stroke="white" stroke-width="2"/>
<path d="M597.721 394.913L592.276 407.083" stroke="white" stroke-width="2"/>
<path d="M633.34 19.0571L620.658 14.9429" stroke="white" stroke-width="2"/>
<path d="M633.409 50.8313L620.59 47.164" stroke="white" stroke-width="2"/>
<path d="M633.509 82.4407L620.49 79.5628" stroke="white" stroke-width="2"/>
<path d="M633.606 113.888L620.392 112.111" stroke="white" stroke-width="2"/>
<path d="M633.664 145.201L620.337 144.801" stroke="white" stroke-width="2"/>
<path d="M633.638 176.396L620.36 177.603" stroke="white" stroke-width="2"/>
<path d="M633.497 207.505L620.503 210.494" stroke="white" stroke-width="2"/>
<path d="M633.207 238.565L620.796 243.439" stroke="white" stroke-width="2"/>
<path d="M632.741 269.612L621.259 276.39" stroke="white" stroke-width="2"/>
<path d="M632.091 300.695L621.91 309.304" stroke="white" stroke-width="2"/>
<path d="M631.253 331.868L622.748 342.136" stroke="white" stroke-width="2"/>
<path d="M630.239 363.173L623.762 374.827" stroke="white" stroke-width="2"/>
<path d="M629.075 394.663L624.927 407.335" stroke="white" stroke-width="2"/>
<path d="M665.092 19.7084L652.908 14.2945" stroke="white" stroke-width="2"/>
<path d="M665.258 51.3001L652.741 46.7051" stroke="white" stroke-width="2"/>
<path d="M665.44 82.718L652.557 79.2808" stroke="white" stroke-width="2"/>
<path d="M665.592 113.99L652.406 112.012" stroke="white" stroke-width="2"/>
<path d="M665.665 145.137L652.334 144.867" stroke="white" stroke-width="2"/>
<path d="M665.618 176.187L652.383 177.809" stroke="white" stroke-width="2"/>
<path d="M665.417 207.191L652.584 210.809" stroke="white" stroke-width="2"/>
<path d="M665.043 238.183L652.957 243.814" stroke="white" stroke-width="2"/>
<path d="M664.49 269.218L653.512 276.786" stroke="white" stroke-width="2"/>
<path d="M663.759 300.328L654.244 309.668" stroke="white" stroke-width="2"/>
<path d="M662.865 331.565L655.136 342.43" stroke="white" stroke-width="2"/>
<path d="M661.834 362.967L656.168 375.037" stroke="white" stroke-width="2"/>
<path d="M660.694 394.552L657.304 407.447" stroke="white" stroke-width="2"/>
<path d="M696.717 20.4313L685.284 13.5721" stroke="white" stroke-width="2"/>
<path d="M697.013 51.8817L684.988 46.1214" stroke="white" stroke-width="2"/>
<path d="M697.307 83.1583L684.691 78.8437" stroke="white" stroke-width="2"/>
<path d="M697.543 114.284L684.459 111.718" stroke="white" stroke-width="2"/>
<path d="M697.66 145.291L684.339 144.709" stroke="white" stroke-width="2"/>
<path d="M697.622 176.222L684.379 177.774" stroke="white" stroke-width="2"/>
<path d="M697.4 207.132L684.601 210.869" stroke="white" stroke-width="2"/>
<path d="M696.985 238.065L685.013 243.934" stroke="white" stroke-width="2"/>
<path d="M696.387 269.075L685.613 276.929" stroke="white" stroke-width="2"/>
<path d="M695.62 300.195L686.379 309.806" stroke="white" stroke-width="2"/>
<path d="M694.714 331.464L687.287 342.537" stroke="white" stroke-width="2"/>
<path d="M693.696 362.902L688.303 375.095" stroke="white" stroke-width="2"/>
<path d="M692.604 394.527L689.396 407.469" stroke="white" stroke-width="2"/>
<path d="M728.183 21.1968L717.819 12.8074" stroke="white" stroke-width="2"/>
<path d="M728.635 52.5614L717.365 45.4366" stroke="white" stroke-width="2"/>
<path d="M729.075 83.7479L716.925 78.2562" stroke="white" stroke-width="2"/>
<path d="M729.427 114.769L716.572 111.233" stroke="white" stroke-width="2"/>
<path d="M729.632 145.669L716.366 144.329" stroke="white" stroke-width="2"/>
<path d="M729.647 176.505L716.351 177.497" stroke="white" stroke-width="2"/>
<path d="M729.455 207.326L716.547 210.67" stroke="white" stroke-width="2"/>
<path d="M729.049 238.197L716.949 243.798" stroke="white" stroke-width="2"/>
<path d="M728.455 269.169L717.544 276.833" stroke="white" stroke-width="2"/>
<path d="M727.698 300.268L718.302 309.728" stroke="white" stroke-width="2"/>
<path d="M726.813 331.533L719.185 342.468" stroke="white" stroke-width="2"/>
<path d="M725.838 362.966L720.161 375.031" stroke="white" stroke-width="2"/>
<path d="M724.805 394.58L721.195 407.415" stroke="white" stroke-width="2"/>
<path d="M759.459 21.9567L750.537 12.0483" stroke="white" stroke-width="2"/>
<path d="M760.09 53.3038L749.911 44.6915" stroke="white" stroke-width="2"/>
<path d="M760.7 84.4586L749.3 77.5439" stroke="white" stroke-width="2"/>
<path d="M761.209 115.428L748.792 110.57" stroke="white" stroke-width="2"/>
<path d="M761.544 146.269L748.454 143.736" stroke="white" stroke-width="2"/>
<path d="M761.667 177.028L748.334 176.971" stroke="white" stroke-width="2"/>
<path d="M761.553 207.78L748.444 210.215" stroke="white" stroke-width="2"/>
<path d="M761.215 238.592L748.782 243.408" stroke="white" stroke-width="2"/>
<path d="M760.678 269.507L749.321 276.493" stroke="white" stroke-width="2"/>
<path d="M759.978 300.566L750.024 309.437" stroke="white" stroke-width="2"/>
<path d="M759.154 331.785L750.847 342.214" stroke="white" stroke-width="2"/>
<path d="M758.246 363.177L751.752 374.822" stroke="white" stroke-width="2"/>
<path d="M757.291 394.739L752.711 407.261" stroke="white" stroke-width="2"/>
</g>
<defs>
<clipPath id="clip0_15_11847">
<path d="M0 20C0 8.9543 8.95431 0 20 0H755C766.046 0 775 8.95431 775 20V421H0V20Z" fill="white"/>
</clipPath>
</defs>
</svg>
