<svg width="775" height="421" viewBox="0 0 775 421" fill="none" xmlns="http://www.w3.org/2000/svg">
<g clip-path="url(#clip0_15_14272)">
<g clip-path="url(#clip1_15_14272)">
<path d="M-0.5 -24L26.3333 2.83333" stroke="#222222" stroke-width="0.630746"/>
<path d="M26.3335 -24.0001L53.1668 2.83323" stroke="#222222" stroke-width="0.630746"/>
<path d="M53.1665 -24.0001L79.9998 2.83323" stroke="#222222" stroke-width="0.630746"/>
<path d="M80 -24.0001L106.833 2.83323" stroke="#222222" stroke-width="0.630746"/>
<path d="M106.833 -24.0001L133.667 2.83323" stroke="#222222" stroke-width="0.630746"/>
<path d="M133.667 -24.0001L160.5 2.83323" stroke="#222222" stroke-width="0.630746"/>
<path d="M160.5 -24.0001L187.333 2.83323" stroke="#222222" stroke-width="0.630746"/>
<path d="M187.333 -24.0001L214.167 2.83323" stroke="#222222" stroke-width="0.630746"/>
<path d="M214.167 -24.0001L241 2.83323" stroke="#222222" stroke-width="0.630746"/>
<path d="M241 -24.0001L267.833 2.83323" stroke="#222222" stroke-width="0.630746"/>
<path d="M267.833 -24.0001L294.667 2.83323" stroke="#222222" stroke-width="0.630746"/>
<path d="M294.667 -24.0001L321.5 2.83323" stroke="#222222" stroke-width="0.630746"/>
<path d="M321.5 -24.0001L348.333 2.83323" stroke="#222222" stroke-width="0.630746"/>
<path d="M348.333 -24.0001L375.167 2.83323" stroke="#222222" stroke-width="0.630746"/>
<path d="M375.167 -24.0001L402 2.83323" stroke="#222222" stroke-width="0.630746"/>
<path d="M402 -24.0001L428.833 2.83323" stroke="#222222" stroke-width="0.630746"/>
<path d="M428.833 -24.0001L455.667 2.83323" stroke="#222222" stroke-width="0.630746"/>
<path d="M455.667 -24.0001L482.5 2.83323" stroke="#222222" stroke-width="0.630746"/>
<path d="M482.5 -24.0001L509.333 2.83323" stroke="#222222" stroke-width="0.630746"/>
<path d="M-0.5 2.83311L26.3333 29.6664" stroke="#222222" stroke-width="0.630746"/>
<path d="M26.3335 2.83311L53.1668 29.6664" stroke="#222222" stroke-width="0.630746"/>
<path d="M53.1665 2.83311L79.9998 29.6664" stroke="#222222" stroke-width="0.630746"/>
<path d="M80 2.83311L106.833 29.6664" stroke="#222222" stroke-width="0.630746"/>
<path d="M106.833 2.83311L133.667 29.6664" stroke="#222222" stroke-width="0.630746"/>
<path d="M133.667 2.83311L160.5 29.6664" stroke="#222222" stroke-width="0.630746"/>
<path d="M160.5 2.83311L187.333 29.6664" stroke="#222222" stroke-width="0.630746"/>
<path d="M187.333 2.83311L214.167 29.6664" stroke="#222222" stroke-width="0.630746"/>
<path d="M214.167 2.83311L241 29.6664" stroke="#222222" stroke-width="0.630746"/>
<path d="M241 2.83311L267.833 29.6664" stroke="#222222" stroke-width="0.630746"/>
<path d="M267.833 2.83311L294.667 29.6664" stroke="#222222" stroke-width="0.630746"/>
<path d="M294.667 2.83311L321.5 29.6664" stroke="#222222" stroke-width="0.630746"/>
<path d="M321.5 2.83311L348.333 29.6664" stroke="#222222" stroke-width="0.630746"/>
<path d="M348.333 2.83311L375.167 29.6664" stroke="#222222" stroke-width="0.630746"/>
<path d="M375.167 2.83311L402 29.6664" stroke="#222222" stroke-width="0.630746"/>
<path d="M402 2.83311L428.833 29.6664" stroke="#222222" stroke-width="0.630746"/>
<path d="M428.833 2.83311L455.667 29.6664" stroke="#222222" stroke-width="0.630746"/>
<path d="M455.667 2.83311L482.5 29.6664" stroke="#222222" stroke-width="0.630746"/>
<path d="M482.5 2.83311L509.333 29.6664" stroke="#222222" stroke-width="0.630746"/>
<path d="M-0.5 29.6666L26.3333 56.4999" stroke="#222222" stroke-width="0.630746"/>
<path d="M26.3335 29.6666L53.1668 56.4999" stroke="#222222" stroke-width="0.630746"/>
<path d="M53.1665 29.6666L79.9998 56.4999" stroke="#222222" stroke-width="0.630746"/>
<path d="M80 29.6666L106.833 56.4999" stroke="#222222" stroke-width="0.630746"/>
<path d="M106.833 29.6666L133.667 56.4999" stroke="#222222" stroke-width="0.630746"/>
<path d="M133.667 29.6666L160.5 56.4999" stroke="#222222" stroke-width="0.630746"/>
<path d="M160.5 29.6666L187.333 56.4999" stroke="#222222" stroke-width="0.630746"/>
<path d="M187.333 29.6666L214.167 56.4999" stroke="#222222" stroke-width="0.630746"/>
<path d="M214.167 29.6666L241 56.4999" stroke="#222222" stroke-width="0.630746"/>
<path d="M241 29.6666L267.833 56.4999" stroke="#222222" stroke-width="0.630746"/>
<path d="M267.833 29.6666L294.667 56.4999" stroke="#222222" stroke-width="0.630746"/>
<path d="M294.667 29.6666L321.5 56.4999" stroke="#222222" stroke-width="0.630746"/>
<path d="M321.5 29.6666L348.333 56.4999" stroke="#222222" stroke-width="0.630746"/>
<path d="M348.333 29.6666L375.167 56.4999" stroke="#222222" stroke-width="0.630746"/>
<path d="M375.167 29.6666L402 56.4999" stroke="#222222" stroke-width="0.630746"/>
<path d="M402 29.6666L428.833 56.4999" stroke="#222222" stroke-width="0.630746"/>
<path d="M428.833 29.6666L455.667 56.4999" stroke="#222222" stroke-width="0.630746"/>
<path d="M455.667 29.6666L482.5 56.4999" stroke="#222222" stroke-width="0.630746"/>
<path d="M482.5 29.6666L509.333 56.4999" stroke="#222222" stroke-width="0.630746"/>
<path d="M-0.5 56.4998L26.3333 83.3331" stroke="#222222" stroke-width="0.630746"/>
<path d="M26.3335 56.4998L53.1668 83.3331" stroke="#222222" stroke-width="0.630746"/>
<path d="M53.1665 56.4998L79.9998 83.3331" stroke="#222222" stroke-width="0.630746"/>
<path d="M80 56.4998L106.833 83.3331" stroke="#222222" stroke-width="0.630746"/>
<path d="M106.833 56.4998L133.667 83.3331" stroke="#222222" stroke-width="0.630746"/>
<path d="M133.667 56.4998L160.5 83.3331" stroke="#222222" stroke-width="0.630746"/>
<path d="M160.5 56.4998L187.333 83.3331" stroke="#222222" stroke-width="0.630746"/>
<path d="M187.333 56.4998L214.167 83.3331" stroke="#222222" stroke-width="0.630746"/>
<path d="M214.167 56.4998L241 83.3331" stroke="#222222" stroke-width="0.630746"/>
<path d="M241 56.4998L267.833 83.3331" stroke="#222222" stroke-width="0.630746"/>
<path d="M267.833 56.4998L294.667 83.3331" stroke="#222222" stroke-width="0.630746"/>
<path d="M294.667 56.4998L321.5 83.3331" stroke="#222222" stroke-width="0.630746"/>
<path d="M321.5 56.4998L348.333 83.3331" stroke="#222222" stroke-width="0.630746"/>
<path d="M348.333 56.4998L375.167 83.3331" stroke="#222222" stroke-width="0.630746"/>
<path d="M375.167 56.4998L402 83.3331" stroke="#222222" stroke-width="0.630746"/>
<path d="M402 56.4998L428.833 83.3331" stroke="#222222" stroke-width="0.630746"/>
<path d="M428.833 56.4998L455.667 83.3331" stroke="#222222" stroke-width="0.630746"/>
<path d="M455.667 56.4998L482.5 83.3331" stroke="#222222" stroke-width="0.630746"/>
<path d="M482.5 56.4998L509.333 83.3331" stroke="#222222" stroke-width="0.630746"/>
<path d="M-0.5 83.3333L26.3333 110.167" stroke="#222222" stroke-width="0.630746"/>
<path d="M26.3335 83.3333L53.1668 110.167" stroke="#222222" stroke-width="0.630746"/>
<path d="M53.1665 83.3333L79.9998 110.167" stroke="#222222" stroke-width="0.630746"/>
<path d="M80 83.3333L106.833 110.167" stroke="#222222" stroke-width="0.630746"/>
<path d="M106.833 83.3333L133.667 110.167" stroke="#222222" stroke-width="0.630746"/>
<path d="M133.667 83.3333L160.5 110.167" stroke="#222222" stroke-width="0.630746"/>
<path d="M160.5 83.3333L187.333 110.167" stroke="#222222" stroke-width="0.630746"/>
<path d="M187.333 83.3333L214.167 110.167" stroke="#222222" stroke-width="0.630746"/>
<path d="M214.167 83.3333L241 110.167" stroke="#222222" stroke-width="0.630746"/>
<path d="M241 83.3333L267.833 110.167" stroke="#222222" stroke-width="0.630746"/>
<path d="M267.833 83.3333L294.667 110.167" stroke="#222222" stroke-width="0.630746"/>
<path d="M294.667 83.3333L321.5 110.167" stroke="#222222" stroke-width="0.630746"/>
<path d="M321.5 83.3333L348.333 110.167" stroke="#222222" stroke-width="0.630746"/>
<path d="M348.333 83.3333L375.167 110.167" stroke="#222222" stroke-width="0.630746"/>
<path d="M375.167 83.3333L402 110.167" stroke="#222222" stroke-width="0.630746"/>
<path d="M402 83.3333L428.833 110.167" stroke="#222222" stroke-width="0.630746"/>
<path d="M428.833 83.3333L455.667 110.167" stroke="#222222" stroke-width="0.630746"/>
<path d="M455.667 83.3333L482.5 110.167" stroke="#222222" stroke-width="0.630746"/>
<path d="M482.5 83.3333L509.333 110.167" stroke="#222222" stroke-width="0.630746"/>
<path d="M-0.5 110.166L26.3333 137" stroke="#222222" stroke-width="0.630746"/>
<path d="M26.3335 110.166L53.1668 137" stroke="#222222" stroke-width="0.630746"/>
<path d="M53.1665 110.166L79.9998 137" stroke="#222222" stroke-width="0.630746"/>
<path d="M80 110.166L106.833 137" stroke="#222222" stroke-width="0.630746"/>
<path d="M106.833 110.166L133.667 137" stroke="#222222" stroke-width="0.630746"/>
<path d="M133.667 110.166L160.5 137" stroke="#222222" stroke-width="0.630746"/>
<path d="M160.5 110.166L187.333 137" stroke="#222222" stroke-width="0.630746"/>
<path d="M187.333 110.166L214.167 137" stroke="#222222" stroke-width="0.630746"/>
<path d="M214.167 110.166L241 137" stroke="#222222" stroke-width="0.630746"/>
<path d="M241 110.166L267.833 137" stroke="#222222" stroke-width="0.630746"/>
<path d="M267.833 110.166L294.667 137" stroke="#222222" stroke-width="0.630746"/>
<path d="M294.667 110.166L321.5 137" stroke="#222222" stroke-width="0.630746"/>
<path d="M321.5 110.166L348.333 137" stroke="#222222" stroke-width="0.630746"/>
<path d="M348.333 110.166L375.167 137" stroke="#222222" stroke-width="0.630746"/>
<path d="M375.167 110.166L402 137" stroke="#222222" stroke-width="0.630746"/>
<path d="M402 110.166L428.833 137" stroke="#222222" stroke-width="0.630746"/>
<path d="M428.833 110.166L455.667 137" stroke="#222222" stroke-width="0.630746"/>
<path d="M455.667 110.166L482.5 137" stroke="#222222" stroke-width="0.630746"/>
<path d="M482.5 110.166L509.333 137" stroke="#222222" stroke-width="0.630746"/>
<path d="M-0.5 137L26.3333 163.833" stroke="#222222" stroke-width="0.630746"/>
<path d="M26.3335 137L53.1668 163.833" stroke="#222222" stroke-width="0.630746"/>
<path d="M53.1665 137L79.9998 163.833" stroke="#222222" stroke-width="0.630746"/>
<path d="M80 137L106.833 163.833" stroke="#222222" stroke-width="0.630746"/>
<path d="M106.833 137L133.667 163.833" stroke="#222222" stroke-width="0.630746"/>
<path d="M133.667 137L160.5 163.833" stroke="#222222" stroke-width="0.630746"/>
<path d="M160.5 137L187.333 163.833" stroke="#222222" stroke-width="0.630746"/>
<path d="M187.333 137L214.167 163.833" stroke="#222222" stroke-width="0.630746"/>
<path d="M214.167 137L241 163.833" stroke="#222222" stroke-width="0.630746"/>
<path d="M241 137L267.833 163.833" stroke="#222222" stroke-width="0.630746"/>
<path d="M267.833 137L294.667 163.833" stroke="#222222" stroke-width="0.630746"/>
<path d="M294.667 137L321.5 163.833" stroke="#C0343B" stroke-width="0.630746"/>
<path d="M321.5 137L348.333 163.833" stroke="#C0343B" stroke-width="0.630746"/>
<path d="M348.333 137L375.167 163.833" stroke="#C0343B" stroke-width="0.630746"/>
<path d="M375.167 137L402 163.833" stroke="#C0343B" stroke-width="0.630746"/>
<path d="M402 137L428.833 163.833" stroke="#C0343B" stroke-width="0.630746"/>
<path d="M428.833 137L455.667 163.833" stroke="#C0343B" stroke-width="0.630746"/>
<path d="M455.667 137L482.5 163.833" stroke="#222222" stroke-width="0.630746"/>
<path d="M482.5 137L509.333 163.833" stroke="#222222" stroke-width="0.630746"/>
<path d="M-0.5 163.833L26.3333 190.667" stroke="#222222" stroke-width="0.630746"/>
<path d="M26.3335 163.833L53.1668 190.667" stroke="#222222" stroke-width="0.630746"/>
<path d="M53.1665 163.833L79.9998 190.667" stroke="#222222" stroke-width="0.630746"/>
<path d="M80 163.833L106.833 190.667" stroke="#222222" stroke-width="0.630746"/>
<path d="M106.833 163.833L133.667 190.667" stroke="#222222" stroke-width="0.630746"/>
<path d="M133.667 163.833L160.5 190.667" stroke="#222222" stroke-width="0.630746"/>
<path d="M160.5 163.833L187.333 190.667" stroke="#222222" stroke-width="0.630746"/>
<path d="M187.333 163.833L214.167 190.667" stroke="#222222" stroke-width="0.630746"/>
<path d="M214.167 163.833L241 190.667" stroke="#222222" stroke-width="0.630746"/>
<path d="M241 163.833L267.833 190.667" stroke="#222222" stroke-width="0.630746"/>
<path d="M267.833 163.833L294.667 190.667" stroke="#222222" stroke-width="0.630746"/>
<path d="M294.667 163.833L321.5 190.667" stroke="#C0343B" stroke-width="0.630746"/>
<path d="M321.5 163.833L348.333 190.667" stroke="#C0343B" stroke-width="0.630746"/>
<path d="M348.333 163.833L375.167 190.667" stroke="#C0343B" stroke-width="0.630746"/>
<path d="M375.167 163.833L402 190.667" stroke="#C0343B" stroke-width="0.630746"/>
<path d="M402 163.833L428.833 190.667" stroke="#C0343B" stroke-width="0.630746"/>
<path d="M428.833 163.833L455.667 190.667" stroke="#C0343B" stroke-width="0.630746"/>
<path d="M455.667 163.833L482.5 190.667" stroke="#222222" stroke-width="0.630746"/>
<path d="M482.5 163.833L509.333 190.667" stroke="#222222" stroke-width="0.630746"/>
<path d="M-0.5 190.667L26.3333 217.5" stroke="#222222" stroke-width="0.630746"/>
<path d="M26.3335 190.667L53.1668 217.5" stroke="#222222" stroke-width="0.630746"/>
<path d="M53.1665 190.667L79.9998 217.5" stroke="#222222" stroke-width="0.630746"/>
<path d="M80 190.667L106.833 217.5" stroke="#222222" stroke-width="0.630746"/>
<path d="M106.833 190.667L133.667 217.5" stroke="#222222" stroke-width="0.630746"/>
<path d="M133.667 190.667L160.5 217.5" stroke="#222222" stroke-width="0.630746"/>
<path d="M160.5 190.667L187.333 217.5" stroke="#222222" stroke-width="0.630746"/>
<path d="M187.333 190.667L214.167 217.5" stroke="#222222" stroke-width="0.630746"/>
<path d="M214.167 190.667L241 217.5" stroke="#222222" stroke-width="0.630746"/>
<path d="M241 190.667L267.833 217.5" stroke="#222222" stroke-width="0.630746"/>
<path d="M267.833 190.667L294.667 217.5" stroke="#222222" stroke-width="0.630746"/>
<path d="M294.667 190.667L321.5 217.5" stroke="#C0343B" stroke-width="0.630746"/>
<path d="M321.5 190.667L348.333 217.5" stroke="#C0343B" stroke-width="0.630746"/>
<path d="M348.333 190.667L375.167 217.5" stroke="#C0343B" stroke-width="0.630746"/>
<path d="M375.167 190.667L402 217.5" stroke="#C0343B" stroke-width="0.630746"/>
<path d="M402 190.667L428.833 217.5" stroke="#C0343B" stroke-width="0.630746"/>
<path d="M428.833 190.667L455.667 217.5" stroke="#C0343B" stroke-width="0.630746"/>
<path d="M455.667 190.667L482.5 217.5" stroke="#222222" stroke-width="0.630746"/>
<path d="M482.5 190.667L509.333 217.5" stroke="#222222" stroke-width="0.630746"/>
<path d="M-0.5 217.5L26.3333 244.333" stroke="#222222" stroke-width="0.630746"/>
<path d="M26.3335 217.5L53.1668 244.333" stroke="#222222" stroke-width="0.630746"/>
<path d="M53.1665 217.5L79.9998 244.333" stroke="#222222" stroke-width="0.630746"/>
<path d="M80 217.5L106.833 244.333" stroke="#222222" stroke-width="0.630746"/>
<path d="M106.833 217.5L133.667 244.333" stroke="#222222" stroke-width="0.630746"/>
<path d="M133.667 217.5L160.5 244.333" stroke="#222222" stroke-width="0.630746"/>
<path d="M160.5 217.5L187.333 244.333" stroke="#222222" stroke-width="0.630746"/>
<path d="M187.333 217.5L214.167 244.333" stroke="#222222" stroke-width="0.630746"/>
<path d="M214.167 217.5L241 244.333" stroke="#222222" stroke-width="0.630746"/>
<path d="M241 217.5L267.833 244.333" stroke="#222222" stroke-width="0.630746"/>
<path d="M267.833 217.5L294.667 244.333" stroke="#222222" stroke-width="0.630746"/>
<path d="M294.667 217.5L321.5 244.333" stroke="#C0343B" stroke-width="0.630746"/>
<path d="M321.5 217.5L348.333 244.333" stroke="#C0343B" stroke-width="0.630746"/>
<path d="M348.333 217.5L375.167 244.333" stroke="#C0343B" stroke-width="0.630746"/>
<path d="M375.167 217.5L402 244.333" stroke="#C0343B" stroke-width="0.630746"/>
<path d="M402 217.5L428.833 244.333" stroke="#C0343B" stroke-width="0.630746"/>
<path d="M428.833 217.5L455.667 244.333" stroke="#C0343B" stroke-width="0.630746"/>
<path d="M455.667 217.5L482.5 244.333" stroke="#222222" stroke-width="0.630746"/>
<path d="M482.5 217.5L509.333 244.333" stroke="#222222" stroke-width="0.630746"/>
<path d="M-0.5 244.333L26.3333 271.166" stroke="#222222" stroke-width="0.630746"/>
<path d="M26.3335 244.333L53.1668 271.166" stroke="#222222" stroke-width="0.630746"/>
<path d="M53.1665 244.333L79.9998 271.166" stroke="#222222" stroke-width="0.630746"/>
<path d="M80 244.333L106.833 271.166" stroke="#222222" stroke-width="0.630746"/>
<path d="M106.833 244.333L133.667 271.166" stroke="#222222" stroke-width="0.630746"/>
<path d="M133.667 244.333L160.5 271.166" stroke="#222222" stroke-width="0.630746"/>
<path d="M160.5 244.333L187.333 271.166" stroke="#222222" stroke-width="0.630746"/>
<path d="M187.333 244.333L214.167 271.166" stroke="#222222" stroke-width="0.630746"/>
<path d="M214.167 244.333L241 271.166" stroke="#222222" stroke-width="0.630746"/>
<path d="M241 244.333L267.833 271.166" stroke="#222222" stroke-width="0.630746"/>
<path d="M267.833 244.333L294.667 271.166" stroke="#222222" stroke-width="0.630746"/>
<path d="M294.667 244.333L321.5 271.166" stroke="#C0343B" stroke-width="0.630746"/>
<path d="M321.5 244.333L348.333 271.166" stroke="#C0343B" stroke-width="0.630746"/>
<path d="M348.333 244.333L375.167 271.166" stroke="#C0343B" stroke-width="0.630746"/>
<path d="M375.167 244.333L402 271.166" stroke="#C0343B" stroke-width="0.630746"/>
<path d="M402 244.333L428.833 271.166" stroke="#C0343B" stroke-width="0.630746"/>
<path d="M428.833 244.333L455.667 271.166" stroke="#C0343B" stroke-width="0.630746"/>
<path d="M455.667 244.333L482.5 271.166" stroke="#222222" stroke-width="0.630746"/>
<path d="M482.5 244.333L509.333 271.166" stroke="#222222" stroke-width="0.630746"/>
<path d="M-0.5 271.167L26.3333 298" stroke="#222222" stroke-width="0.630746"/>
<path d="M26.3335 271.167L53.1668 298" stroke="#222222" stroke-width="0.630746"/>
<path d="M53.1665 271.167L79.9998 298" stroke="#222222" stroke-width="0.630746"/>
<path d="M80 271.167L106.833 298" stroke="#222222" stroke-width="0.630746"/>
<path d="M106.833 271.167L133.667 298" stroke="#222222" stroke-width="0.630746"/>
<path d="M133.667 271.167L160.5 298" stroke="#222222" stroke-width="0.630746"/>
<path d="M160.5 271.167L187.333 298" stroke="#222222" stroke-width="0.630746"/>
<path d="M187.333 271.167L214.167 298" stroke="#222222" stroke-width="0.630746"/>
<path d="M214.167 271.167L241 298" stroke="#222222" stroke-width="0.630746"/>
<path d="M241 271.167L267.833 298" stroke="#222222" stroke-width="0.630746"/>
<path d="M267.833 271.167L294.667 298" stroke="#222222" stroke-width="0.630746"/>
<path d="M294.667 271.167L321.5 298" stroke="#222222" stroke-width="0.630746"/>
<path d="M321.5 271.167L348.333 298" stroke="#222222" stroke-width="0.630746"/>
<path d="M348.333 271.167L375.167 298" stroke="#222222" stroke-width="0.630746"/>
<path d="M375.167 271.167L402 298" stroke="#222222" stroke-width="0.630746"/>
<path d="M402 271.167L428.833 298" stroke="#222222" stroke-width="0.630746"/>
<path d="M428.833 271.167L455.667 298" stroke="#222222" stroke-width="0.630746"/>
<path d="M455.667 271.167L482.5 298" stroke="#222222" stroke-width="0.630746"/>
<path d="M482.5 271.167L509.333 298" stroke="#222222" stroke-width="0.630746"/>
<path d="M-0.5 298L26.3333 324.833" stroke="#222222" stroke-width="0.630746"/>
<path d="M26.3335 298L53.1668 324.833" stroke="#222222" stroke-width="0.630746"/>
<path d="M53.1665 298L79.9998 324.833" stroke="#222222" stroke-width="0.630746"/>
<path d="M80 298L106.833 324.833" stroke="#222222" stroke-width="0.630746"/>
<path d="M106.833 298L133.667 324.833" stroke="#222222" stroke-width="0.630746"/>
<path d="M133.667 298L160.5 324.833" stroke="#222222" stroke-width="0.630746"/>
<path d="M160.5 298L187.333 324.833" stroke="#222222" stroke-width="0.630746"/>
<path d="M187.333 298L214.167 324.833" stroke="#222222" stroke-width="0.630746"/>
<path d="M214.167 298L241 324.833" stroke="#222222" stroke-width="0.630746"/>
<path d="M241 298L267.833 324.833" stroke="#222222" stroke-width="0.630746"/>
<path d="M267.833 298L294.667 324.833" stroke="#222222" stroke-width="0.630746"/>
<path d="M294.667 298L321.5 324.833" stroke="#222222" stroke-width="0.630746"/>
<path d="M321.5 298L348.333 324.833" stroke="#222222" stroke-width="0.630746"/>
<path d="M348.333 298L375.167 324.833" stroke="#222222" stroke-width="0.630746"/>
<path d="M375.167 298L402 324.833" stroke="#222222" stroke-width="0.630746"/>
<path d="M402 298L428.833 324.833" stroke="#222222" stroke-width="0.630746"/>
<path d="M428.833 298L455.667 324.833" stroke="#222222" stroke-width="0.630746"/>
<path d="M455.667 298L482.5 324.833" stroke="#222222" stroke-width="0.630746"/>
<path d="M482.5 298L509.333 324.833" stroke="#222222" stroke-width="0.630746"/>
<path d="M-0.5 324.833L26.3333 351.667" stroke="#222222" stroke-width="0.630746"/>
<path d="M26.3335 324.833L53.1668 351.667" stroke="#222222" stroke-width="0.630746"/>
<path d="M53.1665 324.833L79.9998 351.667" stroke="#222222" stroke-width="0.630746"/>
<path d="M80 324.833L106.833 351.667" stroke="#222222" stroke-width="0.630746"/>
<path d="M106.833 324.833L133.667 351.667" stroke="#222222" stroke-width="0.630746"/>
<path d="M133.667 324.833L160.5 351.667" stroke="#222222" stroke-width="0.630746"/>
<path d="M160.5 324.833L187.333 351.667" stroke="#222222" stroke-width="0.630746"/>
<path d="M187.333 324.833L214.167 351.667" stroke="#222222" stroke-width="0.630746"/>
<path d="M214.167 324.833L241 351.667" stroke="#222222" stroke-width="0.630746"/>
<path d="M241 324.833L267.833 351.667" stroke="#222222" stroke-width="0.630746"/>
<path d="M267.833 324.833L294.667 351.667" stroke="#222222" stroke-width="0.630746"/>
<path d="M294.667 324.833L321.5 351.667" stroke="#222222" stroke-width="0.630746"/>
<path d="M321.5 324.833L348.333 351.667" stroke="#222222" stroke-width="0.630746"/>
<path d="M348.333 324.833L375.167 351.667" stroke="#222222" stroke-width="0.630746"/>
<path d="M375.167 324.833L402 351.667" stroke="#222222" stroke-width="0.630746"/>
<path d="M402 324.833L428.833 351.667" stroke="#222222" stroke-width="0.630746"/>
<path d="M428.833 324.833L455.667 351.667" stroke="#222222" stroke-width="0.630746"/>
<path d="M455.667 324.833L482.5 351.667" stroke="#222222" stroke-width="0.630746"/>
<path d="M482.5 324.833L509.333 351.667" stroke="#222222" stroke-width="0.630746"/>
<path d="M-0.5 351.666L26.3333 378.5" stroke="#222222" stroke-width="0.630746"/>
<path d="M26.3335 351.666L53.1668 378.5" stroke="#222222" stroke-width="0.630746"/>
<path d="M53.1665 351.666L79.9998 378.5" stroke="#222222" stroke-width="0.630746"/>
<path d="M80 351.666L106.833 378.5" stroke="#222222" stroke-width="0.630746"/>
<path d="M106.833 351.666L133.667 378.5" stroke="#222222" stroke-width="0.630746"/>
<path d="M133.667 351.666L160.5 378.5" stroke="#222222" stroke-width="0.630746"/>
<path d="M160.5 351.666L187.333 378.5" stroke="#222222" stroke-width="0.630746"/>
<path d="M187.333 351.666L214.167 378.5" stroke="#222222" stroke-width="0.630746"/>
<path d="M214.167 351.666L241 378.5" stroke="#222222" stroke-width="0.630746"/>
<path d="M241 351.666L267.833 378.5" stroke="#222222" stroke-width="0.630746"/>
<path d="M267.833 351.666L294.667 378.5" stroke="#222222" stroke-width="0.630746"/>
<path d="M294.667 351.666L321.5 378.5" stroke="#222222" stroke-width="0.630746"/>
<path d="M321.5 351.666L348.333 378.5" stroke="#222222" stroke-width="0.630746"/>
<path d="M348.333 351.666L375.167 378.5" stroke="#222222" stroke-width="0.630746"/>
<path d="M375.167 351.666L402 378.5" stroke="#222222" stroke-width="0.630746"/>
<path d="M402 351.666L428.833 378.5" stroke="#222222" stroke-width="0.630746"/>
<path d="M428.833 351.666L455.667 378.5" stroke="#222222" stroke-width="0.630746"/>
<path d="M455.667 351.666L482.5 378.5" stroke="#222222" stroke-width="0.630746"/>
<path d="M482.5 351.666L509.333 378.5" stroke="#222222" stroke-width="0.630746"/>
<path d="M-0.5 378.5L26.3333 405.333" stroke="#222222" stroke-width="0.630746"/>
<path d="M26.3335 378.5L53.1668 405.333" stroke="#222222" stroke-width="0.630746"/>
<path d="M53.1665 378.5L79.9998 405.333" stroke="#222222" stroke-width="0.630746"/>
<path d="M80 378.5L106.833 405.333" stroke="#222222" stroke-width="0.630746"/>
<path d="M106.833 378.5L133.667 405.333" stroke="#222222" stroke-width="0.630746"/>
<path d="M133.667 378.5L160.5 405.333" stroke="#222222" stroke-width="0.630746"/>
<path d="M160.5 378.5L187.333 405.333" stroke="#222222" stroke-width="0.630746"/>
<path d="M187.333 378.5L214.167 405.333" stroke="#222222" stroke-width="0.630746"/>
<path d="M214.167 378.5L241 405.333" stroke="#222222" stroke-width="0.630746"/>
<path d="M241 378.5L267.833 405.333" stroke="#222222" stroke-width="0.630746"/>
<path d="M267.833 378.5L294.667 405.333" stroke="#222222" stroke-width="0.630746"/>
<path d="M294.667 378.5L321.5 405.333" stroke="#222222" stroke-width="0.630746"/>
<path d="M321.5 378.5L348.333 405.333" stroke="#222222" stroke-width="0.630746"/>
<path d="M348.333 378.5L375.167 405.333" stroke="#222222" stroke-width="0.630746"/>
<path d="M375.167 378.5L402 405.333" stroke="#222222" stroke-width="0.630746"/>
<path d="M402 378.5L428.833 405.333" stroke="#222222" stroke-width="0.630746"/>
<path d="M428.833 378.5L455.667 405.333" stroke="#222222" stroke-width="0.630746"/>
<path d="M455.667 378.5L482.5 405.333" stroke="#222222" stroke-width="0.630746"/>
<path d="M482.5 378.5L509.333 405.333" stroke="#222222" stroke-width="0.630746"/>
<path d="M-0.5 405.333L26.3333 432.167" stroke="#222222" stroke-width="0.630746"/>
<path d="M26.3335 405.333L53.1668 432.167" stroke="#222222" stroke-width="0.630746"/>
<path d="M53.1665 405.333L79.9998 432.167" stroke="#222222" stroke-width="0.630746"/>
<path d="M80 405.333L106.833 432.167" stroke="#222222" stroke-width="0.630746"/>
<path d="M106.833 405.333L133.667 432.167" stroke="#222222" stroke-width="0.630746"/>
<path d="M133.667 405.333L160.5 432.167" stroke="#222222" stroke-width="0.630746"/>
<path d="M160.5 405.333L187.333 432.167" stroke="#222222" stroke-width="0.630746"/>
<path d="M187.333 405.333L214.167 432.167" stroke="#222222" stroke-width="0.630746"/>
<path d="M214.167 405.333L241 432.167" stroke="#222222" stroke-width="0.630746"/>
<path d="M241 405.333L267.833 432.167" stroke="#222222" stroke-width="0.630746"/>
<path d="M267.833 405.333L294.667 432.167" stroke="#222222" stroke-width="0.630746"/>
<path d="M294.667 405.333L321.5 432.167" stroke="#222222" stroke-width="0.630746"/>
<path d="M321.5 405.333L348.333 432.167" stroke="#222222" stroke-width="0.630746"/>
<path d="M348.333 405.333L375.167 432.167" stroke="#222222" stroke-width="0.630746"/>
<path d="M375.167 405.333L402 432.167" stroke="#222222" stroke-width="0.630746"/>
<path d="M402 405.333L428.833 432.167" stroke="#222222" stroke-width="0.630746"/>
<path d="M428.833 405.333L455.667 432.167" stroke="#222222" stroke-width="0.630746"/>
<path d="M455.667 405.333L482.5 432.167" stroke="#222222" stroke-width="0.630746"/>
<path d="M482.5 405.333L509.333 432.167" stroke="#222222" stroke-width="0.630746"/>
</g>
<g clip-path="url(#clip2_15_14272)">
<path d="M455.667 3L482.5 29.8333" stroke="#222222" stroke-width="0.630746"/>
<path d="M482.5 2.9999L509.334 29.8332" stroke="#222222" stroke-width="0.630746"/>
<path d="M509.333 2.9999L536.167 29.8332" stroke="#222222" stroke-width="0.630746"/>
<path d="M536.167 2.9999L563 29.8332" stroke="#222222" stroke-width="0.630746"/>
<path d="M563 2.9999L589.834 29.8332" stroke="#222222" stroke-width="0.630746"/>
<path d="M589.834 2.9999L616.667 29.8332" stroke="#222222" stroke-width="0.630746"/>
<path d="M616.667 2.9999L643.5 29.8332" stroke="#222222" stroke-width="0.630746"/>
<path d="M643.5 2.9999L670.334 29.8332" stroke="#222222" stroke-width="0.630746"/>
<path d="M670.333 2.9999L697.167 29.8332" stroke="#222222" stroke-width="0.630746"/>
<path d="M697.167 2.9999L724 29.8332" stroke="#222222" stroke-width="0.630746"/>
<path d="M724 2.9999L750.834 29.8332" stroke="#222222" stroke-width="0.630746"/>
<path d="M750.833 2.9999L777.667 29.8332" stroke="#222222" stroke-width="0.630746"/>
<path d="M455.667 29.8331L482.5 56.6664" stroke="#222222" stroke-width="0.630746"/>
<path d="M482.5 29.8331L509.334 56.6664" stroke="#222222" stroke-width="0.630746"/>
<path d="M509.333 29.8331L536.167 56.6664" stroke="#222222" stroke-width="0.630746"/>
<path d="M536.167 29.8331L563 56.6664" stroke="#222222" stroke-width="0.630746"/>
<path d="M563 29.8331L589.834 56.6664" stroke="#222222" stroke-width="0.630746"/>
<path d="M589.834 29.8331L616.667 56.6664" stroke="#222222" stroke-width="0.630746"/>
<path d="M616.667 29.8331L643.5 56.6664" stroke="#222222" stroke-width="0.630746"/>
<path d="M643.5 29.8331L670.334 56.6664" stroke="#222222" stroke-width="0.630746"/>
<path d="M670.333 29.8331L697.167 56.6664" stroke="#222222" stroke-width="0.630746"/>
<path d="M697.167 29.8331L724 56.6664" stroke="#222222" stroke-width="0.630746"/>
<path d="M724 29.8331L750.834 56.6664" stroke="#222222" stroke-width="0.630746"/>
<path d="M750.833 29.8331L777.667 56.6664" stroke="#222222" stroke-width="0.630746"/>
<path d="M455.667 56.6666L482.5 83.4999" stroke="#222222" stroke-width="0.630746"/>
<path d="M482.5 56.6666L509.334 83.4999" stroke="#222222" stroke-width="0.630746"/>
<path d="M509.333 56.6666L536.167 83.4999" stroke="#222222" stroke-width="0.630746"/>
<path d="M536.167 56.6666L563 83.4999" stroke="#222222" stroke-width="0.630746"/>
<path d="M563 56.6666L589.834 83.4999" stroke="#222222" stroke-width="0.630746"/>
<path d="M589.834 56.6666L616.667 83.4999" stroke="#222222" stroke-width="0.630746"/>
<path d="M616.667 56.6666L643.5 83.4999" stroke="#222222" stroke-width="0.630746"/>
<path d="M643.5 56.6666L670.334 83.4999" stroke="#222222" stroke-width="0.630746"/>
<path d="M670.333 56.6666L697.167 83.4999" stroke="#222222" stroke-width="0.630746"/>
<path d="M697.167 56.6666L724 83.4999" stroke="#222222" stroke-width="0.630746"/>
<path d="M724 56.6666L750.834 83.4999" stroke="#222222" stroke-width="0.630746"/>
<path d="M750.833 56.6666L777.667 83.4999" stroke="#222222" stroke-width="0.630746"/>
<path d="M455.667 83.4998L482.5 110.333" stroke="#222222" stroke-width="0.630746"/>
<path d="M482.5 83.4998L509.334 110.333" stroke="#222222" stroke-width="0.630746"/>
<path d="M509.333 83.4998L536.167 110.333" stroke="#222222" stroke-width="0.630746"/>
<path d="M536.167 83.4998L563 110.333" stroke="#222222" stroke-width="0.630746"/>
<path d="M563 83.4998L589.834 110.333" stroke="#222222" stroke-width="0.630746"/>
<path d="M589.834 83.4998L616.667 110.333" stroke="#222222" stroke-width="0.630746"/>
<path d="M616.667 83.4998L643.5 110.333" stroke="#222222" stroke-width="0.630746"/>
<path d="M643.5 83.4998L670.334 110.333" stroke="#222222" stroke-width="0.630746"/>
<path d="M670.333 83.4998L697.167 110.333" stroke="#222222" stroke-width="0.630746"/>
<path d="M697.167 83.4998L724 110.333" stroke="#222222" stroke-width="0.630746"/>
<path d="M724 83.4998L750.834 110.333" stroke="#222222" stroke-width="0.630746"/>
<path d="M750.833 83.4998L777.667 110.333" stroke="#222222" stroke-width="0.630746"/>
<path d="M455.667 110.333L482.5 137.167" stroke="#222222" stroke-width="0.630746"/>
<path d="M482.5 110.333L509.334 137.167" stroke="#222222" stroke-width="0.630746"/>
<path d="M509.333 110.333L536.167 137.167" stroke="#222222" stroke-width="0.630746"/>
<path d="M536.167 110.333L563 137.167" stroke="#222222" stroke-width="0.630746"/>
<path d="M563 110.333L589.834 137.167" stroke="#222222" stroke-width="0.630746"/>
<path d="M589.834 110.333L616.667 137.167" stroke="#222222" stroke-width="0.630746"/>
<path d="M616.667 110.333L643.5 137.167" stroke="#222222" stroke-width="0.630746"/>
<path d="M643.5 110.333L670.334 137.167" stroke="#222222" stroke-width="0.630746"/>
<path d="M670.333 110.333L697.167 137.167" stroke="#222222" stroke-width="0.630746"/>
<path d="M697.167 110.333L724 137.167" stroke="#222222" stroke-width="0.630746"/>
<path d="M724 110.333L750.834 137.167" stroke="#222222" stroke-width="0.630746"/>
<path d="M750.833 110.333L777.667 137.167" stroke="#222222" stroke-width="0.630746"/>
<path d="M455.667 137.166L482.5 164" stroke="#222222" stroke-width="0.630746"/>
<path d="M482.5 137.166L509.334 164" stroke="#222222" stroke-width="0.630746"/>
<path d="M509.333 137.166L536.167 164" stroke="#222222" stroke-width="0.630746"/>
<path d="M536.167 137.166L563 164" stroke="#222222" stroke-width="0.630746"/>
<path d="M563 137.166L589.834 164" stroke="#222222" stroke-width="0.630746"/>
<path d="M589.834 137.166L616.667 164" stroke="#222222" stroke-width="0.630746"/>
<path d="M616.667 137.166L643.5 164" stroke="#222222" stroke-width="0.630746"/>
<path d="M643.5 137.166L670.334 164" stroke="#222222" stroke-width="0.630746"/>
<path d="M670.333 137.166L697.167 164" stroke="#222222" stroke-width="0.630746"/>
<path d="M697.167 137.166L724 164" stroke="#222222" stroke-width="0.630746"/>
<path d="M724 137.166L750.834 164" stroke="#222222" stroke-width="0.630746"/>
<path d="M750.833 137.166L777.667 164" stroke="#222222" stroke-width="0.630746"/>
<path d="M455.667 164L482.5 190.833" stroke="#222222" stroke-width="0.630746"/>
<path d="M482.5 164L509.334 190.833" stroke="#222222" stroke-width="0.630746"/>
<path d="M509.333 164L536.167 190.833" stroke="#222222" stroke-width="0.630746"/>
<path d="M536.167 164L563 190.833" stroke="#222222" stroke-width="0.630746"/>
<path d="M563 164L589.834 190.833" stroke="#222222" stroke-width="0.630746"/>
<path d="M589.834 164L616.667 190.833" stroke="#222222" stroke-width="0.630746"/>
<path d="M616.667 164L643.5 190.833" stroke="#222222" stroke-width="0.630746"/>
<path d="M643.5 164L670.334 190.833" stroke="#222222" stroke-width="0.630746"/>
<path d="M670.333 164L697.167 190.833" stroke="#222222" stroke-width="0.630746"/>
<path d="M697.167 164L724 190.833" stroke="#222222" stroke-width="0.630746"/>
<path d="M724 164L750.834 190.833" stroke="#222222" stroke-width="0.630746"/>
<path d="M750.833 164L777.667 190.833" stroke="#222222" stroke-width="0.630746"/>
<path d="M455.667 190.833L482.5 217.667" stroke="#222222" stroke-width="0.630746"/>
<path d="M482.5 190.833L509.334 217.667" stroke="#222222" stroke-width="0.630746"/>
<path d="M509.333 190.833L536.167 217.667" stroke="#222222" stroke-width="0.630746"/>
<path d="M536.167 190.833L563 217.667" stroke="#222222" stroke-width="0.630746"/>
<path d="M563 190.833L589.834 217.667" stroke="#222222" stroke-width="0.630746"/>
<path d="M589.834 190.833L616.667 217.667" stroke="#222222" stroke-width="0.630746"/>
<path d="M616.667 190.833L643.5 217.667" stroke="#222222" stroke-width="0.630746"/>
<path d="M643.5 190.833L670.334 217.667" stroke="#222222" stroke-width="0.630746"/>
<path d="M670.333 190.833L697.167 217.667" stroke="#222222" stroke-width="0.630746"/>
<path d="M697.167 190.833L724 217.667" stroke="#222222" stroke-width="0.630746"/>
<path d="M724 190.833L750.834 217.667" stroke="#222222" stroke-width="0.630746"/>
<path d="M750.833 190.833L777.667 217.667" stroke="#222222" stroke-width="0.630746"/>
<path d="M455.667 217.667L482.5 244.5" stroke="#222222" stroke-width="0.630746"/>
<path d="M482.5 217.667L509.334 244.5" stroke="#222222" stroke-width="0.630746"/>
<path d="M509.333 217.667L536.167 244.5" stroke="#222222" stroke-width="0.630746"/>
<path d="M536.167 217.667L563 244.5" stroke="#222222" stroke-width="0.630746"/>
<path d="M563 217.667L589.834 244.5" stroke="#222222" stroke-width="0.630746"/>
<path d="M589.834 217.667L616.667 244.5" stroke="#222222" stroke-width="0.630746"/>
<path d="M616.667 217.667L643.5 244.5" stroke="#222222" stroke-width="0.630746"/>
<path d="M643.5 217.667L670.334 244.5" stroke="#222222" stroke-width="0.630746"/>
<path d="M670.333 217.667L697.167 244.5" stroke="#222222" stroke-width="0.630746"/>
<path d="M697.167 217.667L724 244.5" stroke="#222222" stroke-width="0.630746"/>
<path d="M724 217.667L750.834 244.5" stroke="#222222" stroke-width="0.630746"/>
<path d="M750.833 217.667L777.667 244.5" stroke="#222222" stroke-width="0.630746"/>
<path d="M455.667 244.5L482.5 271.333" stroke="#222222" stroke-width="0.630746"/>
<path d="M482.5 244.5L509.334 271.333" stroke="#222222" stroke-width="0.630746"/>
<path d="M509.333 244.5L536.167 271.333" stroke="#222222" stroke-width="0.630746"/>
<path d="M536.167 244.5L563 271.333" stroke="#222222" stroke-width="0.630746"/>
<path d="M563 244.5L589.834 271.333" stroke="#222222" stroke-width="0.630746"/>
<path d="M589.834 244.5L616.667 271.333" stroke="#222222" stroke-width="0.630746"/>
<path d="M616.667 244.5L643.5 271.333" stroke="#222222" stroke-width="0.630746"/>
<path d="M643.5 244.5L670.334 271.333" stroke="#222222" stroke-width="0.630746"/>
<path d="M670.333 244.5L697.167 271.333" stroke="#222222" stroke-width="0.630746"/>
<path d="M697.167 244.5L724 271.333" stroke="#222222" stroke-width="0.630746"/>
<path d="M724 244.5L750.834 271.333" stroke="#222222" stroke-width="0.630746"/>
<path d="M750.833 244.5L777.667 271.333" stroke="#222222" stroke-width="0.630746"/>
<path d="M455.667 271.333L482.5 298.166" stroke="#222222" stroke-width="0.630746"/>
<path d="M482.5 271.333L509.334 298.166" stroke="#222222" stroke-width="0.630746"/>
<path d="M509.333 271.333L536.167 298.166" stroke="#222222" stroke-width="0.630746"/>
<path d="M536.167 271.333L563 298.166" stroke="#222222" stroke-width="0.630746"/>
<path d="M563 271.333L589.834 298.166" stroke="#222222" stroke-width="0.630746"/>
<path d="M589.834 271.333L616.667 298.166" stroke="#222222" stroke-width="0.630746"/>
<path d="M616.667 271.333L643.5 298.166" stroke="#222222" stroke-width="0.630746"/>
<path d="M643.5 271.333L670.334 298.166" stroke="#222222" stroke-width="0.630746"/>
<path d="M670.333 271.333L697.167 298.166" stroke="#222222" stroke-width="0.630746"/>
<path d="M697.167 271.333L724 298.166" stroke="#222222" stroke-width="0.630746"/>
<path d="M724 271.333L750.834 298.166" stroke="#222222" stroke-width="0.630746"/>
<path d="M750.833 271.333L777.667 298.166" stroke="#222222" stroke-width="0.630746"/>
<path d="M455.667 298.167L482.5 325" stroke="#222222" stroke-width="0.630746"/>
<path d="M482.5 298.167L509.334 325" stroke="#222222" stroke-width="0.630746"/>
<path d="M509.333 298.167L536.167 325" stroke="#222222" stroke-width="0.630746"/>
<path d="M536.167 298.167L563 325" stroke="#222222" stroke-width="0.630746"/>
<path d="M563 298.167L589.834 325" stroke="#222222" stroke-width="0.630746"/>
<path d="M589.834 298.167L616.667 325" stroke="#222222" stroke-width="0.630746"/>
<path d="M616.667 298.167L643.5 325" stroke="#222222" stroke-width="0.630746"/>
<path d="M643.5 298.167L670.334 325" stroke="#222222" stroke-width="0.630746"/>
<path d="M670.333 298.167L697.167 325" stroke="#222222" stroke-width="0.630746"/>
<path d="M697.167 298.167L724 325" stroke="#222222" stroke-width="0.630746"/>
<path d="M724 298.167L750.834 325" stroke="#222222" stroke-width="0.630746"/>
<path d="M750.833 298.167L777.667 325" stroke="#222222" stroke-width="0.630746"/>
<path d="M455.667 325L482.5 351.833" stroke="#222222" stroke-width="0.630746"/>
<path d="M482.5 325L509.334 351.833" stroke="#222222" stroke-width="0.630746"/>
<path d="M509.333 325L536.167 351.833" stroke="#222222" stroke-width="0.630746"/>
<path d="M536.167 325L563 351.833" stroke="#222222" stroke-width="0.630746"/>
<path d="M563 325L589.834 351.833" stroke="#222222" stroke-width="0.630746"/>
<path d="M589.834 325L616.667 351.833" stroke="#222222" stroke-width="0.630746"/>
<path d="M616.667 325L643.5 351.833" stroke="#222222" stroke-width="0.630746"/>
<path d="M643.5 325L670.334 351.833" stroke="#222222" stroke-width="0.630746"/>
<path d="M670.333 325L697.167 351.833" stroke="#222222" stroke-width="0.630746"/>
<path d="M697.167 325L724 351.833" stroke="#222222" stroke-width="0.630746"/>
<path d="M724 325L750.834 351.833" stroke="#222222" stroke-width="0.630746"/>
<path d="M750.833 325L777.667 351.833" stroke="#222222" stroke-width="0.630746"/>
<path d="M455.667 351.833L482.5 378.667" stroke="#222222" stroke-width="0.630746"/>
<path d="M482.5 351.833L509.334 378.667" stroke="#222222" stroke-width="0.630746"/>
<path d="M509.333 351.833L536.167 378.667" stroke="#222222" stroke-width="0.630746"/>
<path d="M536.167 351.833L563 378.667" stroke="#222222" stroke-width="0.630746"/>
<path d="M563 351.833L589.834 378.667" stroke="#222222" stroke-width="0.630746"/>
<path d="M589.834 351.833L616.667 378.667" stroke="#222222" stroke-width="0.630746"/>
<path d="M616.667 351.833L643.5 378.667" stroke="#222222" stroke-width="0.630746"/>
<path d="M643.5 351.833L670.334 378.667" stroke="#222222" stroke-width="0.630746"/>
<path d="M670.333 351.833L697.167 378.667" stroke="#222222" stroke-width="0.630746"/>
<path d="M697.167 351.833L724 378.667" stroke="#222222" stroke-width="0.630746"/>
<path d="M724 351.833L750.834 378.667" stroke="#222222" stroke-width="0.630746"/>
<path d="M750.833 351.833L777.667 378.667" stroke="#222222" stroke-width="0.630746"/>
<path d="M455.667 378.666L482.5 405.5" stroke="#222222" stroke-width="0.630746"/>
<path d="M482.5 378.666L509.334 405.5" stroke="#222222" stroke-width="0.630746"/>
<path d="M509.333 378.666L536.167 405.5" stroke="#222222" stroke-width="0.630746"/>
<path d="M536.167 378.666L563 405.5" stroke="#222222" stroke-width="0.630746"/>
<path d="M563 378.666L589.834 405.5" stroke="#222222" stroke-width="0.630746"/>
<path d="M589.834 378.666L616.667 405.5" stroke="#222222" stroke-width="0.630746"/>
<path d="M616.667 378.666L643.5 405.5" stroke="#222222" stroke-width="0.630746"/>
<path d="M643.5 378.666L670.334 405.5" stroke="#222222" stroke-width="0.630746"/>
<path d="M670.333 378.666L697.167 405.5" stroke="#222222" stroke-width="0.630746"/>
<path d="M697.167 378.666L724 405.5" stroke="#222222" stroke-width="0.630746"/>
<path d="M724 378.666L750.834 405.5" stroke="#222222" stroke-width="0.630746"/>
<path d="M750.833 378.666L777.667 405.5" stroke="#222222" stroke-width="0.630746"/>
<path d="M455.667 405.5L482.5 432.333" stroke="#222222" stroke-width="0.630746"/>
<path d="M482.5 405.5L509.334 432.333" stroke="#222222" stroke-width="0.630746"/>
<path d="M509.333 405.5L536.167 432.333" stroke="#222222" stroke-width="0.630746"/>
<path d="M536.167 405.5L563 432.333" stroke="#222222" stroke-width="0.630746"/>
<path d="M563 405.5L589.834 432.333" stroke="#222222" stroke-width="0.630746"/>
<path d="M589.834 405.5L616.667 432.333" stroke="#222222" stroke-width="0.630746"/>
<path d="M616.667 405.5L643.5 432.333" stroke="#222222" stroke-width="0.630746"/>
<path d="M643.5 405.5L670.334 432.333" stroke="#222222" stroke-width="0.630746"/>
<path d="M670.333 405.5L697.167 432.333" stroke="#222222" stroke-width="0.630746"/>
<path d="M697.167 405.5L724 432.333" stroke="#222222" stroke-width="0.630746"/>
<path d="M724 405.5L750.834 432.333" stroke="#222222" stroke-width="0.630746"/>
<path d="M750.833 405.5L777.667 432.333" stroke="#222222" stroke-width="0.630746"/>
</g>
</g>
<defs>
<clipPath id="clip0_15_14272">
<rect width="775" height="421" rx="20" fill="white"/>
</clipPath>
<clipPath id="clip1_15_14272">
<rect width="483" height="483" fill="white" transform="translate(-0.5 -24)"/>
</clipPath>
<clipPath id="clip2_15_14272">
<rect width="483" height="483" fill="white" transform="translate(455.667 3)"/>
</clipPath>
</defs>
</svg>
