<svg width="775" height="422" viewBox="0 0 775 422" fill="none" xmlns="http://www.w3.org/2000/svg">
<g clip-path="url(#clip0_13_12709)">
<path d="M18.6874 18.4149C20.2458 18.4149 21.5091 17.1516 21.5091 15.5932C21.5091 14.0348 20.2458 12.7715 18.6874 12.7715C17.129 12.7715 15.8657 14.0348 15.8657 15.5932C15.8657 17.1516 17.129 18.4149 18.6874 18.4149Z" stroke="black" stroke-width="0.946119"/>
<path d="M62.0107 18.4149C63.569 18.4149 64.8324 17.1516 64.8324 15.5932C64.8324 14.0348 63.569 12.7715 62.0107 12.7715C60.4523 12.7715 59.189 14.0348 59.189 15.5932C59.189 17.1516 60.4523 18.4149 62.0107 18.4149Z" stroke="black" stroke-width="0.946119"/>
<path d="M105.333 18.4149C106.892 18.4149 108.155 17.1516 108.155 15.5932C108.155 14.0348 106.892 12.7715 105.333 12.7715C103.775 12.7715 102.512 14.0348 102.512 15.5932C102.512 17.1516 103.775 18.4149 105.333 18.4149Z" stroke="black" stroke-width="0.946119"/>
<path d="M148.657 18.4149C150.215 18.4149 151.478 17.1516 151.478 15.5932C151.478 14.0348 150.215 12.7715 148.657 12.7715C147.098 12.7715 145.835 14.0348 145.835 15.5932C145.835 17.1516 147.098 18.4149 148.657 18.4149Z" stroke="black" stroke-width="0.946119"/>
<path d="M191.979 18.4149C193.538 18.4149 194.801 17.1516 194.801 15.5932C194.801 14.0348 193.538 12.7715 191.979 12.7715C190.421 12.7715 189.158 14.0348 189.158 15.5932C189.158 17.1516 190.421 18.4149 191.979 18.4149Z" stroke="black" stroke-width="0.946119"/>
<path d="M235.302 18.4149C236.861 18.4149 238.124 17.1516 238.124 15.5932C238.124 14.0348 236.861 12.7715 235.302 12.7715C233.744 12.7715 232.481 14.0348 232.481 15.5932C232.481 17.1516 233.744 18.4149 235.302 18.4149Z" stroke="black" stroke-width="0.946119"/>
<path d="M278.625 18.4149C280.184 18.4149 281.447 17.1516 281.447 15.5932C281.447 14.0348 280.184 12.7715 278.625 12.7715C277.067 12.7715 275.804 14.0348 275.804 15.5932C275.804 17.1516 277.067 18.4149 278.625 18.4149Z" stroke="black" stroke-width="0.946119"/>
<path d="M321.948 18.4149C323.507 18.4149 324.77 17.1516 324.77 15.5932C324.77 14.0348 323.507 12.7715 321.948 12.7715C320.39 12.7715 319.127 14.0348 319.127 15.5932C319.127 17.1516 320.39 18.4149 321.948 18.4149Z" stroke="black" stroke-width="0.946119"/>
<path d="M365.271 18.4149C366.83 18.4149 368.093 17.1516 368.093 15.5932C368.093 14.0348 366.83 12.7715 365.271 12.7715C363.713 12.7715 362.45 14.0348 362.45 15.5932C362.45 17.1516 363.713 18.4149 365.271 18.4149Z" stroke="black" stroke-width="0.946119"/>
<path d="M408.594 18.4149C410.153 18.4149 411.416 17.1516 411.416 15.5932C411.416 14.0348 410.153 12.7715 408.594 12.7715C407.036 12.7715 405.773 14.0348 405.773 15.5932C405.773 17.1516 407.036 18.4149 408.594 18.4149Z" stroke="black" stroke-width="0.946119"/>
<path d="M451.917 18.4149C453.476 18.4149 454.739 17.1516 454.739 15.5932C454.739 14.0348 453.476 12.7715 451.917 12.7715C450.359 12.7715 449.096 14.0348 449.096 15.5932C449.096 17.1516 450.359 18.4149 451.917 18.4149Z" stroke="black" stroke-width="0.946119"/>
<path d="M495.241 18.4149C496.799 18.4149 498.062 17.1516 498.062 15.5932C498.062 14.0348 496.799 12.7715 495.241 12.7715C493.682 12.7715 492.419 14.0348 492.419 15.5932C492.419 17.1516 493.682 18.4149 495.241 18.4149Z" stroke="black" stroke-width="0.946119"/>
<path d="M538.563 18.4149C540.122 18.4149 541.385 17.1516 541.385 15.5932C541.385 14.0348 540.122 12.7715 538.563 12.7715C537.005 12.7715 535.741 14.0348 535.741 15.5932C535.741 17.1516 537.005 18.4149 538.563 18.4149Z" stroke="black" stroke-width="0.946119"/>
<path d="M581.886 18.4149C583.445 18.4149 584.708 17.1516 584.708 15.5932C584.708 14.0348 583.445 12.7715 581.886 12.7715C580.328 12.7715 579.064 14.0348 579.064 15.5932C579.064 17.1516 580.328 18.4149 581.886 18.4149Z" stroke="black" stroke-width="0.946119"/>
<path d="M625.209 18.4149C626.768 18.4149 628.031 17.1516 628.031 15.5932C628.031 14.0348 626.768 12.7715 625.209 12.7715C623.651 12.7715 622.387 14.0348 622.387 15.5932C622.387 17.1516 623.651 18.4149 625.209 18.4149Z" stroke="black" stroke-width="0.946119"/>
<path d="M668.532 18.4149C670.091 18.4149 671.354 17.1516 671.354 15.5932C671.354 14.0348 670.091 12.7715 668.532 12.7715C666.974 12.7715 665.71 14.0348 665.71 15.5932C665.71 17.1516 666.974 18.4149 668.532 18.4149Z" stroke="black" stroke-width="0.946119"/>
<path d="M711.855 18.4149C713.414 18.4149 714.677 17.1516 714.677 15.5932C714.677 14.0348 713.414 12.7715 711.855 12.7715C710.297 12.7715 709.034 14.0348 709.034 15.5932C709.034 17.1516 710.297 18.4149 711.855 18.4149Z" stroke="black" stroke-width="0.946119"/>
<path d="M755.178 18.4149C756.737 18.4149 758 17.1516 758 15.5932C758 14.0348 756.737 12.7715 755.178 12.7715C753.62 12.7715 752.357 14.0348 752.357 15.5932C752.357 17.1516 753.62 18.4149 755.178 18.4149Z" stroke="black" stroke-width="0.946119"/>
<path d="M18.6874 61.7379C20.2458 61.7379 21.5091 60.4746 21.5091 58.9162C21.5091 57.3578 20.2458 56.0945 18.6874 56.0945C17.129 56.0945 15.8657 57.3578 15.8657 58.9162C15.8657 60.4746 17.129 61.7379 18.6874 61.7379Z" stroke="black" stroke-width="0.946119"/>
<path d="M62.0107 61.7379C63.569 61.7379 64.8324 60.4746 64.8324 58.9162C64.8324 57.3578 63.569 56.0945 62.0107 56.0945C60.4523 56.0945 59.189 57.3578 59.189 58.9162C59.189 60.4746 60.4523 61.7379 62.0107 61.7379Z" stroke="black" stroke-width="0.946119"/>
<path d="M105.333 61.7379C106.892 61.7379 108.155 60.4746 108.155 58.9162C108.155 57.3578 106.892 56.0945 105.333 56.0945C103.775 56.0945 102.512 57.3578 102.512 58.9162C102.512 60.4746 103.775 61.7379 105.333 61.7379Z" stroke="black" stroke-width="0.946119"/>
<path d="M148.657 61.7379C150.215 61.7379 151.478 60.4746 151.478 58.9162C151.478 57.3578 150.215 56.0945 148.657 56.0945C147.098 56.0945 145.835 57.3578 145.835 58.9162C145.835 60.4746 147.098 61.7379 148.657 61.7379Z" stroke="black" stroke-width="0.946119"/>
<path d="M191.979 61.7379C193.538 61.7379 194.801 60.4746 194.801 58.9162C194.801 57.3578 193.538 56.0945 191.979 56.0945C190.421 56.0945 189.158 57.3578 189.158 58.9162C189.158 60.4746 190.421 61.7379 191.979 61.7379Z" stroke="black" stroke-width="0.946119"/>
<path d="M235.302 61.7379C236.861 61.7379 238.124 60.4746 238.124 58.9162C238.124 57.3578 236.861 56.0945 235.302 56.0945C233.744 56.0945 232.481 57.3578 232.481 58.9162C232.481 60.4746 233.744 61.7379 235.302 61.7379Z" stroke="black" stroke-width="0.946119"/>
<path d="M278.625 61.7379C280.184 61.7379 281.447 60.4746 281.447 58.9162C281.447 57.3578 280.184 56.0945 278.625 56.0945C277.067 56.0945 275.804 57.3578 275.804 58.9162C275.804 60.4746 277.067 61.7379 278.625 61.7379Z" stroke="black" stroke-width="0.946119"/>
<path d="M321.948 61.7379C323.507 61.7379 324.77 60.4746 324.77 58.9162C324.77 57.3578 323.507 56.0945 321.948 56.0945C320.39 56.0945 319.127 57.3578 319.127 58.9162C319.127 60.4746 320.39 61.7379 321.948 61.7379Z" stroke="black" stroke-width="0.946119"/>
<path d="M365.271 61.7379C366.83 61.7379 368.093 60.4746 368.093 58.9162C368.093 57.3578 366.83 56.0945 365.271 56.0945C363.713 56.0945 362.45 57.3578 362.45 58.9162C362.45 60.4746 363.713 61.7379 365.271 61.7379Z" stroke="black" stroke-width="0.946119"/>
<path d="M408.594 61.7379C410.153 61.7379 411.416 60.4746 411.416 58.9162C411.416 57.3578 410.153 56.0945 408.594 56.0945C407.036 56.0945 405.773 57.3578 405.773 58.9162C405.773 60.4746 407.036 61.7379 408.594 61.7379Z" stroke="black" stroke-width="0.946119"/>
<path d="M451.917 61.7379C453.476 61.7379 454.739 60.4746 454.739 58.9162C454.739 57.3578 453.476 56.0945 451.917 56.0945C450.359 56.0945 449.096 57.3578 449.096 58.9162C449.096 60.4746 450.359 61.7379 451.917 61.7379Z" stroke="black" stroke-width="0.946119"/>
<path d="M495.241 61.7379C496.799 61.7379 498.062 60.4746 498.062 58.9162C498.062 57.3578 496.799 56.0945 495.241 56.0945C493.682 56.0945 492.419 57.3578 492.419 58.9162C492.419 60.4746 493.682 61.7379 495.241 61.7379Z" stroke="black" stroke-width="0.946119"/>
<path d="M538.563 61.7379C540.122 61.7379 541.385 60.4746 541.385 58.9162C541.385 57.3578 540.122 56.0945 538.563 56.0945C537.005 56.0945 535.741 57.3578 535.741 58.9162C535.741 60.4746 537.005 61.7379 538.563 61.7379Z" stroke="black" stroke-width="0.946119"/>
<path d="M581.886 61.7379C583.445 61.7379 584.708 60.4746 584.708 58.9162C584.708 57.3578 583.445 56.0945 581.886 56.0945C580.328 56.0945 579.064 57.3578 579.064 58.9162C579.064 60.4746 580.328 61.7379 581.886 61.7379Z" stroke="black" stroke-width="0.946119"/>
<path d="M625.209 61.7379C626.768 61.7379 628.031 60.4746 628.031 58.9162C628.031 57.3578 626.768 56.0945 625.209 56.0945C623.651 56.0945 622.387 57.3578 622.387 58.9162C622.387 60.4746 623.651 61.7379 625.209 61.7379Z" stroke="black" stroke-width="0.946119"/>
<path d="M668.532 61.7379C670.091 61.7379 671.354 60.4746 671.354 58.9162C671.354 57.3578 670.091 56.0945 668.532 56.0945C666.974 56.0945 665.71 57.3578 665.71 58.9162C665.71 60.4746 666.974 61.7379 668.532 61.7379Z" stroke="black" stroke-width="0.946119"/>
<path d="M711.855 61.7379C713.414 61.7379 714.677 60.4746 714.677 58.9162C714.677 57.3578 713.414 56.0945 711.855 56.0945C710.297 56.0945 709.034 57.3578 709.034 58.9162C709.034 60.4746 710.297 61.7379 711.855 61.7379Z" stroke="black" stroke-width="0.946119"/>
<path d="M755.178 61.7379C756.737 61.7379 758 60.4746 758 58.9162C758 57.3578 756.737 56.0945 755.178 56.0945C753.62 56.0945 752.357 57.3578 752.357 58.9162C752.357 60.4746 753.62 61.7379 755.178 61.7379Z" stroke="black" stroke-width="0.946119"/>
<path d="M18.6874 105.061C20.2458 105.061 21.5091 103.798 21.5091 102.239C21.5091 100.681 20.2458 99.4175 18.6874 99.4175C17.129 99.4175 15.8657 100.681 15.8657 102.239C15.8657 103.798 17.129 105.061 18.6874 105.061Z" stroke="black" stroke-width="0.946119"/>
<path d="M62.0107 105.061C63.569 105.061 64.8324 103.798 64.8324 102.239C64.8324 100.681 63.569 99.4175 62.0107 99.4175C60.4523 99.4175 59.189 100.681 59.189 102.239C59.189 103.798 60.4523 105.061 62.0107 105.061Z" stroke="black" stroke-width="0.946119"/>
<path d="M105.333 105.061C106.892 105.061 108.155 103.798 108.155 102.239C108.155 100.681 106.892 99.4175 105.333 99.4175C103.775 99.4175 102.512 100.681 102.512 102.239C102.512 103.798 103.775 105.061 105.333 105.061Z" stroke="black" stroke-width="0.946119"/>
<path d="M148.657 105.061C150.215 105.061 151.478 103.798 151.478 102.239C151.478 100.681 150.215 99.4175 148.657 99.4175C147.098 99.4175 145.835 100.681 145.835 102.239C145.835 103.798 147.098 105.061 148.657 105.061Z" stroke="black" stroke-width="0.946119"/>
<path d="M191.979 105.061C193.538 105.061 194.801 103.798 194.801 102.239C194.801 100.681 193.538 99.4175 191.979 99.4175C190.421 99.4175 189.158 100.681 189.158 102.239C189.158 103.798 190.421 105.061 191.979 105.061Z" stroke="black" stroke-width="0.946119"/>
<path d="M235.302 105.061C236.861 105.061 238.124 103.798 238.124 102.239C238.124 100.681 236.861 99.4175 235.302 99.4175C233.744 99.4175 232.481 100.681 232.481 102.239C232.481 103.798 233.744 105.061 235.302 105.061Z" stroke="black" stroke-width="0.946119"/>
<path d="M278.625 105.061C280.184 105.061 281.447 103.798 281.447 102.239C281.447 100.681 280.184 99.4175 278.625 99.4175C277.067 99.4175 275.804 100.681 275.804 102.239C275.804 103.798 277.067 105.061 278.625 105.061Z" stroke="black" stroke-width="0.946119"/>
<path d="M321.948 105.061C323.507 105.061 324.77 103.798 324.77 102.239C324.77 100.681 323.507 99.4175 321.948 99.4175C320.39 99.4175 319.127 100.681 319.127 102.239C319.127 103.798 320.39 105.061 321.948 105.061Z" stroke="black" stroke-width="0.946119"/>
<path d="M365.271 105.061C366.83 105.061 368.093 103.798 368.093 102.239C368.093 100.681 366.83 99.4175 365.271 99.4175C363.713 99.4175 362.45 100.681 362.45 102.239C362.45 103.798 363.713 105.061 365.271 105.061Z" stroke="black" stroke-width="0.946119"/>
<path d="M408.594 105.061C410.153 105.061 411.416 103.798 411.416 102.239C411.416 100.681 410.153 99.4175 408.594 99.4175C407.036 99.4175 405.773 100.681 405.773 102.239C405.773 103.798 407.036 105.061 408.594 105.061Z" stroke="black" stroke-width="0.946119"/>
<path d="M451.917 105.061C453.476 105.061 454.739 103.798 454.739 102.239C454.739 100.681 453.476 99.4175 451.917 99.4175C450.359 99.4175 449.096 100.681 449.096 102.239C449.096 103.798 450.359 105.061 451.917 105.061Z" stroke="black" stroke-width="0.946119"/>
<path d="M495.241 105.061C496.799 105.061 498.062 103.798 498.062 102.239C498.062 100.681 496.799 99.4175 495.241 99.4175C493.682 99.4175 492.419 100.681 492.419 102.239C492.419 103.798 493.682 105.061 495.241 105.061Z" stroke="black" stroke-width="0.946119"/>
<path d="M538.563 105.061C540.122 105.061 541.385 103.798 541.385 102.239C541.385 100.681 540.122 99.4175 538.563 99.4175C537.005 99.4175 535.741 100.681 535.741 102.239C535.741 103.798 537.005 105.061 538.563 105.061Z" stroke="black" stroke-width="0.946119"/>
<path d="M581.886 105.061C583.445 105.061 584.708 103.798 584.708 102.239C584.708 100.681 583.445 99.4175 581.886 99.4175C580.328 99.4175 579.064 100.681 579.064 102.239C579.064 103.798 580.328 105.061 581.886 105.061Z" stroke="black" stroke-width="0.946119"/>
<path d="M625.209 105.061C626.768 105.061 628.031 103.798 628.031 102.239C628.031 100.681 626.768 99.4175 625.209 99.4175C623.651 99.4175 622.387 100.681 622.387 102.239C622.387 103.798 623.651 105.061 625.209 105.061Z" stroke="black" stroke-width="0.946119"/>
<path d="M668.532 105.061C670.091 105.061 671.354 103.798 671.354 102.239C671.354 100.681 670.091 99.4175 668.532 99.4175C666.974 99.4175 665.71 100.681 665.71 102.239C665.71 103.798 666.974 105.061 668.532 105.061Z" stroke="black" stroke-width="0.946119"/>
<path d="M711.855 105.061C713.414 105.061 714.677 103.798 714.677 102.239C714.677 100.681 713.414 99.4175 711.855 99.4175C710.297 99.4175 709.034 100.681 709.034 102.239C709.034 103.798 710.297 105.061 711.855 105.061Z" stroke="black" stroke-width="0.946119"/>
<path d="M755.178 105.061C756.737 105.061 758 103.798 758 102.239C758 100.681 756.737 99.4175 755.178 99.4175C753.62 99.4175 752.357 100.681 752.357 102.239C752.357 103.798 753.62 105.061 755.178 105.061Z" stroke="black" stroke-width="0.946119"/>
<path d="M18.6874 148.384C20.2458 148.384 21.5091 147.121 21.5091 145.562C21.5091 144.004 20.2458 142.74 18.6874 142.74C17.129 142.74 15.8657 144.004 15.8657 145.562C15.8657 147.121 17.129 148.384 18.6874 148.384Z" stroke="black" stroke-width="0.946119"/>
<path d="M62.0107 148.384C63.569 148.384 64.8324 147.121 64.8324 145.562C64.8324 144.004 63.569 142.74 62.0107 142.74C60.4523 142.74 59.189 144.004 59.189 145.562C59.189 147.121 60.4523 148.384 62.0107 148.384Z" stroke="black" stroke-width="0.946119"/>
<path d="M105.333 148.384C106.892 148.384 108.155 147.121 108.155 145.562C108.155 144.004 106.892 142.74 105.333 142.74C103.775 142.74 102.512 144.004 102.512 145.562C102.512 147.121 103.775 148.384 105.333 148.384Z" stroke="black" stroke-width="0.946119"/>
<path d="M148.657 148.384C150.215 148.384 151.478 147.121 151.478 145.562C151.478 144.004 150.215 142.74 148.657 142.74C147.098 142.74 145.835 144.004 145.835 145.562C145.835 147.121 147.098 148.384 148.657 148.384Z" stroke="black" stroke-width="0.946119"/>
<path d="M191.979 148.384C193.538 148.384 194.801 147.121 194.801 145.562C194.801 144.004 193.538 142.74 191.979 142.74C190.421 142.74 189.158 144.004 189.158 145.562C189.158 147.121 190.421 148.384 191.979 148.384Z" stroke="black" stroke-width="0.946119"/>
<path d="M235.302 148.384C236.861 148.384 238.124 147.121 238.124 145.562C238.124 144.004 236.861 142.74 235.302 142.74C233.744 142.74 232.481 144.004 232.481 145.562C232.481 147.121 233.744 148.384 235.302 148.384Z" stroke="black" stroke-width="0.946119"/>
<path d="M278.625 148.384C280.184 148.384 281.447 147.121 281.447 145.562C281.447 144.004 280.184 142.74 278.625 142.74C277.067 142.74 275.804 144.004 275.804 145.562C275.804 147.121 277.067 148.384 278.625 148.384Z" stroke="black" stroke-width="0.946119"/>
<path d="M321.948 148.384C323.507 148.384 324.77 147.121 324.77 145.562C324.77 144.004 323.507 142.74 321.948 142.74C320.39 142.74 319.127 144.004 319.127 145.562C319.127 147.121 320.39 148.384 321.948 148.384Z" stroke="black" stroke-width="0.946119"/>
<path d="M365.271 148.384C366.83 148.384 368.093 147.121 368.093 145.562C368.093 144.004 366.83 142.74 365.271 142.74C363.713 142.74 362.45 144.004 362.45 145.562C362.45 147.121 363.713 148.384 365.271 148.384Z" stroke="black" stroke-width="0.946119"/>
<path d="M408.594 148.384C410.153 148.384 411.416 147.121 411.416 145.562C411.416 144.004 410.153 142.74 408.594 142.74C407.036 142.74 405.773 144.004 405.773 145.562C405.773 147.121 407.036 148.384 408.594 148.384Z" stroke="black" stroke-width="0.946119"/>
<path d="M451.917 148.384C453.476 148.384 454.739 147.121 454.739 145.562C454.739 144.004 453.476 142.74 451.917 142.74C450.359 142.74 449.096 144.004 449.096 145.562C449.096 147.121 450.359 148.384 451.917 148.384Z" stroke="black" stroke-width="0.946119"/>
<path d="M495.241 148.384C496.799 148.384 498.062 147.121 498.062 145.562C498.062 144.004 496.799 142.74 495.241 142.74C493.682 142.74 492.419 144.004 492.419 145.562C492.419 147.121 493.682 148.384 495.241 148.384Z" stroke="black" stroke-width="0.946119"/>
<path d="M538.563 148.384C540.122 148.384 541.385 147.121 541.385 145.562C541.385 144.004 540.122 142.74 538.563 142.74C537.005 142.74 535.741 144.004 535.741 145.562C535.741 147.121 537.005 148.384 538.563 148.384Z" stroke="black" stroke-width="0.946119"/>
<path d="M581.886 148.384C583.445 148.384 584.708 147.121 584.708 145.562C584.708 144.004 583.445 142.74 581.886 142.74C580.328 142.74 579.064 144.004 579.064 145.562C579.064 147.121 580.328 148.384 581.886 148.384Z" stroke="black" stroke-width="0.946119"/>
<path d="M625.209 148.384C626.768 148.384 628.031 147.121 628.031 145.562C628.031 144.004 626.768 142.74 625.209 142.74C623.651 142.74 622.387 144.004 622.387 145.562C622.387 147.121 623.651 148.384 625.209 148.384Z" stroke="black" stroke-width="0.946119"/>
<path d="M668.532 148.384C670.091 148.384 671.354 147.121 671.354 145.562C671.354 144.004 670.091 142.74 668.532 142.74C666.974 142.74 665.71 144.004 665.71 145.562C665.71 147.121 666.974 148.384 668.532 148.384Z" stroke="black" stroke-width="0.946119"/>
<path d="M711.855 148.384C713.414 148.384 714.677 147.121 714.677 145.562C714.677 144.004 713.414 142.74 711.855 142.74C710.297 142.74 709.034 144.004 709.034 145.562C709.034 147.121 710.297 148.384 711.855 148.384Z" stroke="black" stroke-width="0.946119"/>
<path d="M755.178 148.384C756.737 148.384 758 147.121 758 145.562C758 144.004 756.737 142.74 755.178 142.74C753.62 142.74 752.357 144.004 752.357 145.562C752.357 147.121 753.62 148.384 755.178 148.384Z" stroke="black" stroke-width="0.946119"/>
<path d="M18.6874 191.707C20.2458 191.707 21.5091 190.444 21.5091 188.885C21.5091 187.327 20.2458 186.063 18.6874 186.063C17.129 186.063 15.8657 187.327 15.8657 188.885C15.8657 190.444 17.129 191.707 18.6874 191.707Z" stroke="black" stroke-width="0.946119"/>
<path d="M62.0107 191.707C63.569 191.707 64.8324 190.444 64.8324 188.885C64.8324 187.327 63.569 186.063 62.0107 186.063C60.4523 186.063 59.189 187.327 59.189 188.885C59.189 190.444 60.4523 191.707 62.0107 191.707Z" stroke="black" stroke-width="0.946119"/>
<path d="M105.333 191.707C106.892 191.707 108.155 190.444 108.155 188.885C108.155 187.327 106.892 186.063 105.333 186.063C103.775 186.063 102.512 187.327 102.512 188.885C102.512 190.444 103.775 191.707 105.333 191.707Z" stroke="black" stroke-width="0.946119"/>
<path d="M148.657 191.707C150.215 191.707 151.478 190.444 151.478 188.885C151.478 187.327 150.215 186.063 148.657 186.063C147.098 186.063 145.835 187.327 145.835 188.885C145.835 190.444 147.098 191.707 148.657 191.707Z" stroke="black" stroke-width="0.946119"/>
<path d="M191.979 191.707C193.538 191.707 194.801 190.444 194.801 188.885C194.801 187.327 193.538 186.063 191.979 186.063C190.421 186.063 189.158 187.327 189.158 188.885C189.158 190.444 190.421 191.707 191.979 191.707Z" stroke="black" stroke-width="0.946119"/>
<path d="M235.302 191.707C236.861 191.707 238.124 190.444 238.124 188.885C238.124 187.327 236.861 186.063 235.302 186.063C233.744 186.063 232.481 187.327 232.481 188.885C232.481 190.444 233.744 191.707 235.302 191.707Z" stroke="black" stroke-width="0.946119"/>
<path d="M278.625 191.707C280.184 191.707 281.447 190.444 281.447 188.885C281.447 187.327 280.184 186.063 278.625 186.063C277.067 186.063 275.804 187.327 275.804 188.885C275.804 190.444 277.067 191.707 278.625 191.707Z" stroke="black" stroke-width="0.946119"/>
<path d="M321.948 191.707C323.507 191.707 324.77 190.444 324.77 188.885C324.77 187.327 323.507 186.063 321.948 186.063C320.39 186.063 319.127 187.327 319.127 188.885C319.127 190.444 320.39 191.707 321.948 191.707Z" stroke="black" stroke-width="0.946119"/>
<path d="M365.271 191.707C366.83 191.707 368.093 190.444 368.093 188.885C368.093 187.327 366.83 186.063 365.271 186.063C363.713 186.063 362.45 187.327 362.45 188.885C362.45 190.444 363.713 191.707 365.271 191.707Z" stroke="black" stroke-width="0.946119"/>
<path d="M408.594 191.707C410.153 191.707 411.416 190.444 411.416 188.885C411.416 187.327 410.153 186.063 408.594 186.063C407.036 186.063 405.773 187.327 405.773 188.885C405.773 190.444 407.036 191.707 408.594 191.707Z" stroke="black" stroke-width="0.946119"/>
<path d="M451.917 191.707C453.476 191.707 454.739 190.444 454.739 188.885C454.739 187.327 453.476 186.063 451.917 186.063C450.359 186.063 449.096 187.327 449.096 188.885C449.096 190.444 450.359 191.707 451.917 191.707Z" stroke="black" stroke-width="0.946119"/>
<path d="M495.241 191.707C496.799 191.707 498.062 190.444 498.062 188.885C498.062 187.327 496.799 186.063 495.241 186.063C493.682 186.063 492.419 187.327 492.419 188.885C492.419 190.444 493.682 191.707 495.241 191.707Z" stroke="black" stroke-width="0.946119"/>
<path d="M538.563 191.707C540.122 191.707 541.385 190.444 541.385 188.885C541.385 187.327 540.122 186.063 538.563 186.063C537.005 186.063 535.741 187.327 535.741 188.885C535.741 190.444 537.005 191.707 538.563 191.707Z" stroke="black" stroke-width="0.946119"/>
<path d="M581.886 191.707C583.445 191.707 584.708 190.444 584.708 188.885C584.708 187.327 583.445 186.063 581.886 186.063C580.328 186.063 579.064 187.327 579.064 188.885C579.064 190.444 580.328 191.707 581.886 191.707Z" stroke="black" stroke-width="0.946119"/>
<path d="M625.209 191.707C626.768 191.707 628.031 190.444 628.031 188.885C628.031 187.327 626.768 186.063 625.209 186.063C623.651 186.063 622.387 187.327 622.387 188.885C622.387 190.444 623.651 191.707 625.209 191.707Z" stroke="black" stroke-width="0.946119"/>
<path d="M668.532 191.707C670.091 191.707 671.354 190.444 671.354 188.885C671.354 187.327 670.091 186.063 668.532 186.063C666.974 186.063 665.71 187.327 665.71 188.885C665.71 190.444 666.974 191.707 668.532 191.707Z" stroke="black" stroke-width="0.946119"/>
<path d="M711.855 191.707C713.414 191.707 714.677 190.444 714.677 188.885C714.677 187.327 713.414 186.063 711.855 186.063C710.297 186.063 709.034 187.327 709.034 188.885C709.034 190.444 710.297 191.707 711.855 191.707Z" stroke="black" stroke-width="0.946119"/>
<path d="M755.178 191.707C756.737 191.707 758 190.444 758 188.885C758 187.327 756.737 186.063 755.178 186.063C753.62 186.063 752.357 187.327 752.357 188.885C752.357 190.444 753.62 191.707 755.178 191.707Z" stroke="black" stroke-width="0.946119"/>
<path d="M18.6874 235.03C20.2458 235.03 21.5091 233.766 21.5091 232.208C21.5091 230.65 20.2458 229.386 18.6874 229.386C17.129 229.386 15.8657 230.65 15.8657 232.208C15.8657 233.766 17.129 235.03 18.6874 235.03Z" stroke="black" stroke-width="0.946119"/>
<path d="M62.0107 235.03C63.569 235.03 64.8324 233.766 64.8324 232.208C64.8324 230.65 63.569 229.386 62.0107 229.386C60.4523 229.386 59.189 230.65 59.189 232.208C59.189 233.766 60.4523 235.03 62.0107 235.03Z" stroke="black" stroke-width="0.946119"/>
<path d="M105.333 235.03C106.892 235.03 108.155 233.766 108.155 232.208C108.155 230.65 106.892 229.386 105.333 229.386C103.775 229.386 102.512 230.65 102.512 232.208C102.512 233.766 103.775 235.03 105.333 235.03Z" stroke="black" stroke-width="0.946119"/>
<path d="M148.657 235.03C150.215 235.03 151.478 233.766 151.478 232.208C151.478 230.65 150.215 229.386 148.657 229.386C147.098 229.386 145.835 230.65 145.835 232.208C145.835 233.766 147.098 235.03 148.657 235.03Z" stroke="#FF4B33" stroke-width="0.946119"/>
<path d="M191.979 235.03C193.538 235.03 194.801 233.766 194.801 232.208C194.801 230.65 193.538 229.386 191.979 229.386C190.421 229.386 189.158 230.65 189.158 232.208C189.158 233.766 190.421 235.03 191.979 235.03Z" stroke="#FF4B33" stroke-width="0.946119"/>
<path d="M235.302 235.03C236.861 235.03 238.124 233.766 238.124 232.208C238.124 230.65 236.861 229.386 235.302 229.386C233.744 229.386 232.481 230.65 232.481 232.208C232.481 233.766 233.744 235.03 235.302 235.03Z" stroke="#FF4B33" stroke-width="0.946119"/>
<path d="M278.625 235.03C280.184 235.03 281.447 233.766 281.447 232.208C281.447 230.65 280.184 229.386 278.625 229.386C277.067 229.386 275.804 230.65 275.804 232.208C275.804 233.766 277.067 235.03 278.625 235.03Z" stroke="#FF4B33" stroke-width="0.946119"/>
<path d="M321.948 235.03C323.507 235.03 324.77 233.766 324.77 232.208C324.77 230.65 323.507 229.386 321.948 229.386C320.39 229.386 319.127 230.65 319.127 232.208C319.127 233.766 320.39 235.03 321.948 235.03Z" stroke="black" stroke-width="0.946119"/>
<path d="M365.271 235.03C366.83 235.03 368.093 233.766 368.093 232.208C368.093 230.65 366.83 229.386 365.271 229.386C363.713 229.386 362.45 230.65 362.45 232.208C362.45 233.766 363.713 235.03 365.271 235.03Z" stroke="black" stroke-width="0.946119"/>
<path d="M408.594 235.03C410.153 235.03 411.416 233.766 411.416 232.208C411.416 230.65 410.153 229.386 408.594 229.386C407.036 229.386 405.773 230.65 405.773 232.208C405.773 233.766 407.036 235.03 408.594 235.03Z" stroke="black" stroke-width="0.946119"/>
<path d="M451.917 235.03C453.476 235.03 454.739 233.766 454.739 232.208C454.739 230.65 453.476 229.386 451.917 229.386C450.359 229.386 449.096 230.65 449.096 232.208C449.096 233.766 450.359 235.03 451.917 235.03Z" stroke="black" stroke-width="0.946119"/>
<path d="M495.241 235.03C496.799 235.03 498.062 233.766 498.062 232.208C498.062 230.65 496.799 229.386 495.241 229.386C493.682 229.386 492.419 230.65 492.419 232.208C492.419 233.766 493.682 235.03 495.241 235.03Z" stroke="black" stroke-width="0.946119"/>
<path d="M538.563 235.03C540.122 235.03 541.385 233.766 541.385 232.208C541.385 230.65 540.122 229.386 538.563 229.386C537.005 229.386 535.741 230.65 535.741 232.208C535.741 233.766 537.005 235.03 538.563 235.03Z" stroke="black" stroke-width="0.946119"/>
<path d="M581.886 235.03C583.445 235.03 584.708 233.766 584.708 232.208C584.708 230.65 583.445 229.386 581.886 229.386C580.328 229.386 579.064 230.65 579.064 232.208C579.064 233.766 580.328 235.03 581.886 235.03Z" stroke="black" stroke-width="0.946119"/>
<path d="M625.209 235.03C626.768 235.03 628.031 233.766 628.031 232.208C628.031 230.65 626.768 229.386 625.209 229.386C623.651 229.386 622.387 230.65 622.387 232.208C622.387 233.766 623.651 235.03 625.209 235.03Z" stroke="black" stroke-width="0.946119"/>
<path d="M668.532 235.03C670.091 235.03 671.354 233.766 671.354 232.208C671.354 230.65 670.091 229.386 668.532 229.386C666.974 229.386 665.71 230.65 665.71 232.208C665.71 233.766 666.974 235.03 668.532 235.03Z" stroke="black" stroke-width="0.946119"/>
<path d="M711.855 235.03C713.414 235.03 714.677 233.766 714.677 232.208C714.677 230.65 713.414 229.386 711.855 229.386C710.297 229.386 709.034 230.65 709.034 232.208C709.034 233.766 710.297 235.03 711.855 235.03Z" stroke="black" stroke-width="0.946119"/>
<path d="M755.178 235.03C756.737 235.03 758 233.766 758 232.208C758 230.65 756.737 229.386 755.178 229.386C753.62 229.386 752.357 230.65 752.357 232.208C752.357 233.766 753.62 235.03 755.178 235.03Z" stroke="black" stroke-width="0.946119"/>
<path d="M18.6874 278.353C20.2458 278.353 21.5091 277.089 21.5091 275.531C21.5091 273.973 20.2458 272.709 18.6874 272.709C17.129 272.709 15.8657 273.973 15.8657 275.531C15.8657 277.089 17.129 278.353 18.6874 278.353Z" stroke="black" stroke-width="0.946119"/>
<path d="M62.0107 278.353C63.569 278.353 64.8324 277.089 64.8324 275.531C64.8324 273.973 63.569 272.709 62.0107 272.709C60.4523 272.709 59.189 273.973 59.189 275.531C59.189 277.089 60.4523 278.353 62.0107 278.353Z" stroke="black" stroke-width="0.946119"/>
<path d="M105.333 278.353C106.892 278.353 108.155 277.089 108.155 275.531C108.155 273.973 106.892 272.709 105.333 272.709C103.775 272.709 102.512 273.973 102.512 275.531C102.512 277.089 103.775 278.353 105.333 278.353Z" stroke="black" stroke-width="0.946119"/>
<path d="M148.657 278.353C150.215 278.353 151.478 277.089 151.478 275.531C151.478 273.973 150.215 272.709 148.657 272.709C147.098 272.709 145.835 273.973 145.835 275.531C145.835 277.089 147.098 278.353 148.657 278.353Z" stroke="#FF4B33" stroke-width="0.946119"/>
<path d="M191.979 278.353C193.538 278.353 194.801 277.089 194.801 275.531C194.801 273.973 193.538 272.709 191.979 272.709C190.421 272.709 189.158 273.973 189.158 275.531C189.158 277.089 190.421 278.353 191.979 278.353Z" stroke="#FF4B33" stroke-width="0.946119"/>
<path d="M235.302 278.353C236.861 278.353 238.124 277.089 238.124 275.531C238.124 273.973 236.861 272.709 235.302 272.709C233.744 272.709 232.481 273.973 232.481 275.531C232.481 277.089 233.744 278.353 235.302 278.353Z" stroke="#FF4B33" stroke-width="0.946119"/>
<path d="M278.625 278.353C280.184 278.353 281.447 277.089 281.447 275.531C281.447 273.973 280.184 272.709 278.625 272.709C277.067 272.709 275.804 273.973 275.804 275.531C275.804 277.089 277.067 278.353 278.625 278.353Z" stroke="#FF4B33" stroke-width="0.946119"/>
<path d="M321.948 278.353C323.507 278.353 324.77 277.089 324.77 275.531C324.77 273.973 323.507 272.709 321.948 272.709C320.39 272.709 319.127 273.973 319.127 275.531C319.127 277.089 320.39 278.353 321.948 278.353Z" stroke="black" stroke-width="0.946119"/>
<path d="M365.271 278.353C366.83 278.353 368.093 277.089 368.093 275.531C368.093 273.973 366.83 272.709 365.271 272.709C363.713 272.709 362.45 273.973 362.45 275.531C362.45 277.089 363.713 278.353 365.271 278.353Z" stroke="black" stroke-width="0.946119"/>
<path d="M408.594 278.353C410.153 278.353 411.416 277.089 411.416 275.531C411.416 273.973 410.153 272.709 408.594 272.709C407.036 272.709 405.773 273.973 405.773 275.531C405.773 277.089 407.036 278.353 408.594 278.353Z" stroke="black" stroke-width="0.946119"/>
<path d="M451.917 278.353C453.476 278.353 454.739 277.089 454.739 275.531C454.739 273.973 453.476 272.709 451.917 272.709C450.359 272.709 449.096 273.973 449.096 275.531C449.096 277.089 450.359 278.353 451.917 278.353Z" stroke="black" stroke-width="0.946119"/>
<path d="M495.241 278.353C496.799 278.353 498.062 277.089 498.062 275.531C498.062 273.973 496.799 272.709 495.241 272.709C493.682 272.709 492.419 273.973 492.419 275.531C492.419 277.089 493.682 278.353 495.241 278.353Z" stroke="black" stroke-width="0.946119"/>
<path d="M538.563 278.353C540.122 278.353 541.385 277.089 541.385 275.531C541.385 273.973 540.122 272.709 538.563 272.709C537.005 272.709 535.741 273.973 535.741 275.531C535.741 277.089 537.005 278.353 538.563 278.353Z" stroke="black" stroke-width="0.946119"/>
<path d="M581.886 278.353C583.445 278.353 584.708 277.089 584.708 275.531C584.708 273.973 583.445 272.709 581.886 272.709C580.328 272.709 579.064 273.973 579.064 275.531C579.064 277.089 580.328 278.353 581.886 278.353Z" stroke="black" stroke-width="0.946119"/>
<path d="M625.209 278.353C626.768 278.353 628.031 277.089 628.031 275.531C628.031 273.973 626.768 272.709 625.209 272.709C623.651 272.709 622.387 273.973 622.387 275.531C622.387 277.089 623.651 278.353 625.209 278.353Z" stroke="black" stroke-width="0.946119"/>
<path d="M668.532 278.353C670.091 278.353 671.354 277.089 671.354 275.531C671.354 273.973 670.091 272.709 668.532 272.709C666.974 272.709 665.71 273.973 665.71 275.531C665.71 277.089 666.974 278.353 668.532 278.353Z" stroke="black" stroke-width="0.946119"/>
<path d="M711.855 278.353C713.414 278.353 714.677 277.089 714.677 275.531C714.677 273.973 713.414 272.709 711.855 272.709C710.297 272.709 709.034 273.973 709.034 275.531C709.034 277.089 710.297 278.353 711.855 278.353Z" stroke="black" stroke-width="0.946119"/>
<path d="M755.178 278.353C756.737 278.353 758 277.089 758 275.531C758 273.973 756.737 272.709 755.178 272.709C753.62 272.709 752.357 273.973 752.357 275.531C752.357 277.089 753.62 278.353 755.178 278.353Z" stroke="black" stroke-width="0.946119"/>
<path d="M18.6874 321.676C20.2458 321.676 21.5091 320.413 21.5091 318.854C21.5091 317.296 20.2458 316.032 18.6874 316.032C17.129 316.032 15.8657 317.296 15.8657 318.854C15.8657 320.413 17.129 321.676 18.6874 321.676Z" stroke="black" stroke-width="0.946119"/>
<path d="M62.0107 321.676C63.569 321.676 64.8324 320.413 64.8324 318.854C64.8324 317.296 63.569 316.032 62.0107 316.032C60.4523 316.032 59.189 317.296 59.189 318.854C59.189 320.413 60.4523 321.676 62.0107 321.676Z" stroke="black" stroke-width="0.946119"/>
<path d="M105.333 321.676C106.892 321.676 108.155 320.413 108.155 318.854C108.155 317.296 106.892 316.032 105.333 316.032C103.775 316.032 102.512 317.296 102.512 318.854C102.512 320.413 103.775 321.676 105.333 321.676Z" stroke="black" stroke-width="0.946119"/>
<path d="M148.657 321.676C150.215 321.676 151.478 320.413 151.478 318.854C151.478 317.296 150.215 316.032 148.657 316.032C147.098 316.032 145.835 317.296 145.835 318.854C145.835 320.413 147.098 321.676 148.657 321.676Z" stroke="#FF4B33" stroke-width="0.946119"/>
<path d="M191.979 321.676C193.538 321.676 194.801 320.413 194.801 318.854C194.801 317.296 193.538 316.032 191.979 316.032C190.421 316.032 189.158 317.296 189.158 318.854C189.158 320.413 190.421 321.676 191.979 321.676Z" stroke="#FF4B33" stroke-width="0.946119"/>
<path d="M235.302 321.676C236.861 321.676 238.124 320.413 238.124 318.854C238.124 317.296 236.861 316.032 235.302 316.032C233.744 316.032 232.481 317.296 232.481 318.854C232.481 320.413 233.744 321.676 235.302 321.676Z" stroke="#FF4B33" stroke-width="0.946119"/>
<path d="M278.625 321.676C280.184 321.676 281.447 320.413 281.447 318.854C281.447 317.296 280.184 316.032 278.625 316.032C277.067 316.032 275.804 317.296 275.804 318.854C275.804 320.413 277.067 321.676 278.625 321.676Z" stroke="#FF4B33" stroke-width="0.946119"/>
<path d="M321.948 321.676C323.507 321.676 324.77 320.413 324.77 318.854C324.77 317.296 323.507 316.032 321.948 316.032C320.39 316.032 319.127 317.296 319.127 318.854C319.127 320.413 320.39 321.676 321.948 321.676Z" stroke="black" stroke-width="0.946119"/>
<path d="M365.271 321.676C366.83 321.676 368.093 320.413 368.093 318.854C368.093 317.296 366.83 316.032 365.271 316.032C363.713 316.032 362.45 317.296 362.45 318.854C362.45 320.413 363.713 321.676 365.271 321.676Z" stroke="black" stroke-width="0.946119"/>
<path d="M408.594 321.676C410.153 321.676 411.416 320.413 411.416 318.854C411.416 317.296 410.153 316.032 408.594 316.032C407.036 316.032 405.773 317.296 405.773 318.854C405.773 320.413 407.036 321.676 408.594 321.676Z" stroke="black" stroke-width="0.946119"/>
<path d="M451.917 321.676C453.476 321.676 454.739 320.413 454.739 318.854C454.739 317.296 453.476 316.032 451.917 316.032C450.359 316.032 449.096 317.296 449.096 318.854C449.096 320.413 450.359 321.676 451.917 321.676Z" stroke="black" stroke-width="0.946119"/>
<path d="M495.241 321.676C496.799 321.676 498.062 320.413 498.062 318.854C498.062 317.296 496.799 316.032 495.241 316.032C493.682 316.032 492.419 317.296 492.419 318.854C492.419 320.413 493.682 321.676 495.241 321.676Z" stroke="black" stroke-width="0.946119"/>
<path d="M538.563 321.676C540.122 321.676 541.385 320.413 541.385 318.854C541.385 317.296 540.122 316.032 538.563 316.032C537.005 316.032 535.741 317.296 535.741 318.854C535.741 320.413 537.005 321.676 538.563 321.676Z" stroke="black" stroke-width="0.946119"/>
<path d="M581.886 321.676C583.445 321.676 584.708 320.413 584.708 318.854C584.708 317.296 583.445 316.032 581.886 316.032C580.328 316.032 579.064 317.296 579.064 318.854C579.064 320.413 580.328 321.676 581.886 321.676Z" stroke="black" stroke-width="0.946119"/>
<path d="M625.209 321.676C626.768 321.676 628.031 320.413 628.031 318.854C628.031 317.296 626.768 316.032 625.209 316.032C623.651 316.032 622.387 317.296 622.387 318.854C622.387 320.413 623.651 321.676 625.209 321.676Z" stroke="black" stroke-width="0.946119"/>
<path d="M668.532 321.676C670.091 321.676 671.354 320.413 671.354 318.854C671.354 317.296 670.091 316.032 668.532 316.032C666.974 316.032 665.71 317.296 665.71 318.854C665.71 320.413 666.974 321.676 668.532 321.676Z" stroke="black" stroke-width="0.946119"/>
<path d="M711.855 321.676C713.414 321.676 714.677 320.413 714.677 318.854C714.677 317.296 713.414 316.032 711.855 316.032C710.297 316.032 709.034 317.296 709.034 318.854C709.034 320.413 710.297 321.676 711.855 321.676Z" stroke="black" stroke-width="0.946119"/>
<path d="M755.178 321.676C756.737 321.676 758 320.413 758 318.854C758 317.296 756.737 316.032 755.178 316.032C753.62 316.032 752.357 317.296 752.357 318.854C752.357 320.413 753.62 321.676 755.178 321.676Z" stroke="black" stroke-width="0.946119"/>
<path d="M18.6874 364.999C20.2458 364.999 21.5091 363.735 21.5091 362.177C21.5091 360.619 20.2458 359.355 18.6874 359.355C17.129 359.355 15.8657 360.619 15.8657 362.177C15.8657 363.735 17.129 364.999 18.6874 364.999Z" stroke="black" stroke-width="0.946119"/>
<path d="M62.0107 364.999C63.569 364.999 64.8324 363.735 64.8324 362.177C64.8324 360.619 63.569 359.355 62.0107 359.355C60.4523 359.355 59.189 360.619 59.189 362.177C59.189 363.735 60.4523 364.999 62.0107 364.999Z" stroke="black" stroke-width="0.946119"/>
<path d="M105.333 364.999C106.892 364.999 108.155 363.735 108.155 362.177C108.155 360.619 106.892 359.355 105.333 359.355C103.775 359.355 102.512 360.619 102.512 362.177C102.512 363.735 103.775 364.999 105.333 364.999Z" stroke="black" stroke-width="0.946119"/>
<path d="M148.657 364.999C150.215 364.999 151.478 363.735 151.478 362.177C151.478 360.619 150.215 359.355 148.657 359.355C147.098 359.355 145.835 360.619 145.835 362.177C145.835 363.735 147.098 364.999 148.657 364.999Z" stroke="#FF4B33" stroke-width="0.946119"/>
<path d="M191.979 364.999C193.538 364.999 194.801 363.735 194.801 362.177C194.801 360.619 193.538 359.355 191.979 359.355C190.421 359.355 189.158 360.619 189.158 362.177C189.158 363.735 190.421 364.999 191.979 364.999Z" stroke="#FF4B33" stroke-width="0.946119"/>
<path d="M235.302 364.999C236.861 364.999 238.124 363.735 238.124 362.177C238.124 360.619 236.861 359.355 235.302 359.355C233.744 359.355 232.481 360.619 232.481 362.177C232.481 363.735 233.744 364.999 235.302 364.999Z" stroke="#FF4B33" stroke-width="0.946119"/>
<path d="M278.625 364.999C280.184 364.999 281.447 363.735 281.447 362.177C281.447 360.619 280.184 359.355 278.625 359.355C277.067 359.355 275.804 360.619 275.804 362.177C275.804 363.735 277.067 364.999 278.625 364.999Z" stroke="#FF4B33" stroke-width="0.946119"/>
<path d="M321.948 364.999C323.507 364.999 324.77 363.735 324.77 362.177C324.77 360.619 323.507 359.355 321.948 359.355C320.39 359.355 319.127 360.619 319.127 362.177C319.127 363.735 320.39 364.999 321.948 364.999Z" stroke="black" stroke-width="0.946119"/>
<path d="M365.271 364.999C366.83 364.999 368.093 363.735 368.093 362.177C368.093 360.619 366.83 359.355 365.271 359.355C363.713 359.355 362.45 360.619 362.45 362.177C362.45 363.735 363.713 364.999 365.271 364.999Z" stroke="black" stroke-width="0.946119"/>
<path d="M408.594 364.999C410.153 364.999 411.416 363.735 411.416 362.177C411.416 360.619 410.153 359.355 408.594 359.355C407.036 359.355 405.773 360.619 405.773 362.177C405.773 363.735 407.036 364.999 408.594 364.999Z" stroke="black" stroke-width="0.946119"/>
<path d="M451.917 364.999C453.476 364.999 454.739 363.735 454.739 362.177C454.739 360.619 453.476 359.355 451.917 359.355C450.359 359.355 449.096 360.619 449.096 362.177C449.096 363.735 450.359 364.999 451.917 364.999Z" stroke="black" stroke-width="0.946119"/>
<path d="M495.241 364.999C496.799 364.999 498.062 363.735 498.062 362.177C498.062 360.619 496.799 359.355 495.241 359.355C493.682 359.355 492.419 360.619 492.419 362.177C492.419 363.735 493.682 364.999 495.241 364.999Z" stroke="black" stroke-width="0.946119"/>
<path d="M538.563 364.999C540.122 364.999 541.385 363.735 541.385 362.177C541.385 360.619 540.122 359.355 538.563 359.355C537.005 359.355 535.741 360.619 535.741 362.177C535.741 363.735 537.005 364.999 538.563 364.999Z" stroke="black" stroke-width="0.946119"/>
<path d="M581.886 364.999C583.445 364.999 584.708 363.735 584.708 362.177C584.708 360.619 583.445 359.355 581.886 359.355C580.328 359.355 579.064 360.619 579.064 362.177C579.064 363.735 580.328 364.999 581.886 364.999Z" stroke="black" stroke-width="0.946119"/>
<path d="M625.209 364.999C626.768 364.999 628.031 363.735 628.031 362.177C628.031 360.619 626.768 359.355 625.209 359.355C623.651 359.355 622.387 360.619 622.387 362.177C622.387 363.735 623.651 364.999 625.209 364.999Z" stroke="black" stroke-width="0.946119"/>
<path d="M668.532 364.999C670.091 364.999 671.354 363.735 671.354 362.177C671.354 360.619 670.091 359.355 668.532 359.355C666.974 359.355 665.71 360.619 665.71 362.177C665.71 363.735 666.974 364.999 668.532 364.999Z" stroke="black" stroke-width="0.946119"/>
<path d="M711.855 364.999C713.414 364.999 714.677 363.735 714.677 362.177C714.677 360.619 713.414 359.355 711.855 359.355C710.297 359.355 709.034 360.619 709.034 362.177C709.034 363.735 710.297 364.999 711.855 364.999Z" stroke="black" stroke-width="0.946119"/>
<path d="M755.178 364.999C756.737 364.999 758 363.735 758 362.177C758 360.619 756.737 359.355 755.178 359.355C753.62 359.355 752.357 360.619 752.357 362.177C752.357 363.735 753.62 364.999 755.178 364.999Z" stroke="black" stroke-width="0.946119"/>
<path d="M18.6874 408.322C20.2458 408.322 21.5091 407.058 21.5091 405.5C21.5091 403.942 20.2458 402.678 18.6874 402.678C17.129 402.678 15.8657 403.942 15.8657 405.5C15.8657 407.058 17.129 408.322 18.6874 408.322Z" stroke="black" stroke-width="0.946119"/>
<path d="M62.0107 408.322C63.569 408.322 64.8324 407.058 64.8324 405.5C64.8324 403.942 63.569 402.678 62.0107 402.678C60.4523 402.678 59.189 403.942 59.189 405.5C59.189 407.058 60.4523 408.322 62.0107 408.322Z" stroke="black" stroke-width="0.946119"/>
<path d="M105.333 408.322C106.892 408.322 108.155 407.058 108.155 405.5C108.155 403.942 106.892 402.678 105.333 402.678C103.775 402.678 102.512 403.942 102.512 405.5C102.512 407.058 103.775 408.322 105.333 408.322Z" stroke="black" stroke-width="0.946119"/>
<path d="M148.657 408.322C150.215 408.322 151.478 407.058 151.478 405.5C151.478 403.942 150.215 402.678 148.657 402.678C147.098 402.678 145.835 403.942 145.835 405.5C145.835 407.058 147.098 408.322 148.657 408.322Z" stroke="black" stroke-width="0.946119"/>
<path d="M191.979 408.322C193.538 408.322 194.801 407.058 194.801 405.5C194.801 403.942 193.538 402.678 191.979 402.678C190.421 402.678 189.158 403.942 189.158 405.5C189.158 407.058 190.421 408.322 191.979 408.322Z" stroke="black" stroke-width="0.946119"/>
<path d="M235.302 408.322C236.861 408.322 238.124 407.058 238.124 405.5C238.124 403.942 236.861 402.678 235.302 402.678C233.744 402.678 232.481 403.942 232.481 405.5C232.481 407.058 233.744 408.322 235.302 408.322Z" stroke="black" stroke-width="0.946119"/>
<path d="M278.625 408.322C280.184 408.322 281.447 407.058 281.447 405.5C281.447 403.942 280.184 402.678 278.625 402.678C277.067 402.678 275.804 403.942 275.804 405.5C275.804 407.058 277.067 408.322 278.625 408.322Z" stroke="black" stroke-width="0.946119"/>
<path d="M321.948 408.322C323.507 408.322 324.77 407.058 324.77 405.5C324.77 403.942 323.507 402.678 321.948 402.678C320.39 402.678 319.127 403.942 319.127 405.5C319.127 407.058 320.39 408.322 321.948 408.322Z" stroke="black" stroke-width="0.946119"/>
<path d="M365.271 408.322C366.83 408.322 368.093 407.058 368.093 405.5C368.093 403.942 366.83 402.678 365.271 402.678C363.713 402.678 362.45 403.942 362.45 405.5C362.45 407.058 363.713 408.322 365.271 408.322Z" stroke="black" stroke-width="0.946119"/>
<path d="M408.594 408.322C410.153 408.322 411.416 407.058 411.416 405.5C411.416 403.942 410.153 402.678 408.594 402.678C407.036 402.678 405.773 403.942 405.773 405.5C405.773 407.058 407.036 408.322 408.594 408.322Z" stroke="black" stroke-width="0.946119"/>
<path d="M451.917 408.322C453.476 408.322 454.739 407.058 454.739 405.5C454.739 403.942 453.476 402.678 451.917 402.678C450.359 402.678 449.096 403.942 449.096 405.5C449.096 407.058 450.359 408.322 451.917 408.322Z" stroke="black" stroke-width="0.946119"/>
<path d="M495.241 408.322C496.799 408.322 498.062 407.058 498.062 405.5C498.062 403.942 496.799 402.678 495.241 402.678C493.682 402.678 492.419 403.942 492.419 405.5C492.419 407.058 493.682 408.322 495.241 408.322Z" stroke="black" stroke-width="0.946119"/>
<path d="M538.563 408.322C540.122 408.322 541.385 407.058 541.385 405.5C541.385 403.942 540.122 402.678 538.563 402.678C537.005 402.678 535.741 403.942 535.741 405.5C535.741 407.058 537.005 408.322 538.563 408.322Z" stroke="black" stroke-width="0.946119"/>
<path d="M581.886 408.322C583.445 408.322 584.708 407.058 584.708 405.5C584.708 403.942 583.445 402.678 581.886 402.678C580.328 402.678 579.064 403.942 579.064 405.5C579.064 407.058 580.328 408.322 581.886 408.322Z" stroke="black" stroke-width="0.946119"/>
<path d="M625.209 408.322C626.768 408.322 628.031 407.058 628.031 405.5C628.031 403.942 626.768 402.678 625.209 402.678C623.651 402.678 622.387 403.942 622.387 405.5C622.387 407.058 623.651 408.322 625.209 408.322Z" stroke="black" stroke-width="0.946119"/>
<path d="M668.532 408.322C670.091 408.322 671.354 407.058 671.354 405.5C671.354 403.942 670.091 402.678 668.532 402.678C666.974 402.678 665.71 403.942 665.71 405.5C665.71 407.058 666.974 408.322 668.532 408.322Z" stroke="black" stroke-width="0.946119"/>
<path d="M711.855 408.322C713.414 408.322 714.677 407.058 714.677 405.5C714.677 403.942 713.414 402.678 711.855 402.678C710.297 402.678 709.034 403.942 709.034 405.5C709.034 407.058 710.297 408.322 711.855 408.322Z" stroke="black" stroke-width="0.946119"/>
<path d="M755.178 408.322C756.737 408.322 758 407.058 758 405.5C758 403.942 756.737 402.678 755.178 402.678C753.62 402.678 752.357 403.942 752.357 405.5C752.357 407.058 753.62 408.322 755.178 408.322Z" stroke="black" stroke-width="0.946119"/>
</g>
<defs>
<clipPath id="clip0_13_12709">
<rect y="0.5" width="775" height="421" rx="20" fill="white"/>
</clipPath>
</defs>
</svg>
