<svg width="775" height="421" viewBox="0 0 775 421" fill="none" xmlns="http://www.w3.org/2000/svg">
<g clip-path="url(#clip0_13_12709)">
<path d="M18.6874 17.9149C20.2458 17.9149 21.5091 16.6516 21.5091 15.0932C21.5091 13.5348 20.2458 12.2715 18.6874 12.2715C17.129 12.2715 15.8657 13.5348 15.8657 15.0932C15.8657 16.6516 17.129 17.9149 18.6874 17.9149Z" stroke="#222222" stroke-width="0.946119"/>
<path d="M62.0107 17.9149C63.569 17.9149 64.8324 16.6516 64.8324 15.0932C64.8324 13.5348 63.569 12.2715 62.0107 12.2715C60.4523 12.2715 59.189 13.5348 59.189 15.0932C59.189 16.6516 60.4523 17.9149 62.0107 17.9149Z" stroke="#222222" stroke-width="0.946119"/>
<path d="M105.333 17.9149C106.892 17.9149 108.155 16.6516 108.155 15.0932C108.155 13.5348 106.892 12.2715 105.333 12.2715C103.775 12.2715 102.512 13.5348 102.512 15.0932C102.512 16.6516 103.775 17.9149 105.333 17.9149Z" stroke="#222222" stroke-width="0.946119"/>
<path d="M148.657 17.9149C150.215 17.9149 151.478 16.6516 151.478 15.0932C151.478 13.5348 150.215 12.2715 148.657 12.2715C147.098 12.2715 145.835 13.5348 145.835 15.0932C145.835 16.6516 147.098 17.9149 148.657 17.9149Z" stroke="#222222" stroke-width="0.946119"/>
<path d="M191.979 17.9149C193.538 17.9149 194.801 16.6516 194.801 15.0932C194.801 13.5348 193.538 12.2715 191.979 12.2715C190.421 12.2715 189.158 13.5348 189.158 15.0932C189.158 16.6516 190.421 17.9149 191.979 17.9149Z" stroke="#222222" stroke-width="0.946119"/>
<path d="M235.302 17.9149C236.861 17.9149 238.124 16.6516 238.124 15.0932C238.124 13.5348 236.861 12.2715 235.302 12.2715C233.744 12.2715 232.481 13.5348 232.481 15.0932C232.481 16.6516 233.744 17.9149 235.302 17.9149Z" stroke="#222222" stroke-width="0.946119"/>
<path d="M278.625 17.9149C280.184 17.9149 281.447 16.6516 281.447 15.0932C281.447 13.5348 280.184 12.2715 278.625 12.2715C277.067 12.2715 275.804 13.5348 275.804 15.0932C275.804 16.6516 277.067 17.9149 278.625 17.9149Z" stroke="#222222" stroke-width="0.946119"/>
<path d="M321.948 17.9149C323.507 17.9149 324.77 16.6516 324.77 15.0932C324.77 13.5348 323.507 12.2715 321.948 12.2715C320.39 12.2715 319.127 13.5348 319.127 15.0932C319.127 16.6516 320.39 17.9149 321.948 17.9149Z" stroke="#222222" stroke-width="0.946119"/>
<path d="M365.271 17.9149C366.83 17.9149 368.093 16.6516 368.093 15.0932C368.093 13.5348 366.83 12.2715 365.271 12.2715C363.713 12.2715 362.45 13.5348 362.45 15.0932C362.45 16.6516 363.713 17.9149 365.271 17.9149Z" stroke="#222222" stroke-width="0.946119"/>
<path d="M408.594 17.9149C410.153 17.9149 411.416 16.6516 411.416 15.0932C411.416 13.5348 410.153 12.2715 408.594 12.2715C407.036 12.2715 405.773 13.5348 405.773 15.0932C405.773 16.6516 407.036 17.9149 408.594 17.9149Z" stroke="#222222" stroke-width="0.946119"/>
<path d="M451.917 17.9149C453.476 17.9149 454.739 16.6516 454.739 15.0932C454.739 13.5348 453.476 12.2715 451.917 12.2715C450.359 12.2715 449.096 13.5348 449.096 15.0932C449.096 16.6516 450.359 17.9149 451.917 17.9149Z" stroke="#222222" stroke-width="0.946119"/>
<path d="M495.241 17.9149C496.799 17.9149 498.062 16.6516 498.062 15.0932C498.062 13.5348 496.799 12.2715 495.241 12.2715C493.682 12.2715 492.419 13.5348 492.419 15.0932C492.419 16.6516 493.682 17.9149 495.241 17.9149Z" stroke="#222222" stroke-width="0.946119"/>
<path d="M538.563 17.9149C540.122 17.9149 541.385 16.6516 541.385 15.0932C541.385 13.5348 540.122 12.2715 538.563 12.2715C537.005 12.2715 535.741 13.5348 535.741 15.0932C535.741 16.6516 537.005 17.9149 538.563 17.9149Z" stroke="#222222" stroke-width="0.946119"/>
<path d="M581.886 17.9149C583.445 17.9149 584.708 16.6516 584.708 15.0932C584.708 13.5348 583.445 12.2715 581.886 12.2715C580.328 12.2715 579.064 13.5348 579.064 15.0932C579.064 16.6516 580.328 17.9149 581.886 17.9149Z" stroke="#222222" stroke-width="0.946119"/>
<path d="M625.209 17.9149C626.768 17.9149 628.031 16.6516 628.031 15.0932C628.031 13.5348 626.768 12.2715 625.209 12.2715C623.651 12.2715 622.387 13.5348 622.387 15.0932C622.387 16.6516 623.651 17.9149 625.209 17.9149Z" stroke="#222222" stroke-width="0.946119"/>
<path d="M668.532 17.9149C670.091 17.9149 671.354 16.6516 671.354 15.0932C671.354 13.5348 670.091 12.2715 668.532 12.2715C666.974 12.2715 665.71 13.5348 665.71 15.0932C665.71 16.6516 666.974 17.9149 668.532 17.9149Z" stroke="#222222" stroke-width="0.946119"/>
<path d="M711.855 17.9149C713.414 17.9149 714.677 16.6516 714.677 15.0932C714.677 13.5348 713.414 12.2715 711.855 12.2715C710.297 12.2715 709.034 13.5348 709.034 15.0932C709.034 16.6516 710.297 17.9149 711.855 17.9149Z" stroke="#222222" stroke-width="0.946119"/>
<path d="M755.178 17.9149C756.737 17.9149 758 16.6516 758 15.0932C758 13.5348 756.737 12.2715 755.178 12.2715C753.62 12.2715 752.357 13.5348 752.357 15.0932C752.357 16.6516 753.62 17.9149 755.178 17.9149Z" stroke="#222222" stroke-width="0.946119"/>
<path d="M18.6874 61.2379C20.2458 61.2379 21.5091 59.9746 21.5091 58.4162C21.5091 56.8578 20.2458 55.5945 18.6874 55.5945C17.129 55.5945 15.8657 56.8578 15.8657 58.4162C15.8657 59.9746 17.129 61.2379 18.6874 61.2379Z" stroke="#222222" stroke-width="0.946119"/>
<path d="M62.0107 61.2379C63.569 61.2379 64.8324 59.9746 64.8324 58.4162C64.8324 56.8578 63.569 55.5945 62.0107 55.5945C60.4523 55.5945 59.189 56.8578 59.189 58.4162C59.189 59.9746 60.4523 61.2379 62.0107 61.2379Z" stroke="#222222" stroke-width="0.946119"/>
<path d="M105.333 61.2379C106.892 61.2379 108.155 59.9746 108.155 58.4162C108.155 56.8578 106.892 55.5945 105.333 55.5945C103.775 55.5945 102.512 56.8578 102.512 58.4162C102.512 59.9746 103.775 61.2379 105.333 61.2379Z" stroke="#222222" stroke-width="0.946119"/>
<path d="M148.657 61.2379C150.215 61.2379 151.478 59.9746 151.478 58.4162C151.478 56.8578 150.215 55.5945 148.657 55.5945C147.098 55.5945 145.835 56.8578 145.835 58.4162C145.835 59.9746 147.098 61.2379 148.657 61.2379Z" stroke="#222222" stroke-width="0.946119"/>
<path d="M191.979 61.2379C193.538 61.2379 194.801 59.9746 194.801 58.4162C194.801 56.8578 193.538 55.5945 191.979 55.5945C190.421 55.5945 189.158 56.8578 189.158 58.4162C189.158 59.9746 190.421 61.2379 191.979 61.2379Z" stroke="#222222" stroke-width="0.946119"/>
<path d="M235.302 61.2379C236.861 61.2379 238.124 59.9746 238.124 58.4162C238.124 56.8578 236.861 55.5945 235.302 55.5945C233.744 55.5945 232.481 56.8578 232.481 58.4162C232.481 59.9746 233.744 61.2379 235.302 61.2379Z" stroke="#222222" stroke-width="0.946119"/>
<path d="M278.625 61.2379C280.184 61.2379 281.447 59.9746 281.447 58.4162C281.447 56.8578 280.184 55.5945 278.625 55.5945C277.067 55.5945 275.804 56.8578 275.804 58.4162C275.804 59.9746 277.067 61.2379 278.625 61.2379Z" stroke="#222222" stroke-width="0.946119"/>
<path d="M321.948 61.2379C323.507 61.2379 324.77 59.9746 324.77 58.4162C324.77 56.8578 323.507 55.5945 321.948 55.5945C320.39 55.5945 319.127 56.8578 319.127 58.4162C319.127 59.9746 320.39 61.2379 321.948 61.2379Z" stroke="#222222" stroke-width="0.946119"/>
<path d="M365.271 61.2379C366.83 61.2379 368.093 59.9746 368.093 58.4162C368.093 56.8578 366.83 55.5945 365.271 55.5945C363.713 55.5945 362.45 56.8578 362.45 58.4162C362.45 59.9746 363.713 61.2379 365.271 61.2379Z" stroke="#222222" stroke-width="0.946119"/>
<path d="M408.594 61.2379C410.153 61.2379 411.416 59.9746 411.416 58.4162C411.416 56.8578 410.153 55.5945 408.594 55.5945C407.036 55.5945 405.773 56.8578 405.773 58.4162C405.773 59.9746 407.036 61.2379 408.594 61.2379Z" stroke="#222222" stroke-width="0.946119"/>
<path d="M451.917 61.2379C453.476 61.2379 454.739 59.9746 454.739 58.4162C454.739 56.8578 453.476 55.5945 451.917 55.5945C450.359 55.5945 449.096 56.8578 449.096 58.4162C449.096 59.9746 450.359 61.2379 451.917 61.2379Z" stroke="#222222" stroke-width="0.946119"/>
<path d="M495.241 61.2379C496.799 61.2379 498.062 59.9746 498.062 58.4162C498.062 56.8578 496.799 55.5945 495.241 55.5945C493.682 55.5945 492.419 56.8578 492.419 58.4162C492.419 59.9746 493.682 61.2379 495.241 61.2379Z" stroke="#222222" stroke-width="0.946119"/>
<path d="M538.563 61.2379C540.122 61.2379 541.385 59.9746 541.385 58.4162C541.385 56.8578 540.122 55.5945 538.563 55.5945C537.005 55.5945 535.741 56.8578 535.741 58.4162C535.741 59.9746 537.005 61.2379 538.563 61.2379Z" stroke="#222222" stroke-width="0.946119"/>
<path d="M581.886 61.2379C583.445 61.2379 584.708 59.9746 584.708 58.4162C584.708 56.8578 583.445 55.5945 581.886 55.5945C580.328 55.5945 579.064 56.8578 579.064 58.4162C579.064 59.9746 580.328 61.2379 581.886 61.2379Z" stroke="#222222" stroke-width="0.946119"/>
<path d="M625.209 61.2379C626.768 61.2379 628.031 59.9746 628.031 58.4162C628.031 56.8578 626.768 55.5945 625.209 55.5945C623.651 55.5945 622.387 56.8578 622.387 58.4162C622.387 59.9746 623.651 61.2379 625.209 61.2379Z" stroke="#222222" stroke-width="0.946119"/>
<path d="M668.532 61.2379C670.091 61.2379 671.354 59.9746 671.354 58.4162C671.354 56.8578 670.091 55.5945 668.532 55.5945C666.974 55.5945 665.71 56.8578 665.71 58.4162C665.71 59.9746 666.974 61.2379 668.532 61.2379Z" stroke="#222222" stroke-width="0.946119"/>
<path d="M711.855 61.2379C713.414 61.2379 714.677 59.9746 714.677 58.4162C714.677 56.8578 713.414 55.5945 711.855 55.5945C710.297 55.5945 709.034 56.8578 709.034 58.4162C709.034 59.9746 710.297 61.2379 711.855 61.2379Z" stroke="#222222" stroke-width="0.946119"/>
<path d="M755.178 61.2379C756.737 61.2379 758 59.9746 758 58.4162C758 56.8578 756.737 55.5945 755.178 55.5945C753.62 55.5945 752.357 56.8578 752.357 58.4162C752.357 59.9746 753.62 61.2379 755.178 61.2379Z" stroke="#222222" stroke-width="0.946119"/>
<path d="M18.6874 104.561C20.2458 104.561 21.5091 103.298 21.5091 101.739C21.5091 100.181 20.2458 98.9175 18.6874 98.9175C17.129 98.9175 15.8657 100.181 15.8657 101.739C15.8657 103.298 17.129 104.561 18.6874 104.561Z" stroke="#222222" stroke-width="0.946119"/>
<path d="M62.0107 104.561C63.569 104.561 64.8324 103.298 64.8324 101.739C64.8324 100.181 63.569 98.9175 62.0107 98.9175C60.4523 98.9175 59.189 100.181 59.189 101.739C59.189 103.298 60.4523 104.561 62.0107 104.561Z" stroke="#222222" stroke-width="0.946119"/>
<path d="M105.333 104.561C106.892 104.561 108.155 103.298 108.155 101.739C108.155 100.181 106.892 98.9175 105.333 98.9175C103.775 98.9175 102.512 100.181 102.512 101.739C102.512 103.298 103.775 104.561 105.333 104.561Z" stroke="#222222" stroke-width="0.946119"/>
<path d="M148.657 104.561C150.215 104.561 151.478 103.298 151.478 101.739C151.478 100.181 150.215 98.9175 148.657 98.9175C147.098 98.9175 145.835 100.181 145.835 101.739C145.835 103.298 147.098 104.561 148.657 104.561Z" stroke="#222222" stroke-width="0.946119"/>
<path d="M191.979 104.561C193.538 104.561 194.801 103.298 194.801 101.739C194.801 100.181 193.538 98.9175 191.979 98.9175C190.421 98.9175 189.158 100.181 189.158 101.739C189.158 103.298 190.421 104.561 191.979 104.561Z" stroke="#222222" stroke-width="0.946119"/>
<path d="M235.302 104.561C236.861 104.561 238.124 103.298 238.124 101.739C238.124 100.181 236.861 98.9175 235.302 98.9175C233.744 98.9175 232.481 100.181 232.481 101.739C232.481 103.298 233.744 104.561 235.302 104.561Z" stroke="#222222" stroke-width="0.946119"/>
<path d="M278.625 104.561C280.184 104.561 281.447 103.298 281.447 101.739C281.447 100.181 280.184 98.9175 278.625 98.9175C277.067 98.9175 275.804 100.181 275.804 101.739C275.804 103.298 277.067 104.561 278.625 104.561Z" stroke="#222222" stroke-width="0.946119"/>
<path d="M321.948 104.561C323.507 104.561 324.77 103.298 324.77 101.739C324.77 100.181 323.507 98.9175 321.948 98.9175C320.39 98.9175 319.127 100.181 319.127 101.739C319.127 103.298 320.39 104.561 321.948 104.561Z" stroke="#222222" stroke-width="0.946119"/>
<path d="M365.271 104.561C366.83 104.561 368.093 103.298 368.093 101.739C368.093 100.181 366.83 98.9175 365.271 98.9175C363.713 98.9175 362.45 100.181 362.45 101.739C362.45 103.298 363.713 104.561 365.271 104.561Z" stroke="#222222" stroke-width="0.946119"/>
<path d="M408.594 104.561C410.153 104.561 411.416 103.298 411.416 101.739C411.416 100.181 410.153 98.9175 408.594 98.9175C407.036 98.9175 405.773 100.181 405.773 101.739C405.773 103.298 407.036 104.561 408.594 104.561Z" stroke="#222222" stroke-width="0.946119"/>
<path d="M451.917 104.561C453.476 104.561 454.739 103.298 454.739 101.739C454.739 100.181 453.476 98.9175 451.917 98.9175C450.359 98.9175 449.096 100.181 449.096 101.739C449.096 103.298 450.359 104.561 451.917 104.561Z" stroke="#222222" stroke-width="0.946119"/>
<path d="M495.241 104.561C496.799 104.561 498.062 103.298 498.062 101.739C498.062 100.181 496.799 98.9175 495.241 98.9175C493.682 98.9175 492.419 100.181 492.419 101.739C492.419 103.298 493.682 104.561 495.241 104.561Z" stroke="#222222" stroke-width="0.946119"/>
<path d="M538.563 104.561C540.122 104.561 541.385 103.298 541.385 101.739C541.385 100.181 540.122 98.9175 538.563 98.9175C537.005 98.9175 535.741 100.181 535.741 101.739C535.741 103.298 537.005 104.561 538.563 104.561Z" stroke="#222222" stroke-width="0.946119"/>
<path d="M581.886 104.561C583.445 104.561 584.708 103.298 584.708 101.739C584.708 100.181 583.445 98.9175 581.886 98.9175C580.328 98.9175 579.064 100.181 579.064 101.739C579.064 103.298 580.328 104.561 581.886 104.561Z" stroke="#222222" stroke-width="0.946119"/>
<path d="M625.209 104.561C626.768 104.561 628.031 103.298 628.031 101.739C628.031 100.181 626.768 98.9175 625.209 98.9175C623.651 98.9175 622.387 100.181 622.387 101.739C622.387 103.298 623.651 104.561 625.209 104.561Z" stroke="#222222" stroke-width="0.946119"/>
<path d="M668.532 104.561C670.091 104.561 671.354 103.298 671.354 101.739C671.354 100.181 670.091 98.9175 668.532 98.9175C666.974 98.9175 665.71 100.181 665.71 101.739C665.71 103.298 666.974 104.561 668.532 104.561Z" stroke="#222222" stroke-width="0.946119"/>
<path d="M711.855 104.561C713.414 104.561 714.677 103.298 714.677 101.739C714.677 100.181 713.414 98.9175 711.855 98.9175C710.297 98.9175 709.034 100.181 709.034 101.739C709.034 103.298 710.297 104.561 711.855 104.561Z" stroke="#222222" stroke-width="0.946119"/>
<path d="M755.178 104.561C756.737 104.561 758 103.298 758 101.739C758 100.181 756.737 98.9175 755.178 98.9175C753.62 98.9175 752.357 100.181 752.357 101.739C752.357 103.298 753.62 104.561 755.178 104.561Z" stroke="#222222" stroke-width="0.946119"/>
<path d="M18.6874 147.884C20.2458 147.884 21.5091 146.621 21.5091 145.062C21.5091 143.504 20.2458 142.24 18.6874 142.24C17.129 142.24 15.8657 143.504 15.8657 145.062C15.8657 146.621 17.129 147.884 18.6874 147.884Z" stroke="#222222" stroke-width="0.946119"/>
<path d="M62.0107 147.884C63.569 147.884 64.8324 146.621 64.8324 145.062C64.8324 143.504 63.569 142.24 62.0107 142.24C60.4523 142.24 59.189 143.504 59.189 145.062C59.189 146.621 60.4523 147.884 62.0107 147.884Z" stroke="#222222" stroke-width="0.946119"/>
<path d="M105.333 147.884C106.892 147.884 108.155 146.621 108.155 145.062C108.155 143.504 106.892 142.24 105.333 142.24C103.775 142.24 102.512 143.504 102.512 145.062C102.512 146.621 103.775 147.884 105.333 147.884Z" stroke="#222222" stroke-width="0.946119"/>
<path d="M148.657 147.884C150.215 147.884 151.478 146.621 151.478 145.062C151.478 143.504 150.215 142.24 148.657 142.24C147.098 142.24 145.835 143.504 145.835 145.062C145.835 146.621 147.098 147.884 148.657 147.884Z" stroke="#222222" stroke-width="0.946119"/>
<path d="M191.979 147.884C193.538 147.884 194.801 146.621 194.801 145.062C194.801 143.504 193.538 142.24 191.979 142.24C190.421 142.24 189.158 143.504 189.158 145.062C189.158 146.621 190.421 147.884 191.979 147.884Z" stroke="#222222" stroke-width="0.946119"/>
<path d="M235.302 147.884C236.861 147.884 238.124 146.621 238.124 145.062C238.124 143.504 236.861 142.24 235.302 142.24C233.744 142.24 232.481 143.504 232.481 145.062C232.481 146.621 233.744 147.884 235.302 147.884Z" stroke="#222222" stroke-width="0.946119"/>
<path d="M278.625 147.884C280.184 147.884 281.447 146.621 281.447 145.062C281.447 143.504 280.184 142.24 278.625 142.24C277.067 142.24 275.804 143.504 275.804 145.062C275.804 146.621 277.067 147.884 278.625 147.884Z" stroke="#222222" stroke-width="0.946119"/>
<path d="M321.948 147.884C323.507 147.884 324.77 146.621 324.77 145.062C324.77 143.504 323.507 142.24 321.948 142.24C320.39 142.24 319.127 143.504 319.127 145.062C319.127 146.621 320.39 147.884 321.948 147.884Z" stroke="#222222" stroke-width="0.946119"/>
<path d="M365.271 147.884C366.83 147.884 368.093 146.621 368.093 145.062C368.093 143.504 366.83 142.24 365.271 142.24C363.713 142.24 362.45 143.504 362.45 145.062C362.45 146.621 363.713 147.884 365.271 147.884Z" stroke="#222222" stroke-width="0.946119"/>
<path d="M408.594 147.884C410.153 147.884 411.416 146.621 411.416 145.062C411.416 143.504 410.153 142.24 408.594 142.24C407.036 142.24 405.773 143.504 405.773 145.062C405.773 146.621 407.036 147.884 408.594 147.884Z" stroke="#222222" stroke-width="0.946119"/>
<path d="M451.917 147.884C453.476 147.884 454.739 146.621 454.739 145.062C454.739 143.504 453.476 142.24 451.917 142.24C450.359 142.24 449.096 143.504 449.096 145.062C449.096 146.621 450.359 147.884 451.917 147.884Z" stroke="#222222" stroke-width="0.946119"/>
<path d="M495.241 147.884C496.799 147.884 498.062 146.621 498.062 145.062C498.062 143.504 496.799 142.24 495.241 142.24C493.682 142.24 492.419 143.504 492.419 145.062C492.419 146.621 493.682 147.884 495.241 147.884Z" stroke="#222222" stroke-width="0.946119"/>
<path d="M538.563 147.884C540.122 147.884 541.385 146.621 541.385 145.062C541.385 143.504 540.122 142.24 538.563 142.24C537.005 142.24 535.741 143.504 535.741 145.062C535.741 146.621 537.005 147.884 538.563 147.884Z" stroke="#222222" stroke-width="0.946119"/>
<path d="M581.886 147.884C583.445 147.884 584.708 146.621 584.708 145.062C584.708 143.504 583.445 142.24 581.886 142.24C580.328 142.24 579.064 143.504 579.064 145.062C579.064 146.621 580.328 147.884 581.886 147.884Z" stroke="#222222" stroke-width="0.946119"/>
<path d="M625.209 147.884C626.768 147.884 628.031 146.621 628.031 145.062C628.031 143.504 626.768 142.24 625.209 142.24C623.651 142.24 622.387 143.504 622.387 145.062C622.387 146.621 623.651 147.884 625.209 147.884Z" stroke="#222222" stroke-width="0.946119"/>
<path d="M668.532 147.884C670.091 147.884 671.354 146.621 671.354 145.062C671.354 143.504 670.091 142.24 668.532 142.24C666.974 142.24 665.71 143.504 665.71 145.062C665.71 146.621 666.974 147.884 668.532 147.884Z" stroke="#222222" stroke-width="0.946119"/>
<path d="M711.855 147.884C713.414 147.884 714.677 146.621 714.677 145.062C714.677 143.504 713.414 142.24 711.855 142.24C710.297 142.24 709.034 143.504 709.034 145.062C709.034 146.621 710.297 147.884 711.855 147.884Z" stroke="#222222" stroke-width="0.946119"/>
<path d="M755.178 147.884C756.737 147.884 758 146.621 758 145.062C758 143.504 756.737 142.24 755.178 142.24C753.62 142.24 752.357 143.504 752.357 145.062C752.357 146.621 753.62 147.884 755.178 147.884Z" stroke="#222222" stroke-width="0.946119"/>
<path d="M18.6874 191.207C20.2458 191.207 21.5091 189.944 21.5091 188.385C21.5091 186.827 20.2458 185.563 18.6874 185.563C17.129 185.563 15.8657 186.827 15.8657 188.385C15.8657 189.944 17.129 191.207 18.6874 191.207Z" stroke="#222222" stroke-width="0.946119"/>
<path d="M62.0107 191.207C63.569 191.207 64.8324 189.944 64.8324 188.385C64.8324 186.827 63.569 185.563 62.0107 185.563C60.4523 185.563 59.189 186.827 59.189 188.385C59.189 189.944 60.4523 191.207 62.0107 191.207Z" stroke="#222222" stroke-width="0.946119"/>
<path d="M105.333 191.207C106.892 191.207 108.155 189.944 108.155 188.385C108.155 186.827 106.892 185.563 105.333 185.563C103.775 185.563 102.512 186.827 102.512 188.385C102.512 189.944 103.775 191.207 105.333 191.207Z" stroke="#222222" stroke-width="0.946119"/>
<path d="M148.657 191.207C150.215 191.207 151.478 189.944 151.478 188.385C151.478 186.827 150.215 185.563 148.657 185.563C147.098 185.563 145.835 186.827 145.835 188.385C145.835 189.944 147.098 191.207 148.657 191.207Z" stroke="#222222" stroke-width="0.946119"/>
<path d="M191.979 191.207C193.538 191.207 194.801 189.944 194.801 188.385C194.801 186.827 193.538 185.563 191.979 185.563C190.421 185.563 189.158 186.827 189.158 188.385C189.158 189.944 190.421 191.207 191.979 191.207Z" stroke="#222222" stroke-width="0.946119"/>
<path d="M235.302 191.207C236.861 191.207 238.124 189.944 238.124 188.385C238.124 186.827 236.861 185.563 235.302 185.563C233.744 185.563 232.481 186.827 232.481 188.385C232.481 189.944 233.744 191.207 235.302 191.207Z" stroke="#222222" stroke-width="0.946119"/>
<path d="M278.625 191.207C280.184 191.207 281.447 189.944 281.447 188.385C281.447 186.827 280.184 185.563 278.625 185.563C277.067 185.563 275.804 186.827 275.804 188.385C275.804 189.944 277.067 191.207 278.625 191.207Z" stroke="#222222" stroke-width="0.946119"/>
<path d="M321.948 191.207C323.507 191.207 324.77 189.944 324.77 188.385C324.77 186.827 323.507 185.563 321.948 185.563C320.39 185.563 319.127 186.827 319.127 188.385C319.127 189.944 320.39 191.207 321.948 191.207Z" stroke="#222222" stroke-width="0.946119"/>
<path d="M365.271 191.207C366.83 191.207 368.093 189.944 368.093 188.385C368.093 186.827 366.83 185.563 365.271 185.563C363.713 185.563 362.45 186.827 362.45 188.385C362.45 189.944 363.713 191.207 365.271 191.207Z" stroke="#222222" stroke-width="0.946119"/>
<path d="M408.594 191.207C410.153 191.207 411.416 189.944 411.416 188.385C411.416 186.827 410.153 185.563 408.594 185.563C407.036 185.563 405.773 186.827 405.773 188.385C405.773 189.944 407.036 191.207 408.594 191.207Z" stroke="#222222" stroke-width="0.946119"/>
<path d="M451.917 191.207C453.476 191.207 454.739 189.944 454.739 188.385C454.739 186.827 453.476 185.563 451.917 185.563C450.359 185.563 449.096 186.827 449.096 188.385C449.096 189.944 450.359 191.207 451.917 191.207Z" stroke="#222222" stroke-width="0.946119"/>
<path d="M495.241 191.207C496.799 191.207 498.062 189.944 498.062 188.385C498.062 186.827 496.799 185.563 495.241 185.563C493.682 185.563 492.419 186.827 492.419 188.385C492.419 189.944 493.682 191.207 495.241 191.207Z" stroke="#222222" stroke-width="0.946119"/>
<path d="M538.563 191.207C540.122 191.207 541.385 189.944 541.385 188.385C541.385 186.827 540.122 185.563 538.563 185.563C537.005 185.563 535.741 186.827 535.741 188.385C535.741 189.944 537.005 191.207 538.563 191.207Z" stroke="#222222" stroke-width="0.946119"/>
<path d="M581.886 191.207C583.445 191.207 584.708 189.944 584.708 188.385C584.708 186.827 583.445 185.563 581.886 185.563C580.328 185.563 579.064 186.827 579.064 188.385C579.064 189.944 580.328 191.207 581.886 191.207Z" stroke="#222222" stroke-width="0.946119"/>
<path d="M625.209 191.207C626.768 191.207 628.031 189.944 628.031 188.385C628.031 186.827 626.768 185.563 625.209 185.563C623.651 185.563 622.387 186.827 622.387 188.385C622.387 189.944 623.651 191.207 625.209 191.207Z" stroke="#222222" stroke-width="0.946119"/>
<path d="M668.532 191.207C670.091 191.207 671.354 189.944 671.354 188.385C671.354 186.827 670.091 185.563 668.532 185.563C666.974 185.563 665.71 186.827 665.71 188.385C665.71 189.944 666.974 191.207 668.532 191.207Z" stroke="#222222" stroke-width="0.946119"/>
<path d="M711.855 191.207C713.414 191.207 714.677 189.944 714.677 188.385C714.677 186.827 713.414 185.563 711.855 185.563C710.297 185.563 709.034 186.827 709.034 188.385C709.034 189.944 710.297 191.207 711.855 191.207Z" stroke="#222222" stroke-width="0.946119"/>
<path d="M755.178 191.207C756.737 191.207 758 189.944 758 188.385C758 186.827 756.737 185.563 755.178 185.563C753.62 185.563 752.357 186.827 752.357 188.385C752.357 189.944 753.62 191.207 755.178 191.207Z" stroke="#222222" stroke-width="0.946119"/>
<path d="M18.6874 234.53C20.2458 234.53 21.5091 233.266 21.5091 231.708C21.5091 230.15 20.2458 228.886 18.6874 228.886C17.129 228.886 15.8657 230.15 15.8657 231.708C15.8657 233.266 17.129 234.53 18.6874 234.53Z" stroke="#222222" stroke-width="0.946119"/>
<path d="M62.0107 234.53C63.569 234.53 64.8324 233.266 64.8324 231.708C64.8324 230.15 63.569 228.886 62.0107 228.886C60.4523 228.886 59.189 230.15 59.189 231.708C59.189 233.266 60.4523 234.53 62.0107 234.53Z" stroke="#222222" stroke-width="0.946119"/>
<path d="M105.333 234.53C106.892 234.53 108.155 233.266 108.155 231.708C108.155 230.15 106.892 228.886 105.333 228.886C103.775 228.886 102.512 230.15 102.512 231.708C102.512 233.266 103.775 234.53 105.333 234.53Z" stroke="#222222" stroke-width="0.946119"/>
<path d="M148.657 234.53C150.215 234.53 151.478 233.266 151.478 231.708C151.478 230.15 150.215 228.886 148.657 228.886C147.098 228.886 145.835 230.15 145.835 231.708C145.835 233.266 147.098 234.53 148.657 234.53Z" stroke="#C0343B" stroke-width="0.946119"/>
<path d="M191.979 234.53C193.538 234.53 194.801 233.266 194.801 231.708C194.801 230.15 193.538 228.886 191.979 228.886C190.421 228.886 189.158 230.15 189.158 231.708C189.158 233.266 190.421 234.53 191.979 234.53Z" stroke="#C0343B" stroke-width="0.946119"/>
<path d="M235.302 234.53C236.861 234.53 238.124 233.266 238.124 231.708C238.124 230.15 236.861 228.886 235.302 228.886C233.744 228.886 232.481 230.15 232.481 231.708C232.481 233.266 233.744 234.53 235.302 234.53Z" stroke="#C0343B" stroke-width="0.946119"/>
<path d="M278.625 234.53C280.184 234.53 281.447 233.266 281.447 231.708C281.447 230.15 280.184 228.886 278.625 228.886C277.067 228.886 275.804 230.15 275.804 231.708C275.804 233.266 277.067 234.53 278.625 234.53Z" stroke="#C0343B" stroke-width="0.946119"/>
<path d="M321.948 234.53C323.507 234.53 324.77 233.266 324.77 231.708C324.77 230.15 323.507 228.886 321.948 228.886C320.39 228.886 319.127 230.15 319.127 231.708C319.127 233.266 320.39 234.53 321.948 234.53Z" stroke="#222222" stroke-width="0.946119"/>
<path d="M365.271 234.53C366.83 234.53 368.093 233.266 368.093 231.708C368.093 230.15 366.83 228.886 365.271 228.886C363.713 228.886 362.45 230.15 362.45 231.708C362.45 233.266 363.713 234.53 365.271 234.53Z" stroke="#222222" stroke-width="0.946119"/>
<path d="M408.594 234.53C410.153 234.53 411.416 233.266 411.416 231.708C411.416 230.15 410.153 228.886 408.594 228.886C407.036 228.886 405.773 230.15 405.773 231.708C405.773 233.266 407.036 234.53 408.594 234.53Z" stroke="#222222" stroke-width="0.946119"/>
<path d="M451.917 234.53C453.476 234.53 454.739 233.266 454.739 231.708C454.739 230.15 453.476 228.886 451.917 228.886C450.359 228.886 449.096 230.15 449.096 231.708C449.096 233.266 450.359 234.53 451.917 234.53Z" stroke="#222222" stroke-width="0.946119"/>
<path d="M495.241 234.53C496.799 234.53 498.062 233.266 498.062 231.708C498.062 230.15 496.799 228.886 495.241 228.886C493.682 228.886 492.419 230.15 492.419 231.708C492.419 233.266 493.682 234.53 495.241 234.53Z" stroke="#222222" stroke-width="0.946119"/>
<path d="M538.563 234.53C540.122 234.53 541.385 233.266 541.385 231.708C541.385 230.15 540.122 228.886 538.563 228.886C537.005 228.886 535.741 230.15 535.741 231.708C535.741 233.266 537.005 234.53 538.563 234.53Z" stroke="#222222" stroke-width="0.946119"/>
<path d="M581.886 234.53C583.445 234.53 584.708 233.266 584.708 231.708C584.708 230.15 583.445 228.886 581.886 228.886C580.328 228.886 579.064 230.15 579.064 231.708C579.064 233.266 580.328 234.53 581.886 234.53Z" stroke="#222222" stroke-width="0.946119"/>
<path d="M625.209 234.53C626.768 234.53 628.031 233.266 628.031 231.708C628.031 230.15 626.768 228.886 625.209 228.886C623.651 228.886 622.387 230.15 622.387 231.708C622.387 233.266 623.651 234.53 625.209 234.53Z" stroke="#222222" stroke-width="0.946119"/>
<path d="M668.532 234.53C670.091 234.53 671.354 233.266 671.354 231.708C671.354 230.15 670.091 228.886 668.532 228.886C666.974 228.886 665.71 230.15 665.71 231.708C665.71 233.266 666.974 234.53 668.532 234.53Z" stroke="#222222" stroke-width="0.946119"/>
<path d="M711.855 234.53C713.414 234.53 714.677 233.266 714.677 231.708C714.677 230.15 713.414 228.886 711.855 228.886C710.297 228.886 709.034 230.15 709.034 231.708C709.034 233.266 710.297 234.53 711.855 234.53Z" stroke="#222222" stroke-width="0.946119"/>
<path d="M755.178 234.53C756.737 234.53 758 233.266 758 231.708C758 230.15 756.737 228.886 755.178 228.886C753.62 228.886 752.357 230.15 752.357 231.708C752.357 233.266 753.62 234.53 755.178 234.53Z" stroke="#222222" stroke-width="0.946119"/>
<path d="M18.6874 277.853C20.2458 277.853 21.5091 276.589 21.5091 275.031C21.5091 273.473 20.2458 272.209 18.6874 272.209C17.129 272.209 15.8657 273.473 15.8657 275.031C15.8657 276.589 17.129 277.853 18.6874 277.853Z" stroke="#222222" stroke-width="0.946119"/>
<path d="M62.0107 277.853C63.569 277.853 64.8324 276.589 64.8324 275.031C64.8324 273.473 63.569 272.209 62.0107 272.209C60.4523 272.209 59.189 273.473 59.189 275.031C59.189 276.589 60.4523 277.853 62.0107 277.853Z" stroke="#222222" stroke-width="0.946119"/>
<path d="M105.333 277.853C106.892 277.853 108.155 276.589 108.155 275.031C108.155 273.473 106.892 272.209 105.333 272.209C103.775 272.209 102.512 273.473 102.512 275.031C102.512 276.589 103.775 277.853 105.333 277.853Z" stroke="#222222" stroke-width="0.946119"/>
<path d="M148.657 277.853C150.215 277.853 151.478 276.589 151.478 275.031C151.478 273.473 150.215 272.209 148.657 272.209C147.098 272.209 145.835 273.473 145.835 275.031C145.835 276.589 147.098 277.853 148.657 277.853Z" stroke="#C0343B" stroke-width="0.946119"/>
<path d="M191.979 277.853C193.538 277.853 194.801 276.589 194.801 275.031C194.801 273.473 193.538 272.209 191.979 272.209C190.421 272.209 189.158 273.473 189.158 275.031C189.158 276.589 190.421 277.853 191.979 277.853Z" stroke="#C0343B" stroke-width="0.946119"/>
<path d="M235.302 277.853C236.861 277.853 238.124 276.589 238.124 275.031C238.124 273.473 236.861 272.209 235.302 272.209C233.744 272.209 232.481 273.473 232.481 275.031C232.481 276.589 233.744 277.853 235.302 277.853Z" stroke="#C0343B" stroke-width="0.946119"/>
<path d="M278.625 277.853C280.184 277.853 281.447 276.589 281.447 275.031C281.447 273.473 280.184 272.209 278.625 272.209C277.067 272.209 275.804 273.473 275.804 275.031C275.804 276.589 277.067 277.853 278.625 277.853Z" stroke="#C0343B" stroke-width="0.946119"/>
<path d="M321.948 277.853C323.507 277.853 324.77 276.589 324.77 275.031C324.77 273.473 323.507 272.209 321.948 272.209C320.39 272.209 319.127 273.473 319.127 275.031C319.127 276.589 320.39 277.853 321.948 277.853Z" stroke="#222222" stroke-width="0.946119"/>
<path d="M365.271 277.853C366.83 277.853 368.093 276.589 368.093 275.031C368.093 273.473 366.83 272.209 365.271 272.209C363.713 272.209 362.45 273.473 362.45 275.031C362.45 276.589 363.713 277.853 365.271 277.853Z" stroke="#222222" stroke-width="0.946119"/>
<path d="M408.594 277.853C410.153 277.853 411.416 276.589 411.416 275.031C411.416 273.473 410.153 272.209 408.594 272.209C407.036 272.209 405.773 273.473 405.773 275.031C405.773 276.589 407.036 277.853 408.594 277.853Z" stroke="#222222" stroke-width="0.946119"/>
<path d="M451.917 277.853C453.476 277.853 454.739 276.589 454.739 275.031C454.739 273.473 453.476 272.209 451.917 272.209C450.359 272.209 449.096 273.473 449.096 275.031C449.096 276.589 450.359 277.853 451.917 277.853Z" stroke="#222222" stroke-width="0.946119"/>
<path d="M495.241 277.853C496.799 277.853 498.062 276.589 498.062 275.031C498.062 273.473 496.799 272.209 495.241 272.209C493.682 272.209 492.419 273.473 492.419 275.031C492.419 276.589 493.682 277.853 495.241 277.853Z" stroke="#222222" stroke-width="0.946119"/>
<path d="M538.563 277.853C540.122 277.853 541.385 276.589 541.385 275.031C541.385 273.473 540.122 272.209 538.563 272.209C537.005 272.209 535.741 273.473 535.741 275.031C535.741 276.589 537.005 277.853 538.563 277.853Z" stroke="#222222" stroke-width="0.946119"/>
<path d="M581.886 277.853C583.445 277.853 584.708 276.589 584.708 275.031C584.708 273.473 583.445 272.209 581.886 272.209C580.328 272.209 579.064 273.473 579.064 275.031C579.064 276.589 580.328 277.853 581.886 277.853Z" stroke="#222222" stroke-width="0.946119"/>
<path d="M625.209 277.853C626.768 277.853 628.031 276.589 628.031 275.031C628.031 273.473 626.768 272.209 625.209 272.209C623.651 272.209 622.387 273.473 622.387 275.031C622.387 276.589 623.651 277.853 625.209 277.853Z" stroke="#222222" stroke-width="0.946119"/>
<path d="M668.532 277.853C670.091 277.853 671.354 276.589 671.354 275.031C671.354 273.473 670.091 272.209 668.532 272.209C666.974 272.209 665.71 273.473 665.71 275.031C665.71 276.589 666.974 277.853 668.532 277.853Z" stroke="#222222" stroke-width="0.946119"/>
<path d="M711.855 277.853C713.414 277.853 714.677 276.589 714.677 275.031C714.677 273.473 713.414 272.209 711.855 272.209C710.297 272.209 709.034 273.473 709.034 275.031C709.034 276.589 710.297 277.853 711.855 277.853Z" stroke="#222222" stroke-width="0.946119"/>
<path d="M755.178 277.853C756.737 277.853 758 276.589 758 275.031C758 273.473 756.737 272.209 755.178 272.209C753.62 272.209 752.357 273.473 752.357 275.031C752.357 276.589 753.62 277.853 755.178 277.853Z" stroke="#222222" stroke-width="0.946119"/>
<path d="M18.6874 321.176C20.2458 321.176 21.5091 319.913 21.5091 318.354C21.5091 316.796 20.2458 315.532 18.6874 315.532C17.129 315.532 15.8657 316.796 15.8657 318.354C15.8657 319.913 17.129 321.176 18.6874 321.176Z" stroke="#222222" stroke-width="0.946119"/>
<path d="M62.0107 321.176C63.569 321.176 64.8324 319.913 64.8324 318.354C64.8324 316.796 63.569 315.532 62.0107 315.532C60.4523 315.532 59.189 316.796 59.189 318.354C59.189 319.913 60.4523 321.176 62.0107 321.176Z" stroke="#222222" stroke-width="0.946119"/>
<path d="M105.333 321.176C106.892 321.176 108.155 319.913 108.155 318.354C108.155 316.796 106.892 315.532 105.333 315.532C103.775 315.532 102.512 316.796 102.512 318.354C102.512 319.913 103.775 321.176 105.333 321.176Z" stroke="#222222" stroke-width="0.946119"/>
<path d="M148.657 321.176C150.215 321.176 151.478 319.913 151.478 318.354C151.478 316.796 150.215 315.532 148.657 315.532C147.098 315.532 145.835 316.796 145.835 318.354C145.835 319.913 147.098 321.176 148.657 321.176Z" stroke="#C0343B" stroke-width="0.946119"/>
<path d="M191.979 321.176C193.538 321.176 194.801 319.913 194.801 318.354C194.801 316.796 193.538 315.532 191.979 315.532C190.421 315.532 189.158 316.796 189.158 318.354C189.158 319.913 190.421 321.176 191.979 321.176Z" stroke="#C0343B" stroke-width="0.946119"/>
<path d="M235.302 321.176C236.861 321.176 238.124 319.913 238.124 318.354C238.124 316.796 236.861 315.532 235.302 315.532C233.744 315.532 232.481 316.796 232.481 318.354C232.481 319.913 233.744 321.176 235.302 321.176Z" stroke="#C0343B" stroke-width="0.946119"/>
<path d="M278.625 321.176C280.184 321.176 281.447 319.913 281.447 318.354C281.447 316.796 280.184 315.532 278.625 315.532C277.067 315.532 275.804 316.796 275.804 318.354C275.804 319.913 277.067 321.176 278.625 321.176Z" stroke="#C0343B" stroke-width="0.946119"/>
<path d="M321.948 321.176C323.507 321.176 324.77 319.913 324.77 318.354C324.77 316.796 323.507 315.532 321.948 315.532C320.39 315.532 319.127 316.796 319.127 318.354C319.127 319.913 320.39 321.176 321.948 321.176Z" stroke="#222222" stroke-width="0.946119"/>
<path d="M365.271 321.176C366.83 321.176 368.093 319.913 368.093 318.354C368.093 316.796 366.83 315.532 365.271 315.532C363.713 315.532 362.45 316.796 362.45 318.354C362.45 319.913 363.713 321.176 365.271 321.176Z" stroke="#222222" stroke-width="0.946119"/>
<path d="M408.594 321.176C410.153 321.176 411.416 319.913 411.416 318.354C411.416 316.796 410.153 315.532 408.594 315.532C407.036 315.532 405.773 316.796 405.773 318.354C405.773 319.913 407.036 321.176 408.594 321.176Z" stroke="#222222" stroke-width="0.946119"/>
<path d="M451.917 321.176C453.476 321.176 454.739 319.913 454.739 318.354C454.739 316.796 453.476 315.532 451.917 315.532C450.359 315.532 449.096 316.796 449.096 318.354C449.096 319.913 450.359 321.176 451.917 321.176Z" stroke="#222222" stroke-width="0.946119"/>
<path d="M495.241 321.176C496.799 321.176 498.062 319.913 498.062 318.354C498.062 316.796 496.799 315.532 495.241 315.532C493.682 315.532 492.419 316.796 492.419 318.354C492.419 319.913 493.682 321.176 495.241 321.176Z" stroke="#222222" stroke-width="0.946119"/>
<path d="M538.563 321.176C540.122 321.176 541.385 319.913 541.385 318.354C541.385 316.796 540.122 315.532 538.563 315.532C537.005 315.532 535.741 316.796 535.741 318.354C535.741 319.913 537.005 321.176 538.563 321.176Z" stroke="#222222" stroke-width="0.946119"/>
<path d="M581.886 321.176C583.445 321.176 584.708 319.913 584.708 318.354C584.708 316.796 583.445 315.532 581.886 315.532C580.328 315.532 579.064 316.796 579.064 318.354C579.064 319.913 580.328 321.176 581.886 321.176Z" stroke="#222222" stroke-width="0.946119"/>
<path d="M625.209 321.176C626.768 321.176 628.031 319.913 628.031 318.354C628.031 316.796 626.768 315.532 625.209 315.532C623.651 315.532 622.387 316.796 622.387 318.354C622.387 319.913 623.651 321.176 625.209 321.176Z" stroke="#222222" stroke-width="0.946119"/>
<path d="M668.532 321.176C670.091 321.176 671.354 319.913 671.354 318.354C671.354 316.796 670.091 315.532 668.532 315.532C666.974 315.532 665.71 316.796 665.71 318.354C665.71 319.913 666.974 321.176 668.532 321.176Z" stroke="#222222" stroke-width="0.946119"/>
<path d="M711.855 321.176C713.414 321.176 714.677 319.913 714.677 318.354C714.677 316.796 713.414 315.532 711.855 315.532C710.297 315.532 709.034 316.796 709.034 318.354C709.034 319.913 710.297 321.176 711.855 321.176Z" stroke="#222222" stroke-width="0.946119"/>
<path d="M755.178 321.176C756.737 321.176 758 319.913 758 318.354C758 316.796 756.737 315.532 755.178 315.532C753.62 315.532 752.357 316.796 752.357 318.354C752.357 319.913 753.62 321.176 755.178 321.176Z" stroke="#222222" stroke-width="0.946119"/>
<path d="M18.6874 364.499C20.2458 364.499 21.5091 363.235 21.5091 361.677C21.5091 360.119 20.2458 358.855 18.6874 358.855C17.129 358.855 15.8657 360.119 15.8657 361.677C15.8657 363.235 17.129 364.499 18.6874 364.499Z" stroke="#222222" stroke-width="0.946119"/>
<path d="M62.0107 364.499C63.569 364.499 64.8324 363.235 64.8324 361.677C64.8324 360.119 63.569 358.855 62.0107 358.855C60.4523 358.855 59.189 360.119 59.189 361.677C59.189 363.235 60.4523 364.499 62.0107 364.499Z" stroke="#222222" stroke-width="0.946119"/>
<path d="M105.333 364.499C106.892 364.499 108.155 363.235 108.155 361.677C108.155 360.119 106.892 358.855 105.333 358.855C103.775 358.855 102.512 360.119 102.512 361.677C102.512 363.235 103.775 364.499 105.333 364.499Z" stroke="#222222" stroke-width="0.946119"/>
<path d="M148.657 364.499C150.215 364.499 151.478 363.235 151.478 361.677C151.478 360.119 150.215 358.855 148.657 358.855C147.098 358.855 145.835 360.119 145.835 361.677C145.835 363.235 147.098 364.499 148.657 364.499Z" stroke="#C0343B" stroke-width="0.946119"/>
<path d="M191.979 364.499C193.538 364.499 194.801 363.235 194.801 361.677C194.801 360.119 193.538 358.855 191.979 358.855C190.421 358.855 189.158 360.119 189.158 361.677C189.158 363.235 190.421 364.499 191.979 364.499Z" stroke="#C0343B" stroke-width="0.946119"/>
<path d="M235.302 364.499C236.861 364.499 238.124 363.235 238.124 361.677C238.124 360.119 236.861 358.855 235.302 358.855C233.744 358.855 232.481 360.119 232.481 361.677C232.481 363.235 233.744 364.499 235.302 364.499Z" stroke="#C0343B" stroke-width="0.946119"/>
<path d="M278.625 364.499C280.184 364.499 281.447 363.235 281.447 361.677C281.447 360.119 280.184 358.855 278.625 358.855C277.067 358.855 275.804 360.119 275.804 361.677C275.804 363.235 277.067 364.499 278.625 364.499Z" stroke="#C0343B" stroke-width="0.946119"/>
<path d="M321.948 364.499C323.507 364.499 324.77 363.235 324.77 361.677C324.77 360.119 323.507 358.855 321.948 358.855C320.39 358.855 319.127 360.119 319.127 361.677C319.127 363.235 320.39 364.499 321.948 364.499Z" stroke="#222222" stroke-width="0.946119"/>
<path d="M365.271 364.499C366.83 364.499 368.093 363.235 368.093 361.677C368.093 360.119 366.83 358.855 365.271 358.855C363.713 358.855 362.45 360.119 362.45 361.677C362.45 363.235 363.713 364.499 365.271 364.499Z" stroke="#222222" stroke-width="0.946119"/>
<path d="M408.594 364.499C410.153 364.499 411.416 363.235 411.416 361.677C411.416 360.119 410.153 358.855 408.594 358.855C407.036 358.855 405.773 360.119 405.773 361.677C405.773 363.235 407.036 364.499 408.594 364.499Z" stroke="#222222" stroke-width="0.946119"/>
<path d="M451.917 364.499C453.476 364.499 454.739 363.235 454.739 361.677C454.739 360.119 453.476 358.855 451.917 358.855C450.359 358.855 449.096 360.119 449.096 361.677C449.096 363.235 450.359 364.499 451.917 364.499Z" stroke="#222222" stroke-width="0.946119"/>
<path d="M495.241 364.499C496.799 364.499 498.062 363.235 498.062 361.677C498.062 360.119 496.799 358.855 495.241 358.855C493.682 358.855 492.419 360.119 492.419 361.677C492.419 363.235 493.682 364.499 495.241 364.499Z" stroke="#222222" stroke-width="0.946119"/>
<path d="M538.563 364.499C540.122 364.499 541.385 363.235 541.385 361.677C541.385 360.119 540.122 358.855 538.563 358.855C537.005 358.855 535.741 360.119 535.741 361.677C535.741 363.235 537.005 364.499 538.563 364.499Z" stroke="#222222" stroke-width="0.946119"/>
<path d="M581.886 364.499C583.445 364.499 584.708 363.235 584.708 361.677C584.708 360.119 583.445 358.855 581.886 358.855C580.328 358.855 579.064 360.119 579.064 361.677C579.064 363.235 580.328 364.499 581.886 364.499Z" stroke="#222222" stroke-width="0.946119"/>
<path d="M625.209 364.499C626.768 364.499 628.031 363.235 628.031 361.677C628.031 360.119 626.768 358.855 625.209 358.855C623.651 358.855 622.387 360.119 622.387 361.677C622.387 363.235 623.651 364.499 625.209 364.499Z" stroke="#222222" stroke-width="0.946119"/>
<path d="M668.532 364.499C670.091 364.499 671.354 363.235 671.354 361.677C671.354 360.119 670.091 358.855 668.532 358.855C666.974 358.855 665.71 360.119 665.71 361.677C665.71 363.235 666.974 364.499 668.532 364.499Z" stroke="#222222" stroke-width="0.946119"/>
<path d="M711.855 364.499C713.414 364.499 714.677 363.235 714.677 361.677C714.677 360.119 713.414 358.855 711.855 358.855C710.297 358.855 709.034 360.119 709.034 361.677C709.034 363.235 710.297 364.499 711.855 364.499Z" stroke="#222222" stroke-width="0.946119"/>
<path d="M755.178 364.499C756.737 364.499 758 363.235 758 361.677C758 360.119 756.737 358.855 755.178 358.855C753.62 358.855 752.357 360.119 752.357 361.677C752.357 363.235 753.62 364.499 755.178 364.499Z" stroke="#222222" stroke-width="0.946119"/>
<path d="M18.6874 407.822C20.2458 407.822 21.5091 406.558 21.5091 405C21.5091 403.442 20.2458 402.178 18.6874 402.178C17.129 402.178 15.8657 403.442 15.8657 405C15.8657 406.558 17.129 407.822 18.6874 407.822Z" stroke="#222222" stroke-width="0.946119"/>
<path d="M62.0107 407.822C63.569 407.822 64.8324 406.558 64.8324 405C64.8324 403.442 63.569 402.178 62.0107 402.178C60.4523 402.178 59.189 403.442 59.189 405C59.189 406.558 60.4523 407.822 62.0107 407.822Z" stroke="#222222" stroke-width="0.946119"/>
<path d="M105.333 407.822C106.892 407.822 108.155 406.558 108.155 405C108.155 403.442 106.892 402.178 105.333 402.178C103.775 402.178 102.512 403.442 102.512 405C102.512 406.558 103.775 407.822 105.333 407.822Z" stroke="#222222" stroke-width="0.946119"/>
<path d="M148.657 407.822C150.215 407.822 151.478 406.558 151.478 405C151.478 403.442 150.215 402.178 148.657 402.178C147.098 402.178 145.835 403.442 145.835 405C145.835 406.558 147.098 407.822 148.657 407.822Z" stroke="#222222" stroke-width="0.946119"/>
<path d="M191.979 407.822C193.538 407.822 194.801 406.558 194.801 405C194.801 403.442 193.538 402.178 191.979 402.178C190.421 402.178 189.158 403.442 189.158 405C189.158 406.558 190.421 407.822 191.979 407.822Z" stroke="#222222" stroke-width="0.946119"/>
<path d="M235.302 407.822C236.861 407.822 238.124 406.558 238.124 405C238.124 403.442 236.861 402.178 235.302 402.178C233.744 402.178 232.481 403.442 232.481 405C232.481 406.558 233.744 407.822 235.302 407.822Z" stroke="#222222" stroke-width="0.946119"/>
<path d="M278.625 407.822C280.184 407.822 281.447 406.558 281.447 405C281.447 403.442 280.184 402.178 278.625 402.178C277.067 402.178 275.804 403.442 275.804 405C275.804 406.558 277.067 407.822 278.625 407.822Z" stroke="#222222" stroke-width="0.946119"/>
<path d="M321.948 407.822C323.507 407.822 324.77 406.558 324.77 405C324.77 403.442 323.507 402.178 321.948 402.178C320.39 402.178 319.127 403.442 319.127 405C319.127 406.558 320.39 407.822 321.948 407.822Z" stroke="#222222" stroke-width="0.946119"/>
<path d="M365.271 407.822C366.83 407.822 368.093 406.558 368.093 405C368.093 403.442 366.83 402.178 365.271 402.178C363.713 402.178 362.45 403.442 362.45 405C362.45 406.558 363.713 407.822 365.271 407.822Z" stroke="#222222" stroke-width="0.946119"/>
<path d="M408.594 407.822C410.153 407.822 411.416 406.558 411.416 405C411.416 403.442 410.153 402.178 408.594 402.178C407.036 402.178 405.773 403.442 405.773 405C405.773 406.558 407.036 407.822 408.594 407.822Z" stroke="#222222" stroke-width="0.946119"/>
<path d="M451.917 407.822C453.476 407.822 454.739 406.558 454.739 405C454.739 403.442 453.476 402.178 451.917 402.178C450.359 402.178 449.096 403.442 449.096 405C449.096 406.558 450.359 407.822 451.917 407.822Z" stroke="#222222" stroke-width="0.946119"/>
<path d="M495.241 407.822C496.799 407.822 498.062 406.558 498.062 405C498.062 403.442 496.799 402.178 495.241 402.178C493.682 402.178 492.419 403.442 492.419 405C492.419 406.558 493.682 407.822 495.241 407.822Z" stroke="#222222" stroke-width="0.946119"/>
<path d="M538.563 407.822C540.122 407.822 541.385 406.558 541.385 405C541.385 403.442 540.122 402.178 538.563 402.178C537.005 402.178 535.741 403.442 535.741 405C535.741 406.558 537.005 407.822 538.563 407.822Z" stroke="#222222" stroke-width="0.946119"/>
<path d="M581.886 407.822C583.445 407.822 584.708 406.558 584.708 405C584.708 403.442 583.445 402.178 581.886 402.178C580.328 402.178 579.064 403.442 579.064 405C579.064 406.558 580.328 407.822 581.886 407.822Z" stroke="#222222" stroke-width="0.946119"/>
<path d="M625.209 407.822C626.768 407.822 628.031 406.558 628.031 405C628.031 403.442 626.768 402.178 625.209 402.178C623.651 402.178 622.387 403.442 622.387 405C622.387 406.558 623.651 407.822 625.209 407.822Z" stroke="#222222" stroke-width="0.946119"/>
<path d="M668.532 407.822C670.091 407.822 671.354 406.558 671.354 405C671.354 403.442 670.091 402.178 668.532 402.178C666.974 402.178 665.71 403.442 665.71 405C665.71 406.558 666.974 407.822 668.532 407.822Z" stroke="#222222" stroke-width="0.946119"/>
<path d="M711.855 407.822C713.414 407.822 714.677 406.558 714.677 405C714.677 403.442 713.414 402.178 711.855 402.178C710.297 402.178 709.034 403.442 709.034 405C709.034 406.558 710.297 407.822 711.855 407.822Z" stroke="#222222" stroke-width="0.946119"/>
<path d="M755.178 407.822C756.737 407.822 758 406.558 758 405C758 403.442 756.737 402.178 755.178 402.178C753.62 402.178 752.357 403.442 752.357 405C752.357 406.558 753.62 407.822 755.178 407.822Z" stroke="#222222" stroke-width="0.946119"/>
</g>
<defs>
<clipPath id="clip0_13_12709">
<rect width="775" height="421" rx="20" fill="white"/>
</clipPath>
</defs>
</svg>
