<svg width="775" height="421" viewBox="0 0 775 421" fill="none" xmlns="http://www.w3.org/2000/svg">
<g clip-path="url(#clip0_28_12430)">
<g clip-path="url(#clip1_28_12430)">
<path d="M36.4998 24.5284C38.1725 24.5284 39.5284 23.1725 39.5284 21.4998C39.5284 19.8271 38.1725 18.4712 36.4998 18.4712C34.8271 18.4712 33.4712 19.8271 33.4712 21.4998C33.4712 23.1725 34.8271 24.5284 36.4998 24.5284Z" fill="black"/>
<path d="M82.9998 24.5284C84.6725 24.5284 86.0284 23.1725 86.0284 21.4998C86.0284 19.8271 84.6725 18.4712 82.9998 18.4712C81.3272 18.4712 79.9712 19.8271 79.9712 21.4998C79.9712 23.1725 81.3272 24.5284 82.9998 24.5284Z" stroke="#FF4B33" stroke-width="0.946119"/>
<path d="M129.5 24.5284C131.172 24.5284 132.528 23.1725 132.528 21.4998C132.528 19.8271 131.172 18.4712 129.5 18.4712C127.827 18.4712 126.471 19.8271 126.471 21.4998C126.471 23.1725 127.827 24.5284 129.5 24.5284Z" fill="black"/>
<path d="M176 24.5284C177.672 24.5284 179.028 23.1725 179.028 21.4998C179.028 19.8271 177.672 18.4712 176 18.4712C174.327 18.4712 172.971 19.8271 172.971 21.4998C172.971 23.1725 174.327 24.5284 176 24.5284Z" stroke="black" stroke-width="0.946119"/>
<path d="M222.5 24.5284C224.172 24.5284 225.528 23.1725 225.528 21.4998C225.528 19.8271 224.172 18.4712 222.5 18.4712C220.827 18.4712 219.471 19.8271 219.471 21.4998C219.471 23.1725 220.827 24.5284 222.5 24.5284Z" stroke="#FF4B33" stroke-width="0.946119"/>
<path d="M269 24.5284C270.672 24.5284 272.028 23.1725 272.028 21.4998C272.028 19.8271 270.672 18.4712 269 18.4712C267.327 18.4712 265.971 19.8271 265.971 21.4998C265.971 23.1725 267.327 24.5284 269 24.5284Z" fill="black"/>
<path d="M315.5 24.5284C317.172 24.5284 318.528 23.1725 318.528 21.4998C318.528 19.8271 317.172 18.4712 315.5 18.4712C313.827 18.4712 312.471 19.8271 312.471 21.4998C312.471 23.1725 313.827 24.5284 315.5 24.5284Z" fill="black"/>
<path d="M362 24.5284C363.672 24.5284 365.028 23.1725 365.028 21.4998C365.028 19.8271 363.672 18.4712 362 18.4712C360.327 18.4712 358.971 19.8271 358.971 21.4998C358.971 23.1725 360.327 24.5284 362 24.5284Z" fill="black"/>
<path d="M408.5 24.5284C410.172 24.5284 411.528 23.1725 411.528 21.4998C411.528 19.8271 410.172 18.4712 408.5 18.4712C406.827 18.4712 405.471 19.8271 405.471 21.4998C405.471 23.1725 406.827 24.5284 408.5 24.5284Z" fill="black"/>
<path d="M455 24.5284C456.672 24.5284 458.028 23.1725 458.028 21.4998C458.028 19.8271 456.672 18.4712 455 18.4712C453.327 18.4712 451.971 19.8271 451.971 21.4998C451.971 23.1725 453.327 24.5284 455 24.5284Z" stroke="#FF4B33" stroke-width="0.946119"/>
<path d="M501.5 24.5284C503.172 24.5284 504.528 23.1725 504.528 21.4998C504.528 19.8271 503.172 18.4712 501.5 18.4712C499.827 18.4712 498.471 19.8271 498.471 21.4998C498.471 23.1725 499.827 24.5284 501.5 24.5284Z" stroke="#FF4B33" stroke-width="0.946119"/>
<path d="M548 24.5284C549.672 24.5284 551.028 23.1725 551.028 21.4998C551.028 19.8271 549.672 18.4712 548 18.4712C546.327 18.4712 544.971 19.8271 544.971 21.4998C544.971 23.1725 546.327 24.5284 548 24.5284Z" fill="black"/>
<path d="M594.5 24.5284C596.172 24.5284 597.528 23.1725 597.528 21.4998C597.528 19.8271 596.172 18.4712 594.5 18.4712C592.827 18.4712 591.471 19.8271 591.471 21.4998C591.471 23.1725 592.827 24.5284 594.5 24.5284Z" fill="black"/>
<path d="M641 24.5284C642.672 24.5284 644.028 23.1725 644.028 21.4998C644.028 19.8271 642.672 18.4712 641 18.4712C639.327 18.4712 637.971 19.8271 637.971 21.4998C637.971 23.1725 639.327 24.5284 641 24.5284Z" fill="black"/>
<path d="M687.5 24.5284C689.173 24.5284 690.528 23.1725 690.528 21.4998C690.528 19.8271 689.173 18.4712 687.5 18.4712C685.827 18.4712 684.471 19.8271 684.471 21.4998C684.471 23.1725 685.827 24.5284 687.5 24.5284Z" fill="black"/>
<path d="M734 24.5284C735.672 24.5284 737.028 23.1725 737.028 21.4998C737.028 19.8271 735.672 18.4712 734 18.4712C732.327 18.4712 730.971 19.8271 730.971 21.4998C730.971 23.1725 732.327 24.5284 734 24.5284Z" fill="black"/>
<path d="M36.4998 71.0284C38.1725 71.0284 39.5284 69.6725 39.5284 67.9998C39.5284 66.3272 38.1725 64.9712 36.4998 64.9712C34.8271 64.9712 33.4712 66.3272 33.4712 67.9998C33.4712 69.6725 34.8271 71.0284 36.4998 71.0284Z" fill="black"/>
<path d="M82.9998 71.0284C84.6725 71.0284 86.0284 69.6725 86.0284 67.9998C86.0284 66.3272 84.6725 64.9712 82.9998 64.9712C81.3272 64.9712 79.9712 66.3272 79.9712 67.9998C79.9712 69.6725 81.3272 71.0284 82.9998 71.0284Z" fill="black"/>
<path d="M129.5 71.0284C131.172 71.0284 132.528 69.6725 132.528 67.9998C132.528 66.3272 131.172 64.9712 129.5 64.9712C127.827 64.9712 126.471 66.3272 126.471 67.9998C126.471 69.6725 127.827 71.0284 129.5 71.0284Z" fill="black"/>
<path d="M176 71.0284C177.672 71.0284 179.028 69.6725 179.028 67.9998C179.028 66.3272 177.672 64.9712 176 64.9712C174.327 64.9712 172.971 66.3272 172.971 67.9998C172.971 69.6725 174.327 71.0284 176 71.0284Z" fill="black"/>
<path d="M222.5 71.0284C224.172 71.0284 225.528 69.6725 225.528 67.9998C225.528 66.3272 224.172 64.9712 222.5 64.9712C220.827 64.9712 219.471 66.3272 219.471 67.9998C219.471 69.6725 220.827 71.0284 222.5 71.0284Z" fill="black"/>
<path d="M269 71.0284C270.672 71.0284 272.028 69.6725 272.028 67.9998C272.028 66.3272 270.672 64.9712 269 64.9712C267.327 64.9712 265.971 66.3272 265.971 67.9998C265.971 69.6725 267.327 71.0284 269 71.0284Z" fill="black"/>
<path d="M315.5 71.0284C317.172 71.0284 318.528 69.6725 318.528 67.9998C318.528 66.3272 317.172 64.9712 315.5 64.9712C313.827 64.9712 312.471 66.3272 312.471 67.9998C312.471 69.6725 313.827 71.0284 315.5 71.0284Z" stroke="#FF4B33" stroke-width="0.946119"/>
<path d="M362 71.0284C363.672 71.0284 365.028 69.6725 365.028 67.9998C365.028 66.3272 363.672 64.9712 362 64.9712C360.327 64.9712 358.971 66.3272 358.971 67.9998C358.971 69.6725 360.327 71.0284 362 71.0284Z" fill="black"/>
<path d="M408.5 71.0284C410.172 71.0284 411.528 69.6725 411.528 67.9998C411.528 66.3272 410.172 64.9712 408.5 64.9712C406.827 64.9712 405.471 66.3272 405.471 67.9998C405.471 69.6725 406.827 71.0284 408.5 71.0284Z" fill="black"/>
<path d="M455 71.0284C456.672 71.0284 458.028 69.6725 458.028 67.9998C458.028 66.3272 456.672 64.9712 455 64.9712C453.327 64.9712 451.971 66.3272 451.971 67.9998C451.971 69.6725 453.327 71.0284 455 71.0284Z" stroke="#FF4B33" stroke-width="0.946119"/>
<path d="M501.5 71.0284C503.172 71.0284 504.528 69.6725 504.528 67.9998C504.528 66.3272 503.172 64.9712 501.5 64.9712C499.827 64.9712 498.471 66.3272 498.471 67.9998C498.471 69.6725 499.827 71.0284 501.5 71.0284Z" stroke="#FF4B33" stroke-width="0.946119"/>
<path d="M548 71.0284C549.672 71.0284 551.028 69.6725 551.028 67.9998C551.028 66.3272 549.672 64.9712 548 64.9712C546.327 64.9712 544.971 66.3272 544.971 67.9998C544.971 69.6725 546.327 71.0284 548 71.0284Z" fill="black"/>
<path d="M594.5 71.0284C596.172 71.0284 597.528 69.6725 597.528 67.9998C597.528 66.3272 596.172 64.9712 594.5 64.9712C592.827 64.9712 591.471 66.3272 591.471 67.9998C591.471 69.6725 592.827 71.0284 594.5 71.0284Z" fill="black"/>
<path d="M641 71.0284C642.672 71.0284 644.028 69.6725 644.028 67.9998C644.028 66.3272 642.672 64.9712 641 64.9712C639.327 64.9712 637.971 66.3272 637.971 67.9998C637.971 69.6725 639.327 71.0284 641 71.0284Z" fill="black"/>
<path d="M687.5 71.0284C689.173 71.0284 690.528 69.6725 690.528 67.9998C690.528 66.3272 689.173 64.9712 687.5 64.9712C685.827 64.9712 684.471 66.3272 684.471 67.9998C684.471 69.6725 685.827 71.0284 687.5 71.0284Z" fill="black"/>
<path d="M734 71.0284C735.672 71.0284 737.028 69.6725 737.028 67.9998C737.028 66.3272 735.672 64.9712 734 64.9712C732.327 64.9712 730.971 66.3272 730.971 67.9998C730.971 69.6725 732.327 71.0284 734 71.0284Z" fill="black"/>
<path d="M36.4998 117.528C38.1725 117.528 39.5284 116.172 39.5284 114.5C39.5284 112.827 38.1725 111.471 36.4998 111.471C34.8271 111.471 33.4712 112.827 33.4712 114.5C33.4712 116.172 34.8271 117.528 36.4998 117.528Z" fill="black"/>
<path d="M82.9998 117.528C84.6725 117.528 86.0284 116.172 86.0284 114.5C86.0284 112.827 84.6725 111.471 82.9998 111.471C81.3272 111.471 79.9712 112.827 79.9712 114.5C79.9712 116.172 81.3272 117.528 82.9998 117.528Z" stroke="#FF4B33" stroke-width="0.946119"/>
<path d="M129.5 117.528C131.172 117.528 132.528 116.172 132.528 114.5C132.528 112.827 131.172 111.471 129.5 111.471C127.827 111.471 126.471 112.827 126.471 114.5C126.471 116.172 127.827 117.528 129.5 117.528Z" fill="black"/>
<path d="M176 117.528C177.672 117.528 179.028 116.172 179.028 114.5C179.028 112.827 177.672 111.471 176 111.471C174.327 111.471 172.971 112.827 172.971 114.5C172.971 116.172 174.327 117.528 176 117.528Z" fill="black"/>
<path d="M222.5 117.528C224.172 117.528 225.528 116.172 225.528 114.5C225.528 112.827 224.172 111.471 222.5 111.471C220.827 111.471 219.471 112.827 219.471 114.5C219.471 116.172 220.827 117.528 222.5 117.528Z" fill="black"/>
<path d="M269 117.528C270.672 117.528 272.028 116.172 272.028 114.5C272.028 112.827 270.672 111.471 269 111.471C267.327 111.471 265.971 112.827 265.971 114.5C265.971 116.172 267.327 117.528 269 117.528Z" fill="black"/>
<path d="M315.5 117.528C317.172 117.528 318.528 116.172 318.528 114.5C318.528 112.827 317.172 111.471 315.5 111.471C313.827 111.471 312.471 112.827 312.471 114.5C312.471 116.172 313.827 117.528 315.5 117.528Z" fill="black"/>
<path d="M362 117.528C363.672 117.528 365.028 116.172 365.028 114.5C365.028 112.827 363.672 111.471 362 111.471C360.327 111.471 358.971 112.827 358.971 114.5C358.971 116.172 360.327 117.528 362 117.528Z" fill="black"/>
<path d="M408.5 117.528C410.172 117.528 411.528 116.172 411.528 114.5C411.528 112.827 410.172 111.471 408.5 111.471C406.827 111.471 405.471 112.827 405.471 114.5C405.471 116.172 406.827 117.528 408.5 117.528Z" stroke="#FF4B33" stroke-width="0.946119"/>
<path d="M455 117.528C456.672 117.528 458.028 116.172 458.028 114.5C458.028 112.827 456.672 111.471 455 111.471C453.327 111.471 451.971 112.827 451.971 114.5C451.971 116.172 453.327 117.528 455 117.528Z" stroke="#FF4B33" stroke-width="0.946119"/>
<path d="M501.5 117.528C503.172 117.528 504.528 116.172 504.528 114.5C504.528 112.827 503.172 111.471 501.5 111.471C499.827 111.471 498.471 112.827 498.471 114.5C498.471 116.172 499.827 117.528 501.5 117.528Z" fill="black"/>
<path d="M548 117.528C549.672 117.528 551.028 116.172 551.028 114.5C551.028 112.827 549.672 111.471 548 111.471C546.327 111.471 544.971 112.827 544.971 114.5C544.971 116.172 546.327 117.528 548 117.528Z" stroke="#FF4B33" stroke-width="0.946119"/>
<path d="M594.5 117.528C596.172 117.528 597.528 116.172 597.528 114.5C597.528 112.827 596.172 111.471 594.5 111.471C592.827 111.471 591.471 112.827 591.471 114.5C591.471 116.172 592.827 117.528 594.5 117.528Z" fill="black"/>
<path d="M641 117.528C642.672 117.528 644.028 116.172 644.028 114.5C644.028 112.827 642.672 111.471 641 111.471C639.327 111.471 637.971 112.827 637.971 114.5C637.971 116.172 639.327 117.528 641 117.528Z" fill="black"/>
<path d="M687.5 117.528C689.173 117.528 690.528 116.172 690.528 114.5C690.528 112.827 689.173 111.471 687.5 111.471C685.827 111.471 684.471 112.827 684.471 114.5C684.471 116.172 685.827 117.528 687.5 117.528Z" stroke="#FF4B33" stroke-width="0.946119"/>
<path d="M734 117.528C735.672 117.528 737.028 116.172 737.028 114.5C737.028 112.827 735.672 111.471 734 111.471C732.327 111.471 730.971 112.827 730.971 114.5C730.971 116.172 732.327 117.528 734 117.528Z" stroke="#FF4B33" stroke-width="0.946119"/>
<path d="M36.4998 164.028C38.1725 164.028 39.5284 162.672 39.5284 161C39.5284 159.327 38.1725 157.971 36.4998 157.971C34.8271 157.971 33.4712 159.327 33.4712 161C33.4712 162.672 34.8271 164.028 36.4998 164.028Z" fill="black"/>
<path d="M82.9998 164.028C84.6725 164.028 86.0284 162.672 86.0284 161C86.0284 159.327 84.6725 157.971 82.9998 157.971C81.3272 157.971 79.9712 159.327 79.9712 161C79.9712 162.672 81.3272 164.028 82.9998 164.028Z" fill="black"/>
<path d="M129.5 164.028C131.172 164.028 132.528 162.672 132.528 161C132.528 159.327 131.172 157.971 129.5 157.971C127.827 157.971 126.471 159.327 126.471 161C126.471 162.672 127.827 164.028 129.5 164.028Z" fill="black"/>
<path d="M176 164.028C177.672 164.028 179.028 162.672 179.028 161C179.028 159.327 177.672 157.971 176 157.971C174.327 157.971 172.971 159.327 172.971 161C172.971 162.672 174.327 164.028 176 164.028Z" fill="black"/>
<path d="M222.5 164.028C224.172 164.028 225.528 162.672 225.528 161C225.528 159.327 224.172 157.971 222.5 157.971C220.827 157.971 219.471 159.327 219.471 161C219.471 162.672 220.827 164.028 222.5 164.028Z" fill="black"/>
<path d="M269 164.028C270.672 164.028 272.028 162.672 272.028 161C272.028 159.327 270.672 157.971 269 157.971C267.327 157.971 265.971 159.327 265.971 161C265.971 162.672 267.327 164.028 269 164.028Z" fill="black"/>
<path d="M315.5 164.028C317.172 164.028 318.528 162.672 318.528 161C318.528 159.327 317.172 157.971 315.5 157.971C313.827 157.971 312.471 159.327 312.471 161C312.471 162.672 313.827 164.028 315.5 164.028Z" fill="black"/>
<path d="M362 164.028C363.672 164.028 365.028 162.672 365.028 161C365.028 159.327 363.672 157.971 362 157.971C360.327 157.971 358.971 159.327 358.971 161C358.971 162.672 360.327 164.028 362 164.028Z" fill="black"/>
<path d="M408.5 164.028C410.172 164.028 411.528 162.672 411.528 161C411.528 159.327 410.172 157.971 408.5 157.971C406.827 157.971 405.471 159.327 405.471 161C405.471 162.672 406.827 164.028 408.5 164.028Z" fill="black"/>
<path d="M455 164.028C456.672 164.028 458.028 162.672 458.028 161C458.028 159.327 456.672 157.971 455 157.971C453.327 157.971 451.971 159.327 451.971 161C451.971 162.672 453.327 164.028 455 164.028Z" fill="black"/>
<path d="M501.5 164.028C503.172 164.028 504.528 162.672 504.528 161C504.528 159.327 503.172 157.971 501.5 157.971C499.827 157.971 498.471 159.327 498.471 161C498.471 162.672 499.827 164.028 501.5 164.028Z" fill="black"/>
<path d="M548 164.028C549.672 164.028 551.028 162.672 551.028 161C551.028 159.327 549.672 157.971 548 157.971C546.327 157.971 544.971 159.327 544.971 161C544.971 162.672 546.327 164.028 548 164.028Z" fill="black"/>
<path d="M594.5 164.028C596.172 164.028 597.528 162.672 597.528 161C597.528 159.327 596.172 157.971 594.5 157.971C592.827 157.971 591.471 159.327 591.471 161C591.471 162.672 592.827 164.028 594.5 164.028Z" fill="black"/>
<path d="M641 164.028C642.672 164.028 644.028 162.672 644.028 161C644.028 159.327 642.672 157.971 641 157.971C639.327 157.971 637.971 159.327 637.971 161C637.971 162.672 639.327 164.028 641 164.028Z" fill="black"/>
<path d="M687.5 164.028C689.173 164.028 690.528 162.672 690.528 161C690.528 159.327 689.173 157.971 687.5 157.971C685.827 157.971 684.471 159.327 684.471 161C684.471 162.672 685.827 164.028 687.5 164.028Z" fill="black"/>
<path d="M734 164.028C735.672 164.028 737.028 162.672 737.028 161C737.028 159.327 735.672 157.971 734 157.971C732.327 157.971 730.971 159.327 730.971 161C730.971 162.672 732.327 164.028 734 164.028Z" fill="black"/>
<path d="M36.4998 210.528C38.1725 210.528 39.5284 209.172 39.5284 207.5C39.5284 205.827 38.1725 204.471 36.4998 204.471C34.8271 204.471 33.4712 205.827 33.4712 207.5C33.4712 209.172 34.8271 210.528 36.4998 210.528Z" fill="black"/>
<path d="M82.9998 210.528C84.6725 210.528 86.0284 209.172 86.0284 207.5C86.0284 205.827 84.6725 204.471 82.9998 204.471C81.3272 204.471 79.9712 205.827 79.9712 207.5C79.9712 209.172 81.3272 210.528 82.9998 210.528Z" fill="black"/>
<path d="M129.5 210.528C131.172 210.528 132.528 209.172 132.528 207.5C132.528 205.827 131.172 204.471 129.5 204.471C127.827 204.471 126.471 205.827 126.471 207.5C126.471 209.172 127.827 210.528 129.5 210.528Z" fill="black"/>
<path d="M176 210.528C177.672 210.528 179.028 209.172 179.028 207.5C179.028 205.827 177.672 204.471 176 204.471C174.327 204.471 172.971 205.827 172.971 207.5C172.971 209.172 174.327 210.528 176 210.528Z" fill="black"/>
<path d="M222.5 210.528C224.172 210.528 225.528 209.172 225.528 207.5C225.528 205.827 224.172 204.471 222.5 204.471C220.827 204.471 219.471 205.827 219.471 207.5C219.471 209.172 220.827 210.528 222.5 210.528Z" stroke="#FF4B33" stroke-width="0.946119"/>
<path d="M269 210.528C270.672 210.528 272.028 209.172 272.028 207.5C272.028 205.827 270.672 204.471 269 204.471C267.327 204.471 265.971 205.827 265.971 207.5C265.971 209.172 267.327 210.528 269 210.528Z" fill="black"/>
<path d="M315.5 210.528C317.172 210.528 318.528 209.172 318.528 207.5C318.528 205.827 317.172 204.471 315.5 204.471C313.827 204.471 312.471 205.827 312.471 207.5C312.471 209.172 313.827 210.528 315.5 210.528Z" fill="black"/>
<path d="M362 210.528C363.672 210.528 365.028 209.172 365.028 207.5C365.028 205.827 363.672 204.471 362 204.471C360.327 204.471 358.971 205.827 358.971 207.5C358.971 209.172 360.327 210.528 362 210.528Z" fill="black"/>
<path d="M408.5 210.528C410.172 210.528 411.528 209.172 411.528 207.5C411.528 205.827 410.172 204.471 408.5 204.471C406.827 204.471 405.471 205.827 405.471 207.5C405.471 209.172 406.827 210.528 408.5 210.528Z" fill="black"/>
<path d="M455 210.528C456.672 210.528 458.028 209.172 458.028 207.5C458.028 205.827 456.672 204.471 455 204.471C453.327 204.471 451.971 205.827 451.971 207.5C451.971 209.172 453.327 210.528 455 210.528Z" fill="black"/>
<path d="M501.5 210.528C503.172 210.528 504.528 209.172 504.528 207.5C504.528 205.827 503.172 204.471 501.5 204.471C499.827 204.471 498.471 205.827 498.471 207.5C498.471 209.172 499.827 210.528 501.5 210.528Z" fill="black"/>
<path d="M548 210.528C549.672 210.528 551.028 209.172 551.028 207.5C551.028 205.827 549.672 204.471 548 204.471C546.327 204.471 544.971 205.827 544.971 207.5C544.971 209.172 546.327 210.528 548 210.528Z" fill="black"/>
<path d="M594.5 210.528C596.172 210.528 597.528 209.172 597.528 207.5C597.528 205.827 596.172 204.471 594.5 204.471C592.827 204.471 591.471 205.827 591.471 207.5C591.471 209.172 592.827 210.528 594.5 210.528Z" fill="black"/>
<path d="M641 210.528C642.672 210.528 644.028 209.172 644.028 207.5C644.028 205.827 642.672 204.471 641 204.471C639.327 204.471 637.971 205.827 637.971 207.5C637.971 209.172 639.327 210.528 641 210.528Z" fill="black"/>
<path d="M687.5 210.528C689.173 210.528 690.528 209.172 690.528 207.5C690.528 205.827 689.173 204.471 687.5 204.471C685.827 204.471 684.471 205.827 684.471 207.5C684.471 209.172 685.827 210.528 687.5 210.528Z" fill="black"/>
<path d="M734 210.528C735.672 210.528 737.028 209.172 737.028 207.5C737.028 205.827 735.672 204.471 734 204.471C732.327 204.471 730.971 205.827 730.971 207.5C730.971 209.172 732.327 210.528 734 210.528Z" fill="black"/>
<path d="M36.4998 257.028C38.1725 257.028 39.5284 255.672 39.5284 254C39.5284 252.327 38.1725 250.971 36.4998 250.971C34.8271 250.971 33.4712 252.327 33.4712 254C33.4712 255.672 34.8271 257.028 36.4998 257.028Z" fill="black"/>
<path d="M82.9998 257.028C84.6725 257.028 86.0284 255.672 86.0284 254C86.0284 252.327 84.6725 250.971 82.9998 250.971C81.3272 250.971 79.9712 252.327 79.9712 254C79.9712 255.672 81.3272 257.028 82.9998 257.028Z" fill="black"/>
<path d="M129.5 257.028C131.172 257.028 132.528 255.672 132.528 254C132.528 252.327 131.172 250.971 129.5 250.971C127.827 250.971 126.471 252.327 126.471 254C126.471 255.672 127.827 257.028 129.5 257.028Z" fill="black"/>
<path d="M176 257.028C177.672 257.028 179.028 255.672 179.028 254C179.028 252.327 177.672 250.971 176 250.971C174.327 250.971 172.971 252.327 172.971 254C172.971 255.672 174.327 257.028 176 257.028Z" fill="black"/>
<path d="M222.5 257.028C224.172 257.028 225.528 255.672 225.528 254C225.528 252.327 224.172 250.971 222.5 250.971C220.827 250.971 219.471 252.327 219.471 254C219.471 255.672 220.827 257.028 222.5 257.028Z" fill="black"/>
<path d="M269 257.028C270.672 257.028 272.028 255.672 272.028 254C272.028 252.327 270.672 250.971 269 250.971C267.327 250.971 265.971 252.327 265.971 254C265.971 255.672 267.327 257.028 269 257.028Z" fill="black"/>
<path d="M315.5 257.028C317.172 257.028 318.528 255.672 318.528 254C318.528 252.327 317.172 250.971 315.5 250.971C313.827 250.971 312.471 252.327 312.471 254C312.471 255.672 313.827 257.028 315.5 257.028Z" fill="black"/>
<path d="M362 257.028C363.672 257.028 365.028 255.672 365.028 254C365.028 252.327 363.672 250.971 362 250.971C360.327 250.971 358.971 252.327 358.971 254C358.971 255.672 360.327 257.028 362 257.028Z" fill="black"/>
<path d="M408.5 257.028C410.172 257.028 411.528 255.672 411.528 254C411.528 252.327 410.172 250.971 408.5 250.971C406.827 250.971 405.471 252.327 405.471 254C405.471 255.672 406.827 257.028 408.5 257.028Z" fill="black"/>
<path d="M455 257.028C456.672 257.028 458.028 255.672 458.028 254C458.028 252.327 456.672 250.971 455 250.971C453.327 250.971 451.971 252.327 451.971 254C451.971 255.672 453.327 257.028 455 257.028Z" stroke="#FF4B33" stroke-width="0.946119"/>
<path d="M501.5 257.028C503.172 257.028 504.528 255.672 504.528 254C504.528 252.327 503.172 250.971 501.5 250.971C499.827 250.971 498.471 252.327 498.471 254C498.471 255.672 499.827 257.028 501.5 257.028Z" fill="black"/>
<path d="M548 257.028C549.672 257.028 551.028 255.672 551.028 254C551.028 252.327 549.672 250.971 548 250.971C546.327 250.971 544.971 252.327 544.971 254C544.971 255.672 546.327 257.028 548 257.028Z" fill="black"/>
<path d="M594.5 257.028C596.172 257.028 597.528 255.672 597.528 254C597.528 252.327 596.172 250.971 594.5 250.971C592.827 250.971 591.471 252.327 591.471 254C591.471 255.672 592.827 257.028 594.5 257.028Z" fill="black"/>
<path d="M641 257.028C642.672 257.028 644.028 255.672 644.028 254C644.028 252.327 642.672 250.971 641 250.971C639.327 250.971 637.971 252.327 637.971 254C637.971 255.672 639.327 257.028 641 257.028Z" stroke="#FF4B33" stroke-width="0.946119"/>
<path d="M687.5 257.028C689.173 257.028 690.528 255.672 690.528 254C690.528 252.327 689.173 250.971 687.5 250.971C685.827 250.971 684.471 252.327 684.471 254C684.471 255.672 685.827 257.028 687.5 257.028Z" fill="black"/>
<path d="M734 257.028C735.672 257.028 737.028 255.672 737.028 254C737.028 252.327 735.672 250.971 734 250.971C732.327 250.971 730.971 252.327 730.971 254C730.971 255.672 732.327 257.028 734 257.028Z" fill="black"/>
<path d="M36.4998 303.528C38.1725 303.528 39.5284 302.172 39.5284 300.5C39.5284 298.827 38.1725 297.471 36.4998 297.471C34.8271 297.471 33.4712 298.827 33.4712 300.5C33.4712 302.172 34.8271 303.528 36.4998 303.528Z" stroke="#FF4B33" stroke-width="0.946119"/>
<path d="M82.9998 303.528C84.6725 303.528 86.0284 302.172 86.0284 300.5C86.0284 298.827 84.6725 297.471 82.9998 297.471C81.3272 297.471 79.9712 298.827 79.9712 300.5C79.9712 302.172 81.3272 303.528 82.9998 303.528Z" fill="black"/>
<path d="M129.5 303.528C131.172 303.528 132.528 302.172 132.528 300.5C132.528 298.827 131.172 297.471 129.5 297.471C127.827 297.471 126.471 298.827 126.471 300.5C126.471 302.172 127.827 303.528 129.5 303.528Z" fill="black"/>
<path d="M176 303.528C177.672 303.528 179.028 302.172 179.028 300.5C179.028 298.827 177.672 297.471 176 297.471C174.327 297.471 172.971 298.827 172.971 300.5C172.971 302.172 174.327 303.528 176 303.528Z" fill="black"/>
<path d="M222.5 303.528C224.172 303.528 225.528 302.172 225.528 300.5C225.528 298.827 224.172 297.471 222.5 297.471C220.827 297.471 219.471 298.827 219.471 300.5C219.471 302.172 220.827 303.528 222.5 303.528Z" fill="black"/>
<path d="M269 303.528C270.672 303.528 272.028 302.172 272.028 300.5C272.028 298.827 270.672 297.471 269 297.471C267.327 297.471 265.971 298.827 265.971 300.5C265.971 302.172 267.327 303.528 269 303.528Z" stroke="#FF4B33" stroke-width="0.946119"/>
<path d="M315.5 303.528C317.172 303.528 318.528 302.172 318.528 300.5C318.528 298.827 317.172 297.471 315.5 297.471C313.827 297.471 312.471 298.827 312.471 300.5C312.471 302.172 313.827 303.528 315.5 303.528Z" fill="black"/>
<path d="M362 303.528C363.672 303.528 365.028 302.172 365.028 300.5C365.028 298.827 363.672 297.471 362 297.471C360.327 297.471 358.971 298.827 358.971 300.5C358.971 302.172 360.327 303.528 362 303.528Z" fill="black"/>
<path d="M408.5 303.528C410.172 303.528 411.528 302.172 411.528 300.5C411.528 298.827 410.172 297.471 408.5 297.471C406.827 297.471 405.471 298.827 405.471 300.5C405.471 302.172 406.827 303.528 408.5 303.528Z" fill="black"/>
<path d="M455 303.528C456.672 303.528 458.028 302.172 458.028 300.5C458.028 298.827 456.672 297.471 455 297.471C453.327 297.471 451.971 298.827 451.971 300.5C451.971 302.172 453.327 303.528 455 303.528Z" fill="black"/>
<path d="M501.5 303.528C503.172 303.528 504.528 302.172 504.528 300.5C504.528 298.827 503.172 297.471 501.5 297.471C499.827 297.471 498.471 298.827 498.471 300.5C498.471 302.172 499.827 303.528 501.5 303.528Z" fill="black"/>
<path d="M548 303.528C549.672 303.528 551.028 302.172 551.028 300.5C551.028 298.827 549.672 297.471 548 297.471C546.327 297.471 544.971 298.827 544.971 300.5C544.971 302.172 546.327 303.528 548 303.528Z" stroke="#FF4B33" stroke-width="0.946119"/>
<path d="M594.5 303.528C596.172 303.528 597.528 302.172 597.528 300.5C597.528 298.827 596.172 297.471 594.5 297.471C592.827 297.471 591.471 298.827 591.471 300.5C591.471 302.172 592.827 303.528 594.5 303.528Z" fill="black"/>
<path d="M641 303.528C642.672 303.528 644.028 302.172 644.028 300.5C644.028 298.827 642.672 297.471 641 297.471C639.327 297.471 637.971 298.827 637.971 300.5C637.971 302.172 639.327 303.528 641 303.528Z" fill="black"/>
<path d="M687.5 303.528C689.173 303.528 690.528 302.172 690.528 300.5C690.528 298.827 689.173 297.471 687.5 297.471C685.827 297.471 684.471 298.827 684.471 300.5C684.471 302.172 685.827 303.528 687.5 303.528Z" fill="black"/>
<path d="M734 303.528C735.672 303.528 737.028 302.172 737.028 300.5C737.028 298.827 735.672 297.471 734 297.471C732.327 297.471 730.971 298.827 730.971 300.5C730.971 302.172 732.327 303.528 734 303.528Z" fill="black"/>
<path d="M36.4998 350.028C38.1725 350.028 39.5284 348.672 39.5284 347C39.5284 345.327 38.1725 343.971 36.4998 343.971C34.8271 343.971 33.4712 345.327 33.4712 347C33.4712 348.672 34.8271 350.028 36.4998 350.028Z" stroke="#FF4B33" stroke-width="0.946119"/>
<path d="M82.9998 350.028C84.6725 350.028 86.0284 348.672 86.0284 347C86.0284 345.327 84.6725 343.971 82.9998 343.971C81.3272 343.971 79.9712 345.327 79.9712 347C79.9712 348.672 81.3272 350.028 82.9998 350.028Z" fill="black"/>
<path d="M129.5 350.028C131.172 350.028 132.528 348.672 132.528 347C132.528 345.327 131.172 343.971 129.5 343.971C127.827 343.971 126.471 345.327 126.471 347C126.471 348.672 127.827 350.028 129.5 350.028Z" fill="black"/>
<path d="M176 350.028C177.672 350.028 179.028 348.672 179.028 347C179.028 345.327 177.672 343.971 176 343.971C174.327 343.971 172.971 345.327 172.971 347C172.971 348.672 174.327 350.028 176 350.028Z" fill="black"/>
<path d="M222.5 350.028C224.172 350.028 225.528 348.672 225.528 347C225.528 345.327 224.172 343.971 222.5 343.971C220.827 343.971 219.471 345.327 219.471 347C219.471 348.672 220.827 350.028 222.5 350.028Z" stroke="#FF4B33" stroke-width="0.946119"/>
<path d="M269 350.028C270.672 350.028 272.028 348.672 272.028 347C272.028 345.327 270.672 343.971 269 343.971C267.327 343.971 265.971 345.327 265.971 347C265.971 348.672 267.327 350.028 269 350.028Z" fill="black"/>
<path d="M315.5 350.028C317.172 350.028 318.528 348.672 318.528 347C318.528 345.327 317.172 343.971 315.5 343.971C313.827 343.971 312.471 345.327 312.471 347C312.471 348.672 313.827 350.028 315.5 350.028Z" fill="black"/>
<path d="M362 350.028C363.672 350.028 365.028 348.672 365.028 347C365.028 345.327 363.672 343.971 362 343.971C360.327 343.971 358.971 345.327 358.971 347C358.971 348.672 360.327 350.028 362 350.028Z" fill="black"/>
<path d="M408.5 350.028C410.172 350.028 411.528 348.672 411.528 347C411.528 345.327 410.172 343.971 408.5 343.971C406.827 343.971 405.471 345.327 405.471 347C405.471 348.672 406.827 350.028 408.5 350.028Z" stroke="#FF4B33" stroke-width="0.946119"/>
<path d="M455 350.028C456.672 350.028 458.028 348.672 458.028 347C458.028 345.327 456.672 343.971 455 343.971C453.327 343.971 451.971 345.327 451.971 347C451.971 348.672 453.327 350.028 455 350.028Z" fill="black"/>
<path d="M501.5 350.028C503.172 350.028 504.528 348.672 504.528 347C504.528 345.327 503.172 343.971 501.5 343.971C499.827 343.971 498.471 345.327 498.471 347C498.471 348.672 499.827 350.028 501.5 350.028Z" fill="black"/>
<path d="M548 350.028C549.672 350.028 551.028 348.672 551.028 347C551.028 345.327 549.672 343.971 548 343.971C546.327 343.971 544.971 345.327 544.971 347C544.971 348.672 546.327 350.028 548 350.028Z" stroke="#FF4B33" stroke-width="0.946119"/>
<path d="M594.5 350.028C596.172 350.028 597.528 348.672 597.528 347C597.528 345.327 596.172 343.971 594.5 343.971C592.827 343.971 591.471 345.327 591.471 347C591.471 348.672 592.827 350.028 594.5 350.028Z" fill="black"/>
<path d="M641 350.028C642.672 350.028 644.028 348.672 644.028 347C644.028 345.327 642.672 343.971 641 343.971C639.327 343.971 637.971 345.327 637.971 347C637.971 348.672 639.327 350.028 641 350.028Z" fill="black"/>
<path d="M687.5 350.028C689.173 350.028 690.528 348.672 690.528 347C690.528 345.327 689.173 343.971 687.5 343.971C685.827 343.971 684.471 345.327 684.471 347C684.471 348.672 685.827 350.028 687.5 350.028Z" stroke="#FF4B33" stroke-width="0.946119"/>
<path d="M734 350.028C735.672 350.028 737.028 348.672 737.028 347C737.028 345.327 735.672 343.971 734 343.971C732.327 343.971 730.971 345.327 730.971 347C730.971 348.672 732.327 350.028 734 350.028Z" fill="black"/>
<path d="M36.4998 396.528C38.1725 396.528 39.5284 395.172 39.5284 393.5C39.5284 391.827 38.1725 390.471 36.4998 390.471C34.8271 390.471 33.4712 391.827 33.4712 393.5C33.4712 395.172 34.8271 396.528 36.4998 396.528Z" fill="black"/>
<path d="M82.9998 396.528C84.6725 396.528 86.0284 395.172 86.0284 393.5C86.0284 391.827 84.6725 390.471 82.9998 390.471C81.3272 390.471 79.9712 391.827 79.9712 393.5C79.9712 395.172 81.3272 396.528 82.9998 396.528Z" fill="black"/>
<path d="M129.5 396.528C131.172 396.528 132.528 395.172 132.528 393.5C132.528 391.827 131.172 390.471 129.5 390.471C127.827 390.471 126.471 391.827 126.471 393.5C126.471 395.172 127.827 396.528 129.5 396.528Z" fill="black"/>
<path d="M176 396.528C177.672 396.528 179.028 395.172 179.028 393.5C179.028 391.827 177.672 390.471 176 390.471C174.327 390.471 172.971 391.827 172.971 393.5C172.971 395.172 174.327 396.528 176 396.528Z" fill="black"/>
<path d="M222.5 396.528C224.172 396.528 225.528 395.172 225.528 393.5C225.528 391.827 224.172 390.471 222.5 390.471C220.827 390.471 219.471 391.827 219.471 393.5C219.471 395.172 220.827 396.528 222.5 396.528Z" fill="black"/>
<path d="M269 396.528C270.672 396.528 272.028 395.172 272.028 393.5C272.028 391.827 270.672 390.471 269 390.471C267.327 390.471 265.971 391.827 265.971 393.5C265.971 395.172 267.327 396.528 269 396.528Z" stroke="#FF4B33" stroke-width="0.946119"/>
<path d="M315.5 396.528C317.172 396.528 318.528 395.172 318.528 393.5C318.528 391.827 317.172 390.471 315.5 390.471C313.827 390.471 312.471 391.827 312.471 393.5C312.471 395.172 313.827 396.528 315.5 396.528Z" fill="black"/>
<path d="M362 396.528C363.672 396.528 365.028 395.172 365.028 393.5C365.028 391.827 363.672 390.471 362 390.471C360.327 390.471 358.971 391.827 358.971 393.5C358.971 395.172 360.327 396.528 362 396.528Z" fill="black"/>
<path d="M408.5 396.528C410.172 396.528 411.528 395.172 411.528 393.5C411.528 391.827 410.172 390.471 408.5 390.471C406.827 390.471 405.471 391.827 405.471 393.5C405.471 395.172 406.827 396.528 408.5 396.528Z" fill="black"/>
<path d="M455 396.528C456.672 396.528 458.028 395.172 458.028 393.5C458.028 391.827 456.672 390.471 455 390.471C453.327 390.471 451.971 391.827 451.971 393.5C451.971 395.172 453.327 396.528 455 396.528Z" fill="black"/>
<path d="M501.5 396.528C503.172 396.528 504.528 395.172 504.528 393.5C504.528 391.827 503.172 390.471 501.5 390.471C499.827 390.471 498.471 391.827 498.471 393.5C498.471 395.172 499.827 396.528 501.5 396.528Z" fill="black"/>
<path d="M548 396.528C549.672 396.528 551.028 395.172 551.028 393.5C551.028 391.827 549.672 390.471 548 390.471C546.327 390.471 544.971 391.827 544.971 393.5C544.971 395.172 546.327 396.528 548 396.528Z" fill="black"/>
<path d="M594.5 396.528C596.172 396.528 597.528 395.172 597.528 393.5C597.528 391.827 596.172 390.471 594.5 390.471C592.827 390.471 591.471 391.827 591.471 393.5C591.471 395.172 592.827 396.528 594.5 396.528Z" fill="black"/>
<path d="M641 396.528C642.672 396.528 644.028 395.172 644.028 393.5C644.028 391.827 642.672 390.471 641 390.471C639.327 390.471 637.971 391.827 637.971 393.5C637.971 395.172 639.327 396.528 641 396.528Z" stroke="#FF4B33" stroke-width="0.946119"/>
<path d="M687.5 396.528C689.173 396.528 690.528 395.172 690.528 393.5C690.528 391.827 689.173 390.471 687.5 390.471C685.827 390.471 684.471 391.827 684.471 393.5C684.471 395.172 685.827 396.528 687.5 396.528Z" fill="black"/>
<path d="M734 396.528C735.672 396.528 737.028 395.172 737.028 393.5C737.028 391.827 735.672 390.471 734 390.471C732.327 390.471 730.971 391.827 730.971 393.5C730.971 395.172 732.327 396.528 734 396.528Z" stroke="#FF4B33" stroke-width="0.946119"/>
</g>
</g>
<defs>
<clipPath id="clip0_28_12430">
<rect width="775" height="421" rx="20" fill="white"/>
</clipPath>
<clipPath id="clip1_28_12430">
<rect width="837" height="837" fill="white" transform="translate(-10 -25)"/>
</clipPath>
</defs>
</svg>
