<svg width="775" height="421" viewBox="0 0 775 421" fill="none" xmlns="http://www.w3.org/2000/svg">
<g clip-path="url(#clip0_17_12057)">
<g clip-path="url(#clip1_17_12057)">
<path d="M284.889 116.423L284.623 114.417C286.132 114.224 287.479 113.436 288.411 112.217C289.343 110.999 289.743 109.498 289.55 107.967C289.358 106.451 288.574 105.099 287.36 104.163C286.147 103.226 284.653 102.825 283.143 103.018L282.877 101.012C284.919 100.744 286.961 101.294 288.589 102.558C290.231 103.821 291.282 105.649 291.548 107.714C291.814 109.765 291.267 111.816 290.009 113.451C288.751 115.101 286.931 116.156 284.875 116.423H284.889Z" fill="#222222"/>
<path d="M93.9324 330.116C92.9262 330.116 91.9052 329.982 90.899 329.685C88.0727 328.883 85.72 327.01 84.2847 324.424L86.8002 323.012C87.8656 324.929 89.5968 326.297 91.698 326.906C93.7844 327.501 95.9892 327.248 97.898 326.178C101.819 323.978 103.24 318.985 101.05 315.047L103.565 313.635C106.525 318.97 104.616 325.732 99.3038 328.704C97.6465 329.641 95.8116 330.116 93.9472 330.116H93.9324Z" fill="#222222"/>
<path d="M349.627 262.69C345.039 258.514 344.699 251.365 348.857 246.758C353.015 242.151 360.133 241.809 364.72 245.985L362.752 248.17C359.363 245.079 354.11 245.332 351.017 248.735C347.94 252.138 348.191 257.429 351.58 260.52L349.612 262.69H349.627Z" fill="#222222"/>
<path d="M108.981 23.673C107.531 23.673 106.14 23.1529 105.045 22.172C103.861 21.1168 103.151 19.6456 103.062 18.0554C102.973 16.4652 103.491 14.9345 104.557 13.7307C105.607 12.5418 107.072 11.8284 108.655 11.7393L108.744 13.2997C107.575 13.374 106.495 13.8942 105.711 14.771C104.926 15.6478 104.542 16.7922 104.616 17.9662C104.69 19.1403 105.208 20.2251 106.081 21.0128C106.954 21.8005 108.093 22.1869 109.262 22.1126L109.351 23.673C109.232 23.673 109.114 23.673 108.981 23.673Z" fill="#222222"/>
<path d="M399.73 224.793L398.502 223.099C399.774 222.163 400.603 220.795 400.854 219.235C401.091 217.674 400.721 216.114 399.789 214.836C397.865 212.205 394.181 211.626 391.547 213.543L390.319 211.849C393.87 209.248 398.872 210.036 401.461 213.602C402.719 215.326 403.222 217.451 402.896 219.562C402.571 221.672 401.446 223.53 399.715 224.793H399.73Z" fill="#222222"/>
<path d="M228.853 266.286L227.151 263.641C231.264 260.981 232.463 255.452 229.814 251.306C227.166 247.159 221.661 245.971 217.533 248.631L215.831 245.985C221.41 242.389 228.853 244.009 232.448 249.612C236.029 255.214 234.416 262.69 228.838 266.301L228.853 266.286Z" fill="#222222"/>
<path d="M5.19379 46.5893C3.15179 46.5893 1.15418 45.5787 0 43.721L1.34654 42.8739C1.99761 43.8994 2.98902 44.6127 4.17279 44.8802C5.35656 45.1477 6.56993 44.9397 7.59093 44.3006C9.70692 42.9631 10.3432 40.1543 9.01146 38.0291L10.358 37.182C12.1632 40.0503 11.2902 43.8548 8.43437 45.6679C7.42816 46.3069 6.28878 46.6042 5.179 46.6042L5.19379 46.5893Z" fill="#222222"/>
<path d="M384.356 81.1868C383.024 79.5223 382.432 77.4269 382.669 75.3165C382.905 73.1913 383.941 71.2891 385.613 69.9664C389.046 67.217 394.062 67.7818 396.8 71.2148L395.172 72.5226C393.145 69.9813 389.446 69.5652 386.901 71.6012C385.673 72.582 384.903 73.9939 384.725 75.5543C384.548 77.1148 384.992 78.6604 385.983 79.8939L384.356 81.2017V81.1868Z" fill="#222222"/>
<path d="M167.222 261.694C161.881 257.265 161.126 249.299 165.536 243.949C167.666 241.349 170.685 239.744 174.014 239.417C177.358 239.105 180.614 240.1 183.203 242.24L181.117 244.782C179.208 243.191 176.796 242.448 174.325 242.686C171.854 242.924 169.634 244.113 168.051 246.03C164.796 249.998 165.358 255.883 169.309 259.153L167.222 261.694Z" fill="#222222"/>
<path d="M340.63 20.8493C342.42 20.8493 344.048 21.845 344.862 23.4501C345.439 24.5795 345.528 25.8725 345.143 27.0763C344.744 28.28 343.915 29.2609 342.79 29.8405C342.125 30.1823 341.399 30.3606 340.66 30.3606C338.869 30.3606 337.241 29.3649 336.428 27.7599C335.244 25.4266 336.191 22.5584 338.514 21.3695C339.18 21.0276 339.905 20.8493 340.645 20.8493M340.645 18.7241C339.609 18.7241 338.544 18.9619 337.567 19.4672C334.193 21.1763 332.847 25.3226 334.548 28.6962C335.747 31.0888 338.159 32.471 340.66 32.471C341.695 32.471 342.761 32.2332 343.752 31.7279C347.126 30.0188 348.473 25.8873 346.771 22.4989C345.572 20.1062 343.16 18.7241 340.66 18.7241H340.645Z" fill="#222222"/>
<path d="M70.76 154.305C70.8932 154.305 71.0264 154.305 71.1595 154.32C72.1658 154.424 73.0832 154.929 73.7194 155.717C74.3557 156.505 74.6517 157.5 74.5481 158.511C74.3409 160.458 72.728 161.929 70.7748 161.929C70.6416 161.929 70.5085 161.929 70.3753 161.914C68.2889 161.691 66.7796 159.804 66.9868 157.723C67.1939 155.776 68.8068 154.305 70.76 154.305ZM70.76 152.596C67.9782 152.596 65.5958 154.706 65.2999 157.545C64.9891 160.577 67.1791 163.296 70.1977 163.608C70.3901 163.623 70.5825 163.638 70.7748 163.638C73.5567 163.638 75.939 161.528 76.235 158.689C76.5457 155.658 74.3705 152.938 71.3371 152.626C71.1447 152.611 70.9524 152.596 70.76 152.596Z" fill="#222222"/>
<path d="M371.423 125.355C373.184 125.355 374.752 126.544 375.241 128.238C375.847 130.348 374.634 132.578 372.533 133.187C372.163 133.291 371.793 133.35 371.423 133.35C369.662 133.35 368.094 132.162 367.605 130.467C366.999 128.357 368.212 126.128 370.313 125.519C370.683 125.414 371.053 125.355 371.423 125.355ZM371.423 123.572C370.89 123.572 370.357 123.646 369.81 123.809C366.762 124.701 365.001 127.911 365.889 130.973C366.614 133.499 368.922 135.134 371.408 135.134C371.941 135.134 372.473 135.06 373.021 134.896C376.069 134.004 377.83 130.794 376.942 127.733C376.217 125.206 373.909 123.572 371.423 123.572Z" fill="#222222"/>
<path d="M171.691 16.688C172.534 16.688 173.363 16.8664 174.147 17.223C175.598 17.8918 176.707 19.0659 177.255 20.5669C177.817 22.0679 177.758 23.6878 177.107 25.1442C176.145 27.2694 174.014 28.6515 171.676 28.6515C170.833 28.6515 170.004 28.4732 169.22 28.1165C166.231 26.7492 164.899 23.1973 166.261 20.1953C167.222 18.0701 169.353 16.688 171.691 16.688ZM171.691 14.0278C168.421 14.0278 165.284 15.9152 163.849 19.0956C161.881 23.45 163.789 28.5772 168.125 30.5538C169.279 31.0888 170.492 31.3266 171.691 31.3266C174.961 31.3266 178.098 29.4392 179.534 26.2588C181.502 21.9044 179.593 16.7772 175.257 14.8006C174.103 14.2656 172.89 14.0278 171.691 14.0278Z" fill="#222222"/>
<path d="M286.029 197.715C286.28 197.715 286.532 197.73 286.783 197.775C289.166 198.191 290.764 200.465 290.349 202.857C289.98 204.968 288.174 206.498 286.044 206.498C285.792 206.498 285.54 206.469 285.289 206.439C282.907 206.023 281.308 203.749 281.723 201.356C282.093 199.246 283.898 197.715 286.029 197.715ZM286.029 195.754C283.01 195.754 280.332 197.938 279.799 201.029C279.207 204.492 281.516 207.777 284.949 208.371C285.318 208.43 285.674 208.46 286.029 208.46C289.047 208.46 291.726 206.276 292.258 203.184C292.85 199.722 290.542 196.437 287.109 195.843C286.739 195.783 286.384 195.754 286.029 195.754Z" fill="#222222"/>
<path d="M67.0016 207.078C68.1558 207.078 69.2656 207.465 70.183 208.178C71.2632 209.025 71.9586 210.258 72.1214 211.626C72.2842 212.993 71.9142 214.36 71.056 215.445C70.0646 216.708 68.5849 217.437 66.9868 217.437C65.8326 217.437 64.7228 217.05 63.8054 216.337C61.571 214.568 61.1715 211.314 62.9324 209.07C63.9238 207.806 65.4035 207.078 67.0016 207.078ZM67.0016 204.76C64.782 204.76 62.5921 205.741 61.1271 207.628C58.582 210.883 59.1591 215.594 62.3997 218.15C63.761 219.22 65.3887 219.74 67.0016 219.74C69.2212 219.74 71.4111 218.759 72.8761 216.872C75.4212 213.617 74.8441 208.906 71.6035 206.35C70.2422 205.28 68.6145 204.76 67.0016 204.76Z" fill="#222222"/>
<path d="M18.5999 382.696C19.7393 382.696 20.7751 383.216 21.4705 384.123C22.0476 384.895 22.2992 385.846 22.166 386.798C22.0328 387.749 21.5445 388.596 20.7751 389.19C20.1388 389.666 19.3989 389.933 18.5999 389.933C17.4605 389.933 16.4247 389.413 15.7292 388.507C15.1522 387.734 14.9006 386.783 15.0338 385.832C15.167 384.88 15.6553 384.033 16.4247 383.439C17.061 382.949 17.8008 382.696 18.5999 382.696ZM18.5999 381.091C17.5049 381.091 16.3951 381.433 15.4629 382.161C13.1841 383.9 12.7254 387.184 14.4715 389.473C15.4925 390.825 17.0462 391.538 18.6147 391.538C19.7097 391.538 20.8195 391.197 21.7517 390.468C24.0304 388.73 24.4744 385.445 22.7431 383.157C21.7221 381.804 20.1684 381.091 18.5999 381.091Z" fill="#222222"/>
<path d="M192.555 96.182C195.278 96.182 197.734 97.9059 198.681 100.492C199.909 103.88 198.163 107.64 194.79 108.874C194.065 109.141 193.325 109.275 192.555 109.275C189.833 109.275 187.362 107.551 186.429 104.965C185.837 103.315 185.911 101.547 186.651 99.9568C187.391 98.3815 188.693 97.1777 190.321 96.5684C191.046 96.3009 191.786 96.1671 192.555 96.1671M192.555 93.2543C191.49 93.2543 190.395 93.4326 189.33 93.8339C184.446 95.6172 181.931 101.057 183.707 105.961C185.098 109.795 188.708 112.188 192.555 112.188C193.621 112.188 194.716 112.009 195.781 111.608C200.664 109.825 203.18 104.385 201.404 99.4812C200.013 95.647 196.403 93.2543 192.555 93.2543Z" fill="#222222"/>
<path d="M194.597 369.781C195.174 369.781 195.722 369.915 196.24 370.168C197.128 370.614 197.794 371.371 198.119 372.308C198.445 373.244 198.371 374.255 197.942 375.161C197.305 376.454 196.033 377.242 194.612 377.242C194.05 377.242 193.488 377.108 192.97 376.855C191.135 375.949 190.38 373.705 191.283 371.862C191.919 370.584 193.192 369.781 194.612 369.781M194.612 368.117C192.629 368.117 190.721 369.217 189.788 371.134C188.471 373.809 189.566 377.034 192.23 378.356C192.999 378.728 193.798 378.906 194.597 378.906C196.58 378.906 198.489 377.806 199.421 375.889C200.738 373.214 199.643 369.989 196.98 368.667C196.21 368.295 195.411 368.102 194.612 368.102V368.117Z" fill="#222222"/>
<path d="M144.376 69.0895L150.398 75.7772L141.461 76.6094L135.438 69.9218L144.376 69.1044M145.278 66.786L130.836 68.1235L140.558 78.9278L155 77.5903L145.278 66.786Z" fill="#222222"/>
<path d="M10.9942 283.793L17.1498 290.347L15.6257 299.234L9.47008 292.68L10.9942 283.793ZM9.55886 279.037L7.10254 293.394L17.061 303.975L19.5173 289.619L9.55886 279.037Z" fill="#222222"/>
<path d="M340.319 376.083L352.261 382.027L354.702 395.194L342.761 389.25L340.319 376.083ZM335.895 370.197L339.831 391.464L359.141 401.065L355.205 379.798L335.895 370.197Z" fill="#C0343B"/>
<path d="M71.7366 64.5122L78.2621 66.8157L80.3337 73.4439L73.8082 71.1404L71.7366 64.5122ZM69.0879 61.7628L72.4468 72.4779L82.9824 76.2081L79.6235 65.493L69.0879 61.7628Z" fill="#222222"/>
<path d="M197.631 290.362L198.563 298.283L192.807 303.796L191.875 295.875L197.631 290.362ZM199.11 286.23L189.818 295.132L191.327 307.943L200.62 299.041L199.11 286.23Z" fill="#222222"/>
<path d="M115.61 207.762L121.914 211.269L122.905 218.432L116.601 214.925L115.61 207.762ZM113.361 204.477L114.959 216.054L125.139 221.717L123.541 210.14L113.361 204.477Z" fill="#222222"/>
<path d="M141.786 390.602L138.841 396.666L132.242 397.929L135.186 391.865L141.786 390.602ZM144.731 388.343L134.077 390.394L129.312 400.188L139.966 398.137L144.731 388.343Z" fill="#222222"/>
<path d="M212.457 165.882L205.029 177.103L191.638 177.86L199.081 166.64L212.472 165.882M218.894 162.197L197.246 163.415L185.23 181.531L206.879 180.313L218.894 162.182V162.197Z" fill="#C0343B"/>
<path d="M41.5358 13.5077L50.3253 22.6772L48.2833 35.2352L39.4938 26.0656L41.5358 13.5077ZM39.4642 6.82007L36.1792 27.1208L50.3697 41.9377L53.6546 21.6369L39.4642 6.82007Z" fill="#C0343B"/>
<path d="M15.9811 101.25C15.7591 101.25 15.5519 101.205 15.3448 101.101C14.5901 100.744 14.2646 99.8379 14.6049 99.08C15.4336 97.3115 16.8837 96.0185 18.6741 95.4538C20.4794 94.889 22.3882 95.1268 24.0603 96.1225C24.9925 96.6724 26.0431 96.8062 27.0197 96.5089C27.9963 96.1968 28.7806 95.4984 29.2393 94.5026C30.0679 92.7341 31.5181 91.4412 33.3085 90.8764C35.099 90.3117 37.0226 90.5495 38.6947 91.5452C39.4197 91.9762 39.6565 92.9125 39.2274 93.6258C38.7982 94.354 37.866 94.5918 37.1558 94.1608C36.2235 93.6109 35.1729 93.4772 34.1963 93.7744C33.2197 94.0865 32.4355 94.785 31.9768 95.7807C31.1481 97.5492 29.7128 98.8422 27.9076 99.3921C26.1023 99.9568 24.1935 99.719 22.5214 98.7233C21.5892 98.1734 20.5386 98.0397 19.562 98.3369C18.5854 98.649 17.8011 99.3475 17.3424 100.343C17.0908 100.893 16.5433 101.22 15.9663 101.22L15.9811 101.25Z" fill="#222222"/>
<path d="M313.729 166.551H313.685C313.137 166.536 312.708 166.06 312.738 165.525C312.767 164.812 312.516 164.173 312.042 163.697C311.569 163.222 310.918 162.984 310.207 163.029C308.935 163.088 307.766 162.657 306.878 161.795C306.005 160.933 305.546 159.744 305.591 158.481C305.62 157.768 305.369 157.129 304.895 156.653C304.422 156.178 303.77 155.955 303.06 155.984C302.513 155.984 302.054 155.598 302.024 155.048C301.995 154.498 302.409 154.038 302.957 153.993C304.229 153.934 305.413 154.365 306.286 155.226C307.159 156.088 307.618 157.262 307.573 158.541C307.544 159.254 307.795 159.893 308.269 160.369C308.742 160.829 309.393 161.067 310.104 161.037C311.391 160.978 312.56 161.409 313.433 162.271C314.306 163.133 314.765 164.307 314.72 165.585C314.706 166.12 314.262 166.536 313.729 166.536V166.551Z" fill="#222222"/>
<path d="M292.362 356.926C291.873 356.926 291.474 356.525 291.459 356.034C291.459 355.544 291.844 355.128 292.347 355.128C292.983 355.128 293.56 354.86 293.96 354.415C294.359 353.954 294.537 353.359 294.478 352.72C294.359 351.576 294.7 350.476 295.439 349.629C296.179 348.797 297.215 348.321 298.369 348.306C299.006 348.306 299.583 348.039 299.982 347.593C300.382 347.147 300.559 346.538 300.5 345.899C300.441 345.408 300.796 344.963 301.299 344.903C301.787 344.844 302.231 345.2 302.29 345.706C302.409 346.85 302.069 347.95 301.329 348.797C300.589 349.629 299.553 350.105 298.399 350.12C297.763 350.12 297.185 350.387 296.786 350.833C296.386 351.294 296.209 351.888 296.268 352.527C296.386 353.671 296.046 354.771 295.306 355.618C294.566 356.451 293.531 356.926 292.376 356.941L292.362 356.926Z" fill="#222222"/>
<path d="M61.1272 279.974C60.8164 279.974 60.5057 279.87 60.2393 279.661C58.8336 278.517 57.9902 276.912 57.8866 275.158C57.783 273.405 58.4193 271.711 59.6918 270.418C60.3873 269.689 60.7424 268.768 60.698 267.817C60.6388 266.866 60.1801 265.989 59.3959 265.35C57.9902 264.206 57.1467 262.601 57.0431 260.847C56.9396 259.093 57.5758 257.399 58.8484 256.106C59.3959 255.541 60.2837 255.541 60.846 256.091C61.4083 256.641 61.4083 257.533 60.8756 258.098C60.1653 258.826 59.8102 259.747 59.8694 260.698C59.9286 261.649 60.3873 262.526 61.1715 263.165C62.5773 264.31 63.4207 265.915 63.5243 267.668C63.6279 269.422 62.9916 271.116 61.719 272.424C61.0088 273.152 60.6536 274.074 60.7128 275.025C60.772 275.976 61.2307 276.853 62.015 277.492C62.6217 277.982 62.7104 278.874 62.2221 279.483C61.941 279.825 61.5415 280.003 61.1272 280.003V279.974Z" fill="#222222"/>
<path d="M76.4271 380.378C74.7402 380.378 73.1569 379.813 71.8548 378.758C70.2567 377.45 69.3096 375.548 69.1913 373.422C69.1173 372.233 68.6142 371.193 67.7411 370.48C66.8681 369.766 65.7435 369.484 64.5746 369.662C62.4586 369.975 60.4166 369.439 58.8037 368.132C57.2056 366.824 56.2586 364.922 56.1402 362.796C56.0958 361.875 56.7913 361.087 57.7087 361.043C58.6261 360.998 59.4104 361.697 59.4548 362.618C59.5139 363.807 60.0318 364.847 60.9049 365.561C61.7779 366.274 62.9025 366.556 64.0715 366.378C66.1727 366.066 68.2295 366.601 69.8275 367.909C71.4256 369.217 72.3875 371.104 72.5058 373.244C72.5798 374.433 73.0829 375.473 73.9559 376.187C74.829 376.9 75.9536 377.182 77.1225 377.004C78.0252 376.855 78.8686 377.494 79.0166 378.401C79.1497 379.308 78.5283 380.169 77.6256 380.303C77.2261 380.363 76.8266 380.392 76.4419 380.392L76.4271 380.378Z" fill="#222222"/>
<path d="M7.3689 152.834C7.3689 152.834 7.25052 152.834 7.19133 152.834C6.56985 152.819 6.08155 152.284 6.11114 151.675C6.12594 151.051 6.64384 150.575 7.26532 150.575C8.07916 150.605 8.80422 150.322 9.32212 149.772C9.85482 149.223 10.1064 148.479 10.062 147.677C9.97319 146.221 10.4615 144.868 11.4381 143.872C12.4147 142.862 13.7465 142.342 15.1818 142.386C15.9956 142.401 16.7207 142.134 17.2386 141.584C17.7713 141.034 18.0228 140.291 17.9784 139.488C17.9341 138.864 18.4076 138.329 19.029 138.285C19.6505 138.24 20.1832 138.715 20.2276 139.34C20.3164 140.781 19.8281 142.148 18.8515 143.144C17.8749 144.155 16.5431 144.675 15.1078 144.63C14.3088 144.586 13.5837 144.883 13.051 145.433C12.5183 145.983 12.2667 146.726 12.3111 147.528C12.3999 148.97 11.9116 150.322 10.9498 151.333C10.0176 152.299 8.75983 152.819 7.38369 152.819L7.3689 152.834Z" fill="#222222"/>
<path d="M143.917 163.43C143.029 163.43 142.171 163.207 141.387 162.776C140.085 162.048 139.167 160.814 138.812 159.313C138.62 158.481 138.117 157.798 137.406 157.396C136.696 157.01 135.867 156.936 135.054 157.218C133.589 157.708 132.065 157.59 130.748 156.861C129.445 156.133 128.528 154.9 128.173 153.399C128.025 152.745 128.424 152.091 129.061 151.942C129.712 151.794 130.363 152.195 130.511 152.834C130.703 153.666 131.206 154.35 131.917 154.751C132.627 155.137 133.455 155.212 134.284 154.929C135.749 154.439 137.273 154.558 138.575 155.286C139.877 156.014 140.795 157.248 141.15 158.749C141.342 159.581 141.845 160.265 142.556 160.666C143.266 161.067 144.109 161.127 144.923 160.844C145.56 160.636 146.24 160.978 146.447 161.602C146.655 162.226 146.329 162.925 145.693 163.133C145.101 163.326 144.509 163.43 143.917 163.43Z" fill="#222222"/>
<path d="M18.0377 217.095C17.6678 217.095 17.283 216.946 17.0019 216.664C15.6997 215.326 15.0339 213.587 15.1375 211.789C15.241 209.991 16.0993 208.341 17.5346 207.167C18.3336 206.513 18.8071 205.622 18.8663 204.641C18.9255 203.66 18.5556 202.709 17.8305 201.981C16.5284 200.643 15.8625 198.904 15.9661 197.106C16.0697 195.293 16.9279 193.658 18.3632 192.484C18.9847 191.979 19.9021 192.083 20.4052 192.707C20.9083 193.331 20.8196 194.253 20.1833 194.758C19.3842 195.412 18.9107 196.304 18.8515 197.284C18.7923 198.265 19.1623 199.216 19.8873 199.959C21.1895 201.297 21.8554 203.021 21.7518 204.834C21.6482 206.647 20.79 208.282 19.3546 209.456C18.5556 210.11 18.0821 211.002 18.0229 211.982C17.9637 212.963 18.3336 213.914 19.0587 214.657C19.621 215.237 19.6062 216.158 19.0439 216.723C18.7628 217.006 18.3928 217.139 18.0229 217.139L18.0377 217.095Z" fill="#222222"/>
<path d="M229.445 71.5119C228.705 71.5119 227.965 71.3782 227.24 71.1107C226.515 70.8431 226.145 70.0406 226.411 69.3124C226.677 68.5842 227.477 68.2127 228.202 68.4802C229.134 68.822 230.096 68.7774 230.924 68.3464C231.753 67.9154 232.36 67.1426 232.611 66.1767C233.07 64.4379 234.165 63.0409 235.704 62.2384C237.243 61.4359 239.003 61.3318 240.69 61.956C241.623 62.2978 242.599 62.2532 243.428 61.8222C244.256 61.3913 244.863 60.6185 245.115 59.6525C245.307 58.9094 246.077 58.4636 246.816 58.6568C247.556 58.85 248 59.6228 247.808 60.3658C247.349 62.1046 246.254 63.5016 244.715 64.3041C243.176 65.1066 241.415 65.2107 239.743 64.5865C238.811 64.2447 237.834 64.2893 237.006 64.7351C236.177 65.1661 235.571 65.9389 235.319 66.9049C234.86 68.6437 233.765 70.0406 232.226 70.8432C231.353 71.3039 230.406 71.5268 229.445 71.5268V71.5119Z" fill="#222222"/>
<path d="M305.96 235.939C305.768 235.939 305.561 235.865 305.398 235.716L300.027 230.767C299.686 230.455 299.671 229.935 299.982 229.593C300.293 229.251 300.811 229.237 301.151 229.549L306.523 234.497C306.863 234.81 306.878 235.33 306.567 235.672C306.404 235.85 306.182 235.939 305.96 235.939Z" fill="#222222"/>
<path d="M130.2 275.381C129.963 275.381 129.727 275.277 129.549 275.084L124.459 269.303C124.148 268.946 124.178 268.396 124.533 268.07C124.888 267.757 125.435 267.787 125.761 268.144L130.851 273.925C131.162 274.282 131.132 274.831 130.777 275.158C130.614 275.307 130.407 275.381 130.2 275.381Z" fill="#222222"/>
<path d="M94.4503 114.551C93.9768 114.551 93.5476 114.224 93.4441 113.748C93.3109 113.184 93.666 112.634 94.2135 112.5L103.121 110.434C103.669 110.3 104.231 110.657 104.364 111.207C104.498 111.772 104.142 112.322 103.595 112.455L94.687 114.521C94.613 114.536 94.5242 114.551 94.4503 114.551Z" fill="#222222"/>
<path d="M279.532 35.6365C279.089 35.6365 278.689 35.3392 278.585 34.8785C278.452 34.3435 278.778 33.8234 279.311 33.6896L287.76 31.6536C288.292 31.5199 288.81 31.8468 288.943 32.3818C289.077 32.9168 288.751 33.437 288.218 33.5707L279.769 35.6068C279.695 35.6216 279.621 35.6365 279.532 35.6365Z" fill="#222222"/>
<path d="M391.725 366.229C391.325 366.229 390.955 365.947 390.852 365.531L389.002 357.758C388.884 357.268 389.18 356.778 389.668 356.674C390.141 356.555 390.63 356.852 390.748 357.342L392.598 365.115C392.716 365.605 392.42 366.096 391.932 366.2C391.858 366.215 391.799 366.229 391.725 366.229Z" fill="#222222"/>
<path d="M246.269 375.027C245.928 375.027 245.617 374.834 245.47 374.507L242.347 367.433C242.155 366.987 242.347 366.467 242.791 366.274C243.235 366.081 243.753 366.274 243.945 366.72L247.068 373.794C247.26 374.24 247.068 374.76 246.624 374.953C246.505 374.998 246.387 375.027 246.269 375.027Z" fill="#222222"/>
<path d="M242.836 319.787C242.066 319.787 241.43 319.193 241.386 318.405C241.341 317.603 241.948 316.904 242.762 316.86L255.62 316.102C256.434 316.072 257.115 316.666 257.159 317.484C257.204 318.286 256.597 318.985 255.783 319.029L242.924 319.787C242.924 319.787 242.865 319.787 242.836 319.787Z" fill="#222222"/>
<path d="M158.581 337.398C158.241 337.398 157.945 337.175 157.841 336.833L155.903 330.235C155.784 329.819 156.021 329.388 156.421 329.269C156.82 329.15 157.264 329.388 157.382 329.789L159.321 336.388C159.439 336.804 159.202 337.235 158.803 337.354C158.729 337.368 158.655 337.383 158.581 337.383V337.398Z" fill="#222222"/>
<path d="M399.33 290.778C399.33 290.778 399.227 290.778 399.182 290.778L387.966 289.425C387.271 289.336 386.768 288.697 386.856 287.999C386.945 287.3 387.581 286.78 388.277 286.884L399.493 288.237C400.189 288.326 400.692 288.965 400.603 289.663C400.529 290.317 399.967 290.793 399.33 290.793V290.778Z" fill="#222222"/>
<path d="M343.9 202.961L341.547 200.613L353.415 188.635L365.341 200.554L363.003 202.917L353.429 193.346L343.9 202.961Z" fill="#C0343B"/>
<path d="M292.554 296.589L290.424 295.37L295.381 286.646L286.709 281.668L287.923 279.528L298.74 285.74L292.554 296.589Z" fill="#222222"/>
<path d="M223.452 412.82L217 403.784L218.776 402.506L223.955 409.759L231.176 404.572L232.448 406.355L223.452 412.82Z" fill="#222222"/>
<path d="M333.735 83.6389L321.912 81.3948L324.146 69.5205L326.469 69.9515L324.679 79.4925L334.178 81.2908L333.735 83.6389Z" fill="#222222"/>
<path d="M235.407 21.5478L223.866 11.8284L225.775 9.5397L235.052 17.342L242.821 8.0387L245.1 9.94096L235.407 21.5478Z" fill="#222222"/>
<path d="M245.07 144.705L243.59 136.204L235.111 137.69L234.756 135.595L245.307 133.752L247.142 144.348L245.07 144.705Z" fill="#222222"/>
<path d="M393.9 26.5858L384.667 19.2294L386.102 17.4014L393.53 23.3014L399.404 15.8558L401.225 17.2974L393.9 26.5858Z" fill="#222222"/>
<path d="M293.738 406.875L289.24 398.39L280.79 402.922L279.681 400.842L290.201 395.209L295.81 405.776L293.738 406.875Z" fill="#222222"/>
<path d="M346.09 313.754L334.519 302.236L336.768 299.947L346.061 309.191L355.279 299.858L357.558 302.132L346.09 313.754Z" fill="#222222"/>
</g>
<g clip-path="url(#clip2_17_12057)">
<path d="M687.889 303.217L687.623 305.223C689.132 305.416 690.479 306.204 691.411 307.423C692.343 308.641 692.743 310.142 692.55 311.673C692.358 313.189 691.574 314.541 690.36 315.478C689.147 316.414 687.653 316.815 686.143 316.622L685.877 318.628C687.919 318.896 689.961 318.346 691.589 317.083C693.231 315.819 694.282 313.991 694.548 311.926C694.814 309.875 694.267 307.824 693.009 306.189C691.751 304.54 689.931 303.484 687.875 303.217H687.889Z" fill="#222222"/>
<path d="M496.932 89.524C495.926 89.524 494.905 89.6578 493.899 89.955C491.073 90.7575 488.72 92.6301 487.285 95.2159L489.8 96.6278C490.866 94.7107 492.597 93.3434 494.698 92.7341C496.784 92.1396 498.989 92.3923 500.898 93.4623C504.819 95.6618 506.24 100.655 504.05 104.594L506.565 106.005C509.525 100.67 507.616 93.9082 502.304 90.9359C500.646 89.9996 498.812 89.524 496.947 89.524H496.932Z" fill="#222222"/>
<path d="M752.627 156.95C748.039 161.126 747.699 168.275 751.857 172.882C756.015 177.489 763.133 177.831 767.72 173.655L765.752 171.47C762.363 174.561 757.11 174.309 754.017 170.905C750.94 167.502 751.191 162.211 754.58 159.12L752.612 156.95H752.627Z" fill="#222222"/>
<path d="M511.981 395.967C510.531 395.967 509.14 396.487 508.045 397.468C506.861 398.523 506.151 399.995 506.062 401.585C505.973 403.175 506.491 404.706 507.557 405.909C508.607 407.098 510.072 407.812 511.655 407.901L511.744 406.34C510.575 406.266 509.495 405.746 508.711 404.869C507.926 403.992 507.542 402.848 507.616 401.674C507.69 400.5 508.208 399.415 509.081 398.627C509.954 397.84 511.093 397.453 512.262 397.528L512.351 395.967C512.232 395.967 512.114 395.967 511.981 395.967Z" fill="#222222"/>
<path d="M631.853 153.354L630.151 155.999C634.264 158.66 635.463 164.188 632.814 168.334C630.166 172.481 624.661 173.67 620.533 171.009L618.831 173.655C624.41 177.251 631.853 175.631 635.448 170.029C639.029 164.426 637.416 156.95 631.838 153.339L631.853 153.354Z" fill="#222222"/>
<path d="M408.194 373.051C406.152 373.051 404.154 374.061 403 375.919L404.347 376.766C404.998 375.741 405.989 375.027 407.173 374.76C408.357 374.492 409.57 374.7 410.591 375.339C412.707 376.677 413.343 379.486 412.011 381.611L413.358 382.458C415.163 379.59 414.29 375.785 411.434 373.972C410.428 373.333 409.289 373.036 408.179 373.036L408.194 373.051Z" fill="#222222"/>
<path d="M570.222 157.946C564.881 162.375 564.126 170.341 568.536 175.691C570.666 178.292 573.685 179.897 577.014 180.224C580.358 180.536 583.614 179.54 586.203 177.4L584.117 174.859C582.208 176.449 579.796 177.192 577.325 176.954C574.854 176.716 572.634 175.527 571.051 173.61C567.796 169.642 568.358 163.757 572.309 160.488L570.222 157.946Z" fill="#222222"/>
<path d="M743.63 398.791C745.42 398.791 747.048 397.795 747.862 396.19C748.439 395.061 748.528 393.768 748.143 392.564C747.744 391.36 746.915 390.379 745.79 389.8C745.125 389.458 744.399 389.279 743.66 389.279C741.869 389.279 740.241 390.275 739.428 391.88C738.244 394.214 739.191 397.082 741.514 398.271C742.18 398.612 742.905 398.791 743.645 398.791M743.645 400.916C742.609 400.916 741.544 400.678 740.567 400.173C737.193 398.464 735.847 394.318 737.548 390.944C738.747 388.551 741.159 387.169 743.66 387.169C744.695 387.169 745.761 387.407 746.752 387.912C750.126 389.621 751.473 393.753 749.771 397.141C748.572 399.534 746.16 400.916 743.66 400.916H743.645Z" fill="#222222"/>
<path d="M473.76 265.335C473.893 265.335 474.026 265.335 474.16 265.32C475.166 265.216 476.083 264.711 476.719 263.923C477.356 263.135 477.652 262.14 477.548 261.129C477.341 259.182 475.728 257.711 473.775 257.711C473.642 257.711 473.508 257.711 473.375 257.726C471.289 257.949 469.78 259.836 469.987 261.917C470.194 263.864 471.807 265.335 473.76 265.335ZM473.76 267.044C470.978 267.044 468.596 264.934 468.3 262.095C467.989 259.063 470.179 256.344 473.198 256.032C473.39 256.017 473.582 256.002 473.775 256.002C476.557 256.002 478.939 258.112 479.235 260.951C479.546 263.983 477.371 266.702 474.337 267.014C474.145 267.029 473.952 267.044 473.76 267.044Z" fill="#222222"/>
<path d="M774.423 294.285C776.184 294.285 777.752 293.096 778.241 291.402C778.847 289.292 777.634 287.062 775.533 286.453C775.163 286.349 774.793 286.29 774.423 286.29C772.662 286.29 771.094 287.479 770.605 289.173C769.999 291.283 771.212 293.512 773.313 294.122C773.683 294.226 774.053 294.285 774.423 294.285ZM774.423 296.068C773.89 296.068 773.357 295.994 772.81 295.831C769.762 294.939 768.001 291.729 768.889 288.667C769.614 286.141 771.922 284.506 774.408 284.506C774.941 284.506 775.473 284.581 776.021 284.744C779.069 285.636 780.83 288.846 779.942 291.907C779.217 294.434 776.909 296.068 774.423 296.068Z" fill="#222222"/>
<path d="M574.691 402.952C575.534 402.952 576.363 402.774 577.147 402.417C578.598 401.748 579.707 400.574 580.255 399.073C580.817 397.572 580.758 395.952 580.107 394.496C579.145 392.371 577.014 390.989 574.676 390.989C573.833 390.989 573.004 391.167 572.22 391.524C569.231 392.891 567.899 396.443 569.261 399.445C570.222 401.57 572.353 402.952 574.691 402.952ZM574.691 405.612C571.421 405.612 568.284 403.725 566.849 400.545C564.881 396.19 566.789 391.063 571.125 389.086C572.279 388.551 573.492 388.314 574.691 388.314C577.961 388.314 581.098 390.201 582.534 393.381C584.502 397.736 582.593 402.863 578.257 404.84C577.103 405.375 575.89 405.612 574.691 405.612Z" fill="#222222"/>
<path d="M689.029 221.925C689.28 221.925 689.532 221.91 689.783 221.865C692.166 221.449 693.764 219.175 693.349 216.783C692.98 214.672 691.174 213.142 689.044 213.142C688.792 213.142 688.54 213.171 688.289 213.201C685.907 213.617 684.308 215.891 684.723 218.284C685.093 220.394 686.898 221.925 689.029 221.925ZM689.029 223.886C686.01 223.886 683.332 221.702 682.799 218.611C682.207 215.148 684.516 211.864 687.949 211.269C688.318 211.21 688.674 211.18 689.029 211.18C692.047 211.18 694.726 213.365 695.258 216.456C695.85 219.918 693.542 223.203 690.109 223.797C689.739 223.857 689.384 223.886 689.029 223.886Z" fill="#222222"/>
<path d="M470.002 212.562C471.156 212.562 472.266 212.176 473.183 211.462C474.263 210.615 474.959 209.382 475.121 208.014C475.284 206.647 474.914 205.28 474.056 204.195C473.065 202.932 471.585 202.204 469.987 202.204C468.833 202.204 467.723 202.59 466.805 203.303C464.571 205.072 464.172 208.326 465.932 210.571C466.924 211.834 468.404 212.562 470.002 212.562ZM470.002 214.88C467.782 214.88 465.592 213.9 464.127 212.012C461.582 208.757 462.159 204.046 465.4 201.49C466.761 200.42 468.389 199.9 470.002 199.9C472.221 199.9 474.411 200.881 475.876 202.768C478.421 206.023 477.844 210.734 474.604 213.29C473.242 214.36 471.614 214.88 470.002 214.88Z" fill="#222222"/>
<path d="M421.6 36.9443C422.739 36.9443 423.775 36.4241 424.471 35.5176C425.048 34.7448 425.299 33.7937 425.166 32.8425C425.033 31.8914 424.545 31.0443 423.775 30.4498C423.139 29.9742 422.399 29.7067 421.6 29.7067C420.461 29.7067 419.425 30.2269 418.729 31.1335C418.152 31.9063 417.901 32.8574 418.034 33.8085C418.167 34.7596 418.655 35.6067 419.425 36.2012C420.061 36.6916 420.801 36.9443 421.6 36.9443ZM421.6 38.5493C420.505 38.5493 419.395 38.2075 418.463 37.4793C416.184 35.7405 415.725 32.4561 417.471 30.1674C418.492 28.815 420.046 28.1017 421.615 28.1017C422.71 28.1017 423.819 28.4435 424.752 29.1717C427.03 30.9105 427.474 34.1949 425.743 36.4836C424.722 37.836 423.168 38.5493 421.6 38.5493Z" fill="#222222"/>
<path d="M595.555 323.458C598.278 323.458 600.734 321.734 601.681 319.148C602.909 315.76 601.163 312 597.79 310.766C597.065 310.499 596.325 310.365 595.555 310.365C592.833 310.365 590.362 312.089 589.429 314.675C588.837 316.325 588.911 318.093 589.651 319.683C590.391 321.259 591.693 322.462 593.321 323.072C594.046 323.339 594.786 323.473 595.555 323.473M595.555 326.386C594.49 326.386 593.395 326.208 592.33 325.806C587.446 324.023 584.931 318.584 586.707 313.679C588.098 309.845 591.708 307.452 595.555 307.452C596.621 307.452 597.716 307.631 598.781 308.032C603.664 309.815 606.18 315.255 604.404 320.159C603.013 323.993 599.403 326.386 595.555 326.386Z" fill="#222222"/>
<path d="M597.597 49.8589C598.174 49.8589 598.722 49.7251 599.24 49.4725C600.128 49.0266 600.794 48.2687 601.119 47.3324C601.445 46.3962 601.371 45.3856 600.942 44.479C600.305 43.1861 599.033 42.3984 597.612 42.3984C597.05 42.3984 596.488 42.5322 595.97 42.7848C594.135 43.6914 593.38 45.9354 594.283 47.7783C594.919 49.0563 596.192 49.8589 597.612 49.8589M597.612 51.5234C595.629 51.5234 593.721 50.4236 592.788 48.5065C591.471 45.8314 592.566 42.6065 595.23 41.2838C595.999 40.9123 596.798 40.7339 597.597 40.7339C599.58 40.7339 601.489 41.8337 602.421 43.7508C603.738 46.4259 602.643 49.6508 599.98 50.9735C599.21 51.345 598.411 51.5382 597.612 51.5382V51.5234Z" fill="#222222"/>
<path d="M547.376 350.551L553.398 343.863L544.461 343.031L538.438 349.718L547.376 350.536M548.278 352.854L533.836 351.517L543.558 340.712L558 342.05L548.278 352.854Z" fill="#222222"/>
<path d="M413.994 135.847L420.15 129.293L418.626 120.406L412.47 126.96L413.994 135.847ZM412.559 140.603L410.103 126.247L420.061 115.665L422.517 130.021L412.559 140.603Z" fill="#222222"/>
<path d="M743.319 43.5576L755.261 37.613L757.702 24.4458L745.761 30.3904L743.319 43.5576ZM738.895 49.4427L742.831 28.176L762.141 18.5755L758.205 39.8422L738.895 49.4427Z" fill="#C0343B"/>
<path d="M474.737 355.128L481.262 352.824L483.334 346.196L476.808 348.5L474.737 355.128ZM472.088 357.877L475.447 347.162L485.982 343.432L482.623 354.147L472.088 357.877Z" fill="#222222"/>
<path d="M600.631 129.278L601.563 121.357L595.807 115.844L594.875 123.765L600.631 129.278ZM602.11 133.41L592.818 124.508L594.327 111.697L603.62 120.599L602.11 133.41Z" fill="#222222"/>
<path d="M518.61 211.878L524.914 208.371L525.905 201.208L519.601 204.715L518.61 211.878ZM516.361 215.163L517.959 203.586L528.139 197.923L526.541 209.501L516.361 215.163Z" fill="#222222"/>
<path d="M544.786 29.038L541.841 22.9745L535.242 21.7112L538.186 27.7747L544.786 29.038ZM547.731 31.2969L537.077 29.246L532.312 19.4523L542.966 21.5032L547.731 31.2969Z" fill="#222222"/>
<path d="M615.457 253.758L608.029 242.538L594.638 241.78L602.081 253L615.472 253.758M621.894 257.444L600.246 256.225L588.23 238.109L609.879 239.328L621.894 257.458V257.444Z" fill="#C0343B"/>
<path d="M444.536 406.132L453.325 396.963L451.283 384.405L442.494 393.574L444.536 406.132ZM442.464 412.82L439.179 392.519L453.37 377.702L456.655 398.003L442.464 412.82Z" fill="#C0343B"/>
<path d="M418.981 318.39C418.759 318.39 418.552 318.435 418.345 318.539C417.59 318.896 417.265 319.802 417.605 320.56C418.434 322.329 419.884 323.622 421.674 324.186C423.479 324.751 425.388 324.513 427.06 323.518C427.993 322.968 429.043 322.834 430.02 323.131C430.996 323.443 431.781 324.142 432.239 325.138C433.068 326.906 434.518 328.199 436.309 328.764C438.099 329.328 440.023 329.091 441.695 328.095C442.42 327.664 442.656 326.728 442.227 326.014C441.798 325.286 440.866 325.048 440.156 325.479C439.224 326.029 438.173 326.163 437.196 325.866C436.22 325.554 435.435 324.855 434.977 323.859C434.148 322.091 432.713 320.798 430.908 320.248C429.102 319.683 427.193 319.921 425.521 320.917C424.589 321.467 423.539 321.6 422.562 321.303C421.585 320.991 420.801 320.293 420.342 319.297C420.091 318.747 419.543 318.42 418.966 318.42L418.981 318.39Z" fill="#222222"/>
<path d="M716.729 253.089H716.685C716.137 253.104 715.708 253.58 715.738 254.115C715.767 254.828 715.516 255.467 715.042 255.943C714.569 256.418 713.918 256.656 713.207 256.611C711.935 256.552 710.766 256.983 709.878 257.845C709.005 258.707 708.546 259.896 708.591 261.159C708.62 261.872 708.369 262.511 707.895 262.987C707.422 263.463 706.77 263.685 706.06 263.656C705.513 263.656 705.054 264.042 705.024 264.592C704.995 265.142 705.409 265.603 705.957 265.647C707.229 265.707 708.413 265.276 709.286 264.414C710.159 263.552 710.618 262.378 710.573 261.1C710.544 260.386 710.795 259.747 711.269 259.272C711.742 258.811 712.393 258.573 713.104 258.603C714.391 258.662 715.56 258.231 716.433 257.369C717.306 256.507 717.765 255.333 717.72 254.055C717.706 253.52 717.262 253.104 716.729 253.104V253.089Z" fill="#222222"/>
<path d="M695.362 62.714C694.873 62.714 694.474 63.1153 694.459 63.6057C694.459 64.0962 694.844 64.5123 695.347 64.5123C695.983 64.5123 696.56 64.7798 696.96 65.2256C697.359 65.6863 697.537 66.2808 697.478 66.9198C697.359 68.0642 697.7 69.1639 698.439 70.011C699.179 70.8432 700.215 71.3188 701.369 71.3337C702.006 71.3337 702.583 71.6012 702.982 72.047C703.382 72.4929 703.559 73.1022 703.5 73.7412C703.441 74.2317 703.796 74.6775 704.299 74.7369C704.787 74.7964 705.231 74.4397 705.29 73.9344C705.409 72.7901 705.069 71.6903 704.329 70.8432C703.589 70.011 702.553 69.5354 701.399 69.5206C700.763 69.5206 700.185 69.2531 699.786 68.8072C699.386 68.3465 699.209 67.7521 699.268 67.113C699.386 65.9687 699.046 64.8689 698.306 64.0218C697.566 63.1896 696.531 62.714 695.376 62.6992L695.362 62.714Z" fill="#222222"/>
<path d="M464.127 139.667C463.816 139.667 463.506 139.771 463.239 139.979C461.834 141.123 460.99 142.728 460.887 144.482C460.783 146.235 461.419 147.93 462.692 149.222C463.387 149.951 463.742 150.872 463.698 151.823C463.639 152.774 463.18 153.651 462.396 154.29C460.99 155.435 460.147 157.04 460.043 158.793C459.94 160.547 460.576 162.241 461.848 163.534C462.396 164.099 463.284 164.099 463.846 163.549C464.408 162.999 464.408 162.107 463.876 161.543C463.165 160.814 462.81 159.893 462.869 158.942C462.929 157.991 463.387 157.114 464.172 156.475C465.577 155.331 466.421 153.725 466.524 151.972C466.628 150.218 465.992 148.524 464.719 147.216C464.009 146.488 463.654 145.567 463.713 144.615C463.772 143.664 464.231 142.787 465.015 142.148C465.622 141.658 465.71 140.766 465.222 140.157C464.941 139.815 464.541 139.637 464.127 139.637V139.667Z" fill="#222222"/>
<path d="M479.427 39.2626C477.74 39.2626 476.157 39.8273 474.855 40.8825C473.257 42.1903 472.31 44.0926 472.191 46.2178C472.117 47.4067 471.614 48.447 470.741 49.1603C469.868 49.8737 468.744 50.1561 467.575 49.9777C465.459 49.6656 463.417 50.2006 461.804 51.5084C460.206 52.8163 459.259 54.7185 459.14 56.8437C459.096 57.7651 459.791 58.5528 460.709 58.5973C461.626 58.6419 462.41 57.9434 462.455 57.022C462.514 55.8331 463.032 54.7928 463.905 54.0795C464.778 53.3661 465.902 53.0838 467.071 53.2621C469.173 53.5742 471.229 53.0392 472.828 51.7314C474.426 50.4236 475.387 48.5362 475.506 46.3961C475.58 45.2072 476.083 44.1669 476.956 43.4535C477.829 42.7402 478.954 42.4578 480.123 42.6362C481.025 42.7848 481.869 42.1457 482.017 41.2392C482.15 40.3326 481.528 39.4707 480.626 39.3369C480.226 39.2775 479.827 39.2478 479.442 39.2478L479.427 39.2626Z" fill="#C0343B"/>
<path d="M410.369 266.806C410.369 266.806 410.251 266.806 410.191 266.806C409.57 266.821 409.082 267.356 409.111 267.965C409.126 268.59 409.644 269.065 410.265 269.065C411.079 269.035 411.804 269.318 412.322 269.868C412.855 270.418 413.106 271.161 413.062 271.963C412.973 273.42 413.461 274.772 414.438 275.768C415.415 276.778 416.746 277.298 418.182 277.254C418.996 277.239 419.721 277.507 420.239 278.056C420.771 278.606 421.023 279.349 420.978 280.152C420.934 280.776 421.408 281.311 422.029 281.356C422.651 281.4 423.183 280.925 423.228 280.3C423.316 278.859 422.828 277.492 421.851 276.496C420.875 275.485 419.543 274.965 418.108 275.01C417.309 275.054 416.584 274.757 416.051 274.207C415.518 273.657 415.267 272.914 415.311 272.112C415.4 270.67 414.912 269.318 413.95 268.307C413.018 267.341 411.76 266.821 410.384 266.821L410.369 266.806Z" fill="#222222"/>
<path d="M546.917 256.21C546.029 256.21 545.171 256.433 544.387 256.864C543.085 257.592 542.167 258.826 541.812 260.327C541.62 261.159 541.117 261.843 540.406 262.244C539.696 262.63 538.867 262.704 538.054 262.422C536.589 261.932 535.065 262.051 533.748 262.779C532.445 263.507 531.528 264.741 531.173 266.242C531.025 266.895 531.424 267.549 532.061 267.698C532.712 267.847 533.363 267.445 533.511 266.806C533.703 265.974 534.206 265.29 534.917 264.889C535.627 264.503 536.455 264.428 537.284 264.711C538.749 265.201 540.273 265.082 541.575 264.354C542.877 263.626 543.795 262.392 544.15 260.891C544.342 260.059 544.845 259.376 545.556 258.974C546.266 258.573 547.109 258.514 547.923 258.796C548.56 259.004 549.24 258.662 549.447 258.038C549.655 257.414 549.329 256.715 548.693 256.507C548.101 256.314 547.509 256.21 546.917 256.21Z" fill="#222222"/>
<path d="M421.038 202.545C420.668 202.545 420.283 202.694 420.002 202.976C418.7 204.314 418.034 206.053 418.137 207.851C418.241 209.649 419.099 211.299 420.535 212.473C421.334 213.127 421.807 214.018 421.866 214.999C421.926 215.98 421.556 216.931 420.831 217.66C419.528 218.997 418.863 220.736 418.966 222.534C419.07 224.347 419.928 225.982 421.363 227.156C421.985 227.661 422.902 227.557 423.405 226.933C423.908 226.309 423.82 225.387 423.183 224.882C422.384 224.228 421.911 223.337 421.852 222.356C421.792 221.375 422.162 220.424 422.887 219.681C424.189 218.343 424.855 216.619 424.752 214.806C424.648 212.993 423.79 211.358 422.355 210.184C421.556 209.53 421.082 208.639 421.023 207.658C420.964 206.677 421.334 205.726 422.059 204.983C422.621 204.403 422.606 203.482 422.044 202.917C421.763 202.635 421.393 202.501 421.023 202.501L421.038 202.545Z" fill="#222222"/>
<path d="M632.445 348.128C631.705 348.128 630.965 348.262 630.24 348.529C629.515 348.797 629.145 349.6 629.411 350.328C629.677 351.056 630.477 351.427 631.202 351.16C632.134 350.818 633.096 350.863 633.924 351.294C634.753 351.725 635.36 352.497 635.611 353.463C636.07 355.202 637.165 356.599 638.704 357.402C640.243 358.204 642.003 358.308 643.69 357.684C644.623 357.342 645.599 357.387 646.428 357.818C647.256 358.249 647.863 359.022 648.115 359.988C648.307 360.731 649.077 361.177 649.816 360.983C650.556 360.79 651 360.017 650.808 359.274C650.349 357.536 649.254 356.139 647.715 355.336C646.176 354.534 644.415 354.429 642.743 355.054C641.811 355.395 640.834 355.351 640.006 354.905C639.177 354.474 638.571 353.701 638.319 352.735C637.86 350.996 636.765 349.6 635.226 348.797C634.353 348.336 633.406 348.113 632.445 348.113V348.128Z" fill="#222222"/>
<path d="M708.96 183.701C708.768 183.701 708.561 183.775 708.398 183.924L703.027 188.873C702.686 189.185 702.671 189.705 702.982 190.047C703.293 190.389 703.811 190.404 704.151 190.092L709.523 185.143C709.863 184.831 709.878 184.31 709.567 183.969C709.404 183.79 709.182 183.701 708.96 183.701Z" fill="#222222"/>
<path d="M533.2 144.259C532.963 144.259 532.727 144.363 532.549 144.556L527.459 150.337C527.148 150.694 527.178 151.244 527.533 151.571C527.888 151.883 528.435 151.853 528.761 151.496L533.851 145.715C534.162 145.359 534.132 144.809 533.777 144.482C533.614 144.333 533.407 144.259 533.2 144.259Z" fill="#222222"/>
<path d="M497.45 305.089C496.977 305.089 496.548 305.416 496.444 305.892C496.311 306.457 496.666 307.006 497.214 307.14L506.121 309.206C506.669 309.34 507.231 308.983 507.364 308.433C507.498 307.868 507.142 307.319 506.595 307.185L497.687 305.119C497.613 305.104 497.524 305.089 497.45 305.089Z" fill="#222222"/>
<path d="M682.532 384.004C682.089 384.004 681.689 384.301 681.585 384.762C681.452 385.297 681.778 385.817 682.311 385.951L690.76 387.987C691.292 388.12 691.81 387.793 691.943 387.258C692.077 386.723 691.751 386.203 691.218 386.069L682.769 384.033C682.695 384.019 682.621 384.004 682.532 384.004Z" fill="#222222"/>
<path d="M649.269 44.6127C648.928 44.6127 648.617 44.8059 648.47 45.1329L645.347 52.2069C645.155 52.6528 645.347 53.1729 645.791 53.3661C646.235 53.5593 646.753 53.3661 646.945 52.9203L650.068 45.8462C650.26 45.4004 650.068 44.8802 649.624 44.687C649.505 44.6424 649.387 44.6127 649.269 44.6127Z" fill="#222222"/>
<path d="M645.836 99.8527C645.066 99.8527 644.43 100.447 644.386 101.235C644.341 102.037 644.948 102.736 645.762 102.78L658.62 103.538C659.434 103.568 660.115 102.974 660.159 102.156C660.204 101.354 659.597 100.655 658.783 100.611L645.924 99.8527C645.924 99.8527 645.865 99.8527 645.836 99.8527Z" fill="#222222"/>
<path d="M561.581 82.242C561.241 82.242 560.945 82.4649 560.841 82.8067L558.903 89.4052C558.784 89.8213 559.021 90.2523 559.421 90.3712C559.82 90.4901 560.264 90.2523 560.382 89.851L562.321 83.2525C562.439 82.8364 562.202 82.4054 561.803 82.2865C561.729 82.2717 561.655 82.2568 561.581 82.2568V82.242Z" fill="#222222"/>
<path d="M746.9 216.679L744.547 219.027L756.415 231.005L768.341 219.086L766.003 216.723L756.429 226.294L746.9 216.679Z" fill="#222222"/>
<path d="M695.554 123.051L693.424 124.27L698.381 132.994L689.709 137.972L690.923 140.112L701.74 133.9L695.554 123.051Z" fill="#222222"/>
<path d="M626.452 6.82006L620 15.8558L621.776 17.1339L626.955 9.88152L634.176 15.0681L635.448 13.2848L626.452 6.82006Z" fill="#222222"/>
<path d="M736.735 336.001L724.912 338.245L727.146 350.12L729.469 349.689L727.679 340.148L737.178 338.349L736.735 336.001Z" fill="#222222"/>
<path d="M638.407 398.092L626.866 407.812L628.775 410.1L638.052 402.298L645.821 411.601L648.1 409.699L638.407 398.092Z" fill="#222222"/>
<path d="M648.07 274.936L646.59 283.436L638.111 281.95L637.756 284.046L648.307 285.888L650.142 275.292L648.07 274.936Z" fill="#222222"/>
<path d="M696.738 12.7647L692.24 21.2505L683.79 16.7178L682.681 18.7984L693.201 24.4309L698.81 13.8644L696.738 12.7647Z" fill="#222222"/>
<path d="M749.09 105.887L737.519 117.404L739.768 119.693L749.061 110.449L758.279 119.782L760.558 117.508L749.09 105.887Z" fill="#222222"/>
</g>
</g>
<defs>
<clipPath id="clip0_17_12057">
<rect width="775" height="421" rx="20" fill="white"/>
</clipPath>
<clipPath id="clip1_17_12057">
<rect width="403" height="406" fill="white" transform="translate(0 6.82007)"/>
</clipPath>
<clipPath id="clip2_17_12057">
<rect width="403" height="406" fill="white" transform="matrix(1 0 0 -1 403 412.82)"/>
</clipPath>
</defs>
</svg>
