<svg width="775" height="421" viewBox="0 0 775 421" fill="none" xmlns="http://www.w3.org/2000/svg">
<g clip-path="url(#clip0_10_23838)">
<path d="M-11 56.4542C23.5769 56.4542 23.5769 45.4246 58.1538 45.4246C92.7308 45.4246 92.7308 72.4973 127.308 72.4973C161.885 72.4973 161.885 53.4461 196.462 53.4461C231.038 53.4461 231.038 75.5054 265.615 75.5054C300.192 75.5054 300.192 77.5108 334.769 77.5108C369.346 77.5108 369.346 70.4919 403.923 70.4919C438.5 70.4919 438.5 60.465 473.077 60.465C507.654 60.465 507.654 50.438 542.231 50.438C576.808 50.438 576.808 55.4515 611.385 55.4515C645.962 55.4515 645.962 82.5243 680.538 82.5243C715.115 82.5243 715.115 68.4865 749.692 68.4865C784.269 68.4865 784.269 51.4407 818.846 51.4407C853.423 51.4407 853.423 65.4785 888 65.4785M888 65.4785V65.4785Z" stroke="#222222" stroke-width="10"/>
<path d="M-11 109.382C23.5769 109.382 23.5769 111.531 58.1538 111.531C92.7308 111.531 92.7308 91.1189 127.308 91.1189C161.885 91.1189 161.885 122.274 196.462 122.274C231.038 122.274 231.038 104.011 265.615 104.011C300.192 104.011 300.192 116.903 334.769 116.903C369.346 116.903 369.346 98.6392 403.923 98.6392C438.5 98.6392 438.5 82.5244 473.077 82.5244C507.654 82.5244 507.654 88.9703 542.231 88.9703C576.808 88.9703 576.808 93.2676 611.385 93.2676C645.962 93.2676 645.962 94.3419 680.538 94.3419C715.115 94.3419 715.115 87.896 749.692 87.896C784.269 87.896 784.269 114.754 818.846 114.754C853.423 114.754 853.423 107.234 888 107.234M888 107.234V107.234Z" stroke="#222222" stroke-width="10"/>
<path d="M-11 122.275C23.5769 122.275 23.5769 153.216 58.1538 153.216C92.7308 153.216 92.7308 158.05 127.308 158.05C161.885 158.05 161.885 151.282 196.462 151.282C231.038 151.282 231.038 128.077 265.615 128.077C300.192 128.077 300.192 144.514 334.769 144.514C369.346 144.514 369.346 132.911 403.923 132.911C438.5 132.911 438.5 136.779 473.077 136.779C507.654 136.779 507.654 146.447 542.231 146.447C576.808 146.447 576.808 131.944 611.385 131.944C645.962 131.944 645.962 141.613 680.538 141.613C715.115 141.613 715.115 127.11 749.692 127.11C784.269 127.11 784.269 130.01 818.846 130.01C853.423 130.01 853.423 148.381 888 148.381M888 148.381V148.381Z" stroke="#222222" stroke-width="10"/>
<path d="M-11 174.164C23.5769 174.164 23.5769 163.42 58.1538 163.42C92.7308 163.42 92.7308 192.427 127.308 192.427C161.885 192.427 161.885 166.643 196.462 166.643C231.038 166.643 231.038 164.495 265.615 164.495C300.192 164.495 300.192 190.278 334.769 190.278C369.346 190.278 369.346 168.792 403.923 168.792C438.5 168.792 438.5 187.055 473.077 187.055C507.654 187.055 507.654 182.758 542.231 182.758C576.808 182.758 576.808 197.799 611.385 197.799C645.962 197.799 645.962 179.535 680.538 179.535C715.115 179.535 715.115 169.866 749.692 169.866C784.269 169.866 784.269 158.049 818.846 158.049C853.423 158.049 853.423 184.907 888 184.907M888 184.907V184.907Z" stroke="#222222" stroke-width="10"/>
<path d="M-11 208.434C23.5769 208.434 23.5769 217.136 58.1538 217.136C92.7308 217.136 92.7308 205.533 127.308 205.533C161.885 205.533 161.885 228.738 196.462 228.738C231.038 228.738 231.038 221.97 265.615 221.97C300.192 221.97 300.192 220.036 334.769 220.036C369.346 220.036 369.346 212.301 403.923 212.301C438.5 212.301 438.5 197.798 473.077 197.798C507.654 197.798 507.654 226.804 542.231 226.804C576.808 226.804 576.808 223.904 611.385 223.904C645.962 223.904 645.962 203.599 680.538 203.599C715.115 203.599 715.115 233.573 749.692 233.573C784.269 233.573 784.269 202.632 818.846 202.632C853.423 202.632 853.423 207.467 888 207.467M888 207.467V207.467Z" stroke="#222222" stroke-width="10"/>
<path d="M-11 239.804C23.5769 239.804 23.5769 257.459 58.1538 257.459C92.7308 257.459 92.7308 261.613 127.308 261.613C161.885 261.613 161.885 238.766 196.462 238.766C231.038 238.766 231.038 259.536 265.615 259.536C300.192 259.536 300.192 271.998 334.769 271.998C369.346 271.998 369.346 241.881 403.923 241.881C438.5 241.881 438.5 233.573 473.077 233.573C507.654 233.573 507.654 244.997 542.231 244.997C576.808 244.997 576.808 254.343 611.385 254.343C645.962 254.343 645.962 264.729 680.538 264.729C715.115 264.729 715.115 249.151 749.692 249.151C784.269 249.151 784.269 266.806 818.846 266.806C853.423 266.806 853.423 243.958 888 243.958M888 243.958V243.958Z" stroke="#C0343B" stroke-width="10"/>
<path d="M-11 277.011C23.5769 277.011 23.5769 287.037 58.1538 287.037C92.7308 287.037 92.7308 282.024 127.308 282.024C161.885 282.024 161.885 271.997 196.462 271.997C231.038 271.997 231.038 295.059 265.615 295.059C300.192 295.059 300.192 297.064 334.769 297.064C369.346 297.064 369.346 299.07 403.923 299.07C438.5 299.07 438.5 278.013 473.077 278.013C507.654 278.013 507.654 283.027 542.231 283.027C576.808 283.027 576.808 292.051 611.385 292.051C645.962 292.051 645.962 304.083 680.538 304.083C715.115 304.083 715.115 309.097 749.692 309.097C784.269 309.097 784.269 280.019 818.846 280.019C853.423 280.019 853.423 302.078 888 302.078M888 302.078V302.078Z" stroke="#222222" stroke-width="10"/>
<path d="M-11 337.137C23.5769 337.137 23.5769 347.522 58.1538 347.522C92.7308 347.522 92.7308 324.675 127.308 324.675C161.885 324.675 161.885 342.33 196.462 342.33C231.038 342.33 231.038 309.098 265.615 309.098C300.192 309.098 300.192 340.253 334.769 340.253C369.346 340.253 369.346 320.521 403.923 320.521C438.5 320.521 438.5 335.06 473.077 335.06C507.654 335.06 507.654 329.868 542.231 329.868C576.808 329.868 576.808 315.329 611.385 315.329C645.962 315.329 645.962 319.483 680.538 319.483C715.115 319.483 715.115 332.983 749.692 332.983C784.269 332.983 784.269 317.406 818.846 317.406C853.423 317.406 853.423 314.29 888 314.29M888 314.29V314.29Z" stroke="#222222" stroke-width="10"/>
<path d="M-11 355.543C23.5769 355.543 23.5769 358.551 58.1538 358.551C92.7308 358.551 92.7308 357.548 127.308 357.548C161.885 357.548 161.885 352.535 196.462 352.535C231.038 352.535 231.038 377.602 265.615 377.602C300.192 377.602 300.192 353.538 334.769 353.538C369.346 353.538 369.346 372.589 403.923 372.589C438.5 372.589 438.5 362.562 473.077 362.562C507.654 362.562 507.654 370.583 542.231 370.583C576.808 370.583 576.808 367.575 611.385 367.575C645.962 367.575 645.962 347.521 680.538 347.521C715.115 347.521 715.115 374.594 749.692 374.594C784.269 374.594 784.269 384.621 818.846 384.621C853.423 384.621 853.423 379.608 888 379.608M888 379.608V379.608Z" stroke="#222222" stroke-width="10"/>
<path d="M-11 389.815C23.5769 389.815 23.5769 415.777 58.1538 415.777C92.7308 415.777 92.7308 395.007 127.308 395.007C161.885 395.007 161.885 405.392 196.462 405.392C231.038 405.392 231.038 400.2 265.615 400.2C300.192 400.2 300.192 396.046 334.769 396.046C369.346 396.046 369.346 417.854 403.923 417.854C438.5 417.854 438.5 410.585 473.077 410.585C507.654 410.585 507.654 384.622 542.231 384.622C576.808 384.622 576.808 408.508 611.385 408.508C645.962 408.508 645.962 390.853 680.538 390.853C715.115 390.853 715.115 412.662 749.692 412.662C784.269 412.662 784.269 423.047 818.846 423.047C853.423 423.047 853.423 392.93 888 392.93M888 392.93V392.93Z" stroke="#222222" stroke-width="10"/>
<path d="M-11 45.4247C23.5769 45.4247 23.5769 12.1925 58.1538 12.1925C92.7308 12.1925 92.7308 7 127.308 7C161.885 7 161.885 22.5776 196.462 22.5776C231.038 22.5776 231.038 40.2322 265.615 40.2322C300.192 40.2322 300.192 27.7701 334.769 27.7701C369.346 27.7701 369.346 32.9626 403.923 32.9626C438.5 32.9626 438.5 15.308 473.077 15.308C507.654 15.308 507.654 30.8856 542.231 30.8856C576.808 30.8856 576.808 35.0396 611.385 35.0396C645.962 35.0396 645.962 18.4236 680.538 18.4236C715.115 18.4236 715.115 13.231 749.692 13.231C784.269 13.231 784.269 38.1552 818.846 38.1552C853.423 38.1552 853.423 17.3851 888 17.3851M888 17.3851V17.3851Z" stroke="#222222" stroke-width="10"/>
</g>
<defs>
<clipPath id="clip0_10_23838">
<rect width="775" height="421" rx="20" fill="white"/>
</clipPath>
</defs>
</svg>
