<svg width="776" height="421" viewBox="0 0 776 421" fill="none" xmlns="http://www.w3.org/2000/svg">
<g clip-path="url(#clip0_16_10342)">
<path fill-rule="evenodd" clip-rule="evenodd" d="M69.3257 -28.2214H-9.97728V51.0815H61.1099L69.3257 42.8657V-28.2214ZM77.7606 51.0815L69.6508 42.9717V-28.2214H148.954V51.0815H77.7606ZM69.6508 59.3956L77.6398 51.4066H148.954V130.71H69.6508V59.3956ZM61.2307 51.4066L69.3257 59.5016V130.71H-9.97728V51.4066H61.2307ZM-10.2559 -28.5V51.128V51.3601V130.756V130.988V210.384V210.616V290.012V290.244V369.64V369.872V449.5H69.3722H69.6043H149H149.232H228.628H228.86H308.256H308.488H387.884H388.116H467.512H467.744H547.14H547.372H626.768H627H706.396H706.628H786.256L786.256 369.872V290.244V290.012V210.384V130.988V51.3601V51.128V-28.5H706.628H706.396H627H626.768H547.372H547.14H467.744H467.512H388.116H387.884H308.488H308.256H228.86H228.628H149.232H149H69.6043H69.3722H-10.2559ZM149.279 -28.2214H228.582V51.0815H149.279V-28.2214ZM308.21 -28.2214H228.907V51.0815H308.21V-28.2214ZM308.535 -28.2214H387.838V51.0815H308.535V-28.2214ZM467.465 -28.2214H388.162V51.0815H467.465V-28.2214ZM467.79 -28.2214H547.093V51.0815H467.79V-28.2214ZM626.721 -28.2214H547.418V51.0815H626.721V-28.2214ZM627.046 -28.2214H706.349V51.0815H627.046V-28.2214ZM785.978 -28.2214H706.674V51.0815H785.978V-28.2214ZM149.279 51.4066H228.582V130.71H149.279V51.4066ZM308.21 51.4066H228.907V130.71H300.233L308.21 122.733V51.4066ZM316.384 130.71L308.535 122.86V51.4066H387.838V130.71H316.384ZM308.535 139.263L316.736 131.062L316.709 131.034H387.838V210.337H308.535V139.263ZM299.908 131.034L299.881 131.062L308.21 139.39V210.337H228.907V131.034H299.908ZM467.465 51.4066H388.162V130.71H467.465V51.4066ZM467.79 51.4066H547.093V130.71H467.79V51.4066ZM626.721 51.4066H547.418V130.71H626.721V51.4066ZM627.046 51.4066H706.349V108.708L706.215 108.843L684.348 130.71H627.046V51.4066ZM684.023 131.034H627.047V202.525L627.313 202.258L635.392 210.337H706.349V153.415L706.215 153.28L684.211 131.277L683.996 131.062L684.023 131.034ZM706.349 152.985L684.426 131.062L684.454 131.034H698.03L698.002 131.062L706.349 139.409V152.985ZM706.674 153.251V210.337H785.977V131.034H728.836L728.864 131.062L728.648 131.277L706.674 153.251ZM728.406 131.034L728.433 131.062L706.674 152.821V139.245L714.857 131.062L714.83 131.034H728.406ZM728.512 130.71H785.978V51.4066H706.674V108.872L728.512 130.71ZM706.674 109.303L728.081 130.71H714.505L706.674 122.879V109.303ZM706.349 109.139L684.778 130.71H698.354L706.349 122.715V109.139ZM627.046 218.847L627.313 219.113L635.74 210.686L635.717 210.662H706.349V289.965H627.046V218.847ZM618.909 210.662L618.885 210.686L626.721 218.522V289.965H547.418V210.662H618.909ZM626.721 202.85L619.234 210.337H547.418V131.034H626.721V202.85ZM-9.97728 131.034H69.3257V210.337H-9.97728V131.034ZM148.954 131.034H69.6508V210.337H148.954V131.034ZM149.279 131.034H228.582V210.337H149.279V131.034ZM467.466 131.034H388.163V210.337H467.466V131.034ZM467.79 131.034H547.093V210.337H467.79V131.034ZM-9.97728 210.662H69.3257V289.965H-9.97728V210.662ZM148.954 210.662H69.6508V289.965H127.042L126.939 289.862L127.154 289.647L148.954 267.847V210.662ZM148.954 268.278L127.369 289.862L127.472 289.965H141.048L140.945 289.862L148.954 281.854V268.278ZM149.279 281.529V267.953L149.373 267.859L171.376 289.862L171.273 289.965H157.697L157.8 289.862L149.373 281.435L149.279 281.529ZM149.279 298.196L149.373 298.29L157.372 290.29H170.948L149.373 311.866L149.279 311.772V298.196ZM141.373 290.29L148.954 297.871V311.447L127.797 290.29H141.373ZM127.367 290.29H69.6508V369.593H148.954V311.877L127.367 290.29ZM149.279 312.202V369.593H228.582V290.29H171.378L149.588 312.081L149.373 312.296L149.279 312.202ZM171.703 289.965H228.582V210.662H149.279V267.522L149.373 267.428L149.588 267.644L171.591 289.647L171.806 289.862L171.703 289.965ZM308.21 210.662H228.907V289.965H308.21V210.662ZM308.535 210.662H387.838V289.965H308.535V210.662ZM467.465 210.662H388.162V289.965H467.465V210.662ZM467.79 210.662H547.093V289.965H467.79V210.662ZM785.978 210.662H706.674V289.965H785.978V210.662ZM-9.97728 290.29H69.3257V369.593H-9.97728V290.29ZM308.21 290.29H228.907V369.593H308.21V290.29ZM308.535 290.29H387.838V369.593H308.535V290.29ZM467.465 290.29H388.162V369.593H467.465V290.29ZM467.79 290.29H547.093V369.593H467.79V290.29ZM626.721 290.29H547.418V369.593H626.721V290.29ZM627.046 290.29H706.349V369.593H627.046V290.29ZM785.978 290.29H706.674V369.593H785.978V290.29ZM-9.97728 369.919H69.3257V449.221H-9.97728V369.919ZM148.954 369.919H69.6508V449.221H148.954V369.919ZM149.279 369.919H228.582V449.221H149.279V369.919ZM308.21 369.919H228.907V449.221H308.21V369.919ZM308.535 369.919H387.838V449.221H308.535V369.919ZM467.465 369.919H388.162V449.221H467.465V369.919ZM467.79 369.919H547.093V449.221H467.79V369.919ZM626.721 369.919H547.418V449.221H626.721V369.919ZM627.046 369.919H706.349V449.221H627.046V369.919ZM785.977 369.919H706.674V449.221H785.977V369.919Z" fill="black"/>
<rect x="69.25" y="41.704" width="13.5" height="13.5" transform="rotate(45 69.25 41.704)" fill="#FF4B33"/>
<rect x="308.25" y="121.204" width="13.5" height="13.5" transform="rotate(45 308.25 121.204)" fill="#FF4B33"/>
<rect x="706.75" y="121.204" width="13.5" height="13.5" transform="rotate(45 706.75 121.204)" fill="#FF4B33"/>
<rect x="626.75" y="200.954" width="13.5" height="13.5" transform="rotate(45 626.75 200.954)" fill="#FF4B33"/>
<rect x="149.25" y="280.454" width="13.5" height="13.5" transform="rotate(45 149.25 280.454)" fill="#FF4B33"/>
</g>
<defs>
<clipPath id="clip0_16_10342">
<rect x="0.5" width="775" height="421" rx="20" fill="white"/>
</clipPath>
</defs>
</svg>
