<svg width="775" height="421" viewBox="0 0 775 421" fill="none" xmlns="http://www.w3.org/2000/svg">
<g clip-path="url(#clip0_16_10342)">
<path fill-rule="evenodd" clip-rule="evenodd" d="M68.8257 -28.2214H-10.4773V51.0815H60.6099L68.8257 42.8657V-28.2214ZM77.2606 51.0815L69.1508 42.9717V-28.2214H148.454V51.0815H77.2606ZM69.1508 59.3956L77.1398 51.4066H148.454V130.71H69.1508V59.3956ZM60.7307 51.4066L68.8257 59.5016V130.71H-10.4773V51.4066H60.7307ZM-10.7559 -28.5V51.128V51.3601V130.756V130.988V210.384V210.616V290.012V290.244V369.64V369.872V449.5H68.8722H69.1043H148.5H148.732H228.128H228.36H307.756H307.988H387.384H387.616H467.012H467.244H546.64H546.872H626.268H626.5H705.896H706.128H785.756L785.756 369.872V290.244V290.012V210.384V130.988V51.3601V51.128V-28.5H706.128H705.896H626.5H626.268H546.872H546.64H467.244H467.012H387.616H387.384H307.988H307.756H228.36H228.128H148.732H148.5H69.1043H68.8722H-10.7559ZM148.779 -28.2214H228.082V51.0815H148.779V-28.2214ZM307.71 -28.2214H228.407V51.0815H307.71V-28.2214ZM308.035 -28.2214H387.338V51.0815H308.035V-28.2214ZM466.965 -28.2214H387.662V51.0815H466.965V-28.2214ZM467.29 -28.2214H546.593V51.0815H467.29V-28.2214ZM626.221 -28.2214H546.918V51.0815H626.221V-28.2214ZM626.546 -28.2214H705.849V51.0815H626.546V-28.2214ZM785.478 -28.2214H706.175V51.0815H785.478V-28.2214ZM148.779 51.4066H228.082V130.71H148.779V51.4066ZM307.71 51.4066H228.407V130.71H299.733L307.71 122.733V51.4066ZM315.884 130.71L308.035 122.86V51.4066H387.338V130.71H315.884ZM308.035 139.263L316.236 131.062L316.209 131.034H387.338V210.337H308.035V139.263ZM299.408 131.034L299.381 131.062L307.71 139.39V210.337H228.407V131.034H299.408ZM466.965 51.4066H387.662V130.71H466.965V51.4066ZM467.29 51.4066H546.593V130.71H467.29V51.4066ZM626.221 51.4066H546.918V130.71H626.221V51.4066ZM626.546 51.4066H705.849V108.708L705.715 108.843L683.848 130.71H626.546V51.4066ZM683.523 131.034H626.547V202.525L626.813 202.258L634.892 210.337H705.849V153.415L705.715 153.28L683.711 131.277L683.496 131.062L683.523 131.034ZM705.849 152.985L683.926 131.062L683.954 131.034H697.53L697.502 131.062L705.849 139.409V152.985ZM706.174 153.251V210.337H785.477V131.034H728.337L728.364 131.062L728.148 131.277L706.174 153.251ZM727.906 131.034L727.933 131.062L706.174 152.821V139.245L714.357 131.062L714.33 131.034H727.906ZM728.012 130.71H785.478V51.4066H706.175V108.872L728.012 130.71ZM706.175 109.303L727.581 130.71H714.005L706.175 122.879V109.303ZM705.849 109.139L684.278 130.71H697.854L705.849 122.715V109.139ZM626.546 218.847L626.813 219.113L635.24 210.686L635.217 210.662H705.849V289.965H626.546V218.847ZM618.409 210.662L618.385 210.686L626.221 218.522V289.965H546.918V210.662H618.409ZM626.221 202.85L618.734 210.337H546.918V131.034H626.221V202.85ZM-10.4773 131.034H68.8257V210.337H-10.4773V131.034ZM148.454 131.034H69.1508V210.337H148.454V131.034ZM148.779 131.034H228.082V210.337H148.779V131.034ZM466.966 131.034H387.663V210.337H466.966V131.034ZM467.29 131.034H546.593V210.337H467.29V131.034ZM-10.4773 210.662H68.8257V289.965H-10.4773V210.662ZM148.454 210.662H69.1508V289.965H126.542L126.439 289.862L126.654 289.647L148.454 267.847V210.662ZM148.454 268.278L126.869 289.862L126.972 289.965H140.548L140.445 289.862L148.454 281.854V268.278ZM148.779 281.529V267.953L148.873 267.859L170.876 289.862L170.773 289.965H157.197L157.3 289.862L148.873 281.435L148.779 281.529ZM148.779 298.196L148.873 298.29L156.872 290.29H170.448L148.873 311.866L148.779 311.772V298.196ZM140.873 290.29L148.454 297.871V311.447L127.297 290.29H140.873ZM126.867 290.29H69.1508V369.593H148.454V311.877L126.867 290.29ZM148.779 312.202V369.593H228.082V290.29H170.878L149.088 312.081L148.873 312.296L148.779 312.202ZM171.203 289.965H228.082V210.662H148.779V267.522L148.873 267.428L149.088 267.644L171.091 289.647L171.306 289.862L171.203 289.965ZM307.71 210.662H228.407V289.965H307.71V210.662ZM308.035 210.662H387.338V289.965H308.035V210.662ZM466.965 210.662H387.662V289.965H466.965V210.662ZM467.29 210.662H546.593V289.965H467.29V210.662ZM785.478 210.662H706.175V289.965H785.478V210.662ZM-10.4773 290.29H68.8257V369.593H-10.4773V290.29ZM307.71 290.29H228.407V369.593H307.71V290.29ZM308.035 290.29H387.338V369.593H308.035V290.29ZM466.965 290.29H387.662V369.593H466.965V290.29ZM467.29 290.29H546.593V369.593H467.29V290.29ZM626.221 290.29H546.918V369.593H626.221V290.29ZM626.546 290.29H705.849V369.593H626.546V290.29ZM785.478 290.29H706.175V369.593H785.478V290.29ZM-10.4773 369.919H68.8257V449.221H-10.4773V369.919ZM148.454 369.919H69.1508V449.221H148.454V369.919ZM148.779 369.919H228.082V449.221H148.779V369.919ZM307.71 369.919H228.407V449.221H307.71V369.919ZM308.035 369.919H387.338V449.221H308.035V369.919ZM466.965 369.919H387.662V449.221H466.965V369.919ZM467.29 369.919H546.593V449.221H467.29V369.919ZM626.221 369.919H546.918V449.221H626.221V369.919ZM626.546 369.919H705.849V449.221H626.546V369.919ZM785.477 369.919H706.174V449.221H785.477V369.919Z" fill="black"/>
<rect x="68.75" y="41.704" width="13.5" height="13.5" transform="rotate(45 68.75 41.704)" fill="#C0343B"/>
<rect x="307.75" y="121.204" width="13.5" height="13.5" transform="rotate(45 307.75 121.204)" fill="#C0343B"/>
<rect x="706.25" y="121.204" width="13.5" height="13.5" transform="rotate(45 706.25 121.204)" fill="#C0343B"/>
<rect x="626.25" y="200.954" width="13.5" height="13.5" transform="rotate(45 626.25 200.954)" fill="#C0343B"/>
<rect x="148.75" y="280.454" width="13.5" height="13.5" transform="rotate(45 148.75 280.454)" fill="#C0343B"/>
</g>
<defs>
<clipPath id="clip0_16_10342">
<rect width="775" height="421" rx="20" fill="white"/>
</clipPath>
</defs>
</svg>
