<svg width="775" height="421" viewBox="0 0 775 421" fill="none" xmlns="http://www.w3.org/2000/svg">
<g clip-path="url(#clip0_36_11784)">
<circle cx="390.882" cy="202.894" r="7.85373" fill="black"/>
<circle cx="346.722" cy="182.431" r="7.46105" transform="rotate(-63 346.722 182.431)" fill="black"/>
<circle cx="349.133" cy="228.442" r="7.46105" transform="rotate(-123 349.133 228.442)" fill="black"/>
<circle cx="392.484" cy="251.947" r="7.46105" transform="rotate(177 392.484 251.947)" fill="black"/>
<circle cx="428.616" cy="224.675" r="7.46105" transform="rotate(117 428.616 224.675)" fill="black"/>
<circle cx="426.435" cy="178.653" r="7.46105" transform="rotate(57 426.435 178.653)" fill="black"/>
<circle cx="388.122" cy="159.902" r="7.46105" transform="rotate(-3 388.122 159.902)" fill="black"/>
<circle cx="334.809" cy="131.55" r="7.06836" transform="rotate(-36 334.809 131.55)" fill="black"/>
<circle cx="305.565" cy="167.473" r="7.06836" transform="rotate(-66 305.565 167.473)" fill="black"/>
<circle cx="300.956" cy="215.434" r="7.06836" transform="rotate(-96 300.956 215.434)" fill="black"/>
<circle cx="314.69" cy="256.491" r="7.06836" transform="rotate(-126 314.69 256.491)" fill="black"/>
<circle cx="350.613" cy="285.733" r="7.06836" transform="rotate(-156 350.613 285.733)" fill="black"/>
<circle cx="399.098" cy="295.327" r="7.06836" transform="rotate(174 399.098 295.327)" fill="black"/>
<circle cx="439.63" cy="276.609" r="7.06836" transform="rotate(144 439.63 276.609)" fill="black"/>
<circle cx="468.873" cy="240.686" r="7.06836" transform="rotate(114 468.873 240.686)" fill="black"/>
<circle cx="478.991" cy="197.186" r="7.06836" transform="rotate(84 478.991 197.186)" fill="black"/>
<circle cx="459.749" cy="151.669" r="7.06836" transform="rotate(54 459.749 151.669)" fill="black"/>
<circle cx="423.826" cy="122.425" r="7.06836" transform="rotate(24 423.826 122.425)" fill="black"/>
<circle cx="380.849" cy="117.292" r="7.06836" transform="rotate(-6 380.849 117.292)" fill="black"/>
<circle cx="323.225" cy="88.7661" r="6.67567" transform="rotate(-29 323.225 88.7661)" fill="#FF4B33"/>
<circle cx="286.311" cy="117.026" r="6.67567" transform="rotate(-49 286.311 117.026)" fill="#FF4B33"/>
<circle cx="262.807" cy="156.789" r="6.67567" transform="rotate(-69 262.807 156.789)" fill="#FF4B33"/>
<circle cx="255.548" cy="203.261" r="6.67567" transform="rotate(-89 255.548 203.261)" fill="#FF4B33"/>
<circle cx="262.768" cy="248.846" r="6.67567" transform="rotate(-109 262.768 248.846)" fill="#FF4B33"/>
<circle cx="283.369" cy="288.083" r="6.67567" transform="rotate(-129 283.369 288.083)" fill="#FF4B33"/>
<circle cx="317.813" cy="318.179" r="6.67567" transform="rotate(-149 317.813 318.179)" fill="#FF4B33"/>
<circle cx="361.869" cy="335.517" r="6.67567" transform="rotate(-169 361.869 335.517)" fill="#FF4B33"/>
<circle cx="410.22" cy="338.006" r="6.67567" transform="rotate(171 410.22 338.006)" fill="#FF4B33"/>
<circle cx="451.679" cy="321.452" r="6.67567" transform="rotate(151 451.679 321.452)" fill="#FF4B33"/>
<circle cx="486.601" cy="291.745" r="6.67567" transform="rotate(131 486.601 291.745)" fill="#FF4B33"/>
<circle cx="510.776" cy="252.469" r="6.67567" transform="rotate(111 510.776 252.469)" fill="#FF4B33"/>
<circle cx="521.287" cy="208.36" r="6.67567" transform="rotate(91 521.287 208.36)" fill="#FF4B33"/>
<circle cx="514.146" cy="162.762" r="6.67567" transform="rotate(71 514.146 162.762)" fill="#FF4B33"/>
<circle cx="490.214" cy="121.175" r="6.67567" transform="rotate(51 490.214 121.175)" fill="#FF4B33"/>
<circle cx="455.099" cy="90.5918" r="6.67567" transform="rotate(31 455.099 90.5918)" fill="#FF4B33"/>
<circle cx="413.035" cy="74.7008" r="6.67567" transform="rotate(11 413.035 74.7008)" fill="#FF4B33"/>
<circle cx="369.097" cy="75.4188" r="6.67567" transform="rotate(-9 369.097 75.4188)" fill="#FF4B33"/>
<circle cx="307.716" cy="48.7524" r="6.28299" transform="rotate(-27 307.716 48.7524)" fill="black"/>
<circle cx="268.605" cy="74.0263" r="6.28299" transform="rotate(-42 268.605 74.0263)" fill="black"/>
<circle cx="238.277" cy="108.73" r="6.28299" transform="rotate(-57 238.277 108.73)" fill="black"/>
<circle cx="218.8" cy="150.5" r="6.28299" transform="rotate(-72 218.8 150.5)" fill="black"/>
<circle cx="211.515" cy="196.555" r="6.28299" transform="rotate(-87 211.515 196.555)" fill="black"/>
<circle cx="216.892" cy="243.63" r="6.28299" transform="rotate(-102 216.892 243.63)" fill="black"/>
<circle cx="230.395" cy="285.861" r="6.28299" transform="rotate(-117 230.395 285.861)" fill="black"/>
<circle cx="255.286" cy="323.087" r="6.28299" transform="rotate(-132 255.286 323.087)" fill="black"/>
<circle cx="289.868" cy="352.769" r="6.28299" transform="rotate(-147 289.868 352.769)" fill="black"/>
<circle cx="331.785" cy="372.885" r="6.28299" transform="rotate(-162 331.785 372.885)" fill="black"/>
<circle cx="378.18" cy="382.065" r="6.28299" transform="rotate(-177 378.18 382.065)" fill="black"/>
<circle cx="425.892" cy="379.684" r="6.28299" transform="rotate(168 425.892 379.684)" fill="black"/>
<circle cx="467.486" cy="363.186" r="6.28299" transform="rotate(153 467.486 363.186)" fill="black"/>
<circle cx="504.311" cy="336.413" r="6.28299" transform="rotate(138 504.311 336.413)" fill="black"/>
<circle cx="533.857" cy="301.188" r="6.28299" transform="rotate(123 533.857 301.188)" fill="black"/>
<circle cx="554.11" cy="259.914" r="6.28299" transform="rotate(108 554.11 259.914)" fill="black"/>
<circle cx="563.691" cy="215.401" r="6.28299" transform="rotate(93 563.691 215.401)" fill="black"/>
<circle cx="561.945" cy="170.684" r="6.28299" transform="rotate(78 561.945 170.684)" fill="black"/>
<circle cx="544.811" cy="126.095" r="6.28299" transform="rotate(63 544.811 126.095)" fill="black"/>
<circle cx="517.638" cy="87.3872" r="6.28299" transform="rotate(48 517.638 87.3872)" fill="black"/>
<circle cx="482.277" cy="57.1991" r="6.28299" transform="rotate(33 482.277 57.1991)" fill="black"/>
<circle cx="441.139" cy="37.5879" r="6.28299" transform="rotate(18 441.139 37.5879)" fill="black"/>
<circle cx="397.026" cy="29.8901" r="6.28299" transform="rotate(3 397.026 29.8901)" fill="black"/>
<circle cx="352.946" cy="34.6306" r="6.28299" transform="rotate(-12 352.946 34.6306)" fill="black"/>
<circle cx="288.013" cy="10.8046" r="5.8903" transform="rotate(-27 288.013 10.8046)" fill="black"/>
<circle cx="248.343" cy="35.1447" r="5.8903" transform="rotate(-39 248.343 35.1447)" fill="black"/>
<circle cx="215.191" cy="67.232" r="5.8903" transform="rotate(-51 215.191 67.232)" fill="black"/>
<circle cx="190.007" cy="105.664" r="5.8903" transform="rotate(-63 190.007 105.664)" fill="black"/>
<circle cx="173.891" cy="148.76" r="5.8903" transform="rotate(-75 173.891 148.76)" fill="black"/>
<circle cx="167.548" cy="194.639" r="5.8903" transform="rotate(-87 167.548 194.639)" fill="black"/>
<circle cx="171.255" cy="241.294" r="5.8903" transform="rotate(-99 171.255 241.294)" fill="black"/>
<circle cx="183.153" cy="285.667" r="5.8903" transform="rotate(-111 183.153 285.667)" fill="black"/>
<circle cx="202.583" cy="325.855" r="5.8903" transform="rotate(-123 202.583 325.855)" fill="black"/>
<circle cx="230.578" cy="361.072" r="5.8903" transform="rotate(-135 230.578 361.072)" fill="black"/>
<circle cx="265.869" cy="389.792" r="5.8903" transform="rotate(-147 265.869 389.792)" fill="black"/>
<circle cx="306.912" cy="410.759" r="5.8903" transform="rotate(-159 306.912 410.759)" fill="black"/>
<circle cx="351.915" cy="423.058" r="5.8903" transform="rotate(-171 351.915 423.058)" fill="black"/>
<circle cx="398.91" cy="426.149" r="5.8903" transform="rotate(177 398.91 426.149)" fill="black"/>
<circle cx="445.843" cy="419.899" r="5.8903" transform="rotate(165 445.843 419.899)" fill="black"/>
<circle cx="487.194" cy="402.577" r="5.8903" transform="rotate(153 487.194 402.577)" fill="black"/>
<circle cx="524.625" cy="376.944" r="5.8903" transform="rotate(141 524.625 376.944)" fill="black"/>
<circle cx="556.5" cy="344.12" r="5.8903" transform="rotate(129 556.5 344.12)" fill="black"/>
<circle cx="581.426" cy="305.539" r="5.8903" transform="rotate(117 581.426 305.539)" fill="black"/>
<circle cx="598.313" cy="262.887" r="5.8903" transform="rotate(105 598.313 262.887)" fill="black"/>
<circle cx="606.424" cy="218.03" r="5.8903" transform="rotate(93 606.424 218.03)" fill="black"/>
<circle cx="605.403" cy="172.926" r="5.8903" transform="rotate(81 605.403 172.926)" fill="black"/>
<circle cx="593.553" cy="128.541" r="5.8903" transform="rotate(69 593.553 128.541)" fill="black"/>
<circle cx="571.39" cy="86.8141" r="5.8903" transform="rotate(57 571.39 86.8141)" fill="black"/>
<circle cx="541.626" cy="50.5757" r="5.8903" transform="rotate(45 541.626 50.5757)" fill="black"/>
<circle cx="505.564" cy="21.4106" r="5.8903" transform="rotate(33 505.564 21.4106)" fill="black"/>
<circle cx="464.778" cy="0.59263" r="5.8903" transform="rotate(21 464.778 0.59263)" fill="black"/>
<circle cx="332.469" cy="-4.72458" r="5.8903" transform="rotate(-15 332.469 -4.72458)" fill="black"/>
<circle cx="224.634" cy="-0.694092" r="5.49761" transform="rotate(-38 224.634 -0.694092)" fill="black"/>
<circle cx="190.339" cy="30.1969" r="5.49761" transform="rotate(-48 190.339 30.1969)" fill="black"/>
<circle cx="162.338" cy="66.6241" r="5.49761" transform="rotate(-58 162.338 66.6241)" fill="black"/>
<circle cx="141.483" cy="107.48" r="5.49761" transform="rotate(-68 141.483 107.48)" fill="black"/>
<circle cx="128.406" cy="151.525" r="5.49761" transform="rotate(-78 128.406 151.525)" fill="black"/>
<circle cx="123.506" cy="197.42" r="5.49761" transform="rotate(-88 123.506 197.42)" fill="black"/>
<circle cx="126.804" cy="243.38" r="5.49761" transform="rotate(-98 126.804 243.38)" fill="black"/>
<circle cx="138.447" cy="288.77" r="5.49761" transform="rotate(-108 138.447 288.77)" fill="black"/>
<circle cx="154.891" cy="330.276" r="5.49761" transform="rotate(-118 154.891 330.276)" fill="black"/>
<circle cx="178.706" cy="368.199" r="5.49761" transform="rotate(-128 178.706 368.199)" fill="black"/>
<circle cx="209.168" cy="401.389" r="5.49761" transform="rotate(-138 209.168 401.389)" fill="black"/>
<circle cx="547.734" cy="414.075" r="5.49761" transform="rotate(142 547.734 414.075)" fill="black"/>
<circle cx="580.558" cy="382.495" r="5.49761" transform="rotate(132 580.558 382.495)" fill="black"/>
<circle cx="607.82" cy="345.739" r="5.49761" transform="rotate(122 607.82 345.739)" fill="black"/>
<circle cx="628.691" cy="304.931" r="5.49761" transform="rotate(112 628.691 304.931)" fill="black"/>
<circle cx="642.538" cy="261.312" r="5.49761" transform="rotate(102 642.538 261.312)" fill="black"/>
<circle cx="648.939" cy="216.206" r="5.49761" transform="rotate(92 648.939 216.206)" fill="black"/>
<circle cx="647.701" cy="170.986" r="5.49761" transform="rotate(82 647.701 170.986)" fill="black"/>
<circle cx="638.859" cy="127.023" r="5.49761" transform="rotate(72 638.859 127.023)" fill="black"/>
<circle cx="619.613" cy="84.0904" r="5.49761" transform="rotate(62 619.613 84.0904)" fill="black"/>
<circle cx="593.618" cy="45.0555" r="5.49761" transform="rotate(52 593.618 45.0555)" fill="black"/>
<circle cx="561.664" cy="11.1057" r="5.49761" transform="rotate(42 561.664 11.1057)" fill="black"/>
<circle cx="162.654" cy="-3.33218" r="5.10493" transform="rotate(-46.7143 162.654 -3.33218)" fill="black"/>
<circle cx="133.296" cy="31.9939" r="5.10493" transform="rotate(-55.2857 133.296 31.9939)" fill="black"/>
<circle cx="109.421" cy="70.2626" r="5.10493" transform="rotate(-63.8571 109.421 70.2626)" fill="black"/>
<circle cx="92.3278" cy="112.607" r="5.10493" transform="rotate(-72.4286 92.3278 112.607)" fill="black"/>
<circle cx="82.0512" cy="157.18" r="5.10493" transform="rotate(-81 82.0512 157.18)" fill="black"/>
<circle cx="78.8214" cy="202.987" r="5.10493" transform="rotate(-89.5714 78.8214 202.987)" fill="black"/>
<circle cx="82.71" cy="249.005" r="5.10493" transform="rotate(-98.1429 82.71 249.005)" fill="black"/>
<circle cx="93.6306" cy="294.205" r="5.10493" transform="rotate(-106.714 93.6306 294.205)" fill="black"/>
<circle cx="109.994" cy="336.833" r="5.10493" transform="rotate(-115.286 109.994 336.833)" fill="black"/>
<circle cx="130.912" cy="376.138" r="5.10493" transform="rotate(-123.857 130.912 376.138)" fill="black"/>
<circle cx="157.96" cy="411.718" r="5.10493" transform="rotate(-132.429 157.96 411.718)" fill="black"/>
<circle cx="605.443" cy="416.738" r="5.10493" transform="rotate(133.286 605.443 416.738)" fill="black"/>
<circle cx="633.768" cy="381.124" r="5.10493" transform="rotate(124.714 633.768 381.124)" fill="black"/>
<circle cx="656.815" cy="341.741" r="5.10493" transform="rotate(116.143 656.815 341.741)" fill="black"/>
<circle cx="674.069" cy="299.468" r="5.10493" transform="rotate(107.571 674.069 299.468)" fill="black"/>
<circle cx="685.145" cy="255.25" r="5.10493" transform="rotate(99 685.145 255.25)" fill="black"/>
<circle cx="689.796" cy="210.076" r="5.10493" transform="rotate(90.4286 689.796 210.076)" fill="black"/>
<circle cx="687.917" cy="164.953" r="5.10493" transform="rotate(81.8571 687.917 164.953)" fill="black"/>
<circle cx="679.55" cy="120.89" r="5.10493" transform="rotate(73.2857 679.55 120.89)" fill="black"/>
<circle cx="663.362" cy="78.1947" r="5.10493" transform="rotate(64.7143 663.362 78.1947)" fill="black"/>
<circle cx="639.715" cy="37.8202" r="5.10493" transform="rotate(56.1429 639.715 37.8202)" fill="black"/>
<circle cx="610.657" cy="1.34549" r="5.10493" transform="rotate(47.5714 610.657 1.34549)" fill="black"/>
<circle cx="101.747" cy="0.824934" r="4.71224" transform="rotate(-54 101.747 0.824934)" fill="black"/>
<circle cx="76.8764" cy="39.1883" r="4.71224" transform="rotate(-61.5 76.8764 39.1883)" fill="black"/>
<circle cx="57.4915" cy="80.5146" r="4.71224" transform="rotate(-69 57.4915 80.5146)" fill="black"/>
<circle cx="43.9243" cy="124.098" r="4.71224" transform="rotate(-76.5 43.9243 124.098)" fill="black"/>
<circle cx="36.4067" cy="169.192" r="4.71224" transform="rotate(-84 36.4067 169.192)" fill="black"/>
<circle cx="35.0675" cy="215.026" r="4.71224" transform="rotate(-91.5 35.0675 215.026)" fill="black"/>
<circle cx="39.9296" cy="260.814" r="4.71224" transform="rotate(-99 39.9296 260.814)" fill="black"/>
<circle cx="50.9098" cy="305.775" r="4.71224" transform="rotate(-106.5 50.9098 305.775)" fill="black"/>
<circle cx="67.8203" cy="349.137" r="4.71224" transform="rotate(-114 67.8203 349.137)" fill="black"/>
<circle cx="87.6492" cy="389.116" r="4.71224" transform="rotate(-121.5 87.6492 389.116)" fill="black"/>
<circle cx="112.78" cy="426.07" r="4.71224" transform="rotate(-129 112.78 426.07)" fill="black"/>
<circle cx="665.709" cy="413.186" r="4.71224" transform="rotate(126 665.709 413.186)" fill="black"/>
<circle cx="689.829" cy="374.486" r="4.71224" transform="rotate(118.5 689.829 374.486)" fill="black"/>
<circle cx="708.948" cy="333.014" r="4.71224" transform="rotate(111 708.948 333.014)" fill="black"/>
<circle cx="722.737" cy="289.476" r="4.71224" transform="rotate(103.5 722.737 289.476)" fill="black"/>
<circle cx="730.962" cy="244.621" r="4.71224" transform="rotate(96 730.962 244.621)" fill="black"/>
<circle cx="733.48" cy="199.214" r="4.71224" transform="rotate(88.5 733.48 199.214)" fill="black"/>
<circle cx="730.25" cy="154.033" r="4.71224" transform="rotate(81 730.25 154.033)" fill="black"/>
<circle cx="721.327" cy="109.851" r="4.71224" transform="rotate(73.5 721.327 109.851)" fill="black"/>
<circle cx="706.862" cy="67.4234" r="4.71224" transform="rotate(66 706.862 67.4234)" fill="black"/>
<circle cx="684.485" cy="26.4707" r="4.71224" transform="rotate(58.5 684.485 26.4707)" fill="black"/>
<circle cx="42.5987" cy="12.4506" r="4.31955" transform="rotate(-60.3333 42.5987 12.4506)" fill="black"/>
<circle cx="21.9845" cy="53.2084" r="4.31955" transform="rotate(-67 21.9845 53.2084)" fill="black"/>
<circle cx="6.44868" cy="96.1184" r="4.31955" transform="rotate(-73.6667 6.44868 96.1184)" fill="black"/>
<circle cx="-3.79893" cy="140.601" r="4.31955" transform="rotate(-80.3333 -3.79893 140.601)" fill="black"/>
<circle cx="-1.794" cy="277.412" r="4.31955" transform="rotate(-100.333 -1.794 277.412)" fill="black"/>
<circle cx="9.76029" cy="322.08" r="4.31955" transform="rotate(-107 9.76029 322.08)" fill="black"/>
<circle cx="26.5578" cy="365.264" r="4.31955" transform="rotate(-113.667 26.5578 365.264)" fill="black"/>
<circle cx="47.2751" cy="405.925" r="4.31955" transform="rotate(-120.333 47.2751 405.925)" fill="black"/>
<circle cx="723.403" cy="402.935" r="4.31955" transform="rotate(119.667 723.403 402.935)" fill="black"/>
<circle cx="743.518" cy="362.016" r="4.31955" transform="rotate(113 743.518 362.016)" fill="black"/>
<circle cx="758.954" cy="319.073" r="4.31955" transform="rotate(106.333 758.954 319.073)" fill="black"/>
<circle cx="769.501" cy="274.688" r="4.31955" transform="rotate(99.6667 769.501 274.688)" fill="black"/>
<circle cx="775.018" cy="229.46" r="4.31955" transform="rotate(93 775.018 229.46)" fill="black"/>
<circle cx="775.43" cy="184.002" r="4.31955" transform="rotate(86.3333 775.43 184.002)" fill="black"/>
<circle cx="770.731" cy="138.927" r="4.31955" transform="rotate(79.6667 770.731 138.927)" fill="black"/>
<circle cx="760.984" cy="94.8468" r="4.31955" transform="rotate(73 760.984 94.8468)" fill="black"/>
<circle cx="746.322" cy="52.3562" r="4.31955" transform="rotate(66.3333 746.322 52.3562)" fill="black"/>
<circle cx="725.725" cy="11.6341" r="4.31955" transform="rotate(59.6667 725.725 11.6341)" fill="black"/>
</g>
<defs>
<clipPath id="clip0_36_11784">
<rect width="775" height="421" rx="20" fill="white"/>
</clipPath>
</defs>
</svg>
