<svg width="338" height="46" viewBox="0 0 338 46" fill="none" xmlns="http://www.w3.org/2000/svg">
<path d="M312.039 41.7759V4.27539H332V6.63844H314.598V21.0736H330.209V23.3853H314.598V39.4129H332V41.7759H312.039Z" fill="#09090B"/>
<path d="M280.839 41.7759V4.27539H289.028C291.348 4.27539 293.361 4.75485 295.067 5.71377C296.807 6.63844 298.155 7.95695 299.11 9.66931C300.066 11.3474 300.543 13.3166 300.543 15.5769V30.4744C300.543 32.7347 300.066 34.721 299.11 36.4334C298.155 38.1115 296.807 39.43 295.067 40.3889C293.361 41.3136 291.348 41.7759 289.028 41.7759H280.839ZM283.398 39.4129H289.028C291.723 39.4129 293.89 38.6081 295.528 36.9985C297.165 35.3546 297.984 33.1799 297.984 30.4744V15.5769C297.984 12.9057 297.148 10.7481 295.476 9.10423C293.839 7.46037 291.689 6.63844 289.028 6.63844H283.398V39.4129Z" fill="#09090B"/>
<path d="M248 41.7759L258.288 4.27539H261.461L271.748 41.7759H269.087L266.221 30.9881H253.426L250.559 41.7759H248ZM254.04 28.6764H265.607L261.563 13.5221C261.086 11.6728 260.693 10.1316 260.386 8.89875C260.113 7.6316 259.943 6.80967 259.874 6.43296C259.806 6.80967 259.618 7.6316 259.311 8.89875C259.004 10.1316 258.612 11.6728 258.134 13.5221L254.04 28.6764Z" fill="#09090B"/>
<path d="M219.461 41.7759V4.27539H229.953C232.171 4.27539 234.082 4.70348 235.686 5.55965C237.289 6.38158 238.518 7.58023 239.371 9.1556C240.258 10.6967 240.701 12.5289 240.701 14.6523C240.701 17.3578 239.934 19.6181 238.398 21.4332C236.897 23.2483 234.833 24.3442 232.205 24.7209L240.957 41.7759H237.886L229.441 24.8236H222.02V41.7759H219.461ZM222.02 22.512H229.953C232.444 22.512 234.423 21.7928 235.89 20.3544C237.392 18.8818 238.142 16.9468 238.142 14.5495C238.142 12.118 237.392 10.2001 235.89 8.796C234.423 7.35763 232.444 6.63844 229.953 6.63844H222.02V22.512Z" fill="#09090B"/>
<path d="M198.804 42.2897C196.723 42.2897 194.914 41.8616 193.379 41.0054C191.843 40.1492 190.649 38.9506 189.796 37.4095C188.943 35.8683 188.516 34.0704 188.516 32.0156V14.0358C188.516 11.9468 188.943 10.1317 189.796 8.59055C190.649 7.04944 191.843 5.86791 193.379 5.04598C194.914 4.18981 196.723 3.76172 198.804 3.76172C200.919 3.76172 202.762 4.20693 204.331 5.09735C205.901 5.98778 207.112 7.2378 207.965 8.84741C208.818 10.457 209.245 12.3577 209.245 14.5495H206.686C206.686 11.9125 205.969 9.84057 204.536 8.3337C203.137 6.82683 201.226 6.07339 198.804 6.07339C196.415 6.07339 194.522 6.79258 193.123 8.23096C191.758 9.63509 191.075 11.57 191.075 14.0358V32.0156C191.075 34.4813 191.758 36.4334 193.123 37.8718C194.522 39.2759 196.415 39.978 198.804 39.978C201.261 39.978 203.188 39.2246 204.587 37.7177C205.986 36.1766 206.686 34.1046 206.686 31.5018V25.8511H197.831V23.488H209.245V31.5018C209.245 33.6937 208.818 35.5944 207.965 37.204C207.112 38.8136 205.901 40.0636 204.331 40.954C202.762 41.8445 200.919 42.2897 198.804 42.2897Z" fill="#09090B"/>
<path d="M158.595 41.7759V4.27539H161.154V39.4129H179.324V41.7759H158.595Z" fill="#09090B"/>
<path d="M127.906 41.7759V4.27539H147.867V6.63844H130.466V21.0736H146.076V23.3853H130.466V39.4129H147.867V41.7759H127.906Z" fill="#09090B"/>
<path d="M96.7059 41.7759V4.27539H106.328C109.433 4.27539 111.907 5.14869 113.749 6.89529C115.626 8.64189 116.564 10.9878 116.564 13.9331C116.564 15.6797 116.223 17.2208 115.541 18.5564C114.892 19.8921 113.971 20.9366 112.777 21.69C111.583 22.4092 110.15 22.7688 108.478 22.7688V22.2551C110.32 22.2551 111.907 22.6318 113.237 23.3853C114.602 24.1387 115.643 25.2175 116.36 26.6216C117.11 27.9915 117.485 29.6182 117.485 31.5018C117.485 33.5909 117.042 35.406 116.155 36.9471C115.268 38.4882 113.988 39.6869 112.316 40.543C110.678 41.365 108.733 41.7759 106.482 41.7759H96.7059ZM99.2649 39.4129H106.482C109.109 39.4129 111.173 38.7108 112.674 37.3067C114.176 35.9026 114.926 33.9847 114.926 31.5532C114.926 29.1216 114.176 27.2038 112.674 25.7997C111.173 24.3613 109.109 23.6421 106.482 23.6421H99.2649V39.4129ZM99.2649 21.3304H106.328C108.751 21.3304 110.627 20.6797 111.958 19.3783C113.323 18.077 114.005 16.279 114.005 13.9844C114.005 11.6899 113.323 9.89191 111.958 8.59052C110.593 7.28913 108.716 6.63844 106.328 6.63844H99.2649V21.3304Z" fill="#09090B"/>
<path d="M75.7415 20.714C74.479 20.714 73.4554 20.3715 72.6706 19.6866C71.8859 18.9674 71.4935 18.0256 71.4935 16.8612C71.4935 15.6968 71.8859 14.7721 72.6706 14.0872C73.4554 13.368 74.479 13.0084 75.7415 13.0084C77.0381 13.0084 78.0617 13.368 78.8124 14.0872C79.5972 14.7721 79.9896 15.6968 79.9896 16.8612C79.9896 18.0256 79.5972 18.9674 78.8124 19.6866C78.0617 20.3715 77.0381 20.714 75.7415 20.714ZM75.7415 42.2897C74.479 42.2897 73.4554 41.9472 72.6706 41.2623C71.8859 40.5431 71.4935 39.6013 71.4935 38.4369C71.4935 37.2725 71.8859 36.3478 72.6706 35.6629C73.4554 34.9437 74.479 34.5841 75.7415 34.5841C77.0381 34.5841 78.0617 34.9437 78.8124 35.6629C79.5972 36.3478 79.9896 37.2725 79.9896 38.4369C79.9896 39.6013 79.5972 40.5431 78.8124 41.2623C78.0617 41.9472 77.0381 42.2897 75.7415 42.2897Z" fill="#09090B"/>
<path d="M45.2575 42.2897C42.8008 42.2897 40.6853 41.8787 38.911 41.0568C37.1708 40.2348 35.8231 39.0533 34.8677 37.5122C33.9123 35.9711 33.4175 34.1389 33.3834 32.0155H37.9897C37.9897 33.8991 38.621 35.3889 39.8835 36.4848C41.18 37.5807 42.9714 38.1286 45.2575 38.1286C47.4071 38.1286 49.079 37.5978 50.2733 36.5361C51.5016 35.4745 52.1158 34.0019 52.1158 32.1183C52.1158 30.6114 51.7063 29.2929 50.8874 28.1627C50.1027 27.0326 48.9596 26.2449 47.4583 25.7997L42.3913 24.2072C39.8323 23.4195 37.8533 22.101 36.4543 20.2517C35.0895 18.4023 34.407 16.2276 34.407 13.7276C34.407 11.707 34.8506 9.96042 35.7378 8.4878C36.659 6.98092 37.9386 5.81652 39.5764 4.99459C41.2142 4.13842 43.142 3.71033 45.3599 3.71033C48.6355 3.71033 51.2628 4.635 53.2418 6.48434C55.2208 8.29944 56.2274 10.731 56.2615 13.779H51.6552C51.6552 11.9296 51.0922 10.4912 49.9662 9.46384C48.8743 8.40218 47.3218 7.87135 45.3087 7.87135C43.3297 7.87135 41.7772 8.35081 40.6512 9.30972C39.5593 10.2686 39.0134 11.6043 39.0134 13.3166C39.0134 14.8578 39.4228 16.1934 40.2417 17.3235C41.0606 18.4537 42.2378 19.2585 43.7732 19.738L48.8914 21.3818C51.3822 22.1695 53.31 23.5051 54.6749 25.3887C56.0397 27.2723 56.7221 29.4813 56.7221 32.0155C56.7221 34.0704 56.2444 35.8683 55.289 37.4094C54.3336 38.9506 52.9859 40.1492 51.2457 41.0054C49.5397 41.8616 47.5436 42.2897 45.2575 42.2897Z" fill="#09090B"/>
<path d="M14.3639 42.2896C12.112 42.2896 10.1671 41.8615 8.52926 41.0053C6.92558 40.1491 5.68017 38.9162 4.79302 37.3066C3.94 35.6627 3.51349 33.7278 3.51349 31.5017V14.5494C3.51349 12.2891 3.94 10.3542 4.79302 8.74455C5.68017 7.13493 6.92558 5.90204 8.52926 5.04586C10.1671 4.18968 12.112 3.7616 14.3639 3.7616C16.6159 3.7616 18.5437 4.18968 20.1474 5.04586C21.7852 5.90204 23.0306 7.13493 23.8837 8.74455C24.7708 10.3542 25.2144 12.272 25.2144 14.4981V31.5017C25.2144 33.7278 24.7708 35.6627 23.8837 37.3066C23.0306 38.9162 21.7852 40.1491 20.1474 41.0053C18.5437 41.8615 16.6159 42.2896 14.3639 42.2896ZM14.3639 38.1285C16.3771 38.1285 17.9125 37.5635 18.9703 36.4333C20.0621 35.2689 20.6081 33.625 20.6081 31.5017V14.5494C20.6081 12.4261 20.0621 10.7994 18.9703 9.66922C17.9125 8.50482 16.3771 7.92261 14.3639 7.92261C12.3849 7.92261 10.8495 8.50482 9.75761 9.66922C8.66575 10.7994 8.11981 12.4261 8.11981 14.5494V31.5017C8.11981 33.625 8.66575 35.2689 9.75761 36.4333C10.8495 37.5635 12.3849 38.1285 14.3639 38.1285Z" fill="#09090B"/>
</svg>
