<svg width="775" height="421" viewBox="0 0 775 421" fill="none" xmlns="http://www.w3.org/2000/svg">
<g clip-path="url(#clip0_28_19695)">
<g clip-path="url(#clip1_28_19695)">
<path d="M781.397 243.355C793.563 243.355 803.426 233.502 803.426 221.347C803.426 209.192 793.563 199.339 781.397 199.339C769.231 199.339 759.368 209.192 759.368 221.347C759.368 233.502 769.231 243.355 781.397 243.355Z" fill="black"/>
<path d="M725.623 396.312C725.623 408.517 735.536 418.32 747.652 418.32C759.868 418.32 769.681 408.417 769.681 396.312C769.681 384.108 759.768 374.304 747.652 374.304C735.436 374.304 725.623 384.208 725.623 396.312Z" fill="black"/>
<path d="M723.12 271.466C723.12 279.569 729.728 286.171 737.839 286.171C745.95 286.171 752.559 279.569 752.559 271.466C752.559 263.363 745.95 256.76 737.839 256.76C729.728 256.76 723.12 263.363 723.12 271.466Z" fill="black"/>
<path d="M627.592 207.742C627.592 215.845 634.201 222.447 642.312 222.447C650.423 222.447 657.031 215.845 657.031 207.742C657.031 199.639 650.423 193.036 642.312 193.036C634.201 193.036 627.592 199.639 627.592 207.742Z" fill="#C0343B"/>
<path d="M642.212 153.922C642.212 162.025 648.821 168.627 656.932 168.627C665.042 168.627 671.651 162.025 671.651 153.922C671.651 145.819 665.042 139.216 656.932 139.216C648.821 139.216 642.212 145.719 642.212 153.922Z" fill="black"/>
<path d="M666.745 278.768C666.745 284.17 671.15 288.572 676.558 288.572C681.965 288.572 686.371 284.17 686.371 278.768C686.371 273.366 681.965 268.965 676.558 268.965C671.15 268.965 666.745 273.366 666.745 278.768Z" fill="black"/>
<path d="M686.371 376.805C691.79 376.805 696.184 372.416 696.184 367.001C696.184 361.587 691.79 357.198 686.371 357.198C680.951 357.198 676.558 361.587 676.558 367.001C676.558 372.416 680.951 376.805 686.371 376.805Z" fill="#C0343B"/>
<path d="M752.559 131.814C757.978 131.814 762.372 127.424 762.372 122.01C762.372 116.595 757.978 112.206 752.559 112.206C747.139 112.206 742.746 116.595 742.746 122.01C742.746 127.424 747.139 131.814 752.559 131.814Z" fill="black"/>
<path d="M686.371 197.938C691.79 197.938 696.184 193.549 696.184 188.135C696.184 182.72 691.79 178.331 686.371 178.331C680.951 178.331 676.558 182.72 676.558 188.135C676.558 193.549 680.951 197.938 686.371 197.938Z" fill="black"/>
<path d="M708.4 180.832C708.4 193.036 718.313 202.84 730.429 202.84C742.646 202.84 752.459 192.936 752.459 180.832C752.459 168.627 742.545 158.824 730.429 158.824C718.313 158.824 708.4 168.627 708.4 180.832Z" fill="#C0343B"/>
<path d="M693.78 325.286C693.78 337.49 703.693 347.294 715.81 347.294C728.026 347.294 737.839 337.39 737.839 325.286C737.839 313.081 727.926 303.277 715.81 303.277C703.593 303.277 693.78 313.181 693.78 325.286Z" fill="#C0343B"/>
<path d="M672.252 230.95C672.252 239.053 678.861 245.656 686.972 245.656C695.082 245.656 701.691 239.053 701.691 230.95C701.691 222.847 695.082 216.245 686.972 216.245C678.861 216.245 672.252 222.747 672.252 230.95Z" fill="black"/>
<path d="M622.686 281.269C622.686 289.372 629.294 295.975 637.405 295.975C645.516 295.975 652.125 289.372 652.125 281.269C652.125 273.166 645.516 266.564 637.405 266.564C629.294 266.564 622.686 273.166 622.686 281.269Z" fill="black"/>
<path d="M683.967 136.715C683.967 144.818 690.576 151.421 698.687 151.421C706.798 151.421 713.406 144.818 713.406 136.715C713.406 128.612 706.798 122.01 698.687 122.01C690.476 122.01 683.967 128.612 683.967 136.715Z" fill="black"/>
<path d="M752.559 317.983C752.559 326.086 759.167 332.688 767.278 332.688C775.389 332.688 781.998 326.086 781.998 317.983C781.998 309.88 775.389 303.277 767.278 303.277C759.167 303.277 752.559 309.88 752.559 317.983Z" fill="black"/>
<path d="M736.037 240.754C741.456 240.754 745.85 236.365 745.85 230.95C745.85 225.536 741.456 221.147 736.037 221.147C730.617 221.147 726.224 225.536 726.224 230.95C726.224 236.365 730.617 240.754 736.037 240.754Z" fill="black"/>
<path d="M610.369 146.519C615.789 146.519 620.182 142.13 620.182 136.715C620.182 131.301 615.789 126.912 610.369 126.912C604.95 126.912 600.556 131.301 600.556 136.715C600.556 142.13 604.95 146.519 610.369 146.519Z" fill="black"/>
<path d="M777.091 178.331C782.511 178.331 786.904 173.942 786.904 168.527C786.904 163.113 782.511 158.724 777.091 158.724C771.672 158.724 767.278 163.113 767.278 168.527C767.278 173.942 771.672 178.331 777.091 178.331Z" fill="black"/>
<path d="M718.213 75.4926C718.213 80.8946 722.619 85.2962 728.026 85.2962C733.433 85.2962 737.839 80.8946 737.839 75.4926C737.839 70.0905 733.433 65.6889 728.026 65.6889C722.619 65.6889 718.213 70.0905 718.213 75.4926Z" fill="black"/>
<path d="M603.06 249.357C608.479 249.357 612.873 244.968 612.873 239.554C612.873 234.139 608.479 229.75 603.06 229.75C597.64 229.75 593.247 234.139 593.247 239.554C593.247 244.968 597.64 249.357 603.06 249.357Z" fill="black"/>
<path d="M654.528 339.991C659.948 339.991 664.341 335.602 664.341 330.187C664.341 324.773 659.948 320.384 654.528 320.384C649.108 320.384 644.715 324.773 644.715 330.187C644.715 335.602 649.108 339.991 654.528 339.991Z" fill="black"/>
<path d="M655.129 73.1917C655.129 85.3962 665.042 95.1998 677.158 95.1998C689.375 95.1998 699.188 85.2962 699.188 73.1917C699.188 61.0871 689.274 51.1834 677.158 51.1834C665.042 51.1834 655.129 60.9871 655.129 73.1917Z" fill="black"/>
<path d="M733.634 -5.13752C733.634 2.9655 740.243 9.56797 748.353 9.56797C756.464 9.56797 763.073 2.9655 763.073 -5.13752C763.073 -13.2405 756.464 -19.843 748.353 -19.843C740.243 -19.843 733.634 -13.3406 733.634 -5.13752Z" fill="black"/>
<path d="M615.877 53.5844C621.297 53.5844 625.69 49.1951 625.69 43.7807C625.69 38.3663 621.297 33.9771 615.877 33.9771C610.457 33.9771 606.064 38.3663 606.064 43.7807C606.064 49.1951 610.457 53.5844 615.877 53.5844Z" fill="black"/>
<path d="M623.287 2.16519C623.287 14.3697 633.2 24.1734 645.316 24.1734C657.532 24.1734 667.345 14.2697 667.345 2.16519C667.345 -10.0394 657.432 -19.843 645.316 -19.843C633.2 -19.843 623.287 -10.0394 623.287 2.16519Z" fill="black"/>
<path d="M682.065 -5.13752C682.065 2.9655 688.674 9.56797 696.785 9.56797C704.895 9.56797 711.504 2.9655 711.504 -5.13752C711.504 -13.2405 704.895 -19.843 696.785 -19.843C688.674 -19.843 682.065 -13.3406 682.065 -5.13752Z" fill="black"/>
<path d="M755.663 68.2899C755.663 73.6919 760.069 78.0935 765.476 78.0935C770.883 78.0935 775.289 73.6919 775.289 68.2899C775.289 62.8878 770.883 58.4862 765.476 58.4862C760.069 58.4862 755.663 62.8878 755.663 68.2899Z" fill="black"/>
<path d="M726.224 36.478C726.224 41.88 730.63 46.2816 736.037 46.2816C741.444 46.2816 745.85 41.88 745.85 36.478C745.85 31.076 741.444 26.6743 736.037 26.6743C730.63 26.6743 726.224 31.076 726.224 36.478Z" fill="black"/>
<path d="M574.221 7.06702C574.221 12.469 578.627 16.8707 584.034 16.8707C589.441 16.8707 593.847 12.469 593.847 7.06702C593.847 1.665 589.441 -2.73663 584.034 -2.73663C578.627 -2.73663 574.221 1.665 574.221 7.06702Z" fill="black"/>
<path d="M439.242 425.523C451.358 426.723 462.173 417.82 463.274 405.716C464.476 393.611 455.564 382.807 443.448 381.707C431.332 380.506 420.517 389.41 419.416 401.514C418.214 413.619 427.126 424.423 439.242 425.523Z" fill="#C0343B"/>
<path d="M360.437 373.804C372.553 375.004 383.367 366.101 384.469 353.996C385.67 341.892 376.759 331.088 364.643 329.987C352.526 328.787 341.712 337.69 340.611 349.795C339.409 361.899 348.321 372.603 360.437 373.804Z" fill="black"/>
<path d="M553.695 295.575C561.805 296.375 568.915 290.373 569.716 282.37C570.517 274.267 564.509 267.164 556.498 266.364C548.387 265.563 541.278 271.566 540.477 279.569C539.676 287.672 545.684 294.774 553.695 295.575Z" fill="#C0343B"/>
<path d="M539.776 390.21C547.886 391.01 554.996 385.008 555.797 377.005C556.598 368.902 550.59 361.799 542.579 360.999C534.469 360.199 527.359 366.201 526.558 374.204C525.757 382.307 531.665 389.41 539.776 390.21Z" fill="black"/>
<path d="M435.537 321.284C443.648 322.084 450.757 316.082 451.558 308.079C452.359 299.976 446.351 292.874 438.341 292.073C430.23 291.273 423.12 297.275 422.319 305.278C421.518 313.281 427.426 320.484 435.537 321.284Z" fill="black"/>
<path d="M331.499 301.577C339.61 302.377 346.719 296.375 347.52 288.372C348.321 280.269 342.313 273.166 334.303 272.366C326.192 271.566 319.082 277.568 318.281 285.571C317.48 293.574 323.388 300.777 331.499 301.577Z" fill="black"/>
<path d="M312.674 395.712C320.784 396.512 327.894 390.51 328.695 382.507C329.496 374.404 323.488 367.301 315.477 366.501C307.367 365.701 300.257 371.703 299.456 379.706C298.655 387.709 304.663 394.912 312.674 395.712Z" fill="black"/>
<path d="M490.91 412.618C496.318 413.118 501.124 409.217 501.625 403.815C502.125 398.413 498.22 393.611 492.813 393.111C487.406 392.611 482.599 396.512 482.099 401.914C481.498 407.316 485.503 412.118 490.91 412.618Z" fill="black"/>
<path d="M338.708 432.626C344.115 433.126 348.922 429.224 349.422 423.822C349.923 418.42 346.018 413.619 340.611 413.118C335.203 412.618 330.397 416.52 329.896 421.922C329.396 427.324 333.401 432.125 338.708 432.626Z" fill="black"/>
<path d="M478.494 283.57C486.605 284.37 493.715 278.368 494.516 270.365C495.317 262.262 489.309 255.16 481.298 254.359C473.187 253.559 466.078 259.561 465.277 267.564C464.476 275.567 470.484 282.77 478.494 283.57Z" fill="black"/>
<path d="M467.78 371.103C475.891 371.903 483 365.901 483.801 357.898C484.602 349.795 478.594 342.692 470.584 341.892C462.473 341.092 455.364 347.094 454.562 355.097C453.761 363.1 459.669 370.302 467.78 371.103Z" fill="#C0343B"/>
<path d="M410.904 373.003C419.015 373.804 426.124 367.802 426.925 359.799C427.726 351.696 421.718 344.593 413.708 343.793C405.597 342.992 398.488 348.994 397.686 356.997C396.885 365.1 402.793 372.303 410.904 373.003Z" fill="black"/>
<path d="M534.869 441.429C542.98 442.229 550.09 436.227 550.891 428.224C551.692 420.121 545.684 413.018 537.673 412.218C529.562 411.418 522.453 417.42 521.652 425.423C520.851 433.526 526.859 440.629 534.869 441.429Z" fill="black"/>
<path d="M615.076 375.204C620.483 375.704 625.29 371.803 625.79 366.401C626.291 360.999 622.386 356.197 616.979 355.697C611.571 355.197 606.765 359.098 606.264 364.5C605.764 369.902 609.669 374.704 615.076 375.204Z" fill="black"/>
<path d="M580.53 401.514C585.937 402.014 590.743 398.113 591.244 392.711C591.745 387.309 587.84 382.507 582.432 382.007C577.025 381.507 572.219 385.408 571.718 390.81C571.217 396.212 575.223 400.914 580.53 401.514Z" fill="black"/>
<path d="M395.184 305.178C400.591 305.678 405.397 301.777 405.898 296.375C406.398 290.973 402.493 286.171 397.086 285.671C391.679 285.171 386.872 289.072 386.372 294.474C385.871 299.876 389.776 304.578 395.184 305.178Z" fill="black"/>
<path d="M387.473 412.618C392.88 413.118 397.687 409.217 398.187 403.815C398.688 398.413 394.783 393.611 389.376 393.111C383.968 392.611 379.162 396.512 378.661 401.914C378.06 407.316 382.066 412.118 387.473 412.618Z" fill="#C0343B"/>
<path d="M569.115 341.292C574.522 341.792 579.329 337.89 579.829 332.488C580.33 327.086 576.425 322.285 571.018 321.784C565.61 321.284 560.804 325.186 560.303 330.588C559.703 336.09 563.708 340.791 569.115 341.292Z" fill="black"/>
<path d="M513.841 326.286C519.248 326.786 524.055 322.885 524.556 317.483C525.056 312.081 521.151 307.279 515.744 306.779C510.337 306.279 505.53 310.18 505.03 315.582C504.529 320.984 508.434 325.686 513.841 326.286Z" fill="black"/>
<path d="M110.605 465.038C122.721 466.238 133.535 457.335 134.637 445.23C135.838 433.126 126.927 422.322 114.81 421.221C102.694 420.021 91.88 428.924 90.7785 441.029C89.5769 453.133 98.4887 463.837 110.605 465.038Z" fill="black"/>
<path d="M31.7997 413.218C43.9158 414.419 54.7302 405.516 55.8317 393.411C57.0333 381.307 48.1214 370.503 36.0053 369.402C23.8892 368.202 13.0748 377.105 11.9733 389.209C10.7717 401.314 19.6836 412.118 31.7997 413.218Z" fill="black"/>
<path d="M225.057 335.089C233.168 335.89 240.277 329.887 241.078 321.884C241.879 313.781 235.871 306.679 227.861 305.878C219.75 305.078 212.64 311.08 211.839 319.083C211.038 327.086 216.946 334.289 225.057 335.089Z" fill="black"/>
<path d="M211.138 429.725C219.249 430.525 226.359 424.523 227.16 416.52C227.961 408.417 221.953 401.314 213.942 400.514C205.831 399.713 198.722 405.716 197.921 413.719C197.12 421.722 203.028 428.924 211.138 429.725Z" fill="black"/>
<path d="M106.9 360.699C115.01 361.499 122.12 355.497 122.921 347.494C123.722 339.391 117.714 332.288 109.703 331.488C101.693 330.688 94.4832 336.69 93.6821 344.693C92.881 352.796 98.7889 359.999 106.9 360.699Z" fill="black"/>
<path d="M2.86111 340.992C10.9719 341.792 18.0814 335.79 18.8824 327.787C19.6835 319.684 13.6755 312.581 5.66485 311.781C-2.44594 310.98 -9.55541 316.983 -10.3565 324.986C-11.1575 333.089 -5.24968 340.291 2.86111 340.992Z" fill="black"/>
<path d="M-15.9636 435.127C-7.8528 435.927 -0.743334 429.925 0.0577318 421.922C0.858798 413.819 -5.14919 406.716 -13.1599 405.916C-21.2706 405.115 -28.3801 411.118 -29.1812 419.121C-29.9822 427.224 -24.0744 434.426 -15.9636 435.127Z" fill="black"/>
<path d="M149.857 322.985C157.968 323.785 165.077 317.783 165.878 309.78C166.679 301.677 160.671 294.574 152.66 293.774C144.55 292.974 137.44 298.976 136.639 306.979C135.838 315.082 141.746 322.185 149.857 322.985Z" fill="black"/>
<path d="M139.042 410.517C147.153 411.318 154.263 405.316 155.064 397.313C155.865 389.21 149.857 382.107 141.846 381.307C133.735 380.506 126.626 386.508 125.825 394.511C125.024 402.614 130.931 409.817 139.042 410.517Z" fill="black"/>
<path d="M82.2669 412.518C90.3777 413.318 97.4871 407.316 98.2882 399.313C99.0893 391.21 93.0813 384.108 85.0706 383.307C76.9598 382.507 69.8504 388.509 69.0493 396.512C68.2482 404.615 74.1561 411.718 82.2669 412.518Z" fill="black"/>
<path d="M286.439 414.719C291.846 415.219 296.652 411.318 297.153 405.916C297.654 400.514 293.749 395.712 288.341 395.212C282.934 394.711 278.128 398.613 277.627 404.015C277.026 409.417 281.032 414.219 286.439 414.719Z" fill="black"/>
<path d="M251.893 440.929C257.3 441.429 262.106 437.527 262.607 432.125C263.107 426.723 259.202 421.922 253.795 421.421C248.388 420.921 243.581 424.823 243.081 430.225C242.58 435.627 246.485 440.429 251.893 440.929Z" fill="black"/>
<path d="M66.5459 344.593C71.9531 345.093 76.7595 341.192 77.2601 335.79C77.7608 330.388 73.8556 325.586 68.4484 325.086C63.0412 324.585 58.2348 328.487 57.7341 333.889C57.2335 339.291 61.1387 344.093 66.5459 344.593Z" fill="black"/>
<path d="M240.377 380.806C245.785 381.307 250.591 377.405 251.092 372.003C251.592 366.601 247.687 361.799 242.28 361.299C236.873 360.799 232.066 364.7 231.566 370.102C231.065 375.504 234.97 380.306 240.377 380.806Z" fill="black"/>
<path d="M185.204 365.701C190.611 366.201 195.418 362.299 195.918 356.897C196.419 351.495 192.514 346.694 187.106 346.193C181.699 345.693 176.893 349.595 176.392 354.997C175.791 360.399 179.797 365.201 185.204 365.701Z" fill="black"/>
<path d="M40.1107 113.107C52.2269 114.307 63.0412 105.404 64.1427 93.2992C65.3443 81.1947 56.4324 70.3906 44.3163 69.2902C32.2002 68.0898 21.3858 76.9931 20.2843 89.0976C19.0827 101.202 27.9946 112.006 40.1107 113.107Z" fill="#C0343B"/>
<path d="M211.239 163.225C223.355 164.426 234.169 155.522 235.271 143.418C236.472 131.313 227.56 120.509 215.444 119.409C203.328 118.208 192.514 127.112 191.412 139.216C190.211 151.321 199.123 162.125 211.239 163.225Z" fill="black"/>
<path d="M545.884 229.35C558 230.55 568.814 221.647 569.916 209.542C571.117 197.438 562.205 186.634 550.089 185.534C537.973 184.333 527.159 193.236 526.057 205.341C524.856 217.445 533.768 228.249 545.884 229.35Z" fill="black"/>
<path d="M86.5725 153.822C94.6833 154.622 101.793 148.62 102.594 140.617C103.395 132.514 97.3869 125.411 89.3763 124.611C81.2655 123.811 74.156 129.813 73.355 137.816C72.5539 145.919 78.4617 153.121 86.5725 153.822Z" fill="black"/>
<path d="M101.492 301.977C109.603 302.777 116.713 296.775 117.514 288.772C118.315 280.669 112.307 273.566 104.296 272.766C96.1853 271.966 89.0759 277.968 88.2748 285.971C87.4738 294.074 93.4817 301.177 101.492 301.977Z" fill="black"/>
<path d="M287.24 217.445C295.35 218.246 302.46 212.243 303.261 204.241C304.062 196.137 298.054 189.035 290.043 188.235C281.932 187.434 274.823 193.436 274.022 201.439C273.221 209.542 279.129 216.745 287.24 217.445Z" fill="black"/>
<path d="M140.644 77.7934C148.755 78.5937 155.865 72.5915 156.666 64.5885C157.467 56.4855 151.459 49.3828 143.448 48.5825C135.337 47.7822 128.228 53.7844 127.427 61.7874C126.626 69.8904 132.534 76.9931 140.644 77.7934Z" fill="black"/>
<path d="M36.4055 8.86771C44.5163 9.66801 51.6258 3.66577 52.4269 -4.33721C53.2279 -12.4402 47.2199 -19.5429 39.2093 -20.3432C31.0985 -21.1435 23.989 -15.1413 23.188 -7.13828C22.3869 0.864703 28.2948 8.06741 36.4055 8.86771Z" fill="black"/>
<path d="M14.076 242.955C22.1868 243.755 29.2962 237.753 30.0973 229.75C30.8983 221.647 24.8904 214.544 16.8797 213.744C8.7689 212.944 1.65944 218.946 0.858371 226.949C0.0573047 234.952 5.96516 242.155 14.076 242.955Z" fill="black"/>
<path d="M91.6792 100.202C97.0864 100.702 101.893 96.8005 102.393 91.3985C102.894 85.9965 98.9889 81.1947 93.5817 80.6945C88.1745 80.1943 83.3681 84.0957 82.8674 89.4977C82.3668 94.8998 86.272 99.7015 91.6792 100.202Z" fill="black"/>
<path d="M626.892 97.5008C632.299 98.001 637.105 94.0995 637.606 88.6975C638.106 83.2955 634.201 78.4937 628.794 77.9935C623.387 77.4933 618.581 81.3947 618.08 86.7967C617.579 92.1988 621.484 96.9005 626.892 97.5008Z" fill="black"/>
<path d="M256.999 178.631C262.407 179.131 267.213 175.23 267.714 169.828C268.214 164.426 264.309 159.624 258.902 159.124C253.495 158.624 248.688 162.525 248.188 167.927C247.687 173.329 251.592 178.131 256.999 178.631Z" fill="black"/>
<path d="M648.02 405.516C653.427 406.016 658.233 402.114 658.734 396.712C659.234 391.31 655.329 386.508 649.922 386.008C644.515 385.508 639.708 389.41 639.208 394.812C638.707 400.214 642.712 405.015 648.02 405.516Z" fill="black"/>
<path d="M442.146 247.557C447.553 248.057 452.36 244.155 452.86 238.753C453.361 233.351 449.456 228.55 444.048 228.049C438.641 227.549 433.835 231.451 433.334 236.853C432.834 242.255 436.739 246.956 442.146 247.557Z" fill="black"/>
<path d="M604.862 192.936C610.27 193.437 615.076 189.535 615.577 184.133C616.077 178.731 612.172 173.929 606.765 173.429C601.358 172.929 596.551 176.83 596.051 182.232C595.55 187.634 599.455 192.436 604.862 192.936Z" fill="black"/>
<path d="M89.4761 210.643C94.8957 210.643 99.2892 206.254 99.2892 200.839C99.2892 195.425 94.8957 191.036 89.4761 191.036C84.0565 191.036 79.6631 195.425 79.6631 200.839C79.6631 206.254 84.0565 210.643 89.4761 210.643Z" fill="black"/>
<path d="M223.354 207.142C228.762 207.642 233.568 203.74 234.069 198.338C234.569 192.936 230.664 188.135 225.257 187.634C219.85 187.134 215.043 191.036 214.543 196.438C214.042 201.84 217.947 206.541 223.354 207.142Z" fill="black"/>
<path d="M252.193 296.175C257.6 296.675 262.406 292.773 262.907 287.371C263.408 281.969 259.503 277.168 254.095 276.667C248.688 276.167 243.882 280.069 243.381 285.471C242.88 290.873 246.786 295.675 252.193 296.175Z" fill="black"/>
<path d="M293.247 335.689C298.655 336.19 303.461 332.288 303.962 326.886C304.462 321.484 300.557 316.682 295.15 316.182C289.743 315.682 284.936 319.583 284.436 324.986C283.835 330.388 287.84 335.189 293.247 335.689Z" fill="black"/>
<path d="M177.393 209.242C182.801 209.743 187.607 205.841 188.108 200.439C188.608 195.037 184.703 190.235 179.296 189.735C173.889 189.235 169.082 193.136 168.582 198.538C167.981 203.94 171.986 208.742 177.393 209.242Z" fill="black"/>
<path d="M299.255 268.665C304.663 269.165 309.469 265.263 309.97 259.861C310.47 254.459 306.565 249.657 301.158 249.157C295.751 248.657 290.944 252.559 290.444 257.961C289.943 263.363 293.948 268.164 299.255 268.665Z" fill="black"/>
<path d="M-0.843738 192.336C4.56346 192.836 9.36986 188.935 9.87053 183.533C10.3712 178.131 6.466 173.329 1.0588 172.829C-4.3484 172.329 -9.1548 176.23 -9.65547 181.632C-10.1561 187.034 -6.1508 191.736 -0.843738 192.336Z" fill="black"/>
<path d="M-5.14952 159.924C6.96661 161.124 17.781 152.221 18.8825 140.117C20.0841 128.012 11.1722 117.208 -0.943929 116.108C-13.0601 114.907 -23.8744 123.811 -24.9759 135.915C-26.1775 148.02 -17.2656 158.724 -5.14952 159.924Z" fill="black"/>
<path d="M137.44 188.235C149.556 189.435 160.371 180.532 161.472 168.427C162.674 156.323 153.762 145.519 141.646 144.418C129.53 143.218 118.715 152.121 117.614 164.226C116.412 176.33 125.324 187.034 137.44 188.235Z" fill="#C0343B"/>
<path d="M190.811 280.069C202.928 281.269 213.742 272.366 214.843 260.261C216.045 248.157 207.133 237.353 195.017 236.252C182.901 235.052 172.086 243.955 170.985 256.06C169.783 268.164 178.695 278.868 190.811 280.069Z" fill="#C0343B"/>
<path d="M41.4124 200.639C49.5232 201.439 56.6326 195.437 57.4337 187.434C58.2348 179.331 52.2268 172.229 44.2161 171.428C36.1053 170.628 28.9959 176.63 28.1948 184.633C27.3937 192.636 33.3016 199.839 41.4124 200.639Z" fill="black"/>
<path d="M86.8728 254.759C94.9836 255.56 102.093 249.557 102.894 241.554C103.695 233.451 97.6872 226.349 89.6766 225.548C81.5658 224.748 74.4563 230.75 73.6552 238.753C72.8542 246.756 78.762 253.959 86.8728 254.759Z" fill="black"/>
<path d="M250.491 243.755C258.601 244.556 265.711 238.553 266.512 230.55C267.313 222.447 261.305 215.345 253.294 214.544C245.183 213.744 238.074 219.746 237.273 227.749C236.472 235.752 242.38 242.955 250.491 243.755Z" fill="black"/>
<path d="M68.5486 58.6863C76.6594 59.4866 83.7689 53.4843 84.5699 45.4814C85.371 37.3783 79.363 30.2757 71.3524 29.4754C63.2416 28.6751 56.1321 34.6773 55.331 42.6803C54.53 50.6833 60.4378 57.886 68.5486 58.6863Z" fill="black"/>
<path d="M11.7727 60.587C19.8835 61.3873 26.993 55.3851 27.7941 47.3821C28.5951 39.2791 22.5871 32.1764 14.5765 31.3761C6.46567 30.5758 -0.643786 36.5781 -1.44485 44.581C-2.24592 52.6841 3.66194 59.8867 11.7727 60.587Z" fill="black"/>
<path d="M135.738 129.012C143.849 129.813 150.958 123.811 151.759 115.808C152.56 107.705 146.552 100.602 138.542 99.8016C130.431 99.0013 123.322 105.004 122.52 113.006C121.719 121.11 127.627 128.212 135.738 129.012Z" fill="black"/>
<path d="M46.5194 147.019C51.9266 147.519 56.733 143.618 57.2336 138.216C57.7343 132.814 53.8291 128.012 48.4219 127.512C43.0147 127.012 38.2083 130.913 37.7076 136.315C37.1068 141.717 41.1122 146.519 46.5194 147.019Z" fill="black"/>
<path d="M245.384 107.905C250.791 108.405 255.597 104.503 256.098 99.1014C256.599 93.6994 252.693 88.8976 247.286 88.3974C241.879 87.8972 237.073 91.7986 236.572 97.2007C236.071 102.603 239.977 107.404 245.384 107.905Z" fill="black"/>
<path d="M215.945 62.7878C221.352 63.288 226.158 59.3865 226.659 53.9845C227.16 48.5825 223.254 43.7807 217.847 43.2805C212.44 42.7804 207.634 46.6818 207.133 52.0838C206.532 57.4858 210.537 62.2876 215.945 62.7878Z" fill="black"/>
<path d="M181.399 89.0976C186.806 89.5978 191.612 85.6964 192.113 80.2943C192.614 74.8923 188.709 70.0905 183.301 69.5904C177.894 69.0902 173.088 72.9916 172.587 78.3936C172.086 83.7956 175.992 88.5974 181.399 89.0976Z" fill="black"/>
<path d="M578.227 115.307C583.634 115.808 588.44 111.906 588.941 106.504C589.442 101.102 585.537 96.3003 580.129 95.8001C574.722 95.2999 569.916 99.2014 569.415 104.603C568.814 110.005 572.82 114.707 578.227 115.307Z" fill="black"/>
<path d="M332.2 230.45C337.607 230.95 342.413 227.049 342.914 221.647C343.414 216.245 339.509 211.443 334.102 210.943C328.695 210.443 323.888 214.344 323.388 219.746C322.787 225.248 326.792 229.95 332.2 230.45Z" fill="black"/>
<path d="M169.883 28.8752C175.29 29.3753 180.097 25.4739 180.598 20.0719C181.098 14.6699 177.193 9.86807 171.786 9.36788C166.379 8.8677 161.572 12.7692 161.072 18.1712C160.571 23.6732 164.476 28.375 169.883 28.8752Z" fill="black"/>
<path d="M245.384 17.8711C250.791 18.3713 255.597 14.4698 256.098 9.06782C256.599 3.66581 252.693 -1.13602 247.286 -1.63621C241.879 -2.13639 237.073 1.76507 236.572 7.16709C236.071 12.5691 239.977 17.3709 245.384 17.8711Z" fill="black"/>
<path d="M42.5137 280.069C47.9209 280.569 52.7273 276.667 53.2279 271.265C53.7286 265.863 49.8234 261.062 44.4162 260.561C39.009 260.061 34.2026 263.963 33.702 269.365C33.2013 274.767 37.2066 279.569 42.5137 280.069Z" fill="black"/>
<path d="M137.741 237.453C143.148 237.953 147.954 234.052 148.455 228.65C148.956 223.248 145.05 218.446 139.643 217.946C134.236 217.445 129.43 221.347 128.929 226.749C128.428 232.151 132.334 236.953 137.741 237.453Z" fill="black"/>
<path d="M114.71 13.8696C120.117 14.3698 124.923 10.4683 125.424 5.06632C125.925 -0.335697 122.02 -5.13748 116.612 -5.63767C111.205 -6.13786 106.399 -2.23639 105.898 3.16562C105.297 8.56764 109.303 13.3694 114.71 13.8696Z" fill="black"/>
<path d="M411.805 37.7785C411.805 49.9831 421.718 59.7867 433.835 59.7867C446.051 59.7867 455.864 49.883 455.864 37.7785C455.864 25.674 445.951 15.7703 433.835 15.7703C421.718 15.7703 411.805 25.574 411.805 37.7785Z" fill="#C0343B"/>
<path d="M378.16 212.744C378.16 224.948 388.073 234.752 400.189 234.752C412.406 234.752 422.219 224.848 422.219 212.744C422.219 200.539 412.306 190.736 400.189 190.736C387.973 190.736 378.16 200.639 378.16 212.744Z" fill="#C0343B"/>
<path d="M375.657 87.8972C375.657 96.0002 382.266 102.603 390.377 102.603C398.488 102.603 405.096 96.0002 405.096 87.8972C405.096 79.7941 398.488 73.1917 390.377 73.1917C382.266 73.1917 375.657 79.7941 375.657 87.8972Z" fill="black"/>
<path d="M552.192 139.316C552.192 147.419 558.801 154.022 566.911 154.022C575.022 154.022 581.631 147.419 581.631 139.316C581.631 131.213 575.022 124.611 566.911 124.611C558.801 124.611 552.192 131.213 552.192 139.316Z" fill="black"/>
<path d="M456.564 134.415C456.564 142.518 463.173 149.12 471.284 149.12C479.395 149.12 486.004 142.518 486.004 134.415C486.004 126.312 479.395 119.709 471.284 119.709C463.173 119.709 456.564 126.312 456.564 134.415Z" fill="black"/>
<path d="M515.443 24.1734C515.443 32.2764 522.052 38.8789 530.163 38.8789C538.273 38.8789 544.882 32.2764 544.882 24.1734C544.882 16.0704 538.273 9.46793 530.163 9.46793C521.952 9.46793 515.443 16.0704 515.443 24.1734Z" fill="black"/>
<path d="M280.03 24.1734C280.03 32.2764 286.639 38.8789 294.749 38.8789C302.86 38.8789 309.469 32.2764 309.469 24.1734C309.469 16.0704 302.86 9.46793 294.749 9.46793C286.639 9.46793 280.03 16.0704 280.03 24.1734Z" fill="black"/>
<path d="M439.442 97.7008C444.862 97.7008 449.255 93.3116 449.255 87.8972C449.255 82.4827 444.862 78.0935 439.442 78.0935C434.022 78.0935 429.629 82.4827 429.629 87.8972C429.629 93.3116 434.022 97.7008 439.442 97.7008Z" fill="black"/>
<path d="M329.095 105.004C334.514 105.004 338.908 100.614 338.908 95.1999C338.908 89.7855 334.514 85.3962 329.095 85.3962C323.675 85.3962 319.282 89.7855 319.282 95.1999C319.282 100.614 323.675 105.004 329.095 105.004Z" fill="black"/>
<path d="M338.908 193.236C344.328 193.236 348.721 188.847 348.721 183.433C348.721 178.018 344.328 173.629 338.908 173.629C333.489 173.629 329.095 178.018 329.095 183.433C329.095 188.847 333.489 193.236 338.908 193.236Z" fill="black"/>
<path d="M329.095 4.56613C329.095 9.96815 333.501 14.3698 338.908 14.3698C344.315 14.3698 348.721 9.96815 348.721 4.56613C348.721 -0.835882 344.315 -5.23752 338.908 -5.23752C333.501 -5.23752 329.095 -0.835882 329.095 4.56613Z" fill="black"/>
<path d="M360.938 -2.7366C360.938 9.46795 370.851 19.2716 382.967 19.2716C395.183 19.2716 404.996 9.36791 404.996 -2.7366C404.996 -14.9411 395.083 -24.7448 382.967 -24.7448C370.851 -24.7448 360.938 -14.9411 360.938 -2.7366Z" fill="black"/>
<path d="M346.218 141.717C346.218 153.922 356.131 163.725 368.247 163.725C380.463 163.725 390.276 153.822 390.276 141.717C390.276 129.513 380.363 119.709 368.247 119.709C356.131 119.709 346.218 129.613 346.218 141.717Z" fill="#C0343B"/>
<path d="M324.79 47.3821C324.79 55.4851 331.398 62.0876 339.509 62.0876C347.62 62.0876 354.229 55.4851 354.229 47.3821C354.229 39.279 347.62 32.6766 339.509 32.6766C331.398 32.6766 324.79 39.279 324.79 47.3821Z" fill="black"/>
<path d="M275.123 97.7008C275.123 105.804 281.732 112.406 289.843 112.406C297.953 112.406 304.562 105.804 304.562 97.7008C304.562 89.5978 297.953 82.9954 289.843 82.9954C281.732 82.9954 275.123 89.5978 275.123 97.7008Z" fill="black"/>
<path d="M557.099 63.388C557.099 71.4911 563.707 78.0935 571.818 78.0935C579.929 78.0935 586.538 71.4911 586.538 63.388C586.538 55.285 579.929 48.6826 571.818 48.6826C563.707 48.6826 557.099 55.285 557.099 63.388Z" fill="black"/>
<path d="M468.881 60.9872C468.881 69.0902 475.49 75.6927 483.6 75.6927C491.711 75.6927 498.32 69.0902 498.32 60.9872C498.32 52.8842 491.711 46.2817 483.6 46.2817C475.39 46.2817 468.881 52.7841 468.881 60.9872Z" fill="black"/>
<path d="M461.471 4.56615C461.471 12.6692 468.08 19.2716 476.191 19.2716C484.302 19.2716 490.91 12.6692 490.91 4.56615C490.91 -3.53687 484.302 -10.1393 476.191 -10.1393C468.08 -10.0393 461.471 -3.53687 461.471 4.56615Z" fill="black"/>
<path d="M405.096 134.415C405.096 142.518 411.705 149.12 419.816 149.12C427.927 149.12 434.535 142.518 434.535 134.415C434.535 126.312 427.927 119.709 419.816 119.709C411.705 119.709 405.096 126.312 405.096 134.415Z" fill="black"/>
<path d="M388.574 57.1857C393.994 57.1857 398.387 52.7965 398.387 47.3821C398.387 41.9677 393.994 37.5784 388.574 37.5784C383.155 37.5784 378.761 41.9677 378.761 47.3821C378.761 52.7965 383.155 57.1857 388.574 57.1857Z" fill="black"/>
<path d="M488.407 217.646C493.827 217.646 498.22 213.256 498.22 207.842C498.22 202.428 493.827 198.038 488.407 198.038C482.988 198.038 478.594 202.428 478.594 207.842C478.594 213.256 482.988 217.646 488.407 217.646Z" fill="black"/>
<path d="M459.068 185.834C464.488 185.834 468.881 181.444 468.881 176.03C468.881 170.616 464.488 166.226 459.068 166.226C453.648 166.226 449.255 170.616 449.255 176.03C449.255 181.444 453.648 185.834 459.068 185.834Z" fill="black"/>
<path d="M517.846 168.727C523.266 168.727 527.659 164.338 527.659 158.924C527.659 153.509 523.266 149.12 517.846 149.12C512.427 149.12 508.033 153.509 508.033 158.924C508.033 164.338 512.427 168.727 517.846 168.727Z" fill="black"/>
<path d="M255.597 65.889C261.017 65.889 265.41 61.4997 265.41 56.0853C265.41 50.6709 261.017 46.2817 255.597 46.2817C250.178 46.2817 245.784 50.6709 245.784 56.0853C245.784 61.4997 250.178 65.889 255.597 65.889Z" fill="black"/>
<path d="M297.252 146.619C297.252 152.021 301.658 156.423 307.065 156.423C312.473 156.423 316.879 152.021 316.879 146.619C316.879 141.217 312.473 136.815 307.065 136.815C301.658 136.815 297.252 141.217 297.252 146.619Z" fill="black"/>
<path d="M527.659 112.406C533.079 112.406 537.472 108.017 537.472 102.603C537.472 97.1883 533.079 92.799 527.659 92.799C522.24 92.799 517.846 97.1883 517.846 102.603C517.846 108.017 522.24 112.406 527.659 112.406Z" fill="black"/>
</g>
</g>
<defs>
<clipPath id="clip0_28_19695">
<rect width="775" height="421" rx="20" fill="white"/>
</clipPath>
<clipPath id="clip1_28_19695">
<rect width="1052" height="1073" fill="white" transform="translate(-118 -441)"/>
</clipPath>
</defs>
</svg>
