<svg width="775" height="421" viewBox="0 0 775 421" fill="none" xmlns="http://www.w3.org/2000/svg">
<g clip-path="url(#clip0_28_19695)">
<g clip-path="url(#clip1_28_19695)">
<path d="M25.2778 30.7084C25.9145 30.7084 26.4306 30.1922 26.4306 29.5556C26.4306 28.9189 25.9145 28.4028 25.2778 28.4028C24.6411 28.4028 24.125 28.9189 24.125 29.5556C24.125 30.1922 24.6411 30.7084 25.2778 30.7084Z" fill="black"/>
<path d="M70.5556 30.7084C71.1923 30.7084 71.7084 30.1922 71.7084 29.5556C71.7084 28.9189 71.1923 28.4028 70.5556 28.4028C69.919 28.4028 69.4028 28.9189 69.4028 29.5556C69.4028 30.1922 69.919 30.7084 70.5556 30.7084Z" fill="black"/>
<path d="M115.833 30.7084C116.47 30.7084 116.986 30.1922 116.986 29.5556C116.986 28.9189 116.47 28.4028 115.833 28.4028C115.197 28.4028 114.681 28.9189 114.681 29.5556C114.681 30.1922 115.197 30.7084 115.833 30.7084Z" fill="black"/>
<path d="M161.111 30.7084C161.747 30.7084 162.264 30.1922 162.264 29.5556C162.264 28.9189 161.747 28.4028 161.111 28.4028C160.474 28.4028 159.958 28.9189 159.958 29.5556C159.958 30.1922 160.474 30.7084 161.111 30.7084Z" fill="black"/>
<path d="M206.389 30.7084C207.026 30.7084 207.542 30.1922 207.542 29.5556C207.542 28.9189 207.026 28.4028 206.389 28.4028C205.752 28.4028 205.236 28.9189 205.236 29.5556C205.236 30.1922 205.752 30.7084 206.389 30.7084Z" fill="black"/>
<path d="M251.666 30.7084C252.303 30.7084 252.819 30.1922 252.819 29.5556C252.819 28.9189 252.303 28.4028 251.666 28.4028C251.03 28.4028 250.514 28.9189 250.514 29.5556C250.514 30.1922 251.03 30.7084 251.666 30.7084Z" fill="black"/>
<path d="M296.944 30.7084C297.581 30.7084 298.097 30.1922 298.097 29.5556C298.097 28.9189 297.581 28.4028 296.944 28.4028C296.308 28.4028 295.792 28.9189 295.792 29.5556C295.792 30.1922 296.308 30.7084 296.944 30.7084Z" fill="black"/>
<path d="M342.222 30.7084C342.859 30.7084 343.375 30.1922 343.375 29.5556C343.375 28.9189 342.859 28.4028 342.222 28.4028C341.585 28.4028 341.069 28.9189 341.069 29.5556C341.069 30.1922 341.585 30.7084 342.222 30.7084Z" fill="black"/>
<path d="M387.5 30.7084C388.137 30.7084 388.653 30.1922 388.653 29.5556C388.653 28.9189 388.137 28.4028 387.5 28.4028C386.863 28.4028 386.347 28.9189 386.347 29.5556C386.347 30.1922 386.863 30.7084 387.5 30.7084Z" fill="black"/>
<path d="M432.778 30.7084C433.414 30.7084 433.931 30.1922 433.931 29.5556C433.931 28.9189 433.414 28.4028 432.778 28.4028C432.141 28.4028 431.625 28.9189 431.625 29.5556C431.625 30.1922 432.141 30.7084 432.778 30.7084Z" fill="black"/>
<path d="M478.056 30.7084C478.692 30.7084 479.208 30.1922 479.208 29.5556C479.208 28.9189 478.692 28.4028 478.056 28.4028C477.419 28.4028 476.903 28.9189 476.903 29.5556C476.903 30.1922 477.419 30.7084 478.056 30.7084Z" fill="black"/>
<path d="M523.333 30.7084C523.97 30.7084 524.486 30.1922 524.486 29.5556C524.486 28.9189 523.97 28.4028 523.333 28.4028C522.697 28.4028 522.181 28.9189 522.181 29.5556C522.181 30.1922 522.697 30.7084 523.333 30.7084Z" fill="black"/>
<path d="M568.611 30.7084C569.247 30.7084 569.764 30.1922 569.764 29.5556C569.764 28.9189 569.247 28.4028 568.611 28.4028C567.974 28.4028 567.458 28.9189 567.458 29.5556C567.458 30.1922 567.974 30.7084 568.611 30.7084Z" fill="black"/>
<path d="M613.889 30.7084C614.525 30.7084 615.041 30.1922 615.041 29.5556C615.041 28.9189 614.525 28.4028 613.889 28.4028C613.252 28.4028 612.736 28.9189 612.736 29.5556C612.736 30.1922 613.252 30.7084 613.889 30.7084Z" fill="black"/>
<path d="M659.166 30.7084C659.803 30.7084 660.319 30.1922 660.319 29.5556C660.319 28.9189 659.803 28.4028 659.166 28.4028C658.53 28.4028 658.014 28.9189 658.014 29.5556C658.014 30.1922 658.53 30.7084 659.166 30.7084Z" fill="black"/>
<path d="M704.444 30.7084C705.081 30.7084 705.597 30.1922 705.597 29.5556C705.597 28.9189 705.081 28.4028 704.444 28.4028C703.808 28.4028 703.292 28.9189 703.292 29.5556C703.292 30.1922 703.808 30.7084 704.444 30.7084Z" fill="black"/>
<path d="M749.722 30.7084C750.359 30.7084 750.875 30.1922 750.875 29.5556C750.875 28.9189 750.359 28.4028 749.722 28.4028C749.085 28.4028 748.569 28.9189 748.569 29.5556C748.569 30.1922 749.085 30.7084 749.722 30.7084Z" fill="black"/>
<path d="M25.2778 75.9862C25.9145 75.9862 26.4306 75.47 26.4306 74.8334C26.4306 74.1967 25.9145 73.6806 25.2778 73.6806C24.6411 73.6806 24.125 74.1967 24.125 74.8334C24.125 75.47 24.6411 75.9862 25.2778 75.9862Z" fill="black"/>
<path d="M70.5556 75.9862C71.1923 75.9862 71.7084 75.47 71.7084 74.8334C71.7084 74.1967 71.1923 73.6806 70.5556 73.6806C69.919 73.6806 69.4028 74.1967 69.4028 74.8334C69.4028 75.47 69.919 75.9862 70.5556 75.9862Z" fill="black"/>
<path d="M115.833 75.9862C116.47 75.9862 116.986 75.47 116.986 74.8334C116.986 74.1967 116.47 73.6806 115.833 73.6806C115.197 73.6806 114.681 74.1967 114.681 74.8334C114.681 75.47 115.197 75.9862 115.833 75.9862Z" fill="black"/>
<path d="M161.111 75.9862C161.747 75.9862 162.264 75.47 162.264 74.8334C162.264 74.1967 161.747 73.6806 161.111 73.6806C160.474 73.6806 159.958 74.1967 159.958 74.8334C159.958 75.47 160.474 75.9862 161.111 75.9862Z" fill="black"/>
<path d="M206.389 75.9862C207.026 75.9862 207.542 75.47 207.542 74.8334C207.542 74.1967 207.026 73.6806 206.389 73.6806C205.752 73.6806 205.236 74.1967 205.236 74.8334C205.236 75.47 205.752 75.9862 206.389 75.9862Z" fill="black"/>
<path d="M251.666 75.9862C252.303 75.9862 252.819 75.47 252.819 74.8334C252.819 74.1967 252.303 73.6806 251.666 73.6806C251.03 73.6806 250.514 74.1967 250.514 74.8334C250.514 75.47 251.03 75.9862 251.666 75.9862Z" fill="black"/>
<path d="M296.944 75.9862C297.581 75.9862 298.097 75.47 298.097 74.8334C298.097 74.1967 297.581 73.6806 296.944 73.6806C296.308 73.6806 295.792 74.1967 295.792 74.8334C295.792 75.47 296.308 75.9862 296.944 75.9862Z" fill="black"/>
<path d="M342.222 75.9862C342.859 75.9862 343.375 75.47 343.375 74.8334C343.375 74.1967 342.859 73.6806 342.222 73.6806C341.585 73.6806 341.069 74.1967 341.069 74.8334C341.069 75.47 341.585 75.9862 342.222 75.9862Z" fill="black"/>
<path d="M387.5 75.9862C388.137 75.9862 388.653 75.47 388.653 74.8334C388.653 74.1967 388.137 73.6806 387.5 73.6806C386.863 73.6806 386.347 74.1967 386.347 74.8334C386.347 75.47 386.863 75.9862 387.5 75.9862Z" fill="black"/>
<path d="M432.778 75.9862C433.414 75.9862 433.931 75.47 433.931 74.8334C433.931 74.1967 433.414 73.6806 432.778 73.6806C432.141 73.6806 431.625 74.1967 431.625 74.8334C431.625 75.47 432.141 75.9862 432.778 75.9862Z" fill="black"/>
<path d="M478.056 75.9862C478.692 75.9862 479.208 75.47 479.208 74.8334C479.208 74.1967 478.692 73.6806 478.056 73.6806C477.419 73.6806 476.903 74.1967 476.903 74.8334C476.903 75.47 477.419 75.9862 478.056 75.9862Z" fill="black"/>
<path d="M523.333 75.9862C523.97 75.9862 524.486 75.47 524.486 74.8334C524.486 74.1967 523.97 73.6806 523.333 73.6806C522.697 73.6806 522.181 74.1967 522.181 74.8334C522.181 75.47 522.697 75.9862 523.333 75.9862Z" fill="black"/>
<path d="M568.611 75.9862C569.247 75.9862 569.764 75.47 569.764 74.8334C569.764 74.1967 569.247 73.6806 568.611 73.6806C567.974 73.6806 567.458 74.1967 567.458 74.8334C567.458 75.47 567.974 75.9862 568.611 75.9862Z" fill="black"/>
<path d="M613.889 75.9862C614.525 75.9862 615.041 75.47 615.041 74.8334C615.041 74.1967 614.525 73.6806 613.889 73.6806C613.252 73.6806 612.736 74.1967 612.736 74.8334C612.736 75.47 613.252 75.9862 613.889 75.9862Z" fill="black"/>
<path d="M659.166 75.9862C659.803 75.9862 660.319 75.47 660.319 74.8334C660.319 74.1967 659.803 73.6806 659.166 73.6806C658.53 73.6806 658.014 74.1967 658.014 74.8334C658.014 75.47 658.53 75.9862 659.166 75.9862Z" fill="black"/>
<path d="M704.444 75.9862C705.081 75.9862 705.597 75.47 705.597 74.8334C705.597 74.1967 705.081 73.6806 704.444 73.6806C703.808 73.6806 703.292 74.1967 703.292 74.8334C703.292 75.47 703.808 75.9862 704.444 75.9862Z" fill="black"/>
<path d="M749.722 75.9862C750.359 75.9862 750.875 75.47 750.875 74.8334C750.875 74.1967 750.359 73.6806 749.722 73.6806C749.085 73.6806 748.569 74.1967 748.569 74.8334C748.569 75.47 749.085 75.9862 749.722 75.9862Z" fill="black"/>
<path d="M25.2778 121.264C25.9145 121.264 26.4306 120.748 26.4306 120.111C26.4306 119.474 25.9145 118.958 25.2778 118.958C24.6411 118.958 24.125 119.474 24.125 120.111C24.125 120.748 24.6411 121.264 25.2778 121.264Z" fill="black"/>
<path d="M70.5556 121.264C71.1923 121.264 71.7084 120.748 71.7084 120.111C71.7084 119.474 71.1923 118.958 70.5556 118.958C69.919 118.958 69.4028 119.474 69.4028 120.111C69.4028 120.748 69.919 121.264 70.5556 121.264Z" fill="black"/>
<path d="M115.833 121.264C116.47 121.264 116.986 120.748 116.986 120.111C116.986 119.474 116.47 118.958 115.833 118.958C115.197 118.958 114.681 119.474 114.681 120.111C114.681 120.748 115.197 121.264 115.833 121.264Z" fill="black"/>
<path d="M161.111 121.264C161.747 121.264 162.264 120.748 162.264 120.111C162.264 119.474 161.747 118.958 161.111 118.958C160.474 118.958 159.958 119.474 159.958 120.111C159.958 120.748 160.474 121.264 161.111 121.264Z" fill="black"/>
<path d="M206.389 121.264C207.026 121.264 207.542 120.748 207.542 120.111C207.542 119.474 207.026 118.958 206.389 118.958C205.752 118.958 205.236 119.474 205.236 120.111C205.236 120.748 205.752 121.264 206.389 121.264Z" fill="black"/>
<path d="M251.666 121.264C252.303 121.264 252.819 120.748 252.819 120.111C252.819 119.474 252.303 118.958 251.666 118.958C251.03 118.958 250.514 119.474 250.514 120.111C250.514 120.748 251.03 121.264 251.666 121.264Z" fill="black"/>
<path d="M298.947 125.268C300.689 125.268 302.102 123.856 302.102 122.113C302.102 120.371 300.689 118.958 298.947 118.958C297.204 118.958 295.792 120.371 295.792 122.113C295.792 123.856 297.204 125.268 298.947 125.268Z" fill="#C0343B"/>
<path d="M344.224 125.268C345.967 125.268 347.379 123.856 347.379 122.113C347.379 120.371 345.967 118.958 344.224 118.958C342.482 118.958 341.069 120.371 341.069 122.113C341.069 123.856 342.482 125.268 344.224 125.268Z" fill="#C0343B"/>
<path d="M387.5 121.264C388.137 121.264 388.653 120.748 388.653 120.111C388.653 119.474 388.137 118.958 387.5 118.958C386.863 118.958 386.347 119.474 386.347 120.111C386.347 120.748 386.863 121.264 387.5 121.264Z" fill="black"/>
<path d="M432.778 121.264C433.414 121.264 433.931 120.748 433.931 120.111C433.931 119.474 433.414 118.958 432.778 118.958C432.141 118.958 431.625 119.474 431.625 120.111C431.625 120.748 432.141 121.264 432.778 121.264Z" fill="black"/>
<path d="M478.056 121.264C478.692 121.264 479.208 120.748 479.208 120.111C479.208 119.474 478.692 118.958 478.056 118.958C477.419 118.958 476.903 119.474 476.903 120.111C476.903 120.748 477.419 121.264 478.056 121.264Z" fill="black"/>
<path d="M523.333 121.264C523.97 121.264 524.486 120.748 524.486 120.111C524.486 119.474 523.97 118.958 523.333 118.958C522.697 118.958 522.181 119.474 522.181 120.111C522.181 120.748 522.697 121.264 523.333 121.264Z" fill="black"/>
<path d="M568.611 121.264C569.247 121.264 569.764 120.748 569.764 120.111C569.764 119.474 569.247 118.958 568.611 118.958C567.974 118.958 567.458 119.474 567.458 120.111C567.458 120.748 567.974 121.264 568.611 121.264Z" fill="black"/>
<path d="M613.889 121.264C614.525 121.264 615.041 120.748 615.041 120.111C615.041 119.474 614.525 118.958 613.889 118.958C613.252 118.958 612.736 119.474 612.736 120.111C612.736 120.748 613.252 121.264 613.889 121.264Z" fill="black"/>
<path d="M659.166 121.264C659.803 121.264 660.319 120.748 660.319 120.111C660.319 119.474 659.803 118.958 659.166 118.958C658.53 118.958 658.014 119.474 658.014 120.111C658.014 120.748 658.53 121.264 659.166 121.264Z" fill="black"/>
<path d="M704.444 121.264C705.081 121.264 705.597 120.748 705.597 120.111C705.597 119.474 705.081 118.958 704.444 118.958C703.808 118.958 703.292 119.474 703.292 120.111C703.292 120.748 703.808 121.264 704.444 121.264Z" fill="black"/>
<path d="M749.722 121.264C750.359 121.264 750.875 120.748 750.875 120.111C750.875 119.474 750.359 118.958 749.722 118.958C749.085 118.958 748.569 119.474 748.569 120.111C748.569 120.748 749.085 121.264 749.722 121.264Z" fill="black"/>
<path d="M25.2778 166.542C25.9145 166.542 26.4306 166.026 26.4306 165.389C26.4306 164.752 25.9145 164.236 25.2778 164.236C24.6411 164.236 24.125 164.752 24.125 165.389C24.125 166.026 24.6411 166.542 25.2778 166.542Z" fill="black"/>
<path d="M70.5556 166.542C71.1923 166.542 71.7084 166.026 71.7084 165.389C71.7084 164.752 71.1923 164.236 70.5556 164.236C69.919 164.236 69.4028 164.752 69.4028 165.389C69.4028 166.026 69.919 166.542 70.5556 166.542Z" fill="black"/>
<path d="M115.833 166.542C116.47 166.542 116.986 166.026 116.986 165.389C116.986 164.752 116.47 164.236 115.833 164.236C115.197 164.236 114.681 164.752 114.681 165.389C114.681 166.026 115.197 166.542 115.833 166.542Z" fill="black"/>
<path d="M161.111 166.542C161.747 166.542 162.264 166.026 162.264 165.389C162.264 164.752 161.747 164.236 161.111 164.236C160.474 164.236 159.958 164.752 159.958 165.389C159.958 166.026 160.474 166.542 161.111 166.542Z" fill="black"/>
<path d="M206.389 166.542C207.026 166.542 207.542 166.026 207.542 165.389C207.542 164.752 207.026 164.236 206.389 164.236C205.752 164.236 205.236 164.752 205.236 165.389C205.236 166.026 205.752 166.542 206.389 166.542Z" fill="black"/>
<path d="M251.666 166.542C252.303 166.542 252.819 166.026 252.819 165.389C252.819 164.752 252.303 164.236 251.666 164.236C251.03 164.236 250.514 164.752 250.514 165.389C250.514 166.026 251.03 166.542 251.666 166.542Z" fill="black"/>
<path d="M298.947 170.546C300.689 170.546 302.102 169.134 302.102 167.391C302.102 165.649 300.689 164.236 298.947 164.236C297.204 164.236 295.792 165.649 295.792 167.391C295.792 169.134 297.204 170.546 298.947 170.546Z" fill="#C0343B"/>
<path d="M344.224 170.546C345.967 170.546 347.379 169.134 347.379 167.391C347.379 165.649 345.967 164.236 344.224 164.236C342.482 164.236 341.069 165.649 341.069 167.391C341.069 169.134 342.482 170.546 344.224 170.546Z" fill="#C0343B"/>
<path d="M389.502 170.546C391.245 170.546 392.657 169.134 392.657 167.391C392.657 165.649 391.245 164.236 389.502 164.236C387.76 164.236 386.347 165.649 386.347 167.391C386.347 169.134 387.76 170.546 389.502 170.546Z" fill="#C0343B"/>
<path d="M432.778 166.542C433.414 166.542 433.931 166.026 433.931 165.389C433.931 164.752 433.414 164.236 432.778 164.236C432.141 164.236 431.625 164.752 431.625 165.389C431.625 166.026 432.141 166.542 432.778 166.542Z" fill="black"/>
<path d="M478.056 166.542C478.692 166.542 479.208 166.026 479.208 165.389C479.208 164.752 478.692 164.236 478.056 164.236C477.419 164.236 476.903 164.752 476.903 165.389C476.903 166.026 477.419 166.542 478.056 166.542Z" fill="black"/>
<path d="M523.333 166.542C523.97 166.542 524.486 166.026 524.486 165.389C524.486 164.752 523.97 164.236 523.333 164.236C522.697 164.236 522.181 164.752 522.181 165.389C522.181 166.026 522.697 166.542 523.333 166.542Z" fill="black"/>
<path d="M568.611 166.542C569.247 166.542 569.764 166.026 569.764 165.389C569.764 164.752 569.247 164.236 568.611 164.236C567.974 164.236 567.458 164.752 567.458 165.389C567.458 166.026 567.974 166.542 568.611 166.542Z" fill="black"/>
<path d="M613.889 166.542C614.525 166.542 615.041 166.026 615.041 165.389C615.041 164.752 614.525 164.236 613.889 164.236C613.252 164.236 612.736 164.752 612.736 165.389C612.736 166.026 613.252 166.542 613.889 166.542Z" fill="black"/>
<path d="M659.166 166.542C659.803 166.542 660.319 166.026 660.319 165.389C660.319 164.752 659.803 164.236 659.166 164.236C658.53 164.236 658.014 164.752 658.014 165.389C658.014 166.026 658.53 166.542 659.166 166.542Z" fill="black"/>
<path d="M704.444 166.542C705.081 166.542 705.597 166.026 705.597 165.389C705.597 164.752 705.081 164.236 704.444 164.236C703.808 164.236 703.292 164.752 703.292 165.389C703.292 166.026 703.808 166.542 704.444 166.542Z" fill="black"/>
<path d="M749.722 166.542C750.359 166.542 750.875 166.026 750.875 165.389C750.875 164.752 750.359 164.236 749.722 164.236C749.085 164.236 748.569 164.752 748.569 165.389C748.569 166.026 749.085 166.542 749.722 166.542Z" fill="black"/>
<path d="M25.2778 211.82C25.9145 211.82 26.4306 211.303 26.4306 210.667C26.4306 210.03 25.9145 209.514 25.2778 209.514C24.6411 209.514 24.125 210.03 24.125 210.667C24.125 211.303 24.6411 211.82 25.2778 211.82Z" fill="black"/>
<path d="M70.5556 211.82C71.1923 211.82 71.7084 211.303 71.7084 210.667C71.7084 210.03 71.1923 209.514 70.5556 209.514C69.919 209.514 69.4028 210.03 69.4028 210.667C69.4028 211.303 69.919 211.82 70.5556 211.82Z" fill="black"/>
<path d="M115.833 211.82C116.47 211.82 116.986 211.303 116.986 210.667C116.986 210.03 116.47 209.514 115.833 209.514C115.197 209.514 114.681 210.03 114.681 210.667C114.681 211.303 115.197 211.82 115.833 211.82Z" fill="black"/>
<path d="M161.111 211.82C161.747 211.82 162.264 211.303 162.264 210.667C162.264 210.03 161.747 209.514 161.111 209.514C160.474 209.514 159.958 210.03 159.958 210.667C159.958 211.303 160.474 211.82 161.111 211.82Z" fill="black"/>
<path d="M206.389 211.82C207.026 211.82 207.542 211.303 207.542 210.667C207.542 210.03 207.026 209.514 206.389 209.514C205.752 209.514 205.236 210.03 205.236 210.667C205.236 211.303 205.752 211.82 206.389 211.82Z" fill="black"/>
<path d="M251.666 211.82C252.303 211.82 252.819 211.303 252.819 210.667C252.819 210.03 252.303 209.514 251.666 209.514C251.03 209.514 250.514 210.03 250.514 210.667C250.514 211.303 251.03 211.82 251.666 211.82Z" fill="black"/>
<path d="M298.947 215.824C300.689 215.824 302.102 214.411 302.102 212.669C302.102 210.926 300.689 209.514 298.947 209.514C297.204 209.514 295.792 210.926 295.792 212.669C295.792 214.411 297.204 215.824 298.947 215.824Z" fill="#C0343B"/>
<path d="M344.224 215.824C345.967 215.824 347.379 214.411 347.379 212.669C347.379 210.926 345.967 209.514 344.224 209.514C342.482 209.514 341.069 210.926 341.069 212.669C341.069 214.411 342.482 215.824 344.224 215.824Z" fill="#C0343B"/>
<path d="M389.502 215.824C391.245 215.824 392.657 214.411 392.657 212.669C392.657 210.926 391.245 209.514 389.502 209.514C387.76 209.514 386.347 210.926 386.347 212.669C386.347 214.411 387.76 215.824 389.502 215.824Z" fill="#C0343B"/>
<path d="M434.78 215.824C436.523 215.824 437.935 214.411 437.935 212.669C437.935 210.926 436.523 209.514 434.78 209.514C433.038 209.514 431.625 210.926 431.625 212.669C431.625 214.411 433.038 215.824 434.78 215.824Z" fill="#C0343B"/>
<path d="M478.056 211.82C478.692 211.82 479.208 211.303 479.208 210.667C479.208 210.03 478.692 209.514 478.056 209.514C477.419 209.514 476.903 210.03 476.903 210.667C476.903 211.303 477.419 211.82 478.056 211.82Z" fill="black"/>
<path d="M523.333 211.82C523.97 211.82 524.486 211.303 524.486 210.667C524.486 210.03 523.97 209.514 523.333 209.514C522.697 209.514 522.181 210.03 522.181 210.667C522.181 211.303 522.697 211.82 523.333 211.82Z" fill="black"/>
<path d="M568.611 211.82C569.247 211.82 569.764 211.303 569.764 210.667C569.764 210.03 569.247 209.514 568.611 209.514C567.974 209.514 567.458 210.03 567.458 210.667C567.458 211.303 567.974 211.82 568.611 211.82Z" fill="black"/>
<path d="M613.889 211.82C614.525 211.82 615.041 211.303 615.041 210.667C615.041 210.03 614.525 209.514 613.889 209.514C613.252 209.514 612.736 210.03 612.736 210.667C612.736 211.303 613.252 211.82 613.889 211.82Z" fill="black"/>
<path d="M659.166 211.82C659.803 211.82 660.319 211.303 660.319 210.667C660.319 210.03 659.803 209.514 659.166 209.514C658.53 209.514 658.014 210.03 658.014 210.667C658.014 211.303 658.53 211.82 659.166 211.82Z" fill="black"/>
<path d="M704.444 211.82C705.081 211.82 705.597 211.303 705.597 210.667C705.597 210.03 705.081 209.514 704.444 209.514C703.808 209.514 703.292 210.03 703.292 210.667C703.292 211.303 703.808 211.82 704.444 211.82Z" fill="black"/>
<path d="M749.722 211.82C750.359 211.82 750.875 211.303 750.875 210.667C750.875 210.03 750.359 209.514 749.722 209.514C749.085 209.514 748.569 210.03 748.569 210.667C748.569 211.303 749.085 211.82 749.722 211.82Z" fill="black"/>
<path d="M25.2778 257.097C25.9145 257.097 26.4306 256.581 26.4306 255.944C26.4306 255.308 25.9145 254.792 25.2778 254.792C24.6411 254.792 24.125 255.308 24.125 255.944C24.125 256.581 24.6411 257.097 25.2778 257.097Z" fill="black"/>
<path d="M70.5556 257.097C71.1923 257.097 71.7084 256.581 71.7084 255.944C71.7084 255.308 71.1923 254.792 70.5556 254.792C69.919 254.792 69.4028 255.308 69.4028 255.944C69.4028 256.581 69.919 257.097 70.5556 257.097Z" fill="black"/>
<path d="M115.833 257.097C116.47 257.097 116.986 256.581 116.986 255.944C116.986 255.308 116.47 254.792 115.833 254.792C115.197 254.792 114.681 255.308 114.681 255.944C114.681 256.581 115.197 257.097 115.833 257.097Z" fill="black"/>
<path d="M161.111 257.097C161.747 257.097 162.264 256.581 162.264 255.944C162.264 255.308 161.747 254.792 161.111 254.792C160.474 254.792 159.958 255.308 159.958 255.944C159.958 256.581 160.474 257.097 161.111 257.097Z" fill="black"/>
<path d="M206.389 257.097C207.026 257.097 207.542 256.581 207.542 255.944C207.542 255.308 207.026 254.792 206.389 254.792C205.752 254.792 205.236 255.308 205.236 255.944C205.236 256.581 205.752 257.097 206.389 257.097Z" fill="black"/>
<path d="M251.666 257.097C252.303 257.097 252.819 256.581 252.819 255.944C252.819 255.308 252.303 254.792 251.666 254.792C251.03 254.792 250.514 255.308 250.514 255.944C250.514 256.581 251.03 257.097 251.666 257.097Z" fill="black"/>
<path d="M298.947 261.102C300.689 261.102 302.102 259.689 302.102 257.947C302.102 256.204 300.689 254.792 298.947 254.792C297.204 254.792 295.792 256.204 295.792 257.947C295.792 259.689 297.204 261.102 298.947 261.102Z" fill="#C0343B"/>
<path d="M344.224 261.102C345.967 261.102 347.379 259.689 347.379 257.947C347.379 256.204 345.967 254.792 344.224 254.792C342.482 254.792 341.069 256.204 341.069 257.947C341.069 259.689 342.482 261.102 344.224 261.102Z" fill="#C0343B"/>
<path d="M389.502 261.102C391.245 261.102 392.657 259.689 392.657 257.947C392.657 256.204 391.245 254.792 389.502 254.792C387.76 254.792 386.347 256.204 386.347 257.947C386.347 259.689 387.76 261.102 389.502 261.102Z" fill="#C0343B"/>
<path d="M432.778 257.097C433.414 257.097 433.931 256.581 433.931 255.944C433.931 255.308 433.414 254.792 432.778 254.792C432.141 254.792 431.625 255.308 431.625 255.944C431.625 256.581 432.141 257.097 432.778 257.097Z" fill="black"/>
<path d="M478.056 257.097C478.692 257.097 479.208 256.581 479.208 255.944C479.208 255.308 478.692 254.792 478.056 254.792C477.419 254.792 476.903 255.308 476.903 255.944C476.903 256.581 477.419 257.097 478.056 257.097Z" fill="black"/>
<path d="M523.333 257.097C523.97 257.097 524.486 256.581 524.486 255.944C524.486 255.308 523.97 254.792 523.333 254.792C522.697 254.792 522.181 255.308 522.181 255.944C522.181 256.581 522.697 257.097 523.333 257.097Z" fill="black"/>
<path d="M568.611 257.097C569.247 257.097 569.764 256.581 569.764 255.944C569.764 255.308 569.247 254.792 568.611 254.792C567.974 254.792 567.458 255.308 567.458 255.944C567.458 256.581 567.974 257.097 568.611 257.097Z" fill="black"/>
<path d="M613.889 257.097C614.525 257.097 615.041 256.581 615.041 255.944C615.041 255.308 614.525 254.792 613.889 254.792C613.252 254.792 612.736 255.308 612.736 255.944C612.736 256.581 613.252 257.097 613.889 257.097Z" fill="black"/>
<path d="M659.166 257.097C659.803 257.097 660.319 256.581 660.319 255.944C660.319 255.308 659.803 254.792 659.166 254.792C658.53 254.792 658.014 255.308 658.014 255.944C658.014 256.581 658.53 257.097 659.166 257.097Z" fill="black"/>
<path d="M704.444 257.097C705.081 257.097 705.597 256.581 705.597 255.944C705.597 255.308 705.081 254.792 704.444 254.792C703.808 254.792 703.292 255.308 703.292 255.944C703.292 256.581 703.808 257.097 704.444 257.097Z" fill="black"/>
<path d="M749.722 257.097C750.359 257.097 750.875 256.581 750.875 255.944C750.875 255.308 750.359 254.792 749.722 254.792C749.085 254.792 748.569 255.308 748.569 255.944C748.569 256.581 749.085 257.097 749.722 257.097Z" fill="black"/>
<path d="M25.2778 302.375C25.9145 302.375 26.4306 301.859 26.4306 301.222C26.4306 300.586 25.9145 300.069 25.2778 300.069C24.6411 300.069 24.125 300.586 24.125 301.222C24.125 301.859 24.6411 302.375 25.2778 302.375Z" fill="black"/>
<path d="M70.5556 302.375C71.1923 302.375 71.7084 301.859 71.7084 301.222C71.7084 300.586 71.1923 300.069 70.5556 300.069C69.919 300.069 69.4028 300.586 69.4028 301.222C69.4028 301.859 69.919 302.375 70.5556 302.375Z" fill="black"/>
<path d="M115.833 302.375C116.47 302.375 116.986 301.859 116.986 301.222C116.986 300.586 116.47 300.069 115.833 300.069C115.197 300.069 114.681 300.586 114.681 301.222C114.681 301.859 115.197 302.375 115.833 302.375Z" fill="black"/>
<path d="M161.111 302.375C161.747 302.375 162.264 301.859 162.264 301.222C162.264 300.586 161.747 300.069 161.111 300.069C160.474 300.069 159.958 300.586 159.958 301.222C159.958 301.859 160.474 302.375 161.111 302.375Z" fill="black"/>
<path d="M206.389 302.375C207.026 302.375 207.542 301.859 207.542 301.222C207.542 300.586 207.026 300.069 206.389 300.069C205.752 300.069 205.236 300.586 205.236 301.222C205.236 301.859 205.752 302.375 206.389 302.375Z" fill="black"/>
<path d="M251.666 302.375C252.303 302.375 252.819 301.859 252.819 301.222C252.819 300.586 252.303 300.069 251.666 300.069C251.03 300.069 250.514 300.586 250.514 301.222C250.514 301.859 251.03 302.375 251.666 302.375Z" fill="black"/>
<path d="M298.947 306.379C300.689 306.379 302.102 304.967 302.102 303.224C302.102 301.482 300.689 300.069 298.947 300.069C297.204 300.069 295.792 301.482 295.792 303.224C295.792 304.967 297.204 306.379 298.947 306.379Z" fill="#C0343B"/>
<path d="M344.224 306.379C345.967 306.379 347.379 304.967 347.379 303.224C347.379 301.482 345.967 300.069 344.224 300.069C342.482 300.069 341.069 301.482 341.069 303.224C341.069 304.967 342.482 306.379 344.224 306.379Z" fill="#C0343B"/>
<path d="M387.5 302.375C388.137 302.375 388.653 301.859 388.653 301.222C388.653 300.586 388.137 300.069 387.5 300.069C386.863 300.069 386.347 300.586 386.347 301.222C386.347 301.859 386.863 302.375 387.5 302.375Z" fill="black"/>
<path d="M432.778 302.375C433.414 302.375 433.931 301.859 433.931 301.222C433.931 300.586 433.414 300.069 432.778 300.069C432.141 300.069 431.625 300.586 431.625 301.222C431.625 301.859 432.141 302.375 432.778 302.375Z" fill="black"/>
<path d="M478.056 302.375C478.692 302.375 479.208 301.859 479.208 301.222C479.208 300.586 478.692 300.069 478.056 300.069C477.419 300.069 476.903 300.586 476.903 301.222C476.903 301.859 477.419 302.375 478.056 302.375Z" fill="black"/>
<path d="M523.333 302.375C523.97 302.375 524.486 301.859 524.486 301.222C524.486 300.586 523.97 300.069 523.333 300.069C522.697 300.069 522.181 300.586 522.181 301.222C522.181 301.859 522.697 302.375 523.333 302.375Z" fill="black"/>
<path d="M568.611 302.375C569.247 302.375 569.764 301.859 569.764 301.222C569.764 300.586 569.247 300.069 568.611 300.069C567.974 300.069 567.458 300.586 567.458 301.222C567.458 301.859 567.974 302.375 568.611 302.375Z" fill="black"/>
<path d="M613.889 302.375C614.525 302.375 615.041 301.859 615.041 301.222C615.041 300.586 614.525 300.069 613.889 300.069C613.252 300.069 612.736 300.586 612.736 301.222C612.736 301.859 613.252 302.375 613.889 302.375Z" fill="black"/>
<path d="M659.166 302.375C659.803 302.375 660.319 301.859 660.319 301.222C660.319 300.586 659.803 300.069 659.166 300.069C658.53 300.069 658.014 300.586 658.014 301.222C658.014 301.859 658.53 302.375 659.166 302.375Z" fill="black"/>
<path d="M704.444 302.375C705.081 302.375 705.597 301.859 705.597 301.222C705.597 300.586 705.081 300.069 704.444 300.069C703.808 300.069 703.292 300.586 703.292 301.222C703.292 301.859 703.808 302.375 704.444 302.375Z" fill="black"/>
<path d="M749.722 302.375C750.359 302.375 750.875 301.859 750.875 301.222C750.875 300.586 750.359 300.069 749.722 300.069C749.085 300.069 748.569 300.586 748.569 301.222C748.569 301.859 749.085 302.375 749.722 302.375Z" fill="black"/>
<path d="M25.2778 347.653C25.9145 347.653 26.4306 347.137 26.4306 346.5C26.4306 345.863 25.9145 345.347 25.2778 345.347C24.6411 345.347 24.125 345.863 24.125 346.5C24.125 347.137 24.6411 347.653 25.2778 347.653Z" fill="black"/>
<path d="M70.5556 347.653C71.1923 347.653 71.7084 347.137 71.7084 346.5C71.7084 345.863 71.1923 345.347 70.5556 345.347C69.919 345.347 69.4028 345.863 69.4028 346.5C69.4028 347.137 69.919 347.653 70.5556 347.653Z" fill="black"/>
<path d="M115.833 347.653C116.47 347.653 116.986 347.137 116.986 346.5C116.986 345.863 116.47 345.347 115.833 345.347C115.197 345.347 114.681 345.863 114.681 346.5C114.681 347.137 115.197 347.653 115.833 347.653Z" fill="black"/>
<path d="M161.111 347.653C161.747 347.653 162.264 347.137 162.264 346.5C162.264 345.863 161.747 345.347 161.111 345.347C160.474 345.347 159.958 345.863 159.958 346.5C159.958 347.137 160.474 347.653 161.111 347.653Z" fill="black"/>
<path d="M206.389 347.653C207.026 347.653 207.542 347.137 207.542 346.5C207.542 345.863 207.026 345.347 206.389 345.347C205.752 345.347 205.236 345.863 205.236 346.5C205.236 347.137 205.752 347.653 206.389 347.653Z" fill="black"/>
<path d="M251.666 347.653C252.303 347.653 252.819 347.137 252.819 346.5C252.819 345.863 252.303 345.347 251.666 345.347C251.03 345.347 250.514 345.863 250.514 346.5C250.514 347.137 251.03 347.653 251.666 347.653Z" fill="black"/>
<path d="M296.944 347.653C297.581 347.653 298.097 347.137 298.097 346.5C298.097 345.863 297.581 345.347 296.944 345.347C296.308 345.347 295.792 345.863 295.792 346.5C295.792 347.137 296.308 347.653 296.944 347.653Z" fill="black"/>
<path d="M342.222 347.653C342.859 347.653 343.375 347.137 343.375 346.5C343.375 345.863 342.859 345.347 342.222 345.347C341.585 345.347 341.069 345.863 341.069 346.5C341.069 347.137 341.585 347.653 342.222 347.653Z" fill="black"/>
<path d="M387.5 347.653C388.137 347.653 388.653 347.137 388.653 346.5C388.653 345.863 388.137 345.347 387.5 345.347C386.863 345.347 386.347 345.863 386.347 346.5C386.347 347.137 386.863 347.653 387.5 347.653Z" fill="black"/>
<path d="M432.778 347.653C433.414 347.653 433.931 347.137 433.931 346.5C433.931 345.863 433.414 345.347 432.778 345.347C432.141 345.347 431.625 345.863 431.625 346.5C431.625 347.137 432.141 347.653 432.778 347.653Z" fill="black"/>
<path d="M478.056 347.653C478.692 347.653 479.208 347.137 479.208 346.5C479.208 345.863 478.692 345.347 478.056 345.347C477.419 345.347 476.903 345.863 476.903 346.5C476.903 347.137 477.419 347.653 478.056 347.653Z" fill="black"/>
<path d="M523.333 347.653C523.97 347.653 524.486 347.137 524.486 346.5C524.486 345.863 523.97 345.347 523.333 345.347C522.697 345.347 522.181 345.863 522.181 346.5C522.181 347.137 522.697 347.653 523.333 347.653Z" fill="black"/>
<path d="M568.611 347.653C569.247 347.653 569.764 347.137 569.764 346.5C569.764 345.863 569.247 345.347 568.611 345.347C567.974 345.347 567.458 345.863 567.458 346.5C567.458 347.137 567.974 347.653 568.611 347.653Z" fill="black"/>
<path d="M613.889 347.653C614.525 347.653 615.041 347.137 615.041 346.5C615.041 345.863 614.525 345.347 613.889 345.347C613.252 345.347 612.736 345.863 612.736 346.5C612.736 347.137 613.252 347.653 613.889 347.653Z" fill="black"/>
<path d="M659.166 347.653C659.803 347.653 660.319 347.137 660.319 346.5C660.319 345.863 659.803 345.347 659.166 345.347C658.53 345.347 658.014 345.863 658.014 346.5C658.014 347.137 658.53 347.653 659.166 347.653Z" fill="black"/>
<path d="M704.444 347.653C705.081 347.653 705.597 347.137 705.597 346.5C705.597 345.863 705.081 345.347 704.444 345.347C703.808 345.347 703.292 345.863 703.292 346.5C703.292 347.137 703.808 347.653 704.444 347.653Z" fill="black"/>
<path d="M749.722 347.653C750.359 347.653 750.875 347.137 750.875 346.5C750.875 345.863 750.359 345.347 749.722 345.347C749.085 345.347 748.569 345.863 748.569 346.5C748.569 347.137 749.085 347.653 749.722 347.653Z" fill="black"/>
<path d="M25.2778 392.931C25.9145 392.931 26.4306 392.414 26.4306 391.778C26.4306 391.141 25.9145 390.625 25.2778 390.625C24.6411 390.625 24.125 391.141 24.125 391.778C24.125 392.414 24.6411 392.931 25.2778 392.931Z" fill="black"/>
<path d="M70.5556 392.931C71.1923 392.931 71.7084 392.414 71.7084 391.778C71.7084 391.141 71.1923 390.625 70.5556 390.625C69.919 390.625 69.4028 391.141 69.4028 391.778C69.4028 392.414 69.919 392.931 70.5556 392.931Z" fill="black"/>
<path d="M115.833 392.931C116.47 392.931 116.986 392.414 116.986 391.778C116.986 391.141 116.47 390.625 115.833 390.625C115.197 390.625 114.681 391.141 114.681 391.778C114.681 392.414 115.197 392.931 115.833 392.931Z" fill="black"/>
<path d="M161.111 392.931C161.747 392.931 162.264 392.414 162.264 391.778C162.264 391.141 161.747 390.625 161.111 390.625C160.474 390.625 159.958 391.141 159.958 391.778C159.958 392.414 160.474 392.931 161.111 392.931Z" fill="black"/>
<path d="M206.389 392.931C207.026 392.931 207.542 392.414 207.542 391.778C207.542 391.141 207.026 390.625 206.389 390.625C205.752 390.625 205.236 391.141 205.236 391.778C205.236 392.414 205.752 392.931 206.389 392.931Z" fill="black"/>
<path d="M251.666 392.931C252.303 392.931 252.819 392.414 252.819 391.778C252.819 391.141 252.303 390.625 251.666 390.625C251.03 390.625 250.514 391.141 250.514 391.778C250.514 392.414 251.03 392.931 251.666 392.931Z" fill="black"/>
<path d="M296.944 392.931C297.581 392.931 298.097 392.414 298.097 391.778C298.097 391.141 297.581 390.625 296.944 390.625C296.308 390.625 295.792 391.141 295.792 391.778C295.792 392.414 296.308 392.931 296.944 392.931Z" fill="black"/>
<path d="M342.222 392.931C342.859 392.931 343.375 392.414 343.375 391.778C343.375 391.141 342.859 390.625 342.222 390.625C341.585 390.625 341.069 391.141 341.069 391.778C341.069 392.414 341.585 392.931 342.222 392.931Z" fill="black"/>
<path d="M387.5 392.931C388.137 392.931 388.653 392.414 388.653 391.778C388.653 391.141 388.137 390.625 387.5 390.625C386.863 390.625 386.347 391.141 386.347 391.778C386.347 392.414 386.863 392.931 387.5 392.931Z" fill="black"/>
<path d="M432.778 392.931C433.414 392.931 433.931 392.414 433.931 391.778C433.931 391.141 433.414 390.625 432.778 390.625C432.141 390.625 431.625 391.141 431.625 391.778C431.625 392.414 432.141 392.931 432.778 392.931Z" fill="black"/>
<path d="M478.056 392.931C478.692 392.931 479.208 392.414 479.208 391.778C479.208 391.141 478.692 390.625 478.056 390.625C477.419 390.625 476.903 391.141 476.903 391.778C476.903 392.414 477.419 392.931 478.056 392.931Z" fill="black"/>
<path d="M523.333 392.931C523.97 392.931 524.486 392.414 524.486 391.778C524.486 391.141 523.97 390.625 523.333 390.625C522.697 390.625 522.181 391.141 522.181 391.778C522.181 392.414 522.697 392.931 523.333 392.931Z" fill="black"/>
<path d="M568.611 392.931C569.247 392.931 569.764 392.414 569.764 391.778C569.764 391.141 569.247 390.625 568.611 390.625C567.974 390.625 567.458 391.141 567.458 391.778C567.458 392.414 567.974 392.931 568.611 392.931Z" fill="black"/>
<path d="M613.889 392.931C614.525 392.931 615.041 392.414 615.041 391.778C615.041 391.141 614.525 390.625 613.889 390.625C613.252 390.625 612.736 391.141 612.736 391.778C612.736 392.414 613.252 392.931 613.889 392.931Z" fill="black"/>
<path d="M659.166 392.931C659.803 392.931 660.319 392.414 660.319 391.778C660.319 391.141 659.803 390.625 659.166 390.625C658.53 390.625 658.014 391.141 658.014 391.778C658.014 392.414 658.53 392.931 659.166 392.931Z" fill="black"/>
<path d="M704.444 392.931C705.081 392.931 705.597 392.414 705.597 391.778C705.597 391.141 705.081 390.625 704.444 390.625C703.808 390.625 703.292 391.141 703.292 391.778C703.292 392.414 703.808 392.931 704.444 392.931Z" fill="black"/>
<path d="M749.722 392.931C750.359 392.931 750.875 392.414 750.875 391.778C750.875 391.141 750.359 390.625 749.722 390.625C749.085 390.625 748.569 391.141 748.569 391.778C748.569 392.414 749.085 392.931 749.722 392.931Z" fill="black"/>
</g>
</g>
<defs>
<clipPath id="clip0_28_19695">
<rect width="775" height="421" rx="20" fill="white"/>
</clipPath>
<clipPath id="clip1_28_19695">
<rect width="815" height="815" fill="white" transform="translate(-20 -61)"/>
</clipPath>
</defs>
</svg>
