<svg width="775" height="421" viewBox="0 0 775 421" fill="none" xmlns="http://www.w3.org/2000/svg">
<g clip-path="url(#clip0_28_19695)">
<g clip-path="url(#clip1_28_19695)">
<path d="M26.28 32.7128C27.4702 32.7128 28.435 31.7479 28.435 30.5578C28.435 29.3676 27.4702 28.4028 26.28 28.4028C25.0898 28.4028 24.125 29.3676 24.125 30.5578C24.125 31.7479 25.0898 32.7128 26.28 32.7128Z" fill="black"/>
<path d="M71.5578 32.7128C72.748 32.7128 73.7128 31.7479 73.7128 30.5578C73.7128 29.3676 72.748 28.4028 71.5578 28.4028C70.3677 28.4028 69.4028 29.3676 69.4028 30.5578C69.4028 31.7479 70.3677 32.7128 71.5578 32.7128Z" fill="black"/>
<path d="M116.836 32.7128C118.026 32.7128 118.991 31.7479 118.991 30.5578C118.991 29.3676 118.026 28.4028 116.836 28.4028C115.645 28.4028 114.681 29.3676 114.681 30.5578C114.681 31.7479 115.645 32.7128 116.836 32.7128Z" fill="black"/>
<path d="M162.113 32.7128C163.303 32.7128 164.268 31.7479 164.268 30.5578C164.268 29.3676 163.303 28.4028 162.113 28.4028C160.923 28.4028 159.958 29.3676 159.958 30.5578C159.958 31.7479 160.923 32.7128 162.113 32.7128Z" fill="black"/>
<path d="M207.391 32.7128C208.582 32.7128 209.546 31.7479 209.546 30.5578C209.546 29.3676 208.582 28.4028 207.391 28.4028C206.201 28.4028 205.236 29.3676 205.236 30.5578C205.236 31.7479 206.201 32.7128 207.391 32.7128Z" fill="black"/>
<path d="M252.669 32.7128C253.859 32.7128 254.824 31.7479 254.824 30.5578C254.824 29.3676 253.859 28.4028 252.669 28.4028C251.478 28.4028 250.514 29.3676 250.514 30.5578C250.514 31.7479 251.478 32.7128 252.669 32.7128Z" fill="black"/>
<path d="M297.947 32.7128C299.137 32.7128 300.102 31.7479 300.102 30.5578C300.102 29.3676 299.137 28.4028 297.947 28.4028C296.756 28.4028 295.792 29.3676 295.792 30.5578C295.792 31.7479 296.756 32.7128 297.947 32.7128Z" fill="black"/>
<path d="M343.224 32.7128C344.414 32.7128 345.379 31.7479 345.379 30.5578C345.379 29.3676 344.414 28.4028 343.224 28.4028C342.034 28.4028 341.069 29.3676 341.069 30.5578C341.069 31.7479 342.034 32.7128 343.224 32.7128Z" fill="black"/>
<path d="M388.502 32.7127C389.692 32.7127 390.657 31.7479 390.657 30.5577C390.657 29.3676 389.692 28.4028 388.502 28.4028C387.312 28.4028 386.347 29.3676 386.347 30.5577C386.347 31.7479 387.312 32.7127 388.502 32.7127Z" fill="black"/>
<path d="M433.78 32.7128C434.97 32.7128 435.935 31.7479 435.935 30.5578C435.935 29.3676 434.97 28.4028 433.78 28.4028C432.59 28.4028 431.625 29.3676 431.625 30.5578C431.625 31.7479 432.59 32.7128 433.78 32.7128Z" fill="black"/>
<path d="M479.058 32.7128C480.248 32.7128 481.213 31.7479 481.213 30.5578C481.213 29.3676 480.248 28.4028 479.058 28.4028C477.868 28.4028 476.903 29.3676 476.903 30.5578C476.903 31.7479 477.868 32.7128 479.058 32.7128Z" fill="black"/>
<path d="M524.336 32.7128C525.526 32.7128 526.491 31.748 526.491 30.5578C526.491 29.3676 525.526 28.4028 524.336 28.4028C523.145 28.4028 522.181 29.3676 522.181 30.5578C522.181 31.748 523.145 32.7128 524.336 32.7128Z" fill="black"/>
<path d="M569.613 32.7127C570.803 32.7127 571.768 31.7479 571.768 30.5577C571.768 29.3676 570.803 28.4028 569.613 28.4028C568.423 28.4028 567.458 29.3676 567.458 30.5577C567.458 31.7479 568.423 32.7127 569.613 32.7127Z" fill="black"/>
<path d="M614.891 32.7127C616.081 32.7127 617.046 31.7479 617.046 30.5577C617.046 29.3676 616.081 28.4028 614.891 28.4028C613.701 28.4028 612.736 29.3676 612.736 30.5577C612.736 31.7479 613.701 32.7127 614.891 32.7127Z" fill="black"/>
<path d="M660.169 32.7128C661.359 32.7128 662.324 31.748 662.324 30.5578C662.324 29.3676 661.359 28.4028 660.169 28.4028C658.979 28.4028 658.014 29.3676 658.014 30.5578C658.014 31.748 658.979 32.7128 660.169 32.7128Z" fill="black"/>
<path d="M705.446 32.7128C706.637 32.7128 707.602 31.748 707.602 30.5578C707.602 29.3676 706.637 28.4028 705.446 28.4028C704.256 28.4028 703.292 29.3676 703.292 30.5578C703.292 31.748 704.256 32.7128 705.446 32.7128Z" fill="black"/>
<path d="M750.724 32.7127C751.914 32.7127 752.879 31.7479 752.879 30.5577C752.879 29.3676 751.914 28.4028 750.724 28.4028C749.534 28.4028 748.569 29.3676 748.569 30.5577C748.569 31.7479 749.534 32.7127 750.724 32.7127Z" fill="black"/>
<path d="M26.28 77.9906C27.4702 77.9906 28.435 77.0257 28.435 75.8356C28.435 74.6454 27.4702 73.6806 26.28 73.6806C25.0898 73.6806 24.125 74.6454 24.125 75.8356C24.125 77.0257 25.0898 77.9906 26.28 77.9906Z" fill="black"/>
<path d="M71.5578 77.9906C72.748 77.9906 73.7128 77.0257 73.7128 75.8356C73.7128 74.6454 72.748 73.6806 71.5578 73.6806C70.3677 73.6806 69.4028 74.6454 69.4028 75.8356C69.4028 77.0257 70.3677 77.9906 71.5578 77.9906Z" fill="black"/>
<path d="M116.836 77.9906C118.026 77.9906 118.991 77.0257 118.991 75.8356C118.991 74.6454 118.026 73.6806 116.836 73.6806C115.645 73.6806 114.681 74.6454 114.681 75.8356C114.681 77.0257 115.645 77.9906 116.836 77.9906Z" fill="black"/>
<path d="M162.113 77.9905C163.303 77.9905 164.268 77.0257 164.268 75.8356C164.268 74.6454 163.303 73.6806 162.113 73.6806C160.923 73.6806 159.958 74.6454 159.958 75.8356C159.958 77.0257 160.923 77.9905 162.113 77.9905Z" fill="black"/>
<path d="M207.391 77.9905C208.582 77.9905 209.546 77.0257 209.546 75.8356C209.546 74.6454 208.582 73.6806 207.391 73.6806C206.201 73.6806 205.236 74.6454 205.236 75.8356C205.236 77.0257 206.201 77.9905 207.391 77.9905Z" fill="black"/>
<path d="M252.669 77.9906C253.859 77.9906 254.824 77.0257 254.824 75.8356C254.824 74.6454 253.859 73.6806 252.669 73.6806C251.478 73.6806 250.514 74.6454 250.514 75.8356C250.514 77.0257 251.478 77.9906 252.669 77.9906Z" fill="black"/>
<path d="M297.947 77.9906C299.137 77.9906 300.102 77.0257 300.102 75.8356C300.102 74.6454 299.137 73.6806 297.947 73.6806C296.756 73.6806 295.792 74.6454 295.792 75.8356C295.792 77.0257 296.756 77.9906 297.947 77.9906Z" fill="black"/>
<path d="M343.224 77.9906C344.414 77.9906 345.379 77.0257 345.379 75.8356C345.379 74.6454 344.414 73.6806 343.224 73.6806C342.034 73.6806 341.069 74.6454 341.069 75.8356C341.069 77.0257 342.034 77.9906 343.224 77.9906Z" fill="black"/>
<path d="M388.502 77.9905C389.692 77.9905 390.657 77.0257 390.657 75.8355C390.657 74.6454 389.692 73.6806 388.502 73.6806C387.312 73.6806 386.347 74.6454 386.347 75.8355C386.347 77.0257 387.312 77.9905 388.502 77.9905Z" fill="black"/>
<path d="M433.78 77.9906C434.97 77.9906 435.935 77.0257 435.935 75.8356C435.935 74.6454 434.97 73.6806 433.78 73.6806C432.59 73.6806 431.625 74.6454 431.625 75.8356C431.625 77.0257 432.59 77.9906 433.78 77.9906Z" fill="black"/>
<path d="M479.058 77.9906C480.248 77.9906 481.213 77.0257 481.213 75.8356C481.213 74.6454 480.248 73.6806 479.058 73.6806C477.868 73.6806 476.903 74.6454 476.903 75.8356C476.903 77.0257 477.868 77.9906 479.058 77.9906Z" fill="black"/>
<path d="M524.336 77.9906C525.526 77.9906 526.491 77.0258 526.491 75.8356C526.491 74.6454 525.526 73.6806 524.336 73.6806C523.145 73.6806 522.181 74.6454 522.181 75.8356C522.181 77.0258 523.145 77.9906 524.336 77.9906Z" fill="black"/>
<path d="M569.613 77.9905C570.803 77.9905 571.768 77.0257 571.768 75.8355C571.768 74.6454 570.803 73.6806 569.613 73.6806C568.423 73.6806 567.458 74.6454 567.458 75.8355C567.458 77.0257 568.423 77.9905 569.613 77.9905Z" fill="black"/>
<path d="M614.891 77.9905C616.081 77.9905 617.046 77.0257 617.046 75.8355C617.046 74.6454 616.081 73.6806 614.891 73.6806C613.701 73.6806 612.736 74.6454 612.736 75.8355C612.736 77.0257 613.701 77.9905 614.891 77.9905Z" fill="black"/>
<path d="M660.169 77.9906C661.359 77.9906 662.324 77.0258 662.324 75.8356C662.324 74.6454 661.359 73.6806 660.169 73.6806C658.979 73.6806 658.014 74.6454 658.014 75.8356C658.014 77.0258 658.979 77.9906 660.169 77.9906Z" fill="black"/>
<path d="M705.446 77.9906C706.637 77.9906 707.602 77.0258 707.602 75.8356C707.602 74.6454 706.637 73.6806 705.446 73.6806C704.256 73.6806 703.292 74.6454 703.292 75.8356C703.292 77.0258 704.256 77.9906 705.446 77.9906Z" fill="black"/>
<path d="M750.724 77.9905C751.914 77.9905 752.879 77.0257 752.879 75.8355C752.879 74.6454 751.914 73.6806 750.724 73.6806C749.534 73.6806 748.569 74.6454 748.569 75.8355C748.569 77.0257 749.534 77.9905 750.724 77.9905Z" fill="black"/>
<path d="M26.28 123.268C27.4702 123.268 28.435 122.303 28.435 121.113C28.435 119.923 27.4702 118.958 26.28 118.958C25.0898 118.958 24.125 119.923 24.125 121.113C24.125 122.303 25.0898 123.268 26.28 123.268Z" fill="black"/>
<path d="M71.5578 123.268C72.748 123.268 73.7128 122.303 73.7128 121.113C73.7128 119.923 72.748 118.958 71.5578 118.958C70.3677 118.958 69.4028 119.923 69.4028 121.113C69.4028 122.303 70.3677 123.268 71.5578 123.268Z" fill="black"/>
<path d="M116.836 123.268C118.026 123.268 118.991 122.303 118.991 121.113C118.991 119.923 118.026 118.958 116.836 118.958C115.645 118.958 114.681 119.923 114.681 121.113C114.681 122.303 115.645 123.268 116.836 123.268Z" fill="black"/>
<path d="M162.113 123.268C163.303 123.268 164.268 122.303 164.268 121.113C164.268 119.923 163.303 118.958 162.113 118.958C160.923 118.958 159.958 119.923 159.958 121.113C159.958 122.303 160.923 123.268 162.113 123.268Z" fill="black"/>
<path d="M207.391 123.268C208.582 123.268 209.546 122.303 209.546 121.113C209.546 119.923 208.582 118.958 207.391 118.958C206.201 118.958 205.236 119.923 205.236 121.113C205.236 122.303 206.201 123.268 207.391 123.268Z" fill="black"/>
<path d="M252.669 123.268C253.859 123.268 254.824 122.303 254.824 121.113C254.824 119.923 253.859 118.958 252.669 118.958C251.478 118.958 250.514 119.923 250.514 121.113C250.514 122.303 251.478 123.268 252.669 123.268Z" fill="black"/>
<path d="M298.947 125.268C300.689 125.268 302.102 123.856 302.102 122.113C302.102 120.371 300.689 118.958 298.947 118.958C297.204 118.958 295.792 120.371 295.792 122.113C295.792 123.856 297.204 125.268 298.947 125.268Z" fill="#C0343B"/>
<path d="M344.224 125.268C345.967 125.268 347.379 123.856 347.379 122.113C347.379 120.371 345.967 118.958 344.224 118.958C342.482 118.958 341.069 120.371 341.069 122.113C341.069 123.856 342.482 125.268 344.224 125.268Z" fill="#C0343B"/>
<path d="M388.502 123.268C389.692 123.268 390.657 122.303 390.657 121.113C390.657 119.923 389.692 118.958 388.502 118.958C387.312 118.958 386.347 119.923 386.347 121.113C386.347 122.303 387.312 123.268 388.502 123.268Z" fill="black"/>
<path d="M433.78 123.268C434.97 123.268 435.935 122.303 435.935 121.113C435.935 119.923 434.97 118.958 433.78 118.958C432.59 118.958 431.625 119.923 431.625 121.113C431.625 122.303 432.59 123.268 433.78 123.268Z" fill="black"/>
<path d="M479.058 123.268C480.248 123.268 481.213 122.303 481.213 121.113C481.213 119.923 480.248 118.958 479.058 118.958C477.868 118.958 476.903 119.923 476.903 121.113C476.903 122.303 477.868 123.268 479.058 123.268Z" fill="black"/>
<path d="M524.336 123.268C525.526 123.268 526.491 122.304 526.491 121.113C526.491 119.923 525.526 118.958 524.336 118.958C523.145 118.958 522.181 119.923 522.181 121.113C522.181 122.304 523.145 123.268 524.336 123.268Z" fill="black"/>
<path d="M569.613 123.268C570.803 123.268 571.768 122.303 571.768 121.113C571.768 119.923 570.803 118.958 569.613 118.958C568.423 118.958 567.458 119.923 567.458 121.113C567.458 122.303 568.423 123.268 569.613 123.268Z" fill="black"/>
<path d="M614.891 123.268C616.081 123.268 617.046 122.303 617.046 121.113C617.046 119.923 616.081 118.958 614.891 118.958C613.701 118.958 612.736 119.923 612.736 121.113C612.736 122.303 613.701 123.268 614.891 123.268Z" fill="black"/>
<path d="M660.169 123.268C661.359 123.268 662.324 122.304 662.324 121.113C662.324 119.923 661.359 118.958 660.169 118.958C658.979 118.958 658.014 119.923 658.014 121.113C658.014 122.304 658.979 123.268 660.169 123.268Z" fill="black"/>
<path d="M705.446 123.268C706.637 123.268 707.602 122.304 707.602 121.113C707.602 119.923 706.637 118.958 705.446 118.958C704.256 118.958 703.292 119.923 703.292 121.113C703.292 122.304 704.256 123.268 705.446 123.268Z" fill="black"/>
<path d="M750.724 123.268C751.914 123.268 752.879 122.303 752.879 121.113C752.879 119.923 751.914 118.958 750.724 118.958C749.534 118.958 748.569 119.923 748.569 121.113C748.569 122.303 749.534 123.268 750.724 123.268Z" fill="black"/>
<path d="M26.28 168.546C27.4702 168.546 28.435 167.581 28.435 166.391C28.435 165.201 27.4702 164.236 26.28 164.236C25.0898 164.236 24.125 165.201 24.125 166.391C24.125 167.581 25.0898 168.546 26.28 168.546Z" fill="black"/>
<path d="M71.5578 168.546C72.748 168.546 73.7128 167.581 73.7128 166.391C73.7128 165.201 72.748 164.236 71.5578 164.236C70.3677 164.236 69.4028 165.201 69.4028 166.391C69.4028 167.581 70.3677 168.546 71.5578 168.546Z" fill="black"/>
<path d="M116.836 168.546C118.026 168.546 118.991 167.581 118.991 166.391C118.991 165.201 118.026 164.236 116.836 164.236C115.645 164.236 114.681 165.201 114.681 166.391C114.681 167.581 115.645 168.546 116.836 168.546Z" fill="black"/>
<path d="M162.113 168.546C163.303 168.546 164.268 167.581 164.268 166.391C164.268 165.201 163.303 164.236 162.113 164.236C160.923 164.236 159.958 165.201 159.958 166.391C159.958 167.581 160.923 168.546 162.113 168.546Z" fill="black"/>
<path d="M207.391 168.546C208.582 168.546 209.546 167.581 209.546 166.391C209.546 165.201 208.582 164.236 207.391 164.236C206.201 164.236 205.236 165.201 205.236 166.391C205.236 167.581 206.201 168.546 207.391 168.546Z" fill="black"/>
<path d="M252.669 168.546C253.859 168.546 254.824 167.581 254.824 166.391C254.824 165.201 253.859 164.236 252.669 164.236C251.478 164.236 250.514 165.201 250.514 166.391C250.514 167.581 251.478 168.546 252.669 168.546Z" fill="black"/>
<path d="M298.947 170.546C300.689 170.546 302.102 169.134 302.102 167.391C302.102 165.649 300.689 164.236 298.947 164.236C297.204 164.236 295.792 165.649 295.792 167.391C295.792 169.134 297.204 170.546 298.947 170.546Z" fill="#C0343B"/>
<path d="M344.224 170.546C345.967 170.546 347.379 169.134 347.379 167.391C347.379 165.649 345.967 164.236 344.224 164.236C342.482 164.236 341.069 165.649 341.069 167.391C341.069 169.134 342.482 170.546 344.224 170.546Z" fill="#C0343B"/>
<path d="M389.502 170.546C391.245 170.546 392.657 169.134 392.657 167.391C392.657 165.649 391.245 164.236 389.502 164.236C387.76 164.236 386.347 165.649 386.347 167.391C386.347 169.134 387.76 170.546 389.502 170.546Z" fill="#C0343B"/>
<path d="M433.78 168.546C434.97 168.546 435.935 167.581 435.935 166.391C435.935 165.201 434.97 164.236 433.78 164.236C432.59 164.236 431.625 165.201 431.625 166.391C431.625 167.581 432.59 168.546 433.78 168.546Z" fill="black"/>
<path d="M479.058 168.546C480.248 168.546 481.213 167.581 481.213 166.391C481.213 165.201 480.248 164.236 479.058 164.236C477.868 164.236 476.903 165.201 476.903 166.391C476.903 167.581 477.868 168.546 479.058 168.546Z" fill="black"/>
<path d="M524.336 168.546C525.526 168.546 526.491 167.581 526.491 166.391C526.491 165.201 525.526 164.236 524.336 164.236C523.145 164.236 522.181 165.201 522.181 166.391C522.181 167.581 523.145 168.546 524.336 168.546Z" fill="black"/>
<path d="M569.613 168.546C570.803 168.546 571.768 167.581 571.768 166.391C571.768 165.201 570.803 164.236 569.613 164.236C568.423 164.236 567.458 165.201 567.458 166.391C567.458 167.581 568.423 168.546 569.613 168.546Z" fill="black"/>
<path d="M614.891 168.546C616.081 168.546 617.046 167.581 617.046 166.391C617.046 165.201 616.081 164.236 614.891 164.236C613.701 164.236 612.736 165.201 612.736 166.391C612.736 167.581 613.701 168.546 614.891 168.546Z" fill="black"/>
<path d="M660.169 168.546C661.359 168.546 662.324 167.581 662.324 166.391C662.324 165.201 661.359 164.236 660.169 164.236C658.979 164.236 658.014 165.201 658.014 166.391C658.014 167.581 658.979 168.546 660.169 168.546Z" fill="black"/>
<path d="M705.446 168.546C706.637 168.546 707.602 167.581 707.602 166.391C707.602 165.201 706.637 164.236 705.446 164.236C704.256 164.236 703.292 165.201 703.292 166.391C703.292 167.581 704.256 168.546 705.446 168.546Z" fill="black"/>
<path d="M750.724 168.546C751.914 168.546 752.879 167.581 752.879 166.391C752.879 165.201 751.914 164.236 750.724 164.236C749.534 164.236 748.569 165.201 748.569 166.391C748.569 167.581 749.534 168.546 750.724 168.546Z" fill="black"/>
<path d="M26.28 213.824C27.4702 213.824 28.435 212.859 28.435 211.669C28.435 210.479 27.4702 209.514 26.28 209.514C25.0898 209.514 24.125 210.479 24.125 211.669C24.125 212.859 25.0898 213.824 26.28 213.824Z" fill="black"/>
<path d="M71.5578 213.824C72.748 213.824 73.7128 212.859 73.7128 211.669C73.7128 210.479 72.748 209.514 71.5578 209.514C70.3677 209.514 69.4028 210.479 69.4028 211.669C69.4028 212.859 70.3677 213.824 71.5578 213.824Z" fill="black"/>
<path d="M116.836 213.824C118.026 213.824 118.991 212.859 118.991 211.669C118.991 210.479 118.026 209.514 116.836 209.514C115.645 209.514 114.681 210.479 114.681 211.669C114.681 212.859 115.645 213.824 116.836 213.824Z" fill="black"/>
<path d="M162.113 213.824C163.303 213.824 164.268 212.859 164.268 211.669C164.268 210.479 163.303 209.514 162.113 209.514C160.923 209.514 159.958 210.479 159.958 211.669C159.958 212.859 160.923 213.824 162.113 213.824Z" fill="black"/>
<path d="M207.391 213.824C208.582 213.824 209.546 212.859 209.546 211.669C209.546 210.479 208.582 209.514 207.391 209.514C206.201 209.514 205.236 210.479 205.236 211.669C205.236 212.859 206.201 213.824 207.391 213.824Z" fill="black"/>
<path d="M252.669 213.824C253.859 213.824 254.824 212.859 254.824 211.669C254.824 210.479 253.859 209.514 252.669 209.514C251.478 209.514 250.514 210.479 250.514 211.669C250.514 212.859 251.478 213.824 252.669 213.824Z" fill="black"/>
<path d="M298.947 215.824C300.689 215.824 302.102 214.411 302.102 212.669C302.102 210.926 300.689 209.514 298.947 209.514C297.204 209.514 295.792 210.926 295.792 212.669C295.792 214.411 297.204 215.824 298.947 215.824Z" fill="#C0343B"/>
<path d="M344.224 215.824C345.967 215.824 347.379 214.411 347.379 212.669C347.379 210.926 345.967 209.514 344.224 209.514C342.482 209.514 341.069 210.926 341.069 212.669C341.069 214.411 342.482 215.824 344.224 215.824Z" fill="#C0343B"/>
<path d="M389.502 215.824C391.245 215.824 392.657 214.411 392.657 212.669C392.657 210.926 391.245 209.514 389.502 209.514C387.76 209.514 386.347 210.926 386.347 212.669C386.347 214.411 387.76 215.824 389.502 215.824Z" fill="#C0343B"/>
<path d="M434.78 215.824C436.523 215.824 437.935 214.411 437.935 212.669C437.935 210.926 436.523 209.514 434.78 209.514C433.038 209.514 431.625 210.926 431.625 212.669C431.625 214.411 433.038 215.824 434.78 215.824Z" fill="#C0343B"/>
<path d="M479.058 213.824C480.248 213.824 481.213 212.859 481.213 211.669C481.213 210.479 480.248 209.514 479.058 209.514C477.868 209.514 476.903 210.479 476.903 211.669C476.903 212.859 477.868 213.824 479.058 213.824Z" fill="black"/>
<path d="M524.336 213.824C525.526 213.824 526.491 212.859 526.491 211.669C526.491 210.479 525.526 209.514 524.336 209.514C523.145 209.514 522.181 210.479 522.181 211.669C522.181 212.859 523.145 213.824 524.336 213.824Z" fill="black"/>
<path d="M569.613 213.824C570.803 213.824 571.768 212.859 571.768 211.669C571.768 210.479 570.803 209.514 569.613 209.514C568.423 209.514 567.458 210.479 567.458 211.669C567.458 212.859 568.423 213.824 569.613 213.824Z" fill="black"/>
<path d="M614.891 213.824C616.081 213.824 617.046 212.859 617.046 211.669C617.046 210.479 616.081 209.514 614.891 209.514C613.701 209.514 612.736 210.479 612.736 211.669C612.736 212.859 613.701 213.824 614.891 213.824Z" fill="black"/>
<path d="M660.169 213.824C661.359 213.824 662.324 212.859 662.324 211.669C662.324 210.479 661.359 209.514 660.169 209.514C658.979 209.514 658.014 210.479 658.014 211.669C658.014 212.859 658.979 213.824 660.169 213.824Z" fill="black"/>
<path d="M705.446 213.824C706.637 213.824 707.602 212.859 707.602 211.669C707.602 210.479 706.637 209.514 705.446 209.514C704.256 209.514 703.292 210.479 703.292 211.669C703.292 212.859 704.256 213.824 705.446 213.824Z" fill="black"/>
<path d="M750.724 213.824C751.914 213.824 752.879 212.859 752.879 211.669C752.879 210.479 751.914 209.514 750.724 209.514C749.534 209.514 748.569 210.479 748.569 211.669C748.569 212.859 749.534 213.824 750.724 213.824Z" fill="black"/>
<path d="M26.28 259.102C27.4702 259.102 28.435 258.137 28.435 256.947C28.435 255.757 27.4702 254.792 26.28 254.792C25.0898 254.792 24.125 255.757 24.125 256.947C24.125 258.137 25.0898 259.102 26.28 259.102Z" fill="black"/>
<path d="M71.5578 259.102C72.748 259.102 73.7128 258.137 73.7128 256.947C73.7128 255.757 72.748 254.792 71.5578 254.792C70.3677 254.792 69.4028 255.757 69.4028 256.947C69.4028 258.137 70.3677 259.102 71.5578 259.102Z" fill="black"/>
<path d="M116.836 259.102C118.026 259.102 118.991 258.137 118.991 256.947C118.991 255.757 118.026 254.792 116.836 254.792C115.645 254.792 114.681 255.757 114.681 256.947C114.681 258.137 115.645 259.102 116.836 259.102Z" fill="black"/>
<path d="M162.113 259.102C163.303 259.102 164.268 258.137 164.268 256.947C164.268 255.757 163.303 254.792 162.113 254.792C160.923 254.792 159.958 255.757 159.958 256.947C159.958 258.137 160.923 259.102 162.113 259.102Z" fill="black"/>
<path d="M207.391 259.102C208.582 259.102 209.546 258.137 209.546 256.947C209.546 255.757 208.582 254.792 207.391 254.792C206.201 254.792 205.236 255.757 205.236 256.947C205.236 258.137 206.201 259.102 207.391 259.102Z" fill="black"/>
<path d="M252.669 259.102C253.859 259.102 254.824 258.137 254.824 256.947C254.824 255.757 253.859 254.792 252.669 254.792C251.478 254.792 250.514 255.757 250.514 256.947C250.514 258.137 251.478 259.102 252.669 259.102Z" fill="black"/>
<path d="M298.947 261.102C300.689 261.102 302.102 259.689 302.102 257.947C302.102 256.204 300.689 254.792 298.947 254.792C297.204 254.792 295.792 256.204 295.792 257.947C295.792 259.689 297.204 261.102 298.947 261.102Z" fill="#C0343B"/>
<path d="M344.224 261.102C345.967 261.102 347.379 259.689 347.379 257.947C347.379 256.204 345.967 254.792 344.224 254.792C342.482 254.792 341.069 256.204 341.069 257.947C341.069 259.689 342.482 261.102 344.224 261.102Z" fill="#C0343B"/>
<path d="M389.502 261.102C391.245 261.102 392.657 259.689 392.657 257.947C392.657 256.204 391.245 254.792 389.502 254.792C387.76 254.792 386.347 256.204 386.347 257.947C386.347 259.689 387.76 261.102 389.502 261.102Z" fill="#C0343B"/>
<path d="M433.78 259.102C434.97 259.102 435.935 258.137 435.935 256.947C435.935 255.757 434.97 254.792 433.78 254.792C432.59 254.792 431.625 255.757 431.625 256.947C431.625 258.137 432.59 259.102 433.78 259.102Z" fill="black"/>
<path d="M479.058 259.102C480.248 259.102 481.213 258.137 481.213 256.947C481.213 255.757 480.248 254.792 479.058 254.792C477.868 254.792 476.903 255.757 476.903 256.947C476.903 258.137 477.868 259.102 479.058 259.102Z" fill="black"/>
<path d="M524.336 259.102C525.526 259.102 526.491 258.137 526.491 256.947C526.491 255.757 525.526 254.792 524.336 254.792C523.145 254.792 522.181 255.757 522.181 256.947C522.181 258.137 523.145 259.102 524.336 259.102Z" fill="black"/>
<path d="M569.613 259.102C570.803 259.102 571.768 258.137 571.768 256.947C571.768 255.756 570.803 254.792 569.613 254.792C568.423 254.792 567.458 255.756 567.458 256.947C567.458 258.137 568.423 259.102 569.613 259.102Z" fill="black"/>
<path d="M614.891 259.102C616.081 259.102 617.046 258.137 617.046 256.947C617.046 255.756 616.081 254.792 614.891 254.792C613.701 254.792 612.736 255.756 612.736 256.947C612.736 258.137 613.701 259.102 614.891 259.102Z" fill="black"/>
<path d="M660.169 259.102C661.359 259.102 662.324 258.137 662.324 256.947C662.324 255.757 661.359 254.792 660.169 254.792C658.979 254.792 658.014 255.757 658.014 256.947C658.014 258.137 658.979 259.102 660.169 259.102Z" fill="black"/>
<path d="M705.446 259.102C706.637 259.102 707.602 258.137 707.602 256.947C707.602 255.757 706.637 254.792 705.446 254.792C704.256 254.792 703.292 255.757 703.292 256.947C703.292 258.137 704.256 259.102 705.446 259.102Z" fill="black"/>
<path d="M750.724 259.102C751.914 259.102 752.879 258.137 752.879 256.947C752.879 255.756 751.914 254.792 750.724 254.792C749.534 254.792 748.569 255.756 748.569 256.947C748.569 258.137 749.534 259.102 750.724 259.102Z" fill="black"/>
<path d="M26.28 304.379C27.4702 304.379 28.435 303.415 28.435 302.224C28.435 301.034 27.4702 300.069 26.28 300.069C25.0898 300.069 24.125 301.034 24.125 302.224C24.125 303.415 25.0898 304.379 26.28 304.379Z" fill="black"/>
<path d="M71.5578 304.379C72.748 304.379 73.7128 303.415 73.7128 302.224C73.7128 301.034 72.748 300.069 71.5578 300.069C70.3677 300.069 69.4028 301.034 69.4028 302.224C69.4028 303.415 70.3677 304.379 71.5578 304.379Z" fill="black"/>
<path d="M116.836 304.379C118.026 304.379 118.991 303.415 118.991 302.224C118.991 301.034 118.026 300.069 116.836 300.069C115.645 300.069 114.681 301.034 114.681 302.224C114.681 303.415 115.645 304.379 116.836 304.379Z" fill="black"/>
<path d="M162.113 304.379C163.303 304.379 164.268 303.415 164.268 302.224C164.268 301.034 163.303 300.069 162.113 300.069C160.923 300.069 159.958 301.034 159.958 302.224C159.958 303.415 160.923 304.379 162.113 304.379Z" fill="black"/>
<path d="M207.391 304.379C208.582 304.379 209.546 303.415 209.546 302.224C209.546 301.034 208.582 300.069 207.391 300.069C206.201 300.069 205.236 301.034 205.236 302.224C205.236 303.415 206.201 304.379 207.391 304.379Z" fill="black"/>
<path d="M252.669 304.379C253.859 304.379 254.824 303.415 254.824 302.224C254.824 301.034 253.859 300.069 252.669 300.069C251.478 300.069 250.514 301.034 250.514 302.224C250.514 303.415 251.478 304.379 252.669 304.379Z" fill="black"/>
<path d="M298.947 306.379C300.689 306.379 302.102 304.967 302.102 303.224C302.102 301.482 300.689 300.069 298.947 300.069C297.204 300.069 295.792 301.482 295.792 303.224C295.792 304.967 297.204 306.379 298.947 306.379Z" fill="#C0343B"/>
<path d="M344.224 306.379C345.967 306.379 347.379 304.967 347.379 303.224C347.379 301.482 345.967 300.069 344.224 300.069C342.482 300.069 341.069 301.482 341.069 303.224C341.069 304.967 342.482 306.379 344.224 306.379Z" fill="#C0343B"/>
<path d="M388.502 304.379C389.692 304.379 390.657 303.415 390.657 302.224C390.657 301.034 389.692 300.069 388.502 300.069C387.312 300.069 386.347 301.034 386.347 302.224C386.347 303.415 387.312 304.379 388.502 304.379Z" fill="black"/>
<path d="M433.78 304.379C434.97 304.379 435.935 303.415 435.935 302.224C435.935 301.034 434.97 300.069 433.78 300.069C432.59 300.069 431.625 301.034 431.625 302.224C431.625 303.415 432.59 304.379 433.78 304.379Z" fill="black"/>
<path d="M479.058 304.379C480.248 304.379 481.213 303.415 481.213 302.224C481.213 301.034 480.248 300.069 479.058 300.069C477.868 300.069 476.903 301.034 476.903 302.224C476.903 303.415 477.868 304.379 479.058 304.379Z" fill="black"/>
<path d="M524.336 304.379C525.526 304.379 526.491 303.415 526.491 302.224C526.491 301.034 525.526 300.069 524.336 300.069C523.145 300.069 522.181 301.034 522.181 302.224C522.181 303.415 523.145 304.379 524.336 304.379Z" fill="black"/>
<path d="M569.613 304.379C570.803 304.379 571.768 303.415 571.768 302.224C571.768 301.034 570.803 300.069 569.613 300.069C568.423 300.069 567.458 301.034 567.458 302.224C567.458 303.415 568.423 304.379 569.613 304.379Z" fill="black"/>
<path d="M614.891 304.379C616.081 304.379 617.046 303.415 617.046 302.224C617.046 301.034 616.081 300.069 614.891 300.069C613.701 300.069 612.736 301.034 612.736 302.224C612.736 303.415 613.701 304.379 614.891 304.379Z" fill="black"/>
<path d="M660.169 304.379C661.359 304.379 662.324 303.415 662.324 302.224C662.324 301.034 661.359 300.069 660.169 300.069C658.979 300.069 658.014 301.034 658.014 302.224C658.014 303.415 658.979 304.379 660.169 304.379Z" fill="black"/>
<path d="M705.446 304.379C706.637 304.379 707.602 303.415 707.602 302.224C707.602 301.034 706.637 300.069 705.446 300.069C704.256 300.069 703.292 301.034 703.292 302.224C703.292 303.415 704.256 304.379 705.446 304.379Z" fill="black"/>
<path d="M750.724 304.379C751.914 304.379 752.879 303.415 752.879 302.224C752.879 301.034 751.914 300.069 750.724 300.069C749.534 300.069 748.569 301.034 748.569 302.224C748.569 303.415 749.534 304.379 750.724 304.379Z" fill="black"/>
<path d="M26.28 349.657C27.4702 349.657 28.435 348.692 28.435 347.502C28.435 346.312 27.4702 345.347 26.28 345.347C25.0898 345.347 24.125 346.312 24.125 347.502C24.125 348.692 25.0898 349.657 26.28 349.657Z" fill="black"/>
<path d="M71.5578 349.657C72.748 349.657 73.7128 348.692 73.7128 347.502C73.7128 346.312 72.748 345.347 71.5578 345.347C70.3677 345.347 69.4028 346.312 69.4028 347.502C69.4028 348.692 70.3677 349.657 71.5578 349.657Z" fill="black"/>
<path d="M116.836 349.657C118.026 349.657 118.991 348.692 118.991 347.502C118.991 346.312 118.026 345.347 116.836 345.347C115.645 345.347 114.681 346.312 114.681 347.502C114.681 348.692 115.645 349.657 116.836 349.657Z" fill="black"/>
<path d="M162.113 349.657C163.303 349.657 164.268 348.692 164.268 347.502C164.268 346.312 163.303 345.347 162.113 345.347C160.923 345.347 159.958 346.312 159.958 347.502C159.958 348.692 160.923 349.657 162.113 349.657Z" fill="black"/>
<path d="M207.391 349.657C208.582 349.657 209.546 348.692 209.546 347.502C209.546 346.312 208.582 345.347 207.391 345.347C206.201 345.347 205.236 346.312 205.236 347.502C205.236 348.692 206.201 349.657 207.391 349.657Z" fill="black"/>
<path d="M252.669 349.657C253.859 349.657 254.824 348.692 254.824 347.502C254.824 346.312 253.859 345.347 252.669 345.347C251.478 345.347 250.514 346.312 250.514 347.502C250.514 348.692 251.478 349.657 252.669 349.657Z" fill="black"/>
<path d="M297.947 349.657C299.137 349.657 300.102 348.692 300.102 347.502C300.102 346.312 299.137 345.347 297.947 345.347C296.756 345.347 295.792 346.312 295.792 347.502C295.792 348.692 296.756 349.657 297.947 349.657Z" fill="black"/>
<path d="M343.224 349.657C344.414 349.657 345.379 348.692 345.379 347.502C345.379 346.312 344.414 345.347 343.224 345.347C342.034 345.347 341.069 346.312 341.069 347.502C341.069 348.692 342.034 349.657 343.224 349.657Z" fill="black"/>
<path d="M388.502 349.657C389.692 349.657 390.657 348.692 390.657 347.502C390.657 346.312 389.692 345.347 388.502 345.347C387.312 345.347 386.347 346.312 386.347 347.502C386.347 348.692 387.312 349.657 388.502 349.657Z" fill="black"/>
<path d="M433.78 349.657C434.97 349.657 435.935 348.692 435.935 347.502C435.935 346.312 434.97 345.347 433.78 345.347C432.59 345.347 431.625 346.312 431.625 347.502C431.625 348.692 432.59 349.657 433.78 349.657Z" fill="black"/>
<path d="M479.058 349.657C480.248 349.657 481.213 348.692 481.213 347.502C481.213 346.312 480.248 345.347 479.058 345.347C477.868 345.347 476.903 346.312 476.903 347.502C476.903 348.692 477.868 349.657 479.058 349.657Z" fill="black"/>
<path d="M524.336 349.657C525.526 349.657 526.491 348.692 526.491 347.502C526.491 346.312 525.526 345.347 524.336 345.347C523.145 345.347 522.181 346.312 522.181 347.502C522.181 348.692 523.145 349.657 524.336 349.657Z" fill="black"/>
<path d="M569.613 349.657C570.803 349.657 571.768 348.692 571.768 347.502C571.768 346.312 570.803 345.347 569.613 345.347C568.423 345.347 567.458 346.312 567.458 347.502C567.458 348.692 568.423 349.657 569.613 349.657Z" fill="black"/>
<path d="M614.891 349.657C616.081 349.657 617.046 348.692 617.046 347.502C617.046 346.312 616.081 345.347 614.891 345.347C613.701 345.347 612.736 346.312 612.736 347.502C612.736 348.692 613.701 349.657 614.891 349.657Z" fill="black"/>
<path d="M660.169 349.657C661.359 349.657 662.324 348.692 662.324 347.502C662.324 346.312 661.359 345.347 660.169 345.347C658.979 345.347 658.014 346.312 658.014 347.502C658.014 348.692 658.979 349.657 660.169 349.657Z" fill="black"/>
<path d="M705.446 349.657C706.637 349.657 707.602 348.692 707.602 347.502C707.602 346.312 706.637 345.347 705.446 345.347C704.256 345.347 703.292 346.312 703.292 347.502C703.292 348.692 704.256 349.657 705.446 349.657Z" fill="black"/>
<path d="M750.724 349.657C751.914 349.657 752.879 348.692 752.879 347.502C752.879 346.312 751.914 345.347 750.724 345.347C749.534 345.347 748.569 346.312 748.569 347.502C748.569 348.692 749.534 349.657 750.724 349.657Z" fill="black"/>
<path d="M26.28 394.935C27.4702 394.935 28.435 393.97 28.435 392.78C28.435 391.59 27.4702 390.625 26.28 390.625C25.0898 390.625 24.125 391.59 24.125 392.78C24.125 393.97 25.0898 394.935 26.28 394.935Z" fill="black"/>
<path d="M71.5578 394.935C72.748 394.935 73.7128 393.97 73.7128 392.78C73.7128 391.59 72.748 390.625 71.5578 390.625C70.3677 390.625 69.4028 391.59 69.4028 392.78C69.4028 393.97 70.3677 394.935 71.5578 394.935Z" fill="black"/>
<path d="M116.836 394.935C118.026 394.935 118.991 393.97 118.991 392.78C118.991 391.59 118.026 390.625 116.836 390.625C115.645 390.625 114.681 391.59 114.681 392.78C114.681 393.97 115.645 394.935 116.836 394.935Z" fill="black"/>
<path d="M162.113 394.935C163.303 394.935 164.268 393.97 164.268 392.78C164.268 391.59 163.303 390.625 162.113 390.625C160.923 390.625 159.958 391.59 159.958 392.78C159.958 393.97 160.923 394.935 162.113 394.935Z" fill="black"/>
<path d="M207.391 394.935C208.582 394.935 209.546 393.97 209.546 392.78C209.546 391.59 208.582 390.625 207.391 390.625C206.201 390.625 205.236 391.59 205.236 392.78C205.236 393.97 206.201 394.935 207.391 394.935Z" fill="black"/>
<path d="M252.669 394.935C253.859 394.935 254.824 393.97 254.824 392.78C254.824 391.59 253.859 390.625 252.669 390.625C251.478 390.625 250.514 391.59 250.514 392.78C250.514 393.97 251.478 394.935 252.669 394.935Z" fill="black"/>
<path d="M297.947 394.935C299.137 394.935 300.102 393.97 300.102 392.78C300.102 391.59 299.137 390.625 297.947 390.625C296.756 390.625 295.792 391.59 295.792 392.78C295.792 393.97 296.756 394.935 297.947 394.935Z" fill="black"/>
<path d="M343.224 394.935C344.414 394.935 345.379 393.97 345.379 392.78C345.379 391.59 344.414 390.625 343.224 390.625C342.034 390.625 341.069 391.59 341.069 392.78C341.069 393.97 342.034 394.935 343.224 394.935Z" fill="black"/>
<path d="M388.502 394.935C389.692 394.935 390.657 393.97 390.657 392.78C390.657 391.59 389.692 390.625 388.502 390.625C387.312 390.625 386.347 391.59 386.347 392.78C386.347 393.97 387.312 394.935 388.502 394.935Z" fill="black"/>
<path d="M433.78 394.935C434.97 394.935 435.935 393.97 435.935 392.78C435.935 391.59 434.97 390.625 433.78 390.625C432.59 390.625 431.625 391.59 431.625 392.78C431.625 393.97 432.59 394.935 433.78 394.935Z" fill="black"/>
<path d="M479.058 394.935C480.248 394.935 481.213 393.97 481.213 392.78C481.213 391.59 480.248 390.625 479.058 390.625C477.868 390.625 476.903 391.59 476.903 392.78C476.903 393.97 477.868 394.935 479.058 394.935Z" fill="black"/>
<path d="M524.336 394.935C525.526 394.935 526.491 393.97 526.491 392.78C526.491 391.59 525.526 390.625 524.336 390.625C523.145 390.625 522.181 391.59 522.181 392.78C522.181 393.97 523.145 394.935 524.336 394.935Z" fill="black"/>
<path d="M569.613 394.935C570.803 394.935 571.768 393.97 571.768 392.78C571.768 391.59 570.803 390.625 569.613 390.625C568.423 390.625 567.458 391.59 567.458 392.78C567.458 393.97 568.423 394.935 569.613 394.935Z" fill="black"/>
<path d="M614.891 394.935C616.081 394.935 617.046 393.97 617.046 392.78C617.046 391.59 616.081 390.625 614.891 390.625C613.701 390.625 612.736 391.59 612.736 392.78C612.736 393.97 613.701 394.935 614.891 394.935Z" fill="black"/>
<path d="M660.169 394.935C661.359 394.935 662.324 393.97 662.324 392.78C662.324 391.59 661.359 390.625 660.169 390.625C658.979 390.625 658.014 391.59 658.014 392.78C658.014 393.97 658.979 394.935 660.169 394.935Z" fill="black"/>
<path d="M705.446 394.935C706.637 394.935 707.602 393.97 707.602 392.78C707.602 391.59 706.637 390.625 705.446 390.625C704.256 390.625 703.292 391.59 703.292 392.78C703.292 393.97 704.256 394.935 705.446 394.935Z" fill="black"/>
<path d="M750.724 394.935C751.914 394.935 752.879 393.97 752.879 392.78C752.879 391.59 751.914 390.625 750.724 390.625C749.534 390.625 748.569 391.59 748.569 392.78C748.569 393.97 749.534 394.935 750.724 394.935Z" fill="black"/>
</g>
</g>
<defs>
<clipPath id="clip0_28_19695">
<rect width="775" height="421" rx="20" fill="white"/>
</clipPath>
<clipPath id="clip1_28_19695">
<rect width="815" height="815" fill="white" transform="translate(-20 -61)"/>
</clipPath>
</defs>
</svg>
