<svg width="776" height="421" viewBox="0 0 776 421" fill="none" xmlns="http://www.w3.org/2000/svg">
<g clip-path="url(#clip0_28_19695)">
<g clip-path="url(#clip1_28_19695)">
<path d="M26.78 32.7128C27.9702 32.7128 28.935 31.7479 28.935 30.5578C28.935 29.3676 27.9702 28.4028 26.78 28.4028C25.5898 28.4028 24.625 29.3676 24.625 30.5578C24.625 31.7479 25.5898 32.7128 26.78 32.7128Z" fill="black"/>
<path d="M72.0578 32.7128C73.248 32.7128 74.2128 31.7479 74.2128 30.5578C74.2128 29.3676 73.248 28.4028 72.0578 28.4028C70.8677 28.4028 69.9028 29.3676 69.9028 30.5578C69.9028 31.7479 70.8677 32.7128 72.0578 32.7128Z" fill="black"/>
<path d="M117.336 32.7128C118.526 32.7128 119.491 31.7479 119.491 30.5578C119.491 29.3676 118.526 28.4028 117.336 28.4028C116.145 28.4028 115.181 29.3676 115.181 30.5578C115.181 31.7479 116.145 32.7128 117.336 32.7128Z" fill="black"/>
<path d="M162.613 32.7128C163.803 32.7128 164.768 31.7479 164.768 30.5578C164.768 29.3676 163.803 28.4028 162.613 28.4028C161.423 28.4028 160.458 29.3676 160.458 30.5578C160.458 31.7479 161.423 32.7128 162.613 32.7128Z" fill="black"/>
<path d="M207.891 32.7128C209.082 32.7128 210.046 31.7479 210.046 30.5578C210.046 29.3676 209.082 28.4028 207.891 28.4028C206.701 28.4028 205.736 29.3676 205.736 30.5578C205.736 31.7479 206.701 32.7128 207.891 32.7128Z" fill="black"/>
<path d="M253.169 32.7128C254.359 32.7128 255.324 31.7479 255.324 30.5578C255.324 29.3676 254.359 28.4028 253.169 28.4028C251.978 28.4028 251.014 29.3676 251.014 30.5578C251.014 31.7479 251.978 32.7128 253.169 32.7128Z" fill="black"/>
<path d="M298.447 32.7128C299.637 32.7128 300.602 31.7479 300.602 30.5578C300.602 29.3676 299.637 28.4028 298.447 28.4028C297.256 28.4028 296.292 29.3676 296.292 30.5578C296.292 31.7479 297.256 32.7128 298.447 32.7128Z" fill="black"/>
<path d="M343.724 32.7128C344.914 32.7128 345.879 31.7479 345.879 30.5578C345.879 29.3676 344.914 28.4028 343.724 28.4028C342.534 28.4028 341.569 29.3676 341.569 30.5578C341.569 31.7479 342.534 32.7128 343.724 32.7128Z" fill="black"/>
<path d="M389.002 32.7127C390.192 32.7127 391.157 31.7479 391.157 30.5577C391.157 29.3676 390.192 28.4028 389.002 28.4028C387.812 28.4028 386.847 29.3676 386.847 30.5577C386.847 31.7479 387.812 32.7127 389.002 32.7127Z" fill="black"/>
<path d="M434.28 32.7128C435.47 32.7128 436.435 31.7479 436.435 30.5578C436.435 29.3676 435.47 28.4028 434.28 28.4028C433.09 28.4028 432.125 29.3676 432.125 30.5578C432.125 31.7479 433.09 32.7128 434.28 32.7128Z" fill="black"/>
<path d="M479.558 32.7128C480.748 32.7128 481.713 31.7479 481.713 30.5578C481.713 29.3676 480.748 28.4028 479.558 28.4028C478.368 28.4028 477.403 29.3676 477.403 30.5578C477.403 31.7479 478.368 32.7128 479.558 32.7128Z" fill="black"/>
<path d="M524.836 32.7128C526.026 32.7128 526.991 31.748 526.991 30.5578C526.991 29.3676 526.026 28.4028 524.836 28.4028C523.645 28.4028 522.681 29.3676 522.681 30.5578C522.681 31.748 523.645 32.7128 524.836 32.7128Z" fill="black"/>
<path d="M570.113 32.7127C571.303 32.7127 572.268 31.7479 572.268 30.5577C572.268 29.3676 571.303 28.4028 570.113 28.4028C568.923 28.4028 567.958 29.3676 567.958 30.5577C567.958 31.7479 568.923 32.7127 570.113 32.7127Z" fill="black"/>
<path d="M615.391 32.7127C616.581 32.7127 617.546 31.7479 617.546 30.5577C617.546 29.3676 616.581 28.4028 615.391 28.4028C614.201 28.4028 613.236 29.3676 613.236 30.5577C613.236 31.7479 614.201 32.7127 615.391 32.7127Z" fill="black"/>
<path d="M660.669 32.7128C661.859 32.7128 662.824 31.748 662.824 30.5578C662.824 29.3676 661.859 28.4028 660.669 28.4028C659.479 28.4028 658.514 29.3676 658.514 30.5578C658.514 31.748 659.479 32.7128 660.669 32.7128Z" fill="black"/>
<path d="M705.946 32.7128C707.137 32.7128 708.102 31.748 708.102 30.5578C708.102 29.3676 707.137 28.4028 705.946 28.4028C704.756 28.4028 703.792 29.3676 703.792 30.5578C703.792 31.748 704.756 32.7128 705.946 32.7128Z" fill="black"/>
<path d="M751.224 32.7127C752.414 32.7127 753.379 31.7479 753.379 30.5577C753.379 29.3676 752.414 28.4028 751.224 28.4028C750.034 28.4028 749.069 29.3676 749.069 30.5577C749.069 31.7479 750.034 32.7127 751.224 32.7127Z" fill="black"/>
<path d="M26.78 77.9905C27.9702 77.9905 28.935 77.0257 28.935 75.8355C28.935 74.6454 27.9702 73.6805 26.78 73.6805C25.5898 73.6805 24.625 74.6454 24.625 75.8355C24.625 77.0257 25.5898 77.9905 26.78 77.9905Z" fill="black"/>
<path d="M72.0578 77.9905C73.248 77.9905 74.2128 77.0257 74.2128 75.8355C74.2128 74.6454 73.248 73.6805 72.0578 73.6805C70.8677 73.6805 69.9028 74.6454 69.9028 75.8355C69.9028 77.0257 70.8677 77.9905 72.0578 77.9905Z" fill="black"/>
<path d="M117.336 77.9905C118.526 77.9905 119.491 77.0257 119.491 75.8355C119.491 74.6454 118.526 73.6805 117.336 73.6805C116.145 73.6805 115.181 74.6454 115.181 75.8355C115.181 77.0257 116.145 77.9905 117.336 77.9905Z" fill="black"/>
<path d="M162.613 77.9905C163.803 77.9905 164.768 77.0257 164.768 75.8355C164.768 74.6454 163.803 73.6805 162.613 73.6805C161.423 73.6805 160.458 74.6454 160.458 75.8355C160.458 77.0257 161.423 77.9905 162.613 77.9905Z" fill="black"/>
<path d="M207.891 77.9905C209.082 77.9905 210.046 77.0257 210.046 75.8355C210.046 74.6454 209.082 73.6805 207.891 73.6805C206.701 73.6805 205.736 74.6454 205.736 75.8355C205.736 77.0257 206.701 77.9905 207.891 77.9905Z" fill="black"/>
<path d="M253.169 77.9905C254.359 77.9905 255.324 77.0257 255.324 75.8355C255.324 74.6454 254.359 73.6805 253.169 73.6805C251.978 73.6805 251.014 74.6454 251.014 75.8355C251.014 77.0257 251.978 77.9905 253.169 77.9905Z" fill="black"/>
<path d="M298.447 77.9905C299.637 77.9905 300.602 77.0257 300.602 75.8355C300.602 74.6454 299.637 73.6805 298.447 73.6805C297.256 73.6805 296.292 74.6454 296.292 75.8355C296.292 77.0257 297.256 77.9905 298.447 77.9905Z" fill="black"/>
<path d="M343.724 77.9905C344.914 77.9905 345.879 77.0257 345.879 75.8355C345.879 74.6454 344.914 73.6805 343.724 73.6805C342.534 73.6805 341.569 74.6454 341.569 75.8355C341.569 77.0257 342.534 77.9905 343.724 77.9905Z" fill="black"/>
<path d="M389.002 77.9905C390.192 77.9905 391.157 77.0257 391.157 75.8355C391.157 74.6454 390.192 73.6805 389.002 73.6805C387.812 73.6805 386.847 74.6454 386.847 75.8355C386.847 77.0257 387.812 77.9905 389.002 77.9905Z" fill="black"/>
<path d="M434.28 77.9905C435.47 77.9905 436.435 77.0257 436.435 75.8355C436.435 74.6454 435.47 73.6805 434.28 73.6805C433.09 73.6805 432.125 74.6454 432.125 75.8355C432.125 77.0257 433.09 77.9905 434.28 77.9905Z" fill="black"/>
<path d="M479.558 77.9905C480.748 77.9905 481.713 77.0257 481.713 75.8355C481.713 74.6454 480.748 73.6805 479.558 73.6805C478.368 73.6805 477.403 74.6454 477.403 75.8355C477.403 77.0257 478.368 77.9905 479.558 77.9905Z" fill="black"/>
<path d="M524.836 77.9906C526.026 77.9906 526.991 77.0258 526.991 75.8356C526.991 74.6454 526.026 73.6805 524.836 73.6805C523.645 73.6805 522.681 74.6454 522.681 75.8356C522.681 77.0258 523.645 77.9906 524.836 77.9906Z" fill="black"/>
<path d="M570.113 77.9905C571.303 77.9905 572.268 77.0257 572.268 75.8355C572.268 74.6454 571.303 73.6805 570.113 73.6805C568.923 73.6805 567.958 74.6454 567.958 75.8355C567.958 77.0257 568.923 77.9905 570.113 77.9905Z" fill="black"/>
<path d="M615.391 77.9905C616.581 77.9905 617.546 77.0257 617.546 75.8355C617.546 74.6454 616.581 73.6805 615.391 73.6805C614.201 73.6805 613.236 74.6454 613.236 75.8355C613.236 77.0257 614.201 77.9905 615.391 77.9905Z" fill="black"/>
<path d="M660.669 77.9906C661.859 77.9906 662.824 77.0258 662.824 75.8356C662.824 74.6454 661.859 73.6805 660.669 73.6805C659.479 73.6805 658.514 74.6454 658.514 75.8356C658.514 77.0258 659.479 77.9906 660.669 77.9906Z" fill="black"/>
<path d="M705.946 77.9906C707.137 77.9906 708.102 77.0258 708.102 75.8356C708.102 74.6454 707.137 73.6805 705.946 73.6805C704.756 73.6805 703.792 74.6454 703.792 75.8356C703.792 77.0258 704.756 77.9906 705.946 77.9906Z" fill="black"/>
<path d="M751.224 77.9905C752.414 77.9905 753.379 77.0257 753.379 75.8355C753.379 74.6454 752.414 73.6805 751.224 73.6805C750.034 73.6805 749.069 74.6454 749.069 75.8355C749.069 77.0257 750.034 77.9905 751.224 77.9905Z" fill="black"/>
<path d="M26.78 123.268C27.9702 123.268 28.935 122.303 28.935 121.113C28.935 119.923 27.9702 118.958 26.78 118.958C25.5898 118.958 24.625 119.923 24.625 121.113C24.625 122.303 25.5898 123.268 26.78 123.268Z" fill="black"/>
<path d="M72.0578 123.268C73.248 123.268 74.2128 122.303 74.2128 121.113C74.2128 119.923 73.248 118.958 72.0578 118.958C70.8677 118.958 69.9028 119.923 69.9028 121.113C69.9028 122.303 70.8677 123.268 72.0578 123.268Z" fill="black"/>
<path d="M117.336 123.268C118.526 123.268 119.491 122.303 119.491 121.113C119.491 119.923 118.526 118.958 117.336 118.958C116.145 118.958 115.181 119.923 115.181 121.113C115.181 122.303 116.145 123.268 117.336 123.268Z" fill="black"/>
<path d="M162.613 123.268C163.803 123.268 164.768 122.303 164.768 121.113C164.768 119.923 163.803 118.958 162.613 118.958C161.423 118.958 160.458 119.923 160.458 121.113C160.458 122.303 161.423 123.268 162.613 123.268Z" fill="black"/>
<path d="M207.891 123.268C209.082 123.268 210.046 122.303 210.046 121.113C210.046 119.923 209.082 118.958 207.891 118.958C206.701 118.958 205.736 119.923 205.736 121.113C205.736 122.303 206.701 123.268 207.891 123.268Z" fill="black"/>
<path d="M253.169 123.268C254.359 123.268 255.324 122.303 255.324 121.113C255.324 119.923 254.359 118.958 253.169 118.958C251.978 118.958 251.014 119.923 251.014 121.113C251.014 122.303 251.978 123.268 253.169 123.268Z" fill="black"/>
<path d="M299.447 125.268C301.189 125.268 302.602 123.856 302.602 122.113C302.602 120.371 301.189 118.958 299.447 118.958C297.704 118.958 296.292 120.371 296.292 122.113C296.292 123.856 297.704 125.268 299.447 125.268Z" fill="#FF4B33"/>
<path d="M344.724 125.268C346.467 125.268 347.879 123.856 347.879 122.113C347.879 120.371 346.467 118.958 344.724 118.958C342.982 118.958 341.569 120.371 341.569 122.113C341.569 123.856 342.982 125.268 344.724 125.268Z" fill="#FF4B33"/>
<path d="M389.002 123.268C390.192 123.268 391.157 122.303 391.157 121.113C391.157 119.923 390.192 118.958 389.002 118.958C387.812 118.958 386.847 119.923 386.847 121.113C386.847 122.303 387.812 123.268 389.002 123.268Z" fill="black"/>
<path d="M434.28 123.268C435.47 123.268 436.435 122.303 436.435 121.113C436.435 119.923 435.47 118.958 434.28 118.958C433.09 118.958 432.125 119.923 432.125 121.113C432.125 122.303 433.09 123.268 434.28 123.268Z" fill="black"/>
<path d="M479.558 123.268C480.748 123.268 481.713 122.303 481.713 121.113C481.713 119.923 480.748 118.958 479.558 118.958C478.368 118.958 477.403 119.923 477.403 121.113C477.403 122.303 478.368 123.268 479.558 123.268Z" fill="black"/>
<path d="M524.836 123.268C526.026 123.268 526.991 122.304 526.991 121.113C526.991 119.923 526.026 118.958 524.836 118.958C523.645 118.958 522.681 119.923 522.681 121.113C522.681 122.304 523.645 123.268 524.836 123.268Z" fill="black"/>
<path d="M570.113 123.268C571.303 123.268 572.268 122.303 572.268 121.113C572.268 119.923 571.303 118.958 570.113 118.958C568.923 118.958 567.958 119.923 567.958 121.113C567.958 122.303 568.923 123.268 570.113 123.268Z" fill="black"/>
<path d="M615.391 123.268C616.581 123.268 617.546 122.303 617.546 121.113C617.546 119.923 616.581 118.958 615.391 118.958C614.201 118.958 613.236 119.923 613.236 121.113C613.236 122.303 614.201 123.268 615.391 123.268Z" fill="black"/>
<path d="M660.669 123.268C661.859 123.268 662.824 122.304 662.824 121.113C662.824 119.923 661.859 118.958 660.669 118.958C659.479 118.958 658.514 119.923 658.514 121.113C658.514 122.304 659.479 123.268 660.669 123.268Z" fill="black"/>
<path d="M705.946 123.268C707.137 123.268 708.102 122.304 708.102 121.113C708.102 119.923 707.137 118.958 705.946 118.958C704.756 118.958 703.792 119.923 703.792 121.113C703.792 122.304 704.756 123.268 705.946 123.268Z" fill="black"/>
<path d="M751.224 123.268C752.414 123.268 753.379 122.303 753.379 121.113C753.379 119.923 752.414 118.958 751.224 118.958C750.034 118.958 749.069 119.923 749.069 121.113C749.069 122.303 750.034 123.268 751.224 123.268Z" fill="black"/>
<path d="M26.78 168.546C27.9702 168.546 28.935 167.581 28.935 166.391C28.935 165.201 27.9702 164.236 26.78 164.236C25.5898 164.236 24.625 165.201 24.625 166.391C24.625 167.581 25.5898 168.546 26.78 168.546Z" fill="black"/>
<path d="M72.0578 168.546C73.248 168.546 74.2128 167.581 74.2128 166.391C74.2128 165.201 73.248 164.236 72.0578 164.236C70.8677 164.236 69.9028 165.201 69.9028 166.391C69.9028 167.581 70.8677 168.546 72.0578 168.546Z" fill="black"/>
<path d="M117.336 168.546C118.526 168.546 119.491 167.581 119.491 166.391C119.491 165.201 118.526 164.236 117.336 164.236C116.145 164.236 115.181 165.201 115.181 166.391C115.181 167.581 116.145 168.546 117.336 168.546Z" fill="black"/>
<path d="M162.613 168.546C163.803 168.546 164.768 167.581 164.768 166.391C164.768 165.201 163.803 164.236 162.613 164.236C161.423 164.236 160.458 165.201 160.458 166.391C160.458 167.581 161.423 168.546 162.613 168.546Z" fill="black"/>
<path d="M207.891 168.546C209.082 168.546 210.046 167.581 210.046 166.391C210.046 165.201 209.082 164.236 207.891 164.236C206.701 164.236 205.736 165.201 205.736 166.391C205.736 167.581 206.701 168.546 207.891 168.546Z" fill="black"/>
<path d="M253.169 168.546C254.359 168.546 255.324 167.581 255.324 166.391C255.324 165.201 254.359 164.236 253.169 164.236C251.978 164.236 251.014 165.201 251.014 166.391C251.014 167.581 251.978 168.546 253.169 168.546Z" fill="black"/>
<path d="M299.447 170.546C301.189 170.546 302.602 169.134 302.602 167.391C302.602 165.649 301.189 164.236 299.447 164.236C297.704 164.236 296.292 165.649 296.292 167.391C296.292 169.134 297.704 170.546 299.447 170.546Z" fill="#FF4B33"/>
<path d="M344.724 170.546C346.467 170.546 347.879 169.134 347.879 167.391C347.879 165.649 346.467 164.236 344.724 164.236C342.982 164.236 341.569 165.649 341.569 167.391C341.569 169.134 342.982 170.546 344.724 170.546Z" fill="#FF4B33"/>
<path d="M390.002 170.546C391.745 170.546 393.157 169.134 393.157 167.391C393.157 165.649 391.745 164.236 390.002 164.236C388.26 164.236 386.847 165.649 386.847 167.391C386.847 169.134 388.26 170.546 390.002 170.546Z" fill="#FF4B33"/>
<path d="M434.28 168.546C435.47 168.546 436.435 167.581 436.435 166.391C436.435 165.201 435.47 164.236 434.28 164.236C433.09 164.236 432.125 165.201 432.125 166.391C432.125 167.581 433.09 168.546 434.28 168.546Z" fill="black"/>
<path d="M479.558 168.546C480.748 168.546 481.713 167.581 481.713 166.391C481.713 165.201 480.748 164.236 479.558 164.236C478.368 164.236 477.403 165.201 477.403 166.391C477.403 167.581 478.368 168.546 479.558 168.546Z" fill="black"/>
<path d="M524.836 168.546C526.026 168.546 526.991 167.581 526.991 166.391C526.991 165.201 526.026 164.236 524.836 164.236C523.645 164.236 522.681 165.201 522.681 166.391C522.681 167.581 523.645 168.546 524.836 168.546Z" fill="black"/>
<path d="M570.113 168.546C571.303 168.546 572.268 167.581 572.268 166.391C572.268 165.201 571.303 164.236 570.113 164.236C568.923 164.236 567.958 165.201 567.958 166.391C567.958 167.581 568.923 168.546 570.113 168.546Z" fill="black"/>
<path d="M615.391 168.546C616.581 168.546 617.546 167.581 617.546 166.391C617.546 165.201 616.581 164.236 615.391 164.236C614.201 164.236 613.236 165.201 613.236 166.391C613.236 167.581 614.201 168.546 615.391 168.546Z" fill="black"/>
<path d="M660.669 168.546C661.859 168.546 662.824 167.581 662.824 166.391C662.824 165.201 661.859 164.236 660.669 164.236C659.479 164.236 658.514 165.201 658.514 166.391C658.514 167.581 659.479 168.546 660.669 168.546Z" fill="black"/>
<path d="M705.946 168.546C707.137 168.546 708.102 167.581 708.102 166.391C708.102 165.201 707.137 164.236 705.946 164.236C704.756 164.236 703.792 165.201 703.792 166.391C703.792 167.581 704.756 168.546 705.946 168.546Z" fill="black"/>
<path d="M751.224 168.546C752.414 168.546 753.379 167.581 753.379 166.391C753.379 165.201 752.414 164.236 751.224 164.236C750.034 164.236 749.069 165.201 749.069 166.391C749.069 167.581 750.034 168.546 751.224 168.546Z" fill="black"/>
<path d="M26.78 213.824C27.9702 213.824 28.935 212.859 28.935 211.669C28.935 210.479 27.9702 209.514 26.78 209.514C25.5898 209.514 24.625 210.479 24.625 211.669C24.625 212.859 25.5898 213.824 26.78 213.824Z" fill="black"/>
<path d="M72.0578 213.824C73.248 213.824 74.2128 212.859 74.2128 211.669C74.2128 210.479 73.248 209.514 72.0578 209.514C70.8677 209.514 69.9028 210.479 69.9028 211.669C69.9028 212.859 70.8677 213.824 72.0578 213.824Z" fill="black"/>
<path d="M117.336 213.824C118.526 213.824 119.491 212.859 119.491 211.669C119.491 210.479 118.526 209.514 117.336 209.514C116.145 209.514 115.181 210.479 115.181 211.669C115.181 212.859 116.145 213.824 117.336 213.824Z" fill="black"/>
<path d="M162.613 213.824C163.803 213.824 164.768 212.859 164.768 211.669C164.768 210.479 163.803 209.514 162.613 209.514C161.423 209.514 160.458 210.479 160.458 211.669C160.458 212.859 161.423 213.824 162.613 213.824Z" fill="black"/>
<path d="M207.891 213.824C209.082 213.824 210.046 212.859 210.046 211.669C210.046 210.479 209.082 209.514 207.891 209.514C206.701 209.514 205.736 210.479 205.736 211.669C205.736 212.859 206.701 213.824 207.891 213.824Z" fill="black"/>
<path d="M253.169 213.824C254.359 213.824 255.324 212.859 255.324 211.669C255.324 210.479 254.359 209.514 253.169 209.514C251.978 209.514 251.014 210.479 251.014 211.669C251.014 212.859 251.978 213.824 253.169 213.824Z" fill="black"/>
<path d="M299.447 215.824C301.189 215.824 302.602 214.411 302.602 212.669C302.602 210.926 301.189 209.514 299.447 209.514C297.704 209.514 296.292 210.926 296.292 212.669C296.292 214.411 297.704 215.824 299.447 215.824Z" fill="#FF4B33"/>
<path d="M344.724 215.824C346.467 215.824 347.879 214.411 347.879 212.669C347.879 210.926 346.467 209.514 344.724 209.514C342.982 209.514 341.569 210.926 341.569 212.669C341.569 214.411 342.982 215.824 344.724 215.824Z" fill="#FF4B33"/>
<path d="M390.002 215.824C391.745 215.824 393.157 214.411 393.157 212.669C393.157 210.926 391.745 209.514 390.002 209.514C388.26 209.514 386.847 210.926 386.847 212.669C386.847 214.411 388.26 215.824 390.002 215.824Z" fill="#FF4B33"/>
<path d="M435.28 215.824C437.023 215.824 438.435 214.411 438.435 212.669C438.435 210.926 437.023 209.514 435.28 209.514C433.538 209.514 432.125 210.926 432.125 212.669C432.125 214.411 433.538 215.824 435.28 215.824Z" fill="#FF4B33"/>
<path d="M479.558 213.824C480.748 213.824 481.713 212.859 481.713 211.669C481.713 210.479 480.748 209.514 479.558 209.514C478.368 209.514 477.403 210.479 477.403 211.669C477.403 212.859 478.368 213.824 479.558 213.824Z" fill="black"/>
<path d="M524.836 213.824C526.026 213.824 526.991 212.859 526.991 211.669C526.991 210.479 526.026 209.514 524.836 209.514C523.645 209.514 522.681 210.479 522.681 211.669C522.681 212.859 523.645 213.824 524.836 213.824Z" fill="black"/>
<path d="M570.113 213.824C571.303 213.824 572.268 212.859 572.268 211.669C572.268 210.479 571.303 209.514 570.113 209.514C568.923 209.514 567.958 210.479 567.958 211.669C567.958 212.859 568.923 213.824 570.113 213.824Z" fill="black"/>
<path d="M615.391 213.824C616.581 213.824 617.546 212.859 617.546 211.669C617.546 210.479 616.581 209.514 615.391 209.514C614.201 209.514 613.236 210.479 613.236 211.669C613.236 212.859 614.201 213.824 615.391 213.824Z" fill="black"/>
<path d="M660.669 213.824C661.859 213.824 662.824 212.859 662.824 211.669C662.824 210.479 661.859 209.514 660.669 209.514C659.479 209.514 658.514 210.479 658.514 211.669C658.514 212.859 659.479 213.824 660.669 213.824Z" fill="black"/>
<path d="M705.946 213.824C707.137 213.824 708.102 212.859 708.102 211.669C708.102 210.479 707.137 209.514 705.946 209.514C704.756 209.514 703.792 210.479 703.792 211.669C703.792 212.859 704.756 213.824 705.946 213.824Z" fill="black"/>
<path d="M751.224 213.824C752.414 213.824 753.379 212.859 753.379 211.669C753.379 210.479 752.414 209.514 751.224 209.514C750.034 209.514 749.069 210.479 749.069 211.669C749.069 212.859 750.034 213.824 751.224 213.824Z" fill="black"/>
<path d="M26.78 259.102C27.9702 259.102 28.935 258.137 28.935 256.947C28.935 255.757 27.9702 254.792 26.78 254.792C25.5898 254.792 24.625 255.757 24.625 256.947C24.625 258.137 25.5898 259.102 26.78 259.102Z" fill="black"/>
<path d="M72.0578 259.102C73.248 259.102 74.2128 258.137 74.2128 256.947C74.2128 255.757 73.248 254.792 72.0578 254.792C70.8677 254.792 69.9028 255.757 69.9028 256.947C69.9028 258.137 70.8677 259.102 72.0578 259.102Z" fill="black"/>
<path d="M117.336 259.102C118.526 259.102 119.491 258.137 119.491 256.947C119.491 255.757 118.526 254.792 117.336 254.792C116.145 254.792 115.181 255.757 115.181 256.947C115.181 258.137 116.145 259.102 117.336 259.102Z" fill="black"/>
<path d="M162.613 259.102C163.803 259.102 164.768 258.137 164.768 256.947C164.768 255.757 163.803 254.792 162.613 254.792C161.423 254.792 160.458 255.757 160.458 256.947C160.458 258.137 161.423 259.102 162.613 259.102Z" fill="black"/>
<path d="M207.891 259.102C209.082 259.102 210.046 258.137 210.046 256.947C210.046 255.757 209.082 254.792 207.891 254.792C206.701 254.792 205.736 255.757 205.736 256.947C205.736 258.137 206.701 259.102 207.891 259.102Z" fill="black"/>
<path d="M253.169 259.102C254.359 259.102 255.324 258.137 255.324 256.947C255.324 255.757 254.359 254.792 253.169 254.792C251.978 254.792 251.014 255.757 251.014 256.947C251.014 258.137 251.978 259.102 253.169 259.102Z" fill="black"/>
<path d="M299.447 261.102C301.189 261.102 302.602 259.689 302.602 257.947C302.602 256.204 301.189 254.792 299.447 254.792C297.704 254.792 296.292 256.204 296.292 257.947C296.292 259.689 297.704 261.102 299.447 261.102Z" fill="#FF4B33"/>
<path d="M344.724 261.102C346.467 261.102 347.879 259.689 347.879 257.947C347.879 256.204 346.467 254.792 344.724 254.792C342.982 254.792 341.569 256.204 341.569 257.947C341.569 259.689 342.982 261.102 344.724 261.102Z" fill="#FF4B33"/>
<path d="M390.002 261.102C391.745 261.102 393.157 259.689 393.157 257.947C393.157 256.204 391.745 254.792 390.002 254.792C388.26 254.792 386.847 256.204 386.847 257.947C386.847 259.689 388.26 261.102 390.002 261.102Z" fill="#FF4B33"/>
<path d="M434.28 259.102C435.47 259.102 436.435 258.137 436.435 256.947C436.435 255.757 435.47 254.792 434.28 254.792C433.09 254.792 432.125 255.757 432.125 256.947C432.125 258.137 433.09 259.102 434.28 259.102Z" fill="black"/>
<path d="M479.558 259.102C480.748 259.102 481.713 258.137 481.713 256.947C481.713 255.757 480.748 254.792 479.558 254.792C478.368 254.792 477.403 255.757 477.403 256.947C477.403 258.137 478.368 259.102 479.558 259.102Z" fill="black"/>
<path d="M524.836 259.102C526.026 259.102 526.991 258.137 526.991 256.947C526.991 255.757 526.026 254.792 524.836 254.792C523.645 254.792 522.681 255.757 522.681 256.947C522.681 258.137 523.645 259.102 524.836 259.102Z" fill="black"/>
<path d="M570.113 259.102C571.303 259.102 572.268 258.137 572.268 256.947C572.268 255.756 571.303 254.792 570.113 254.792C568.923 254.792 567.958 255.756 567.958 256.947C567.958 258.137 568.923 259.102 570.113 259.102Z" fill="black"/>
<path d="M615.391 259.102C616.581 259.102 617.546 258.137 617.546 256.947C617.546 255.756 616.581 254.792 615.391 254.792C614.201 254.792 613.236 255.756 613.236 256.947C613.236 258.137 614.201 259.102 615.391 259.102Z" fill="black"/>
<path d="M660.669 259.102C661.859 259.102 662.824 258.137 662.824 256.947C662.824 255.757 661.859 254.792 660.669 254.792C659.479 254.792 658.514 255.757 658.514 256.947C658.514 258.137 659.479 259.102 660.669 259.102Z" fill="black"/>
<path d="M705.946 259.102C707.137 259.102 708.102 258.137 708.102 256.947C708.102 255.757 707.137 254.792 705.946 254.792C704.756 254.792 703.792 255.757 703.792 256.947C703.792 258.137 704.756 259.102 705.946 259.102Z" fill="black"/>
<path d="M751.224 259.102C752.414 259.102 753.379 258.137 753.379 256.947C753.379 255.756 752.414 254.792 751.224 254.792C750.034 254.792 749.069 255.756 749.069 256.947C749.069 258.137 750.034 259.102 751.224 259.102Z" fill="black"/>
<path d="M26.78 304.379C27.9702 304.379 28.935 303.415 28.935 302.224C28.935 301.034 27.9702 300.069 26.78 300.069C25.5898 300.069 24.625 301.034 24.625 302.224C24.625 303.415 25.5898 304.379 26.78 304.379Z" fill="black"/>
<path d="M72.0578 304.379C73.248 304.379 74.2128 303.415 74.2128 302.224C74.2128 301.034 73.248 300.069 72.0578 300.069C70.8677 300.069 69.9028 301.034 69.9028 302.224C69.9028 303.415 70.8677 304.379 72.0578 304.379Z" fill="black"/>
<path d="M117.336 304.379C118.526 304.379 119.491 303.415 119.491 302.224C119.491 301.034 118.526 300.069 117.336 300.069C116.145 300.069 115.181 301.034 115.181 302.224C115.181 303.415 116.145 304.379 117.336 304.379Z" fill="black"/>
<path d="M162.613 304.379C163.803 304.379 164.768 303.415 164.768 302.224C164.768 301.034 163.803 300.069 162.613 300.069C161.423 300.069 160.458 301.034 160.458 302.224C160.458 303.415 161.423 304.379 162.613 304.379Z" fill="black"/>
<path d="M207.891 304.379C209.082 304.379 210.046 303.415 210.046 302.224C210.046 301.034 209.082 300.069 207.891 300.069C206.701 300.069 205.736 301.034 205.736 302.224C205.736 303.415 206.701 304.379 207.891 304.379Z" fill="black"/>
<path d="M253.169 304.379C254.359 304.379 255.324 303.415 255.324 302.224C255.324 301.034 254.359 300.069 253.169 300.069C251.978 300.069 251.014 301.034 251.014 302.224C251.014 303.415 251.978 304.379 253.169 304.379Z" fill="black"/>
<path d="M299.447 306.379C301.189 306.379 302.602 304.967 302.602 303.224C302.602 301.482 301.189 300.069 299.447 300.069C297.704 300.069 296.292 301.482 296.292 303.224C296.292 304.967 297.704 306.379 299.447 306.379Z" fill="#FF4B33"/>
<path d="M344.724 306.379C346.467 306.379 347.879 304.967 347.879 303.224C347.879 301.482 346.467 300.069 344.724 300.069C342.982 300.069 341.569 301.482 341.569 303.224C341.569 304.967 342.982 306.379 344.724 306.379Z" fill="#FF4B33"/>
<path d="M389.002 304.379C390.192 304.379 391.157 303.415 391.157 302.224C391.157 301.034 390.192 300.069 389.002 300.069C387.812 300.069 386.847 301.034 386.847 302.224C386.847 303.415 387.812 304.379 389.002 304.379Z" fill="black"/>
<path d="M434.28 304.379C435.47 304.379 436.435 303.415 436.435 302.224C436.435 301.034 435.47 300.069 434.28 300.069C433.09 300.069 432.125 301.034 432.125 302.224C432.125 303.415 433.09 304.379 434.28 304.379Z" fill="black"/>
<path d="M479.558 304.379C480.748 304.379 481.713 303.415 481.713 302.224C481.713 301.034 480.748 300.069 479.558 300.069C478.368 300.069 477.403 301.034 477.403 302.224C477.403 303.415 478.368 304.379 479.558 304.379Z" fill="black"/>
<path d="M524.836 304.379C526.026 304.379 526.991 303.415 526.991 302.224C526.991 301.034 526.026 300.069 524.836 300.069C523.645 300.069 522.681 301.034 522.681 302.224C522.681 303.415 523.645 304.379 524.836 304.379Z" fill="black"/>
<path d="M570.113 304.379C571.303 304.379 572.268 303.415 572.268 302.224C572.268 301.034 571.303 300.069 570.113 300.069C568.923 300.069 567.958 301.034 567.958 302.224C567.958 303.415 568.923 304.379 570.113 304.379Z" fill="black"/>
<path d="M615.391 304.379C616.581 304.379 617.546 303.415 617.546 302.224C617.546 301.034 616.581 300.069 615.391 300.069C614.201 300.069 613.236 301.034 613.236 302.224C613.236 303.415 614.201 304.379 615.391 304.379Z" fill="black"/>
<path d="M660.669 304.379C661.859 304.379 662.824 303.415 662.824 302.224C662.824 301.034 661.859 300.069 660.669 300.069C659.479 300.069 658.514 301.034 658.514 302.224C658.514 303.415 659.479 304.379 660.669 304.379Z" fill="black"/>
<path d="M705.946 304.379C707.137 304.379 708.102 303.415 708.102 302.224C708.102 301.034 707.137 300.069 705.946 300.069C704.756 300.069 703.792 301.034 703.792 302.224C703.792 303.415 704.756 304.379 705.946 304.379Z" fill="black"/>
<path d="M751.224 304.379C752.414 304.379 753.379 303.415 753.379 302.224C753.379 301.034 752.414 300.069 751.224 300.069C750.034 300.069 749.069 301.034 749.069 302.224C749.069 303.415 750.034 304.379 751.224 304.379Z" fill="black"/>
<path d="M26.78 349.657C27.9702 349.657 28.935 348.692 28.935 347.502C28.935 346.312 27.9702 345.347 26.78 345.347C25.5898 345.347 24.625 346.312 24.625 347.502C24.625 348.692 25.5898 349.657 26.78 349.657Z" fill="black"/>
<path d="M72.0578 349.657C73.248 349.657 74.2128 348.692 74.2128 347.502C74.2128 346.312 73.248 345.347 72.0578 345.347C70.8677 345.347 69.9028 346.312 69.9028 347.502C69.9028 348.692 70.8677 349.657 72.0578 349.657Z" fill="black"/>
<path d="M117.336 349.657C118.526 349.657 119.491 348.692 119.491 347.502C119.491 346.312 118.526 345.347 117.336 345.347C116.145 345.347 115.181 346.312 115.181 347.502C115.181 348.692 116.145 349.657 117.336 349.657Z" fill="black"/>
<path d="M162.613 349.657C163.803 349.657 164.768 348.692 164.768 347.502C164.768 346.312 163.803 345.347 162.613 345.347C161.423 345.347 160.458 346.312 160.458 347.502C160.458 348.692 161.423 349.657 162.613 349.657Z" fill="black"/>
<path d="M207.891 349.657C209.082 349.657 210.046 348.692 210.046 347.502C210.046 346.312 209.082 345.347 207.891 345.347C206.701 345.347 205.736 346.312 205.736 347.502C205.736 348.692 206.701 349.657 207.891 349.657Z" fill="black"/>
<path d="M253.169 349.657C254.359 349.657 255.324 348.692 255.324 347.502C255.324 346.312 254.359 345.347 253.169 345.347C251.978 345.347 251.014 346.312 251.014 347.502C251.014 348.692 251.978 349.657 253.169 349.657Z" fill="black"/>
<path d="M298.447 349.657C299.637 349.657 300.602 348.692 300.602 347.502C300.602 346.312 299.637 345.347 298.447 345.347C297.256 345.347 296.292 346.312 296.292 347.502C296.292 348.692 297.256 349.657 298.447 349.657Z" fill="black"/>
<path d="M343.724 349.657C344.914 349.657 345.879 348.692 345.879 347.502C345.879 346.312 344.914 345.347 343.724 345.347C342.534 345.347 341.569 346.312 341.569 347.502C341.569 348.692 342.534 349.657 343.724 349.657Z" fill="black"/>
<path d="M389.002 349.657C390.192 349.657 391.157 348.692 391.157 347.502C391.157 346.312 390.192 345.347 389.002 345.347C387.812 345.347 386.847 346.312 386.847 347.502C386.847 348.692 387.812 349.657 389.002 349.657Z" fill="black"/>
<path d="M434.28 349.657C435.47 349.657 436.435 348.692 436.435 347.502C436.435 346.312 435.47 345.347 434.28 345.347C433.09 345.347 432.125 346.312 432.125 347.502C432.125 348.692 433.09 349.657 434.28 349.657Z" fill="black"/>
<path d="M479.558 349.657C480.748 349.657 481.713 348.692 481.713 347.502C481.713 346.312 480.748 345.347 479.558 345.347C478.368 345.347 477.403 346.312 477.403 347.502C477.403 348.692 478.368 349.657 479.558 349.657Z" fill="black"/>
<path d="M524.836 349.657C526.026 349.657 526.991 348.692 526.991 347.502C526.991 346.312 526.026 345.347 524.836 345.347C523.645 345.347 522.681 346.312 522.681 347.502C522.681 348.692 523.645 349.657 524.836 349.657Z" fill="black"/>
<path d="M570.113 349.657C571.303 349.657 572.268 348.692 572.268 347.502C572.268 346.312 571.303 345.347 570.113 345.347C568.923 345.347 567.958 346.312 567.958 347.502C567.958 348.692 568.923 349.657 570.113 349.657Z" fill="black"/>
<path d="M615.391 349.657C616.581 349.657 617.546 348.692 617.546 347.502C617.546 346.312 616.581 345.347 615.391 345.347C614.201 345.347 613.236 346.312 613.236 347.502C613.236 348.692 614.201 349.657 615.391 349.657Z" fill="black"/>
<path d="M660.669 349.657C661.859 349.657 662.824 348.692 662.824 347.502C662.824 346.312 661.859 345.347 660.669 345.347C659.479 345.347 658.514 346.312 658.514 347.502C658.514 348.692 659.479 349.657 660.669 349.657Z" fill="black"/>
<path d="M705.946 349.657C707.137 349.657 708.102 348.692 708.102 347.502C708.102 346.312 707.137 345.347 705.946 345.347C704.756 345.347 703.792 346.312 703.792 347.502C703.792 348.692 704.756 349.657 705.946 349.657Z" fill="black"/>
<path d="M751.224 349.657C752.414 349.657 753.379 348.692 753.379 347.502C753.379 346.312 752.414 345.347 751.224 345.347C750.034 345.347 749.069 346.312 749.069 347.502C749.069 348.692 750.034 349.657 751.224 349.657Z" fill="black"/>
<path d="M26.78 394.935C27.9702 394.935 28.935 393.97 28.935 392.78C28.935 391.59 27.9702 390.625 26.78 390.625C25.5898 390.625 24.625 391.59 24.625 392.78C24.625 393.97 25.5898 394.935 26.78 394.935Z" fill="black"/>
<path d="M72.0578 394.935C73.248 394.935 74.2128 393.97 74.2128 392.78C74.2128 391.59 73.248 390.625 72.0578 390.625C70.8677 390.625 69.9028 391.59 69.9028 392.78C69.9028 393.97 70.8677 394.935 72.0578 394.935Z" fill="black"/>
<path d="M117.336 394.935C118.526 394.935 119.491 393.97 119.491 392.78C119.491 391.59 118.526 390.625 117.336 390.625C116.145 390.625 115.181 391.59 115.181 392.78C115.181 393.97 116.145 394.935 117.336 394.935Z" fill="black"/>
<path d="M162.613 394.935C163.803 394.935 164.768 393.97 164.768 392.78C164.768 391.59 163.803 390.625 162.613 390.625C161.423 390.625 160.458 391.59 160.458 392.78C160.458 393.97 161.423 394.935 162.613 394.935Z" fill="black"/>
<path d="M207.891 394.935C209.082 394.935 210.046 393.97 210.046 392.78C210.046 391.59 209.082 390.625 207.891 390.625C206.701 390.625 205.736 391.59 205.736 392.78C205.736 393.97 206.701 394.935 207.891 394.935Z" fill="black"/>
<path d="M253.169 394.935C254.359 394.935 255.324 393.97 255.324 392.78C255.324 391.59 254.359 390.625 253.169 390.625C251.978 390.625 251.014 391.59 251.014 392.78C251.014 393.97 251.978 394.935 253.169 394.935Z" fill="black"/>
<path d="M298.447 394.935C299.637 394.935 300.602 393.97 300.602 392.78C300.602 391.59 299.637 390.625 298.447 390.625C297.256 390.625 296.292 391.59 296.292 392.78C296.292 393.97 297.256 394.935 298.447 394.935Z" fill="black"/>
<path d="M343.724 394.935C344.914 394.935 345.879 393.97 345.879 392.78C345.879 391.59 344.914 390.625 343.724 390.625C342.534 390.625 341.569 391.59 341.569 392.78C341.569 393.97 342.534 394.935 343.724 394.935Z" fill="black"/>
<path d="M389.002 394.935C390.192 394.935 391.157 393.97 391.157 392.78C391.157 391.59 390.192 390.625 389.002 390.625C387.812 390.625 386.847 391.59 386.847 392.78C386.847 393.97 387.812 394.935 389.002 394.935Z" fill="black"/>
<path d="M434.28 394.935C435.47 394.935 436.435 393.97 436.435 392.78C436.435 391.59 435.47 390.625 434.28 390.625C433.09 390.625 432.125 391.59 432.125 392.78C432.125 393.97 433.09 394.935 434.28 394.935Z" fill="black"/>
<path d="M479.558 394.935C480.748 394.935 481.713 393.97 481.713 392.78C481.713 391.59 480.748 390.625 479.558 390.625C478.368 390.625 477.403 391.59 477.403 392.78C477.403 393.97 478.368 394.935 479.558 394.935Z" fill="black"/>
<path d="M524.836 394.935C526.026 394.935 526.991 393.97 526.991 392.78C526.991 391.59 526.026 390.625 524.836 390.625C523.645 390.625 522.681 391.59 522.681 392.78C522.681 393.97 523.645 394.935 524.836 394.935Z" fill="black"/>
<path d="M570.113 394.935C571.303 394.935 572.268 393.97 572.268 392.78C572.268 391.59 571.303 390.625 570.113 390.625C568.923 390.625 567.958 391.59 567.958 392.78C567.958 393.97 568.923 394.935 570.113 394.935Z" fill="black"/>
<path d="M615.391 394.935C616.581 394.935 617.546 393.97 617.546 392.78C617.546 391.59 616.581 390.625 615.391 390.625C614.201 390.625 613.236 391.59 613.236 392.78C613.236 393.97 614.201 394.935 615.391 394.935Z" fill="black"/>
<path d="M660.669 394.935C661.859 394.935 662.824 393.97 662.824 392.78C662.824 391.59 661.859 390.625 660.669 390.625C659.479 390.625 658.514 391.59 658.514 392.78C658.514 393.97 659.479 394.935 660.669 394.935Z" fill="black"/>
<path d="M705.946 394.935C707.137 394.935 708.102 393.97 708.102 392.78C708.102 391.59 707.137 390.625 705.946 390.625C704.756 390.625 703.792 391.59 703.792 392.78C703.792 393.97 704.756 394.935 705.946 394.935Z" fill="black"/>
<path d="M751.224 394.935C752.414 394.935 753.379 393.97 753.379 392.78C753.379 391.59 752.414 390.625 751.224 390.625C750.034 390.625 749.069 391.59 749.069 392.78C749.069 393.97 750.034 394.935 751.224 394.935Z" fill="black"/>
</g>
</g>
<defs>
<clipPath id="clip0_28_19695">
<rect x="0.5" width="775" height="421" rx="20" fill="white"/>
</clipPath>
<clipPath id="clip1_28_19695">
<rect width="815" height="815" fill="white" transform="translate(-19.5 -61)"/>
</clipPath>
</defs>
</svg>
