<svg width="775" height="421" viewBox="0 0 775 421" fill="none" xmlns="http://www.w3.org/2000/svg">
<g clip-path="url(#clip0_10_2436)">
<g clip-path="url(#clip1_10_2436)">
<path d="M56.4167 -35C62.3699 -35 68.2649 -33.8274 73.765 -31.5492C79.2651 -29.271 84.2626 -25.9318 88.4722 -21.7222C92.6818 -17.5126 96.021 -12.5151 98.2992 -7.01498C100.577 -1.51489 101.75 4.38008 101.75 10.3333C101.75 16.2866 100.577 22.1816 98.2992 27.6817C96.021 33.1817 92.6818 38.1793 88.4722 42.3888C84.2626 46.5984 79.2651 49.9377 73.765 52.2159C68.2649 54.4941 62.3699 55.6667 56.4167 55.6667L56.4167 10.3333L56.4167 -35Z" fill="#222222"/>
</g>
<g clip-path="url(#clip2_10_2436)">
<path d="M56.4167 54.3333C62.3699 54.3333 68.2649 55.5059 73.765 57.7841C79.2651 60.0623 84.2626 63.4016 88.4722 67.6112C92.6818 71.8208 96.021 76.8183 98.2992 82.3184C100.577 87.8185 101.75 93.7134 101.75 99.6667C101.75 105.62 100.577 111.515 98.2992 117.015C96.021 122.515 92.6818 127.513 88.4722 131.722C84.2626 135.932 79.2651 139.271 73.765 141.549C68.2649 143.827 62.3699 145 56.4167 145L56.4167 99.6667L56.4167 54.3333Z" fill="#222222"/>
</g>
<g clip-path="url(#clip3_10_2436)">
<path d="M52.3333 233C46.3801 233 40.4851 231.827 34.985 229.549C29.4849 227.271 24.4874 223.932 20.2778 219.722C16.0682 215.513 12.729 210.515 10.4508 205.015C8.17258 199.515 7 193.62 7 187.667C7 181.713 8.17258 175.818 10.4508 170.318C12.729 164.818 16.0682 159.821 20.2778 155.611C24.4874 151.402 29.4849 148.062 34.985 145.784C40.4851 143.506 46.3801 142.333 52.3333 142.333L52.3333 187.667L52.3333 233Z" fill="#222222"/>
</g>
<g clip-path="url(#clip4_10_2436)">
<path d="M7.00007 278.333C7.00007 272.38 8.17266 266.485 10.4509 260.985C12.7291 255.485 16.0683 250.487 20.2779 246.278C24.4875 242.068 29.485 238.729 34.9851 236.451C40.4852 234.173 46.3802 233 52.3334 233C58.2867 233 64.1816 234.173 69.6817 236.451C75.1818 238.729 80.1793 242.068 84.3889 246.278C88.5985 250.487 91.9377 255.485 94.216 260.985C96.4942 266.485 97.6667 272.38 97.6667 278.333L52.3334 278.333L7.00007 278.333Z" fill="#222222"/>
</g>
<g clip-path="url(#clip5_10_2436)">
<path d="M56.4167 322.333C62.3699 322.333 68.2649 323.506 73.765 325.784C79.2651 328.062 84.2626 331.402 88.4722 335.611C92.6818 339.821 96.021 344.818 98.2992 350.318C100.577 355.818 101.75 361.713 101.75 367.667C101.75 373.62 100.577 379.515 98.2992 385.015C96.021 390.515 92.6818 395.513 88.4722 399.722C84.2626 403.932 79.2651 407.271 73.765 409.549C68.2649 411.827 62.3699 413 56.4167 413L56.4167 367.667L56.4167 322.333Z" fill="#222222"/>
</g>
<g clip-path="url(#clip6_10_2436)">
<path d="M196.5 9C196.5 14.9533 195.327 20.8482 193.049 26.3483C190.771 31.8484 187.432 36.8459 183.222 41.0555C179.013 45.2651 174.015 48.6043 168.515 50.8825C163.015 53.1608 157.12 54.3333 151.167 54.3333C145.213 54.3333 139.318 53.1608 133.818 50.8825C128.318 48.6043 123.321 45.2651 119.111 41.0555C114.901 36.8459 111.562 31.8484 109.284 26.3483C107.006 20.8482 105.833 14.9533 105.833 9L151.167 9L196.5 9Z" fill="#222222"/>
</g>
<g clip-path="url(#clip7_10_2436)">
<path d="M196.5 98.3333C196.5 104.287 195.327 110.182 193.049 115.682C190.771 121.182 187.432 126.179 183.222 130.389C179.013 134.598 174.015 137.938 168.515 140.216C163.015 142.494 157.12 143.667 151.167 143.667C145.213 143.667 139.318 142.494 133.818 140.216C128.318 137.938 123.321 134.598 119.111 130.389C114.901 126.179 111.562 121.182 109.284 115.682C107.006 110.182 105.833 104.287 105.833 98.3333L151.167 98.3333L196.5 98.3333Z" fill="#222222"/>
</g>
<g clip-path="url(#clip8_10_2436)">
<path d="M151.167 143.667C157.12 143.667 163.015 144.839 168.515 147.117C174.015 149.396 179.013 152.735 183.222 156.944C187.432 161.154 190.771 166.152 193.049 171.652C195.327 177.152 196.5 183.047 196.5 189C196.5 194.953 195.327 200.848 193.049 206.348C190.771 211.848 187.432 216.846 183.222 221.056C179.013 225.265 174.015 228.604 168.515 230.883C163.015 233.161 157.12 234.333 151.167 234.333L151.167 189L151.167 143.667Z" fill="#222222"/>
</g>
<g clip-path="url(#clip9_10_2436)">
<path d="M151.167 233C157.12 233 163.015 234.173 168.515 236.451C174.015 238.729 179.013 242.068 183.222 246.278C187.432 250.487 190.771 255.485 193.049 260.985C195.327 266.485 196.5 272.38 196.5 278.333C196.5 284.287 195.327 290.182 193.049 295.682C190.771 301.182 187.432 306.179 183.222 310.389C179.013 314.598 174.015 317.938 168.515 320.216C163.015 322.494 157.12 323.667 151.167 323.667L151.167 278.333L151.167 233Z" fill="#222222"/>
</g>
<g clip-path="url(#clip10_10_2436)">
<path d="M147.083 411.667C141.13 411.667 135.235 410.494 129.735 408.216C124.235 405.938 119.237 402.598 115.028 398.389C110.818 394.179 107.479 389.182 105.201 383.682C102.923 378.182 101.75 372.287 101.75 366.333C101.75 360.38 102.923 354.485 105.201 348.985C107.479 343.485 110.818 338.487 115.028 334.278C119.237 330.068 124.235 326.729 129.735 324.451C135.235 322.173 141.13 321 147.083 321L147.083 366.333L147.083 411.667Z" fill="#222222"/>
</g>
<g clip-path="url(#clip11_10_2436)">
<path d="M196.5 99.6667C196.5 93.7134 197.673 87.8184 199.951 82.3184C202.229 76.8183 205.568 71.8207 209.778 67.6112C213.987 63.4016 218.985 60.0623 224.485 57.7841C229.985 55.5059 235.88 54.3333 241.833 54.3333C247.787 54.3333 253.682 55.5059 259.182 57.7841C264.682 60.0623 269.679 63.4016 273.889 67.6112C278.099 71.8208 281.438 76.8183 283.716 82.3184C285.994 87.8185 287.167 93.7134 287.167 99.6667L241.833 99.6667L196.5 99.6667Z" fill="#222222"/>
</g>
<g clip-path="url(#clip12_10_2436)">
<path d="M291.25 187.667C291.25 193.62 290.077 199.515 287.799 205.015C285.521 210.515 282.182 215.513 277.972 219.722C273.763 223.932 268.765 227.271 263.265 229.549C257.765 231.827 251.87 233 245.917 233C239.963 233 234.068 231.827 228.568 229.549C223.068 227.271 218.071 223.932 213.861 219.722C209.651 215.513 206.312 210.515 204.034 205.015C201.756 199.515 200.583 193.62 200.583 187.667L245.917 187.667L291.25 187.667Z" fill="#222222"/>
</g>
<g clip-path="url(#clip13_10_2436)">
<path d="M245.917 233C251.87 233 257.765 234.173 263.265 236.451C268.765 238.729 273.763 242.068 277.972 246.278C282.182 250.487 285.521 255.485 287.799 260.985C290.077 266.485 291.25 272.38 291.25 278.333C291.25 284.287 290.077 290.182 287.799 295.682C285.521 301.182 282.182 306.179 277.972 310.389C273.763 314.598 268.765 317.938 263.265 320.216C257.765 322.494 251.87 323.667 245.917 323.667L245.917 278.333L245.917 233Z" fill="#222222"/>
</g>
<g clip-path="url(#clip14_10_2436)">
<path d="M291.25 366.333C291.25 372.287 290.077 378.182 287.799 383.682C285.521 389.182 282.182 394.179 277.972 398.389C273.763 402.598 268.765 405.938 263.265 408.216C257.765 410.494 251.87 411.667 245.917 411.667C239.963 411.667 234.068 410.494 228.568 408.216C223.068 405.938 218.071 402.598 213.861 398.389C209.651 394.179 206.312 389.182 204.034 383.682C201.756 378.182 200.583 372.287 200.583 366.333L245.917 366.333L291.25 366.333Z" fill="#222222"/>
</g>
<g clip-path="url(#clip15_10_2436)">
<path d="M336.583 54.3333C330.63 54.3333 324.735 53.1607 319.235 50.8825C313.735 48.6043 308.737 45.2651 304.528 41.0555C300.318 36.8459 296.979 31.8484 294.701 26.3483C292.423 20.8482 291.25 14.9532 291.25 8.99999C291.25 3.04673 292.423 -2.84823 294.701 -8.34833C296.979 -13.8484 300.318 -18.8459 304.528 -23.0555C308.737 -27.2651 313.735 -30.6043 319.235 -32.8825C324.735 -35.1608 330.63 -36.3333 336.583 -36.3333L336.583 8.99999L336.583 54.3333Z" fill="#222222"/>
</g>
<g clip-path="url(#clip16_10_2436)">
<path d="M340.667 54.3333C346.62 54.3333 352.515 55.5059 358.015 57.7841C363.515 60.0623 368.513 63.4016 372.722 67.6112C376.932 71.8208 380.271 76.8183 382.549 82.3184C384.827 87.8185 386 93.7134 386 99.6667C386 105.62 384.827 111.515 382.549 117.015C380.271 122.515 376.932 127.513 372.722 131.722C368.513 135.932 363.515 139.271 358.015 141.549C352.515 143.827 346.62 145 340.667 145L340.667 99.6667L340.667 54.3333Z" fill="#222222"/>
</g>
<g clip-path="url(#clip17_10_2436)">
<path d="M336.583 233C330.63 233 324.735 231.827 319.235 229.549C313.735 227.271 308.737 223.932 304.528 219.722C300.318 215.513 296.979 210.515 294.701 205.015C292.423 199.515 291.25 193.62 291.25 187.667C291.25 181.713 292.423 175.818 294.701 170.318C296.979 164.818 300.318 159.821 304.528 155.611C308.737 151.402 313.735 148.062 319.235 145.784C324.735 143.506 330.63 142.333 336.583 142.333L336.583 187.667L336.583 233Z" fill="#222222"/>
</g>
<g clip-path="url(#clip18_10_2436)">
<path d="M340.667 233C346.62 233 352.515 234.173 358.015 236.451C363.515 238.729 368.513 242.068 372.722 246.278C376.932 250.487 380.271 255.485 382.549 260.985C384.827 266.485 386 272.38 386 278.333C386 284.287 384.827 290.182 382.549 295.682C380.271 301.182 376.932 306.179 372.722 310.389C368.513 314.598 363.515 317.938 358.015 320.216C352.515 322.494 346.62 323.667 340.667 323.667L340.667 278.333L340.667 233Z" fill="#222222"/>
</g>
<g clip-path="url(#clip19_10_2436)">
<path d="M340.667 322.333C346.62 322.333 352.515 323.506 358.015 325.784C363.515 328.062 368.513 331.402 372.722 335.611C376.932 339.821 380.271 344.818 382.549 350.318C384.827 355.818 386 361.713 386 367.667C386 373.62 384.827 379.515 382.549 385.015C380.271 390.515 376.932 395.513 372.722 399.722C368.513 403.932 363.515 407.271 358.015 409.549C352.515 411.827 346.62 413 340.667 413L340.667 367.667L340.667 322.333Z" fill="#222222"/>
</g>
<g clip-path="url(#clip20_10_2436)">
<path d="M435.417 -35C441.37 -35 447.265 -33.8274 452.765 -31.5492C458.265 -29.271 463.263 -25.9318 467.472 -21.7222C471.682 -17.5126 475.021 -12.5151 477.299 -7.01498C479.577 -1.51489 480.75 4.38008 480.75 10.3333C480.75 16.2866 479.577 22.1816 477.299 27.6817C475.021 33.1817 471.682 38.1793 467.472 42.3888C463.263 46.5984 458.265 49.9377 452.765 52.2159C447.265 54.4941 441.37 55.6667 435.417 55.6667L435.417 10.3333L435.417 -35Z" fill="#222222"/>
</g>
<g clip-path="url(#clip21_10_2436)">
<path d="M480.75 98.3333C480.75 104.287 479.577 110.182 477.299 115.682C475.021 121.182 471.682 126.179 467.472 130.389C463.263 134.598 458.265 137.938 452.765 140.216C447.265 142.494 441.37 143.667 435.417 143.667C429.463 143.667 423.568 142.494 418.068 140.216C412.568 137.938 407.571 134.598 403.361 130.389C399.151 126.179 395.812 121.182 393.534 115.682C391.256 110.182 390.083 104.287 390.083 98.3333L435.417 98.3333L480.75 98.3333Z" fill="#222222"/>
</g>
<g clip-path="url(#clip22_10_2436)">
<path d="M431.333 233C425.38 233 419.485 231.827 413.985 229.549C408.485 227.271 403.487 223.932 399.278 219.722C395.068 215.513 391.729 210.515 389.451 205.015C387.173 199.515 386 193.62 386 187.667C386 181.713 387.173 175.818 389.451 170.318C391.729 164.818 395.068 159.821 399.278 155.611C403.487 151.402 408.485 148.062 413.985 145.784C419.485 143.506 425.38 142.333 431.333 142.333L431.333 187.667L431.333 233Z" fill="#222222"/>
</g>
<g clip-path="url(#clip23_10_2436)">
<path d="M386 278.333C386 272.38 387.173 266.485 389.451 260.985C391.729 255.485 395.068 250.487 399.278 246.278C403.487 242.068 408.485 238.729 413.985 236.451C419.485 234.173 425.38 233 431.333 233C437.287 233 443.182 234.173 448.682 236.451C454.182 238.729 459.179 242.068 463.389 246.278C467.599 250.487 470.938 255.485 473.216 260.985C475.494 266.485 476.667 272.38 476.667 278.333L431.333 278.333L386 278.333Z" fill="#222222"/>
</g>
<g clip-path="url(#clip24_10_2436)">
<path d="M386 367.667C386 361.713 387.173 355.818 389.451 350.318C391.729 344.818 395.068 339.821 399.278 335.611C403.487 331.402 408.485 328.062 413.985 325.784C419.485 323.506 425.38 322.333 431.333 322.333C437.287 322.333 443.182 323.506 448.682 325.784C454.182 328.062 459.179 331.402 463.389 335.611C467.599 339.821 470.938 344.818 473.216 350.318C475.494 355.818 476.667 361.713 476.667 367.667L431.333 367.667L386 367.667Z" fill="#222222"/>
</g>
<g clip-path="url(#clip25_10_2436)">
<path d="M526.083 54.3333C520.13 54.3333 514.235 53.1607 508.735 50.8825C503.235 48.6043 498.237 45.2651 494.028 41.0555C489.818 36.8459 486.479 31.8484 484.201 26.3483C481.923 20.8482 480.75 14.9532 480.75 8.99999C480.75 3.04673 481.923 -2.84823 484.201 -8.34833C486.479 -13.8484 489.818 -18.8459 494.028 -23.0555C498.237 -27.2651 503.235 -30.6043 508.735 -32.8825C514.235 -35.1608 520.13 -36.3333 526.083 -36.3333L526.083 8.99999L526.083 54.3333Z" fill="#222222"/>
</g>
<g clip-path="url(#clip26_10_2436)">
<path d="M575.5 98.3333C575.5 104.287 574.327 110.182 572.049 115.682C569.771 121.182 566.432 126.179 562.222 130.389C558.013 134.598 553.015 137.938 547.515 140.216C542.015 142.494 536.12 143.667 530.167 143.667C524.213 143.667 518.318 142.494 512.818 140.216C507.318 137.938 502.321 134.598 498.111 130.389C493.901 126.179 490.562 121.182 488.284 115.682C486.006 110.182 484.833 104.287 484.833 98.3333L530.167 98.3333L575.5 98.3333Z" fill="#222222"/>
</g>
<g clip-path="url(#clip27_10_2436)">
<path d="M526.083 233C520.13 233 514.235 231.827 508.735 229.549C503.235 227.271 498.237 223.932 494.028 219.722C489.818 215.513 486.479 210.515 484.201 205.015C481.923 199.515 480.75 193.62 480.75 187.667C480.75 181.713 481.923 175.818 484.201 170.318C486.479 164.818 489.818 159.821 494.028 155.611C498.237 151.402 503.235 148.062 508.735 145.784C514.235 143.506 520.13 142.333 526.083 142.333L526.083 187.667L526.083 233Z" fill="#222222"/>
</g>
<g clip-path="url(#clip28_10_2436)">
<path d="M575.5 277C575.5 282.953 574.327 288.848 572.049 294.348C569.771 299.848 566.432 304.846 562.222 309.056C558.013 313.265 553.015 316.604 547.515 318.883C542.015 321.161 536.12 322.333 530.167 322.333C524.213 322.333 518.318 321.161 512.818 318.883C507.318 316.604 502.321 313.265 498.111 309.056C493.901 304.846 490.562 299.848 488.284 294.348C486.006 288.848 484.833 282.953 484.833 277L530.167 277L575.5 277Z" fill="#222222"/>
</g>
<g clip-path="url(#clip29_10_2436)">
<path d="M526.083 411.667C520.13 411.667 514.235 410.494 508.735 408.216C503.235 405.938 498.237 402.598 494.028 398.389C489.818 394.179 486.479 389.182 484.201 383.682C481.923 378.182 480.75 372.287 480.75 366.333C480.75 360.38 481.923 354.485 484.201 348.985C486.479 343.485 489.818 338.487 494.028 334.278C498.237 330.068 503.235 326.729 508.735 324.451C514.235 322.173 520.13 321 526.083 321L526.083 366.333L526.083 411.667Z" fill="#222222"/>
</g>
<g clip-path="url(#clip30_10_2436)">
<path d="M620.833 54.3333C614.88 54.3333 608.985 53.1607 603.485 50.8825C597.985 48.6043 592.987 45.2651 588.778 41.0555C584.568 36.8459 581.229 31.8484 578.951 26.3483C576.673 20.8482 575.5 14.9532 575.5 8.99999C575.5 3.04673 576.673 -2.84823 578.951 -8.34833C581.229 -13.8484 584.568 -18.8459 588.778 -23.0555C592.987 -27.2651 597.985 -30.6043 603.485 -32.8825C608.985 -35.1608 614.88 -36.3333 620.833 -36.3333L620.833 8.99999L620.833 54.3333Z" fill="#222222"/>
</g>
<g clip-path="url(#clip31_10_2436)">
<path d="M670.25 98.3333C670.25 104.287 669.077 110.182 666.799 115.682C664.521 121.182 661.182 126.179 656.972 130.389C652.763 134.598 647.765 137.938 642.265 140.216C636.765 142.494 630.87 143.667 624.917 143.667C618.963 143.667 613.068 142.494 607.568 140.216C602.068 137.938 597.071 134.598 592.861 130.389C588.651 126.179 585.312 121.182 583.034 115.682C580.756 110.182 579.583 104.287 579.583 98.3333L624.917 98.3333L670.25 98.3333Z" fill="#222222"/>
</g>
<g clip-path="url(#clip32_10_2436)">
<path d="M620.833 233C614.88 233 608.985 231.827 603.485 229.549C597.985 227.271 592.987 223.932 588.778 219.722C584.568 215.513 581.229 210.515 578.951 205.015C576.673 199.515 575.5 193.62 575.5 187.667C575.5 181.713 576.673 175.818 578.951 170.318C581.229 164.818 584.568 159.821 588.778 155.611C592.987 151.402 597.985 148.062 603.485 145.784C608.985 143.506 614.88 142.333 620.833 142.333L620.833 187.667L620.833 233Z" fill="#222222"/>
</g>
<g clip-path="url(#clip33_10_2436)">
<path d="M670.25 277C670.25 282.953 669.077 288.848 666.799 294.348C664.521 299.848 661.182 304.846 656.972 309.056C652.763 313.265 647.765 316.604 642.265 318.883C636.765 321.161 630.87 322.333 624.917 322.333C618.963 322.333 613.068 321.161 607.568 318.883C602.068 316.604 597.071 313.265 592.861 309.056C588.651 304.846 585.312 299.848 583.034 294.348C580.756 288.848 579.583 282.953 579.583 277L624.917 277L670.25 277Z" fill="#222222"/>
</g>
<g clip-path="url(#clip34_10_2436)">
<path d="M620.833 411.667C614.88 411.667 608.985 410.494 603.485 408.216C597.985 405.938 592.987 402.598 588.778 398.389C584.568 394.179 581.229 389.182 578.951 383.682C576.673 378.182 575.5 372.287 575.5 366.333C575.5 360.38 576.673 354.485 578.951 348.985C581.229 343.485 584.568 338.487 588.778 334.278C592.987 330.068 597.985 326.729 603.485 324.451C608.985 322.173 614.88 321 620.833 321L620.833 366.333L620.833 411.667Z" fill="#222222"/>
</g>
<g clip-path="url(#clip35_10_2436)">
<path d="M765 9C765 14.9533 763.827 20.8482 761.549 26.3483C759.271 31.8484 755.932 36.8459 751.722 41.0555C747.513 45.2651 742.515 48.6043 737.015 50.8825C731.515 53.1608 725.62 54.3333 719.667 54.3333C713.713 54.3333 707.818 53.1608 702.318 50.8825C696.818 48.6043 691.821 45.2651 687.611 41.0555C683.401 36.8459 680.062 31.8484 677.784 26.3483C675.506 20.8482 674.333 14.9533 674.333 9L719.667 9L765 9Z" fill="#222222"/>
</g>
<g clip-path="url(#clip36_10_2436)">
<path d="M670.25 99.6667C670.25 93.7134 671.423 87.8184 673.701 82.3184C675.979 76.8183 679.318 71.8207 683.528 67.6112C687.737 63.4016 692.735 60.0623 698.235 57.7841C703.735 55.5059 709.63 54.3333 715.583 54.3333C721.537 54.3333 727.432 55.5059 732.932 57.7841C738.432 60.0623 743.429 63.4016 747.639 67.6112C751.849 71.8208 755.188 76.8183 757.466 82.3184C759.744 87.8185 760.917 93.7134 760.917 99.6667L715.583 99.6667L670.25 99.6667Z" fill="#222222"/>
</g>
<g clip-path="url(#clip37_10_2436)">
<path d="M765 187.667C765 193.62 763.827 199.515 761.549 205.015C759.271 210.515 755.932 215.513 751.722 219.722C747.513 223.932 742.515 227.271 737.015 229.549C731.515 231.827 725.62 233 719.667 233C713.713 233 707.818 231.827 702.318 229.549C696.818 227.271 691.821 223.932 687.611 219.722C683.401 215.513 680.062 210.515 677.784 205.015C675.506 199.515 674.333 193.62 674.333 187.667L719.667 187.667L765 187.667Z" fill="#222222"/>
</g>
<g clip-path="url(#clip38_10_2436)">
<path d="M715.583 322.333C709.63 322.333 703.735 321.161 698.235 318.883C692.735 316.604 687.737 313.265 683.528 309.056C679.318 304.846 675.979 299.848 673.701 294.348C671.423 288.848 670.25 282.953 670.25 277C670.25 271.047 671.423 265.152 673.701 259.652C675.979 254.152 679.318 249.154 683.528 244.944C687.737 240.735 692.735 237.396 698.235 235.117C703.735 232.839 709.63 231.667 715.583 231.667L715.583 277L715.583 322.333Z" fill="#222222"/>
</g>
<g clip-path="url(#clip39_10_2436)">
<path d="M719.667 322.333C725.62 322.333 731.515 323.506 737.015 325.784C742.515 328.062 747.513 331.402 751.722 335.611C755.932 339.821 759.271 344.818 761.549 350.318C763.827 355.818 765 361.713 765 367.667C765 373.62 763.827 379.515 761.549 385.015C759.271 390.515 755.932 395.513 751.722 399.722C747.513 403.932 742.515 407.271 737.015 409.549C731.515 411.827 725.62 413 719.667 413L719.667 367.667L719.667 322.333Z" fill="#222222"/>
</g>
<rect x="-31" y="-63.6667" width="862" height="72" fill="white"/>
</g>
<defs>
<clipPath id="clip0_10_2436">
<rect width="775" height="421" rx="20" fill="white"/>
</clipPath>
<clipPath id="clip1_10_2436">
<rect width="94.75" height="89.3333" fill="white" transform="matrix(-1 0 0 1 101.75 -35)"/>
</clipPath>
<clipPath id="clip2_10_2436">
<rect width="94.75" height="89.3333" fill="white" transform="matrix(-1 0 0 1 101.75 54.3333)"/>
</clipPath>
<clipPath id="clip3_10_2436">
<rect width="94.75" height="89.3333" fill="white" transform="matrix(1 0 0 -1 7 233)"/>
</clipPath>
<clipPath id="clip4_10_2436">
<rect width="89.3333" height="94.75" fill="white" transform="matrix(0 1 1 0 7 233)"/>
</clipPath>
<clipPath id="clip5_10_2436">
<rect width="94.75" height="89.3333" fill="white" transform="matrix(-1 0 0 1 101.75 322.333)"/>
</clipPath>
<clipPath id="clip6_10_2436">
<rect width="89.3333" height="94.75" fill="white" transform="matrix(0 -1 -1 0 196.5 54.3333)"/>
</clipPath>
<clipPath id="clip7_10_2436">
<rect width="89.3333" height="94.75" fill="white" transform="matrix(0 -1 -1 0 196.5 143.667)"/>
</clipPath>
<clipPath id="clip8_10_2436">
<rect width="94.75" height="89.3333" fill="white" transform="matrix(-1 0 0 1 196.5 143.667)"/>
</clipPath>
<clipPath id="clip9_10_2436">
<rect width="94.75" height="89.3333" fill="white" transform="matrix(-1 0 0 1 196.5 233)"/>
</clipPath>
<clipPath id="clip10_10_2436">
<rect width="94.75" height="89.3333" fill="white" transform="matrix(1 0 0 -1 101.75 411.667)"/>
</clipPath>
<clipPath id="clip11_10_2436">
<rect width="89.3333" height="94.75" fill="white" transform="matrix(0 1 1 0 196.5 54.3333)"/>
</clipPath>
<clipPath id="clip12_10_2436">
<rect width="89.3333" height="94.75" fill="white" transform="matrix(0 -1 -1 0 291.25 233)"/>
</clipPath>
<clipPath id="clip13_10_2436">
<rect width="94.75" height="89.3333" fill="white" transform="matrix(-1 0 0 1 291.25 233)"/>
</clipPath>
<clipPath id="clip14_10_2436">
<rect width="89.3333" height="94.75" fill="white" transform="matrix(0 -1 -1 0 291.25 411.667)"/>
</clipPath>
<clipPath id="clip15_10_2436">
<rect width="94.75" height="89.3333" fill="white" transform="matrix(1 0 0 -1 291.25 54.3333)"/>
</clipPath>
<clipPath id="clip16_10_2436">
<rect width="94.75" height="89.3333" fill="white" transform="matrix(-1 0 0 1 386 54.3333)"/>
</clipPath>
<clipPath id="clip17_10_2436">
<rect width="94.75" height="89.3333" fill="white" transform="matrix(1 0 0 -1 291.25 233)"/>
</clipPath>
<clipPath id="clip18_10_2436">
<rect width="94.75" height="89.3333" fill="white" transform="matrix(-1 0 0 1 386 233)"/>
</clipPath>
<clipPath id="clip19_10_2436">
<rect width="94.75" height="89.3333" fill="white" transform="matrix(-1 0 0 1 386 322.333)"/>
</clipPath>
<clipPath id="clip20_10_2436">
<rect width="94.75" height="89.3333" fill="white" transform="matrix(-1 0 0 1 480.75 -35)"/>
</clipPath>
<clipPath id="clip21_10_2436">
<rect width="89.3333" height="94.75" fill="white" transform="matrix(0 -1 -1 0 480.75 143.667)"/>
</clipPath>
<clipPath id="clip22_10_2436">
<rect width="94.75" height="89.3333" fill="white" transform="matrix(1 0 0 -1 386 233)"/>
</clipPath>
<clipPath id="clip23_10_2436">
<rect width="89.3333" height="94.75" fill="white" transform="matrix(0 1 1 0 386 233)"/>
</clipPath>
<clipPath id="clip24_10_2436">
<rect width="89.3333" height="94.75" fill="white" transform="matrix(0 1 1 0 386 322.333)"/>
</clipPath>
<clipPath id="clip25_10_2436">
<rect width="94.75" height="89.3333" fill="white" transform="matrix(1 0 0 -1 480.75 54.3333)"/>
</clipPath>
<clipPath id="clip26_10_2436">
<rect width="89.3333" height="94.75" fill="white" transform="matrix(0 -1 -1 0 575.5 143.667)"/>
</clipPath>
<clipPath id="clip27_10_2436">
<rect width="94.75" height="89.3333" fill="white" transform="matrix(1 0 0 -1 480.75 233)"/>
</clipPath>
<clipPath id="clip28_10_2436">
<rect width="89.3333" height="94.75" fill="white" transform="matrix(0 -1 -1 0 575.5 322.333)"/>
</clipPath>
<clipPath id="clip29_10_2436">
<rect width="94.75" height="89.3333" fill="white" transform="matrix(1 0 0 -1 480.75 411.667)"/>
</clipPath>
<clipPath id="clip30_10_2436">
<rect width="94.75" height="89.3333" fill="white" transform="matrix(1 0 0 -1 575.5 54.3333)"/>
</clipPath>
<clipPath id="clip31_10_2436">
<rect width="89.3333" height="94.75" fill="white" transform="matrix(0 -1 -1 0 670.25 143.667)"/>
</clipPath>
<clipPath id="clip32_10_2436">
<rect width="94.75" height="89.3333" fill="white" transform="matrix(1 0 0 -1 575.5 233)"/>
</clipPath>
<clipPath id="clip33_10_2436">
<rect width="89.3333" height="94.75" fill="white" transform="matrix(0 -1 -1 0 670.25 322.333)"/>
</clipPath>
<clipPath id="clip34_10_2436">
<rect width="94.75" height="89.3333" fill="white" transform="matrix(1 0 0 -1 575.5 411.667)"/>
</clipPath>
<clipPath id="clip35_10_2436">
<rect width="89.3333" height="94.75" fill="white" transform="matrix(0 -1 -1 0 765 54.3333)"/>
</clipPath>
<clipPath id="clip36_10_2436">
<rect width="89.3333" height="94.75" fill="white" transform="matrix(0 1 1 0 670.25 54.3333)"/>
</clipPath>
<clipPath id="clip37_10_2436">
<rect width="89.3333" height="94.75" fill="white" transform="matrix(0 -1 -1 0 765 233)"/>
</clipPath>
<clipPath id="clip38_10_2436">
<rect width="94.75" height="89.3333" fill="white" transform="matrix(1 0 0 -1 670.25 322.333)"/>
</clipPath>
<clipPath id="clip39_10_2436">
<rect width="94.75" height="89.3333" fill="white" transform="matrix(-1 0 0 1 765 322.333)"/>
</clipPath>
</defs>
</svg>
