<svg width="775" height="421" viewBox="0 0 775 421" fill="none" xmlns="http://www.w3.org/2000/svg">
<g clip-path="url(#clip0_13_11618)">
<g clip-path="url(#clip1_13_11618)">
<path d="M28.889 24.4157C30.2843 24.4157 31.4154 23.2846 31.4154 21.8892C31.4154 20.4939 30.2843 19.3628 28.889 19.3628C27.4937 19.3628 26.3625 20.4939 26.3625 21.8892C26.3625 23.2846 27.4937 24.4157 28.889 24.4157Z" fill="#222222"/>
<path d="M75.7779 24.4157C77.1732 24.4157 78.3044 23.2846 78.3044 21.8892C78.3044 20.4939 77.1732 19.3628 75.7779 19.3628C74.3826 19.3628 73.2515 20.4939 73.2515 21.8892C73.2515 23.2846 74.3826 24.4157 75.7779 24.4157Z" fill="#222222"/>
<path d="M122.667 24.4157C124.062 24.4157 125.193 23.2846 125.193 21.8892C125.193 20.4939 124.062 19.3628 122.667 19.3628C121.271 19.3628 120.14 20.4939 120.14 21.8892C120.14 23.2846 121.271 24.4157 122.667 24.4157Z" fill="#222222"/>
<path d="M169.555 24.4157C170.951 24.4157 172.082 23.2846 172.082 21.8892C172.082 20.4939 170.951 19.3628 169.555 19.3628C168.16 19.3628 167.029 20.4939 167.029 21.8892C167.029 23.2846 168.16 24.4157 169.555 24.4157Z" fill="#222222"/>
<path d="M216.444 24.4157C217.84 24.4157 218.971 23.2846 218.971 21.8892C218.971 20.4939 217.84 19.3628 216.444 19.3628C215.049 19.3628 213.918 20.4939 213.918 21.8892C213.918 23.2846 215.049 24.4157 216.444 24.4157Z" fill="#222222"/>
<path d="M263.334 24.4157C264.729 24.4157 265.86 23.2846 265.86 21.8892C265.86 20.4939 264.729 19.3628 263.334 19.3628C261.938 19.3628 260.807 20.4939 260.807 21.8892C260.807 23.2846 261.938 24.4157 263.334 24.4157Z" fill="#222222"/>
<path d="M310.222 24.4157C311.618 24.4157 312.749 23.2846 312.749 21.8892C312.749 20.4939 311.618 19.3628 310.222 19.3628C308.827 19.3628 307.696 20.4939 307.696 21.8892C307.696 23.2846 308.827 24.4157 310.222 24.4157Z" fill="#222222"/>
<path d="M357.111 24.4157C358.506 24.4157 359.638 23.2846 359.638 21.8892C359.638 20.4939 358.506 19.3628 357.111 19.3628C355.716 19.3628 354.585 20.4939 354.585 21.8892C354.585 23.2846 355.716 24.4157 357.111 24.4157Z" fill="#222222"/>
<path d="M404 24.4157C405.395 24.4157 406.527 23.2846 406.527 21.8892C406.527 20.4939 405.395 19.3628 404 19.3628C402.605 19.3628 401.474 20.4939 401.474 21.8892C401.474 23.2846 402.605 24.4157 404 24.4157Z" fill="#222222"/>
<path d="M450.889 24.4157C452.284 24.4157 453.415 23.2846 453.415 21.8892C453.415 20.4939 452.284 19.3628 450.889 19.3628C449.494 19.3628 448.363 20.4939 448.363 21.8892C448.363 23.2846 449.494 24.4157 450.889 24.4157Z" fill="#222222"/>
<path d="M497.778 24.4157C499.173 24.4157 500.304 23.2846 500.304 21.8892C500.304 20.4939 499.173 19.3628 497.778 19.3628C496.383 19.3628 495.251 20.4939 495.251 21.8892C495.251 23.2846 496.383 24.4157 497.778 24.4157Z" fill="#C0343B"/>
<path d="M544.667 24.4157C546.062 24.4157 547.193 23.2846 547.193 21.8892C547.193 20.4939 546.062 19.3628 544.667 19.3628C543.271 19.3628 542.14 20.4939 542.14 21.8892C542.14 23.2846 543.271 24.4157 544.667 24.4157Z" fill="#C0343B"/>
<path d="M591.555 24.4157C592.951 24.4157 594.082 23.2846 594.082 21.8892C594.082 20.4939 592.951 19.3628 591.555 19.3628C590.16 19.3628 589.029 20.4939 589.029 21.8892C589.029 23.2846 590.16 24.4157 591.555 24.4157Z" fill="#C0343B"/>
<path d="M638.444 24.4157C639.84 24.4157 640.971 23.2846 640.971 21.8892C640.971 20.4939 639.84 19.3628 638.444 19.3628C637.049 19.3628 635.918 20.4939 635.918 21.8892C635.918 23.2846 637.049 24.4157 638.444 24.4157Z" fill="#222222"/>
<path d="M685.333 24.4157C686.728 24.4157 687.86 23.2846 687.86 21.8892C687.86 20.4939 686.728 19.3628 685.333 19.3628C683.938 19.3628 682.807 20.4939 682.807 21.8892C682.807 23.2846 683.938 24.4157 685.333 24.4157Z" fill="#222222"/>
<path d="M732.222 24.4157C733.617 24.4157 734.748 23.2846 734.748 21.8892C734.748 20.4939 733.617 19.3628 732.222 19.3628C730.827 19.3628 729.696 20.4939 729.696 21.8892C729.696 23.2846 730.827 24.4157 732.222 24.4157Z" fill="#222222"/>
<path d="M28.889 71.3044C30.2843 71.3044 31.4154 70.1732 31.4154 68.7779C31.4154 67.3826 30.2843 66.2515 28.889 66.2515C27.4937 66.2515 26.3625 67.3826 26.3625 68.7779C26.3625 70.1732 27.4937 71.3044 28.889 71.3044Z" fill="#222222"/>
<path d="M75.7779 71.3044C77.1732 71.3044 78.3044 70.1732 78.3044 68.7779C78.3044 67.3826 77.1732 66.2515 75.7779 66.2515C74.3826 66.2515 73.2515 67.3826 73.2515 68.7779C73.2515 70.1732 74.3826 71.3044 75.7779 71.3044Z" fill="#222222"/>
<path d="M122.667 71.3044C124.062 71.3044 125.193 70.1732 125.193 68.7779C125.193 67.3826 124.062 66.2515 122.667 66.2515C121.271 66.2515 120.14 67.3826 120.14 68.7779C120.14 70.1732 121.271 71.3044 122.667 71.3044Z" fill="#222222"/>
<path d="M169.555 71.3044C170.951 71.3044 172.082 70.1732 172.082 68.7779C172.082 67.3826 170.951 66.2515 169.555 66.2515C168.16 66.2515 167.029 67.3826 167.029 68.7779C167.029 70.1732 168.16 71.3044 169.555 71.3044Z" fill="#222222"/>
<path d="M216.444 71.3044C217.84 71.3044 218.971 70.1732 218.971 68.7779C218.971 67.3826 217.84 66.2515 216.444 66.2515C215.049 66.2515 213.918 67.3826 213.918 68.7779C213.918 70.1732 215.049 71.3044 216.444 71.3044Z" fill="#222222"/>
<path d="M263.334 71.3044C264.729 71.3044 265.86 70.1732 265.86 68.7779C265.86 67.3826 264.729 66.2515 263.334 66.2515C261.938 66.2515 260.807 67.3826 260.807 68.7779C260.807 70.1732 261.938 71.3044 263.334 71.3044Z" fill="#222222"/>
<path d="M310.222 71.3044C311.618 71.3044 312.749 70.1732 312.749 68.7779C312.749 67.3826 311.618 66.2515 310.222 66.2515C308.827 66.2515 307.696 67.3826 307.696 68.7779C307.696 70.1732 308.827 71.3044 310.222 71.3044Z" fill="#222222"/>
<path d="M357.111 71.3044C358.506 71.3044 359.638 70.1732 359.638 68.7779C359.638 67.3826 358.506 66.2515 357.111 66.2515C355.716 66.2515 354.585 67.3826 354.585 68.7779C354.585 70.1732 355.716 71.3044 357.111 71.3044Z" fill="#222222"/>
<path d="M404 71.3044C405.395 71.3044 406.527 70.1732 406.527 68.7779C406.527 67.3826 405.395 66.2515 404 66.2515C402.605 66.2515 401.474 67.3826 401.474 68.7779C401.474 70.1732 402.605 71.3044 404 71.3044Z" fill="#222222"/>
<path d="M450.889 71.3044C452.284 71.3044 453.415 70.1732 453.415 68.7779C453.415 67.3826 452.284 66.2515 450.889 66.2515C449.494 66.2515 448.363 67.3826 448.363 68.7779C448.363 70.1732 449.494 71.3044 450.889 71.3044Z" fill="#222222"/>
<path d="M497.778 71.3044C499.173 71.3044 500.304 70.1732 500.304 68.7779C500.304 67.3826 499.173 66.2515 497.778 66.2515C496.383 66.2515 495.251 67.3826 495.251 68.7779C495.251 70.1732 496.383 71.3044 497.778 71.3044Z" fill="#C0343B"/>
<path d="M544.667 71.3044C546.062 71.3044 547.193 70.1732 547.193 68.7779C547.193 67.3826 546.062 66.2515 544.667 66.2515C543.271 66.2515 542.14 67.3826 542.14 68.7779C542.14 70.1732 543.271 71.3044 544.667 71.3044Z" fill="#C0343B"/>
<path d="M591.555 71.3044C592.951 71.3044 594.082 70.1732 594.082 68.7779C594.082 67.3826 592.951 66.2515 591.555 66.2515C590.16 66.2515 589.029 67.3826 589.029 68.7779C589.029 70.1732 590.16 71.3044 591.555 71.3044Z" fill="#C0343B"/>
<path d="M638.444 71.3044C639.84 71.3044 640.971 70.1732 640.971 68.7779C640.971 67.3826 639.84 66.2515 638.444 66.2515C637.049 66.2515 635.918 67.3826 635.918 68.7779C635.918 70.1732 637.049 71.3044 638.444 71.3044Z" fill="#222222"/>
<path d="M685.333 71.3044C686.728 71.3044 687.86 70.1732 687.86 68.7779C687.86 67.3826 686.728 66.2515 685.333 66.2515C683.938 66.2515 682.807 67.3826 682.807 68.7779C682.807 70.1732 683.938 71.3044 685.333 71.3044Z" fill="#222222"/>
<path d="M732.222 71.3044C733.617 71.3044 734.748 70.1732 734.748 68.7779C734.748 67.3826 733.617 66.2515 732.222 66.2515C730.827 66.2515 729.696 67.3826 729.696 68.7779C729.696 70.1732 730.827 71.3044 732.222 71.3044Z" fill="#222222"/>
<path d="M28.889 118.193C30.2843 118.193 31.4154 117.062 31.4154 115.667C31.4154 114.272 30.2843 113.14 28.889 113.14C27.4937 113.14 26.3625 114.272 26.3625 115.667C26.3625 117.062 27.4937 118.193 28.889 118.193Z" fill="#222222"/>
<path d="M75.7779 118.193C77.1732 118.193 78.3044 117.062 78.3044 115.667C78.3044 114.272 77.1732 113.14 75.7779 113.14C74.3826 113.14 73.2515 114.272 73.2515 115.667C73.2515 117.062 74.3826 118.193 75.7779 118.193Z" fill="#222222"/>
<path d="M122.667 118.193C124.062 118.193 125.193 117.062 125.193 115.667C125.193 114.272 124.062 113.14 122.667 113.14C121.271 113.14 120.14 114.272 120.14 115.667C120.14 117.062 121.271 118.193 122.667 118.193Z" fill="#222222"/>
<path d="M169.555 118.193C170.951 118.193 172.082 117.062 172.082 115.667C172.082 114.272 170.951 113.14 169.555 113.14C168.16 113.14 167.029 114.272 167.029 115.667C167.029 117.062 168.16 118.193 169.555 118.193Z" fill="#222222"/>
<path d="M216.444 118.193C217.84 118.193 218.971 117.062 218.971 115.667C218.971 114.272 217.84 113.14 216.444 113.14C215.049 113.14 213.918 114.272 213.918 115.667C213.918 117.062 215.049 118.193 216.444 118.193Z" fill="#222222"/>
<path d="M263.334 118.193C264.729 118.193 265.86 117.062 265.86 115.667C265.86 114.272 264.729 113.14 263.334 113.14C261.938 113.14 260.807 114.272 260.807 115.667C260.807 117.062 261.938 118.193 263.334 118.193Z" fill="#222222"/>
<path d="M310.222 118.193C311.618 118.193 312.749 117.062 312.749 115.667C312.749 114.272 311.618 113.14 310.222 113.14C308.827 113.14 307.696 114.272 307.696 115.667C307.696 117.062 308.827 118.193 310.222 118.193Z" fill="#222222"/>
<path d="M357.111 118.193C358.506 118.193 359.638 117.062 359.638 115.667C359.638 114.272 358.506 113.14 357.111 113.14C355.716 113.14 354.585 114.272 354.585 115.667C354.585 117.062 355.716 118.193 357.111 118.193Z" fill="#222222"/>
<path d="M404 118.193C405.395 118.193 406.527 117.062 406.527 115.667C406.527 114.272 405.395 113.14 404 113.14C402.605 113.14 401.474 114.272 401.474 115.667C401.474 117.062 402.605 118.193 404 118.193Z" fill="#222222"/>
<path d="M450.889 118.193C452.284 118.193 453.415 117.062 453.415 115.667C453.415 114.272 452.284 113.14 450.889 113.14C449.494 113.14 448.363 114.272 448.363 115.667C448.363 117.062 449.494 118.193 450.889 118.193Z" fill="#222222"/>
<path d="M497.778 118.193C499.173 118.193 500.304 117.062 500.304 115.667C500.304 114.272 499.173 113.14 497.778 113.14C496.383 113.14 495.251 114.272 495.251 115.667C495.251 117.062 496.383 118.193 497.778 118.193Z" fill="#C0343B"/>
<path d="M544.667 118.193C546.062 118.193 547.193 117.062 547.193 115.667C547.193 114.272 546.062 113.14 544.667 113.14C543.271 113.14 542.14 114.272 542.14 115.667C542.14 117.062 543.271 118.193 544.667 118.193Z" fill="#C0343B"/>
<path d="M591.555 118.193C592.951 118.193 594.082 117.062 594.082 115.667C594.082 114.272 592.951 113.14 591.555 113.14C590.16 113.14 589.029 114.272 589.029 115.667C589.029 117.062 590.16 118.193 591.555 118.193Z" fill="#C0343B"/>
<path d="M638.444 118.193C639.84 118.193 640.971 117.062 640.971 115.667C640.971 114.272 639.84 113.14 638.444 113.14C637.049 113.14 635.918 114.272 635.918 115.667C635.918 117.062 637.049 118.193 638.444 118.193Z" fill="#222222"/>
<path d="M685.333 118.193C686.728 118.193 687.86 117.062 687.86 115.667C687.86 114.272 686.728 113.14 685.333 113.14C683.938 113.14 682.807 114.272 682.807 115.667C682.807 117.062 683.938 118.193 685.333 118.193Z" fill="#222222"/>
<path d="M732.222 118.193C733.617 118.193 734.748 117.062 734.748 115.667C734.748 114.272 733.617 113.14 732.222 113.14C730.827 113.14 729.696 114.272 729.696 115.667C729.696 117.062 730.827 118.193 732.222 118.193Z" fill="#222222"/>
<path d="M28.889 165.082C30.2843 165.082 31.4154 163.951 31.4154 162.556C31.4154 161.16 30.2843 160.029 28.889 160.029C27.4937 160.029 26.3625 161.16 26.3625 162.556C26.3625 163.951 27.4937 165.082 28.889 165.082Z" fill="#222222"/>
<path d="M75.7779 165.082C77.1732 165.082 78.3044 163.951 78.3044 162.556C78.3044 161.16 77.1732 160.029 75.7779 160.029C74.3826 160.029 73.2515 161.16 73.2515 162.556C73.2515 163.951 74.3826 165.082 75.7779 165.082Z" fill="#222222"/>
<path d="M122.667 165.082C124.062 165.082 125.193 163.951 125.193 162.556C125.193 161.16 124.062 160.029 122.667 160.029C121.271 160.029 120.14 161.16 120.14 162.556C120.14 163.951 121.271 165.082 122.667 165.082Z" fill="#222222"/>
<path d="M169.555 165.082C170.951 165.082 172.082 163.951 172.082 162.556C172.082 161.16 170.951 160.029 169.555 160.029C168.16 160.029 167.029 161.16 167.029 162.556C167.029 163.951 168.16 165.082 169.555 165.082Z" fill="#222222"/>
<path d="M216.444 165.082C217.84 165.082 218.971 163.951 218.971 162.556C218.971 161.16 217.84 160.029 216.444 160.029C215.049 160.029 213.918 161.16 213.918 162.556C213.918 163.951 215.049 165.082 216.444 165.082Z" fill="#C0343B"/>
<path d="M263.334 165.082C264.729 165.082 265.86 163.951 265.86 162.556C265.86 161.16 264.729 160.029 263.334 160.029C261.938 160.029 260.807 161.16 260.807 162.556C260.807 163.951 261.938 165.082 263.334 165.082Z" fill="#C0343B"/>
<path d="M310.222 165.082C311.618 165.082 312.749 163.951 312.749 162.556C312.749 161.16 311.618 160.029 310.222 160.029C308.827 160.029 307.696 161.16 307.696 162.556C307.696 163.951 308.827 165.082 310.222 165.082Z" fill="#C0343B"/>
<path d="M357.111 165.082C358.506 165.082 359.638 163.951 359.638 162.556C359.638 161.16 358.506 160.029 357.111 160.029C355.716 160.029 354.585 161.16 354.585 162.556C354.585 163.951 355.716 165.082 357.111 165.082Z" fill="#C0343B"/>
<path d="M404 165.082C405.395 165.082 406.527 163.951 406.527 162.556C406.527 161.16 405.395 160.029 404 160.029C402.605 160.029 401.474 161.16 401.474 162.556C401.474 163.951 402.605 165.082 404 165.082Z" fill="#C0343B"/>
<path d="M450.889 165.082C452.284 165.082 453.415 163.951 453.415 162.556C453.415 161.16 452.284 160.029 450.889 160.029C449.494 160.029 448.363 161.16 448.363 162.556C448.363 163.951 449.494 165.082 450.889 165.082Z" fill="#C0343B"/>
<path d="M497.778 165.082C499.173 165.082 500.304 163.951 500.304 162.556C500.304 161.16 499.173 160.029 497.778 160.029C496.383 160.029 495.251 161.16 495.251 162.556C495.251 163.951 496.383 165.082 497.778 165.082Z" fill="#C0343B"/>
<path d="M544.667 165.082C546.062 165.082 547.193 163.951 547.193 162.556C547.193 161.16 546.062 160.029 544.667 160.029C543.271 160.029 542.14 161.16 542.14 162.556C542.14 163.951 543.271 165.082 544.667 165.082Z" fill="#C0343B"/>
<path d="M591.555 165.082C592.951 165.082 594.082 163.951 594.082 162.556C594.082 161.16 592.951 160.029 591.555 160.029C590.16 160.029 589.029 161.16 589.029 162.556C589.029 163.951 590.16 165.082 591.555 165.082Z" fill="#C0343B"/>
<path d="M638.444 165.082C639.84 165.082 640.971 163.951 640.971 162.556C640.971 161.16 639.84 160.029 638.444 160.029C637.049 160.029 635.918 161.16 635.918 162.556C635.918 163.951 637.049 165.082 638.444 165.082Z" fill="#222222"/>
<path d="M685.333 165.082C686.728 165.082 687.86 163.951 687.86 162.556C687.86 161.16 686.728 160.029 685.333 160.029C683.938 160.029 682.807 161.16 682.807 162.556C682.807 163.951 683.938 165.082 685.333 165.082Z" fill="#222222"/>
<path d="M732.222 165.082C733.617 165.082 734.748 163.951 734.748 162.556C734.748 161.16 733.617 160.029 732.222 160.029C730.827 160.029 729.696 161.16 729.696 162.556C729.696 163.951 730.827 165.082 732.222 165.082Z" fill="#222222"/>
<path d="M28.889 211.971C30.2843 211.971 31.4154 210.84 31.4154 209.445C31.4154 208.049 30.2843 206.918 28.889 206.918C27.4937 206.918 26.3625 208.049 26.3625 209.445C26.3625 210.84 27.4937 211.971 28.889 211.971Z" fill="#222222"/>
<path d="M75.7779 211.971C77.1732 211.971 78.3044 210.84 78.3044 209.445C78.3044 208.049 77.1732 206.918 75.7779 206.918C74.3826 206.918 73.2515 208.049 73.2515 209.445C73.2515 210.84 74.3826 211.971 75.7779 211.971Z" fill="#222222"/>
<path d="M122.667 211.971C124.062 211.971 125.193 210.84 125.193 209.445C125.193 208.049 124.062 206.918 122.667 206.918C121.271 206.918 120.14 208.049 120.14 209.445C120.14 210.84 121.271 211.971 122.667 211.971Z" fill="#222222"/>
<path d="M169.555 211.971C170.951 211.971 172.082 210.84 172.082 209.445C172.082 208.049 170.951 206.918 169.555 206.918C168.16 206.918 167.029 208.049 167.029 209.445C167.029 210.84 168.16 211.971 169.555 211.971Z" fill="#222222"/>
<path d="M216.444 211.971C217.84 211.971 218.971 210.84 218.971 209.445C218.971 208.049 217.84 206.918 216.444 206.918C215.049 206.918 213.918 208.049 213.918 209.445C213.918 210.84 215.049 211.971 216.444 211.971Z" fill="#C0343B"/>
<path d="M263.334 211.971C264.729 211.971 265.86 210.84 265.86 209.445C265.86 208.049 264.729 206.918 263.334 206.918C261.938 206.918 260.807 208.049 260.807 209.445C260.807 210.84 261.938 211.971 263.334 211.971Z" fill="#C0343B"/>
<path d="M310.222 211.971C311.618 211.971 312.749 210.84 312.749 209.445C312.749 208.049 311.618 206.918 310.222 206.918C308.827 206.918 307.696 208.049 307.696 209.445C307.696 210.84 308.827 211.971 310.222 211.971Z" fill="#C0343B"/>
<path d="M357.111 211.971C358.506 211.971 359.638 210.84 359.638 209.445C359.638 208.049 358.506 206.918 357.111 206.918C355.716 206.918 354.585 208.049 354.585 209.445C354.585 210.84 355.716 211.971 357.111 211.971Z" fill="#C0343B"/>
<path d="M404 211.971C405.395 211.971 406.527 210.84 406.527 209.445C406.527 208.049 405.395 206.918 404 206.918C402.605 206.918 401.474 208.049 401.474 209.445C401.474 210.84 402.605 211.971 404 211.971Z" fill="#C0343B"/>
<path d="M450.889 211.971C452.284 211.971 453.415 210.84 453.415 209.445C453.415 208.049 452.284 206.918 450.889 206.918C449.494 206.918 448.363 208.049 448.363 209.445C448.363 210.84 449.494 211.971 450.889 211.971Z" fill="#C0343B"/>
<path d="M497.778 211.971C499.173 211.971 500.304 210.84 500.304 209.445C500.304 208.049 499.173 206.918 497.778 206.918C496.383 206.918 495.251 208.049 495.251 209.445C495.251 210.84 496.383 211.971 497.778 211.971Z" fill="#C0343B"/>
<path d="M544.667 211.971C546.062 211.971 547.193 210.84 547.193 209.445C547.193 208.049 546.062 206.918 544.667 206.918C543.271 206.918 542.14 208.049 542.14 209.445C542.14 210.84 543.271 211.971 544.667 211.971Z" fill="#C0343B"/>
<path d="M591.555 211.971C592.951 211.971 594.082 210.84 594.082 209.445C594.082 208.049 592.951 206.918 591.555 206.918C590.16 206.918 589.029 208.049 589.029 209.445C589.029 210.84 590.16 211.971 591.555 211.971Z" fill="#222222"/>
<path d="M638.444 211.971C639.84 211.971 640.971 210.84 640.971 209.445C640.971 208.049 639.84 206.918 638.444 206.918C637.049 206.918 635.918 208.049 635.918 209.445C635.918 210.84 637.049 211.971 638.444 211.971Z" fill="#222222"/>
<path d="M685.333 211.971C686.728 211.971 687.86 210.84 687.86 209.445C687.86 208.049 686.728 206.918 685.333 206.918C683.938 206.918 682.807 208.049 682.807 209.445C682.807 210.84 683.938 211.971 685.333 211.971Z" fill="#222222"/>
<path d="M732.222 211.971C733.617 211.971 734.748 210.84 734.748 209.445C734.748 208.049 733.617 206.918 732.222 206.918C730.827 206.918 729.696 208.049 729.696 209.445C729.696 210.84 730.827 211.971 732.222 211.971Z" fill="#222222"/>
<path d="M28.889 258.86C30.2843 258.86 31.4154 257.729 31.4154 256.334C31.4154 254.938 30.2843 253.807 28.889 253.807C27.4937 253.807 26.3625 254.938 26.3625 256.334C26.3625 257.729 27.4937 258.86 28.889 258.86Z" fill="#222222"/>
<path d="M75.7779 258.86C77.1732 258.86 78.3044 257.729 78.3044 256.334C78.3044 254.938 77.1732 253.807 75.7779 253.807C74.3826 253.807 73.2515 254.938 73.2515 256.334C73.2515 257.729 74.3826 258.86 75.7779 258.86Z" fill="#222222"/>
<path d="M122.667 258.86C124.062 258.86 125.193 257.729 125.193 256.334C125.193 254.938 124.062 253.807 122.667 253.807C121.271 253.807 120.14 254.938 120.14 256.334C120.14 257.729 121.271 258.86 122.667 258.86Z" fill="#222222"/>
<path d="M169.555 258.86C170.951 258.86 172.082 257.729 172.082 256.334C172.082 254.938 170.951 253.807 169.555 253.807C168.16 253.807 167.029 254.938 167.029 256.334C167.029 257.729 168.16 258.86 169.555 258.86Z" fill="#222222"/>
<path d="M216.444 258.86C217.84 258.86 218.971 257.729 218.971 256.334C218.971 254.938 217.84 253.807 216.444 253.807C215.049 253.807 213.918 254.938 213.918 256.334C213.918 257.729 215.049 258.86 216.444 258.86Z" fill="#C0343B"/>
<path d="M263.334 258.86C264.729 258.86 265.86 257.729 265.86 256.334C265.86 254.938 264.729 253.807 263.334 253.807C261.938 253.807 260.807 254.938 260.807 256.334C260.807 257.729 261.938 258.86 263.334 258.86Z" fill="#C0343B"/>
<path d="M310.222 258.86C311.618 258.86 312.749 257.729 312.749 256.334C312.749 254.938 311.618 253.807 310.222 253.807C308.827 253.807 307.696 254.938 307.696 256.334C307.696 257.729 308.827 258.86 310.222 258.86Z" fill="#C0343B"/>
<path d="M357.111 258.86C358.506 258.86 359.638 257.729 359.638 256.334C359.638 254.938 358.506 253.807 357.111 253.807C355.716 253.807 354.585 254.938 354.585 256.334C354.585 257.729 355.716 258.86 357.111 258.86Z" fill="#C0343B"/>
<path d="M404 258.86C405.395 258.86 406.527 257.729 406.527 256.334C406.527 254.938 405.395 253.807 404 253.807C402.605 253.807 401.474 254.938 401.474 256.334C401.474 257.729 402.605 258.86 404 258.86Z" fill="#C0343B"/>
<path d="M450.889 258.86C452.284 258.86 453.415 257.729 453.415 256.334C453.415 254.938 452.284 253.807 450.889 253.807C449.494 253.807 448.363 254.938 448.363 256.334C448.363 257.729 449.494 258.86 450.889 258.86Z" fill="#C0343B"/>
<path d="M497.778 258.86C499.173 258.86 500.304 257.729 500.304 256.334C500.304 254.938 499.173 253.807 497.778 253.807C496.383 253.807 495.251 254.938 495.251 256.334C495.251 257.729 496.383 258.86 497.778 258.86Z" fill="#C0343B"/>
<path d="M544.667 258.86C546.062 258.86 547.193 257.729 547.193 256.334C547.193 254.938 546.062 253.807 544.667 253.807C543.271 253.807 542.14 254.938 542.14 256.334C542.14 257.729 543.271 258.86 544.667 258.86Z" fill="#C0343B"/>
<path d="M591.555 258.86C592.951 258.86 594.082 257.729 594.082 256.334C594.082 254.938 592.951 253.807 591.555 253.807C590.16 253.807 589.029 254.938 589.029 256.334C589.029 257.729 590.16 258.86 591.555 258.86Z" fill="#222222"/>
<path d="M638.444 258.86C639.84 258.86 640.971 257.729 640.971 256.334C640.971 254.938 639.84 253.807 638.444 253.807C637.049 253.807 635.918 254.938 635.918 256.334C635.918 257.729 637.049 258.86 638.444 258.86Z" fill="#222222"/>
<path d="M685.333 258.86C686.728 258.86 687.86 257.729 687.86 256.334C687.86 254.938 686.728 253.807 685.333 253.807C683.938 253.807 682.807 254.938 682.807 256.334C682.807 257.729 683.938 258.86 685.333 258.86Z" fill="#222222"/>
<path d="M732.222 258.86C733.617 258.86 734.748 257.729 734.748 256.334C734.748 254.938 733.617 253.807 732.222 253.807C730.827 253.807 729.696 254.938 729.696 256.334C729.696 257.729 730.827 258.86 732.222 258.86Z" fill="#222222"/>
<path d="M28.889 305.749C30.2843 305.749 31.4154 304.618 31.4154 303.223C31.4154 301.827 30.2843 300.696 28.889 300.696C27.4937 300.696 26.3625 301.827 26.3625 303.223C26.3625 304.618 27.4937 305.749 28.889 305.749Z" fill="#222222"/>
<path d="M75.7779 305.749C77.1732 305.749 78.3044 304.618 78.3044 303.223C78.3044 301.827 77.1732 300.696 75.7779 300.696C74.3826 300.696 73.2515 301.827 73.2515 303.223C73.2515 304.618 74.3826 305.749 75.7779 305.749Z" fill="#222222"/>
<path d="M122.667 305.749C124.062 305.749 125.193 304.618 125.193 303.223C125.193 301.827 124.062 300.696 122.667 300.696C121.271 300.696 120.14 301.827 120.14 303.223C120.14 304.618 121.271 305.749 122.667 305.749Z" fill="#222222"/>
<path d="M169.555 305.749C170.951 305.749 172.082 304.618 172.082 303.223C172.082 301.827 170.951 300.696 169.555 300.696C168.16 300.696 167.029 301.827 167.029 303.223C167.029 304.618 168.16 305.749 169.555 305.749Z" fill="#222222"/>
<path d="M216.444 305.749C217.84 305.749 218.971 304.618 218.971 303.223C218.971 301.827 217.84 300.696 216.444 300.696C215.049 300.696 213.918 301.827 213.918 303.223C213.918 304.618 215.049 305.749 216.444 305.749Z" fill="#222222"/>
<path d="M263.334 305.749C264.729 305.749 265.86 304.618 265.86 303.223C265.86 301.827 264.729 300.696 263.334 300.696C261.938 300.696 260.807 301.827 260.807 303.223C260.807 304.618 261.938 305.749 263.334 305.749Z" fill="#222222"/>
<path d="M310.222 305.749C311.618 305.749 312.749 304.618 312.749 303.223C312.749 301.827 311.618 300.696 310.222 300.696C308.827 300.696 307.696 301.827 307.696 303.223C307.696 304.618 308.827 305.749 310.222 305.749Z" fill="#222222"/>
<path d="M357.111 305.749C358.506 305.749 359.638 304.618 359.638 303.223C359.638 301.827 358.506 300.696 357.111 300.696C355.716 300.696 354.585 301.827 354.585 303.223C354.585 304.618 355.716 305.749 357.111 305.749Z" fill="#222222"/>
<path d="M404 305.749C405.395 305.749 406.527 304.618 406.527 303.223C406.527 301.827 405.395 300.696 404 300.696C402.605 300.696 401.474 301.827 401.474 303.223C401.474 304.618 402.605 305.749 404 305.749Z" fill="#222222"/>
<path d="M450.889 305.749C452.284 305.749 453.415 304.618 453.415 303.223C453.415 301.827 452.284 300.696 450.889 300.696C449.494 300.696 448.363 301.827 448.363 303.223C448.363 304.618 449.494 305.749 450.889 305.749Z" fill="#222222"/>
<path d="M497.778 305.749C499.173 305.749 500.304 304.618 500.304 303.223C500.304 301.827 499.173 300.696 497.778 300.696C496.383 300.696 495.251 301.827 495.251 303.223C495.251 304.618 496.383 305.749 497.778 305.749Z" fill="#222222"/>
<path d="M544.667 305.749C546.062 305.749 547.193 304.618 547.193 303.223C547.193 301.827 546.062 300.696 544.667 300.696C543.271 300.696 542.14 301.827 542.14 303.223C542.14 304.618 543.271 305.749 544.667 305.749Z" fill="#222222"/>
<path d="M591.555 305.749C592.951 305.749 594.082 304.618 594.082 303.223C594.082 301.827 592.951 300.696 591.555 300.696C590.16 300.696 589.029 301.827 589.029 303.223C589.029 304.618 590.16 305.749 591.555 305.749Z" fill="#222222"/>
<path d="M638.444 305.749C639.84 305.749 640.971 304.618 640.971 303.223C640.971 301.827 639.84 300.696 638.444 300.696C637.049 300.696 635.918 301.827 635.918 303.223C635.918 304.618 637.049 305.749 638.444 305.749Z" fill="#222222"/>
<path d="M685.333 305.749C686.728 305.749 687.86 304.618 687.86 303.223C687.86 301.827 686.728 300.696 685.333 300.696C683.938 300.696 682.807 301.827 682.807 303.223C682.807 304.618 683.938 305.749 685.333 305.749Z" fill="#222222"/>
<path d="M732.222 305.749C733.617 305.749 734.748 304.618 734.748 303.223C734.748 301.827 733.617 300.696 732.222 300.696C730.827 300.696 729.696 301.827 729.696 303.223C729.696 304.618 730.827 305.749 732.222 305.749Z" fill="#222222"/>
<path d="M28.889 352.638C30.2843 352.638 31.4154 351.507 31.4154 350.111C31.4154 348.716 30.2843 347.585 28.889 347.585C27.4937 347.585 26.3625 348.716 26.3625 350.111C26.3625 351.507 27.4937 352.638 28.889 352.638Z" fill="#222222"/>
<path d="M75.7779 352.638C77.1732 352.638 78.3044 351.507 78.3044 350.111C78.3044 348.716 77.1732 347.585 75.7779 347.585C74.3826 347.585 73.2515 348.716 73.2515 350.111C73.2515 351.507 74.3826 352.638 75.7779 352.638Z" fill="#222222"/>
<path d="M122.667 352.638C124.062 352.638 125.193 351.507 125.193 350.111C125.193 348.716 124.062 347.585 122.667 347.585C121.271 347.585 120.14 348.716 120.14 350.111C120.14 351.507 121.271 352.638 122.667 352.638Z" fill="#222222"/>
<path d="M169.555 352.638C170.951 352.638 172.082 351.507 172.082 350.111C172.082 348.716 170.951 347.585 169.555 347.585C168.16 347.585 167.029 348.716 167.029 350.111C167.029 351.507 168.16 352.638 169.555 352.638Z" fill="#222222"/>
<path d="M216.444 352.638C217.84 352.638 218.971 351.507 218.971 350.111C218.971 348.716 217.84 347.585 216.444 347.585C215.049 347.585 213.918 348.716 213.918 350.111C213.918 351.507 215.049 352.638 216.444 352.638Z" fill="#222222"/>
<path d="M263.334 352.638C264.729 352.638 265.86 351.507 265.86 350.111C265.86 348.716 264.729 347.585 263.334 347.585C261.938 347.585 260.807 348.716 260.807 350.111C260.807 351.507 261.938 352.638 263.334 352.638Z" fill="#222222"/>
<path d="M310.222 352.638C311.618 352.638 312.749 351.507 312.749 350.111C312.749 348.716 311.618 347.585 310.222 347.585C308.827 347.585 307.696 348.716 307.696 350.111C307.696 351.507 308.827 352.638 310.222 352.638Z" fill="#222222"/>
<path d="M357.111 352.638C358.506 352.638 359.638 351.507 359.638 350.111C359.638 348.716 358.506 347.585 357.111 347.585C355.716 347.585 354.585 348.716 354.585 350.111C354.585 351.507 355.716 352.638 357.111 352.638Z" fill="#222222"/>
<path d="M404 352.638C405.395 352.638 406.527 351.507 406.527 350.111C406.527 348.716 405.395 347.585 404 347.585C402.605 347.585 401.474 348.716 401.474 350.111C401.474 351.507 402.605 352.638 404 352.638Z" fill="#222222"/>
<path d="M450.889 352.638C452.284 352.638 453.415 351.507 453.415 350.111C453.415 348.716 452.284 347.585 450.889 347.585C449.494 347.585 448.363 348.716 448.363 350.111C448.363 351.507 449.494 352.638 450.889 352.638Z" fill="#222222"/>
<path d="M497.778 352.638C499.173 352.638 500.304 351.507 500.304 350.111C500.304 348.716 499.173 347.585 497.778 347.585C496.383 347.585 495.251 348.716 495.251 350.111C495.251 351.507 496.383 352.638 497.778 352.638Z" fill="#222222"/>
<path d="M544.667 352.638C546.062 352.638 547.193 351.507 547.193 350.111C547.193 348.716 546.062 347.585 544.667 347.585C543.271 347.585 542.14 348.716 542.14 350.111C542.14 351.507 543.271 352.638 544.667 352.638Z" fill="#222222"/>
<path d="M591.555 352.638C592.951 352.638 594.082 351.507 594.082 350.111C594.082 348.716 592.951 347.585 591.555 347.585C590.16 347.585 589.029 348.716 589.029 350.111C589.029 351.507 590.16 352.638 591.555 352.638Z" fill="#222222"/>
<path d="M638.444 352.638C639.84 352.638 640.971 351.507 640.971 350.111C640.971 348.716 639.84 347.585 638.444 347.585C637.049 347.585 635.918 348.716 635.918 350.111C635.918 351.507 637.049 352.638 638.444 352.638Z" fill="#222222"/>
<path d="M685.333 352.638C686.728 352.638 687.86 351.507 687.86 350.111C687.86 348.716 686.728 347.585 685.333 347.585C683.938 347.585 682.807 348.716 682.807 350.111C682.807 351.507 683.938 352.638 685.333 352.638Z" fill="#222222"/>
<path d="M732.222 352.638C733.617 352.638 734.748 351.507 734.748 350.111C734.748 348.716 733.617 347.585 732.222 347.585C730.827 347.585 729.696 348.716 729.696 350.111C729.696 351.507 730.827 352.638 732.222 352.638Z" fill="#222222"/>
<path d="M28.889 399.527C30.2843 399.527 31.4154 398.396 31.4154 397C31.4154 395.605 30.2843 394.474 28.889 394.474C27.4937 394.474 26.3625 395.605 26.3625 397C26.3625 398.396 27.4937 399.527 28.889 399.527Z" fill="#222222"/>
<path d="M75.7779 399.527C77.1732 399.527 78.3044 398.396 78.3044 397C78.3044 395.605 77.1732 394.474 75.7779 394.474C74.3826 394.474 73.2515 395.605 73.2515 397C73.2515 398.396 74.3826 399.527 75.7779 399.527Z" fill="#222222"/>
<path d="M122.667 399.527C124.062 399.527 125.193 398.396 125.193 397C125.193 395.605 124.062 394.474 122.667 394.474C121.271 394.474 120.14 395.605 120.14 397C120.14 398.396 121.271 399.527 122.667 399.527Z" fill="#222222"/>
<path d="M169.555 399.527C170.951 399.527 172.082 398.396 172.082 397C172.082 395.605 170.951 394.474 169.555 394.474C168.16 394.474 167.029 395.605 167.029 397C167.029 398.396 168.16 399.527 169.555 399.527Z" fill="#222222"/>
<path d="M216.444 399.527C217.84 399.527 218.971 398.396 218.971 397C218.971 395.605 217.84 394.474 216.444 394.474C215.049 394.474 213.918 395.605 213.918 397C213.918 398.396 215.049 399.527 216.444 399.527Z" fill="#222222"/>
<path d="M263.334 399.527C264.729 399.527 265.86 398.396 265.86 397C265.86 395.605 264.729 394.474 263.334 394.474C261.938 394.474 260.807 395.605 260.807 397C260.807 398.396 261.938 399.527 263.334 399.527Z" fill="#222222"/>
<path d="M310.222 399.527C311.618 399.527 312.749 398.396 312.749 397C312.749 395.605 311.618 394.474 310.222 394.474C308.827 394.474 307.696 395.605 307.696 397C307.696 398.396 308.827 399.527 310.222 399.527Z" fill="#222222"/>
<path d="M357.111 399.527C358.506 399.527 359.638 398.396 359.638 397C359.638 395.605 358.506 394.474 357.111 394.474C355.716 394.474 354.585 395.605 354.585 397C354.585 398.396 355.716 399.527 357.111 399.527Z" fill="#222222"/>
<path d="M404 399.527C405.395 399.527 406.527 398.396 406.527 397C406.527 395.605 405.395 394.474 404 394.474C402.605 394.474 401.474 395.605 401.474 397C401.474 398.396 402.605 399.527 404 399.527Z" fill="#222222"/>
<path d="M450.889 399.527C452.284 399.527 453.415 398.396 453.415 397C453.415 395.605 452.284 394.474 450.889 394.474C449.494 394.474 448.363 395.605 448.363 397C448.363 398.396 449.494 399.527 450.889 399.527Z" fill="#222222"/>
<path d="M497.778 399.527C499.173 399.527 500.304 398.396 500.304 397C500.304 395.605 499.173 394.474 497.778 394.474C496.383 394.474 495.251 395.605 495.251 397C495.251 398.396 496.383 399.527 497.778 399.527Z" fill="#222222"/>
<path d="M544.667 399.527C546.062 399.527 547.193 398.396 547.193 397C547.193 395.605 546.062 394.474 544.667 394.474C543.271 394.474 542.14 395.605 542.14 397C542.14 398.396 543.271 399.527 544.667 399.527Z" fill="#222222"/>
<path d="M591.555 399.527C592.951 399.527 594.082 398.396 594.082 397C594.082 395.605 592.951 394.474 591.555 394.474C590.16 394.474 589.029 395.605 589.029 397C589.029 398.396 590.16 399.527 591.555 399.527Z" fill="#222222"/>
<path d="M638.444 399.527C639.84 399.527 640.971 398.396 640.971 397C640.971 395.605 639.84 394.474 638.444 394.474C637.049 394.474 635.918 395.605 635.918 397C635.918 398.396 637.049 399.527 638.444 399.527Z" fill="#222222"/>
<path d="M685.333 399.527C686.728 399.527 687.86 398.396 687.86 397C687.86 395.605 686.728 394.474 685.333 394.474C683.938 394.474 682.807 395.605 682.807 397C682.807 398.396 683.938 399.527 685.333 399.527Z" fill="#222222"/>
<path d="M732.222 399.527C733.617 399.527 734.748 398.396 734.748 397C734.748 395.605 733.617 394.474 732.222 394.474C730.827 394.474 729.696 395.605 729.696 397C729.696 398.396 730.827 399.527 732.222 399.527Z" fill="#222222"/>
</g>
</g>
<defs>
<clipPath id="clip0_13_11618">
<rect width="775" height="421" rx="20" fill="white"/>
</clipPath>
<clipPath id="clip1_13_11618">
<rect width="844" height="844" fill="white" transform="translate(-18 -25)"/>
</clipPath>
</defs>
</svg>
