<svg width="775" height="421" viewBox="0 0 775 421" fill="none" xmlns="http://www.w3.org/2000/svg">
<g clip-path="url(#clip0_16_10177)">
<path opacity="0.2" d="M-39.1721 -41.7343H-64.3955V-16.5108M-39.1721 -41.7343V-16.5108M-39.1721 -41.7343H-13.9487M-39.1721 -16.5108H-64.3955M-39.1721 -16.5108V8.71261M-39.1721 -16.5108H-13.9487M-64.3955 -16.5108V8.71261M-39.1721 8.71261H-64.3955M-39.1721 8.71261V33.936M-39.1721 8.71261H-13.9487M-64.3955 8.71261V33.936M-39.1721 33.936H-64.3955M-39.1721 33.936V59.1595M-39.1721 33.936H-13.9487M-64.3955 33.936V59.1595M-39.1721 59.1595H-64.3955M-39.1721 59.1595V84.3829M-39.1721 59.1595H-13.9487M-64.3955 59.1595V84.3829M-39.1721 84.3829H-64.3955M-39.1721 84.3829V109.606M-39.1721 84.3829H-13.9487M-64.3955 84.3829V109.606M-39.1721 109.606H-64.3955M-39.1721 109.606V134.83M-39.1721 109.606H-13.9487M-64.3955 109.606V134.83M-39.1721 134.83H-64.3955M-39.1721 134.83V160.053M-39.1721 134.83H-13.9487M-64.3955 134.83V160.053M-39.1721 160.053H-64.3955M-39.1721 160.053V185.277M-39.1721 160.053H-13.9487M-64.3955 160.053V185.277M-39.1721 185.277H-64.3955M-39.1721 185.277V210.5M-39.1721 185.277H-13.9487M-64.3955 185.277V210.5M-39.1721 210.5H-64.3955M-39.1721 210.5V235.723M-39.1721 210.5H-13.9487M-64.3955 210.5V235.723M-39.1721 235.723H-64.3955M-39.1721 235.723V260.947M-39.1721 235.723H-13.9487M-64.3955 235.723V260.947M-39.1721 260.947H-64.3955M-39.1721 260.947V286.17M-39.1721 260.947H-13.9487M-64.3955 260.947V286.17M-39.1721 286.17H-64.3955M-39.1721 286.17V311.394M-39.1721 286.17H-13.9487M-64.3955 286.17V311.394M-39.1721 311.394H-64.3955M-39.1721 311.394V336.617M-39.1721 311.394H-13.9487M-64.3955 311.394V336.617M-39.1721 336.617H-64.3955M-39.1721 336.617V361.841M-39.1721 336.617H-13.9487M-64.3955 336.617V361.841M-39.1721 361.841H-64.3955M-39.1721 361.841V387.064M-39.1721 361.841H-13.9487M-64.3955 361.841V387.064M-39.1721 387.064H-64.3955M-39.1721 387.064V412.287M-39.1721 387.064H-13.9487M-64.3955 387.064V412.287M-39.1721 412.287H-64.3955M-39.1721 412.287V437.511M-39.1721 412.287H-13.9487M-64.3955 412.287V437.511M-39.1721 437.511H-64.3955M-39.1721 437.511V462.734M-39.1721 437.511H-13.9487M-64.3955 437.511V462.734H-39.1721M-39.1721 462.734H-13.9487M-13.9487 -41.7343V-16.5108M-13.9487 -41.7343H11.2748M-13.9487 -16.5108V8.71261M-13.9487 -16.5108H11.2748M-13.9487 8.71261V33.936M-13.9487 8.71261H11.2748M-13.9487 33.936V59.1595M-13.9487 33.936H11.2748M-13.9487 59.1595V84.3829M-13.9487 59.1595H11.2748M-13.9487 84.3829V109.606M-13.9487 84.3829H11.2748M-13.9487 109.606V134.83M-13.9487 109.606H11.2748M-13.9487 134.83V160.053M-13.9487 134.83H11.2748M-13.9487 160.053V185.277M-13.9487 160.053H11.2748M-13.9487 185.277V210.5M-13.9487 185.277H11.2748M-13.9487 210.5V235.723M-13.9487 210.5H11.2748M-13.9487 235.723V260.947M-13.9487 235.723H11.2748M-13.9487 260.947V286.17M-13.9487 260.947H11.2748M-13.9487 286.17V311.394M-13.9487 286.17H11.2748M-13.9487 311.394V336.617M-13.9487 311.394H11.2748M-13.9487 336.617V361.841M-13.9487 336.617H11.2748M-13.9487 361.841V387.064M-13.9487 361.841H11.2748M-13.9487 387.064V412.287M-13.9487 387.064H11.2748M-13.9487 412.287V437.511M-13.9487 412.287H11.2748M-13.9487 437.511V462.734M-13.9487 437.511H11.2748M-13.9487 462.734H11.2748M11.2748 -41.7343V-16.5108M11.2748 -41.7343H36.4982M11.2748 -16.5108V8.71261M11.2748 -16.5108H36.4982M11.2748 8.71261V33.936M11.2748 8.71261H36.4982M11.2748 33.936V59.1595M11.2748 33.936H36.4982M11.2748 59.1595V84.3829M11.2748 59.1595H36.4982M11.2748 84.3829V109.606M11.2748 84.3829H36.4982M11.2748 109.606V134.83M11.2748 109.606H36.4982M11.2748 134.83V160.053M11.2748 134.83H36.4982M11.2748 160.053V185.277M11.2748 160.053H36.4982M11.2748 185.277V210.5M11.2748 185.277H36.4982M11.2748 210.5V235.723M11.2748 210.5H36.4982M11.2748 235.723V260.947M11.2748 235.723H36.4982M11.2748 260.947V286.17M11.2748 260.947H36.4982M11.2748 286.17V311.394M11.2748 286.17H36.4982M11.2748 311.394V336.617M11.2748 311.394H36.4982M11.2748 336.617V361.841M11.2748 336.617H36.4982M11.2748 361.841V387.064M11.2748 361.841H36.4982M11.2748 387.064V412.287M11.2748 387.064H36.4982M11.2748 412.287V437.511M11.2748 412.287H36.4982M11.2748 437.511V462.734M11.2748 437.511H36.4982M11.2748 462.734H36.4982M36.4982 -41.7343V-16.5108M36.4982 -41.7343H61.7216M36.4982 -16.5108V8.71261M36.4982 -16.5108H61.7216M36.4982 8.71261V33.936M36.4982 8.71261H61.7216M36.4982 33.936V59.1595M36.4982 33.936H61.7216M36.4982 59.1595V84.3829M36.4982 59.1595H61.7216M36.4982 84.3829V109.606M36.4982 84.3829H61.7216M36.4982 109.606V134.83M36.4982 109.606H61.7216M36.4982 134.83V160.053M36.4982 134.83H61.7216M36.4982 160.053V185.277M36.4982 160.053H61.7216M36.4982 185.277V210.5M36.4982 185.277H61.7216M36.4982 210.5V235.723M36.4982 210.5H61.7216M36.4982 235.723V260.947M36.4982 235.723H61.7216M36.4982 260.947V286.17M36.4982 260.947H61.7216M36.4982 286.17V311.394M36.4982 286.17H61.7216M36.4982 311.394V336.617M36.4982 311.394H61.7216M36.4982 336.617V361.841M36.4982 336.617H61.7216M36.4982 361.841V387.064M36.4982 361.841H61.7216M36.4982 387.064V412.287M36.4982 387.064H61.7216M36.4982 412.287V437.511M36.4982 412.287H61.7216M36.4982 437.511V462.734M36.4982 437.511H61.7216M36.4982 462.734H61.7216M61.7216 -41.7343V-16.5108M61.7216 -41.7343H86.9451M61.7216 -16.5108V8.71261M61.7216 -16.5108H86.9451M61.7216 8.71261V33.936M61.7216 8.71261H86.9451M61.7216 33.936V59.1595M61.7216 33.936H86.9451M61.7216 59.1595V84.3829M61.7216 59.1595H86.9451M61.7216 84.3829V109.606M61.7216 84.3829H86.9451M61.7216 109.606V134.83M61.7216 109.606H86.9451M61.7216 134.83V160.053M61.7216 134.83H86.9451M61.7216 160.053V185.277M61.7216 160.053H86.9451M61.7216 185.277V210.5M61.7216 185.277H86.9451M61.7216 210.5V235.723M61.7216 210.5H86.9451M61.7216 235.723V260.947M61.7216 235.723H86.9451M61.7216 260.947V286.17M61.7216 260.947H86.9451M61.7216 286.17V311.394M61.7216 286.17H86.9451M61.7216 311.394V336.617M61.7216 311.394H86.9451M61.7216 336.617V361.841M61.7216 336.617H86.9451M61.7216 361.841V387.064M61.7216 361.841H86.9451M61.7216 387.064V412.287M61.7216 387.064H86.9451M61.7216 412.287V437.511M61.7216 412.287H86.9451M61.7216 437.511V462.734M61.7216 437.511H86.9451M61.7216 462.734H86.9451M86.9451 -41.7343V-16.5108M86.9451 -41.7343H112.168M86.9451 -16.5108V8.71261M86.9451 -16.5108H112.168M86.9451 8.71261V33.936M86.9451 8.71261H112.168M86.9451 33.936V59.1595M86.9451 33.936H112.168M86.9451 59.1595V84.3829M86.9451 59.1595H112.168M86.9451 84.3829V109.606M86.9451 84.3829H112.168M86.9451 109.606V134.83M86.9451 109.606H112.168M86.9451 134.83V160.053M86.9451 134.83H112.168M86.9451 160.053V185.277M86.9451 160.053H112.168M86.9451 185.277V210.5M86.9451 185.277H112.168M86.9451 210.5V235.723M86.9451 210.5H112.168M86.9451 235.723V260.947M86.9451 235.723H112.168M86.9451 260.947V286.17M86.9451 260.947H112.168M86.9451 286.17V311.394M86.9451 286.17H112.168M86.9451 311.394V336.617M86.9451 311.394H112.168M86.9451 336.617V361.841M86.9451 336.617H112.168M86.9451 361.841V387.064M86.9451 361.841H112.168M86.9451 387.064V412.287M86.9451 387.064H112.168M86.9451 412.287V437.511M86.9451 412.287H112.168M86.9451 437.511V462.734M86.9451 437.511H112.168M86.9451 462.734H112.168M112.168 -41.7343V-16.5108M112.168 -41.7343H137.392M112.168 -16.5108V8.71261M112.168 -16.5108H137.392M112.168 8.71261V33.936M112.168 8.71261H137.392M112.168 33.936V59.1595M112.168 33.936H137.392M112.168 59.1595V84.3829M112.168 59.1595H137.392M112.168 84.3829V109.606M112.168 84.3829H137.392M112.168 109.606V134.83M112.168 109.606H137.392M112.168 134.83V160.053M112.168 134.83H137.392M112.168 160.053V185.277M112.168 160.053H137.392M112.168 185.277V210.5M112.168 185.277H137.392M112.168 210.5V235.723M112.168 210.5H137.392M112.168 235.723V260.947M112.168 235.723H137.392M112.168 260.947V286.17M112.168 260.947H137.392M112.168 286.17V311.394M112.168 286.17H137.392M112.168 311.394V336.617M112.168 311.394H137.392M112.168 336.617V361.841M112.168 336.617H137.392M112.168 361.841V387.064M112.168 361.841H137.392M112.168 387.064V412.287M112.168 387.064H137.392M112.168 412.287V437.511M112.168 412.287H137.392M112.168 437.511V462.734M112.168 437.511H137.392M112.168 462.734H137.392M137.392 -41.7343V-16.5108M137.392 -41.7343H162.615M137.392 -16.5108V8.71261M137.392 -16.5108H162.615M137.392 8.71261V33.936M137.392 8.71261H162.615M137.392 33.936V59.1595M137.392 33.936H162.615M137.392 59.1595V84.3829M137.392 59.1595H162.615M137.392 84.3829V109.606M137.392 84.3829H162.615M137.392 109.606V134.83M137.392 109.606H162.615M137.392 134.83V160.053M137.392 134.83H162.615M137.392 160.053V185.277M137.392 160.053H162.615M137.392 185.277V210.5M137.392 185.277H162.615M137.392 210.5V235.723M137.392 210.5H162.615M137.392 235.723V260.947M137.392 235.723H162.615M137.392 260.947V286.17M137.392 260.947H162.615M137.392 286.17V311.394M137.392 286.17H162.615M137.392 311.394V336.617M137.392 311.394H162.615M137.392 336.617V361.841M137.392 336.617H162.615M137.392 361.841V387.064M137.392 361.841H162.615M137.392 387.064V412.287M137.392 387.064H162.615M137.392 412.287V437.511M137.392 412.287H162.615M137.392 437.511V462.734M137.392 437.511H162.615M137.392 462.734H162.615M162.615 -41.7343V-16.5108M162.615 -41.7343H187.839M162.615 -16.5108V8.71261M162.615 -16.5108H187.839M162.615 8.71261V33.936M162.615 8.71261H187.839M162.615 33.936V59.1595M162.615 33.936H187.839M162.615 59.1595V84.3829M162.615 59.1595H187.839M162.615 84.3829V109.606M162.615 84.3829H187.839M162.615 109.606V134.83M162.615 109.606H187.839M162.615 134.83V160.053M162.615 134.83H187.839M162.615 160.053V185.277M162.615 160.053H187.839M162.615 185.277V210.5M162.615 185.277H187.839M162.615 210.5V235.723M162.615 210.5H187.839M162.615 235.723V260.947M162.615 235.723H187.839M162.615 260.947V286.17M162.615 260.947H187.839M162.615 286.17V311.394M162.615 286.17H187.839M162.615 311.394V336.617M162.615 311.394H187.839M162.615 336.617V361.841M162.615 336.617H187.839M162.615 361.841V387.064M162.615 361.841H187.839M162.615 387.064V412.287M162.615 387.064H187.839M162.615 412.287V437.511M162.615 412.287H187.839M162.615 437.511V462.734M162.615 437.511H187.839M162.615 462.734H187.839M187.839 -41.7343V-16.5108M187.839 -41.7343H213.062M187.839 -16.5108V8.71261M187.839 -16.5108H213.062M187.839 8.71261V33.936M187.839 8.71261H213.062M187.839 33.936V59.1595M187.839 33.936H213.062M187.839 59.1595V84.3829M187.839 59.1595H213.062M187.839 84.3829V109.606M187.839 84.3829H213.062M187.839 109.606V134.83M187.839 109.606H213.062M187.839 134.83V160.053M187.839 134.83H213.062M187.839 160.053V185.277M187.839 160.053H213.062M187.839 185.277V210.5M187.839 185.277H213.062M187.839 210.5V235.723M187.839 210.5H213.062M187.839 235.723V260.947M187.839 235.723H213.062M187.839 260.947V286.17M187.839 260.947H213.062M187.839 286.17V311.394M187.839 286.17H213.062M187.839 311.394V336.617M187.839 311.394H213.062M187.839 336.617V361.841M187.839 336.617H213.062M187.839 361.841V387.064M187.839 361.841H213.062M187.839 387.064V412.287M187.839 387.064H213.062M187.839 412.287V437.511M187.839 412.287H213.062M187.839 437.511V462.734M187.839 437.511H213.062M187.839 462.734H213.062M213.062 -41.7343V-16.5108M213.062 -41.7343H238.286M213.062 -16.5108V8.71261M213.062 -16.5108H238.286M213.062 8.71261V33.936M213.062 8.71261H238.286M213.062 33.936V59.1595M213.062 33.936H238.286M213.062 59.1595V84.3829M213.062 59.1595H238.286M213.062 84.3829V109.606M213.062 84.3829H238.286M213.062 109.606V134.83M213.062 109.606H238.286M213.062 134.83V160.053M213.062 134.83H238.286M213.062 160.053V185.277M213.062 160.053H238.286M213.062 185.277V210.5M213.062 185.277H238.286M213.062 210.5V235.723M213.062 210.5H238.286M213.062 235.723V260.947M213.062 235.723H238.286M213.062 260.947V286.17M213.062 260.947H238.286M213.062 286.17V311.394M213.062 286.17H238.286M213.062 311.394V336.617M213.062 311.394H238.286M213.062 336.617V361.841M213.062 336.617H238.286M213.062 361.841V387.064M213.062 361.841H238.286M213.062 387.064V412.287M213.062 387.064H238.286M213.062 412.287V437.511M213.062 412.287H238.286M213.062 437.511V462.734M213.062 437.511H238.286M213.062 462.734H238.286M238.286 -41.7343V-16.5108M238.286 -41.7343H263.509M238.286 -16.5108V8.71261M238.286 -16.5108H263.509M238.286 8.71261V33.936M238.286 8.71261H263.509M238.286 33.936V59.1595M238.286 33.936H263.509M238.286 59.1595V84.3829M238.286 59.1595H263.509M238.286 84.3829V109.606M238.286 84.3829H263.509M238.286 109.606V134.83M238.286 109.606H263.509M238.286 134.83V160.053M238.286 134.83H263.509M238.286 160.053V185.277M238.286 160.053H263.509M238.286 185.277V210.5M238.286 185.277H263.509M238.286 210.5V235.723M238.286 210.5H263.509M238.286 235.723V260.947M238.286 235.723H263.509M238.286 260.947V286.17M238.286 260.947H263.509M238.286 286.17V311.394M238.286 286.17H263.509M238.286 311.394V336.617M238.286 311.394H263.509M238.286 336.617V361.841M238.286 336.617H263.509M238.286 361.841V387.064M238.286 361.841H263.509M238.286 387.064V412.287M238.286 387.064H263.509M238.286 412.287V437.511M238.286 412.287H263.509M238.286 437.511V462.734M238.286 437.511H263.509M238.286 462.734H263.509M263.509 -41.7343V-16.5108M263.509 -41.7343H288.732M263.509 -16.5108V8.71261M263.509 -16.5108H288.732M263.509 8.71261V33.936M263.509 8.71261H288.732M263.509 33.936V59.1595M263.509 33.936H288.732M263.509 59.1595V84.3829M263.509 59.1595H288.732M263.509 84.3829V109.606M263.509 84.3829H288.732M263.509 109.606V134.83M263.509 109.606H288.732M263.509 134.83V160.053M263.509 134.83H288.732M263.509 160.053V185.277M263.509 160.053H288.732M263.509 185.277V210.5M263.509 185.277H288.732M263.509 210.5V235.723M263.509 210.5H288.732M263.509 235.723V260.947M263.509 235.723H288.732M263.509 260.947V286.17M263.509 260.947H288.732M263.509 286.17V311.394M263.509 286.17H288.732M263.509 311.394V336.617M263.509 311.394H288.732M263.509 336.617V361.841M263.509 336.617H288.732M263.509 361.841V387.064M263.509 361.841H288.732M263.509 387.064V412.287M263.509 387.064H288.732M263.509 412.287V437.511M263.509 412.287H288.732M263.509 437.511V462.734M263.509 437.511H288.732M263.509 462.734H288.732M288.732 -41.7343V-16.5108M288.732 -41.7343H313.956M288.732 -16.5108V8.71261M288.732 -16.5108H313.956M288.732 8.71261V33.936M288.732 8.71261H313.956M288.732 33.936V59.1595M288.732 33.936H313.956M288.732 59.1595V84.3829M288.732 59.1595H313.956M288.732 84.3829V109.606M288.732 84.3829H313.956M288.732 109.606V134.83M288.732 109.606H313.956M288.732 134.83V160.053M288.732 134.83H313.956M288.732 160.053V185.277M288.732 160.053H313.956M288.732 185.277V210.5M288.732 185.277H313.956M288.732 210.5V235.723M288.732 210.5H313.956M288.732 235.723V260.947M288.732 235.723H313.956M288.732 260.947V286.17M288.732 260.947H313.956M288.732 286.17V311.394M288.732 286.17H313.956M288.732 311.394V336.617M288.732 311.394H313.956M288.732 336.617V361.841M288.732 336.617H313.956M288.732 361.841V387.064M288.732 361.841H313.956M288.732 387.064V412.287M288.732 387.064H313.956M288.732 412.287V437.511M288.732 412.287H313.956M288.732 437.511V462.734M288.732 437.511H313.956M288.732 462.734H313.956M313.956 -41.7343V-16.5108M313.956 -41.7343H339.179M313.956 -16.5108V8.71261M313.956 -16.5108H339.179M313.956 8.71261V33.936M313.956 8.71261H339.179M313.956 33.936V59.1595M313.956 33.936H339.179M313.956 59.1595V84.3829M313.956 59.1595H339.179M313.956 84.3829V109.606M313.956 84.3829H339.179M313.956 109.606V134.83M313.956 109.606H339.179M313.956 134.83V160.053M313.956 134.83H339.179M313.956 160.053V185.277M313.956 160.053H339.179M313.956 185.277V210.5M313.956 185.277H339.179M313.956 210.5V235.723M313.956 210.5H339.179M313.956 235.723V260.947M313.956 235.723H339.179M313.956 260.947V286.17M313.956 260.947H339.179M313.956 286.17V311.394M313.956 286.17H339.179M313.956 311.394V336.617M313.956 311.394H339.179M313.956 336.617V361.841M313.956 336.617H339.179M313.956 361.841V387.064M313.956 361.841H339.179M313.956 387.064V412.287M313.956 387.064H339.179M313.956 412.287V437.511M313.956 412.287H339.179M313.956 437.511V462.734M313.956 437.511H339.179M313.956 462.734H339.179M339.179 -41.7343V-16.5108M339.179 -41.7343H364.403M339.179 -16.5108V8.71261M339.179 -16.5108H364.403M339.179 8.71261V33.936M339.179 8.71261H364.403M339.179 33.936V59.1595M339.179 33.936H364.403M339.179 59.1595V84.3829M339.179 59.1595H364.403M339.179 84.3829V109.606M339.179 84.3829H364.403M339.179 109.606V134.83M339.179 109.606H364.403M339.179 134.83V160.053M339.179 134.83H364.403M339.179 160.053V185.277M339.179 160.053H364.403M339.179 185.277V210.5M339.179 185.277H364.403M339.179 210.5V235.723M339.179 210.5H364.403M339.179 235.723V260.947M339.179 235.723H364.403M339.179 260.947V286.17M339.179 260.947H364.403M339.179 286.17V311.394M339.179 286.17H364.403M339.179 311.394V336.617M339.179 311.394H364.403M339.179 336.617V361.841M339.179 336.617H364.403M339.179 361.841V387.064M339.179 361.841H364.403M339.179 387.064V412.287M339.179 387.064H364.403M339.179 412.287V437.511M339.179 412.287H364.403M339.179 437.511V462.734M339.179 437.511H364.403M339.179 462.734H364.403M364.403 -41.7343V-16.5108M364.403 -41.7343H389.626M364.403 -16.5108V8.71261M364.403 -16.5108H389.626M364.403 8.71261V33.936M364.403 8.71261H389.626M364.403 33.936V59.1595M364.403 33.936H389.626M364.403 59.1595V84.3829M364.403 59.1595H389.626M364.403 84.3829V109.606M364.403 84.3829H389.626M364.403 109.606V134.83M364.403 109.606H389.626M364.403 134.83V160.053M364.403 134.83H389.626M364.403 160.053V185.277M364.403 160.053H389.626M364.403 185.277V210.5M364.403 185.277H389.626M364.403 210.5V235.723M364.403 210.5H389.626M364.403 235.723V260.947M364.403 235.723H389.626M364.403 260.947V286.17M364.403 260.947H389.626M364.403 286.17V311.394M364.403 286.17H389.626M364.403 311.394V336.617M364.403 311.394H389.626M364.403 336.617V361.841M364.403 336.617H389.626M364.403 361.841V387.064M364.403 361.841H389.626M364.403 387.064V412.287M364.403 387.064H389.626M364.403 412.287V437.511M364.403 412.287H389.626M364.403 437.511V462.734M364.403 437.511H389.626M364.403 462.734H389.626M389.626 -41.7343V-16.5108M389.626 -41.7343H414.85M389.626 -16.5108V8.71261M389.626 -16.5108H414.85M389.626 8.71261V33.936M389.626 8.71261H414.85M389.626 33.936V59.1595M389.626 33.936H414.85M389.626 59.1595V84.3829M389.626 59.1595H414.85M389.626 84.3829V109.606M389.626 84.3829H414.85M389.626 109.606V134.83M389.626 109.606H414.85M389.626 134.83V160.053M389.626 134.83H414.85M389.626 160.053V185.277M389.626 160.053H414.85M389.626 185.277V210.5M389.626 185.277H414.85M389.626 210.5V235.723M389.626 210.5H414.85M389.626 235.723V260.947M389.626 235.723H414.85M389.626 260.947V286.17M389.626 260.947H414.85M389.626 286.17V311.394M389.626 286.17H414.85M389.626 311.394V336.617M389.626 311.394H414.85M389.626 336.617V361.841M389.626 336.617H414.85M389.626 361.841V387.064M389.626 361.841H414.85M389.626 387.064V412.287M389.626 387.064H414.85M389.626 412.287V437.511M389.626 412.287H414.85M389.626 437.511V462.734M389.626 437.511H414.85M389.626 462.734H414.85M414.85 -41.7343V-16.5108M414.85 -41.7343H440.073M414.85 -16.5108V8.71261M414.85 -16.5108H440.073M414.85 8.71261V33.936M414.85 8.71261H440.073M414.85 33.936V59.1595M414.85 33.936H440.073M414.85 59.1595V84.3829M414.85 59.1595H440.073M414.85 84.3829V109.606M414.85 84.3829H440.073M414.85 109.606V134.83M414.85 109.606H440.073M414.85 134.83V160.053M414.85 134.83H440.073M414.85 160.053V185.277M414.85 160.053H440.073M414.85 185.277V210.5M414.85 185.277H440.073M414.85 210.5V235.723M414.85 210.5H440.073M414.85 235.723V260.947M414.85 235.723H440.073M414.85 260.947V286.17M414.85 260.947H440.073M414.85 286.17V311.394M414.85 286.17H440.073M414.85 311.394V336.617M414.85 311.394H440.073M414.85 336.617V361.841M414.85 336.617H440.073M414.85 361.841V387.064M414.85 361.841H440.073M414.85 387.064V412.287M414.85 387.064H440.073M414.85 412.287V437.511M414.85 412.287H440.073M414.85 437.511V462.734M414.85 437.511H440.073M414.85 462.734H440.073M440.073 -41.7343V-16.5108M440.073 -41.7343H465.296M440.073 -16.5108V8.71261M440.073 -16.5108H465.296M440.073 8.71261V33.936M440.073 8.71261H465.296M440.073 33.936V59.1595M440.073 33.936H465.296M440.073 59.1595V84.3829M440.073 59.1595H465.296M440.073 84.3829V109.606M440.073 84.3829H465.296M440.073 109.606V134.83M440.073 109.606H465.296M440.073 134.83V160.053M440.073 134.83H465.296M440.073 160.053V185.277M440.073 160.053H465.296M440.073 185.277V210.5M440.073 185.277H465.296M440.073 210.5V235.723M440.073 210.5H465.296M440.073 235.723V260.947M440.073 235.723H465.296M440.073 260.947V286.17M440.073 260.947H465.296M440.073 286.17V311.394M440.073 286.17H465.296M440.073 311.394V336.617M440.073 311.394H465.296M440.073 336.617V361.841M440.073 336.617H465.296M440.073 361.841V387.064M440.073 361.841H465.296M440.073 387.064V412.287M440.073 387.064H465.296M440.073 412.287V437.511M440.073 412.287H465.296M440.073 437.511V462.734M440.073 437.511H465.296M440.073 462.734H465.296M465.296 -41.7343V-16.5108M465.296 -41.7343H490.52M465.296 -16.5108V8.71261M465.296 -16.5108H490.52M465.296 8.71261V33.936M465.296 8.71261H490.52M465.296 33.936V59.1595M465.296 33.936H490.52M465.296 59.1595V84.3829M465.296 59.1595H490.52M465.296 84.3829V109.606M465.296 84.3829H490.52M465.296 109.606V134.83M465.296 109.606H490.52M465.296 134.83V160.053M465.296 134.83H490.52M465.296 160.053V185.277M465.296 160.053H490.52M465.296 185.277V210.5M465.296 185.277H490.52M465.296 210.5V235.723M465.296 210.5H490.52M465.296 235.723V260.947M465.296 235.723H490.52M465.296 260.947V286.17M465.296 260.947H490.52M465.296 286.17V311.394M465.296 286.17H490.52M465.296 311.394V336.617M465.296 311.394H490.52M465.296 336.617V361.841M465.296 336.617H490.52M465.296 361.841V387.064M465.296 361.841H490.52M465.296 387.064V412.287M465.296 387.064H490.52M465.296 412.287V437.511M465.296 412.287H490.52M465.296 437.511V462.734M465.296 437.511H490.52M465.296 462.734H490.52M490.52 -41.7343V-16.5108M490.52 -41.7343H515.743M490.52 -16.5108V8.71261M490.52 -16.5108H515.743M490.52 8.71261V33.936M490.52 8.71261H515.743M490.52 33.936V59.1595M490.52 33.936H515.743M490.52 59.1595V84.3829M490.52 59.1595H515.743M490.52 84.3829V109.606M490.52 84.3829H515.743M490.52 109.606V134.83M490.52 109.606H515.743M490.52 134.83V160.053M490.52 134.83H515.743M490.52 160.053V185.277M490.52 160.053H515.743M490.52 185.277V210.5M490.52 185.277H515.743M490.52 210.5V235.723M490.52 210.5H515.743M490.52 235.723V260.947M490.52 235.723H515.743M490.52 260.947V286.17M490.52 260.947H515.743M490.52 286.17V311.394M490.52 286.17H515.743M490.52 311.394V336.617M490.52 311.394H515.743M490.52 336.617V361.841M490.52 336.617H515.743M490.52 361.841V387.064M490.52 361.841H515.743M490.52 387.064V412.287M490.52 387.064H515.743M490.52 412.287V437.511M490.52 412.287H515.743M490.52 437.511V462.734M490.52 437.511H515.743M490.52 462.734H515.743M515.743 -41.7343V-16.5108M515.743 -41.7343H540.967M515.743 -16.5108V8.71261M515.743 -16.5108H540.967M515.743 8.71261V33.936M515.743 8.71261H540.967M515.743 33.936V59.1595M515.743 33.936H540.967M515.743 59.1595V84.3829M515.743 59.1595H540.967M515.743 84.3829V109.606M515.743 84.3829H540.967M515.743 109.606V134.83M515.743 109.606H540.967M515.743 134.83V160.053M515.743 134.83H540.967M515.743 160.053V185.277M515.743 160.053H540.967M515.743 185.277V210.5M515.743 185.277H540.967M515.743 210.5V235.723M515.743 210.5H540.967M515.743 235.723V260.947M515.743 235.723H540.967M515.743 260.947V286.17M515.743 260.947H540.967M515.743 286.17V311.394M515.743 286.17H540.967M515.743 311.394V336.617M515.743 311.394H540.967M515.743 336.617V361.841M515.743 336.617H540.967M515.743 361.841V387.064M515.743 361.841H540.967M515.743 387.064V412.287M515.743 387.064H540.967M515.743 412.287V437.511M515.743 412.287H540.967M515.743 437.511V462.734M515.743 437.511H540.967M515.743 462.734H540.967M540.967 -41.7343V-16.5108M540.967 -41.7343H566.19M540.967 -16.5108V8.71261M540.967 -16.5108H566.19M540.967 8.71261V33.936M540.967 8.71261H566.19M540.967 33.936V59.1595M540.967 33.936H566.19M540.967 59.1595V84.3829M540.967 59.1595H566.19M540.967 84.3829V109.606M540.967 84.3829H566.19M540.967 109.606V134.83M540.967 109.606H566.19M540.967 134.83V160.053M540.967 134.83H566.19M540.967 160.053V185.277M540.967 160.053H566.19M540.967 185.277V210.5M540.967 185.277H566.19M540.967 210.5V235.723M540.967 210.5H566.19M540.967 235.723V260.947M540.967 235.723H566.19M540.967 260.947V286.17M540.967 260.947H566.19M540.967 286.17V311.394M540.967 286.17H566.19M540.967 311.394V336.617M540.967 311.394H566.19M540.967 336.617V361.841M540.967 336.617H566.19M540.967 361.841V387.064M540.967 361.841H566.19M540.967 387.064V412.287M540.967 387.064H566.19M540.967 412.287V437.511M540.967 412.287H566.19M540.967 437.511V462.734M540.967 437.511H566.19M540.967 462.734H566.19M566.19 -41.7343V-16.5108M566.19 -41.7343H591.414M566.19 -16.5108V8.71261M566.19 -16.5108H591.414M566.19 8.71261V33.936M566.19 8.71261H591.414M566.19 33.936V59.1595M566.19 33.936H591.414M566.19 59.1595V84.3829M566.19 59.1595H591.414M566.19 84.3829V109.606M566.19 84.3829H591.414M566.19 109.606V134.83M566.19 109.606H591.414M566.19 134.83V160.053M566.19 134.83H591.414M566.19 160.053V185.277M566.19 160.053H591.414M566.19 185.277V210.5M566.19 185.277H591.414M566.19 210.5V235.723M566.19 210.5H591.414M566.19 235.723V260.947M566.19 235.723H591.414M566.19 260.947V286.17M566.19 260.947H591.414M566.19 286.17V311.394M566.19 286.17H591.414M566.19 311.394V336.617M566.19 311.394H591.414M566.19 336.617V361.841M566.19 336.617H591.414M566.19 361.841V387.064M566.19 361.841H591.414M566.19 387.064V412.287M566.19 387.064H591.414M566.19 412.287V437.511M566.19 412.287H591.414M566.19 437.511V462.734M566.19 437.511H591.414M566.19 462.734H591.414M591.414 -41.7343V-16.5108M591.414 -41.7343H616.637M591.414 -16.5108V8.71261M591.414 -16.5108H616.637M591.414 8.71261V33.936M591.414 8.71261H616.637M591.414 33.936V59.1595M591.414 33.936H616.637M591.414 59.1595V84.3829M591.414 59.1595H616.637M591.414 84.3829V109.606M591.414 84.3829H616.637M591.414 109.606V134.83M591.414 109.606H616.637M591.414 134.83V160.053M591.414 134.83H616.637M591.414 160.053V185.277M591.414 160.053H616.637M591.414 185.277V210.5M591.414 185.277H616.637M591.414 210.5V235.723M591.414 210.5H616.637M591.414 235.723V260.947M591.414 235.723H616.637M591.414 260.947V286.17M591.414 260.947H616.637M591.414 286.17V311.394M591.414 286.17H616.637M591.414 311.394V336.617M591.414 311.394H616.637M591.414 336.617V361.841M591.414 336.617H616.637M591.414 361.841V387.064M591.414 361.841H616.637M591.414 387.064V412.287M591.414 387.064H616.637M591.414 412.287V437.511M591.414 412.287H616.637M591.414 437.511V462.734M591.414 437.511H616.637M591.414 462.734H616.637M616.637 -41.7343V-16.5108M616.637 -41.7343H641.86M616.637 -16.5108V8.71261M616.637 -16.5108H641.86M616.637 8.71261V33.936M616.637 8.71261H641.86M616.637 33.936V59.1595M616.637 33.936H641.86M616.637 59.1595V84.3829M616.637 59.1595H641.86M616.637 84.3829V109.606M616.637 84.3829H641.86M616.637 109.606V134.83M616.637 109.606H641.86M616.637 134.83V160.053M616.637 134.83H641.86M616.637 160.053V185.277M616.637 160.053H641.86M616.637 185.277V210.5M616.637 185.277H641.86M616.637 210.5V235.723M616.637 210.5H641.86M616.637 235.723V260.947M616.637 235.723H641.86M616.637 260.947V286.17M616.637 260.947H641.86M616.637 286.17V311.394M616.637 286.17H641.86M616.637 311.394V336.617M616.637 311.394H641.86M616.637 336.617V361.841M616.637 336.617H641.86M616.637 361.841V387.064M616.637 361.841H641.86M616.637 387.064V412.287M616.637 387.064H641.86M616.637 412.287V437.511M616.637 412.287H641.86M616.637 437.511V462.734M616.637 437.511H641.86M616.637 462.734H641.86M641.86 -41.7343V-16.5108M641.86 -41.7343H667.084M641.86 -16.5108V8.71261M641.86 -16.5108H667.084M641.86 8.71261V33.936M641.86 8.71261H667.084M641.86 33.936V59.1595M641.86 33.936H667.084M641.86 59.1595V84.3829M641.86 59.1595H667.084M641.86 84.3829V109.606M641.86 84.3829H667.084M641.86 109.606V134.83M641.86 109.606H667.084M641.86 134.83V160.053M641.86 134.83H667.084M641.86 160.053V185.277M641.86 160.053H667.084M641.86 185.277V210.5M641.86 185.277H667.084M641.86 210.5V235.723M641.86 210.5H667.084M641.86 235.723V260.947M641.86 235.723H667.084M641.86 260.947V286.17M641.86 260.947H667.084M641.86 286.17V311.394M641.86 286.17H667.084M641.86 311.394V336.617M641.86 311.394H667.084M641.86 336.617V361.841M641.86 336.617H667.084M641.86 361.841V387.064M641.86 361.841H667.084M641.86 387.064V412.287M641.86 387.064H667.084M641.86 412.287V437.511M641.86 412.287H667.084M641.86 437.511V462.734M641.86 437.511H667.084M641.86 462.734H667.084M667.084 -41.7343V-16.5108M667.084 -41.7343H692.307M667.084 -16.5108V8.71261M667.084 -16.5108H692.307M667.084 8.71261V33.936M667.084 8.71261H692.307M667.084 33.936V59.1595M667.084 33.936H692.307M667.084 59.1595V84.3829M667.084 59.1595H692.307M667.084 84.3829V109.606M667.084 84.3829H692.307M667.084 109.606V134.83M667.084 109.606H692.307M667.084 134.83V160.053M667.084 134.83H692.307M667.084 160.053V185.277M667.084 160.053H692.307M667.084 185.277V210.5M667.084 185.277H692.307M667.084 210.5V235.723M667.084 210.5H692.307M667.084 235.723V260.947M667.084 235.723H692.307M667.084 260.947V286.17M667.084 260.947H692.307M667.084 286.17V311.394M667.084 286.17H692.307M667.084 311.394V336.617M667.084 311.394H692.307M667.084 336.617V361.841M667.084 336.617H692.307M667.084 361.841V387.064M667.084 361.841H692.307M667.084 387.064V412.287M667.084 387.064H692.307M667.084 412.287V437.511M667.084 412.287H692.307M667.084 437.511V462.734M667.084 437.511H692.307M667.084 462.734H692.307M692.307 -41.7343V-16.5108M692.307 -41.7343H717.531M692.307 -16.5108V8.71261M692.307 -16.5108H717.531M692.307 8.71261V33.936M692.307 8.71261H717.531M692.307 33.936V59.1595M692.307 33.936H717.531M692.307 59.1595V84.3829M692.307 59.1595H717.531M692.307 84.3829V109.606M692.307 84.3829H717.531M692.307 109.606V134.83M692.307 109.606H717.531M692.307 134.83V160.053M692.307 134.83H717.531M692.307 160.053V185.277M692.307 160.053H717.531M692.307 185.277V210.5M692.307 185.277H717.531M692.307 210.5V235.723M692.307 210.5H717.531M692.307 235.723V260.947M692.307 235.723H717.531M692.307 260.947V286.17M692.307 260.947H717.531M692.307 286.17V311.394M692.307 286.17H717.531M692.307 311.394V336.617M692.307 311.394H717.531M692.307 336.617V361.841M692.307 336.617H717.531M692.307 361.841V387.064M692.307 361.841H717.531M692.307 387.064V412.287M692.307 387.064H717.531M692.307 412.287V437.511M692.307 412.287H717.531M692.307 437.511V462.734M692.307 437.511H717.531M692.307 462.734H717.531M717.531 -41.7343V-16.5108M717.531 -41.7343H742.754M717.531 -16.5108V8.71261M717.531 -16.5108H742.754M717.531 8.71261V33.936M717.531 8.71261H742.754M717.531 33.936V59.1595M717.531 33.936H742.754M717.531 59.1595V84.3829M717.531 59.1595H742.754M717.531 84.3829V109.606M717.531 84.3829H742.754M717.531 109.606V134.83M717.531 109.606H742.754M717.531 134.83V160.053M717.531 134.83H742.754M717.531 160.053V185.277M717.531 160.053H742.754M717.531 185.277V210.5M717.531 185.277H742.754M717.531 210.5V235.723M717.531 210.5H742.754M717.531 235.723V260.947M717.531 235.723H742.754M717.531 260.947V286.17M717.531 260.947H742.754M717.531 286.17V311.394M717.531 286.17H742.754M717.531 311.394V336.617M717.531 311.394H742.754M717.531 336.617V361.841M717.531 336.617H742.754M717.531 361.841V387.064M717.531 361.841H742.754M717.531 387.064V412.287M717.531 387.064H742.754M717.531 412.287V437.511M717.531 412.287H742.754M717.531 437.511V462.734M717.531 437.511H742.754M717.531 462.734H742.754M742.754 -41.7343V-16.5108M742.754 -41.7343H767.978M742.754 -16.5108V8.71261M742.754 -16.5108H767.978M742.754 8.71261V33.936M742.754 8.71261H767.978M742.754 33.936V59.1595M742.754 33.936H767.978M742.754 59.1595V84.3829M742.754 59.1595H767.978M742.754 84.3829V109.606M742.754 84.3829H767.978M742.754 109.606V134.83M742.754 109.606H767.978M742.754 134.83V160.053M742.754 134.83H767.978M742.754 160.053V185.277M742.754 160.053H767.978M742.754 185.277V210.5M742.754 185.277H767.978M742.754 210.5V235.723M742.754 210.5H767.978M742.754 235.723V260.947M742.754 235.723H767.978M742.754 260.947V286.17M742.754 260.947H767.978M742.754 286.17V311.394M742.754 286.17H767.978M742.754 311.394V336.617M742.754 311.394H767.978M742.754 336.617V361.841M742.754 336.617H767.978M742.754 361.841V387.064M742.754 361.841H767.978M742.754 387.064V412.287M742.754 387.064H767.978M742.754 412.287V437.511M742.754 412.287H767.978M742.754 437.511V462.734M742.754 437.511H767.978M742.754 462.734H767.978M767.978 -41.7343V-16.5108M767.978 -41.7343H793.201M767.978 -16.5108V8.71261M767.978 -16.5108H793.201M767.978 8.71261V33.936M767.978 8.71261H793.201M767.978 33.936V59.1595M767.978 33.936H793.201M767.978 59.1595V84.3829M767.978 59.1595H793.201M767.978 84.3829V109.606M767.978 84.3829H793.201M767.978 109.606V134.83M767.978 109.606H793.201M767.978 134.83V160.053M767.978 134.83H793.201M767.978 160.053V185.277M767.978 160.053H793.201M767.978 185.277V210.5M767.978 185.277H793.201M767.978 210.5V235.723M767.978 210.5H793.201M767.978 235.723V260.947M767.978 235.723H793.201M767.978 260.947V286.17M767.978 260.947H793.201M767.978 286.17V311.394M767.978 286.17H793.201M767.978 311.394V336.617M767.978 311.394H793.201M767.978 336.617V361.841M767.978 336.617H793.201M767.978 361.841V387.064M767.978 361.841H793.201M767.978 387.064V412.287M767.978 387.064H793.201M767.978 412.287V437.511M767.978 412.287H793.201M767.978 437.511V462.734M767.978 437.511H793.201M767.978 462.734H793.201M793.201 -41.7343V-16.5108M793.201 -41.7343H818.424M793.201 -16.5108V8.71261M793.201 -16.5108H818.424M793.201 8.71261V33.936M793.201 8.71261H818.424M793.201 33.936V59.1595M793.201 33.936H818.424M793.201 59.1595V84.3829M793.201 59.1595H818.424M793.201 84.3829V109.606M793.201 84.3829H818.424M793.201 109.606V134.83M793.201 109.606H818.424M793.201 134.83V160.053M793.201 134.83H818.424M793.201 160.053V185.277M793.201 160.053H818.424M793.201 185.277V210.5M793.201 185.277H818.424M793.201 210.5V235.723M793.201 210.5H818.424M793.201 235.723V260.947M793.201 235.723H818.424M793.201 260.947V286.17M793.201 260.947H818.424M793.201 286.17V311.394M793.201 286.17H818.424M793.201 311.394V336.617M793.201 311.394H818.424M793.201 336.617V361.841M793.201 336.617H818.424M793.201 361.841V387.064M793.201 361.841H818.424M793.201 387.064V412.287M793.201 387.064H818.424M793.201 412.287V437.511M793.201 412.287H818.424M793.201 437.511V462.734M793.201 437.511H818.424M793.201 462.734H818.424M818.424 -41.7343V-16.5108M818.424 -41.7343H843.648M818.424 -16.5108V8.71261M818.424 -16.5108H843.648M818.424 8.71261V33.936M818.424 8.71261H843.648M818.424 33.936V59.1595M818.424 33.936H843.648M818.424 59.1595V84.3829M818.424 59.1595H843.648M818.424 84.3829V109.606M818.424 84.3829H843.648M818.424 109.606V134.83M818.424 109.606H843.648M818.424 134.83V160.053M818.424 134.83H843.648M818.424 160.053V185.277M818.424 160.053H843.648M818.424 185.277V210.5M818.424 185.277H843.648M818.424 210.5V235.723M818.424 210.5H843.648M818.424 235.723V260.947M818.424 235.723H843.648M818.424 260.947V286.17M818.424 260.947H843.648M818.424 286.17V311.394M818.424 286.17H843.648M818.424 311.394V336.617M818.424 311.394H843.648M818.424 336.617V361.841M818.424 336.617H843.648M818.424 361.841V387.064M818.424 361.841H843.648M818.424 387.064V412.287M818.424 387.064H843.648M818.424 412.287V437.511M818.424 412.287H843.648M818.424 437.511V462.734M818.424 437.511H843.648M818.424 462.734H843.648M843.648 -41.7343V-16.5108M843.648 -41.7343H868.871M843.648 -16.5108V8.71261M843.648 -16.5108H868.871M843.648 8.71261V33.936M843.648 8.71261H868.871M843.648 33.936V59.1595M843.648 33.936H868.871M843.648 59.1595V84.3829M843.648 59.1595H868.871M843.648 84.3829V109.606M843.648 84.3829H868.871M843.648 109.606V134.83M843.648 109.606H868.871M843.648 134.83V160.053M843.648 134.83H868.871M843.648 160.053V185.277M843.648 160.053H868.871M843.648 185.277V210.5M843.648 185.277H868.871M843.648 210.5V235.723M843.648 210.5H868.871M843.648 235.723V260.947M843.648 235.723H868.871M843.648 260.947V286.17M843.648 260.947H868.871M843.648 286.17V311.394M843.648 286.17H868.871M843.648 311.394V336.617M843.648 311.394H868.871M843.648 336.617V361.841M843.648 336.617H868.871M843.648 361.841V387.064M843.648 361.841H868.871M843.648 387.064V412.287M843.648 387.064H868.871M843.648 412.287V437.511M843.648 412.287H868.871M843.648 437.511V462.734M843.648 437.511H868.871M843.648 462.734H868.871M868.871 -41.7343V-16.5108M868.871 -41.7343H894.095M868.871 -16.5108V8.71261M868.871 -16.5108H894.095M868.871 8.71261V33.936M868.871 8.71261H894.095M868.871 33.936V59.1595M868.871 33.936H894.095M868.871 59.1595V84.3829M868.871 59.1595H894.095M868.871 84.3829V109.606M868.871 84.3829H894.095M868.871 109.606V134.83M868.871 109.606H894.095M868.871 134.83V160.053M868.871 134.83H894.095M868.871 160.053V185.277M868.871 160.053H894.095M868.871 185.277V210.5M868.871 185.277H894.095M868.871 210.5V235.723M868.871 210.5H894.095M868.871 235.723V260.947M868.871 235.723H894.095M868.871 260.947V286.17M868.871 260.947H894.095M868.871 286.17V311.394M868.871 286.17H894.095M868.871 311.394V336.617M868.871 311.394H894.095M868.871 336.617V361.841M868.871 336.617H894.095M868.871 361.841V387.064M868.871 361.841H894.095M868.871 387.064V412.287M868.871 387.064H894.095M868.871 412.287V437.511M868.871 412.287H894.095M868.871 437.511V462.734M868.871 437.511H894.095M868.871 462.734H894.095M894.095 -41.7343V-16.5108M894.095 -41.7343H919.318M894.095 -16.5108V8.71261M894.095 -16.5108H919.318M894.095 8.71261V33.936M894.095 8.71261H919.318M894.095 33.936V59.1595M894.095 33.936H919.318M894.095 59.1595V84.3829M894.095 59.1595H919.318M894.095 84.3829V109.606M894.095 84.3829H919.318M894.095 109.606V134.83M894.095 109.606H919.318M894.095 134.83V160.053M894.095 134.83H919.318M894.095 160.053V185.277M894.095 160.053H919.318M894.095 185.277V210.5M894.095 185.277H919.318M894.095 210.5V235.723M894.095 210.5H919.318M894.095 235.723V260.947M894.095 235.723H919.318M894.095 260.947V286.17M894.095 260.947H919.318M894.095 286.17V311.394M894.095 286.17H919.318M894.095 311.394V336.617M894.095 311.394H919.318M894.095 336.617V361.841M894.095 336.617H919.318M894.095 361.841V387.064M894.095 361.841H919.318M894.095 387.064V412.287M894.095 387.064H919.318M894.095 412.287V437.511M894.095 412.287H919.318M894.095 437.511V462.734M894.095 437.511H919.318M894.095 462.734H919.318M919.318 -41.7343V-16.5108M919.318 -41.7343H944.542M919.318 -16.5108V8.71261M919.318 -16.5108H944.542M919.318 8.71261V33.936M919.318 8.71261H944.542M919.318 33.936V59.1595M919.318 33.936H944.542M919.318 59.1595V84.3829M919.318 59.1595H944.542M919.318 84.3829V109.606M919.318 84.3829H944.542M919.318 109.606V134.83M919.318 109.606H944.542M919.318 134.83V160.053M919.318 134.83H944.542M919.318 160.053V185.277M919.318 160.053H944.542M919.318 185.277V210.5M919.318 185.277H944.542M919.318 210.5V235.723M919.318 210.5H944.542M919.318 235.723V260.947M919.318 235.723H944.542M919.318 260.947V286.17M919.318 260.947H944.542M919.318 286.17V311.394M919.318 286.17H944.542M919.318 311.394V336.617M919.318 311.394H944.542M919.318 336.617V361.841M919.318 336.617H944.542M919.318 361.841V387.064M919.318 361.841H944.542M919.318 387.064V412.287M919.318 387.064H944.542M919.318 412.287V437.511M919.318 412.287H944.542M919.318 437.511V462.734M919.318 437.511H944.542M919.318 462.734H944.542M944.542 -41.7343V-16.5108M944.542 -41.7343H969.765M944.542 -16.5108V8.71261M944.542 -16.5108H969.765M944.542 8.71261V33.936M944.542 8.71261H969.765M944.542 33.936V59.1595M944.542 33.936H969.765M944.542 59.1595V84.3829M944.542 59.1595H969.765M944.542 84.3829V109.606M944.542 84.3829H969.765M944.542 109.606V134.83M944.542 109.606H969.765M944.542 134.83V160.053M944.542 134.83H969.765M944.542 160.053V185.277M944.542 160.053H969.765M944.542 185.277V210.5M944.542 185.277H969.765M944.542 210.5V235.723M944.542 210.5H969.765M944.542 235.723V260.947M944.542 235.723H969.765M944.542 260.947V286.17M944.542 260.947H969.765M944.542 286.17V311.394M944.542 286.17H969.765M944.542 311.394V336.617M944.542 311.394H969.765M944.542 336.617V361.841M944.542 336.617H969.765M944.542 361.841V387.064M944.542 361.841H969.765M944.542 387.064V412.287M944.542 387.064H969.765M944.542 412.287V437.511M944.542 412.287H969.765M944.542 437.511V462.734M944.542 437.511H969.765M944.542 462.734H969.765M969.765 -41.7343V-16.5108M969.765 -41.7343H994.988M969.765 -16.5108V8.71261M969.765 -16.5108H994.988M969.765 8.71261V33.936M969.765 8.71261H994.988M969.765 33.936V59.1595M969.765 33.936H994.988M969.765 59.1595V84.3829M969.765 59.1595H994.988M969.765 84.3829V109.606M969.765 84.3829H994.988M969.765 109.606V134.83M969.765 109.606H994.988M969.765 134.83V160.053M969.765 134.83H994.988M969.765 160.053V185.277M969.765 160.053H994.988M969.765 185.277V210.5M969.765 185.277H994.988M969.765 210.5V235.723M969.765 210.5H994.988M969.765 235.723V260.947M969.765 235.723H994.988M969.765 260.947V286.17M969.765 260.947H994.988M969.765 286.17V311.394M969.765 286.17H994.988M969.765 311.394V336.617M969.765 311.394H994.988M969.765 336.617V361.841M969.765 336.617H994.988M969.765 361.841V387.064M969.765 361.841H994.988M969.765 387.064V412.287M969.765 387.064H994.988M969.765 412.287V437.511M969.765 412.287H994.988M969.765 437.511V462.734M969.765 437.511H994.988M969.765 462.734H994.988M994.988 -41.7343V-16.5108M994.988 -41.7343H1020.21M994.988 -16.5108V8.71261M994.988 -16.5108H1020.21M994.988 8.71261V33.936M994.988 8.71261H1020.21M994.988 33.936V59.1595M994.988 33.936H1020.21M994.988 59.1595V84.3829M994.988 59.1595H1020.21M994.988 84.3829V109.606M994.988 84.3829H1020.21M994.988 109.606V134.83M994.988 109.606H1020.21M994.988 134.83V160.053M994.988 134.83H1020.21M994.988 160.053V185.277M994.988 160.053H1020.21M994.988 185.277V210.5M994.988 185.277H1020.21M994.988 210.5V235.723M994.988 210.5H1020.21M994.988 235.723V260.947M994.988 235.723H1020.21M994.988 260.947V286.17M994.988 260.947H1020.21M994.988 286.17V311.394M994.988 286.17H1020.21M994.988 311.394V336.617M994.988 311.394H1020.21M994.988 336.617V361.841M994.988 336.617H1020.21M994.988 361.841V387.064M994.988 361.841H1020.21M994.988 387.064V412.287M994.988 387.064H1020.21M994.988 412.287V437.511M994.988 412.287H1020.21M994.988 437.511V462.734M994.988 437.511H1020.21M994.988 462.734H1020.21M1020.21 -41.7343V-16.5108M1020.21 -41.7343H1045.44V-16.5108M1020.21 -16.5108V8.71261M1020.21 -16.5108H1045.44M1020.21 8.71261V33.936M1020.21 8.71261H1045.44M1020.21 33.936V59.1595M1020.21 33.936H1045.44M1020.21 59.1595V84.3829M1020.21 59.1595H1045.44M1020.21 84.3829V109.606M1020.21 84.3829H1045.44M1020.21 109.606V134.83M1020.21 109.606H1045.44M1020.21 134.83V160.053M1020.21 134.83H1045.44M1020.21 160.053V185.277M1020.21 160.053H1045.44M1020.21 185.277V210.5M1020.21 185.277H1045.44M1020.21 210.5V235.723M1020.21 210.5H1045.44M1020.21 235.723V260.947M1020.21 235.723H1045.44M1020.21 260.947V286.17M1020.21 260.947H1045.44M1020.21 286.17V311.394M1020.21 286.17H1045.44M1020.21 311.394V336.617M1020.21 311.394H1045.44M1020.21 336.617V361.841M1020.21 336.617H1045.44M1020.21 361.841V387.064M1020.21 361.841H1045.44M1020.21 387.064V412.287M1020.21 387.064H1045.44M1020.21 412.287V437.511M1020.21 412.287H1045.44M1020.21 437.511V462.734M1020.21 437.511H1045.44M1020.21 462.734H1045.44V437.511M1045.44 -16.5108V8.71261M1045.44 8.71261V33.936M1045.44 33.936V59.1595M1045.44 59.1595V84.3829M1045.44 84.3829V109.606M1045.44 109.606V134.83M1045.44 134.83V160.053M1045.44 160.053V185.277M1045.44 185.277V210.5M1045.44 210.5V235.723M1045.44 235.723V260.947M1045.44 260.947V286.17M1045.44 286.17V311.394M1045.44 311.394V336.617M1045.44 336.617V361.841M1045.44 361.841V387.064M1045.44 387.064V412.287M1045.44 412.287V437.511" stroke="black" stroke-width="0.804612"/>
<path d="M36.4987 51.5925V66.7266M28.9316 59.1596H44.0657" stroke="#C0343B" stroke-width="1.60922"/>
<path d="M36.4987 253.38V268.514M28.9316 260.947H44.0657" stroke="#C0343B" stroke-width="1.60922"/>
<path d="M238.286 51.5925V66.7266M230.719 59.1596H245.853" stroke="#C0343B" stroke-width="1.60922"/>
<path d="M238.286 253.38V268.514M230.719 260.947H245.853" stroke="#C0343B" stroke-width="1.60922"/>
<path d="M440.071 51.5925V66.7266M432.504 59.1596H447.638" stroke="#C0343B" stroke-width="1.60922"/>
<path d="M440.071 253.38V268.514M432.504 260.947H447.638" stroke="#C0343B" stroke-width="1.60922"/>
<path d="M641.858 51.5925V66.7266M634.291 59.1596H649.425" stroke="#C0343B" stroke-width="1.60922"/>
<path d="M641.858 253.38V268.514M634.291 260.947H649.425" stroke="#C0343B" stroke-width="1.60922"/>
<path d="M36.4987 152.486V167.62M28.9316 160.053H44.0657" stroke="#C0343B" stroke-width="1.60922"/>
<path d="M36.4987 354.274V369.408M28.9316 361.841H44.0657" stroke="#C0343B" stroke-width="1.60922"/>
<path d="M238.286 152.486V167.62M230.719 160.053H245.853" stroke="#C0343B" stroke-width="1.60922"/>
<path d="M238.286 354.274V369.408M230.719 361.841H245.853" stroke="#C0343B" stroke-width="1.60922"/>
<path d="M440.071 152.486V167.62M432.504 160.053H447.638" stroke="#C0343B" stroke-width="1.60922"/>
<path d="M440.071 354.273V369.407M432.504 361.84H447.638" stroke="#C0343B" stroke-width="1.60922"/>
<path d="M641.858 152.486V167.62M634.291 160.053H649.425" stroke="#C0343B" stroke-width="1.60922"/>
<path d="M641.858 354.273V369.407M634.291 361.84H649.425" stroke="#C0343B" stroke-width="1.60922"/>
<path d="M137.391 51.5925V66.7266M129.824 59.1596H144.958" stroke="#C0343B" stroke-width="1.60922"/>
<path d="M137.391 253.38V268.514M129.824 260.947H144.958" stroke="#C0343B" stroke-width="1.60922"/>
<path d="M339.178 51.5925V66.7266M331.611 59.1596H346.745" stroke="#C0343B" stroke-width="1.60922"/>
<path d="M339.178 253.38V268.514M331.611 260.947H346.745" stroke="#C0343B" stroke-width="1.60922"/>
<path d="M540.964 51.5925V66.7266M533.397 59.1596H548.532" stroke="#C0343B" stroke-width="1.60922"/>
<path d="M540.964 253.38V268.514M533.397 260.947H548.532" stroke="#C0343B" stroke-width="1.60922"/>
<path d="M742.753 51.5925V66.7266M735.186 59.1596H750.32" stroke="#C0343B" stroke-width="1.60922"/>
<path d="M742.753 253.38V268.514M735.186 260.947H750.32" stroke="#C0343B" stroke-width="1.60922"/>
<path d="M137.391 152.486V167.62M129.824 160.053H144.958" stroke="#C0343B" stroke-width="1.60922"/>
<path d="M137.391 354.274V369.408M129.824 361.841H144.958" stroke="#C0343B" stroke-width="1.60922"/>
<path d="M339.178 152.486V167.62M331.611 160.053H346.745" stroke="#C0343B" stroke-width="1.60922"/>
<path d="M339.178 354.274V369.408M331.611 361.841H346.745" stroke="#C0343B" stroke-width="1.60922"/>
<path d="M540.964 152.486V167.62M533.397 160.053H548.532" stroke="#C0343B" stroke-width="1.60922"/>
<path d="M540.964 354.273V369.407M533.397 361.84H548.532" stroke="#C0343B" stroke-width="1.60922"/>
<path d="M742.753 152.486V167.62M735.186 160.053H750.32" stroke="#C0343B" stroke-width="1.60922"/>
<path d="M742.753 354.273V369.407M735.186 361.84H750.32" stroke="#C0343B" stroke-width="1.60922"/>
</g>
<defs>
<clipPath id="clip0_16_10177">
<rect width="775" height="421" rx="20" fill="white"/>
</clipPath>
</defs>
</svg>
