<svg width="775" height="421" viewBox="0 0 775 421" fill="none" xmlns="http://www.w3.org/2000/svg">
<g clip-path="url(#clip0_28_15269)">
<path d="M357.383 992.267C418.413 930.43 453.883 965.436 514.913 903.599C575.943 841.762 540.473 806.755 601.485 744.935C662.498 683.116 697.985 718.105 759.015 656.267C820.045 594.43 784.575 559.423 845.605 497.585C906.635 435.748 942.105 470.755 1003.15 408.9C1064.2 347.044 1028.71 312.055 1089.74 250.218" stroke="black" stroke-miterlimit="10"/>
<path d="M-336.411 296.115C-275.381 234.278 -239.911 269.285 -178.881 207.447C-117.851 145.61 -153.321 110.603 -92.3086 48.7835C-31.2961 -13.0361 4.19138 21.9529 65.2214 -39.8845C126.251 -101.722 90.7814 -136.729 151.811 -198.566C212.841 -260.404 248.311 -225.397 309.359 -287.252C370.407 -349.107 334.919 -384.096 395.949 -445.934" stroke="black" stroke-miterlimit="10"/>
<path d="M106.896 732.251C167.927 670.414 203.396 705.42 264.426 643.583C325.457 581.746 289.987 546.739 350.999 484.919C412.011 423.1 447.499 458.089 508.529 396.251C569.559 334.414 534.089 299.407 595.119 237.569C656.149 175.732 691.619 210.739 752.667 148.884C813.714 87.0284 778.227 52.0394 839.257 -9.79808" stroke="#FF4B33" stroke-miterlimit="10"/>
<path d="M-118.093 510.493C-57.0632 448.655 -21.5933 483.662 39.4367 421.825C100.467 359.987 64.9968 324.98 126.009 263.161C187.022 201.341 222.509 236.33 283.539 174.493C344.569 112.655 309.099 77.6483 370.129 15.8109C431.159 -46.0265 466.629 -11.0197 527.677 -72.8749C588.724 -134.73 553.237 -169.719 614.267 -231.557" stroke="black" stroke-miterlimit="10"/>
<path d="M324.333 953.17C385.363 891.333 420.832 926.339 481.863 864.502C542.893 802.665 507.423 767.658 568.435 705.838C629.448 644.018 664.935 679.007 725.965 617.17C786.995 555.333 751.525 520.326 812.555 458.488C873.585 396.651 909.055 431.658 970.103 369.803C1031.15 307.947 995.663 272.958 1056.69 211.121" stroke="black" stroke-miterlimit="10"/>
<path d="M-229.128 410.279C-168.098 348.441 -132.628 383.448 -71.5984 321.611C-10.5684 259.773 -46.0383 224.766 14.9741 162.947C75.9866 101.127 111.474 136.116 172.504 74.2787C233.534 12.4413 198.064 -22.5655 259.094 -84.403C320.124 -146.24 355.594 -111.234 416.642 -173.089C477.689 -234.944 442.202 -269.933 503.232 -331.77" stroke="#FF4B33" stroke-miterlimit="10"/>
<path d="M213.297 845.679C274.327 783.842 309.797 818.849 370.827 757.011C431.857 695.174 396.387 660.167 457.4 598.347C518.412 536.528 553.9 571.517 614.93 509.679C675.96 447.842 640.49 412.835 701.52 350.998C762.55 289.16 798.02 324.167 859.068 262.312C920.115 200.457 884.628 165.468 945.658 103.63" stroke="black" stroke-miterlimit="10"/>
<path d="M-10.8105 624.656C50.2195 562.818 85.6894 597.825 146.719 535.988C207.749 474.15 172.28 439.144 233.292 377.324C294.304 315.504 329.792 350.493 390.822 288.656C451.852 226.818 416.382 191.812 477.412 129.974C538.442 68.1368 573.912 103.144 634.96 41.2884C696.007 -20.5668 660.52 -55.5559 721.55 -117.393" stroke="black" stroke-miterlimit="10"/>
<path d="M431.615 1067.33C492.645 1005.5 528.115 1040.5 589.145 978.665C650.175 916.828 614.705 881.821 675.718 820.001C736.73 758.182 772.218 793.171 833.248 731.333C894.278 669.496 858.808 634.489 919.838 572.652C980.868 510.814 1016.34 545.821 1077.39 483.966C1138.43 422.111 1102.95 387.122 1163.98 325.284" stroke="black" stroke-miterlimit="10"/>
<path d="M-351.241 275.9C-290.211 214.062 -254.741 249.069 -193.711 187.232C-132.681 125.394 -168.151 90.3874 -107.138 28.5678C-46.1257 -33.2519 -10.6382 1.73717 50.3918 -60.1003C111.422 -121.938 75.9519 -156.944 136.982 -218.782C198.012 -280.619 233.482 -245.613 294.529 -307.468C355.577 -369.323 320.09 -404.312 381.12 -466.149" stroke="black" stroke-miterlimit="10"/>
<path d="M92.0679 712.036C153.098 650.198 188.568 685.205 249.598 623.367C310.628 561.53 275.158 526.523 336.17 464.704C397.183 402.884 432.67 437.873 493.7 376.036C554.73 314.198 519.26 279.191 580.29 217.354C641.32 155.516 676.79 190.523 737.838 128.668C798.886 66.8128 763.398 31.8238 824.428 -30.0137" stroke="#FF4B33" stroke-miterlimit="10"/>
<path d="M-132.923 490.277C-71.8928 428.439 -36.4229 463.446 24.6071 401.609C85.6372 339.771 50.1672 304.765 111.18 242.945C172.192 181.125 207.68 216.114 268.71 154.277C329.74 92.4394 294.27 57.4326 355.3 -4.40478C416.33 -66.2422 451.8 -31.2354 512.847 -93.0906C573.895 -154.946 538.407 -189.935 599.437 -251.772" stroke="black" stroke-miterlimit="10"/>
<path d="M309.504 932.954C370.534 871.117 406.004 906.124 467.034 844.286C528.064 782.449 492.594 747.442 553.606 685.623C614.619 623.803 650.106 658.792 711.136 596.954C772.166 535.117 736.696 500.11 797.727 438.273C858.757 376.435 894.226 411.442 955.274 349.587C1016.32 287.732 980.834 252.743 1041.86 190.905" stroke="black" stroke-miterlimit="10"/>
<path d="M-243.958 390.063C-182.928 328.226 -147.458 363.232 -86.428 301.395C-25.398 239.558 -60.8679 204.551 0.144529 142.731C61.157 80.9115 96.6445 115.901 157.675 54.0631C218.705 -7.7743 183.235 -42.7811 244.265 -104.619C305.295 -166.456 340.765 -131.449 401.812 -193.304C462.86 -255.16 427.372 -290.149 488.402 -351.986" stroke="#FF4B33" stroke-miterlimit="10"/>
<path d="M198.468 825.464C259.498 763.626 294.968 798.633 355.998 736.796C417.028 674.958 381.558 639.951 442.571 578.132C503.583 516.312 539.071 551.301 600.101 489.464C661.131 427.626 625.661 392.619 686.691 330.782C747.721 268.945 783.191 303.951 844.238 242.096C905.286 180.241 869.799 145.252 930.829 83.4144" stroke="black" stroke-miterlimit="10"/>
<path d="M-25.6401 604.44C35.3899 542.603 70.8598 577.61 131.89 515.772C192.92 453.935 157.45 418.928 218.462 357.108C279.475 295.289 314.962 330.278 375.992 268.44C437.022 206.603 401.552 171.596 462.582 109.759C523.612 47.9212 559.082 82.928 620.13 21.0728C681.178 -40.7824 645.69 -75.7714 706.72 -137.609" stroke="black" stroke-miterlimit="10"/>
<path d="M416.786 1047.12C477.816 985.28 513.286 1020.29 574.316 958.45C635.346 896.612 599.876 861.605 660.889 799.786C721.901 737.966 757.389 772.955 818.419 711.118C879.449 649.28 843.979 614.274 905.009 552.436C966.039 490.599 1001.51 525.606 1062.56 463.75C1123.6 401.895 1088.12 366.906 1149.15 305.069" stroke="black" stroke-miterlimit="10"/>
<path d="M-392.908 238.553C-331.878 176.715 -296.408 211.722 -235.378 149.885C-174.348 88.0472 -209.818 53.0404 -148.806 -8.77927C-87.7932 -70.5989 -52.3057 -35.6099 8.72433 -97.4473C69.7544 -159.285 34.2844 -194.292 95.3144 -256.129C156.344 -317.966 191.814 -282.96 252.862 -344.815C313.91 -406.67 278.422 -441.659 339.452 -503.497" stroke="black" stroke-miterlimit="10"/>
<path d="M50.3999 674.688C111.43 612.851 146.9 647.858 207.93 586.02C268.96 524.183 233.49 489.176 294.502 427.356C355.515 365.537 391.002 400.526 452.032 338.688C513.062 276.851 477.592 241.844 538.623 180.007C599.653 118.169 635.122 153.176 696.17 91.3207C757.218 29.4655 721.73 -5.52351 782.76 -67.3609" stroke="black" stroke-miterlimit="10"/>
<path d="M-174.59 460.207C-113.56 398.369 -78.0904 433.376 -17.0603 371.539C43.9697 309.701 8.49974 274.694 69.5122 212.875C130.525 151.055 166.012 186.044 227.042 124.207C288.072 62.3694 252.602 27.3626 313.632 -34.4749C374.662 -96.3123 410.132 -61.3055 471.18 -123.161C532.227 -185.016 496.74 -220.005 557.77 -281.842" stroke="#FF4B33" stroke-miterlimit="10"/>
<path d="M267.835 895.607C328.865 833.77 364.335 868.776 425.365 806.939C486.395 745.102 450.926 710.095 511.938 648.275C572.95 586.455 608.438 621.445 669.468 559.607C730.498 497.77 695.028 462.763 756.058 400.925C817.088 339.088 852.558 374.095 913.606 312.24C974.653 250.384 939.166 215.395 1000.2 153.558" stroke="black" stroke-miterlimit="10"/>
<path d="M-285.626 352.716C-224.596 290.879 -189.126 325.885 -128.096 264.048C-67.066 202.21 -102.536 167.204 -41.5234 105.384C19.489 43.5644 54.9765 78.5534 116.007 16.716C177.037 -45.1215 141.567 -80.1283 202.597 -141.966C263.627 -203.803 299.097 -168.796 360.144 -230.652C421.192 -292.507 385.704 -327.496 446.734 -389.333" stroke="black" stroke-miterlimit="10"/>
<path d="M157.683 788.852C218.713 727.014 254.183 762.021 315.213 700.184C376.243 638.346 340.773 603.339 401.785 541.52C462.798 479.7 498.285 514.689 559.315 452.852C620.345 391.014 584.875 356.007 645.905 294.17C706.935 232.333 742.405 267.339 803.453 205.484C864.5 143.629 829.013 108.64 890.043 46.8025" stroke="#FF4B33" stroke-miterlimit="10"/>
<path d="M-67.3081 567.093C-6.27808 505.256 29.1919 540.263 90.2219 478.425C151.252 416.588 115.782 381.581 176.794 319.761C237.807 257.942 273.294 292.931 334.324 231.093C395.354 169.256 359.884 134.249 420.914 72.4115C481.945 10.5741 517.414 45.5809 578.462 -16.2744C639.51 -78.1296 604.022 -113.119 665.052 -174.956" stroke="black" stroke-miterlimit="10"/>
<path d="M375.118 1009.77C436.148 947.933 471.618 982.94 532.648 921.103C593.678 859.265 558.208 824.259 619.22 762.439C680.233 700.619 715.72 735.608 776.75 673.771C837.78 611.933 802.31 576.927 863.34 515.089C924.37 453.252 959.84 488.259 1020.89 426.403C1081.94 364.548 1046.45 329.559 1107.48 267.722" stroke="black" stroke-miterlimit="10"/>
<path d="M-318.676 313.619C-257.646 251.781 -222.176 286.788 -161.146 224.951C-100.116 163.113 -135.586 128.107 -74.5732 66.287C-13.5608 4.46732 21.9267 39.4563 82.9568 -22.3811C143.987 -84.2185 108.517 -119.225 169.547 -181.063C230.577 -242.9 266.047 -207.893 327.094 -269.749C388.142 -331.604 352.654 -366.593 413.684 -428.43" stroke="black" stroke-miterlimit="10"/>
<path d="M124.633 749.755C185.663 687.917 221.133 722.924 282.163 661.087C343.193 599.249 307.723 564.242 368.735 502.423C429.748 440.603 465.235 475.592 526.265 413.755C587.295 351.917 551.825 316.91 612.855 255.073C673.885 193.236 709.355 228.242 770.403 166.387C831.451 104.532 795.963 69.5429 856.993 7.70546" stroke="#FF4B33" stroke-miterlimit="10"/>
<path d="M-100.358 527.996C-39.3284 466.159 -3.85843 501.166 57.1716 439.328C118.202 377.491 82.7317 342.484 143.744 280.664C204.757 218.845 240.244 253.834 301.274 191.996C362.304 130.159 326.834 95.152 387.864 33.3146C448.894 -28.5229 484.364 6.48394 545.412 -55.3713C606.459 -117.227 570.972 -152.216 632.002 -214.053" stroke="black" stroke-miterlimit="10"/>
<path d="M342.068 970.674C403.098 908.836 438.568 943.843 499.598 882.006C560.628 820.168 525.158 785.161 586.171 723.342C647.183 661.522 682.671 696.511 743.701 634.674C804.731 572.836 769.261 537.829 830.291 475.992C891.321 414.155 926.791 449.161 987.839 387.306C1048.89 325.451 1013.4 290.462 1074.43 228.624" stroke="black" stroke-miterlimit="10"/>
<path d="M-211.394 427.782C-150.364 365.945 -114.894 400.952 -53.8636 339.114C7.16646 277.277 -28.3035 242.27 32.709 180.45C93.7214 118.631 129.209 153.62 190.239 91.7822C251.269 29.9448 215.799 -5.06198 276.829 -66.8994C337.859 -128.737 373.329 -93.73 434.377 -155.585C495.424 -217.44 459.937 -252.43 520.967 -314.267" stroke="#FF4B33" stroke-miterlimit="10"/>
<path d="M231.032 863.183C292.062 801.345 327.532 836.352 388.562 774.515C449.592 712.677 414.122 677.671 475.135 615.851C536.147 554.031 571.635 589.02 632.665 527.183C693.695 465.345 658.225 430.339 719.255 368.501C780.285 306.664 815.755 341.671 876.802 279.815C937.85 217.96 902.362 182.971 963.392 121.134" stroke="black" stroke-miterlimit="10"/>
<path d="M6.92432 642.16C67.9543 580.322 103.424 615.329 164.454 553.492C225.484 491.654 190.014 456.647 251.027 394.828C312.039 333.008 347.527 367.997 408.557 306.16C469.587 244.322 434.117 209.315 495.147 147.478C556.177 85.6405 591.647 120.647 652.694 58.7921C713.742 -3.06317 678.255 -38.0522 739.285 -99.8896" stroke="black" stroke-miterlimit="10"/>
<path d="M449.351 1084.84C510.381 1023 545.851 1058.01 606.881 996.169C667.911 934.331 632.441 899.325 693.453 837.505C754.466 775.685 789.953 810.674 850.983 748.837C912.013 686.999 876.543 651.993 937.573 590.155C998.603 528.318 1034.07 563.325 1095.12 501.469C1156.17 439.614 1120.68 404.625 1181.71 342.788" stroke="black" stroke-miterlimit="10"/>
<path d="M-85.0435 549.59C-24.0134 487.752 11.4565 522.759 72.4865 460.922C133.517 399.084 98.0466 364.077 159.059 302.258C220.072 240.438 255.559 275.427 316.589 213.59C377.619 151.752 342.149 116.745 403.179 54.908C464.209 -6.92947 499.679 28.0773 560.727 -33.7779C621.774 -95.6331 586.287 -130.622 647.317 -192.46" stroke="black" stroke-miterlimit="10"/>
<path d="M-410.643 221.049C-349.613 159.212 -314.143 194.219 -253.113 132.381C-192.083 70.5437 -227.553 35.5369 -166.541 -26.2827C-105.528 -88.1024 -70.0406 -53.1134 -9.01053 -114.951C52.0195 -176.788 16.5495 -211.795 77.5795 -273.632C138.61 -335.47 174.08 -300.463 235.127 -362.318C296.175 -424.174 260.687 -459.163 321.717 -521" stroke="black" stroke-miterlimit="10"/>
<path d="M32.665 657.185C93.6951 595.347 129.165 630.354 190.195 568.517C251.225 506.679 215.755 471.672 276.768 409.853C337.78 348.033 373.268 383.022 434.298 321.185C495.328 259.347 459.858 224.34 520.888 162.503C581.918 100.666 617.388 135.672 678.435 73.8172C739.483 11.962 703.995 -23.0271 765.025 -84.8645" stroke="black" stroke-miterlimit="10"/>
<path d="M-192.326 442.703C-131.296 380.866 -95.8257 415.873 -34.7957 354.035C26.2343 292.198 -9.23561 257.191 51.7769 195.371C112.789 133.552 148.277 168.541 209.307 106.703C270.337 44.8657 234.867 9.85892 295.897 -51.9785C356.927 -113.816 392.397 -78.8091 453.444 -140.664C514.492 -202.52 479.005 -237.509 540.035 -299.346" stroke="#FF4B33" stroke-miterlimit="10"/>
<path d="M250.101 878.104C311.131 816.266 346.601 851.273 407.631 789.436C468.661 727.598 433.191 692.591 494.203 630.772C555.216 568.952 590.703 603.941 651.733 542.104C712.763 480.266 677.293 445.26 738.323 383.422C799.353 321.585 834.823 356.591 895.871 294.736C956.918 232.881 921.431 197.892 982.461 136.055" stroke="black" stroke-miterlimit="10"/>
<path d="M-303.361 335.213C-242.331 273.375 -206.861 308.382 -145.831 246.544C-84.8008 184.707 -120.271 149.7 -59.2583 87.8806C1.75416 26.0609 37.2417 61.05 98.2717 -0.787459C159.302 -62.6249 123.832 -97.6317 184.862 -159.469C245.892 -221.307 281.362 -186.3 342.409 -248.155C403.457 -310.01 367.969 -344.999 428.999 -406.837" stroke="black" stroke-miterlimit="10"/>
<path d="M139.947 771.348C200.977 709.511 236.447 744.517 297.477 682.68C358.507 620.843 323.037 585.836 384.05 524.016C445.062 462.196 480.55 497.185 541.58 435.348C602.61 373.511 567.14 338.504 628.17 276.666C689.2 214.829 724.67 249.836 785.717 187.981C846.765 126.125 811.278 91.1363 872.308 29.2988" stroke="#FF4B33" stroke-miterlimit="10"/>
<path d="M-368.976 258.396C-307.946 196.559 -272.476 231.566 -211.446 169.728C-150.416 107.891 -185.886 72.8839 -124.873 11.0642C-63.8606 -50.7554 -28.3731 -15.7664 32.6569 -77.6038C93.687 -139.441 58.217 -174.448 119.247 -236.285C180.277 -298.123 215.747 -263.116 276.795 -324.971C337.842 -386.827 302.355 -421.816 363.385 -483.653" stroke="black" stroke-miterlimit="10"/>
<path d="M74.333 694.532C135.363 632.694 170.833 667.701 231.863 605.864C292.893 544.026 257.423 509.019 318.436 447.2C379.448 385.38 414.936 420.369 475.966 358.532C536.996 296.694 501.526 261.688 562.556 199.85C623.586 138.013 659.056 173.019 720.103 111.164C781.151 49.309 745.663 14.32 806.693 -47.5174" stroke="#FF4B33" stroke-miterlimit="10"/>
<path d="M-150.658 472.773C-89.6277 410.936 -54.1577 445.943 6.87228 384.105C67.9023 322.268 32.4324 287.261 93.4448 225.441C154.457 163.622 189.945 198.611 250.975 136.773C312.005 74.936 276.535 39.9292 337.565 -21.9082C398.595 -83.7456 434.065 -48.7388 495.112 -110.594C556.16 -172.449 520.673 -207.438 581.703 -269.276" stroke="black" stroke-miterlimit="10"/>
<path d="M291.769 915.451C352.799 853.613 388.269 888.62 449.299 826.783C510.329 764.945 474.859 729.939 535.871 668.119C596.884 606.299 632.371 641.288 693.401 579.451C754.431 517.614 718.961 482.607 779.991 420.769C841.021 358.932 876.491 393.939 937.539 332.083C998.586 270.228 963.099 235.239 1024.13 173.402" stroke="black" stroke-miterlimit="10"/>
<path d="M-261.693 372.56C-200.663 310.722 -165.193 345.729 -104.163 283.891C-43.1333 222.054 -78.6033 187.047 -17.5908 125.228C43.4216 63.4079 78.9092 98.397 139.939 36.5595C200.969 -25.2779 165.499 -60.2847 226.529 -122.122C287.559 -183.96 323.029 -148.953 384.077 -210.808C445.124 -272.663 409.637 -307.652 470.667 -369.49" stroke="#FF4B33" stroke-miterlimit="10"/>
<path d="M180.733 807.96C241.763 746.123 277.233 781.129 338.263 719.292C399.293 657.454 363.823 622.448 424.836 560.628C485.848 498.808 521.336 533.797 582.366 471.96C643.396 410.123 607.926 375.116 668.956 313.278C729.986 251.441 765.456 286.448 826.504 224.592C887.551 162.737 852.064 127.748 913.094 65.9108" stroke="#FF4B33" stroke-miterlimit="10"/>
<path d="M-43.375 586.937C17.655 525.099 53.125 560.106 114.155 498.269C175.185 436.431 139.715 401.424 200.728 339.605C261.74 277.785 297.228 312.774 358.258 250.937C419.288 189.099 383.818 154.093 444.848 92.2551C505.878 30.4177 541.348 65.4245 602.395 3.56927C663.443 -58.286 627.955 -93.275 688.985 -155.112" stroke="black" stroke-miterlimit="10"/>
<path d="M399.051 1029.61C460.081 967.777 495.551 1002.78 556.581 940.946C617.611 879.109 582.141 844.102 643.154 782.282C704.166 720.463 739.654 755.452 800.684 693.614C861.714 631.777 826.244 596.77 887.274 534.932C948.304 473.095 983.774 508.102 1044.82 446.247C1105.87 384.391 1070.38 349.402 1131.41 287.565" stroke="black" stroke-miterlimit="10"/>
</g>
<defs>
<clipPath id="clip0_28_15269">
<rect width="775" height="421" rx="20" fill="white"/>
</clipPath>
</defs>
</svg>
