<svg width="180" height="180" viewBox="0 0 180 180" fill="none" xmlns="http://www.w3.org/2000/svg">
<path d="M27 36C27 31.0219 31.0219 27 36 27C100.631 27 153 79.3687 153 144C153 148.978 148.978 153 144 153C139.022 153 135 148.978 135 144C135 89.325 90.675 45 36 45C31.0219 45 27 40.9781 27 36ZM27 135C27 125.072 35.0719 117 45 117C54.9281 117 63 125.072 63 135C63 144.928 54.9281 153 45 153C35.0719 153 27 144.928 27 135ZM36 63C80.7469 63 117 99.2531 117 144C117 148.978 112.978 153 108 153C103.022 153 99 148.978 99 144C99 109.209 70.7906 81 36 81C31.0219 81 27 76.9781 27 72C27 67.0219 31.0219 63 36 63Z" fill="black"/>
</svg>
