<svg width="775" height="422" viewBox="0 0 775 422" fill="none" xmlns="http://www.w3.org/2000/svg">
<g clip-path="url(#clip0_12_11519)">
<g clip-path="url(#clip1_12_11519)">
<path opacity="0.15" d="M31.9444 -12H-12.5V32.4444H31.9444V-12Z" stroke="black" stroke-width="0.630746"/>
<path opacity="0.15" d="M76.3888 -12H31.9443V32.4444H76.3888V-12Z" stroke="black" stroke-width="0.630746"/>
<path opacity="0.15" d="M120.833 -12H76.3889V32.4444H120.833V-12Z" stroke="black" stroke-width="0.630746"/>
<path opacity="0.15" d="M165.278 -12H120.834V32.4444H165.278V-12Z" stroke="black" stroke-width="0.630746"/>
<path opacity="0.15" d="M209.723 -12H165.278V32.4444H209.723V-12Z" stroke="black" stroke-width="0.630746"/>
<path opacity="0.15" d="M254.167 -12H209.722V32.4444H254.167V-12Z" stroke="black" stroke-width="0.630746"/>
<path opacity="0.15" d="M298.612 -12H254.167V32.4444H298.612V-12Z" stroke="black" stroke-width="0.630746"/>
<path opacity="0.15" d="M343.056 -12H298.612V32.4444H343.056V-12Z" stroke="black" stroke-width="0.630746"/>
<path opacity="0.15" d="M387.5 -12H343.056V32.4444H387.5V-12Z" stroke="black" stroke-width="0.630746"/>
<path opacity="0.15" d="M431.945 -12H387.5V32.4444H431.945V-12Z" stroke="black" stroke-width="0.630746"/>
<path opacity="0.15" d="M476.389 -12H431.945V32.4444H476.389V-12Z" stroke="black" stroke-width="0.630746"/>
<path opacity="0.15" d="M520.833 -12H476.389V32.4444H520.833V-12Z" stroke="black" stroke-width="0.630746"/>
<path opacity="0.15" d="M565.278 -12H520.833V32.4444H565.278V-12Z" stroke="black" stroke-width="0.630746"/>
<path opacity="0.15" d="M609.722 -12H565.278V32.4444H609.722V-12Z" stroke="black" stroke-width="0.630746"/>
<path opacity="0.15" d="M654.167 -12H609.723V32.4444H654.167V-12Z" stroke="black" stroke-width="0.630746"/>
<path opacity="0.15" d="M698.611 -12H654.167V32.4444H698.611V-12Z" stroke="black" stroke-width="0.630746"/>
<path opacity="0.15" d="M743.056 -12H698.611V32.4444H743.056V-12Z" stroke="black" stroke-width="0.630746"/>
<path opacity="0.15" d="M787.501 -12H743.056V32.4444H787.501V-12Z" stroke="black" stroke-width="0.630746"/>
<path opacity="0.15" d="M31.9444 32.4443H-12.5V76.8888H31.9444V32.4443Z" stroke="black" stroke-width="0.630746"/>
<path opacity="0.15" d="M76.3888 32.4443H31.9443V76.8888H76.3888V32.4443Z" stroke="black" stroke-width="0.630746"/>
<path d="M31.9446 36.1946C34.0156 36.1946 35.6946 34.5156 35.6946 32.4446C35.6946 30.3735 34.0156 28.6946 31.9446 28.6946C29.8735 28.6946 28.1946 30.3735 28.1946 32.4446C28.1946 34.5156 29.8735 36.1946 31.9446 36.1946Z" fill="black"/>
<path opacity="0.15" d="M120.833 32.4443H76.3889V76.8888H120.833V32.4443Z" stroke="black" stroke-width="0.630746"/>
<path d="M76.3892 36.1946C78.4602 36.1946 80.1392 34.5156 80.1392 32.4446C80.1392 30.3735 78.4602 28.6946 76.3892 28.6946C74.3181 28.6946 72.6392 30.3735 72.6392 32.4446C72.6392 34.5156 74.3181 36.1946 76.3892 36.1946Z" fill="black"/>
<path opacity="0.15" d="M165.278 32.4443H120.834V76.8888H165.278V32.4443Z" stroke="black" stroke-width="0.630746"/>
<path d="M120.833 36.1946C122.904 36.1946 124.583 34.5156 124.583 32.4446C124.583 30.3735 122.904 28.6946 120.833 28.6946C118.762 28.6946 117.083 30.3735 117.083 32.4446C117.083 34.5156 118.762 36.1946 120.833 36.1946Z" fill="black"/>
<path opacity="0.15" d="M209.723 32.4443H165.278V76.8888H209.723V32.4443Z" stroke="black" stroke-width="0.630746"/>
<path d="M165.278 36.1946C167.349 36.1946 169.028 34.5156 169.028 32.4446C169.028 30.3735 167.349 28.6946 165.278 28.6946C163.207 28.6946 161.528 30.3735 161.528 32.4446C161.528 34.5156 163.207 36.1946 165.278 36.1946Z" fill="black"/>
<path opacity="0.15" d="M254.167 32.4443H209.722V76.8888H254.167V32.4443Z" stroke="black" stroke-width="0.630746"/>
<path d="M209.723 36.1946C211.794 36.1946 213.473 34.5156 213.473 32.4446C213.473 30.3735 211.794 28.6946 209.723 28.6946C207.652 28.6946 205.973 30.3735 205.973 32.4446C205.973 34.5156 207.652 36.1946 209.723 36.1946Z" fill="black"/>
<path opacity="0.15" d="M298.612 32.4443H254.167V76.8888H298.612V32.4443Z" stroke="black" stroke-width="0.630746"/>
<path d="M254.167 36.1946C256.239 36.1946 257.917 34.5156 257.917 32.4446C257.917 30.3735 256.239 28.6946 254.167 28.6946C252.096 28.6946 250.417 30.3735 250.417 32.4446C250.417 34.5156 252.096 36.1946 254.167 36.1946Z" fill="black"/>
<path opacity="0.15" d="M343.056 32.4443H298.612V76.8888H343.056V32.4443Z" stroke="black" stroke-width="0.630746"/>
<path d="M298.612 36.1946C300.683 36.1946 302.362 34.5156 302.362 32.4446C302.362 30.3735 300.683 28.6946 298.612 28.6946C296.541 28.6946 294.862 30.3735 294.862 32.4446C294.862 34.5156 296.541 36.1946 298.612 36.1946Z" fill="black"/>
<path opacity="0.15" d="M387.5 32.4443H343.056V76.8888H387.5V32.4443Z" stroke="black" stroke-width="0.630746"/>
<path d="M343.056 36.1946C345.127 36.1946 346.806 34.5156 346.806 32.4446C346.806 30.3735 345.127 28.6946 343.056 28.6946C340.985 28.6946 339.306 30.3735 339.306 32.4446C339.306 34.5156 340.985 36.1946 343.056 36.1946Z" fill="black"/>
<path opacity="0.15" d="M431.945 32.4443H387.5V76.8888H431.945V32.4443Z" stroke="black" stroke-width="0.630746"/>
<path d="M387.501 36.1946C389.572 36.1946 391.251 34.5156 391.251 32.4446C391.251 30.3735 389.572 28.6946 387.501 28.6946C385.43 28.6946 383.751 30.3735 383.751 32.4446C383.751 34.5156 385.43 36.1946 387.501 36.1946Z" fill="black"/>
<path opacity="0.15" d="M476.389 32.4443H431.945V76.8888H476.389V32.4443Z" stroke="black" stroke-width="0.630746"/>
<path d="M431.945 36.1946C434.016 36.1946 435.695 34.5156 435.695 32.4446C435.695 30.3735 434.016 28.6946 431.945 28.6946C429.874 28.6946 428.195 30.3735 428.195 32.4446C428.195 34.5156 429.874 36.1946 431.945 36.1946Z" fill="black"/>
<path opacity="0.15" d="M520.833 32.4443H476.389V76.8888H520.833V32.4443Z" stroke="black" stroke-width="0.630746"/>
<path d="M476.389 36.1946C478.46 36.1946 480.139 34.5156 480.139 32.4446C480.139 30.3735 478.46 28.6946 476.389 28.6946C474.318 28.6946 472.639 30.3735 472.639 32.4446C472.639 34.5156 474.318 36.1946 476.389 36.1946Z" fill="black"/>
<path opacity="0.15" d="M565.278 32.4443H520.833V76.8888H565.278V32.4443Z" stroke="black" stroke-width="0.630746"/>
<path d="M520.833 36.1946C522.904 36.1946 524.583 34.5156 524.583 32.4446C524.583 30.3735 522.904 28.6946 520.833 28.6946C518.762 28.6946 517.083 30.3735 517.083 32.4446C517.083 34.5156 518.762 36.1946 520.833 36.1946Z" fill="black"/>
<path opacity="0.15" d="M609.722 32.4443H565.278V76.8888H609.722V32.4443Z" stroke="black" stroke-width="0.630746"/>
<path d="M565.278 36.1946C567.349 36.1946 569.028 34.5156 569.028 32.4446C569.028 30.3735 567.349 28.6946 565.278 28.6946C563.207 28.6946 561.528 30.3735 561.528 32.4446C561.528 34.5156 563.207 36.1946 565.278 36.1946Z" fill="black"/>
<path opacity="0.15" d="M654.167 32.4443H609.723V76.8888H654.167V32.4443Z" stroke="black" stroke-width="0.630746"/>
<path d="M609.723 36.1946C611.794 36.1946 613.473 34.5156 613.473 32.4446C613.473 30.3735 611.794 28.6946 609.723 28.6946C607.652 28.6946 605.973 30.3735 605.973 32.4446C605.973 34.5156 607.652 36.1946 609.723 36.1946Z" fill="black"/>
<path opacity="0.15" d="M698.611 32.4443H654.167V76.8888H698.611V32.4443Z" stroke="black" stroke-width="0.630746"/>
<path d="M654.167 36.1946C656.238 36.1946 657.917 34.5156 657.917 32.4446C657.917 30.3735 656.238 28.6946 654.167 28.6946C652.096 28.6946 650.417 30.3735 650.417 32.4446C650.417 34.5156 652.096 36.1946 654.167 36.1946Z" fill="black"/>
<path opacity="0.15" d="M743.056 32.4443H698.611V76.8888H743.056V32.4443Z" stroke="black" stroke-width="0.630746"/>
<path d="M698.611 36.1946C700.682 36.1946 702.361 34.5156 702.361 32.4446C702.361 30.3735 700.682 28.6946 698.611 28.6946C696.54 28.6946 694.861 30.3735 694.861 32.4446C694.861 34.5156 696.54 36.1946 698.611 36.1946Z" fill="black"/>
<path opacity="0.15" d="M787.501 32.4443H743.056V76.8888H787.501V32.4443Z" stroke="black" stroke-width="0.630746"/>
<path d="M743.056 36.1946C745.127 36.1946 746.806 34.5156 746.806 32.4446C746.806 30.3735 745.127 28.6946 743.056 28.6946C740.985 28.6946 739.306 30.3735 739.306 32.4446C739.306 34.5156 740.985 36.1946 743.056 36.1946Z" fill="black"/>
<path opacity="0.15" d="M31.9444 76.8889H-12.5V121.333H31.9444V76.8889Z" stroke="black" stroke-width="0.630746"/>
<path opacity="0.15" d="M76.3888 76.8889H31.9443V121.333H76.3888V76.8889Z" stroke="black" stroke-width="0.630746"/>
<path d="M31.9446 80.6389C34.0156 80.6389 35.6946 78.96 35.6946 76.8889C35.6946 74.8178 34.0156 73.1389 31.9446 73.1389C29.8735 73.1389 28.1946 74.8178 28.1946 76.8889C28.1946 78.96 29.8735 80.6389 31.9446 80.6389Z" fill="black"/>
<path opacity="0.15" d="M120.833 76.8889H76.3889V121.333H120.833V76.8889Z" stroke="black" stroke-width="0.630746"/>
<path d="M76.3892 80.6389C78.4602 80.6389 80.1392 78.96 80.1392 76.8889C80.1392 74.8178 78.4602 73.1389 76.3892 73.1389C74.3181 73.1389 72.6392 74.8178 72.6392 76.8889C72.6392 78.96 74.3181 80.6389 76.3892 80.6389Z" fill="black"/>
<path opacity="0.15" d="M165.278 76.8889H120.834V121.333H165.278V76.8889Z" stroke="black" stroke-width="0.630746"/>
<path d="M120.833 80.6389C122.904 80.6389 124.583 78.96 124.583 76.8889C124.583 74.8178 122.904 73.1389 120.833 73.1389C118.762 73.1389 117.083 74.8178 117.083 76.8889C117.083 78.96 118.762 80.6389 120.833 80.6389Z" fill="black"/>
<path opacity="0.15" d="M209.723 76.8889H165.278V121.333H209.723V76.8889Z" stroke="black" stroke-width="0.630746"/>
<path d="M165.278 80.6389C167.349 80.6389 169.028 78.96 169.028 76.8889C169.028 74.8178 167.349 73.1389 165.278 73.1389C163.207 73.1389 161.528 74.8178 161.528 76.8889C161.528 78.96 163.207 80.6389 165.278 80.6389Z" fill="black"/>
<path opacity="0.15" d="M254.167 76.8889H209.722V121.333H254.167V76.8889Z" stroke="black" stroke-width="0.630746"/>
<path d="M209.723 80.6389C211.794 80.6389 213.473 78.96 213.473 76.8889C213.473 74.8178 211.794 73.1389 209.723 73.1389C207.652 73.1389 205.973 74.8178 205.973 76.8889C205.973 78.96 207.652 80.6389 209.723 80.6389Z" fill="black"/>
<path opacity="0.15" d="M298.612 76.8889H254.167V121.333H298.612V76.8889Z" stroke="black" stroke-width="0.630746"/>
<path d="M254.167 80.6389C256.239 80.6389 257.917 78.96 257.917 76.8889C257.917 74.8178 256.239 73.1389 254.167 73.1389C252.096 73.1389 250.417 74.8178 250.417 76.8889C250.417 78.96 252.096 80.6389 254.167 80.6389Z" fill="black"/>
<path opacity="0.15" d="M343.056 76.8889H298.612V121.333H343.056V76.8889Z" stroke="black" stroke-width="0.630746"/>
<path d="M298.612 80.6389C300.683 80.6389 302.362 78.96 302.362 76.8889C302.362 74.8178 300.683 73.1389 298.612 73.1389C296.541 73.1389 294.862 74.8178 294.862 76.8889C294.862 78.96 296.541 80.6389 298.612 80.6389Z" fill="black"/>
<path opacity="0.15" d="M387.5 76.8889H343.056V121.333H387.5V76.8889Z" stroke="black" stroke-width="0.630746"/>
<path d="M343.056 80.6389C345.127 80.6389 346.806 78.96 346.806 76.8889C346.806 74.8178 345.127 73.1389 343.056 73.1389C340.985 73.1389 339.306 74.8178 339.306 76.8889C339.306 78.96 340.985 80.6389 343.056 80.6389Z" fill="black"/>
<path opacity="0.15" d="M431.945 76.8889H387.5V121.333H431.945V76.8889Z" stroke="black" stroke-width="0.630746"/>
<path d="M387.501 80.6389C389.572 80.6389 391.251 78.96 391.251 76.8889C391.251 74.8178 389.572 73.1389 387.501 73.1389C385.43 73.1389 383.751 74.8178 383.751 76.8889C383.751 78.96 385.43 80.6389 387.501 80.6389Z" fill="black"/>
<path opacity="0.15" d="M476.389 76.8889H431.945V121.333H476.389V76.8889Z" stroke="black" stroke-width="0.630746"/>
<path d="M431.945 80.6389C434.016 80.6389 435.695 78.96 435.695 76.8889C435.695 74.8178 434.016 73.1389 431.945 73.1389C429.874 73.1389 428.195 74.8178 428.195 76.8889C428.195 78.96 429.874 80.6389 431.945 80.6389Z" fill="black"/>
<path opacity="0.15" d="M520.833 76.8889H476.389V121.333H520.833V76.8889Z" stroke="black" stroke-width="0.630746"/>
<path d="M476.389 80.6389C478.46 80.6389 480.139 78.96 480.139 76.8889C480.139 74.8178 478.46 73.1389 476.389 73.1389C474.318 73.1389 472.639 74.8178 472.639 76.8889C472.639 78.96 474.318 80.6389 476.389 80.6389Z" fill="black"/>
<path opacity="0.15" d="M565.278 76.8889H520.833V121.333H565.278V76.8889Z" stroke="black" stroke-width="0.630746"/>
<path d="M520.833 80.6389C522.904 80.6389 524.583 78.96 524.583 76.8889C524.583 74.8178 522.904 73.1389 520.833 73.1389C518.762 73.1389 517.083 74.8178 517.083 76.8889C517.083 78.96 518.762 80.6389 520.833 80.6389Z" fill="black"/>
<path opacity="0.15" d="M609.722 76.8889H565.278V121.333H609.722V76.8889Z" stroke="black" stroke-width="0.630746"/>
<path d="M565.278 80.6389C567.349 80.6389 569.028 78.96 569.028 76.8889C569.028 74.8178 567.349 73.1389 565.278 73.1389C563.207 73.1389 561.528 74.8178 561.528 76.8889C561.528 78.96 563.207 80.6389 565.278 80.6389Z" fill="black"/>
<path opacity="0.15" d="M654.167 76.8889H609.723V121.333H654.167V76.8889Z" stroke="black" stroke-width="0.630746"/>
<path d="M609.723 80.6389C611.794 80.6389 613.473 78.96 613.473 76.8889C613.473 74.8178 611.794 73.1389 609.723 73.1389C607.652 73.1389 605.973 74.8178 605.973 76.8889C605.973 78.96 607.652 80.6389 609.723 80.6389Z" fill="black"/>
<path opacity="0.15" d="M698.611 76.8889H654.167V121.333H698.611V76.8889Z" stroke="black" stroke-width="0.630746"/>
<path d="M654.167 80.6389C656.238 80.6389 657.917 78.96 657.917 76.8889C657.917 74.8178 656.238 73.1389 654.167 73.1389C652.096 73.1389 650.417 74.8178 650.417 76.8889C650.417 78.96 652.096 80.6389 654.167 80.6389Z" fill="black"/>
<path opacity="0.15" d="M743.056 76.8889H698.611V121.333H743.056V76.8889Z" stroke="black" stroke-width="0.630746"/>
<path d="M698.611 80.6389C700.682 80.6389 702.361 78.96 702.361 76.8889C702.361 74.8178 700.682 73.1389 698.611 73.1389C696.54 73.1389 694.861 74.8178 694.861 76.8889C694.861 78.96 696.54 80.6389 698.611 80.6389Z" fill="black"/>
<path opacity="0.15" d="M787.501 76.8889H743.056V121.333H787.501V76.8889Z" stroke="black" stroke-width="0.630746"/>
<path d="M743.056 80.6389C745.127 80.6389 746.806 78.96 746.806 76.8889C746.806 74.8178 745.127 73.1389 743.056 73.1389C740.985 73.1389 739.306 74.8178 739.306 76.8889C739.306 78.96 740.985 80.6389 743.056 80.6389Z" fill="black"/>
<path opacity="0.15" d="M31.9444 121.333H-12.5V165.778H31.9444V121.333Z" stroke="black" stroke-width="0.630746"/>
<path opacity="0.15" d="M76.3888 121.333H31.9443V165.778H76.3888V121.333Z" stroke="black" stroke-width="0.630746"/>
<path d="M31.9446 125.083C34.0156 125.083 35.6946 123.404 35.6946 121.333C35.6946 119.262 34.0156 117.583 31.9446 117.583C29.8735 117.583 28.1946 119.262 28.1946 121.333C28.1946 123.404 29.8735 125.083 31.9446 125.083Z" fill="black"/>
<path opacity="0.15" d="M120.833 121.333H76.3889V165.778H120.833V121.333Z" stroke="black" stroke-width="0.630746"/>
<path d="M76.3892 125.083C78.4602 125.083 80.1392 123.404 80.1392 121.333C80.1392 119.262 78.4602 117.583 76.3892 117.583C74.3181 117.583 72.6392 119.262 72.6392 121.333C72.6392 123.404 74.3181 125.083 76.3892 125.083Z" fill="black"/>
<path opacity="0.15" d="M165.278 121.333H120.834V165.778H165.278V121.333Z" stroke="black" stroke-width="0.630746"/>
<path d="M120.833 125.083C122.904 125.083 124.583 123.404 124.583 121.333C124.583 119.262 122.904 117.583 120.833 117.583C118.762 117.583 117.083 119.262 117.083 121.333C117.083 123.404 118.762 125.083 120.833 125.083Z" fill="black"/>
<path opacity="0.15" d="M209.723 121.333H165.278V165.778H209.723V121.333Z" stroke="black" stroke-width="0.630746"/>
<path d="M165.278 125.083C167.349 125.083 169.028 123.404 169.028 121.333C169.028 119.262 167.349 117.583 165.278 117.583C163.207 117.583 161.528 119.262 161.528 121.333C161.528 123.404 163.207 125.083 165.278 125.083Z" fill="black"/>
<path opacity="0.15" d="M254.167 121.333H209.722V165.778H254.167V121.333Z" stroke="black" stroke-width="0.630746"/>
<path d="M209.723 125.083C211.794 125.083 213.473 123.404 213.473 121.333C213.473 119.262 211.794 117.583 209.723 117.583C207.652 117.583 205.973 119.262 205.973 121.333C205.973 123.404 207.652 125.083 209.723 125.083Z" fill="black"/>
<path opacity="0.15" d="M298.612 121.333H254.167V165.778H298.612V121.333Z" stroke="black" stroke-width="0.630746"/>
<path d="M254.167 125.083C256.239 125.083 257.917 123.404 257.917 121.333C257.917 119.262 256.239 117.583 254.167 117.583C252.096 117.583 250.417 119.262 250.417 121.333C250.417 123.404 252.096 125.083 254.167 125.083Z" fill="black"/>
<path opacity="0.15" d="M343.056 121.333H298.612V165.778H343.056V121.333Z" stroke="black" stroke-width="0.630746"/>
<path d="M298.612 125.083C300.683 125.083 302.362 123.404 302.362 121.333C302.362 119.262 300.683 117.583 298.612 117.583C296.541 117.583 294.862 119.262 294.862 121.333C294.862 123.404 296.541 125.083 298.612 125.083Z" fill="black"/>
<path opacity="0.15" d="M387.5 121.333H343.056V165.778H387.5V121.333Z" stroke="black" stroke-width="0.630746"/>
<path d="M343.056 125.083C345.127 125.083 346.806 123.404 346.806 121.333C346.806 119.262 345.127 117.583 343.056 117.583C340.985 117.583 339.306 119.262 339.306 121.333C339.306 123.404 340.985 125.083 343.056 125.083Z" fill="black"/>
<path opacity="0.15" d="M431.945 121.333H387.5V165.778H431.945V121.333Z" stroke="black" stroke-width="0.630746"/>
<path d="M387.501 125.083C389.572 125.083 391.251 123.404 391.251 121.333C391.251 119.262 389.572 117.583 387.501 117.583C385.43 117.583 383.751 119.262 383.751 121.333C383.751 123.404 385.43 125.083 387.501 125.083Z" fill="black"/>
<path opacity="0.15" d="M476.389 121.333H431.945V165.778H476.389V121.333Z" stroke="black" stroke-width="0.630746"/>
<path d="M431.945 125.083C434.016 125.083 435.695 123.404 435.695 121.333C435.695 119.262 434.016 117.583 431.945 117.583C429.874 117.583 428.195 119.262 428.195 121.333C428.195 123.404 429.874 125.083 431.945 125.083Z" fill="black"/>
<path opacity="0.15" d="M520.833 121.333H476.389V165.778H520.833V121.333Z" stroke="black" stroke-width="0.630746"/>
<path d="M476.389 125.083C478.46 125.083 480.139 123.404 480.139 121.333C480.139 119.262 478.46 117.583 476.389 117.583C474.318 117.583 472.639 119.262 472.639 121.333C472.639 123.404 474.318 125.083 476.389 125.083Z" fill="black"/>
<path opacity="0.15" d="M565.278 121.333H520.833V165.778H565.278V121.333Z" stroke="black" stroke-width="0.630746"/>
<path d="M520.833 125.083C522.904 125.083 524.583 123.404 524.583 121.333C524.583 119.262 522.904 117.583 520.833 117.583C518.762 117.583 517.083 119.262 517.083 121.333C517.083 123.404 518.762 125.083 520.833 125.083Z" fill="black"/>
<path opacity="0.15" d="M609.722 121.333H565.278V165.778H609.722V121.333Z" stroke="black" stroke-width="0.630746"/>
<path d="M565.278 125.083C567.349 125.083 569.028 123.404 569.028 121.333C569.028 119.262 567.349 117.583 565.278 117.583C563.207 117.583 561.528 119.262 561.528 121.333C561.528 123.404 563.207 125.083 565.278 125.083Z" fill="black"/>
<path opacity="0.15" d="M654.167 121.333H609.723V165.778H654.167V121.333Z" stroke="black" stroke-width="0.630746"/>
<path d="M609.723 125.083C611.794 125.083 613.473 123.404 613.473 121.333C613.473 119.262 611.794 117.583 609.723 117.583C607.652 117.583 605.973 119.262 605.973 121.333C605.973 123.404 607.652 125.083 609.723 125.083Z" fill="black"/>
<path opacity="0.15" d="M698.611 121.333H654.167V165.778H698.611V121.333Z" stroke="black" stroke-width="0.630746"/>
<path d="M654.167 125.083C656.238 125.083 657.917 123.404 657.917 121.333C657.917 119.262 656.238 117.583 654.167 117.583C652.096 117.583 650.417 119.262 650.417 121.333C650.417 123.404 652.096 125.083 654.167 125.083Z" fill="black"/>
<path opacity="0.15" d="M743.056 121.333H698.611V165.778H743.056V121.333Z" stroke="black" stroke-width="0.630746"/>
<path d="M698.611 125.083C700.682 125.083 702.361 123.404 702.361 121.333C702.361 119.262 700.682 117.583 698.611 117.583C696.54 117.583 694.861 119.262 694.861 121.333C694.861 123.404 696.54 125.083 698.611 125.083Z" fill="black"/>
<path opacity="0.15" d="M787.501 121.333H743.056V165.778H787.501V121.333Z" stroke="black" stroke-width="0.630746"/>
<path d="M743.056 125.083C745.127 125.083 746.806 123.404 746.806 121.333C746.806 119.262 745.127 117.583 743.056 117.583C740.985 117.583 739.306 119.262 739.306 121.333C739.306 123.404 740.985 125.083 743.056 125.083Z" fill="black"/>
<path opacity="0.15" d="M31.9444 165.778H-12.5V210.222H31.9444V165.778Z" stroke="black" stroke-width="0.630746"/>
<path opacity="0.15" d="M76.3888 165.778H31.9443V210.222H76.3888V165.778Z" stroke="black" stroke-width="0.630746"/>
<path d="M31.9446 169.528C34.0156 169.528 35.6946 167.849 35.6946 165.778C35.6946 163.707 34.0156 162.028 31.9446 162.028C29.8735 162.028 28.1946 163.707 28.1946 165.778C28.1946 167.849 29.8735 169.528 31.9446 169.528Z" fill="black"/>
<path opacity="0.15" d="M120.833 165.778H76.3889V210.222H120.833V165.778Z" stroke="black" stroke-width="0.630746"/>
<path d="M76.3892 169.528C78.4602 169.528 80.1392 167.849 80.1392 165.778C80.1392 163.707 78.4602 162.028 76.3892 162.028C74.3181 162.028 72.6392 163.707 72.6392 165.778C72.6392 167.849 74.3181 169.528 76.3892 169.528Z" fill="black"/>
<path opacity="0.15" d="M165.278 165.778H120.834V210.222H165.278V165.778Z" stroke="black" stroke-width="0.630746"/>
<path d="M120.833 169.528C122.904 169.528 124.583 167.849 124.583 165.778C124.583 163.707 122.904 162.028 120.833 162.028C118.762 162.028 117.083 163.707 117.083 165.778C117.083 167.849 118.762 169.528 120.833 169.528Z" fill="black"/>
<path opacity="0.15" d="M209.723 165.778H165.278V210.222H209.723V165.778Z" stroke="black" stroke-width="0.630746"/>
<path d="M165.278 169.528C167.349 169.528 169.028 167.849 169.028 165.778C169.028 163.707 167.349 162.028 165.278 162.028C163.207 162.028 161.528 163.707 161.528 165.778C161.528 167.849 163.207 169.528 165.278 169.528Z" fill="black"/>
<path opacity="0.15" d="M254.167 165.778H209.722V210.222H254.167V165.778Z" stroke="black" stroke-width="0.630746"/>
<path d="M209.723 169.528C211.794 169.528 213.473 167.849 213.473 165.778C213.473 163.707 211.794 162.028 209.723 162.028C207.652 162.028 205.973 163.707 205.973 165.778C205.973 167.849 207.652 169.528 209.723 169.528Z" fill="black"/>
<path opacity="0.15" d="M298.612 165.778H254.167V210.222H298.612V165.778Z" stroke="black" stroke-width="0.630746"/>
<path d="M254.167 169.528C256.239 169.528 257.917 167.849 257.917 165.778C257.917 163.707 256.239 162.028 254.167 162.028C252.096 162.028 250.417 163.707 250.417 165.778C250.417 167.849 252.096 169.528 254.167 169.528Z" fill="black"/>
<path opacity="0.15" d="M343.056 165.778H298.612V210.222H343.056V165.778Z" stroke="black" stroke-width="0.630746"/>
<path d="M298.612 169.528C300.683 169.528 302.362 167.849 302.362 165.778C302.362 163.707 300.683 162.028 298.612 162.028C296.541 162.028 294.862 163.707 294.862 165.778C294.862 167.849 296.541 169.528 298.612 169.528Z" fill="black"/>
<path opacity="0.15" d="M387.5 165.778H343.056V210.222H387.5V165.778Z" stroke="black" stroke-width="0.630746"/>
<path d="M343.056 169.528C345.127 169.528 346.806 167.849 346.806 165.778C346.806 163.707 345.127 162.028 343.056 162.028C340.985 162.028 339.306 163.707 339.306 165.778C339.306 167.849 340.985 169.528 343.056 169.528Z" fill="#FF4B33"/>
<path opacity="0.15" d="M431.945 165.778H387.5V210.222H431.945V165.778Z" stroke="black" stroke-width="0.630746"/>
<path d="M387.501 169.528C389.572 169.528 391.251 167.849 391.251 165.778C391.251 163.707 389.572 162.028 387.501 162.028C385.43 162.028 383.751 163.707 383.751 165.778C383.751 167.849 385.43 169.528 387.501 169.528Z" fill="#FF4B33"/>
<path opacity="0.15" d="M476.389 165.778H431.945V210.222H476.389V165.778Z" stroke="black" stroke-width="0.630746"/>
<path d="M431.945 169.528C434.016 169.528 435.695 167.849 435.695 165.778C435.695 163.707 434.016 162.028 431.945 162.028C429.874 162.028 428.195 163.707 428.195 165.778C428.195 167.849 429.874 169.528 431.945 169.528Z" fill="#FF4B33"/>
<path opacity="0.15" d="M520.833 165.778H476.389V210.222H520.833V165.778Z" stroke="black" stroke-width="0.630746"/>
<path d="M476.389 169.528C478.46 169.528 480.139 167.849 480.139 165.778C480.139 163.707 478.46 162.028 476.389 162.028C474.318 162.028 472.639 163.707 472.639 165.778C472.639 167.849 474.318 169.528 476.389 169.528Z" fill="#FF4B33"/>
<path opacity="0.15" d="M565.278 165.778H520.833V210.222H565.278V165.778Z" stroke="black" stroke-width="0.630746"/>
<path d="M520.833 169.528C522.904 169.528 524.583 167.849 524.583 165.778C524.583 163.707 522.904 162.028 520.833 162.028C518.762 162.028 517.083 163.707 517.083 165.778C517.083 167.849 518.762 169.528 520.833 169.528Z" fill="black"/>
<path opacity="0.15" d="M609.722 165.778H565.278V210.222H609.722V165.778Z" stroke="black" stroke-width="0.630746"/>
<path d="M565.278 169.528C567.349 169.528 569.028 167.849 569.028 165.778C569.028 163.707 567.349 162.028 565.278 162.028C563.207 162.028 561.528 163.707 561.528 165.778C561.528 167.849 563.207 169.528 565.278 169.528Z" fill="black"/>
<path opacity="0.15" d="M654.167 165.778H609.723V210.222H654.167V165.778Z" stroke="black" stroke-width="0.630746"/>
<path d="M609.723 169.528C611.794 169.528 613.473 167.849 613.473 165.778C613.473 163.707 611.794 162.028 609.723 162.028C607.652 162.028 605.973 163.707 605.973 165.778C605.973 167.849 607.652 169.528 609.723 169.528Z" fill="black"/>
<path opacity="0.15" d="M698.611 165.778H654.167V210.222H698.611V165.778Z" stroke="black" stroke-width="0.630746"/>
<path d="M654.167 169.528C656.238 169.528 657.917 167.849 657.917 165.778C657.917 163.707 656.238 162.028 654.167 162.028C652.096 162.028 650.417 163.707 650.417 165.778C650.417 167.849 652.096 169.528 654.167 169.528Z" fill="black"/>
<path opacity="0.15" d="M743.056 165.778H698.611V210.222H743.056V165.778Z" stroke="black" stroke-width="0.630746"/>
<path d="M698.611 169.528C700.682 169.528 702.361 167.849 702.361 165.778C702.361 163.707 700.682 162.028 698.611 162.028C696.54 162.028 694.861 163.707 694.861 165.778C694.861 167.849 696.54 169.528 698.611 169.528Z" fill="black"/>
<path opacity="0.15" d="M787.501 165.778H743.056V210.222H787.501V165.778Z" stroke="black" stroke-width="0.630746"/>
<path d="M743.056 169.528C745.127 169.528 746.806 167.849 746.806 165.778C746.806 163.707 745.127 162.028 743.056 162.028C740.985 162.028 739.306 163.707 739.306 165.778C739.306 167.849 740.985 169.528 743.056 169.528Z" fill="black"/>
<path opacity="0.15" d="M31.9444 210.222H-12.5V254.667H31.9444V210.222Z" stroke="black" stroke-width="0.630746"/>
<path opacity="0.15" d="M76.3888 210.222H31.9443V254.667H76.3888V210.222Z" stroke="black" stroke-width="0.630746"/>
<path d="M31.9446 213.972C34.0156 213.972 35.6946 212.293 35.6946 210.222C35.6946 208.151 34.0156 206.472 31.9446 206.472C29.8735 206.472 28.1946 208.151 28.1946 210.222C28.1946 212.293 29.8735 213.972 31.9446 213.972Z" fill="#FF4B33"/>
<path opacity="0.15" d="M120.833 210.222H76.3889V254.667H120.833V210.222Z" stroke="black" stroke-width="0.630746"/>
<path d="M76.3892 213.972C78.4602 213.972 80.1392 212.293 80.1392 210.222C80.1392 208.151 78.4602 206.472 76.3892 206.472C74.3181 206.472 72.6392 208.151 72.6392 210.222C72.6392 212.293 74.3181 213.972 76.3892 213.972Z" fill="#FF4B33"/>
<path opacity="0.15" d="M165.278 210.222H120.834V254.667H165.278V210.222Z" stroke="black" stroke-width="0.630746"/>
<path d="M120.833 213.972C122.904 213.972 124.583 212.293 124.583 210.222C124.583 208.151 122.904 206.472 120.833 206.472C118.762 206.472 117.083 208.151 117.083 210.222C117.083 212.293 118.762 213.972 120.833 213.972Z" fill="#FF4B33"/>
<path opacity="0.15" d="M209.723 210.222H165.278V254.667H209.723V210.222Z" stroke="black" stroke-width="0.630746"/>
<path d="M165.278 213.972C167.349 213.972 169.028 212.293 169.028 210.222C169.028 208.151 167.349 206.472 165.278 206.472C163.207 206.472 161.528 208.151 161.528 210.222C161.528 212.293 163.207 213.972 165.278 213.972Z" fill="#FF4B33"/>
<path opacity="0.15" d="M254.167 210.222H209.722V254.667H254.167V210.222Z" stroke="black" stroke-width="0.630746"/>
<path d="M209.723 213.972C211.794 213.972 213.473 212.293 213.473 210.222C213.473 208.151 211.794 206.472 209.723 206.472C207.652 206.472 205.973 208.151 205.973 210.222C205.973 212.293 207.652 213.972 209.723 213.972Z" fill="#FF4B33"/>
<path opacity="0.15" d="M298.612 210.222H254.167V254.667H298.612V210.222Z" stroke="black" stroke-width="0.630746"/>
<path d="M254.167 213.972C256.239 213.972 257.917 212.293 257.917 210.222C257.917 208.151 256.239 206.472 254.167 206.472C252.096 206.472 250.417 208.151 250.417 210.222C250.417 212.293 252.096 213.972 254.167 213.972Z" fill="#FF4B33"/>
<path opacity="0.15" d="M343.056 210.222H298.612V254.667H343.056V210.222Z" stroke="black" stroke-width="0.630746"/>
<path d="M298.612 213.972C300.683 213.972 302.362 212.293 302.362 210.222C302.362 208.151 300.683 206.472 298.612 206.472C296.541 206.472 294.862 208.151 294.862 210.222C294.862 212.293 296.541 213.972 298.612 213.972Z" fill="#FF4B33"/>
<path opacity="0.15" d="M387.5 210.222H343.056V254.667H387.5V210.222Z" stroke="black" stroke-width="0.630746"/>
<path d="M343.056 213.972C345.127 213.972 346.806 212.293 346.806 210.222C346.806 208.151 345.127 206.472 343.056 206.472C340.985 206.472 339.306 208.151 339.306 210.222C339.306 212.293 340.985 213.972 343.056 213.972Z" fill="#FF4B33"/>
<path opacity="0.15" d="M431.945 210.222H387.5V254.667H431.945V210.222Z" stroke="black" stroke-width="0.630746"/>
<path d="M387.501 213.972C389.572 213.972 391.251 212.293 391.251 210.222C391.251 208.151 389.572 206.472 387.501 206.472C385.43 206.472 383.751 208.151 383.751 210.222C383.751 212.293 385.43 213.972 387.501 213.972Z" fill="#FF4B33"/>
<path opacity="0.15" d="M476.389 210.222H431.945V254.667H476.389V210.222Z" stroke="black" stroke-width="0.630746"/>
<path d="M431.945 213.972C434.016 213.972 435.695 212.293 435.695 210.222C435.695 208.151 434.016 206.472 431.945 206.472C429.874 206.472 428.195 208.151 428.195 210.222C428.195 212.293 429.874 213.972 431.945 213.972Z" fill="#FF4B33"/>
<path opacity="0.15" d="M520.833 210.222H476.389V254.667H520.833V210.222Z" stroke="black" stroke-width="0.630746"/>
<path d="M476.389 213.972C478.46 213.972 480.139 212.293 480.139 210.222C480.139 208.151 478.46 206.472 476.389 206.472C474.318 206.472 472.639 208.151 472.639 210.222C472.639 212.293 474.318 213.972 476.389 213.972Z" fill="#FF4B33"/>
<path opacity="0.15" d="M565.278 210.222H520.833V254.667H565.278V210.222Z" stroke="black" stroke-width="0.630746"/>
<path d="M520.833 213.972C522.904 213.972 524.583 212.293 524.583 210.222C524.583 208.151 522.904 206.472 520.833 206.472C518.762 206.472 517.083 208.151 517.083 210.222C517.083 212.293 518.762 213.972 520.833 213.972Z" fill="#FF4B33"/>
<path opacity="0.15" d="M609.722 210.222H565.278V254.667H609.722V210.222Z" stroke="black" stroke-width="0.630746"/>
<path d="M565.278 213.972C567.349 213.972 569.028 212.293 569.028 210.222C569.028 208.151 567.349 206.472 565.278 206.472C563.207 206.472 561.528 208.151 561.528 210.222C561.528 212.293 563.207 213.972 565.278 213.972Z" fill="#FF4B33"/>
<path opacity="0.15" d="M654.167 210.222H609.723V254.667H654.167V210.222Z" stroke="black" stroke-width="0.630746"/>
<path d="M609.723 213.972C611.794 213.972 613.473 212.293 613.473 210.222C613.473 208.151 611.794 206.472 609.723 206.472C607.652 206.472 605.973 208.151 605.973 210.222C605.973 212.293 607.652 213.972 609.723 213.972Z" fill="#FF4B33"/>
<path opacity="0.15" d="M698.611 210.222H654.167V254.667H698.611V210.222Z" stroke="black" stroke-width="0.630746"/>
<path d="M654.167 213.972C656.238 213.972 657.917 212.293 657.917 210.222C657.917 208.151 656.238 206.472 654.167 206.472C652.096 206.472 650.417 208.151 650.417 210.222C650.417 212.293 652.096 213.972 654.167 213.972Z" fill="#FF4B33"/>
<path opacity="0.15" d="M743.056 210.222H698.611V254.667H743.056V210.222Z" stroke="black" stroke-width="0.630746"/>
<path d="M698.611 213.972C700.682 213.972 702.361 212.293 702.361 210.222C702.361 208.151 700.682 206.472 698.611 206.472C696.54 206.472 694.861 208.151 694.861 210.222C694.861 212.293 696.54 213.972 698.611 213.972Z" fill="#FF4B33"/>
<path opacity="0.15" d="M787.501 210.222H743.056V254.667H787.501V210.222Z" stroke="black" stroke-width="0.630746"/>
<path d="M743.056 213.972C745.127 213.972 746.806 212.293 746.806 210.222C746.806 208.151 745.127 206.472 743.056 206.472C740.985 206.472 739.306 208.151 739.306 210.222C739.306 212.293 740.985 213.972 743.056 213.972Z" fill="#FF4B33"/>
<path opacity="0.15" d="M31.9444 254.667H-12.5V299.111H31.9444V254.667Z" stroke="black" stroke-width="0.630746"/>
<path opacity="0.15" d="M76.3888 254.667H31.9443V299.111H76.3888V254.667Z" stroke="black" stroke-width="0.630746"/>
<path d="M31.9446 258.417C34.0156 258.417 35.6946 256.738 35.6946 254.667C35.6946 252.595 34.0156 250.917 31.9446 250.917C29.8735 250.917 28.1946 252.595 28.1946 254.667C28.1946 256.738 29.8735 258.417 31.9446 258.417Z" fill="black"/>
<path opacity="0.15" d="M120.833 254.667H76.3889V299.111H120.833V254.667Z" stroke="black" stroke-width="0.630746"/>
<path d="M76.3892 258.417C78.4602 258.417 80.1392 256.738 80.1392 254.667C80.1392 252.595 78.4602 250.917 76.3892 250.917C74.3181 250.917 72.6392 252.595 72.6392 254.667C72.6392 256.738 74.3181 258.417 76.3892 258.417Z" fill="black"/>
<path opacity="0.15" d="M165.278 254.667H120.834V299.111H165.278V254.667Z" stroke="black" stroke-width="0.630746"/>
<path d="M120.833 258.417C122.904 258.417 124.583 256.738 124.583 254.667C124.583 252.595 122.904 250.917 120.833 250.917C118.762 250.917 117.083 252.595 117.083 254.667C117.083 256.738 118.762 258.417 120.833 258.417Z" fill="black"/>
<path opacity="0.15" d="M209.723 254.667H165.278V299.111H209.723V254.667Z" stroke="black" stroke-width="0.630746"/>
<path d="M165.278 258.417C167.349 258.417 169.028 256.738 169.028 254.667C169.028 252.595 167.349 250.917 165.278 250.917C163.207 250.917 161.528 252.595 161.528 254.667C161.528 256.738 163.207 258.417 165.278 258.417Z" fill="black"/>
<path opacity="0.15" d="M254.167 254.667H209.722V299.111H254.167V254.667Z" stroke="black" stroke-width="0.630746"/>
<path d="M209.723 258.417C211.794 258.417 213.473 256.738 213.473 254.667C213.473 252.595 211.794 250.917 209.723 250.917C207.652 250.917 205.973 252.595 205.973 254.667C205.973 256.738 207.652 258.417 209.723 258.417Z" fill="black"/>
<path opacity="0.15" d="M298.612 254.667H254.167V299.111H298.612V254.667Z" stroke="black" stroke-width="0.630746"/>
<path d="M254.167 258.417C256.239 258.417 257.917 256.738 257.917 254.667C257.917 252.595 256.239 250.917 254.167 250.917C252.096 250.917 250.417 252.595 250.417 254.667C250.417 256.738 252.096 258.417 254.167 258.417Z" fill="black"/>
<path opacity="0.15" d="M343.056 254.667H298.612V299.111H343.056V254.667Z" stroke="black" stroke-width="0.630746"/>
<path d="M298.612 258.417C300.683 258.417 302.362 256.738 302.362 254.667C302.362 252.595 300.683 250.917 298.612 250.917C296.541 250.917 294.862 252.595 294.862 254.667C294.862 256.738 296.541 258.417 298.612 258.417Z" fill="black"/>
<path opacity="0.15" d="M387.5 254.667H343.056V299.111H387.5V254.667Z" stroke="black" stroke-width="0.630746"/>
<path d="M343.056 258.417C345.127 258.417 346.806 256.738 346.806 254.667C346.806 252.595 345.127 250.917 343.056 250.917C340.985 250.917 339.306 252.595 339.306 254.667C339.306 256.738 340.985 258.417 343.056 258.417Z" fill="#FF4B33"/>
<path opacity="0.15" d="M431.945 254.667H387.5V299.111H431.945V254.667Z" stroke="black" stroke-width="0.630746"/>
<path d="M387.501 258.417C389.572 258.417 391.251 256.738 391.251 254.667C391.251 252.595 389.572 250.917 387.501 250.917C385.43 250.917 383.751 252.595 383.751 254.667C383.751 256.738 385.43 258.417 387.501 258.417Z" fill="#FF4B33"/>
<path opacity="0.15" d="M476.389 254.667H431.945V299.111H476.389V254.667Z" stroke="black" stroke-width="0.630746"/>
<path d="M431.945 258.417C434.016 258.417 435.695 256.738 435.695 254.667C435.695 252.595 434.016 250.917 431.945 250.917C429.874 250.917 428.195 252.595 428.195 254.667C428.195 256.738 429.874 258.417 431.945 258.417Z" fill="#FF4B33"/>
<path opacity="0.15" d="M520.833 254.667H476.389V299.111H520.833V254.667Z" stroke="black" stroke-width="0.630746"/>
<path d="M476.389 258.417C478.46 258.417 480.139 256.738 480.139 254.667C480.139 252.595 478.46 250.917 476.389 250.917C474.318 250.917 472.639 252.595 472.639 254.667C472.639 256.738 474.318 258.417 476.389 258.417Z" fill="#FF4B33"/>
<path opacity="0.15" d="M565.278 254.667H520.833V299.111H565.278V254.667Z" stroke="black" stroke-width="0.630746"/>
<path d="M520.833 258.417C522.904 258.417 524.583 256.738 524.583 254.667C524.583 252.595 522.904 250.917 520.833 250.917C518.762 250.917 517.083 252.595 517.083 254.667C517.083 256.738 518.762 258.417 520.833 258.417Z" fill="black"/>
<path opacity="0.15" d="M609.722 254.667H565.278V299.111H609.722V254.667Z" stroke="black" stroke-width="0.630746"/>
<path d="M565.278 258.417C567.349 258.417 569.028 256.738 569.028 254.667C569.028 252.595 567.349 250.917 565.278 250.917C563.207 250.917 561.528 252.595 561.528 254.667C561.528 256.738 563.207 258.417 565.278 258.417Z" fill="black"/>
<path opacity="0.15" d="M654.167 254.667H609.723V299.111H654.167V254.667Z" stroke="black" stroke-width="0.630746"/>
<path d="M609.723 258.417C611.794 258.417 613.473 256.738 613.473 254.667C613.473 252.595 611.794 250.917 609.723 250.917C607.652 250.917 605.973 252.595 605.973 254.667C605.973 256.738 607.652 258.417 609.723 258.417Z" fill="black"/>
<path opacity="0.15" d="M698.611 254.667H654.167V299.111H698.611V254.667Z" stroke="black" stroke-width="0.630746"/>
<path d="M654.167 258.417C656.238 258.417 657.917 256.738 657.917 254.667C657.917 252.595 656.238 250.917 654.167 250.917C652.096 250.917 650.417 252.595 650.417 254.667C650.417 256.738 652.096 258.417 654.167 258.417Z" fill="black"/>
<path opacity="0.15" d="M743.056 254.667H698.611V299.111H743.056V254.667Z" stroke="black" stroke-width="0.630746"/>
<path d="M698.611 258.417C700.682 258.417 702.361 256.738 702.361 254.667C702.361 252.595 700.682 250.917 698.611 250.917C696.54 250.917 694.861 252.595 694.861 254.667C694.861 256.738 696.54 258.417 698.611 258.417Z" fill="black"/>
<path opacity="0.15" d="M787.501 254.667H743.056V299.111H787.501V254.667Z" stroke="black" stroke-width="0.630746"/>
<path d="M743.056 258.417C745.127 258.417 746.806 256.738 746.806 254.667C746.806 252.595 745.127 250.917 743.056 250.917C740.985 250.917 739.306 252.595 739.306 254.667C739.306 256.738 740.985 258.417 743.056 258.417Z" fill="black"/>
<path opacity="0.15" d="M31.9444 299.111H-12.5V343.556H31.9444V299.111Z" stroke="black" stroke-width="0.630746"/>
<path opacity="0.15" d="M76.3888 299.111H31.9443V343.556H76.3888V299.111Z" stroke="black" stroke-width="0.630746"/>
<path d="M31.9446 302.861C34.0156 302.861 35.6946 301.182 35.6946 299.111C35.6946 297.04 34.0156 295.361 31.9446 295.361C29.8735 295.361 28.1946 297.04 28.1946 299.111C28.1946 301.182 29.8735 302.861 31.9446 302.861Z" fill="black"/>
<path opacity="0.15" d="M120.833 299.111H76.3889V343.556H120.833V299.111Z" stroke="black" stroke-width="0.630746"/>
<path d="M76.3892 302.861C78.4602 302.861 80.1392 301.182 80.1392 299.111C80.1392 297.04 78.4602 295.361 76.3892 295.361C74.3181 295.361 72.6392 297.04 72.6392 299.111C72.6392 301.182 74.3181 302.861 76.3892 302.861Z" fill="black"/>
<path opacity="0.15" d="M165.278 299.111H120.834V343.556H165.278V299.111Z" stroke="black" stroke-width="0.630746"/>
<path d="M120.833 302.861C122.904 302.861 124.583 301.182 124.583 299.111C124.583 297.04 122.904 295.361 120.833 295.361C118.762 295.361 117.083 297.04 117.083 299.111C117.083 301.182 118.762 302.861 120.833 302.861Z" fill="black"/>
<path opacity="0.15" d="M209.723 299.111H165.278V343.556H209.723V299.111Z" stroke="black" stroke-width="0.630746"/>
<path d="M165.278 302.861C167.349 302.861 169.028 301.182 169.028 299.111C169.028 297.04 167.349 295.361 165.278 295.361C163.207 295.361 161.528 297.04 161.528 299.111C161.528 301.182 163.207 302.861 165.278 302.861Z" fill="black"/>
<path opacity="0.15" d="M254.167 299.111H209.722V343.556H254.167V299.111Z" stroke="black" stroke-width="0.630746"/>
<path d="M209.723 302.861C211.794 302.861 213.473 301.182 213.473 299.111C213.473 297.04 211.794 295.361 209.723 295.361C207.652 295.361 205.973 297.04 205.973 299.111C205.973 301.182 207.652 302.861 209.723 302.861Z" fill="black"/>
<path opacity="0.15" d="M298.612 299.111H254.167V343.556H298.612V299.111Z" stroke="black" stroke-width="0.630746"/>
<path d="M254.167 302.861C256.239 302.861 257.917 301.182 257.917 299.111C257.917 297.04 256.239 295.361 254.167 295.361C252.096 295.361 250.417 297.04 250.417 299.111C250.417 301.182 252.096 302.861 254.167 302.861Z" fill="black"/>
<path opacity="0.15" d="M343.056 299.111H298.612V343.556H343.056V299.111Z" stroke="black" stroke-width="0.630746"/>
<path d="M298.612 302.861C300.683 302.861 302.362 301.182 302.362 299.111C302.362 297.04 300.683 295.361 298.612 295.361C296.541 295.361 294.862 297.04 294.862 299.111C294.862 301.182 296.541 302.861 298.612 302.861Z" fill="black"/>
<path opacity="0.15" d="M387.5 299.111H343.056V343.556H387.5V299.111Z" stroke="black" stroke-width="0.630746"/>
<path d="M343.056 302.861C345.127 302.861 346.806 301.182 346.806 299.111C346.806 297.04 345.127 295.361 343.056 295.361C340.985 295.361 339.306 297.04 339.306 299.111C339.306 301.182 340.985 302.861 343.056 302.861Z" fill="black"/>
<path opacity="0.15" d="M431.945 299.111H387.5V343.556H431.945V299.111Z" stroke="black" stroke-width="0.630746"/>
<path d="M387.501 302.861C389.572 302.861 391.251 301.182 391.251 299.111C391.251 297.04 389.572 295.361 387.501 295.361C385.43 295.361 383.751 297.04 383.751 299.111C383.751 301.182 385.43 302.861 387.501 302.861Z" fill="black"/>
<path opacity="0.15" d="M476.389 299.111H431.945V343.556H476.389V299.111Z" stroke="black" stroke-width="0.630746"/>
<path d="M431.945 302.861C434.016 302.861 435.695 301.182 435.695 299.111C435.695 297.04 434.016 295.361 431.945 295.361C429.874 295.361 428.195 297.04 428.195 299.111C428.195 301.182 429.874 302.861 431.945 302.861Z" fill="black"/>
<path opacity="0.15" d="M520.833 299.111H476.389V343.556H520.833V299.111Z" stroke="black" stroke-width="0.630746"/>
<path d="M476.389 302.861C478.46 302.861 480.139 301.182 480.139 299.111C480.139 297.04 478.46 295.361 476.389 295.361C474.318 295.361 472.639 297.04 472.639 299.111C472.639 301.182 474.318 302.861 476.389 302.861Z" fill="black"/>
<path opacity="0.15" d="M565.278 299.111H520.833V343.556H565.278V299.111Z" stroke="black" stroke-width="0.630746"/>
<path d="M520.833 302.861C522.904 302.861 524.583 301.182 524.583 299.111C524.583 297.04 522.904 295.361 520.833 295.361C518.762 295.361 517.083 297.04 517.083 299.111C517.083 301.182 518.762 302.861 520.833 302.861Z" fill="black"/>
<path opacity="0.15" d="M609.722 299.111H565.278V343.556H609.722V299.111Z" stroke="black" stroke-width="0.630746"/>
<path d="M565.278 302.861C567.349 302.861 569.028 301.182 569.028 299.111C569.028 297.04 567.349 295.361 565.278 295.361C563.207 295.361 561.528 297.04 561.528 299.111C561.528 301.182 563.207 302.861 565.278 302.861Z" fill="black"/>
<path opacity="0.15" d="M654.167 299.111H609.723V343.556H654.167V299.111Z" stroke="black" stroke-width="0.630746"/>
<path d="M609.723 302.861C611.794 302.861 613.473 301.182 613.473 299.111C613.473 297.04 611.794 295.361 609.723 295.361C607.652 295.361 605.973 297.04 605.973 299.111C605.973 301.182 607.652 302.861 609.723 302.861Z" fill="black"/>
<path opacity="0.15" d="M698.611 299.111H654.167V343.556H698.611V299.111Z" stroke="black" stroke-width="0.630746"/>
<path d="M654.167 302.861C656.238 302.861 657.917 301.182 657.917 299.111C657.917 297.04 656.238 295.361 654.167 295.361C652.096 295.361 650.417 297.04 650.417 299.111C650.417 301.182 652.096 302.861 654.167 302.861Z" fill="black"/>
<path opacity="0.15" d="M743.056 299.111H698.611V343.556H743.056V299.111Z" stroke="black" stroke-width="0.630746"/>
<path d="M698.611 302.861C700.682 302.861 702.361 301.182 702.361 299.111C702.361 297.04 700.682 295.361 698.611 295.361C696.54 295.361 694.861 297.04 694.861 299.111C694.861 301.182 696.54 302.861 698.611 302.861Z" fill="black"/>
<path opacity="0.15" d="M787.501 299.111H743.056V343.556H787.501V299.111Z" stroke="black" stroke-width="0.630746"/>
<path d="M743.056 302.861C745.127 302.861 746.806 301.182 746.806 299.111C746.806 297.04 745.127 295.361 743.056 295.361C740.985 295.361 739.306 297.04 739.306 299.111C739.306 301.182 740.985 302.861 743.056 302.861Z" fill="black"/>
<path opacity="0.15" d="M31.9444 343.555H-12.5V388H31.9444V343.555Z" stroke="black" stroke-width="0.630746"/>
<path opacity="0.15" d="M76.3888 343.555H31.9443V388H76.3888V343.555Z" stroke="black" stroke-width="0.630746"/>
<path d="M31.9446 347.305C34.0156 347.305 35.6946 345.626 35.6946 343.555C35.6946 341.484 34.0156 339.805 31.9446 339.805C29.8735 339.805 28.1946 341.484 28.1946 343.555C28.1946 345.626 29.8735 347.305 31.9446 347.305Z" fill="black"/>
<path opacity="0.15" d="M120.833 343.555H76.3889V388H120.833V343.555Z" stroke="black" stroke-width="0.630746"/>
<path d="M76.3892 347.305C78.4602 347.305 80.1392 345.626 80.1392 343.555C80.1392 341.484 78.4602 339.805 76.3892 339.805C74.3181 339.805 72.6392 341.484 72.6392 343.555C72.6392 345.626 74.3181 347.305 76.3892 347.305Z" fill="black"/>
<path opacity="0.15" d="M165.278 343.555H120.834V388H165.278V343.555Z" stroke="black" stroke-width="0.630746"/>
<path d="M120.833 347.305C122.904 347.305 124.583 345.626 124.583 343.555C124.583 341.484 122.904 339.805 120.833 339.805C118.762 339.805 117.083 341.484 117.083 343.555C117.083 345.626 118.762 347.305 120.833 347.305Z" fill="black"/>
<path opacity="0.15" d="M209.723 343.555H165.278V388H209.723V343.555Z" stroke="black" stroke-width="0.630746"/>
<path d="M165.278 347.305C167.349 347.305 169.028 345.626 169.028 343.555C169.028 341.484 167.349 339.805 165.278 339.805C163.207 339.805 161.528 341.484 161.528 343.555C161.528 345.626 163.207 347.305 165.278 347.305Z" fill="black"/>
<path opacity="0.15" d="M254.167 343.555H209.722V388H254.167V343.555Z" stroke="black" stroke-width="0.630746"/>
<path d="M209.723 347.305C211.794 347.305 213.473 345.626 213.473 343.555C213.473 341.484 211.794 339.805 209.723 339.805C207.652 339.805 205.973 341.484 205.973 343.555C205.973 345.626 207.652 347.305 209.723 347.305Z" fill="black"/>
<path opacity="0.15" d="M298.612 343.555H254.167V388H298.612V343.555Z" stroke="black" stroke-width="0.630746"/>
<path d="M254.167 347.305C256.239 347.305 257.917 345.626 257.917 343.555C257.917 341.484 256.239 339.805 254.167 339.805C252.096 339.805 250.417 341.484 250.417 343.555C250.417 345.626 252.096 347.305 254.167 347.305Z" fill="black"/>
<path opacity="0.15" d="M343.056 343.555H298.612V388H343.056V343.555Z" stroke="black" stroke-width="0.630746"/>
<path d="M298.612 347.305C300.683 347.305 302.362 345.626 302.362 343.555C302.362 341.484 300.683 339.805 298.612 339.805C296.541 339.805 294.862 341.484 294.862 343.555C294.862 345.626 296.541 347.305 298.612 347.305Z" fill="black"/>
<path opacity="0.15" d="M387.5 343.555H343.056V388H387.5V343.555Z" stroke="black" stroke-width="0.630746"/>
<path d="M343.056 347.305C345.127 347.305 346.806 345.626 346.806 343.555C346.806 341.484 345.127 339.805 343.056 339.805C340.985 339.805 339.306 341.484 339.306 343.555C339.306 345.626 340.985 347.305 343.056 347.305Z" fill="black"/>
<path opacity="0.15" d="M431.945 343.555H387.5V388H431.945V343.555Z" stroke="black" stroke-width="0.630746"/>
<path d="M387.501 347.305C389.572 347.305 391.251 345.626 391.251 343.555C391.251 341.484 389.572 339.805 387.501 339.805C385.43 339.805 383.751 341.484 383.751 343.555C383.751 345.626 385.43 347.305 387.501 347.305Z" fill="black"/>
<path opacity="0.15" d="M476.389 343.555H431.945V388H476.389V343.555Z" stroke="black" stroke-width="0.630746"/>
<path d="M431.945 347.305C434.016 347.305 435.695 345.626 435.695 343.555C435.695 341.484 434.016 339.805 431.945 339.805C429.874 339.805 428.195 341.484 428.195 343.555C428.195 345.626 429.874 347.305 431.945 347.305Z" fill="black"/>
<path opacity="0.15" d="M520.833 343.555H476.389V388H520.833V343.555Z" stroke="black" stroke-width="0.630746"/>
<path d="M476.389 347.305C478.46 347.305 480.139 345.626 480.139 343.555C480.139 341.484 478.46 339.805 476.389 339.805C474.318 339.805 472.639 341.484 472.639 343.555C472.639 345.626 474.318 347.305 476.389 347.305Z" fill="black"/>
<path opacity="0.15" d="M565.278 343.555H520.833V388H565.278V343.555Z" stroke="black" stroke-width="0.630746"/>
<path d="M520.833 347.305C522.904 347.305 524.583 345.626 524.583 343.555C524.583 341.484 522.904 339.805 520.833 339.805C518.762 339.805 517.083 341.484 517.083 343.555C517.083 345.626 518.762 347.305 520.833 347.305Z" fill="black"/>
<path opacity="0.15" d="M609.722 343.555H565.278V388H609.722V343.555Z" stroke="black" stroke-width="0.630746"/>
<path d="M565.278 347.305C567.349 347.305 569.028 345.626 569.028 343.555C569.028 341.484 567.349 339.805 565.278 339.805C563.207 339.805 561.528 341.484 561.528 343.555C561.528 345.626 563.207 347.305 565.278 347.305Z" fill="black"/>
<path opacity="0.15" d="M654.167 343.555H609.723V388H654.167V343.555Z" stroke="black" stroke-width="0.630746"/>
<path d="M609.723 347.305C611.794 347.305 613.473 345.626 613.473 343.555C613.473 341.484 611.794 339.805 609.723 339.805C607.652 339.805 605.973 341.484 605.973 343.555C605.973 345.626 607.652 347.305 609.723 347.305Z" fill="black"/>
<path opacity="0.15" d="M698.611 343.555H654.167V388H698.611V343.555Z" stroke="black" stroke-width="0.630746"/>
<path d="M654.167 347.305C656.238 347.305 657.917 345.626 657.917 343.555C657.917 341.484 656.238 339.805 654.167 339.805C652.096 339.805 650.417 341.484 650.417 343.555C650.417 345.626 652.096 347.305 654.167 347.305Z" fill="black"/>
<path opacity="0.15" d="M743.056 343.555H698.611V388H743.056V343.555Z" stroke="black" stroke-width="0.630746"/>
<path d="M698.611 347.305C700.682 347.305 702.361 345.626 702.361 343.555C702.361 341.484 700.682 339.805 698.611 339.805C696.54 339.805 694.861 341.484 694.861 343.555C694.861 345.626 696.54 347.305 698.611 347.305Z" fill="black"/>
<path opacity="0.15" d="M787.501 343.555H743.056V388H787.501V343.555Z" stroke="black" stroke-width="0.630746"/>
<path d="M743.056 347.305C745.127 347.305 746.806 345.626 746.806 343.555C746.806 341.484 745.127 339.805 743.056 339.805C740.985 339.805 739.306 341.484 739.306 343.555C739.306 345.626 740.985 347.305 743.056 347.305Z" fill="black"/>
<path opacity="0.15" d="M31.9444 388H-12.5V432.444H31.9444V388Z" stroke="black" stroke-width="0.630746"/>
<path opacity="0.15" d="M76.3888 388H31.9443V432.444H76.3888V388Z" stroke="black" stroke-width="0.630746"/>
<path d="M31.9446 391.75C34.0156 391.75 35.6946 390.071 35.6946 388C35.6946 385.929 34.0156 384.25 31.9446 384.25C29.8735 384.25 28.1946 385.929 28.1946 388C28.1946 390.071 29.8735 391.75 31.9446 391.75Z" fill="black"/>
<path opacity="0.15" d="M120.833 388H76.3889V432.444H120.833V388Z" stroke="black" stroke-width="0.630746"/>
<path d="M76.3892 391.75C78.4602 391.75 80.1392 390.071 80.1392 388C80.1392 385.929 78.4602 384.25 76.3892 384.25C74.3181 384.25 72.6392 385.929 72.6392 388C72.6392 390.071 74.3181 391.75 76.3892 391.75Z" fill="black"/>
<path opacity="0.15" d="M165.278 388H120.834V432.444H165.278V388Z" stroke="black" stroke-width="0.630746"/>
<path d="M120.833 391.75C122.904 391.75 124.583 390.071 124.583 388C124.583 385.929 122.904 384.25 120.833 384.25C118.762 384.25 117.083 385.929 117.083 388C117.083 390.071 118.762 391.75 120.833 391.75Z" fill="black"/>
<path opacity="0.15" d="M209.723 388H165.278V432.444H209.723V388Z" stroke="black" stroke-width="0.630746"/>
<path d="M165.278 391.75C167.349 391.75 169.028 390.071 169.028 388C169.028 385.929 167.349 384.25 165.278 384.25C163.207 384.25 161.528 385.929 161.528 388C161.528 390.071 163.207 391.75 165.278 391.75Z" fill="black"/>
<path opacity="0.15" d="M254.167 388H209.722V432.444H254.167V388Z" stroke="black" stroke-width="0.630746"/>
<path d="M209.723 391.75C211.794 391.75 213.473 390.071 213.473 388C213.473 385.929 211.794 384.25 209.723 384.25C207.652 384.25 205.973 385.929 205.973 388C205.973 390.071 207.652 391.75 209.723 391.75Z" fill="black"/>
<path opacity="0.15" d="M298.612 388H254.167V432.444H298.612V388Z" stroke="black" stroke-width="0.630746"/>
<path d="M254.167 391.75C256.239 391.75 257.917 390.071 257.917 388C257.917 385.929 256.239 384.25 254.167 384.25C252.096 384.25 250.417 385.929 250.417 388C250.417 390.071 252.096 391.75 254.167 391.75Z" fill="black"/>
<path opacity="0.15" d="M343.056 388H298.612V432.444H343.056V388Z" stroke="black" stroke-width="0.630746"/>
<path d="M298.612 391.75C300.683 391.75 302.362 390.071 302.362 388C302.362 385.929 300.683 384.25 298.612 384.25C296.541 384.25 294.862 385.929 294.862 388C294.862 390.071 296.541 391.75 298.612 391.75Z" fill="black"/>
<path opacity="0.15" d="M387.5 388H343.056V432.444H387.5V388Z" stroke="black" stroke-width="0.630746"/>
<path d="M343.056 391.75C345.127 391.75 346.806 390.071 346.806 388C346.806 385.929 345.127 384.25 343.056 384.25C340.985 384.25 339.306 385.929 339.306 388C339.306 390.071 340.985 391.75 343.056 391.75Z" fill="black"/>
<path opacity="0.15" d="M431.945 388H387.5V432.444H431.945V388Z" stroke="black" stroke-width="0.630746"/>
<path d="M387.501 391.75C389.572 391.75 391.251 390.071 391.251 388C391.251 385.929 389.572 384.25 387.501 384.25C385.43 384.25 383.751 385.929 383.751 388C383.751 390.071 385.43 391.75 387.501 391.75Z" fill="black"/>
<path opacity="0.15" d="M476.389 388H431.945V432.444H476.389V388Z" stroke="black" stroke-width="0.630746"/>
<path d="M431.945 391.75C434.016 391.75 435.695 390.071 435.695 388C435.695 385.929 434.016 384.25 431.945 384.25C429.874 384.25 428.195 385.929 428.195 388C428.195 390.071 429.874 391.75 431.945 391.75Z" fill="black"/>
<path opacity="0.15" d="M520.833 388H476.389V432.444H520.833V388Z" stroke="black" stroke-width="0.630746"/>
<path d="M476.389 391.75C478.46 391.75 480.139 390.071 480.139 388C480.139 385.929 478.46 384.25 476.389 384.25C474.318 384.25 472.639 385.929 472.639 388C472.639 390.071 474.318 391.75 476.389 391.75Z" fill="black"/>
<path opacity="0.15" d="M565.278 388H520.833V432.444H565.278V388Z" stroke="black" stroke-width="0.630746"/>
<path d="M520.833 391.75C522.904 391.75 524.583 390.071 524.583 388C524.583 385.929 522.904 384.25 520.833 384.25C518.762 384.25 517.083 385.929 517.083 388C517.083 390.071 518.762 391.75 520.833 391.75Z" fill="black"/>
<path opacity="0.15" d="M609.722 388H565.278V432.444H609.722V388Z" stroke="black" stroke-width="0.630746"/>
<path d="M565.278 391.75C567.349 391.75 569.028 390.071 569.028 388C569.028 385.929 567.349 384.25 565.278 384.25C563.207 384.25 561.528 385.929 561.528 388C561.528 390.071 563.207 391.75 565.278 391.75Z" fill="black"/>
<path opacity="0.15" d="M654.167 388H609.723V432.444H654.167V388Z" stroke="black" stroke-width="0.630746"/>
<path d="M609.723 391.75C611.794 391.75 613.473 390.071 613.473 388C613.473 385.929 611.794 384.25 609.723 384.25C607.652 384.25 605.973 385.929 605.973 388C605.973 390.071 607.652 391.75 609.723 391.75Z" fill="black"/>
<path opacity="0.15" d="M698.611 388H654.167V432.444H698.611V388Z" stroke="black" stroke-width="0.630746"/>
<path d="M654.167 391.75C656.238 391.75 657.917 390.071 657.917 388C657.917 385.929 656.238 384.25 654.167 384.25C652.096 384.25 650.417 385.929 650.417 388C650.417 390.071 652.096 391.75 654.167 391.75Z" fill="black"/>
<path opacity="0.15" d="M743.056 388H698.611V432.444H743.056V388Z" stroke="black" stroke-width="0.630746"/>
<path d="M698.611 391.75C700.682 391.75 702.361 390.071 702.361 388C702.361 385.929 700.682 384.25 698.611 384.25C696.54 384.25 694.861 385.929 694.861 388C694.861 390.071 696.54 391.75 698.611 391.75Z" fill="black"/>
<path opacity="0.15" d="M787.501 388H743.056V432.444H787.501V388Z" stroke="black" stroke-width="0.630746"/>
<path d="M743.056 391.75C745.127 391.75 746.806 390.071 746.806 388C746.806 385.929 745.127 384.25 743.056 384.25C740.985 384.25 739.306 385.929 739.306 388C739.306 390.071 740.985 391.75 743.056 391.75Z" fill="black"/>
</g>
</g>
<defs>
<clipPath id="clip0_12_11519">
<rect y="0.5" width="775" height="421" rx="20" fill="white"/>
</clipPath>
<clipPath id="clip1_12_11519">
<rect width="800" height="800" fill="white" transform="translate(-12.5 -12)"/>
</clipPath>
</defs>
</svg>
