<svg width="775" height="421" viewBox="0 0 775 421" fill="none" xmlns="http://www.w3.org/2000/svg">
<g clip-path="url(#clip0_28_15368)">
<g clip-path="url(#clip1_28_15368)">
<path d="M27.5265 16.0663L23.0664 11.6063L18.6064 16.0663L23.0664 20.5264L27.5265 16.0663Z" stroke="black" stroke-width="0.630746"/>
<path d="M83.5924 16.0663L79.1323 11.6063L74.6723 16.0663L79.1323 20.5264L83.5924 16.0663Z" stroke="black" stroke-width="0.630746"/>
<path d="M139.659 16.066L135.199 11.6059L130.739 16.066L135.199 20.526L139.659 16.066Z" stroke="black" stroke-width="0.630746"/>
<path d="M195.725 16.066L191.265 11.6059L186.805 16.066L191.265 20.526L195.725 16.066Z" stroke="black" stroke-width="0.630746"/>
<path d="M251.792 16.0663L247.332 11.6063L242.872 16.0663L247.332 20.5264L251.792 16.0663Z" stroke="black" stroke-width="0.630746"/>
<path d="M307.858 16.066L303.397 11.6059L298.937 16.066L303.397 20.526L307.858 16.066Z" stroke="black" stroke-width="0.630746"/>
<path d="M363.924 16.0663L359.464 11.6063L355.004 16.0663L359.464 20.5264L363.924 16.0663Z" fill="#FF4B33"/>
<path d="M419.991 16.066L415.531 11.6059L411.071 16.066L415.531 20.526L419.991 16.066Z" stroke="black" stroke-width="0.630746"/>
<path d="M476.057 16.0663L471.597 11.6063L467.137 16.0663L471.597 20.5264L476.057 16.0663Z" stroke="black" stroke-width="0.630746"/>
<path d="M532.123 16.0663L527.663 11.6063L523.203 16.0663L527.663 20.5264L532.123 16.0663Z" stroke="black" stroke-width="0.630746"/>
<path d="M588.19 16.0663L583.729 11.6063L579.269 16.0663L583.729 20.5264L588.19 16.0663Z" fill="#FF4B33"/>
<path d="M644.256 16.066L639.796 11.606L635.336 16.066L639.796 20.5261L644.256 16.066Z" fill="#FF4B33"/>
<path d="M700.322 16.066L695.862 11.606L691.402 16.066L695.862 20.5261L700.322 16.066Z" stroke="black" stroke-width="0.630746"/>
<path d="M756.389 16.0664L751.929 11.6063L747.469 16.0664L751.929 20.5264L756.389 16.0664Z" stroke="black" stroke-width="0.630746"/>
<path d="M27.5265 72.1324L23.0664 67.6724L18.6064 72.1324L23.0664 76.5925L27.5265 72.1324Z" fill="#FF4B33"/>
<path d="M83.5924 72.1324L79.1323 67.6724L74.6723 72.1324L79.1323 76.5925L83.5924 72.1324Z" stroke="black" stroke-width="0.630746"/>
<path d="M139.659 72.1324L135.199 67.6724L130.739 72.1324L135.199 76.5925L139.659 72.1324Z" stroke="black" stroke-width="0.630746"/>
<path d="M195.725 72.1324L191.265 67.6724L186.805 72.1324L191.265 76.5925L195.725 72.1324Z" fill="#FF4B33"/>
<path d="M251.792 72.1324L247.332 67.6724L242.872 72.1324L247.332 76.5925L251.792 72.1324Z" stroke="black" stroke-width="0.630746"/>
<path d="M307.858 72.1324L303.397 67.6724L298.937 72.1324L303.397 76.5925L307.858 72.1324Z" stroke="black" stroke-width="0.630746"/>
<path d="M363.924 72.1324L359.464 67.6724L355.004 72.1324L359.464 76.5925L363.924 72.1324Z" stroke="black" stroke-width="0.630746"/>
<path d="M419.991 72.1324L415.531 67.6724L411.071 72.1324L415.531 76.5925L419.991 72.1324Z" fill="#FF4B33"/>
<path d="M476.057 72.1324L471.597 67.6724L467.137 72.1324L471.597 76.5925L476.057 72.1324Z" stroke="black" stroke-width="0.630746"/>
<path d="M532.123 72.1324L527.663 67.6724L523.203 72.1324L527.663 76.5925L532.123 72.1324Z" stroke="black" stroke-width="0.630746"/>
<path d="M588.19 72.1324L583.729 67.6724L579.269 72.1324L583.729 76.5925L588.19 72.1324Z" stroke="black" stroke-width="0.630746"/>
<path d="M644.256 72.1325L639.796 67.6725L635.336 72.1325L639.796 76.5926L644.256 72.1325Z" stroke="black" stroke-width="0.630746"/>
<path d="M700.322 72.1325L695.862 67.6725L691.402 72.1325L695.862 76.5926L700.322 72.1325Z" stroke="black" stroke-width="0.630746"/>
<path d="M756.389 72.1325L751.929 67.6725L747.469 72.1325L751.929 76.5926L756.389 72.1325Z" fill="#FF4B33"/>
<path d="M27.5265 128.199L23.0664 123.739L18.6064 128.199L23.0664 132.659L27.5265 128.199Z" fill="#FF4B33"/>
<path d="M83.5924 128.199L79.1323 123.739L74.6723 128.199L79.1323 132.659L83.5924 128.199Z" stroke="black" stroke-width="0.630746"/>
<path d="M139.659 128.199L135.199 123.739L130.739 128.199L135.199 132.659L139.659 128.199Z" fill="#FF4B33"/>
<path d="M195.725 128.199L191.265 123.739L186.805 128.199L191.265 132.659L195.725 128.199Z" stroke="black" stroke-width="0.630746"/>
<path d="M251.792 128.199L247.332 123.739L242.872 128.199L247.332 132.659L251.792 128.199Z" stroke="black" stroke-width="0.630746"/>
<path d="M307.858 128.199L303.397 123.739L298.937 128.199L303.397 132.659L307.858 128.199Z" stroke="black" stroke-width="0.630746"/>
<path d="M363.924 128.199L359.464 123.739L355.004 128.199L359.464 132.659L363.924 128.199Z" stroke="black" stroke-width="0.630746"/>
<path d="M419.991 128.199L415.531 123.739L411.071 128.199L415.531 132.659L419.991 128.199Z" stroke="black" stroke-width="0.630746"/>
<path d="M476.057 128.199L471.597 123.739L467.137 128.199L471.597 132.659L476.057 128.199Z" stroke="black" stroke-width="0.630746"/>
<path d="M532.123 128.199L527.663 123.739L523.203 128.199L527.663 132.659L532.123 128.199Z" fill="#FF4B33"/>
<path d="M588.19 128.199L583.729 123.739L579.269 128.199L583.729 132.659L588.19 128.199Z" stroke="black" stroke-width="0.630746"/>
<path d="M644.256 128.199L639.796 123.739L635.336 128.199L639.796 132.659L644.256 128.199Z" stroke="black" stroke-width="0.630746"/>
<path d="M700.322 128.199L695.862 123.739L691.402 128.199L695.862 132.659L700.322 128.199Z" fill="#FF4B33"/>
<path d="M756.389 128.199L751.929 123.739L747.469 128.199L751.929 132.659L756.389 128.199Z" fill="#FF4B33"/>
<path d="M27.5265 184.265L23.0664 179.805L18.6064 184.265L23.0664 188.725L27.5265 184.265Z" stroke="black" stroke-width="0.630746"/>
<path d="M83.5924 184.265L79.1323 179.805L74.6723 184.265L79.1323 188.725L83.5924 184.265Z" stroke="black" stroke-width="0.630746"/>
<path d="M139.659 184.265L135.199 179.805L130.739 184.265L135.199 188.725L139.659 184.265Z" stroke="black" stroke-width="0.630746"/>
<path d="M195.725 184.265L191.265 179.805L186.805 184.265L191.265 188.725L195.725 184.265Z" stroke="black" stroke-width="0.630746"/>
<path d="M251.792 184.265L247.332 179.805L242.872 184.265L247.332 188.725L251.792 184.265Z" stroke="black" stroke-width="0.630746"/>
<path d="M307.858 184.265L303.397 179.805L298.937 184.265L303.397 188.725L307.858 184.265Z" stroke="black" stroke-width="0.630746"/>
<path d="M363.924 184.265L359.464 179.805L355.004 184.265L359.464 188.725L363.924 184.265Z" stroke="black" stroke-width="0.630746"/>
<path d="M419.991 184.265L415.531 179.805L411.071 184.265L415.531 188.725L419.991 184.265Z" stroke="black" stroke-width="0.630746"/>
<path d="M476.057 184.265L471.597 179.805L467.137 184.265L471.597 188.725L476.057 184.265Z" stroke="black" stroke-width="0.630746"/>
<path d="M532.123 184.265L527.663 179.805L523.203 184.265L527.663 188.725L532.123 184.265Z" stroke="black" stroke-width="0.630746"/>
<path d="M588.19 184.265L583.729 179.805L579.269 184.265L583.729 188.725L588.19 184.265Z" stroke="black" stroke-width="0.630746"/>
<path d="M644.256 184.265L639.796 179.805L635.336 184.265L639.796 188.725L644.256 184.265Z" stroke="black" stroke-width="0.630746"/>
<path d="M700.322 184.265L695.862 179.805L691.402 184.265L695.862 188.725L700.322 184.265Z" stroke="black" stroke-width="0.630746"/>
<path d="M756.389 184.265L751.929 179.805L747.469 184.265L751.929 188.725L756.389 184.265Z" stroke="black" stroke-width="0.630746"/>
<path d="M27.5265 240.331L23.0664 235.871L18.6064 240.331L23.0664 244.791L27.5265 240.331Z" stroke="black" stroke-width="0.630746"/>
<path d="M83.5924 240.331L79.1323 235.871L74.6723 240.331L79.1323 244.791L83.5924 240.331Z" stroke="black" stroke-width="0.630746"/>
<path d="M139.659 240.331L135.199 235.871L130.739 240.331L135.199 244.791L139.659 240.331Z" stroke="black" stroke-width="0.630746"/>
<path d="M195.725 240.331L191.265 235.871L186.805 240.331L191.265 244.791L195.725 240.331Z" fill="#FF4B33"/>
<path d="M251.792 240.331L247.332 235.871L242.872 240.331L247.332 244.791L251.792 240.331Z" fill="#FF4B33"/>
<path d="M307.858 240.331L303.397 235.871L298.937 240.331L303.397 244.791L307.858 240.331Z" stroke="black" stroke-width="0.630746"/>
<path d="M363.924 240.331L359.464 235.871L355.004 240.331L359.464 244.791L363.924 240.331Z" fill="#FF4B33"/>
<path d="M419.991 240.331L415.531 235.871L411.071 240.331L415.531 244.791L419.991 240.331Z" fill="#FF4B33"/>
<path d="M476.057 240.331L471.597 235.871L467.137 240.331L471.597 244.791L476.057 240.331Z" stroke="black" stroke-width="0.630746"/>
<path d="M532.123 240.331L527.663 235.871L523.203 240.331L527.663 244.791L532.123 240.331Z" stroke="black" stroke-width="0.630746"/>
<path d="M588.19 240.331L583.729 235.871L579.269 240.331L583.729 244.791L588.19 240.331Z" stroke="black" stroke-width="0.630746"/>
<path d="M644.256 240.331L639.796 235.871L635.336 240.331L639.796 244.791L644.256 240.331Z" stroke="black" stroke-width="0.630746"/>
<path d="M700.322 240.331L695.862 235.871L691.402 240.331L695.862 244.791L700.322 240.331Z" stroke="black" stroke-width="0.630746"/>
<path d="M756.389 240.331L751.929 235.871L747.469 240.331L751.929 244.791L756.389 240.331Z" stroke="black" stroke-width="0.630746"/>
<path d="M27.5265 296.398L23.0664 291.938L18.6064 296.398L23.0664 300.858L27.5265 296.398Z" stroke="black" stroke-width="0.630746"/>
<path d="M83.5924 296.398L79.1323 291.938L74.6723 296.398L79.1323 300.858L83.5924 296.398Z" stroke="black" stroke-width="0.630746"/>
<path d="M139.659 296.398L135.199 291.938L130.739 296.398L135.199 300.858L139.659 296.398Z" stroke="black" stroke-width="0.630746"/>
<path d="M195.725 296.398L191.265 291.938L186.805 296.398L191.265 300.858L195.725 296.398Z" stroke="black" stroke-width="0.630746"/>
<path d="M251.792 296.398L247.332 291.938L242.872 296.398L247.332 300.858L251.792 296.398Z" fill="#FF4B33"/>
<path d="M307.858 296.398L303.397 291.938L298.937 296.398L303.397 300.858L307.858 296.398Z" stroke="black" stroke-width="0.630746"/>
<path d="M363.924 296.398L359.464 291.938L355.004 296.398L359.464 300.858L363.924 296.398Z" stroke="black" stroke-width="0.630746"/>
<path d="M419.991 296.398L415.531 291.938L411.071 296.398L415.531 300.858L419.991 296.398Z" stroke="black" stroke-width="0.630746"/>
<path d="M476.057 296.398L471.597 291.938L467.137 296.398L471.597 300.858L476.057 296.398Z" stroke="black" stroke-width="0.630746"/>
<path d="M532.123 296.398L527.663 291.938L523.203 296.398L527.663 300.858L532.123 296.398Z" stroke="black" stroke-width="0.630746"/>
<path d="M588.19 296.398L583.729 291.938L579.269 296.398L583.729 300.858L588.19 296.398Z" stroke="black" stroke-width="0.630746"/>
<path d="M644.256 296.398L639.796 291.938L635.336 296.398L639.796 300.858L644.256 296.398Z" fill="#FF4B33"/>
<path d="M700.322 296.398L695.862 291.938L691.402 296.398L695.862 300.858L700.322 296.398Z" stroke="black" stroke-width="0.630746"/>
<path d="M756.389 296.398L751.929 291.938L747.469 296.398L751.929 300.858L756.389 296.398Z" stroke="black" stroke-width="0.630746"/>
<path d="M27.5265 352.464L23.0664 348.004L18.6064 352.464L23.0664 356.924L27.5265 352.464Z" stroke="black" stroke-width="0.630746"/>
<path d="M83.5924 352.464L79.1323 348.004L74.6723 352.464L79.1323 356.924L83.5924 352.464Z" stroke="black" stroke-width="0.630746"/>
<path d="M139.659 352.464L135.199 348.004L130.739 352.464L135.199 356.924L139.659 352.464Z" fill="#FF4B33"/>
<path d="M195.725 352.464L191.265 348.004L186.805 352.464L191.265 356.924L195.725 352.464Z" fill="#FF4B33"/>
<path d="M251.792 352.464L247.332 348.004L242.872 352.464L247.332 356.924L251.792 352.464Z" fill="#FF4B33"/>
<path d="M307.858 352.464L303.397 348.004L298.937 352.464L303.397 356.924L307.858 352.464Z" stroke="black" stroke-width="0.630746"/>
<path d="M363.924 352.464L359.464 348.004L355.004 352.464L359.464 356.924L363.924 352.464Z" stroke="black" stroke-width="0.630746"/>
<path d="M419.991 352.464L415.531 348.004L411.071 352.464L415.531 356.924L419.991 352.464Z" stroke="black" stroke-width="0.630746"/>
<path d="M476.057 352.464L471.597 348.004L467.137 352.464L471.597 356.924L476.057 352.464Z" stroke="black" stroke-width="0.630746"/>
<path d="M532.123 352.464L527.663 348.004L523.203 352.464L527.663 356.924L532.123 352.464Z" stroke="black" stroke-width="0.630746"/>
<path d="M588.19 352.464L583.729 348.004L579.269 352.464L583.729 356.924L588.19 352.464Z" stroke="black" stroke-width="0.630746"/>
<path d="M644.256 352.464L639.796 348.004L635.336 352.464L639.796 356.924L644.256 352.464Z" stroke="black" stroke-width="0.630746"/>
<path d="M700.322 352.464L695.862 348.004L691.402 352.464L695.862 356.924L700.322 352.464Z" fill="#FF4B33"/>
<path d="M756.389 352.464L751.929 348.004L747.469 352.464L751.929 356.924L756.389 352.464Z" stroke="black" stroke-width="0.630746"/>
<path d="M27.5265 408.531L23.0664 404.07L18.6064 408.531L23.0664 412.991L27.5265 408.531Z" stroke="black" stroke-width="0.630746"/>
<path d="M83.5924 408.531L79.1323 404.07L74.6723 408.531L79.1323 412.991L83.5924 408.531Z" stroke="black" stroke-width="0.630746"/>
<path d="M139.659 408.531L135.199 404.07L130.739 408.531L135.199 412.991L139.659 408.531Z" stroke="black" stroke-width="0.630746"/>
<path d="M195.725 408.531L191.265 404.07L186.805 408.531L191.265 412.991L195.725 408.531Z" stroke="black" stroke-width="0.630746"/>
<path d="M251.792 408.531L247.332 404.07L242.872 408.531L247.332 412.991L251.792 408.531Z" stroke="black" stroke-width="0.630746"/>
<path d="M307.858 408.531L303.397 404.07L298.937 408.531L303.397 412.991L307.858 408.531Z" stroke="black" stroke-width="0.630746"/>
<path d="M363.924 408.531L359.464 404.07L355.004 408.531L359.464 412.991L363.924 408.531Z" stroke="black" stroke-width="0.630746"/>
<path d="M419.991 408.531L415.531 404.07L411.071 408.531L415.531 412.991L419.991 408.531Z" stroke="black" stroke-width="0.630746"/>
<path d="M476.057 408.531L471.597 404.07L467.137 408.531L471.597 412.991L476.057 408.531Z" stroke="black" stroke-width="0.630746"/>
<path d="M532.123 408.531L527.663 404.07L523.203 408.531L527.663 412.991L532.123 408.531Z" fill="#FF4B33"/>
<path d="M588.19 408.531L583.729 404.07L579.269 408.531L583.729 412.991L588.19 408.531Z" stroke="black" stroke-width="0.630746"/>
<path d="M644.256 408.531L639.796 404.07L635.336 408.531L639.796 412.991L644.256 408.531Z" stroke="black" stroke-width="0.630746"/>
<path d="M700.322 408.531L695.862 404.07L691.402 408.531L695.862 412.991L700.322 408.531Z" stroke="black" stroke-width="0.630746"/>
<path d="M756.389 408.531L751.929 404.07L747.469 408.531L751.929 412.991L756.389 408.531Z" stroke="black" stroke-width="0.630746"/>
</g>
</g>
<defs>
<clipPath id="clip0_28_15368">
<rect width="775" height="421" rx="20" fill="white"/>
</clipPath>
<clipPath id="clip1_28_15368">
<rect width="1009.19" height="1009.19" fill="white" transform="translate(-33 -40)"/>
</clipPath>
</defs>
</svg>
