<svg width="775" height="421" viewBox="0 0 775 421" fill="none" xmlns="http://www.w3.org/2000/svg">
<g clip-path="url(#clip0_13_10166)">
<g clip-path="url(#clip1_13_10166)">
<path d="M32.2035 -21.2826C32.2035 -21.7326 31.8387 -22.0974 31.3887 -22.0974C30.9388 -22.0974 30.574 -21.7326 30.574 -21.2826V-0.717737C30.574 -0.267752 30.9388 0.0970325 31.3887 0.0970325C31.8387 0.0970325 32.2035 -0.267752 32.2035 -0.717737V-21.2826Z" fill="#222222"/>
<path d="M76.5927 -21.2826C76.5927 -21.7326 76.2279 -22.0974 75.7779 -22.0974C75.3279 -22.0974 74.9631 -21.7326 74.9631 -21.2826V-0.717737C74.9631 -0.267752 75.3279 0.0970325 75.7779 0.0970325C76.2279 0.0970325 76.5927 -0.267752 76.5927 -0.717737V-21.2826Z" fill="#C0343B" fill-opacity="0.682353"/>
<path d="M120.982 -21.2826C120.982 -21.7326 120.617 -22.0974 120.167 -22.0974C119.717 -22.0974 119.352 -21.7326 119.352 -21.2826V-0.717737C119.352 -0.267752 119.717 0.0970325 120.167 0.0970325C120.617 0.0970325 120.982 -0.267752 120.982 -0.717737V-21.2826Z" fill="#222222"/>
<path d="M165.37 -21.2826C165.37 -21.7326 165.005 -22.0974 164.555 -22.0974C164.105 -22.0974 163.74 -21.7326 163.74 -21.2826V-0.717737C163.74 -0.267752 164.105 0.0970325 164.555 0.0970325C165.005 0.0970325 165.37 -0.267752 165.37 -0.717737V-21.2826Z" fill="#C0343B" fill-opacity="0.682353"/>
<path d="M209.759 -21.2826C209.759 -21.7326 209.395 -22.0974 208.945 -22.0974C208.495 -22.0974 208.13 -21.7326 208.13 -21.2826V-0.717737C208.13 -0.267752 208.495 0.0970325 208.945 0.0970325C209.395 0.0970325 209.759 -0.267752 209.759 -0.717737V-21.2826Z" fill="#222222"/>
<path d="M254.148 -21.2826C254.148 -21.7326 253.784 -22.0974 253.334 -22.0974C252.884 -22.0974 252.519 -21.7326 252.519 -21.2826V-0.717737C252.519 -0.267752 252.884 0.0970325 253.334 0.0970325C253.784 0.0970325 254.148 -0.267752 254.148 -0.717737V-21.2826Z" fill="#C0343B" fill-opacity="0.682353"/>
<path d="M298.537 -21.2826C298.537 -21.7326 298.172 -22.0974 297.722 -22.0974C297.272 -22.0974 296.907 -21.7326 296.907 -21.2826V-0.717737C296.907 -0.267752 297.272 0.0970325 297.722 0.0970325C298.172 0.0970325 298.537 -0.267752 298.537 -0.717737V-21.2826Z" fill="#222222"/>
<path d="M342.926 -21.2826C342.926 -21.7326 342.561 -22.0974 342.111 -22.0974C341.661 -22.0974 341.296 -21.7326 341.296 -21.2826V-0.717737C341.296 -0.267752 341.661 0.0970325 342.111 0.0970325C342.561 0.0970325 342.926 -0.267752 342.926 -0.717737V-21.2826Z" fill="#C0343B" fill-opacity="0.682353"/>
<path d="M387.315 -21.2826C387.315 -21.7326 386.95 -22.0974 386.5 -22.0974C386.05 -22.0974 385.685 -21.7326 385.685 -21.2826V-0.717737C385.685 -0.267752 386.05 0.0970325 386.5 0.0970325C386.95 0.0970325 387.315 -0.267752 387.315 -0.717737V-21.2826Z" fill="#222222"/>
<path d="M431.704 -21.2826C431.704 -21.7326 431.339 -22.0974 430.889 -22.0974C430.439 -22.0974 430.074 -21.7326 430.074 -21.2826V-0.717737C430.074 -0.267752 430.439 0.0970325 430.889 0.0970325C431.339 0.0970325 431.704 -0.267752 431.704 -0.717737V-21.2826Z" fill="#C0343B" fill-opacity="0.682353"/>
<path d="M476.093 -21.2826C476.093 -21.7326 475.728 -22.0974 475.278 -22.0974C474.828 -22.0974 474.463 -21.7326 474.463 -21.2826V-0.717737C474.463 -0.267752 474.828 0.0970325 475.278 0.0970325C475.728 0.0970325 476.093 -0.267752 476.093 -0.717737V-21.2826Z" fill="#222222"/>
<path d="M520.481 -21.2826C520.481 -21.7326 520.117 -22.0974 519.667 -22.0974C519.217 -22.0974 518.852 -21.7326 518.852 -21.2826V-0.717737C518.852 -0.267752 519.217 0.0970325 519.667 0.0970325C520.117 0.0970325 520.481 -0.267752 520.481 -0.717737V-21.2826Z" fill="#C0343B" fill-opacity="0.682353"/>
<path d="M564.87 -21.2826C564.87 -21.7326 564.505 -22.0974 564.055 -22.0974C563.606 -22.0974 563.241 -21.7326 563.241 -21.2826V-0.717737C563.241 -0.267752 563.606 0.0970325 564.055 0.0970325C564.505 0.0970325 564.87 -0.267752 564.87 -0.717737V-21.2826Z" fill="#222222"/>
<path d="M609.259 -21.2826C609.259 -21.7326 608.895 -22.0974 608.445 -22.0974C607.995 -22.0974 607.63 -21.7326 607.63 -21.2826V-0.717737C607.63 -0.267752 607.995 0.0970325 608.445 0.0970325C608.895 0.0970325 609.259 -0.267752 609.259 -0.717737V-21.2826Z" fill="#C0343B" fill-opacity="0.682353"/>
<path d="M653.648 -21.2826C653.648 -21.7326 653.283 -22.0974 652.833 -22.0974C652.383 -22.0974 652.019 -21.7326 652.019 -21.2826V-0.717737C652.019 -0.267752 652.383 0.0970325 652.833 0.0970325C653.283 0.0970325 653.648 -0.267752 653.648 -0.717737V-21.2826Z" fill="#222222"/>
<path d="M698.037 -21.2826C698.037 -21.7326 697.672 -22.0974 697.222 -22.0974C696.772 -22.0974 696.408 -21.7326 696.408 -21.2826V-0.717737C696.408 -0.267752 696.772 0.0970325 697.222 0.0970325C697.672 0.0970325 698.037 -0.267752 698.037 -0.717737V-21.2826Z" fill="#C0343B" fill-opacity="0.682353"/>
<path d="M742.426 -21.2826C742.426 -21.7326 742.061 -22.0974 741.611 -22.0974C741.161 -22.0974 740.796 -21.7326 740.796 -21.2826V-0.717737C740.796 -0.267752 741.161 0.0970325 741.611 0.0970325C742.061 0.0970325 742.426 -0.267752 742.426 -0.717737V-21.2826Z" fill="#222222"/>
<path d="M41.6712 32.574H21.1063C20.6563 32.574 20.2915 32.9388 20.2915 33.3887C20.2915 33.8387 20.6563 34.2035 21.1063 34.2035H41.6712C42.1212 34.2035 42.4859 33.8387 42.4859 33.3887C42.4859 32.9388 42.1212 32.574 41.6712 32.574Z" fill="#C0343B" fill-opacity="0.682353"/>
<path d="M32.2035 23.1063C32.2035 22.6563 31.8387 22.2915 31.3887 22.2915C30.9388 22.2915 30.574 22.6563 30.574 23.1063V43.6712C30.574 44.1212 30.9388 44.4859 31.3887 44.4859C31.8387 44.4859 32.2035 44.1212 32.2035 43.6712V23.1063Z" fill="#C0343B" fill-opacity="0.682353"/>
<path d="M86.0603 32.574H65.4954C65.0454 32.574 64.6807 32.9388 64.6807 33.3887C64.6807 33.8387 65.0454 34.2035 65.4954 34.2035H86.0603C86.5103 34.2035 86.8751 33.8387 86.8751 33.3887C86.8751 32.9388 86.5103 32.574 86.0603 32.574Z" fill="#222222"/>
<path d="M76.5927 23.1063C76.5927 22.6563 76.2279 22.2915 75.7779 22.2915C75.3279 22.2915 74.9631 22.6563 74.9631 23.1063V43.6712C74.9631 44.1212 75.3279 44.4859 75.7779 44.4859C76.2279 44.4859 76.5927 44.1212 76.5927 43.6712V23.1063Z" fill="#222222"/>
<path d="M130.449 32.574H109.884C109.434 32.574 109.069 32.9388 109.069 33.3887C109.069 33.8387 109.434 34.2035 109.884 34.2035H130.449C130.899 34.2035 131.264 33.8387 131.264 33.3887C131.264 32.9388 130.899 32.574 130.449 32.574Z" fill="#C0343B" fill-opacity="0.682353"/>
<path d="M120.982 23.1063C120.982 22.6563 120.617 22.2915 120.167 22.2915C119.717 22.2915 119.352 22.6563 119.352 23.1063V43.6712C119.352 44.1212 119.717 44.4859 120.167 44.4859C120.617 44.4859 120.982 44.1212 120.982 43.6712V23.1063Z" fill="#C0343B" fill-opacity="0.682353"/>
<path d="M174.838 32.574H154.273C153.823 32.574 153.458 32.9388 153.458 33.3887C153.458 33.8387 153.823 34.2035 154.273 34.2035H174.838C175.288 34.2035 175.653 33.8387 175.653 33.3887C175.653 32.9388 175.288 32.574 174.838 32.574Z" fill="#222222"/>
<path d="M165.37 23.1063C165.37 22.6563 165.005 22.2915 164.555 22.2915C164.105 22.2915 163.74 22.6563 163.74 23.1063V43.6712C163.74 44.1212 164.105 44.4859 164.555 44.4859C165.005 44.4859 165.37 44.1212 165.37 43.6712V23.1063Z" fill="#222222"/>
<path d="M219.227 32.574H198.662C198.212 32.574 197.847 32.9388 197.847 33.3887C197.847 33.8387 198.212 34.2035 198.662 34.2035H219.227C219.677 34.2035 220.041 33.8387 220.041 33.3887C220.041 32.9388 219.677 32.574 219.227 32.574Z" fill="#C0343B" fill-opacity="0.682353"/>
<path d="M209.759 23.1063C209.759 22.6563 209.395 22.2915 208.945 22.2915C208.495 22.2915 208.13 22.6563 208.13 23.1063V43.6712C208.13 44.1212 208.495 44.4859 208.945 44.4859C209.395 44.4859 209.759 44.1212 209.759 43.6712V23.1063Z" fill="#C0343B" fill-opacity="0.682353"/>
<path d="M263.616 32.574H243.051C242.601 32.574 242.236 32.9388 242.236 33.3887C242.236 33.8387 242.601 34.2035 243.051 34.2035H263.616C264.066 34.2035 264.431 33.8387 264.431 33.3887C264.431 32.9388 264.066 32.574 263.616 32.574Z" fill="#222222"/>
<path d="M254.148 23.1063C254.148 22.6563 253.784 22.2915 253.334 22.2915C252.884 22.2915 252.519 22.6563 252.519 23.1063V43.6712C252.519 44.1212 252.884 44.4859 253.334 44.4859C253.784 44.4859 254.148 44.1212 254.148 43.6712V23.1063Z" fill="#222222"/>
<path d="M308.005 32.574H287.44C286.99 32.574 286.625 32.9388 286.625 33.3887C286.625 33.8387 286.99 34.2035 287.44 34.2035H308.005C308.455 34.2035 308.819 33.8387 308.819 33.3887C308.819 32.9388 308.455 32.574 308.005 32.574Z" fill="#C0343B" fill-opacity="0.682353"/>
<path d="M298.537 23.1063C298.537 22.6563 298.172 22.2915 297.722 22.2915C297.272 22.2915 296.907 22.6563 296.907 23.1063V43.6712C296.907 44.1212 297.272 44.4859 297.722 44.4859C298.172 44.4859 298.537 44.1212 298.537 43.6712V23.1063Z" fill="#C0343B" fill-opacity="0.682353"/>
<path d="M352.394 32.574H331.829C331.379 32.574 331.014 32.9388 331.014 33.3887C331.014 33.8387 331.379 34.2035 331.829 34.2035H352.394C352.844 34.2035 353.209 33.8387 353.209 33.3887C353.209 32.9388 352.844 32.574 352.394 32.574Z" fill="#222222"/>
<path d="M342.926 23.1063C342.926 22.6563 342.561 22.2915 342.111 22.2915C341.661 22.2915 341.296 22.6563 341.296 23.1063V43.6712C341.296 44.1212 341.661 44.4859 342.111 44.4859C342.561 44.4859 342.926 44.1212 342.926 43.6712V23.1063Z" fill="#222222"/>
<path d="M396.783 32.574H376.218C375.768 32.574 375.403 32.9388 375.403 33.3887C375.403 33.8387 375.768 34.2035 376.218 34.2035H396.783C397.232 34.2035 397.597 33.8387 397.597 33.3887C397.597 32.9388 397.232 32.574 396.783 32.574Z" fill="#C0343B" fill-opacity="0.682353"/>
<path d="M387.315 23.1063C387.315 22.6563 386.95 22.2915 386.5 22.2915C386.05 22.2915 385.685 22.6563 385.685 23.1063V43.6712C385.685 44.1212 386.05 44.4859 386.5 44.4859C386.95 44.4859 387.315 44.1212 387.315 43.6712V23.1063Z" fill="#C0343B" fill-opacity="0.682353"/>
<path d="M441.171 32.574H420.606C420.157 32.574 419.792 32.9388 419.792 33.3887C419.792 33.8387 420.157 34.2035 420.606 34.2035H441.171C441.621 34.2035 441.986 33.8387 441.986 33.3887C441.986 32.9388 441.621 32.574 441.171 32.574Z" fill="#222222"/>
<path d="M431.704 23.1063C431.704 22.6563 431.339 22.2915 430.889 22.2915C430.439 22.2915 430.074 22.6563 430.074 23.1063V43.6712C430.074 44.1212 430.439 44.4859 430.889 44.4859C431.339 44.4859 431.704 44.1212 431.704 43.6712V23.1063Z" fill="#222222"/>
<path d="M485.56 32.574H464.995C464.545 32.574 464.181 32.9388 464.181 33.3887C464.181 33.8387 464.545 34.2035 464.995 34.2035H485.56C486.01 34.2035 486.375 33.8387 486.375 33.3887C486.375 32.9388 486.01 32.574 485.56 32.574Z" fill="#C0343B" fill-opacity="0.682353"/>
<path d="M476.093 23.1063C476.093 22.6563 475.728 22.2915 475.278 22.2915C474.828 22.2915 474.463 22.6563 474.463 23.1063V43.6712C474.463 44.1212 474.828 44.4859 475.278 44.4859C475.728 44.4859 476.093 44.1212 476.093 43.6712V23.1063Z" fill="#C0343B" fill-opacity="0.682353"/>
<path d="M529.949 32.574H509.384C508.934 32.574 508.569 32.9388 508.569 33.3887C508.569 33.8387 508.934 34.2035 509.384 34.2035H529.949C530.399 34.2035 530.764 33.8387 530.764 33.3887C530.764 32.9388 530.399 32.574 529.949 32.574Z" fill="#222222"/>
<path d="M520.481 23.1063C520.481 22.6563 520.117 22.2915 519.667 22.2915C519.217 22.2915 518.852 22.6563 518.852 23.1063V43.6712C518.852 44.1212 519.217 44.4859 519.667 44.4859C520.117 44.4859 520.481 44.1212 520.481 43.6712V23.1063Z" fill="#222222"/>
<path d="M574.338 32.574H553.773C553.323 32.574 552.958 32.9388 552.958 33.3887C552.958 33.8387 553.323 34.2035 553.773 34.2035H574.338C574.788 34.2035 575.153 33.8387 575.153 33.3887C575.153 32.9388 574.788 32.574 574.338 32.574Z" fill="#C0343B" fill-opacity="0.682353"/>
<path d="M564.87 23.1063C564.87 22.6563 564.505 22.2915 564.055 22.2915C563.606 22.2915 563.241 22.6563 563.241 23.1063V43.6712C563.241 44.1212 563.606 44.4859 564.055 44.4859C564.505 44.4859 564.87 44.1212 564.87 43.6712V23.1063Z" fill="#C0343B" fill-opacity="0.682353"/>
<path d="M618.727 32.574H598.162C597.712 32.574 597.347 32.9388 597.347 33.3887C597.347 33.8387 597.712 34.2035 598.162 34.2035H618.727C619.177 34.2035 619.542 33.8387 619.542 33.3887C619.542 32.9388 619.177 32.574 618.727 32.574Z" fill="#222222"/>
<path d="M609.259 23.1063C609.259 22.6563 608.895 22.2915 608.445 22.2915C607.995 22.2915 607.63 22.6563 607.63 23.1063V43.6712C607.63 44.1212 607.995 44.4859 608.445 44.4859C608.895 44.4859 609.259 44.1212 609.259 43.6712V23.1063Z" fill="#222222"/>
<path d="M663.116 32.574H642.551C642.101 32.574 641.736 32.9388 641.736 33.3887C641.736 33.8387 642.101 34.2035 642.551 34.2035H663.116C663.565 34.2035 663.93 33.8387 663.93 33.3887C663.93 32.9388 663.565 32.574 663.116 32.574Z" fill="#C0343B" fill-opacity="0.682353"/>
<path d="M653.648 23.1063C653.648 22.6563 653.283 22.2915 652.833 22.2915C652.383 22.2915 652.019 22.6563 652.019 23.1063V43.6712C652.019 44.1212 652.383 44.4859 652.833 44.4859C653.283 44.4859 653.648 44.1212 653.648 43.6712V23.1063Z" fill="#C0343B" fill-opacity="0.682353"/>
<path d="M707.504 32.574H686.94C686.49 32.574 686.125 32.9388 686.125 33.3887C686.125 33.8387 686.49 34.2035 686.94 34.2035H707.504C707.954 34.2035 708.319 33.8387 708.319 33.3887C708.319 32.9388 707.954 32.574 707.504 32.574Z" fill="#222222"/>
<path d="M698.037 23.1063C698.037 22.6563 697.672 22.2915 697.222 22.2915C696.772 22.2915 696.408 22.6563 696.408 23.1063V43.6712C696.408 44.1212 696.772 44.4859 697.222 44.4859C697.672 44.4859 698.037 44.1212 698.037 43.6712V23.1063Z" fill="#222222"/>
<path d="M751.894 32.574H731.329C730.879 32.574 730.514 32.9388 730.514 33.3887C730.514 33.8387 730.879 34.2035 731.329 34.2035H751.894C752.344 34.2035 752.708 33.8387 752.708 33.3887C752.708 32.9388 752.344 32.574 751.894 32.574Z" fill="#C0343B" fill-opacity="0.682353"/>
<path d="M742.426 23.1063C742.426 22.6563 742.061 22.2915 741.611 22.2915C741.161 22.2915 740.796 22.6563 740.796 23.1063V43.6712C740.796 44.1212 741.161 44.4859 741.611 44.4859C742.061 44.4859 742.426 44.1212 742.426 43.6712V23.1063Z" fill="#C0343B" fill-opacity="0.682353"/>
<path d="M796.283 32.574H775.718C775.268 32.574 774.903 32.9388 774.903 33.3887C774.903 33.8387 775.268 34.2035 775.718 34.2035H796.283C796.732 34.2035 797.097 33.8387 797.097 33.3887C797.097 32.9388 796.732 32.574 796.283 32.574Z" fill="#222222"/>
<path d="M41.6712 76.9631H21.1063C20.6563 76.9631 20.2915 77.3279 20.2915 77.7779C20.2915 78.2279 20.6563 78.5927 21.1063 78.5927H41.6712C42.1212 78.5927 42.4859 78.2279 42.4859 77.7779C42.4859 77.3279 42.1212 76.9631 41.6712 76.9631Z" fill="#222222"/>
<path d="M32.2035 67.4952C32.2035 67.0452 31.8387 66.6804 31.3887 66.6804C30.9388 66.6804 30.574 67.0452 30.574 67.4952V88.0601C30.574 88.5101 30.9388 88.8749 31.3887 88.8749C31.8387 88.8749 32.2035 88.5101 32.2035 88.0601V67.4952Z" fill="#222222"/>
<path d="M86.0603 76.9631H65.4954C65.0454 76.9631 64.6807 77.3279 64.6807 77.7779C64.6807 78.2279 65.0454 78.5927 65.4954 78.5927H86.0603C86.5103 78.5927 86.8751 78.2279 86.8751 77.7779C86.8751 77.3279 86.5103 76.9631 86.0603 76.9631Z" fill="#C0343B" fill-opacity="0.682353"/>
<path d="M76.5927 67.4952C76.5927 67.0452 76.2279 66.6804 75.7779 66.6804C75.3279 66.6804 74.9631 67.0452 74.9631 67.4952V88.0601C74.9631 88.5101 75.3279 88.8749 75.7779 88.8749C76.2279 88.8749 76.5927 88.5101 76.5927 88.0601V67.4952Z" fill="#C0343B" fill-opacity="0.682353"/>
<path d="M130.449 76.9631H109.884C109.434 76.9631 109.069 77.3279 109.069 77.7779C109.069 78.2279 109.434 78.5927 109.884 78.5927H130.449C130.899 78.5927 131.264 78.2279 131.264 77.7779C131.264 77.3279 130.899 76.9631 130.449 76.9631Z" fill="#222222"/>
<path d="M120.982 67.4952C120.982 67.0452 120.617 66.6804 120.167 66.6804C119.717 66.6804 119.352 67.0452 119.352 67.4952V88.0601C119.352 88.5101 119.717 88.8749 120.167 88.8749C120.617 88.8749 120.982 88.5101 120.982 88.0601V67.4952Z" fill="#222222"/>
<path d="M174.838 76.9631H154.273C153.823 76.9631 153.458 77.3279 153.458 77.7779C153.458 78.2279 153.823 78.5927 154.273 78.5927H174.838C175.288 78.5927 175.653 78.2279 175.653 77.7779C175.653 77.3279 175.288 76.9631 174.838 76.9631Z" fill="#C0343B" fill-opacity="0.682353"/>
<path d="M165.37 67.4952C165.37 67.0452 165.005 66.6804 164.555 66.6804C164.105 66.6804 163.74 67.0452 163.74 67.4952V88.0601C163.74 88.5101 164.105 88.8749 164.555 88.8749C165.005 88.8749 165.37 88.5101 165.37 88.0601V67.4952Z" fill="#C0343B" fill-opacity="0.682353"/>
<path d="M219.227 76.9631H198.662C198.212 76.9631 197.847 77.3279 197.847 77.7779C197.847 78.2279 198.212 78.5927 198.662 78.5927H219.227C219.677 78.5927 220.041 78.2279 220.041 77.7779C220.041 77.3279 219.677 76.9631 219.227 76.9631Z" fill="#222222"/>
<path d="M209.759 67.4952C209.759 67.0452 209.395 66.6804 208.945 66.6804C208.495 66.6804 208.13 67.0452 208.13 67.4952V88.0601C208.13 88.5101 208.495 88.8749 208.945 88.8749C209.395 88.8749 209.759 88.5101 209.759 88.0601V67.4952Z" fill="#222222"/>
<path d="M263.616 76.9631H243.051C242.601 76.9631 242.236 77.3279 242.236 77.7779C242.236 78.2279 242.601 78.5927 243.051 78.5927H263.616C264.066 78.5927 264.431 78.2279 264.431 77.7779C264.431 77.3279 264.066 76.9631 263.616 76.9631Z" fill="#C0343B" fill-opacity="0.682353"/>
<path d="M254.148 67.4952C254.148 67.0452 253.784 66.6804 253.334 66.6804C252.884 66.6804 252.519 67.0452 252.519 67.4952V88.0601C252.519 88.5101 252.884 88.8749 253.334 88.8749C253.784 88.8749 254.148 88.5101 254.148 88.0601V67.4952Z" fill="#C0343B" fill-opacity="0.682353"/>
<path d="M308.005 76.9631H287.44C286.99 76.9631 286.625 77.3279 286.625 77.7779C286.625 78.2279 286.99 78.5927 287.44 78.5927H308.005C308.455 78.5927 308.819 78.2279 308.819 77.7779C308.819 77.3279 308.455 76.9631 308.005 76.9631Z" fill="#222222"/>
<path d="M298.537 67.4952C298.537 67.0452 298.172 66.6804 297.722 66.6804C297.272 66.6804 296.907 67.0452 296.907 67.4952V88.0601C296.907 88.5101 297.272 88.8749 297.722 88.8749C298.172 88.8749 298.537 88.5101 298.537 88.0601V67.4952Z" fill="#222222"/>
<path d="M352.394 76.9631H331.829C331.379 76.9631 331.014 77.3279 331.014 77.7779C331.014 78.2279 331.379 78.5927 331.829 78.5927H352.394C352.844 78.5927 353.209 78.2279 353.209 77.7779C353.209 77.3279 352.844 76.9631 352.394 76.9631Z" fill="#C0343B" fill-opacity="0.682353"/>
<path d="M342.926 67.4952C342.926 67.0452 342.561 66.6804 342.111 66.6804C341.661 66.6804 341.296 67.0452 341.296 67.4952V88.0601C341.296 88.5101 341.661 88.8749 342.111 88.8749C342.561 88.8749 342.926 88.5101 342.926 88.0601V67.4952Z" fill="#C0343B" fill-opacity="0.682353"/>
<path d="M396.783 76.9631H376.218C375.768 76.9631 375.403 77.3279 375.403 77.7779C375.403 78.2279 375.768 78.5927 376.218 78.5927H396.783C397.232 78.5927 397.597 78.2279 397.597 77.7779C397.597 77.3279 397.232 76.9631 396.783 76.9631Z" fill="#222222"/>
<path d="M387.315 67.4952C387.315 67.0452 386.95 66.6804 386.5 66.6804C386.05 66.6804 385.685 67.0452 385.685 67.4952V88.0601C385.685 88.5101 386.05 88.8749 386.5 88.8749C386.95 88.8749 387.315 88.5101 387.315 88.0601V67.4952Z" fill="#222222"/>
<path d="M441.171 76.9631H420.606C420.157 76.9631 419.792 77.3279 419.792 77.7779C419.792 78.2279 420.157 78.5927 420.606 78.5927H441.171C441.621 78.5927 441.986 78.2279 441.986 77.7779C441.986 77.3279 441.621 76.9631 441.171 76.9631Z" fill="#C0343B" fill-opacity="0.682353"/>
<path d="M431.704 67.4952C431.704 67.0452 431.339 66.6804 430.889 66.6804C430.439 66.6804 430.074 67.0452 430.074 67.4952V88.0601C430.074 88.5101 430.439 88.8749 430.889 88.8749C431.339 88.8749 431.704 88.5101 431.704 88.0601V67.4952Z" fill="#C0343B" fill-opacity="0.682353"/>
<path d="M485.56 76.9631H464.995C464.545 76.9631 464.181 77.3279 464.181 77.7779C464.181 78.2279 464.545 78.5927 464.995 78.5927H485.56C486.01 78.5927 486.375 78.2279 486.375 77.7779C486.375 77.3279 486.01 76.9631 485.56 76.9631Z" fill="#222222"/>
<path d="M476.093 67.4952C476.093 67.0452 475.728 66.6804 475.278 66.6804C474.828 66.6804 474.463 67.0452 474.463 67.4952V88.0601C474.463 88.5101 474.828 88.8749 475.278 88.8749C475.728 88.8749 476.093 88.5101 476.093 88.0601V67.4952Z" fill="#222222"/>
<path d="M529.949 76.9631H509.384C508.934 76.9631 508.569 77.3279 508.569 77.7779C508.569 78.2279 508.934 78.5927 509.384 78.5927H529.949C530.399 78.5927 530.764 78.2279 530.764 77.7779C530.764 77.3279 530.399 76.9631 529.949 76.9631Z" fill="#C0343B" fill-opacity="0.682353"/>
<path d="M520.481 67.4952C520.481 67.0452 520.117 66.6804 519.667 66.6804C519.217 66.6804 518.852 67.0452 518.852 67.4952V88.0601C518.852 88.5101 519.217 88.8749 519.667 88.8749C520.117 88.8749 520.481 88.5101 520.481 88.0601V67.4952Z" fill="#C0343B" fill-opacity="0.682353"/>
<path d="M574.338 76.9631H553.773C553.323 76.9631 552.958 77.3279 552.958 77.7779C552.958 78.2279 553.323 78.5927 553.773 78.5927H574.338C574.788 78.5927 575.153 78.2279 575.153 77.7779C575.153 77.3279 574.788 76.9631 574.338 76.9631Z" fill="#222222"/>
<path d="M564.87 67.4952C564.87 67.0452 564.505 66.6804 564.055 66.6804C563.606 66.6804 563.241 67.0452 563.241 67.4952V88.0601C563.241 88.5101 563.606 88.8749 564.055 88.8749C564.505 88.8749 564.87 88.5101 564.87 88.0601V67.4952Z" fill="#222222"/>
<path d="M618.727 76.9631H598.162C597.712 76.9631 597.347 77.3279 597.347 77.7779C597.347 78.2279 597.712 78.5927 598.162 78.5927H618.727C619.177 78.5927 619.542 78.2279 619.542 77.7779C619.542 77.3279 619.177 76.9631 618.727 76.9631Z" fill="#C0343B" fill-opacity="0.682353"/>
<path d="M609.259 67.4952C609.259 67.0452 608.895 66.6804 608.445 66.6804C607.995 66.6804 607.63 67.0452 607.63 67.4952V88.0601C607.63 88.5101 607.995 88.8749 608.445 88.8749C608.895 88.8749 609.259 88.5101 609.259 88.0601V67.4952Z" fill="#C0343B" fill-opacity="0.682353"/>
<path d="M663.116 76.9631H642.551C642.101 76.9631 641.736 77.3279 641.736 77.7779C641.736 78.2279 642.101 78.5927 642.551 78.5927H663.116C663.565 78.5927 663.93 78.2279 663.93 77.7779C663.93 77.3279 663.565 76.9631 663.116 76.9631Z" fill="#222222"/>
<path d="M653.648 67.4952C653.648 67.0452 653.283 66.6804 652.833 66.6804C652.383 66.6804 652.019 67.0452 652.019 67.4952V88.0601C652.019 88.5101 652.383 88.8749 652.833 88.8749C653.283 88.8749 653.648 88.5101 653.648 88.0601V67.4952Z" fill="#222222"/>
<path d="M707.504 76.9631H686.94C686.49 76.9631 686.125 77.3279 686.125 77.7779C686.125 78.2279 686.49 78.5927 686.94 78.5927H707.504C707.954 78.5927 708.319 78.2279 708.319 77.7779C708.319 77.3279 707.954 76.9631 707.504 76.9631Z" fill="#C0343B" fill-opacity="0.682353"/>
<path d="M698.037 67.4952C698.037 67.0452 697.672 66.6804 697.222 66.6804C696.772 66.6804 696.408 67.0452 696.408 67.4952V88.0601C696.408 88.5101 696.772 88.8749 697.222 88.8749C697.672 88.8749 698.037 88.5101 698.037 88.0601V67.4952Z" fill="#C0343B" fill-opacity="0.682353"/>
<path d="M751.894 76.9631H731.329C730.879 76.9631 730.514 77.3279 730.514 77.7779C730.514 78.2279 730.879 78.5927 731.329 78.5927H751.894C752.344 78.5927 752.708 78.2279 752.708 77.7779C752.708 77.3279 752.344 76.9631 751.894 76.9631Z" fill="#222222"/>
<path d="M742.426 67.4952C742.426 67.0452 742.061 66.6804 741.611 66.6804C741.161 66.6804 740.796 67.0452 740.796 67.4952V88.0601C740.796 88.5101 741.161 88.8749 741.611 88.8749C742.061 88.8749 742.426 88.5101 742.426 88.0601V67.4952Z" fill="#222222"/>
<path d="M796.283 76.9631H775.718C775.268 76.9631 774.903 77.3279 774.903 77.7779C774.903 78.2279 775.268 78.5927 775.718 78.5927H796.283C796.732 78.5927 797.097 78.2279 797.097 77.7779C797.097 77.3279 796.732 76.9631 796.283 76.9631Z" fill="#C0343B" fill-opacity="0.682353"/>
<path d="M41.6712 121.352H21.1063C20.6563 121.352 20.2915 121.717 20.2915 122.167C20.2915 122.617 20.6563 122.981 21.1063 122.981H41.6712C42.1212 122.981 42.4859 122.617 42.4859 122.167C42.4859 121.717 42.1212 121.352 41.6712 121.352Z" fill="#C0343B" fill-opacity="0.682353"/>
<path d="M32.2035 111.884C32.2035 111.434 31.8387 111.069 31.3887 111.069C30.9388 111.069 30.574 111.434 30.574 111.884V132.449C30.574 132.899 30.9388 133.264 31.3887 133.264C31.8387 133.264 32.2035 132.899 32.2035 132.449V111.884Z" fill="#C0343B" fill-opacity="0.682353"/>
<path d="M86.0603 121.352H65.4954C65.0454 121.352 64.6807 121.717 64.6807 122.167C64.6807 122.617 65.0454 122.981 65.4954 122.981H86.0603C86.5103 122.981 86.8751 122.617 86.8751 122.167C86.8751 121.717 86.5103 121.352 86.0603 121.352Z" fill="#222222"/>
<path d="M76.5927 111.884C76.5927 111.434 76.2279 111.069 75.7779 111.069C75.3279 111.069 74.9631 111.434 74.9631 111.884V132.449C74.9631 132.899 75.3279 133.264 75.7779 133.264C76.2279 133.264 76.5927 132.899 76.5927 132.449V111.884Z" fill="#222222"/>
<path d="M130.449 121.352H109.884C109.434 121.352 109.069 121.717 109.069 122.167C109.069 122.617 109.434 122.981 109.884 122.981H130.449C130.899 122.981 131.264 122.617 131.264 122.167C131.264 121.717 130.899 121.352 130.449 121.352Z" fill="#C0343B" fill-opacity="0.682353"/>
<path d="M120.982 111.884C120.982 111.434 120.617 111.069 120.167 111.069C119.717 111.069 119.352 111.434 119.352 111.884V132.449C119.352 132.899 119.717 133.264 120.167 133.264C120.617 133.264 120.982 132.899 120.982 132.449V111.884Z" fill="#C0343B" fill-opacity="0.682353"/>
<path d="M174.838 121.352H154.273C153.823 121.352 153.458 121.717 153.458 122.167C153.458 122.617 153.823 122.981 154.273 122.981H174.838C175.288 122.981 175.653 122.617 175.653 122.167C175.653 121.717 175.288 121.352 174.838 121.352Z" fill="#222222"/>
<path d="M165.37 111.884C165.37 111.434 165.005 111.069 164.555 111.069C164.105 111.069 163.74 111.434 163.74 111.884V132.449C163.74 132.899 164.105 133.264 164.555 133.264C165.005 133.264 165.37 132.899 165.37 132.449V111.884Z" fill="#222222"/>
<path d="M219.227 121.352H198.662C198.212 121.352 197.847 121.717 197.847 122.167C197.847 122.617 198.212 122.981 198.662 122.981H219.227C219.677 122.981 220.041 122.617 220.041 122.167C220.041 121.717 219.677 121.352 219.227 121.352Z" fill="#C0343B" fill-opacity="0.682353"/>
<path d="M209.759 111.884C209.759 111.434 209.395 111.069 208.945 111.069C208.495 111.069 208.13 111.434 208.13 111.884V132.449C208.13 132.899 208.495 133.264 208.945 133.264C209.395 133.264 209.759 132.899 209.759 132.449V111.884Z" fill="#C0343B" fill-opacity="0.682353"/>
<path d="M263.616 121.352H243.051C242.601 121.352 242.236 121.717 242.236 122.167C242.236 122.617 242.601 122.981 243.051 122.981H263.616C264.066 122.981 264.431 122.617 264.431 122.167C264.431 121.717 264.066 121.352 263.616 121.352Z" fill="#222222"/>
<path d="M254.148 111.884C254.148 111.434 253.784 111.069 253.334 111.069C252.884 111.069 252.519 111.434 252.519 111.884V132.449C252.519 132.899 252.884 133.264 253.334 133.264C253.784 133.264 254.148 132.899 254.148 132.449V111.884Z" fill="#222222"/>
<path d="M308.005 121.352H287.44C286.99 121.352 286.625 121.717 286.625 122.167C286.625 122.617 286.99 122.981 287.44 122.981H308.005C308.455 122.981 308.819 122.617 308.819 122.167C308.819 121.717 308.455 121.352 308.005 121.352Z" fill="#C0343B" fill-opacity="0.682353"/>
<path d="M298.537 111.884C298.537 111.434 298.172 111.069 297.722 111.069C297.272 111.069 296.907 111.434 296.907 111.884V132.449C296.907 132.899 297.272 133.264 297.722 133.264C298.172 133.264 298.537 132.899 298.537 132.449V111.884Z" fill="#C0343B" fill-opacity="0.682353"/>
<path d="M352.394 121.352H331.829C331.379 121.352 331.014 121.717 331.014 122.167C331.014 122.617 331.379 122.981 331.829 122.981H352.394C352.844 122.981 353.209 122.617 353.209 122.167C353.209 121.717 352.844 121.352 352.394 121.352Z" fill="#222222"/>
<path d="M342.926 111.884C342.926 111.434 342.561 111.069 342.111 111.069C341.661 111.069 341.296 111.434 341.296 111.884V132.449C341.296 132.899 341.661 133.264 342.111 133.264C342.561 133.264 342.926 132.899 342.926 132.449V111.884Z" fill="#222222"/>
<path d="M396.783 121.352H376.218C375.768 121.352 375.403 121.717 375.403 122.167C375.403 122.617 375.768 122.981 376.218 122.981H396.783C397.232 122.981 397.597 122.617 397.597 122.167C397.597 121.717 397.232 121.352 396.783 121.352Z" fill="#C0343B" fill-opacity="0.682353"/>
<path d="M387.315 111.884C387.315 111.434 386.95 111.069 386.5 111.069C386.05 111.069 385.685 111.434 385.685 111.884V132.449C385.685 132.899 386.05 133.264 386.5 133.264C386.95 133.264 387.315 132.899 387.315 132.449V111.884Z" fill="#C0343B" fill-opacity="0.682353"/>
<path d="M441.171 121.352H420.606C420.157 121.352 419.792 121.717 419.792 122.167C419.792 122.617 420.157 122.981 420.606 122.981H441.171C441.621 122.981 441.986 122.617 441.986 122.167C441.986 121.717 441.621 121.352 441.171 121.352Z" fill="#222222"/>
<path d="M431.704 111.884C431.704 111.434 431.339 111.069 430.889 111.069C430.439 111.069 430.074 111.434 430.074 111.884V132.449C430.074 132.899 430.439 133.264 430.889 133.264C431.339 133.264 431.704 132.899 431.704 132.449V111.884Z" fill="#222222"/>
<path d="M485.56 121.352H464.995C464.545 121.352 464.181 121.717 464.181 122.167C464.181 122.617 464.545 122.981 464.995 122.981H485.56C486.01 122.981 486.375 122.617 486.375 122.167C486.375 121.717 486.01 121.352 485.56 121.352Z" fill="#C0343B" fill-opacity="0.682353"/>
<path d="M476.093 111.884C476.093 111.434 475.728 111.069 475.278 111.069C474.828 111.069 474.463 111.434 474.463 111.884V132.449C474.463 132.899 474.828 133.264 475.278 133.264C475.728 133.264 476.093 132.899 476.093 132.449V111.884Z" fill="#C0343B" fill-opacity="0.682353"/>
<path d="M529.949 121.352H509.384C508.934 121.352 508.569 121.717 508.569 122.167C508.569 122.617 508.934 122.981 509.384 122.981H529.949C530.399 122.981 530.764 122.617 530.764 122.167C530.764 121.717 530.399 121.352 529.949 121.352Z" fill="#222222"/>
<path d="M520.481 111.884C520.481 111.434 520.117 111.069 519.667 111.069C519.217 111.069 518.852 111.434 518.852 111.884V132.449C518.852 132.899 519.217 133.264 519.667 133.264C520.117 133.264 520.481 132.899 520.481 132.449V111.884Z" fill="#222222"/>
<path d="M574.338 121.352H553.773C553.323 121.352 552.958 121.717 552.958 122.167C552.958 122.617 553.323 122.981 553.773 122.981H574.338C574.788 122.981 575.153 122.617 575.153 122.167C575.153 121.717 574.788 121.352 574.338 121.352Z" fill="#C0343B" fill-opacity="0.682353"/>
<path d="M564.87 111.884C564.87 111.434 564.505 111.069 564.055 111.069C563.606 111.069 563.241 111.434 563.241 111.884V132.449C563.241 132.899 563.606 133.264 564.055 133.264C564.505 133.264 564.87 132.899 564.87 132.449V111.884Z" fill="#C0343B" fill-opacity="0.682353"/>
<path d="M618.727 121.352H598.162C597.712 121.352 597.347 121.717 597.347 122.167C597.347 122.617 597.712 122.981 598.162 122.981H618.727C619.177 122.981 619.542 122.617 619.542 122.167C619.542 121.717 619.177 121.352 618.727 121.352Z" fill="#222222"/>
<path d="M609.259 111.884C609.259 111.434 608.895 111.069 608.445 111.069C607.995 111.069 607.63 111.434 607.63 111.884V132.449C607.63 132.899 607.995 133.264 608.445 133.264C608.895 133.264 609.259 132.899 609.259 132.449V111.884Z" fill="#222222"/>
<path d="M663.116 121.352H642.551C642.101 121.352 641.736 121.717 641.736 122.167C641.736 122.617 642.101 122.981 642.551 122.981H663.116C663.565 122.981 663.93 122.617 663.93 122.167C663.93 121.717 663.565 121.352 663.116 121.352Z" fill="#C0343B" fill-opacity="0.682353"/>
<path d="M653.648 111.884C653.648 111.434 653.283 111.069 652.833 111.069C652.383 111.069 652.019 111.434 652.019 111.884V132.449C652.019 132.899 652.383 133.264 652.833 133.264C653.283 133.264 653.648 132.899 653.648 132.449V111.884Z" fill="#C0343B" fill-opacity="0.682353"/>
<path d="M707.504 121.352H686.94C686.49 121.352 686.125 121.717 686.125 122.167C686.125 122.617 686.49 122.981 686.94 122.981H707.504C707.954 122.981 708.319 122.617 708.319 122.167C708.319 121.717 707.954 121.352 707.504 121.352Z" fill="#222222"/>
<path d="M698.037 111.884C698.037 111.434 697.672 111.069 697.222 111.069C696.772 111.069 696.408 111.434 696.408 111.884V132.449C696.408 132.899 696.772 133.264 697.222 133.264C697.672 133.264 698.037 132.899 698.037 132.449V111.884Z" fill="#222222"/>
<path d="M751.894 121.352H731.329C730.879 121.352 730.514 121.717 730.514 122.167C730.514 122.617 730.879 122.981 731.329 122.981H751.894C752.344 122.981 752.708 122.617 752.708 122.167C752.708 121.717 752.344 121.352 751.894 121.352Z" fill="#C0343B" fill-opacity="0.682353"/>
<path d="M742.426 111.884C742.426 111.434 742.061 111.069 741.611 111.069C741.161 111.069 740.796 111.434 740.796 111.884V132.449C740.796 132.899 741.161 133.264 741.611 133.264C742.061 133.264 742.426 132.899 742.426 132.449V111.884Z" fill="#C0343B" fill-opacity="0.682353"/>
<path d="M796.283 121.352H775.718C775.268 121.352 774.903 121.717 774.903 122.167C774.903 122.617 775.268 122.981 775.718 122.981H796.283C796.732 122.981 797.097 122.617 797.097 122.167C797.097 121.717 796.732 121.352 796.283 121.352Z" fill="#222222"/>
<path d="M41.6712 165.74H21.1063C20.6563 165.74 20.2915 166.105 20.2915 166.555C20.2915 167.005 20.6563 167.37 21.1063 167.37H41.6712C42.1212 167.37 42.4859 167.005 42.4859 166.555C42.4859 166.105 42.1212 165.74 41.6712 165.74Z" fill="#222222"/>
<path d="M32.2035 156.273C32.2035 155.823 31.8387 155.458 31.3887 155.458C30.9388 155.458 30.574 155.823 30.574 156.273V176.838C30.574 177.288 30.9388 177.653 31.3887 177.653C31.8387 177.653 32.2035 177.288 32.2035 176.838V156.273Z" fill="#222222"/>
<path d="M86.0603 165.74H65.4954C65.0454 165.74 64.6807 166.105 64.6807 166.555C64.6807 167.005 65.0454 167.37 65.4954 167.37H86.0603C86.5103 167.37 86.8751 167.005 86.8751 166.555C86.8751 166.105 86.5103 165.74 86.0603 165.74Z" fill="#C0343B" fill-opacity="0.682353"/>
<path d="M76.5927 156.273C76.5927 155.823 76.2279 155.458 75.7779 155.458C75.3279 155.458 74.9631 155.823 74.9631 156.273V176.838C74.9631 177.288 75.3279 177.653 75.7779 177.653C76.2279 177.653 76.5927 177.288 76.5927 176.838V156.273Z" fill="#C0343B" fill-opacity="0.682353"/>
<path d="M130.449 165.74H109.884C109.434 165.74 109.069 166.105 109.069 166.555C109.069 167.005 109.434 167.37 109.884 167.37H130.449C130.899 167.37 131.264 167.005 131.264 166.555C131.264 166.105 130.899 165.74 130.449 165.74Z" fill="#222222"/>
<path d="M120.982 156.273C120.982 155.823 120.617 155.458 120.167 155.458C119.717 155.458 119.352 155.823 119.352 156.273V176.838C119.352 177.288 119.717 177.653 120.167 177.653C120.617 177.653 120.982 177.288 120.982 176.838V156.273Z" fill="#222222"/>
<path d="M174.838 165.74H154.273C153.823 165.74 153.458 166.105 153.458 166.555C153.458 167.005 153.823 167.37 154.273 167.37H174.838C175.288 167.37 175.653 167.005 175.653 166.555C175.653 166.105 175.288 165.74 174.838 165.74Z" fill="#C0343B" fill-opacity="0.682353"/>
<path d="M165.37 156.273C165.37 155.823 165.005 155.458 164.555 155.458C164.105 155.458 163.74 155.823 163.74 156.273V176.838C163.74 177.288 164.105 177.653 164.555 177.653C165.005 177.653 165.37 177.288 165.37 176.838V156.273Z" fill="#C0343B" fill-opacity="0.682353"/>
<path d="M219.227 165.74H198.662C198.212 165.74 197.847 166.105 197.847 166.555C197.847 167.005 198.212 167.37 198.662 167.37H219.227C219.677 167.37 220.041 167.005 220.041 166.555C220.041 166.105 219.677 165.74 219.227 165.74Z" fill="#222222"/>
<path d="M209.759 156.273C209.759 155.823 209.395 155.458 208.945 155.458C208.495 155.458 208.13 155.823 208.13 156.273V176.838C208.13 177.288 208.495 177.653 208.945 177.653C209.395 177.653 209.759 177.288 209.759 176.838V156.273Z" fill="#222222"/>
<path d="M263.616 165.74H243.051C242.601 165.74 242.236 166.105 242.236 166.555C242.236 167.005 242.601 167.37 243.051 167.37H263.616C264.066 167.37 264.431 167.005 264.431 166.555C264.431 166.105 264.066 165.74 263.616 165.74Z" fill="#C0343B" fill-opacity="0.682353"/>
<path d="M254.148 156.273C254.148 155.823 253.784 155.458 253.334 155.458C252.884 155.458 252.519 155.823 252.519 156.273V176.838C252.519 177.288 252.884 177.653 253.334 177.653C253.784 177.653 254.148 177.288 254.148 176.838V156.273Z" fill="#C0343B" fill-opacity="0.682353"/>
<path d="M308.005 165.74H287.44C286.99 165.74 286.625 166.105 286.625 166.555C286.625 167.005 286.99 167.37 287.44 167.37H308.005C308.455 167.37 308.819 167.005 308.819 166.555C308.819 166.105 308.455 165.74 308.005 165.74Z" fill="#222222"/>
<path d="M298.537 156.273C298.537 155.823 298.172 155.458 297.722 155.458C297.272 155.458 296.907 155.823 296.907 156.273V176.838C296.907 177.288 297.272 177.653 297.722 177.653C298.172 177.653 298.537 177.288 298.537 176.838V156.273Z" fill="#222222"/>
<path d="M352.394 165.74H331.829C331.379 165.74 331.014 166.105 331.014 166.555C331.014 167.005 331.379 167.37 331.829 167.37H352.394C352.844 167.37 353.209 167.005 353.209 166.555C353.209 166.105 352.844 165.74 352.394 165.74Z" fill="#C0343B" fill-opacity="0.682353"/>
<path d="M342.926 156.273C342.926 155.823 342.561 155.458 342.111 155.458C341.661 155.458 341.296 155.823 341.296 156.273V176.838C341.296 177.288 341.661 177.653 342.111 177.653C342.561 177.653 342.926 177.288 342.926 176.838V156.273Z" fill="#C0343B" fill-opacity="0.682353"/>
<path d="M396.783 165.74H376.218C375.768 165.74 375.403 166.105 375.403 166.555C375.403 167.005 375.768 167.37 376.218 167.37H396.783C397.232 167.37 397.597 167.005 397.597 166.555C397.597 166.105 397.232 165.74 396.783 165.74Z" fill="#222222"/>
<path d="M387.315 156.273C387.315 155.823 386.95 155.458 386.5 155.458C386.05 155.458 385.685 155.823 385.685 156.273V176.838C385.685 177.288 386.05 177.653 386.5 177.653C386.95 177.653 387.315 177.288 387.315 176.838V156.273Z" fill="#222222"/>
<path d="M441.171 165.74H420.606C420.157 165.74 419.792 166.105 419.792 166.555C419.792 167.005 420.157 167.37 420.606 167.37H441.171C441.621 167.37 441.986 167.005 441.986 166.555C441.986 166.105 441.621 165.74 441.171 165.74Z" fill="#C0343B" fill-opacity="0.682353"/>
<path d="M431.704 156.273C431.704 155.823 431.339 155.458 430.889 155.458C430.439 155.458 430.074 155.823 430.074 156.273V176.838C430.074 177.288 430.439 177.653 430.889 177.653C431.339 177.653 431.704 177.288 431.704 176.838V156.273Z" fill="#C0343B" fill-opacity="0.682353"/>
<path d="M485.56 165.74H464.995C464.545 165.74 464.181 166.105 464.181 166.555C464.181 167.005 464.545 167.37 464.995 167.37H485.56C486.01 167.37 486.375 167.005 486.375 166.555C486.375 166.105 486.01 165.74 485.56 165.74Z" fill="#222222"/>
<path d="M476.093 156.273C476.093 155.823 475.728 155.458 475.278 155.458C474.828 155.458 474.463 155.823 474.463 156.273V176.838C474.463 177.288 474.828 177.653 475.278 177.653C475.728 177.653 476.093 177.288 476.093 176.838V156.273Z" fill="#222222"/>
<path d="M529.949 165.74H509.384C508.934 165.74 508.569 166.105 508.569 166.555C508.569 167.005 508.934 167.37 509.384 167.37H529.949C530.399 167.37 530.764 167.005 530.764 166.555C530.764 166.105 530.399 165.74 529.949 165.74Z" fill="#C0343B" fill-opacity="0.682353"/>
<path d="M520.481 156.273C520.481 155.823 520.117 155.458 519.667 155.458C519.217 155.458 518.852 155.823 518.852 156.273V176.838C518.852 177.288 519.217 177.653 519.667 177.653C520.117 177.653 520.481 177.288 520.481 176.838V156.273Z" fill="#C0343B" fill-opacity="0.682353"/>
<path d="M574.338 165.74H553.773C553.323 165.74 552.958 166.105 552.958 166.555C552.958 167.005 553.323 167.37 553.773 167.37H574.338C574.788 167.37 575.153 167.005 575.153 166.555C575.153 166.105 574.788 165.74 574.338 165.74Z" fill="#222222"/>
<path d="M564.87 156.273C564.87 155.823 564.505 155.458 564.055 155.458C563.606 155.458 563.241 155.823 563.241 156.273V176.838C563.241 177.288 563.606 177.653 564.055 177.653C564.505 177.653 564.87 177.288 564.87 176.838V156.273Z" fill="#222222"/>
<path d="M618.727 165.74H598.162C597.712 165.74 597.347 166.105 597.347 166.555C597.347 167.005 597.712 167.37 598.162 167.37H618.727C619.177 167.37 619.542 167.005 619.542 166.555C619.542 166.105 619.177 165.74 618.727 165.74Z" fill="#C0343B" fill-opacity="0.682353"/>
<path d="M609.259 156.273C609.259 155.823 608.895 155.458 608.445 155.458C607.995 155.458 607.63 155.823 607.63 156.273V176.838C607.63 177.288 607.995 177.653 608.445 177.653C608.895 177.653 609.259 177.288 609.259 176.838V156.273Z" fill="#C0343B" fill-opacity="0.682353"/>
<path d="M663.116 165.74H642.551C642.101 165.74 641.736 166.105 641.736 166.555C641.736 167.005 642.101 167.37 642.551 167.37H663.116C663.565 167.37 663.93 167.005 663.93 166.555C663.93 166.105 663.565 165.74 663.116 165.74Z" fill="#222222"/>
<path d="M653.648 156.273C653.648 155.823 653.283 155.458 652.833 155.458C652.383 155.458 652.019 155.823 652.019 156.273V176.838C652.019 177.288 652.383 177.653 652.833 177.653C653.283 177.653 653.648 177.288 653.648 176.838V156.273Z" fill="#222222"/>
<path d="M707.504 165.74H686.94C686.49 165.74 686.125 166.105 686.125 166.555C686.125 167.005 686.49 167.37 686.94 167.37H707.504C707.954 167.37 708.319 167.005 708.319 166.555C708.319 166.105 707.954 165.74 707.504 165.74Z" fill="#C0343B" fill-opacity="0.682353"/>
<path d="M698.037 156.273C698.037 155.823 697.672 155.458 697.222 155.458C696.772 155.458 696.408 155.823 696.408 156.273V176.838C696.408 177.288 696.772 177.653 697.222 177.653C697.672 177.653 698.037 177.288 698.037 176.838V156.273Z" fill="#C0343B" fill-opacity="0.682353"/>
<path d="M751.894 165.74H731.329C730.879 165.74 730.514 166.105 730.514 166.555C730.514 167.005 730.879 167.37 731.329 167.37H751.894C752.344 167.37 752.708 167.005 752.708 166.555C752.708 166.105 752.344 165.74 751.894 165.74Z" fill="#222222"/>
<path d="M742.426 156.273C742.426 155.823 742.061 155.458 741.611 155.458C741.161 155.458 740.796 155.823 740.796 156.273V176.838C740.796 177.288 741.161 177.653 741.611 177.653C742.061 177.653 742.426 177.288 742.426 176.838V156.273Z" fill="#222222"/>
<path d="M796.283 165.74H775.718C775.268 165.74 774.903 166.105 774.903 166.555C774.903 167.005 775.268 167.37 775.718 167.37H796.283C796.732 167.37 797.097 167.005 797.097 166.555C797.097 166.105 796.732 165.74 796.283 165.74Z" fill="#C0343B" fill-opacity="0.682353"/>
<path d="M41.6712 210.129H21.1063C20.6563 210.129 20.2915 210.494 20.2915 210.944C20.2915 211.394 20.6563 211.759 21.1063 211.759H41.6712C42.1212 211.759 42.4859 211.394 42.4859 210.944C42.4859 210.494 42.1212 210.129 41.6712 210.129Z" fill="#C0343B" fill-opacity="0.682353"/>
<path d="M32.2035 200.662C32.2035 200.212 31.8387 199.847 31.3887 199.847C30.9388 199.847 30.574 200.212 30.574 200.662V221.227C30.574 221.677 30.9388 222.041 31.3887 222.041C31.8387 222.041 32.2035 221.677 32.2035 221.227V200.662Z" fill="#C0343B" fill-opacity="0.682353"/>
<path d="M86.0603 210.129H65.4954C65.0454 210.129 64.6807 210.494 64.6807 210.944C64.6807 211.394 65.0454 211.759 65.4954 211.759H86.0603C86.5103 211.759 86.8751 211.394 86.8751 210.944C86.8751 210.494 86.5103 210.129 86.0603 210.129Z" fill="#222222"/>
<path d="M76.5927 200.662C76.5927 200.212 76.2279 199.847 75.7779 199.847C75.3279 199.847 74.9631 200.212 74.9631 200.662V221.227C74.9631 221.677 75.3279 222.041 75.7779 222.041C76.2279 222.041 76.5927 221.677 76.5927 221.227V200.662Z" fill="#222222"/>
<path d="M130.449 210.129H109.884C109.434 210.129 109.069 210.494 109.069 210.944C109.069 211.394 109.434 211.759 109.884 211.759H130.449C130.899 211.759 131.264 211.394 131.264 210.944C131.264 210.494 130.899 210.129 130.449 210.129Z" fill="#C0343B" fill-opacity="0.682353"/>
<path d="M120.982 200.662C120.982 200.212 120.617 199.847 120.167 199.847C119.717 199.847 119.352 200.212 119.352 200.662V221.227C119.352 221.677 119.717 222.041 120.167 222.041C120.617 222.041 120.982 221.677 120.982 221.227V200.662Z" fill="#C0343B" fill-opacity="0.682353"/>
<path d="M174.838 210.129H154.273C153.823 210.129 153.458 210.494 153.458 210.944C153.458 211.394 153.823 211.759 154.273 211.759H174.838C175.288 211.759 175.653 211.394 175.653 210.944C175.653 210.494 175.288 210.129 174.838 210.129Z" fill="#222222"/>
<path d="M165.37 200.662C165.37 200.212 165.005 199.847 164.555 199.847C164.105 199.847 163.74 200.212 163.74 200.662V221.227C163.74 221.677 164.105 222.041 164.555 222.041C165.005 222.041 165.37 221.677 165.37 221.227V200.662Z" fill="#222222"/>
<path d="M219.227 210.129H198.662C198.212 210.129 197.847 210.494 197.847 210.944C197.847 211.394 198.212 211.759 198.662 211.759H219.227C219.677 211.759 220.041 211.394 220.041 210.944C220.041 210.494 219.677 210.129 219.227 210.129Z" fill="#C0343B" fill-opacity="0.682353"/>
<path d="M209.759 200.662C209.759 200.212 209.395 199.847 208.945 199.847C208.495 199.847 208.13 200.212 208.13 200.662V221.227C208.13 221.677 208.495 222.041 208.945 222.041C209.395 222.041 209.759 221.677 209.759 221.227V200.662Z" fill="#C0343B" fill-opacity="0.682353"/>
<path d="M263.616 210.129H243.051C242.601 210.129 242.236 210.494 242.236 210.944C242.236 211.394 242.601 211.759 243.051 211.759H263.616C264.066 211.759 264.431 211.394 264.431 210.944C264.431 210.494 264.066 210.129 263.616 210.129Z" fill="#222222"/>
<path d="M254.148 200.662C254.148 200.212 253.784 199.847 253.334 199.847C252.884 199.847 252.519 200.212 252.519 200.662V221.227C252.519 221.677 252.884 222.041 253.334 222.041C253.784 222.041 254.148 221.677 254.148 221.227V200.662Z" fill="#222222"/>
<path d="M308.005 210.129H287.44C286.99 210.129 286.625 210.494 286.625 210.944C286.625 211.394 286.99 211.759 287.44 211.759H308.005C308.455 211.759 308.819 211.394 308.819 210.944C308.819 210.494 308.455 210.129 308.005 210.129Z" fill="#C0343B" fill-opacity="0.682353"/>
<path d="M298.537 200.662C298.537 200.212 298.172 199.847 297.722 199.847C297.272 199.847 296.907 200.212 296.907 200.662V221.227C296.907 221.677 297.272 222.041 297.722 222.041C298.172 222.041 298.537 221.677 298.537 221.227V200.662Z" fill="#C0343B" fill-opacity="0.682353"/>
<path d="M352.394 210.129H331.829C331.379 210.129 331.014 210.494 331.014 210.944C331.014 211.394 331.379 211.759 331.829 211.759H352.394C352.844 211.759 353.209 211.394 353.209 210.944C353.209 210.494 352.844 210.129 352.394 210.129Z" fill="#222222"/>
<path d="M342.926 200.662C342.926 200.212 342.561 199.847 342.111 199.847C341.661 199.847 341.296 200.212 341.296 200.662V221.227C341.296 221.677 341.661 222.041 342.111 222.041C342.561 222.041 342.926 221.677 342.926 221.227V200.662Z" fill="#222222"/>
<path d="M396.783 210.129H376.218C375.768 210.129 375.403 210.494 375.403 210.944C375.403 211.394 375.768 211.759 376.218 211.759H396.783C397.232 211.759 397.597 211.394 397.597 210.944C397.597 210.494 397.232 210.129 396.783 210.129Z" fill="#C0343B" fill-opacity="0.682353"/>
<path d="M387.315 200.662C387.315 200.212 386.95 199.847 386.5 199.847C386.05 199.847 385.685 200.212 385.685 200.662V221.227C385.685 221.677 386.05 222.041 386.5 222.041C386.95 222.041 387.315 221.677 387.315 221.227V200.662Z" fill="#C0343B" fill-opacity="0.682353"/>
<path d="M441.171 210.129H420.606C420.157 210.129 419.792 210.494 419.792 210.944C419.792 211.394 420.157 211.759 420.606 211.759H441.171C441.621 211.759 441.986 211.394 441.986 210.944C441.986 210.494 441.621 210.129 441.171 210.129Z" fill="#222222"/>
<path d="M431.704 200.662C431.704 200.212 431.339 199.847 430.889 199.847C430.439 199.847 430.074 200.212 430.074 200.662V221.227C430.074 221.677 430.439 222.041 430.889 222.041C431.339 222.041 431.704 221.677 431.704 221.227V200.662Z" fill="#222222"/>
<path d="M485.56 210.129H464.995C464.545 210.129 464.181 210.494 464.181 210.944C464.181 211.394 464.545 211.759 464.995 211.759H485.56C486.01 211.759 486.375 211.394 486.375 210.944C486.375 210.494 486.01 210.129 485.56 210.129Z" fill="#C0343B" fill-opacity="0.682353"/>
<path d="M476.093 200.662C476.093 200.212 475.728 199.847 475.278 199.847C474.828 199.847 474.463 200.212 474.463 200.662V221.227C474.463 221.677 474.828 222.041 475.278 222.041C475.728 222.041 476.093 221.677 476.093 221.227V200.662Z" fill="#C0343B" fill-opacity="0.682353"/>
<path d="M529.949 210.129H509.384C508.934 210.129 508.569 210.494 508.569 210.944C508.569 211.394 508.934 211.759 509.384 211.759H529.949C530.399 211.759 530.764 211.394 530.764 210.944C530.764 210.494 530.399 210.129 529.949 210.129Z" fill="#222222"/>
<path d="M520.481 200.662C520.481 200.212 520.117 199.847 519.667 199.847C519.217 199.847 518.852 200.212 518.852 200.662V221.227C518.852 221.677 519.217 222.041 519.667 222.041C520.117 222.041 520.481 221.677 520.481 221.227V200.662Z" fill="#222222"/>
<path d="M574.338 210.129H553.773C553.323 210.129 552.958 210.494 552.958 210.944C552.958 211.394 553.323 211.759 553.773 211.759H574.338C574.788 211.759 575.153 211.394 575.153 210.944C575.153 210.494 574.788 210.129 574.338 210.129Z" fill="#C0343B" fill-opacity="0.682353"/>
<path d="M564.87 200.662C564.87 200.212 564.505 199.847 564.055 199.847C563.606 199.847 563.241 200.212 563.241 200.662V221.227C563.241 221.677 563.606 222.041 564.055 222.041C564.505 222.041 564.87 221.677 564.87 221.227V200.662Z" fill="#C0343B" fill-opacity="0.682353"/>
<path d="M618.727 210.129H598.162C597.712 210.129 597.347 210.494 597.347 210.944C597.347 211.394 597.712 211.759 598.162 211.759H618.727C619.177 211.759 619.542 211.394 619.542 210.944C619.542 210.494 619.177 210.129 618.727 210.129Z" fill="#222222"/>
<path d="M609.259 200.662C609.259 200.212 608.895 199.847 608.445 199.847C607.995 199.847 607.63 200.212 607.63 200.662V221.227C607.63 221.677 607.995 222.041 608.445 222.041C608.895 222.041 609.259 221.677 609.259 221.227V200.662Z" fill="#222222"/>
<path d="M663.116 210.129H642.551C642.101 210.129 641.736 210.494 641.736 210.944C641.736 211.394 642.101 211.759 642.551 211.759H663.116C663.565 211.759 663.93 211.394 663.93 210.944C663.93 210.494 663.565 210.129 663.116 210.129Z" fill="#C0343B" fill-opacity="0.682353"/>
<path d="M653.648 200.662C653.648 200.212 653.283 199.847 652.833 199.847C652.383 199.847 652.019 200.212 652.019 200.662V221.227C652.019 221.677 652.383 222.041 652.833 222.041C653.283 222.041 653.648 221.677 653.648 221.227V200.662Z" fill="#C0343B" fill-opacity="0.682353"/>
<path d="M707.504 210.129H686.94C686.49 210.129 686.125 210.494 686.125 210.944C686.125 211.394 686.49 211.759 686.94 211.759H707.504C707.954 211.759 708.319 211.394 708.319 210.944C708.319 210.494 707.954 210.129 707.504 210.129Z" fill="#222222"/>
<path d="M698.037 200.662C698.037 200.212 697.672 199.847 697.222 199.847C696.772 199.847 696.408 200.212 696.408 200.662V221.227C696.408 221.677 696.772 222.041 697.222 222.041C697.672 222.041 698.037 221.677 698.037 221.227V200.662Z" fill="#222222"/>
<path d="M751.894 210.129H731.329C730.879 210.129 730.514 210.494 730.514 210.944C730.514 211.394 730.879 211.759 731.329 211.759H751.894C752.344 211.759 752.708 211.394 752.708 210.944C752.708 210.494 752.344 210.129 751.894 210.129Z" fill="#C0343B" fill-opacity="0.682353"/>
<path d="M742.426 200.662C742.426 200.212 742.061 199.847 741.611 199.847C741.161 199.847 740.796 200.212 740.796 200.662V221.227C740.796 221.677 741.161 222.041 741.611 222.041C742.061 222.041 742.426 221.677 742.426 221.227V200.662Z" fill="#C0343B" fill-opacity="0.682353"/>
<path d="M796.283 210.129H775.718C775.268 210.129 774.903 210.494 774.903 210.944C774.903 211.394 775.268 211.759 775.718 211.759H796.283C796.732 211.759 797.097 211.394 797.097 210.944C797.097 210.494 796.732 210.129 796.283 210.129Z" fill="#222222"/>
<path d="M41.6712 254.518H21.1063C20.6563 254.518 20.2915 254.883 20.2915 255.333C20.2915 255.783 20.6563 256.148 21.1063 256.148H41.6712C42.1212 256.148 42.4859 255.783 42.4859 255.333C42.4859 254.883 42.1212 254.518 41.6712 254.518Z" fill="#222222"/>
<path d="M32.2035 245.051C32.2035 244.601 31.8387 244.236 31.3887 244.236C30.9388 244.236 30.574 244.601 30.574 245.051V265.616C30.574 266.066 30.9388 266.431 31.3887 266.431C31.8387 266.431 32.2035 266.066 32.2035 265.616V245.051Z" fill="#222222"/>
<path d="M86.0603 254.518H65.4954C65.0454 254.518 64.6807 254.883 64.6807 255.333C64.6807 255.783 65.0454 256.148 65.4954 256.148H86.0603C86.5103 256.148 86.8751 255.783 86.8751 255.333C86.8751 254.883 86.5103 254.518 86.0603 254.518Z" fill="#C0343B" fill-opacity="0.682353"/>
<path d="M76.5927 245.051C76.5927 244.601 76.2279 244.236 75.7779 244.236C75.3279 244.236 74.9631 244.601 74.9631 245.051V265.616C74.9631 266.066 75.3279 266.431 75.7779 266.431C76.2279 266.431 76.5927 266.066 76.5927 265.616V245.051Z" fill="#C0343B" fill-opacity="0.682353"/>
<path d="M130.449 254.518H109.884C109.434 254.518 109.069 254.883 109.069 255.333C109.069 255.783 109.434 256.148 109.884 256.148H130.449C130.899 256.148 131.264 255.783 131.264 255.333C131.264 254.883 130.899 254.518 130.449 254.518Z" fill="#222222"/>
<path d="M120.982 245.051C120.982 244.601 120.617 244.236 120.167 244.236C119.717 244.236 119.352 244.601 119.352 245.051V265.616C119.352 266.066 119.717 266.431 120.167 266.431C120.617 266.431 120.982 266.066 120.982 265.616V245.051Z" fill="#222222"/>
<path d="M174.838 254.518H154.273C153.823 254.518 153.458 254.883 153.458 255.333C153.458 255.783 153.823 256.148 154.273 256.148H174.838C175.288 256.148 175.653 255.783 175.653 255.333C175.653 254.883 175.288 254.518 174.838 254.518Z" fill="#C0343B" fill-opacity="0.682353"/>
<path d="M165.37 245.051C165.37 244.601 165.005 244.236 164.555 244.236C164.105 244.236 163.74 244.601 163.74 245.051V265.616C163.74 266.066 164.105 266.431 164.555 266.431C165.005 266.431 165.37 266.066 165.37 265.616V245.051Z" fill="#C0343B" fill-opacity="0.682353"/>
<path d="M219.227 254.518H198.662C198.212 254.518 197.847 254.883 197.847 255.333C197.847 255.783 198.212 256.148 198.662 256.148H219.227C219.677 256.148 220.041 255.783 220.041 255.333C220.041 254.883 219.677 254.518 219.227 254.518Z" fill="#222222"/>
<path d="M209.759 245.051C209.759 244.601 209.395 244.236 208.945 244.236C208.495 244.236 208.13 244.601 208.13 245.051V265.616C208.13 266.066 208.495 266.431 208.945 266.431C209.395 266.431 209.759 266.066 209.759 265.616V245.051Z" fill="#222222"/>
<path d="M263.616 254.518H243.051C242.601 254.518 242.236 254.883 242.236 255.333C242.236 255.783 242.601 256.148 243.051 256.148H263.616C264.066 256.148 264.431 255.783 264.431 255.333C264.431 254.883 264.066 254.518 263.616 254.518Z" fill="#C0343B" fill-opacity="0.682353"/>
<path d="M254.148 245.051C254.148 244.601 253.784 244.236 253.334 244.236C252.884 244.236 252.519 244.601 252.519 245.051V265.616C252.519 266.066 252.884 266.431 253.334 266.431C253.784 266.431 254.148 266.066 254.148 265.616V245.051Z" fill="#C0343B" fill-opacity="0.682353"/>
<path d="M308.005 254.518H287.44C286.99 254.518 286.625 254.883 286.625 255.333C286.625 255.783 286.99 256.148 287.44 256.148H308.005C308.455 256.148 308.819 255.783 308.819 255.333C308.819 254.883 308.455 254.518 308.005 254.518Z" fill="#222222"/>
<path d="M298.537 245.051C298.537 244.601 298.172 244.236 297.722 244.236C297.272 244.236 296.907 244.601 296.907 245.051V265.616C296.907 266.066 297.272 266.431 297.722 266.431C298.172 266.431 298.537 266.066 298.537 265.616V245.051Z" fill="#222222"/>
<path d="M352.394 254.518H331.829C331.379 254.518 331.014 254.883 331.014 255.333C331.014 255.783 331.379 256.148 331.829 256.148H352.394C352.844 256.148 353.209 255.783 353.209 255.333C353.209 254.883 352.844 254.518 352.394 254.518Z" fill="#C0343B" fill-opacity="0.682353"/>
<path d="M342.926 245.051C342.926 244.601 342.561 244.236 342.111 244.236C341.661 244.236 341.296 244.601 341.296 245.051V265.616C341.296 266.066 341.661 266.431 342.111 266.431C342.561 266.431 342.926 266.066 342.926 265.616V245.051Z" fill="#C0343B" fill-opacity="0.682353"/>
<path d="M396.783 254.518H376.218C375.768 254.518 375.403 254.883 375.403 255.333C375.403 255.783 375.768 256.148 376.218 256.148H396.783C397.232 256.148 397.597 255.783 397.597 255.333C397.597 254.883 397.232 254.518 396.783 254.518Z" fill="#222222"/>
<path d="M387.315 245.051C387.315 244.601 386.95 244.236 386.5 244.236C386.05 244.236 385.685 244.601 385.685 245.051V265.616C385.685 266.066 386.05 266.431 386.5 266.431C386.95 266.431 387.315 266.066 387.315 265.616V245.051Z" fill="#222222"/>
<path d="M441.171 254.518H420.606C420.157 254.518 419.792 254.883 419.792 255.333C419.792 255.783 420.157 256.148 420.606 256.148H441.171C441.621 256.148 441.986 255.783 441.986 255.333C441.986 254.883 441.621 254.518 441.171 254.518Z" fill="#C0343B" fill-opacity="0.682353"/>
<path d="M431.704 245.051C431.704 244.601 431.339 244.236 430.889 244.236C430.439 244.236 430.074 244.601 430.074 245.051V265.616C430.074 266.066 430.439 266.431 430.889 266.431C431.339 266.431 431.704 266.066 431.704 265.616V245.051Z" fill="#C0343B" fill-opacity="0.682353"/>
<path d="M485.56 254.518H464.995C464.545 254.518 464.181 254.883 464.181 255.333C464.181 255.783 464.545 256.148 464.995 256.148H485.56C486.01 256.148 486.375 255.783 486.375 255.333C486.375 254.883 486.01 254.518 485.56 254.518Z" fill="#222222"/>
<path d="M476.093 245.051C476.093 244.601 475.728 244.236 475.278 244.236C474.828 244.236 474.463 244.601 474.463 245.051V265.616C474.463 266.066 474.828 266.431 475.278 266.431C475.728 266.431 476.093 266.066 476.093 265.616V245.051Z" fill="#222222"/>
<path d="M529.949 254.518H509.384C508.934 254.518 508.569 254.883 508.569 255.333C508.569 255.783 508.934 256.148 509.384 256.148H529.949C530.399 256.148 530.764 255.783 530.764 255.333C530.764 254.883 530.399 254.518 529.949 254.518Z" fill="#C0343B" fill-opacity="0.682353"/>
<path d="M520.481 245.051C520.481 244.601 520.117 244.236 519.667 244.236C519.217 244.236 518.852 244.601 518.852 245.051V265.616C518.852 266.066 519.217 266.431 519.667 266.431C520.117 266.431 520.481 266.066 520.481 265.616V245.051Z" fill="#C0343B" fill-opacity="0.682353"/>
<path d="M574.338 254.518H553.773C553.323 254.518 552.958 254.883 552.958 255.333C552.958 255.783 553.323 256.148 553.773 256.148H574.338C574.788 256.148 575.153 255.783 575.153 255.333C575.153 254.883 574.788 254.518 574.338 254.518Z" fill="#222222"/>
<path d="M564.87 245.051C564.87 244.601 564.505 244.236 564.055 244.236C563.606 244.236 563.241 244.601 563.241 245.051V265.616C563.241 266.066 563.606 266.431 564.055 266.431C564.505 266.431 564.87 266.066 564.87 265.616V245.051Z" fill="#222222"/>
<path d="M618.727 254.518H598.162C597.712 254.518 597.347 254.883 597.347 255.333C597.347 255.783 597.712 256.148 598.162 256.148H618.727C619.177 256.148 619.542 255.783 619.542 255.333C619.542 254.883 619.177 254.518 618.727 254.518Z" fill="#C0343B" fill-opacity="0.682353"/>
<path d="M609.259 245.051C609.259 244.601 608.895 244.236 608.445 244.236C607.995 244.236 607.63 244.601 607.63 245.051V265.616C607.63 266.066 607.995 266.431 608.445 266.431C608.895 266.431 609.259 266.066 609.259 265.616V245.051Z" fill="#C0343B" fill-opacity="0.682353"/>
<path d="M663.116 254.518H642.551C642.101 254.518 641.736 254.883 641.736 255.333C641.736 255.783 642.101 256.148 642.551 256.148H663.116C663.565 256.148 663.93 255.783 663.93 255.333C663.93 254.883 663.565 254.518 663.116 254.518Z" fill="#222222"/>
<path d="M653.648 245.051C653.648 244.601 653.283 244.236 652.833 244.236C652.383 244.236 652.019 244.601 652.019 245.051V265.616C652.019 266.066 652.383 266.431 652.833 266.431C653.283 266.431 653.648 266.066 653.648 265.616V245.051Z" fill="#222222"/>
<path d="M707.504 254.518H686.94C686.49 254.518 686.125 254.883 686.125 255.333C686.125 255.783 686.49 256.148 686.94 256.148H707.504C707.954 256.148 708.319 255.783 708.319 255.333C708.319 254.883 707.954 254.518 707.504 254.518Z" fill="#C0343B" fill-opacity="0.682353"/>
<path d="M698.037 245.051C698.037 244.601 697.672 244.236 697.222 244.236C696.772 244.236 696.408 244.601 696.408 245.051V265.616C696.408 266.066 696.772 266.431 697.222 266.431C697.672 266.431 698.037 266.066 698.037 265.616V245.051Z" fill="#C0343B" fill-opacity="0.682353"/>
<path d="M751.894 254.518H731.329C730.879 254.518 730.514 254.883 730.514 255.333C730.514 255.783 730.879 256.148 731.329 256.148H751.894C752.344 256.148 752.708 255.783 752.708 255.333C752.708 254.883 752.344 254.518 751.894 254.518Z" fill="#222222"/>
<path d="M742.426 245.051C742.426 244.601 742.061 244.236 741.611 244.236C741.161 244.236 740.796 244.601 740.796 245.051V265.616C740.796 266.066 741.161 266.431 741.611 266.431C742.061 266.431 742.426 266.066 742.426 265.616V245.051Z" fill="#222222"/>
<path d="M796.283 254.518H775.718C775.268 254.518 774.903 254.883 774.903 255.333C774.903 255.783 775.268 256.148 775.718 256.148H796.283C796.732 256.148 797.097 255.783 797.097 255.333C797.097 254.883 796.732 254.518 796.283 254.518Z" fill="#C0343B" fill-opacity="0.682353"/>
<path d="M41.6712 298.907H21.1063C20.6563 298.907 20.2915 299.272 20.2915 299.722C20.2915 300.172 20.6563 300.537 21.1063 300.537H41.6712C42.1212 300.537 42.4859 300.172 42.4859 299.722C42.4859 299.272 42.1212 298.907 41.6712 298.907Z" fill="#C0343B" fill-opacity="0.682353"/>
<path d="M32.2035 289.44C32.2035 288.99 31.8387 288.625 31.3887 288.625C30.9388 288.625 30.574 288.99 30.574 289.44V310.004C30.574 310.454 30.9388 310.819 31.3887 310.819C31.8387 310.819 32.2035 310.454 32.2035 310.004V289.44Z" fill="#C0343B" fill-opacity="0.682353"/>
<path d="M86.0603 298.907H65.4954C65.0454 298.907 64.6807 299.272 64.6807 299.722C64.6807 300.172 65.0454 300.537 65.4954 300.537H86.0603C86.5103 300.537 86.8751 300.172 86.8751 299.722C86.8751 299.272 86.5103 298.907 86.0603 298.907Z" fill="#222222"/>
<path d="M76.5927 289.44C76.5927 288.99 76.2279 288.625 75.7779 288.625C75.3279 288.625 74.9631 288.99 74.9631 289.44V310.004C74.9631 310.454 75.3279 310.819 75.7779 310.819C76.2279 310.819 76.5927 310.454 76.5927 310.004V289.44Z" fill="#222222"/>
<path d="M130.449 298.907H109.884C109.434 298.907 109.07 299.272 109.07 299.722C109.07 300.172 109.434 300.537 109.884 300.537H130.449C130.899 300.537 131.264 300.172 131.264 299.722C131.264 299.272 130.899 298.907 130.449 298.907Z" fill="#C0343B" fill-opacity="0.682353"/>
<path d="M120.982 289.44C120.982 288.99 120.617 288.625 120.167 288.625C119.717 288.625 119.352 288.99 119.352 289.44V310.004C119.352 310.454 119.717 310.819 120.167 310.819C120.617 310.819 120.982 310.454 120.982 310.004V289.44Z" fill="#C0343B" fill-opacity="0.682353"/>
<path d="M174.838 298.907H154.273C153.823 298.907 153.458 299.272 153.458 299.722C153.458 300.172 153.823 300.537 154.273 300.537H174.838C175.288 300.537 175.653 300.172 175.653 299.722C175.653 299.272 175.288 298.907 174.838 298.907Z" fill="#222222"/>
<path d="M165.37 289.44C165.37 288.99 165.005 288.625 164.555 288.625C164.105 288.625 163.74 288.99 163.74 289.44V310.004C163.74 310.454 164.105 310.819 164.555 310.819C165.005 310.819 165.37 310.454 165.37 310.004V289.44Z" fill="#222222"/>
<path d="M219.227 298.907H198.662C198.212 298.907 197.847 299.272 197.847 299.722C197.847 300.172 198.212 300.537 198.662 300.537H219.227C219.677 300.537 220.042 300.172 220.042 299.722C220.042 299.272 219.677 298.907 219.227 298.907Z" fill="#C0343B" fill-opacity="0.682353"/>
<path d="M209.759 289.44C209.759 288.99 209.395 288.625 208.945 288.625C208.495 288.625 208.13 288.99 208.13 289.44V310.004C208.13 310.454 208.495 310.819 208.945 310.819C209.395 310.819 209.759 310.454 209.759 310.004V289.44Z" fill="#C0343B" fill-opacity="0.682353"/>
<path d="M263.616 298.907H243.051C242.601 298.907 242.236 299.272 242.236 299.722C242.236 300.172 242.601 300.537 243.051 300.537H263.616C264.066 300.537 264.431 300.172 264.431 299.722C264.431 299.272 264.066 298.907 263.616 298.907Z" fill="#222222"/>
<path d="M254.148 289.44C254.148 288.99 253.784 288.625 253.334 288.625C252.884 288.625 252.519 288.99 252.519 289.44V310.004C252.519 310.454 252.884 310.819 253.334 310.819C253.784 310.819 254.148 310.454 254.148 310.004V289.44Z" fill="#222222"/>
<path d="M308.005 298.907H287.44C286.99 298.907 286.625 299.272 286.625 299.722C286.625 300.172 286.99 300.537 287.44 300.537H308.005C308.455 300.537 308.819 300.172 308.819 299.722C308.819 299.272 308.455 298.907 308.005 298.907Z" fill="#C0343B" fill-opacity="0.682353"/>
<path d="M298.537 289.44C298.537 288.99 298.172 288.625 297.722 288.625C297.272 288.625 296.907 288.99 296.907 289.44V310.004C296.907 310.454 297.272 310.819 297.722 310.819C298.172 310.819 298.537 310.454 298.537 310.004V289.44Z" fill="#C0343B" fill-opacity="0.682353"/>
<path d="M352.394 298.907H331.829C331.379 298.907 331.014 299.272 331.014 299.722C331.014 300.172 331.379 300.537 331.829 300.537H352.394C352.844 300.537 353.209 300.172 353.209 299.722C353.209 299.272 352.844 298.907 352.394 298.907Z" fill="#222222"/>
<path d="M342.926 289.44C342.926 288.99 342.561 288.625 342.111 288.625C341.661 288.625 341.296 288.99 341.296 289.44V310.004C341.296 310.454 341.661 310.819 342.111 310.819C342.561 310.819 342.926 310.454 342.926 310.004V289.44Z" fill="#222222"/>
<path d="M396.783 298.907H376.218C375.768 298.907 375.403 299.272 375.403 299.722C375.403 300.172 375.768 300.537 376.218 300.537H396.783C397.232 300.537 397.597 300.172 397.597 299.722C397.597 299.272 397.232 298.907 396.783 298.907Z" fill="#C0343B" fill-opacity="0.682353"/>
<path d="M387.315 289.44C387.315 288.99 386.95 288.625 386.5 288.625C386.05 288.625 385.685 288.99 385.685 289.44V310.004C385.685 310.454 386.05 310.819 386.5 310.819C386.95 310.819 387.315 310.454 387.315 310.004V289.44Z" fill="#C0343B" fill-opacity="0.682353"/>
<path d="M441.171 298.907H420.606C420.157 298.907 419.792 299.272 419.792 299.722C419.792 300.172 420.157 300.537 420.606 300.537H441.171C441.621 300.537 441.986 300.172 441.986 299.722C441.986 299.272 441.621 298.907 441.171 298.907Z" fill="#222222"/>
<path d="M431.704 289.44C431.704 288.99 431.339 288.625 430.889 288.625C430.439 288.625 430.074 288.99 430.074 289.44V310.004C430.074 310.454 430.439 310.819 430.889 310.819C431.339 310.819 431.704 310.454 431.704 310.004V289.44Z" fill="#222222"/>
<path d="M485.56 298.907H464.995C464.545 298.907 464.181 299.272 464.181 299.722C464.181 300.172 464.545 300.537 464.995 300.537H485.56C486.01 300.537 486.375 300.172 486.375 299.722C486.375 299.272 486.01 298.907 485.56 298.907Z" fill="#C0343B" fill-opacity="0.682353"/>
<path d="M476.093 289.44C476.093 288.99 475.728 288.625 475.278 288.625C474.828 288.625 474.463 288.99 474.463 289.44V310.004C474.463 310.454 474.828 310.819 475.278 310.819C475.728 310.819 476.093 310.454 476.093 310.004V289.44Z" fill="#C0343B" fill-opacity="0.682353"/>
<path d="M529.949 298.907H509.384C508.934 298.907 508.569 299.272 508.569 299.722C508.569 300.172 508.934 300.537 509.384 300.537H529.949C530.399 300.537 530.764 300.172 530.764 299.722C530.764 299.272 530.399 298.907 529.949 298.907Z" fill="#222222"/>
<path d="M520.481 289.44C520.481 288.99 520.117 288.625 519.667 288.625C519.217 288.625 518.852 288.99 518.852 289.44V310.004C518.852 310.454 519.217 310.819 519.667 310.819C520.117 310.819 520.481 310.454 520.481 310.004V289.44Z" fill="#222222"/>
<path d="M574.338 298.907H553.773C553.323 298.907 552.958 299.272 552.958 299.722C552.958 300.172 553.323 300.537 553.773 300.537H574.338C574.788 300.537 575.153 300.172 575.153 299.722C575.153 299.272 574.788 298.907 574.338 298.907Z" fill="#C0343B" fill-opacity="0.682353"/>
<path d="M564.87 289.44C564.87 288.99 564.505 288.625 564.055 288.625C563.606 288.625 563.241 288.99 563.241 289.44V310.004C563.241 310.454 563.606 310.819 564.055 310.819C564.505 310.819 564.87 310.454 564.87 310.004V289.44Z" fill="#C0343B" fill-opacity="0.682353"/>
<path d="M618.727 298.907H598.162C597.712 298.907 597.347 299.272 597.347 299.722C597.347 300.172 597.712 300.537 598.162 300.537H618.727C619.177 300.537 619.542 300.172 619.542 299.722C619.542 299.272 619.177 298.907 618.727 298.907Z" fill="#222222"/>
<path d="M609.259 289.44C609.259 288.99 608.895 288.625 608.445 288.625C607.995 288.625 607.63 288.99 607.63 289.44V310.004C607.63 310.454 607.995 310.819 608.445 310.819C608.895 310.819 609.259 310.454 609.259 310.004V289.44Z" fill="#222222"/>
<path d="M663.116 298.907H642.551C642.101 298.907 641.736 299.272 641.736 299.722C641.736 300.172 642.101 300.537 642.551 300.537H663.116C663.565 300.537 663.93 300.172 663.93 299.722C663.93 299.272 663.565 298.907 663.116 298.907Z" fill="#C0343B" fill-opacity="0.682353"/>
<path d="M653.648 289.44C653.648 288.99 653.283 288.625 652.833 288.625C652.383 288.625 652.019 288.99 652.019 289.44V310.004C652.019 310.454 652.383 310.819 652.833 310.819C653.283 310.819 653.648 310.454 653.648 310.004V289.44Z" fill="#C0343B" fill-opacity="0.682353"/>
<path d="M707.504 298.907H686.94C686.49 298.907 686.125 299.272 686.125 299.722C686.125 300.172 686.49 300.537 686.94 300.537H707.504C707.954 300.537 708.319 300.172 708.319 299.722C708.319 299.272 707.954 298.907 707.504 298.907Z" fill="#222222"/>
<path d="M698.037 289.44C698.037 288.99 697.672 288.625 697.222 288.625C696.772 288.625 696.408 288.99 696.408 289.44V310.004C696.408 310.454 696.772 310.819 697.222 310.819C697.672 310.819 698.037 310.454 698.037 310.004V289.44Z" fill="#222222"/>
<path d="M751.894 298.907H731.329C730.879 298.907 730.514 299.272 730.514 299.722C730.514 300.172 730.879 300.537 731.329 300.537H751.894C752.344 300.537 752.708 300.172 752.708 299.722C752.708 299.272 752.344 298.907 751.894 298.907Z" fill="#C0343B" fill-opacity="0.682353"/>
<path d="M742.426 289.44C742.426 288.99 742.061 288.625 741.611 288.625C741.161 288.625 740.796 288.99 740.796 289.44V310.004C740.796 310.454 741.161 310.819 741.611 310.819C742.061 310.819 742.426 310.454 742.426 310.004V289.44Z" fill="#C0343B" fill-opacity="0.682353"/>
<path d="M796.283 298.907H775.718C775.268 298.907 774.903 299.272 774.903 299.722C774.903 300.172 775.268 300.537 775.718 300.537H796.283C796.732 300.537 797.097 300.172 797.097 299.722C797.097 299.272 796.732 298.907 796.283 298.907Z" fill="#222222"/>
<path d="M41.6712 343.296H21.1063C20.6563 343.296 20.2915 343.661 20.2915 344.111C20.2915 344.561 20.6563 344.926 21.1063 344.926H41.6712C42.1212 344.926 42.4859 344.561 42.4859 344.111C42.4859 343.661 42.1212 343.296 41.6712 343.296Z" fill="#222222"/>
<path d="M32.2038 333.829C32.2038 333.379 31.839 333.014 31.389 333.014C30.939 333.014 30.5742 333.379 30.5742 333.829V354.394C30.5742 354.844 30.939 355.209 31.389 355.209C31.839 355.209 32.2038 354.844 32.2038 354.394V333.829Z" fill="#222222"/>
<path d="M86.0603 343.296H65.4954C65.0454 343.296 64.6807 343.661 64.6807 344.111C64.6807 344.561 65.0454 344.926 65.4954 344.926H86.0603C86.5103 344.926 86.8751 344.561 86.8751 344.111C86.8751 343.661 86.5103 343.296 86.0603 343.296Z" fill="#C0343B" fill-opacity="0.682353"/>
<path d="M76.5927 333.829C76.5927 333.379 76.2279 333.014 75.7779 333.014C75.3279 333.014 74.9631 333.379 74.9631 333.829V354.394C74.9631 354.844 75.3279 355.209 75.7779 355.209C76.2279 355.209 76.5927 354.844 76.5927 354.394V333.829Z" fill="#C0343B" fill-opacity="0.682353"/>
<path d="M130.449 343.296H109.884C109.434 343.296 109.07 343.661 109.07 344.111C109.07 344.561 109.434 344.926 109.884 344.926H130.449C130.899 344.926 131.264 344.561 131.264 344.111C131.264 343.661 130.899 343.296 130.449 343.296Z" fill="#222222"/>
<path d="M120.982 333.829C120.982 333.379 120.617 333.014 120.167 333.014C119.717 333.014 119.352 333.379 119.352 333.829V354.394C119.352 354.844 119.717 355.209 120.167 355.209C120.617 355.209 120.982 354.844 120.982 354.394V333.829Z" fill="#222222"/>
<path d="M174.838 343.296H154.273C153.823 343.296 153.458 343.661 153.458 344.111C153.458 344.561 153.823 344.926 154.273 344.926H174.838C175.288 344.926 175.653 344.561 175.653 344.111C175.653 343.661 175.288 343.296 174.838 343.296Z" fill="#C0343B" fill-opacity="0.682353"/>
<path d="M165.37 333.829C165.37 333.379 165.005 333.014 164.555 333.014C164.105 333.014 163.74 333.379 163.74 333.829V354.394C163.74 354.844 164.105 355.209 164.555 355.209C165.005 355.209 165.37 354.844 165.37 354.394V333.829Z" fill="#C0343B" fill-opacity="0.682353"/>
<path d="M219.227 343.296H198.662C198.212 343.296 197.847 343.661 197.847 344.111C197.847 344.561 198.212 344.926 198.662 344.926H219.227C219.677 344.926 220.042 344.561 220.042 344.111C220.042 343.661 219.677 343.296 219.227 343.296Z" fill="#222222"/>
<path d="M209.759 333.829C209.759 333.379 209.395 333.014 208.945 333.014C208.495 333.014 208.13 333.379 208.13 333.829V354.394C208.13 354.844 208.495 355.209 208.945 355.209C209.395 355.209 209.759 354.844 209.759 354.394V333.829Z" fill="#222222"/>
<path d="M263.616 343.296H243.051C242.601 343.296 242.236 343.661 242.236 344.111C242.236 344.561 242.601 344.926 243.051 344.926H263.616C264.066 344.926 264.431 344.561 264.431 344.111C264.431 343.661 264.066 343.296 263.616 343.296Z" fill="#C0343B" fill-opacity="0.682353"/>
<path d="M254.148 333.829C254.148 333.379 253.784 333.014 253.334 333.014C252.884 333.014 252.519 333.379 252.519 333.829V354.394C252.519 354.844 252.884 355.209 253.334 355.209C253.784 355.209 254.148 354.844 254.148 354.394V333.829Z" fill="#C0343B" fill-opacity="0.682353"/>
<path d="M308.005 343.296H287.44C286.99 343.296 286.625 343.661 286.625 344.111C286.625 344.561 286.99 344.926 287.44 344.926H308.005C308.455 344.926 308.819 344.561 308.819 344.111C308.819 343.661 308.455 343.296 308.005 343.296Z" fill="#222222"/>
<path d="M298.537 333.829C298.537 333.379 298.172 333.014 297.722 333.014C297.272 333.014 296.907 333.379 296.907 333.829V354.394C296.907 354.844 297.272 355.209 297.722 355.209C298.172 355.209 298.537 354.844 298.537 354.394V333.829Z" fill="#222222"/>
<path d="M352.394 343.296H331.829C331.379 343.296 331.014 343.661 331.014 344.111C331.014 344.561 331.379 344.926 331.829 344.926H352.394C352.844 344.926 353.209 344.561 353.209 344.111C353.209 343.661 352.844 343.296 352.394 343.296Z" fill="#C0343B" fill-opacity="0.682353"/>
<path d="M342.926 333.829C342.926 333.379 342.561 333.014 342.111 333.014C341.661 333.014 341.296 333.379 341.296 333.829V354.394C341.296 354.844 341.661 355.209 342.111 355.209C342.561 355.209 342.926 354.844 342.926 354.394V333.829Z" fill="#C0343B" fill-opacity="0.682353"/>
<path d="M396.783 343.296H376.218C375.768 343.296 375.403 343.661 375.403 344.111C375.403 344.561 375.768 344.926 376.218 344.926H396.783C397.232 344.926 397.597 344.561 397.597 344.111C397.597 343.661 397.232 343.296 396.783 343.296Z" fill="#222222"/>
<path d="M387.315 333.829C387.315 333.379 386.95 333.014 386.5 333.014C386.05 333.014 385.685 333.379 385.685 333.829V354.394C385.685 354.844 386.05 355.209 386.5 355.209C386.95 355.209 387.315 354.844 387.315 354.394V333.829Z" fill="#222222"/>
<path d="M441.171 343.296H420.606C420.157 343.296 419.792 343.661 419.792 344.111C419.792 344.561 420.157 344.926 420.606 344.926H441.171C441.621 344.926 441.986 344.561 441.986 344.111C441.986 343.661 441.621 343.296 441.171 343.296Z" fill="#C0343B" fill-opacity="0.682353"/>
<path d="M431.704 333.829C431.704 333.379 431.339 333.014 430.889 333.014C430.439 333.014 430.074 333.379 430.074 333.829V354.394C430.074 354.844 430.439 355.209 430.889 355.209C431.339 355.209 431.704 354.844 431.704 354.394V333.829Z" fill="#C0343B" fill-opacity="0.682353"/>
<path d="M485.56 343.296H464.995C464.545 343.296 464.181 343.661 464.181 344.111C464.181 344.561 464.545 344.926 464.995 344.926H485.56C486.01 344.926 486.375 344.561 486.375 344.111C486.375 343.661 486.01 343.296 485.56 343.296Z" fill="#222222"/>
<path d="M476.093 333.829C476.093 333.379 475.728 333.014 475.278 333.014C474.828 333.014 474.463 333.379 474.463 333.829V354.394C474.463 354.844 474.828 355.209 475.278 355.209C475.728 355.209 476.093 354.844 476.093 354.394V333.829Z" fill="#222222"/>
<path d="M529.949 343.296H509.384C508.934 343.296 508.569 343.661 508.569 344.111C508.569 344.561 508.934 344.926 509.384 344.926H529.949C530.399 344.926 530.764 344.561 530.764 344.111C530.764 343.661 530.399 343.296 529.949 343.296Z" fill="#C0343B" fill-opacity="0.682353"/>
<path d="M520.481 333.829C520.481 333.379 520.117 333.014 519.667 333.014C519.217 333.014 518.852 333.379 518.852 333.829V354.394C518.852 354.844 519.217 355.209 519.667 355.209C520.117 355.209 520.481 354.844 520.481 354.394V333.829Z" fill="#C0343B" fill-opacity="0.682353"/>
<path d="M574.338 343.296H553.773C553.323 343.296 552.958 343.661 552.958 344.111C552.958 344.561 553.323 344.926 553.773 344.926H574.338C574.788 344.926 575.153 344.561 575.153 344.111C575.153 343.661 574.788 343.296 574.338 343.296Z" fill="#222222"/>
<path d="M564.87 333.829C564.87 333.379 564.505 333.014 564.055 333.014C563.606 333.014 563.241 333.379 563.241 333.829V354.394C563.241 354.844 563.606 355.209 564.055 355.209C564.505 355.209 564.87 354.844 564.87 354.394V333.829Z" fill="#222222"/>
<path d="M618.727 343.296H598.162C597.712 343.296 597.347 343.661 597.347 344.111C597.347 344.561 597.712 344.926 598.162 344.926H618.727C619.177 344.926 619.542 344.561 619.542 344.111C619.542 343.661 619.177 343.296 618.727 343.296Z" fill="#C0343B" fill-opacity="0.682353"/>
<path d="M609.259 333.829C609.259 333.379 608.895 333.014 608.445 333.014C607.995 333.014 607.63 333.379 607.63 333.829V354.394C607.63 354.844 607.995 355.209 608.445 355.209C608.895 355.209 609.259 354.844 609.259 354.394V333.829Z" fill="#C0343B" fill-opacity="0.682353"/>
<path d="M663.116 343.296H642.551C642.101 343.296 641.736 343.661 641.736 344.111C641.736 344.561 642.101 344.926 642.551 344.926H663.116C663.565 344.926 663.93 344.561 663.93 344.111C663.93 343.661 663.565 343.296 663.116 343.296Z" fill="#222222"/>
<path d="M653.648 333.829C653.648 333.379 653.283 333.014 652.833 333.014C652.383 333.014 652.019 333.379 652.019 333.829V354.394C652.019 354.844 652.383 355.209 652.833 355.209C653.283 355.209 653.648 354.844 653.648 354.394V333.829Z" fill="#222222"/>
<path d="M707.504 343.296H686.94C686.49 343.296 686.125 343.661 686.125 344.111C686.125 344.561 686.49 344.926 686.94 344.926H707.504C707.954 344.926 708.319 344.561 708.319 344.111C708.319 343.661 707.954 343.296 707.504 343.296Z" fill="#C0343B" fill-opacity="0.682353"/>
<path d="M698.037 333.829C698.037 333.379 697.672 333.014 697.222 333.014C696.772 333.014 696.408 333.379 696.408 333.829V354.394C696.408 354.844 696.772 355.209 697.222 355.209C697.672 355.209 698.037 354.844 698.037 354.394V333.829Z" fill="#C0343B" fill-opacity="0.682353"/>
<path d="M751.894 343.296H731.329C730.879 343.296 730.514 343.661 730.514 344.111C730.514 344.561 730.879 344.926 731.329 344.926H751.894C752.344 344.926 752.708 344.561 752.708 344.111C752.708 343.661 752.344 343.296 751.894 343.296Z" fill="#222222"/>
<path d="M742.426 333.829C742.426 333.379 742.061 333.014 741.611 333.014C741.161 333.014 740.796 333.379 740.796 333.829V354.394C740.796 354.844 741.161 355.209 741.611 355.209C742.061 355.209 742.426 354.844 742.426 354.394V333.829Z" fill="#222222"/>
<path d="M796.283 343.296H775.718C775.268 343.296 774.903 343.661 774.903 344.111C774.903 344.561 775.268 344.926 775.718 344.926H796.283C796.732 344.926 797.097 344.561 797.097 344.111C797.097 343.661 796.732 343.296 796.283 343.296Z" fill="#C0343B" fill-opacity="0.682353"/>
<path d="M41.6712 387.685H21.1063C20.6563 387.685 20.2915 388.05 20.2915 388.5C20.2915 388.95 20.6563 389.315 21.1063 389.315H41.6712C42.1212 389.315 42.4859 388.95 42.4859 388.5C42.4859 388.05 42.1212 387.685 41.6712 387.685Z" fill="#C0343B" fill-opacity="0.682353"/>
<path d="M32.2038 378.217C32.2038 377.767 31.839 377.403 31.389 377.403C30.939 377.403 30.5742 377.767 30.5742 378.217V398.782C30.5742 399.232 30.939 399.597 31.389 399.597C31.839 399.597 32.2038 399.232 32.2038 398.782V378.217Z" fill="#C0343B" fill-opacity="0.682353"/>
<path d="M86.0603 387.685H65.4954C65.0454 387.685 64.6807 388.05 64.6807 388.5C64.6807 388.95 65.0454 389.315 65.4954 389.315H86.0603C86.5103 389.315 86.8751 388.95 86.8751 388.5C86.8751 388.05 86.5103 387.685 86.0603 387.685Z" fill="#222222"/>
<path d="M76.5927 378.217C76.5927 377.767 76.2279 377.403 75.7779 377.403C75.3279 377.403 74.9631 377.767 74.9631 378.217V398.782C74.9631 399.232 75.3279 399.597 75.7779 399.597C76.2279 399.597 76.5927 399.232 76.5927 398.782V378.217Z" fill="#222222"/>
<path d="M130.449 387.685H109.884C109.434 387.685 109.07 388.05 109.07 388.5C109.07 388.95 109.434 389.315 109.884 389.315H130.449C130.899 389.315 131.264 388.95 131.264 388.5C131.264 388.05 130.899 387.685 130.449 387.685Z" fill="#C0343B" fill-opacity="0.682353"/>
<path d="M120.982 378.217C120.982 377.767 120.617 377.403 120.167 377.403C119.717 377.403 119.352 377.767 119.352 378.217V398.782C119.352 399.232 119.717 399.597 120.167 399.597C120.617 399.597 120.982 399.232 120.982 398.782V378.217Z" fill="#C0343B" fill-opacity="0.682353"/>
<path d="M174.838 387.685H154.273C153.823 387.685 153.458 388.05 153.458 388.5C153.458 388.95 153.823 389.315 154.273 389.315H174.838C175.288 389.315 175.653 388.95 175.653 388.5C175.653 388.05 175.288 387.685 174.838 387.685Z" fill="#222222"/>
<path d="M165.37 378.217C165.37 377.767 165.005 377.403 164.555 377.403C164.105 377.403 163.74 377.767 163.74 378.217V398.782C163.74 399.232 164.105 399.597 164.555 399.597C165.005 399.597 165.37 399.232 165.37 398.782V378.217Z" fill="#222222"/>
<path d="M219.227 387.685H198.662C198.212 387.685 197.847 388.05 197.847 388.5C197.847 388.95 198.212 389.315 198.662 389.315H219.227C219.677 389.315 220.042 388.95 220.042 388.5C220.042 388.05 219.677 387.685 219.227 387.685Z" fill="#C0343B" fill-opacity="0.682353"/>
<path d="M209.759 378.217C209.759 377.767 209.395 377.403 208.945 377.403C208.495 377.403 208.13 377.767 208.13 378.217V398.782C208.13 399.232 208.495 399.597 208.945 399.597C209.395 399.597 209.759 399.232 209.759 398.782V378.217Z" fill="#C0343B" fill-opacity="0.682353"/>
<path d="M263.616 387.685H243.051C242.601 387.685 242.236 388.05 242.236 388.5C242.236 388.95 242.601 389.315 243.051 389.315H263.616C264.066 389.315 264.431 388.95 264.431 388.5C264.431 388.05 264.066 387.685 263.616 387.685Z" fill="#222222"/>
<path d="M254.148 378.217C254.148 377.767 253.784 377.403 253.334 377.403C252.884 377.403 252.519 377.767 252.519 378.217V398.782C252.519 399.232 252.884 399.597 253.334 399.597C253.784 399.597 254.148 399.232 254.148 398.782V378.217Z" fill="#222222"/>
<path d="M308.005 387.685H287.44C286.99 387.685 286.625 388.05 286.625 388.5C286.625 388.95 286.99 389.315 287.44 389.315H308.005C308.455 389.315 308.819 388.95 308.819 388.5C308.819 388.05 308.455 387.685 308.005 387.685Z" fill="#C0343B" fill-opacity="0.682353"/>
<path d="M298.537 378.217C298.537 377.767 298.172 377.403 297.722 377.403C297.272 377.403 296.907 377.767 296.907 378.217V398.782C296.907 399.232 297.272 399.597 297.722 399.597C298.172 399.597 298.537 399.232 298.537 398.782V378.217Z" fill="#C0343B" fill-opacity="0.682353"/>
<path d="M352.394 387.685H331.829C331.379 387.685 331.014 388.05 331.014 388.5C331.014 388.95 331.379 389.315 331.829 389.315H352.394C352.844 389.315 353.209 388.95 353.209 388.5C353.209 388.05 352.844 387.685 352.394 387.685Z" fill="#222222"/>
<path d="M342.926 378.217C342.926 377.767 342.561 377.403 342.111 377.403C341.661 377.403 341.296 377.767 341.296 378.217V398.782C341.296 399.232 341.661 399.597 342.111 399.597C342.561 399.597 342.926 399.232 342.926 398.782V378.217Z" fill="#222222"/>
<path d="M396.783 387.685H376.218C375.768 387.685 375.403 388.05 375.403 388.5C375.403 388.95 375.768 389.315 376.218 389.315H396.783C397.232 389.315 397.597 388.95 397.597 388.5C397.597 388.05 397.232 387.685 396.783 387.685Z" fill="#C0343B" fill-opacity="0.682353"/>
<path d="M387.315 378.217C387.315 377.767 386.95 377.403 386.5 377.403C386.05 377.403 385.685 377.767 385.685 378.217V398.782C385.685 399.232 386.05 399.597 386.5 399.597C386.95 399.597 387.315 399.232 387.315 398.782V378.217Z" fill="#C0343B" fill-opacity="0.682353"/>
<path d="M441.171 387.685H420.606C420.157 387.685 419.792 388.05 419.792 388.5C419.792 388.95 420.157 389.315 420.606 389.315H441.171C441.621 389.315 441.986 388.95 441.986 388.5C441.986 388.05 441.621 387.685 441.171 387.685Z" fill="#222222"/>
<path d="M431.704 378.217C431.704 377.767 431.339 377.403 430.889 377.403C430.439 377.403 430.074 377.767 430.074 378.217V398.782C430.074 399.232 430.439 399.597 430.889 399.597C431.339 399.597 431.704 399.232 431.704 398.782V378.217Z" fill="#222222"/>
<path d="M485.56 387.685H464.995C464.545 387.685 464.181 388.05 464.181 388.5C464.181 388.95 464.545 389.315 464.995 389.315H485.56C486.01 389.315 486.375 388.95 486.375 388.5C486.375 388.05 486.01 387.685 485.56 387.685Z" fill="#C0343B" fill-opacity="0.682353"/>
<path d="M476.093 378.217C476.093 377.767 475.728 377.403 475.278 377.403C474.828 377.403 474.463 377.767 474.463 378.217V398.782C474.463 399.232 474.828 399.597 475.278 399.597C475.728 399.597 476.093 399.232 476.093 398.782V378.217Z" fill="#C0343B" fill-opacity="0.682353"/>
<path d="M529.949 387.685H509.384C508.934 387.685 508.569 388.05 508.569 388.5C508.569 388.95 508.934 389.315 509.384 389.315H529.949C530.399 389.315 530.764 388.95 530.764 388.5C530.764 388.05 530.399 387.685 529.949 387.685Z" fill="#222222"/>
<path d="M520.481 378.217C520.481 377.767 520.117 377.403 519.667 377.403C519.217 377.403 518.852 377.767 518.852 378.217V398.782C518.852 399.232 519.217 399.597 519.667 399.597C520.117 399.597 520.481 399.232 520.481 398.782V378.217Z" fill="#222222"/>
<path d="M574.338 387.685H553.773C553.323 387.685 552.958 388.05 552.958 388.5C552.958 388.95 553.323 389.315 553.773 389.315H574.338C574.788 389.315 575.153 388.95 575.153 388.5C575.153 388.05 574.788 387.685 574.338 387.685Z" fill="#C0343B" fill-opacity="0.682353"/>
<path d="M564.87 378.217C564.87 377.767 564.505 377.403 564.055 377.403C563.606 377.403 563.241 377.767 563.241 378.217V398.782C563.241 399.232 563.606 399.597 564.055 399.597C564.505 399.597 564.87 399.232 564.87 398.782V378.217Z" fill="#C0343B" fill-opacity="0.682353"/>
<path d="M618.727 387.685H598.162C597.712 387.685 597.347 388.05 597.347 388.5C597.347 388.95 597.712 389.315 598.162 389.315H618.727C619.177 389.315 619.542 388.95 619.542 388.5C619.542 388.05 619.177 387.685 618.727 387.685Z" fill="#222222"/>
<path d="M609.259 378.217C609.259 377.767 608.895 377.403 608.445 377.403C607.995 377.403 607.63 377.767 607.63 378.217V398.782C607.63 399.232 607.995 399.597 608.445 399.597C608.895 399.597 609.259 399.232 609.259 398.782V378.217Z" fill="#222222"/>
<path d="M663.116 387.685H642.551C642.101 387.685 641.736 388.05 641.736 388.5C641.736 388.95 642.101 389.315 642.551 389.315H663.116C663.565 389.315 663.93 388.95 663.93 388.5C663.93 388.05 663.565 387.685 663.116 387.685Z" fill="#C0343B" fill-opacity="0.682353"/>
<path d="M653.648 378.217C653.648 377.767 653.283 377.403 652.833 377.403C652.383 377.403 652.019 377.767 652.019 378.217V398.782C652.019 399.232 652.383 399.597 652.833 399.597C653.283 399.597 653.648 399.232 653.648 398.782V378.217Z" fill="#C0343B" fill-opacity="0.682353"/>
<path d="M707.504 387.685H686.94C686.49 387.685 686.125 388.05 686.125 388.5C686.125 388.95 686.49 389.315 686.94 389.315H707.504C707.954 389.315 708.319 388.95 708.319 388.5C708.319 388.05 707.954 387.685 707.504 387.685Z" fill="#222222"/>
<path d="M698.037 378.217C698.037 377.767 697.672 377.403 697.222 377.403C696.772 377.403 696.408 377.767 696.408 378.217V398.782C696.408 399.232 696.772 399.597 697.222 399.597C697.672 399.597 698.037 399.232 698.037 398.782V378.217Z" fill="#222222"/>
<path d="M751.894 387.685H731.329C730.879 387.685 730.514 388.05 730.514 388.5C730.514 388.95 730.879 389.315 731.329 389.315H751.894C752.344 389.315 752.708 388.95 752.708 388.5C752.708 388.05 752.344 387.685 751.894 387.685Z" fill="#C0343B" fill-opacity="0.682353"/>
<path d="M742.426 378.217C742.426 377.767 742.061 377.403 741.611 377.403C741.161 377.403 740.796 377.767 740.796 378.217V398.782C740.796 399.232 741.161 399.597 741.611 399.597C742.061 399.597 742.426 399.232 742.426 398.782V378.217Z" fill="#C0343B" fill-opacity="0.682353"/>
<path d="M796.283 387.685H775.718C775.268 387.685 774.903 388.05 774.903 388.5C774.903 388.95 775.268 389.315 775.718 389.315H796.283C796.732 389.315 797.097 388.95 797.097 388.5C797.097 388.05 796.732 387.685 796.283 387.685Z" fill="#222222"/>
</g>
</g>
<defs>
<clipPath id="clip0_13_10166">
<rect width="775" height="421" rx="20" fill="white"/>
</clipPath>
<clipPath id="clip1_13_10166">
<rect width="799" height="799" fill="white" transform="translate(-13 -11)"/>
</clipPath>
</defs>
</svg>
